%TF.GenerationSoftware,KiCad,Pcbnew,8.0.4*%
%TF.CreationDate,2024-08-13T22:42:28-06:00*%
%TF.ProjectId,oil-lamp-safety,6f696c2d-6c61-46d7-902d-736166657479,v0.2*%
%TF.SameCoordinates,Original*%
%TF.FileFunction,Drillmap*%
%TF.FilePolarity,Positive*%
%FSLAX45Y45*%
G04 Gerber Fmt 4.5, Leading zero omitted, Abs format (unit mm)*
G04 Created by KiCad (PCBNEW 8.0.4) date 2024-08-13 22:42:28*
%MOMM*%
%LPD*%
G01*
G04 APERTURE LIST*
%ADD10C,0.100000*%
%ADD11C,0.200000*%
G04 APERTURE END LIST*
D10*
X8000000Y-6000000D02*
X12500000Y-6000000D01*
X12500000Y-12500000D01*
X8000000Y-12500000D01*
X8000000Y-6000000D01*
D11*
X8255777Y-12816484D02*
X8255777Y-12616484D01*
X8255777Y-12616484D02*
X8303396Y-12616484D01*
X8303396Y-12616484D02*
X8331967Y-12626008D01*
X8331967Y-12626008D02*
X8351015Y-12645055D01*
X8351015Y-12645055D02*
X8360539Y-12664103D01*
X8360539Y-12664103D02*
X8370062Y-12702198D01*
X8370062Y-12702198D02*
X8370062Y-12730769D01*
X8370062Y-12730769D02*
X8360539Y-12768865D01*
X8360539Y-12768865D02*
X8351015Y-12787912D01*
X8351015Y-12787912D02*
X8331967Y-12806960D01*
X8331967Y-12806960D02*
X8303396Y-12816484D01*
X8303396Y-12816484D02*
X8255777Y-12816484D01*
X8455777Y-12816484D02*
X8455777Y-12683150D01*
X8455777Y-12721246D02*
X8465301Y-12702198D01*
X8465301Y-12702198D02*
X8474824Y-12692674D01*
X8474824Y-12692674D02*
X8493872Y-12683150D01*
X8493872Y-12683150D02*
X8512920Y-12683150D01*
X8579586Y-12816484D02*
X8579586Y-12683150D01*
X8579586Y-12616484D02*
X8570063Y-12626008D01*
X8570063Y-12626008D02*
X8579586Y-12635531D01*
X8579586Y-12635531D02*
X8589110Y-12626008D01*
X8589110Y-12626008D02*
X8579586Y-12616484D01*
X8579586Y-12616484D02*
X8579586Y-12635531D01*
X8703396Y-12816484D02*
X8684348Y-12806960D01*
X8684348Y-12806960D02*
X8674824Y-12787912D01*
X8674824Y-12787912D02*
X8674824Y-12616484D01*
X8808158Y-12816484D02*
X8789110Y-12806960D01*
X8789110Y-12806960D02*
X8779586Y-12787912D01*
X8779586Y-12787912D02*
X8779586Y-12616484D01*
X9036729Y-12816484D02*
X9036729Y-12616484D01*
X9036729Y-12616484D02*
X9103396Y-12759341D01*
X9103396Y-12759341D02*
X9170063Y-12616484D01*
X9170063Y-12616484D02*
X9170063Y-12816484D01*
X9351015Y-12816484D02*
X9351015Y-12711722D01*
X9351015Y-12711722D02*
X9341491Y-12692674D01*
X9341491Y-12692674D02*
X9322444Y-12683150D01*
X9322444Y-12683150D02*
X9284348Y-12683150D01*
X9284348Y-12683150D02*
X9265301Y-12692674D01*
X9351015Y-12806960D02*
X9331967Y-12816484D01*
X9331967Y-12816484D02*
X9284348Y-12816484D01*
X9284348Y-12816484D02*
X9265301Y-12806960D01*
X9265301Y-12806960D02*
X9255777Y-12787912D01*
X9255777Y-12787912D02*
X9255777Y-12768865D01*
X9255777Y-12768865D02*
X9265301Y-12749817D01*
X9265301Y-12749817D02*
X9284348Y-12740293D01*
X9284348Y-12740293D02*
X9331967Y-12740293D01*
X9331967Y-12740293D02*
X9351015Y-12730769D01*
X9446253Y-12683150D02*
X9446253Y-12883150D01*
X9446253Y-12692674D02*
X9465301Y-12683150D01*
X9465301Y-12683150D02*
X9503396Y-12683150D01*
X9503396Y-12683150D02*
X9522444Y-12692674D01*
X9522444Y-12692674D02*
X9531967Y-12702198D01*
X9531967Y-12702198D02*
X9541491Y-12721246D01*
X9541491Y-12721246D02*
X9541491Y-12778388D01*
X9541491Y-12778388D02*
X9531967Y-12797436D01*
X9531967Y-12797436D02*
X9522444Y-12806960D01*
X9522444Y-12806960D02*
X9503396Y-12816484D01*
X9503396Y-12816484D02*
X9465301Y-12816484D01*
X9465301Y-12816484D02*
X9446253Y-12806960D01*
X9627205Y-12797436D02*
X9636729Y-12806960D01*
X9636729Y-12806960D02*
X9627205Y-12816484D01*
X9627205Y-12816484D02*
X9617682Y-12806960D01*
X9617682Y-12806960D02*
X9627205Y-12797436D01*
X9627205Y-12797436D02*
X9627205Y-12816484D01*
X9627205Y-12692674D02*
X9636729Y-12702198D01*
X9636729Y-12702198D02*
X9627205Y-12711722D01*
X9627205Y-12711722D02*
X9617682Y-12702198D01*
X9617682Y-12702198D02*
X9627205Y-12692674D01*
X9627205Y-12692674D02*
X9627205Y-12711722D01*
M02*
