%TF.GenerationSoftware,KiCad,Pcbnew,8.0.4*%
%TF.CreationDate,2024-08-13T22:42:24-06:00*%
%TF.ProjectId,oil-lamp-safety,6f696c2d-6c61-46d7-902d-736166657479,v0.2*%
%TF.SameCoordinates,Original*%
%TF.FileFunction,Legend,Bot*%
%TF.FilePolarity,Positive*%
%FSLAX46Y46*%
G04 Gerber Fmt 4.6, Leading zero omitted, Abs format (unit mm)*
G04 Created by KiCad (PCBNEW 8.0.4) date 2024-08-13 22:42:24*
%MOMM*%
%LPD*%
G01*
G04 APERTURE LIST*
%ADD10C,0.150000*%
%ADD11C,0.300000*%
%ADD12C,0.120000*%
G04 APERTURE END LIST*
D10*
X101184398Y-88916177D02*
X101041541Y-88963796D01*
X101041541Y-88963796D02*
X100993922Y-89011415D01*
X100993922Y-89011415D02*
X100946303Y-89106653D01*
X100946303Y-89106653D02*
X100946303Y-89249510D01*
X100946303Y-89249510D02*
X100993922Y-89344748D01*
X100993922Y-89344748D02*
X101041541Y-89392368D01*
X101041541Y-89392368D02*
X101136779Y-89439987D01*
X101136779Y-89439987D02*
X101517731Y-89439987D01*
X101517731Y-89439987D02*
X101517731Y-88439987D01*
X101517731Y-88439987D02*
X101184398Y-88439987D01*
X101184398Y-88439987D02*
X101089160Y-88487606D01*
X101089160Y-88487606D02*
X101041541Y-88535225D01*
X101041541Y-88535225D02*
X100993922Y-88630463D01*
X100993922Y-88630463D02*
X100993922Y-88725701D01*
X100993922Y-88725701D02*
X101041541Y-88820939D01*
X101041541Y-88820939D02*
X101089160Y-88868558D01*
X101089160Y-88868558D02*
X101184398Y-88916177D01*
X101184398Y-88916177D02*
X101517731Y-88916177D01*
X100517731Y-88439987D02*
X100517731Y-89249510D01*
X100517731Y-89249510D02*
X100470112Y-89344748D01*
X100470112Y-89344748D02*
X100422493Y-89392368D01*
X100422493Y-89392368D02*
X100327255Y-89439987D01*
X100327255Y-89439987D02*
X100136779Y-89439987D01*
X100136779Y-89439987D02*
X100041541Y-89392368D01*
X100041541Y-89392368D02*
X99993922Y-89344748D01*
X99993922Y-89344748D02*
X99946303Y-89249510D01*
X99946303Y-89249510D02*
X99946303Y-88439987D01*
X99565350Y-88439987D02*
X98898684Y-88439987D01*
X98898684Y-88439987D02*
X99565350Y-89439987D01*
X99565350Y-89439987D02*
X98898684Y-89439987D01*
X98612969Y-88439987D02*
X97946303Y-88439987D01*
X97946303Y-88439987D02*
X98612969Y-89439987D01*
X98612969Y-89439987D02*
X97946303Y-89439987D01*
X97565350Y-88916177D02*
X97232017Y-88916177D01*
X97089160Y-89439987D02*
X97565350Y-89439987D01*
X97565350Y-89439987D02*
X97565350Y-88439987D01*
X97565350Y-88439987D02*
X97089160Y-88439987D01*
X96089160Y-89439987D02*
X96422493Y-88963796D01*
X96660588Y-89439987D02*
X96660588Y-88439987D01*
X96660588Y-88439987D02*
X96279636Y-88439987D01*
X96279636Y-88439987D02*
X96184398Y-88487606D01*
X96184398Y-88487606D02*
X96136779Y-88535225D01*
X96136779Y-88535225D02*
X96089160Y-88630463D01*
X96089160Y-88630463D02*
X96089160Y-88773320D01*
X96089160Y-88773320D02*
X96136779Y-88868558D01*
X96136779Y-88868558D02*
X96184398Y-88916177D01*
X96184398Y-88916177D02*
X96279636Y-88963796D01*
X96279636Y-88963796D02*
X96660588Y-88963796D01*
X101184398Y-92374160D02*
X100708208Y-92374160D01*
X101279636Y-92659875D02*
X100946303Y-91659875D01*
X100946303Y-91659875D02*
X100612970Y-92659875D01*
X99803446Y-92659875D02*
X100279636Y-92659875D01*
X100279636Y-92659875D02*
X100279636Y-91659875D01*
X99565350Y-91659875D02*
X99327255Y-92659875D01*
X99327255Y-92659875D02*
X99136779Y-91945589D01*
X99136779Y-91945589D02*
X98946303Y-92659875D01*
X98946303Y-92659875D02*
X98708208Y-91659875D01*
X98374874Y-92374160D02*
X97898684Y-92374160D01*
X98470112Y-92659875D02*
X98136779Y-91659875D01*
X98136779Y-91659875D02*
X97803446Y-92659875D01*
X97279636Y-92183684D02*
X97279636Y-92659875D01*
X97612969Y-91659875D02*
X97279636Y-92183684D01*
X97279636Y-92183684D02*
X96946303Y-91659875D01*
X96660588Y-92612256D02*
X96517731Y-92659875D01*
X96517731Y-92659875D02*
X96279636Y-92659875D01*
X96279636Y-92659875D02*
X96184398Y-92612256D01*
X96184398Y-92612256D02*
X96136779Y-92564636D01*
X96136779Y-92564636D02*
X96089160Y-92469398D01*
X96089160Y-92469398D02*
X96089160Y-92374160D01*
X96089160Y-92374160D02*
X96136779Y-92278922D01*
X96136779Y-92278922D02*
X96184398Y-92231303D01*
X96184398Y-92231303D02*
X96279636Y-92183684D01*
X96279636Y-92183684D02*
X96470112Y-92136065D01*
X96470112Y-92136065D02*
X96565350Y-92088446D01*
X96565350Y-92088446D02*
X96612969Y-92040827D01*
X96612969Y-92040827D02*
X96660588Y-91945589D01*
X96660588Y-91945589D02*
X96660588Y-91850351D01*
X96660588Y-91850351D02*
X96612969Y-91755113D01*
X96612969Y-91755113D02*
X96565350Y-91707494D01*
X96565350Y-91707494D02*
X96470112Y-91659875D01*
X96470112Y-91659875D02*
X96232017Y-91659875D01*
X96232017Y-91659875D02*
X96089160Y-91707494D01*
X102708208Y-94269819D02*
X103041541Y-93793628D01*
X103279636Y-94269819D02*
X103279636Y-93269819D01*
X103279636Y-93269819D02*
X102898684Y-93269819D01*
X102898684Y-93269819D02*
X102803446Y-93317438D01*
X102803446Y-93317438D02*
X102755827Y-93365057D01*
X102755827Y-93365057D02*
X102708208Y-93460295D01*
X102708208Y-93460295D02*
X102708208Y-93603152D01*
X102708208Y-93603152D02*
X102755827Y-93698390D01*
X102755827Y-93698390D02*
X102803446Y-93746009D01*
X102803446Y-93746009D02*
X102898684Y-93793628D01*
X102898684Y-93793628D02*
X103279636Y-93793628D01*
X102279636Y-93269819D02*
X102279636Y-94079342D01*
X102279636Y-94079342D02*
X102232017Y-94174580D01*
X102232017Y-94174580D02*
X102184398Y-94222200D01*
X102184398Y-94222200D02*
X102089160Y-94269819D01*
X102089160Y-94269819D02*
X101898684Y-94269819D01*
X101898684Y-94269819D02*
X101803446Y-94222200D01*
X101803446Y-94222200D02*
X101755827Y-94174580D01*
X101755827Y-94174580D02*
X101708208Y-94079342D01*
X101708208Y-94079342D02*
X101708208Y-93269819D01*
X101232017Y-94269819D02*
X101232017Y-93269819D01*
X101232017Y-93269819D02*
X100660589Y-94269819D01*
X100660589Y-94269819D02*
X100660589Y-93269819D01*
X99232017Y-93269819D02*
X99041541Y-93269819D01*
X99041541Y-93269819D02*
X98946303Y-93317438D01*
X98946303Y-93317438D02*
X98851065Y-93412676D01*
X98851065Y-93412676D02*
X98803446Y-93603152D01*
X98803446Y-93603152D02*
X98803446Y-93936485D01*
X98803446Y-93936485D02*
X98851065Y-94126961D01*
X98851065Y-94126961D02*
X98946303Y-94222200D01*
X98946303Y-94222200D02*
X99041541Y-94269819D01*
X99041541Y-94269819D02*
X99232017Y-94269819D01*
X99232017Y-94269819D02*
X99327255Y-94222200D01*
X99327255Y-94222200D02*
X99422493Y-94126961D01*
X99422493Y-94126961D02*
X99470112Y-93936485D01*
X99470112Y-93936485D02*
X99470112Y-93603152D01*
X99470112Y-93603152D02*
X99422493Y-93412676D01*
X99422493Y-93412676D02*
X99327255Y-93317438D01*
X99327255Y-93317438D02*
X99232017Y-93269819D01*
X98374874Y-94269819D02*
X98374874Y-93269819D01*
X98374874Y-93269819D02*
X97803446Y-94269819D01*
X97803446Y-94269819D02*
X97803446Y-93269819D01*
X96851065Y-94269819D02*
X97327255Y-94269819D01*
X97327255Y-94269819D02*
X97327255Y-93269819D01*
X96327255Y-93793628D02*
X96327255Y-94269819D01*
X96660588Y-93269819D02*
X96327255Y-93793628D01*
X96327255Y-93793628D02*
X95993922Y-93269819D01*
X104531009Y-66470112D02*
X104578628Y-66612969D01*
X104578628Y-66612969D02*
X104626247Y-66660588D01*
X104626247Y-66660588D02*
X104721485Y-66708207D01*
X104721485Y-66708207D02*
X104864342Y-66708207D01*
X104864342Y-66708207D02*
X104959580Y-66660588D01*
X104959580Y-66660588D02*
X105007200Y-66612969D01*
X105007200Y-66612969D02*
X105054819Y-66517731D01*
X105054819Y-66517731D02*
X105054819Y-66136779D01*
X105054819Y-66136779D02*
X104054819Y-66136779D01*
X104054819Y-66136779D02*
X104054819Y-66470112D01*
X104054819Y-66470112D02*
X104102438Y-66565350D01*
X104102438Y-66565350D02*
X104150057Y-66612969D01*
X104150057Y-66612969D02*
X104245295Y-66660588D01*
X104245295Y-66660588D02*
X104340533Y-66660588D01*
X104340533Y-66660588D02*
X104435771Y-66612969D01*
X104435771Y-66612969D02*
X104483390Y-66565350D01*
X104483390Y-66565350D02*
X104531009Y-66470112D01*
X104531009Y-66470112D02*
X104531009Y-66136779D01*
X104054819Y-67136779D02*
X104864342Y-67136779D01*
X104864342Y-67136779D02*
X104959580Y-67184398D01*
X104959580Y-67184398D02*
X105007200Y-67232017D01*
X105007200Y-67232017D02*
X105054819Y-67327255D01*
X105054819Y-67327255D02*
X105054819Y-67517731D01*
X105054819Y-67517731D02*
X105007200Y-67612969D01*
X105007200Y-67612969D02*
X104959580Y-67660588D01*
X104959580Y-67660588D02*
X104864342Y-67708207D01*
X104864342Y-67708207D02*
X104054819Y-67708207D01*
X104054819Y-68089160D02*
X104054819Y-68755826D01*
X104054819Y-68755826D02*
X105054819Y-68089160D01*
X105054819Y-68089160D02*
X105054819Y-68755826D01*
X104054819Y-69041541D02*
X104054819Y-69708207D01*
X104054819Y-69708207D02*
X105054819Y-69041541D01*
X105054819Y-69041541D02*
X105054819Y-69708207D01*
X104531009Y-70089160D02*
X104531009Y-70422493D01*
X105054819Y-70565350D02*
X105054819Y-70089160D01*
X105054819Y-70089160D02*
X104054819Y-70089160D01*
X104054819Y-70089160D02*
X104054819Y-70565350D01*
X105054819Y-71565350D02*
X104578628Y-71232017D01*
X105054819Y-70993922D02*
X104054819Y-70993922D01*
X104054819Y-70993922D02*
X104054819Y-71374874D01*
X104054819Y-71374874D02*
X104102438Y-71470112D01*
X104102438Y-71470112D02*
X104150057Y-71517731D01*
X104150057Y-71517731D02*
X104245295Y-71565350D01*
X104245295Y-71565350D02*
X104388152Y-71565350D01*
X104388152Y-71565350D02*
X104483390Y-71517731D01*
X104483390Y-71517731D02*
X104531009Y-71470112D01*
X104531009Y-71470112D02*
X104578628Y-71374874D01*
X104578628Y-71374874D02*
X104578628Y-70993922D01*
X104054819Y-72946303D02*
X104054819Y-73136779D01*
X104054819Y-73136779D02*
X104102438Y-73232017D01*
X104102438Y-73232017D02*
X104197676Y-73327255D01*
X104197676Y-73327255D02*
X104388152Y-73374874D01*
X104388152Y-73374874D02*
X104721485Y-73374874D01*
X104721485Y-73374874D02*
X104911961Y-73327255D01*
X104911961Y-73327255D02*
X105007200Y-73232017D01*
X105007200Y-73232017D02*
X105054819Y-73136779D01*
X105054819Y-73136779D02*
X105054819Y-72946303D01*
X105054819Y-72946303D02*
X105007200Y-72851065D01*
X105007200Y-72851065D02*
X104911961Y-72755827D01*
X104911961Y-72755827D02*
X104721485Y-72708208D01*
X104721485Y-72708208D02*
X104388152Y-72708208D01*
X104388152Y-72708208D02*
X104197676Y-72755827D01*
X104197676Y-72755827D02*
X104102438Y-72851065D01*
X104102438Y-72851065D02*
X104054819Y-72946303D01*
X104054819Y-73803446D02*
X104864342Y-73803446D01*
X104864342Y-73803446D02*
X104959580Y-73851065D01*
X104959580Y-73851065D02*
X105007200Y-73898684D01*
X105007200Y-73898684D02*
X105054819Y-73993922D01*
X105054819Y-73993922D02*
X105054819Y-74184398D01*
X105054819Y-74184398D02*
X105007200Y-74279636D01*
X105007200Y-74279636D02*
X104959580Y-74327255D01*
X104959580Y-74327255D02*
X104864342Y-74374874D01*
X104864342Y-74374874D02*
X104054819Y-74374874D01*
X104054819Y-74708208D02*
X104054819Y-75279636D01*
X105054819Y-74993922D02*
X104054819Y-74993922D01*
X94600000Y-121049847D02*
X94409524Y-121049847D01*
X94409524Y-121049847D02*
X94314286Y-121097466D01*
X94314286Y-121097466D02*
X94219048Y-121192704D01*
X94219048Y-121192704D02*
X94171429Y-121383180D01*
X94171429Y-121383180D02*
X94171429Y-121716513D01*
X94171429Y-121716513D02*
X94219048Y-121906989D01*
X94219048Y-121906989D02*
X94314286Y-122002228D01*
X94314286Y-122002228D02*
X94409524Y-122049847D01*
X94409524Y-122049847D02*
X94600000Y-122049847D01*
X94600000Y-122049847D02*
X94695238Y-122002228D01*
X94695238Y-122002228D02*
X94790476Y-121906989D01*
X94790476Y-121906989D02*
X94838095Y-121716513D01*
X94838095Y-121716513D02*
X94838095Y-121383180D01*
X94838095Y-121383180D02*
X94790476Y-121192704D01*
X94790476Y-121192704D02*
X94695238Y-121097466D01*
X94695238Y-121097466D02*
X94600000Y-121049847D01*
X93742857Y-122049847D02*
X93742857Y-121049847D01*
X92790477Y-122049847D02*
X93266667Y-122049847D01*
X93266667Y-122049847D02*
X93266667Y-121049847D01*
X91219048Y-122049847D02*
X91695238Y-122049847D01*
X91695238Y-122049847D02*
X91695238Y-121049847D01*
X90933333Y-121764132D02*
X90457143Y-121764132D01*
X91028571Y-122049847D02*
X90695238Y-121049847D01*
X90695238Y-121049847D02*
X90361905Y-122049847D01*
X90028571Y-122049847D02*
X90028571Y-121049847D01*
X90028571Y-121049847D02*
X89695238Y-121764132D01*
X89695238Y-121764132D02*
X89361905Y-121049847D01*
X89361905Y-121049847D02*
X89361905Y-122049847D01*
X88885714Y-122049847D02*
X88885714Y-121049847D01*
X88885714Y-121049847D02*
X88504762Y-121049847D01*
X88504762Y-121049847D02*
X88409524Y-121097466D01*
X88409524Y-121097466D02*
X88361905Y-121145085D01*
X88361905Y-121145085D02*
X88314286Y-121240323D01*
X88314286Y-121240323D02*
X88314286Y-121383180D01*
X88314286Y-121383180D02*
X88361905Y-121478418D01*
X88361905Y-121478418D02*
X88409524Y-121526037D01*
X88409524Y-121526037D02*
X88504762Y-121573656D01*
X88504762Y-121573656D02*
X88885714Y-121573656D01*
X87171428Y-122002228D02*
X87028571Y-122049847D01*
X87028571Y-122049847D02*
X86790476Y-122049847D01*
X86790476Y-122049847D02*
X86695238Y-122002228D01*
X86695238Y-122002228D02*
X86647619Y-121954608D01*
X86647619Y-121954608D02*
X86600000Y-121859370D01*
X86600000Y-121859370D02*
X86600000Y-121764132D01*
X86600000Y-121764132D02*
X86647619Y-121668894D01*
X86647619Y-121668894D02*
X86695238Y-121621275D01*
X86695238Y-121621275D02*
X86790476Y-121573656D01*
X86790476Y-121573656D02*
X86980952Y-121526037D01*
X86980952Y-121526037D02*
X87076190Y-121478418D01*
X87076190Y-121478418D02*
X87123809Y-121430799D01*
X87123809Y-121430799D02*
X87171428Y-121335561D01*
X87171428Y-121335561D02*
X87171428Y-121240323D01*
X87171428Y-121240323D02*
X87123809Y-121145085D01*
X87123809Y-121145085D02*
X87076190Y-121097466D01*
X87076190Y-121097466D02*
X86980952Y-121049847D01*
X86980952Y-121049847D02*
X86742857Y-121049847D01*
X86742857Y-121049847D02*
X86600000Y-121097466D01*
X86219047Y-121764132D02*
X85742857Y-121764132D01*
X86314285Y-122049847D02*
X85980952Y-121049847D01*
X85980952Y-121049847D02*
X85647619Y-122049847D01*
X84980952Y-121526037D02*
X85314285Y-121526037D01*
X85314285Y-122049847D02*
X85314285Y-121049847D01*
X85314285Y-121049847D02*
X84838095Y-121049847D01*
X84457142Y-121526037D02*
X84123809Y-121526037D01*
X83980952Y-122049847D02*
X84457142Y-122049847D01*
X84457142Y-122049847D02*
X84457142Y-121049847D01*
X84457142Y-121049847D02*
X83980952Y-121049847D01*
X83695237Y-121049847D02*
X83123809Y-121049847D01*
X83409523Y-122049847D02*
X83409523Y-121049847D01*
X82599999Y-121573656D02*
X82599999Y-122049847D01*
X82933332Y-121049847D02*
X82599999Y-121573656D01*
X82599999Y-121573656D02*
X82266666Y-121049847D01*
X90123808Y-122659791D02*
X89790475Y-123659791D01*
X89790475Y-123659791D02*
X89457142Y-122659791D01*
X88933332Y-122659791D02*
X88838094Y-122659791D01*
X88838094Y-122659791D02*
X88742856Y-122707410D01*
X88742856Y-122707410D02*
X88695237Y-122755029D01*
X88695237Y-122755029D02*
X88647618Y-122850267D01*
X88647618Y-122850267D02*
X88599999Y-123040743D01*
X88599999Y-123040743D02*
X88599999Y-123278838D01*
X88599999Y-123278838D02*
X88647618Y-123469314D01*
X88647618Y-123469314D02*
X88695237Y-123564552D01*
X88695237Y-123564552D02*
X88742856Y-123612172D01*
X88742856Y-123612172D02*
X88838094Y-123659791D01*
X88838094Y-123659791D02*
X88933332Y-123659791D01*
X88933332Y-123659791D02*
X89028570Y-123612172D01*
X89028570Y-123612172D02*
X89076189Y-123564552D01*
X89076189Y-123564552D02*
X89123808Y-123469314D01*
X89123808Y-123469314D02*
X89171427Y-123278838D01*
X89171427Y-123278838D02*
X89171427Y-123040743D01*
X89171427Y-123040743D02*
X89123808Y-122850267D01*
X89123808Y-122850267D02*
X89076189Y-122755029D01*
X89076189Y-122755029D02*
X89028570Y-122707410D01*
X89028570Y-122707410D02*
X88933332Y-122659791D01*
X88171427Y-123564552D02*
X88123808Y-123612172D01*
X88123808Y-123612172D02*
X88171427Y-123659791D01*
X88171427Y-123659791D02*
X88219046Y-123612172D01*
X88219046Y-123612172D02*
X88171427Y-123564552D01*
X88171427Y-123564552D02*
X88171427Y-123659791D01*
X87742856Y-122755029D02*
X87695237Y-122707410D01*
X87695237Y-122707410D02*
X87599999Y-122659791D01*
X87599999Y-122659791D02*
X87361904Y-122659791D01*
X87361904Y-122659791D02*
X87266666Y-122707410D01*
X87266666Y-122707410D02*
X87219047Y-122755029D01*
X87219047Y-122755029D02*
X87171428Y-122850267D01*
X87171428Y-122850267D02*
X87171428Y-122945505D01*
X87171428Y-122945505D02*
X87219047Y-123088362D01*
X87219047Y-123088362D02*
X87790475Y-123659791D01*
X87790475Y-123659791D02*
X87171428Y-123659791D01*
D11*
X93142857Y-115300114D02*
X93000000Y-115204876D01*
X93000000Y-115204876D02*
X92714286Y-115109638D01*
X92714286Y-115109638D02*
X92000000Y-115109638D01*
X92000000Y-115109638D02*
X91714286Y-115204876D01*
X91714286Y-115204876D02*
X91571428Y-115300114D01*
X91571428Y-115300114D02*
X91428571Y-115490590D01*
X91428571Y-115490590D02*
X91428571Y-115681066D01*
X91428571Y-115681066D02*
X91571428Y-115966780D01*
X91571428Y-115966780D02*
X93285714Y-117109638D01*
X93285714Y-117109638D02*
X91428571Y-117109638D01*
X89571428Y-115109638D02*
X89285714Y-115109638D01*
X89285714Y-115109638D02*
X89000000Y-115204876D01*
X89000000Y-115204876D02*
X88857143Y-115300114D01*
X88857143Y-115300114D02*
X88714285Y-115490590D01*
X88714285Y-115490590D02*
X88571428Y-115871542D01*
X88571428Y-115871542D02*
X88571428Y-116347733D01*
X88571428Y-116347733D02*
X88714285Y-116728685D01*
X88714285Y-116728685D02*
X88857143Y-116919161D01*
X88857143Y-116919161D02*
X89000000Y-117014400D01*
X89000000Y-117014400D02*
X89285714Y-117109638D01*
X89285714Y-117109638D02*
X89571428Y-117109638D01*
X89571428Y-117109638D02*
X89857143Y-117014400D01*
X89857143Y-117014400D02*
X90000000Y-116919161D01*
X90000000Y-116919161D02*
X90142857Y-116728685D01*
X90142857Y-116728685D02*
X90285714Y-116347733D01*
X90285714Y-116347733D02*
X90285714Y-115871542D01*
X90285714Y-115871542D02*
X90142857Y-115490590D01*
X90142857Y-115490590D02*
X90000000Y-115300114D01*
X90000000Y-115300114D02*
X89857143Y-115204876D01*
X89857143Y-115204876D02*
X89571428Y-115109638D01*
X87428571Y-115300114D02*
X87285714Y-115204876D01*
X87285714Y-115204876D02*
X87000000Y-115109638D01*
X87000000Y-115109638D02*
X86285714Y-115109638D01*
X86285714Y-115109638D02*
X86000000Y-115204876D01*
X86000000Y-115204876D02*
X85857142Y-115300114D01*
X85857142Y-115300114D02*
X85714285Y-115490590D01*
X85714285Y-115490590D02*
X85714285Y-115681066D01*
X85714285Y-115681066D02*
X85857142Y-115966780D01*
X85857142Y-115966780D02*
X87571428Y-117109638D01*
X87571428Y-117109638D02*
X85714285Y-117109638D01*
X83142857Y-115776304D02*
X83142857Y-117109638D01*
X83857142Y-115014400D02*
X84571428Y-116442971D01*
X84571428Y-116442971D02*
X82714285Y-116442971D01*
D10*
X115654819Y-66612969D02*
X115654819Y-66136779D01*
X115654819Y-66136779D02*
X114654819Y-66136779D01*
X114654819Y-67136779D02*
X114654819Y-67327255D01*
X114654819Y-67327255D02*
X114702438Y-67422493D01*
X114702438Y-67422493D02*
X114797676Y-67517731D01*
X114797676Y-67517731D02*
X114988152Y-67565350D01*
X114988152Y-67565350D02*
X115321485Y-67565350D01*
X115321485Y-67565350D02*
X115511961Y-67517731D01*
X115511961Y-67517731D02*
X115607200Y-67422493D01*
X115607200Y-67422493D02*
X115654819Y-67327255D01*
X115654819Y-67327255D02*
X115654819Y-67136779D01*
X115654819Y-67136779D02*
X115607200Y-67041541D01*
X115607200Y-67041541D02*
X115511961Y-66946303D01*
X115511961Y-66946303D02*
X115321485Y-66898684D01*
X115321485Y-66898684D02*
X114988152Y-66898684D01*
X114988152Y-66898684D02*
X114797676Y-66946303D01*
X114797676Y-66946303D02*
X114702438Y-67041541D01*
X114702438Y-67041541D02*
X114654819Y-67136779D01*
X115559580Y-68565350D02*
X115607200Y-68517731D01*
X115607200Y-68517731D02*
X115654819Y-68374874D01*
X115654819Y-68374874D02*
X115654819Y-68279636D01*
X115654819Y-68279636D02*
X115607200Y-68136779D01*
X115607200Y-68136779D02*
X115511961Y-68041541D01*
X115511961Y-68041541D02*
X115416723Y-67993922D01*
X115416723Y-67993922D02*
X115226247Y-67946303D01*
X115226247Y-67946303D02*
X115083390Y-67946303D01*
X115083390Y-67946303D02*
X114892914Y-67993922D01*
X114892914Y-67993922D02*
X114797676Y-68041541D01*
X114797676Y-68041541D02*
X114702438Y-68136779D01*
X114702438Y-68136779D02*
X114654819Y-68279636D01*
X114654819Y-68279636D02*
X114654819Y-68374874D01*
X114654819Y-68374874D02*
X114702438Y-68517731D01*
X114702438Y-68517731D02*
X114750057Y-68565350D01*
X115654819Y-68993922D02*
X114654819Y-68993922D01*
X115654819Y-69565350D02*
X115083390Y-69136779D01*
X114654819Y-69565350D02*
X115226247Y-68993922D01*
X115654819Y-71232017D02*
X115654819Y-70755827D01*
X115654819Y-70755827D02*
X114654819Y-70755827D01*
X115369104Y-71517732D02*
X115369104Y-71993922D01*
X115654819Y-71422494D02*
X114654819Y-71755827D01*
X114654819Y-71755827D02*
X115654819Y-72089160D01*
X115654819Y-72422494D02*
X114654819Y-72422494D01*
X114654819Y-72422494D02*
X115369104Y-72755827D01*
X115369104Y-72755827D02*
X114654819Y-73089160D01*
X114654819Y-73089160D02*
X115654819Y-73089160D01*
X115654819Y-73565351D02*
X114654819Y-73565351D01*
X114654819Y-73565351D02*
X114654819Y-73946303D01*
X114654819Y-73946303D02*
X114702438Y-74041541D01*
X114702438Y-74041541D02*
X114750057Y-74089160D01*
X114750057Y-74089160D02*
X114845295Y-74136779D01*
X114845295Y-74136779D02*
X114988152Y-74136779D01*
X114988152Y-74136779D02*
X115083390Y-74089160D01*
X115083390Y-74089160D02*
X115131009Y-74041541D01*
X115131009Y-74041541D02*
X115178628Y-73946303D01*
X115178628Y-73946303D02*
X115178628Y-73565351D01*
X115654819Y-75851065D02*
X115654819Y-75279637D01*
X115654819Y-75565351D02*
X114654819Y-75565351D01*
X114654819Y-75565351D02*
X114797676Y-75470113D01*
X114797676Y-75470113D02*
X114892914Y-75374875D01*
X114892914Y-75374875D02*
X114940533Y-75279637D01*
X114750057Y-76232018D02*
X114702438Y-76279637D01*
X114702438Y-76279637D02*
X114654819Y-76374875D01*
X114654819Y-76374875D02*
X114654819Y-76612970D01*
X114654819Y-76612970D02*
X114702438Y-76708208D01*
X114702438Y-76708208D02*
X114750057Y-76755827D01*
X114750057Y-76755827D02*
X114845295Y-76803446D01*
X114845295Y-76803446D02*
X114940533Y-76803446D01*
X114940533Y-76803446D02*
X115083390Y-76755827D01*
X115083390Y-76755827D02*
X115654819Y-76184399D01*
X115654819Y-76184399D02*
X115654819Y-76803446D01*
X114654819Y-77089161D02*
X115654819Y-77422494D01*
X115654819Y-77422494D02*
X114654819Y-77755827D01*
X113654819Y-66612969D02*
X113654819Y-66136779D01*
X113654819Y-66136779D02*
X112654819Y-66136779D01*
X112654819Y-67136779D02*
X112654819Y-67327255D01*
X112654819Y-67327255D02*
X112702438Y-67422493D01*
X112702438Y-67422493D02*
X112797676Y-67517731D01*
X112797676Y-67517731D02*
X112988152Y-67565350D01*
X112988152Y-67565350D02*
X113321485Y-67565350D01*
X113321485Y-67565350D02*
X113511961Y-67517731D01*
X113511961Y-67517731D02*
X113607200Y-67422493D01*
X113607200Y-67422493D02*
X113654819Y-67327255D01*
X113654819Y-67327255D02*
X113654819Y-67136779D01*
X113654819Y-67136779D02*
X113607200Y-67041541D01*
X113607200Y-67041541D02*
X113511961Y-66946303D01*
X113511961Y-66946303D02*
X113321485Y-66898684D01*
X113321485Y-66898684D02*
X112988152Y-66898684D01*
X112988152Y-66898684D02*
X112797676Y-66946303D01*
X112797676Y-66946303D02*
X112702438Y-67041541D01*
X112702438Y-67041541D02*
X112654819Y-67136779D01*
X113559580Y-68565350D02*
X113607200Y-68517731D01*
X113607200Y-68517731D02*
X113654819Y-68374874D01*
X113654819Y-68374874D02*
X113654819Y-68279636D01*
X113654819Y-68279636D02*
X113607200Y-68136779D01*
X113607200Y-68136779D02*
X113511961Y-68041541D01*
X113511961Y-68041541D02*
X113416723Y-67993922D01*
X113416723Y-67993922D02*
X113226247Y-67946303D01*
X113226247Y-67946303D02*
X113083390Y-67946303D01*
X113083390Y-67946303D02*
X112892914Y-67993922D01*
X112892914Y-67993922D02*
X112797676Y-68041541D01*
X112797676Y-68041541D02*
X112702438Y-68136779D01*
X112702438Y-68136779D02*
X112654819Y-68279636D01*
X112654819Y-68279636D02*
X112654819Y-68374874D01*
X112654819Y-68374874D02*
X112702438Y-68517731D01*
X112702438Y-68517731D02*
X112750057Y-68565350D01*
X113654819Y-68993922D02*
X112654819Y-68993922D01*
X113654819Y-69565350D02*
X113083390Y-69136779D01*
X112654819Y-69565350D02*
X113226247Y-68993922D01*
X113654819Y-71232017D02*
X113654819Y-70755827D01*
X113654819Y-70755827D02*
X112654819Y-70755827D01*
X113369104Y-71517732D02*
X113369104Y-71993922D01*
X113654819Y-71422494D02*
X112654819Y-71755827D01*
X112654819Y-71755827D02*
X113654819Y-72089160D01*
X113654819Y-72422494D02*
X112654819Y-72422494D01*
X112654819Y-72422494D02*
X113369104Y-72755827D01*
X113369104Y-72755827D02*
X112654819Y-73089160D01*
X112654819Y-73089160D02*
X113654819Y-73089160D01*
X113654819Y-73565351D02*
X112654819Y-73565351D01*
X112654819Y-73565351D02*
X112654819Y-73946303D01*
X112654819Y-73946303D02*
X112702438Y-74041541D01*
X112702438Y-74041541D02*
X112750057Y-74089160D01*
X112750057Y-74089160D02*
X112845295Y-74136779D01*
X112845295Y-74136779D02*
X112988152Y-74136779D01*
X112988152Y-74136779D02*
X113083390Y-74089160D01*
X113083390Y-74089160D02*
X113131009Y-74041541D01*
X113131009Y-74041541D02*
X113178628Y-73946303D01*
X113178628Y-73946303D02*
X113178628Y-73565351D01*
X112654819Y-75517732D02*
X112654819Y-75708208D01*
X112654819Y-75708208D02*
X112702438Y-75803446D01*
X112702438Y-75803446D02*
X112797676Y-75898684D01*
X112797676Y-75898684D02*
X112988152Y-75946303D01*
X112988152Y-75946303D02*
X113321485Y-75946303D01*
X113321485Y-75946303D02*
X113511961Y-75898684D01*
X113511961Y-75898684D02*
X113607200Y-75803446D01*
X113607200Y-75803446D02*
X113654819Y-75708208D01*
X113654819Y-75708208D02*
X113654819Y-75517732D01*
X113654819Y-75517732D02*
X113607200Y-75422494D01*
X113607200Y-75422494D02*
X113511961Y-75327256D01*
X113511961Y-75327256D02*
X113321485Y-75279637D01*
X113321485Y-75279637D02*
X112988152Y-75279637D01*
X112988152Y-75279637D02*
X112797676Y-75327256D01*
X112797676Y-75327256D02*
X112702438Y-75422494D01*
X112702438Y-75422494D02*
X112654819Y-75517732D01*
X112654819Y-76374875D02*
X113464342Y-76374875D01*
X113464342Y-76374875D02*
X113559580Y-76422494D01*
X113559580Y-76422494D02*
X113607200Y-76470113D01*
X113607200Y-76470113D02*
X113654819Y-76565351D01*
X113654819Y-76565351D02*
X113654819Y-76755827D01*
X113654819Y-76755827D02*
X113607200Y-76851065D01*
X113607200Y-76851065D02*
X113559580Y-76898684D01*
X113559580Y-76898684D02*
X113464342Y-76946303D01*
X113464342Y-76946303D02*
X112654819Y-76946303D01*
X112654819Y-77279637D02*
X112654819Y-77851065D01*
X113654819Y-77565351D02*
X112654819Y-77565351D01*
X123854819Y-66708207D02*
X123378628Y-66374874D01*
X123854819Y-66136779D02*
X122854819Y-66136779D01*
X122854819Y-66136779D02*
X122854819Y-66517731D01*
X122854819Y-66517731D02*
X122902438Y-66612969D01*
X122902438Y-66612969D02*
X122950057Y-66660588D01*
X122950057Y-66660588D02*
X123045295Y-66708207D01*
X123045295Y-66708207D02*
X123188152Y-66708207D01*
X123188152Y-66708207D02*
X123283390Y-66660588D01*
X123283390Y-66660588D02*
X123331009Y-66612969D01*
X123331009Y-66612969D02*
X123378628Y-66517731D01*
X123378628Y-66517731D02*
X123378628Y-66136779D01*
X122854819Y-67136779D02*
X123664342Y-67136779D01*
X123664342Y-67136779D02*
X123759580Y-67184398D01*
X123759580Y-67184398D02*
X123807200Y-67232017D01*
X123807200Y-67232017D02*
X123854819Y-67327255D01*
X123854819Y-67327255D02*
X123854819Y-67517731D01*
X123854819Y-67517731D02*
X123807200Y-67612969D01*
X123807200Y-67612969D02*
X123759580Y-67660588D01*
X123759580Y-67660588D02*
X123664342Y-67708207D01*
X123664342Y-67708207D02*
X122854819Y-67708207D01*
X123854819Y-68184398D02*
X122854819Y-68184398D01*
X122854819Y-68184398D02*
X123854819Y-68755826D01*
X123854819Y-68755826D02*
X122854819Y-68755826D01*
X123854819Y-70565350D02*
X123378628Y-70232017D01*
X123854819Y-69993922D02*
X122854819Y-69993922D01*
X122854819Y-69993922D02*
X122854819Y-70374874D01*
X122854819Y-70374874D02*
X122902438Y-70470112D01*
X122902438Y-70470112D02*
X122950057Y-70517731D01*
X122950057Y-70517731D02*
X123045295Y-70565350D01*
X123045295Y-70565350D02*
X123188152Y-70565350D01*
X123188152Y-70565350D02*
X123283390Y-70517731D01*
X123283390Y-70517731D02*
X123331009Y-70470112D01*
X123331009Y-70470112D02*
X123378628Y-70374874D01*
X123378628Y-70374874D02*
X123378628Y-69993922D01*
X123331009Y-70993922D02*
X123331009Y-71327255D01*
X123854819Y-71470112D02*
X123854819Y-70993922D01*
X123854819Y-70993922D02*
X122854819Y-70993922D01*
X122854819Y-70993922D02*
X122854819Y-71470112D01*
X123854819Y-72374874D02*
X123854819Y-71898684D01*
X123854819Y-71898684D02*
X122854819Y-71898684D01*
X123569104Y-72660589D02*
X123569104Y-73136779D01*
X123854819Y-72565351D02*
X122854819Y-72898684D01*
X122854819Y-72898684D02*
X123854819Y-73232017D01*
X123378628Y-73755827D02*
X123854819Y-73755827D01*
X122854819Y-73422494D02*
X123378628Y-73755827D01*
X123378628Y-73755827D02*
X122854819Y-74089160D01*
X123854819Y-75708208D02*
X123854819Y-75136780D01*
X123854819Y-75422494D02*
X122854819Y-75422494D01*
X122854819Y-75422494D02*
X122997676Y-75327256D01*
X122997676Y-75327256D02*
X123092914Y-75232018D01*
X123092914Y-75232018D02*
X123140533Y-75136780D01*
X122950057Y-76089161D02*
X122902438Y-76136780D01*
X122902438Y-76136780D02*
X122854819Y-76232018D01*
X122854819Y-76232018D02*
X122854819Y-76470113D01*
X122854819Y-76470113D02*
X122902438Y-76565351D01*
X122902438Y-76565351D02*
X122950057Y-76612970D01*
X122950057Y-76612970D02*
X123045295Y-76660589D01*
X123045295Y-76660589D02*
X123140533Y-76660589D01*
X123140533Y-76660589D02*
X123283390Y-76612970D01*
X123283390Y-76612970D02*
X123854819Y-76041542D01*
X123854819Y-76041542D02*
X123854819Y-76660589D01*
X122854819Y-76946304D02*
X123854819Y-77279637D01*
X123854819Y-77279637D02*
X122854819Y-77612970D01*
D11*
X115814285Y-114309638D02*
X115814285Y-112309638D01*
X115814285Y-112309638D02*
X115099999Y-112309638D01*
X115099999Y-112309638D02*
X114671428Y-112404876D01*
X114671428Y-112404876D02*
X114385713Y-112595352D01*
X114385713Y-112595352D02*
X114242856Y-112785828D01*
X114242856Y-112785828D02*
X114099999Y-113166780D01*
X114099999Y-113166780D02*
X114099999Y-113452495D01*
X114099999Y-113452495D02*
X114242856Y-113833447D01*
X114242856Y-113833447D02*
X114385713Y-114023923D01*
X114385713Y-114023923D02*
X114671428Y-114214400D01*
X114671428Y-114214400D02*
X115099999Y-114309638D01*
X115099999Y-114309638D02*
X115814285Y-114309638D01*
X112957142Y-113738209D02*
X111528571Y-113738209D01*
X113242856Y-114309638D02*
X112242856Y-112309638D01*
X112242856Y-112309638D02*
X111242856Y-114309638D01*
X110242856Y-114309638D02*
X110242856Y-112309638D01*
X110242856Y-112309638D02*
X109528570Y-112309638D01*
X109528570Y-112309638D02*
X109099999Y-112404876D01*
X109099999Y-112404876D02*
X108814284Y-112595352D01*
X108814284Y-112595352D02*
X108671427Y-112785828D01*
X108671427Y-112785828D02*
X108528570Y-113166780D01*
X108528570Y-113166780D02*
X108528570Y-113452495D01*
X108528570Y-113452495D02*
X108671427Y-113833447D01*
X108671427Y-113833447D02*
X108814284Y-114023923D01*
X108814284Y-114023923D02*
X109099999Y-114214400D01*
X109099999Y-114214400D02*
X109528570Y-114309638D01*
X109528570Y-114309638D02*
X110242856Y-114309638D01*
X106242856Y-113262019D02*
X105814284Y-113357257D01*
X105814284Y-113357257D02*
X105671427Y-113452495D01*
X105671427Y-113452495D02*
X105528570Y-113642971D01*
X105528570Y-113642971D02*
X105528570Y-113928685D01*
X105528570Y-113928685D02*
X105671427Y-114119161D01*
X105671427Y-114119161D02*
X105814284Y-114214400D01*
X105814284Y-114214400D02*
X106099999Y-114309638D01*
X106099999Y-114309638D02*
X107242856Y-114309638D01*
X107242856Y-114309638D02*
X107242856Y-112309638D01*
X107242856Y-112309638D02*
X106242856Y-112309638D01*
X106242856Y-112309638D02*
X105957142Y-112404876D01*
X105957142Y-112404876D02*
X105814284Y-112500114D01*
X105814284Y-112500114D02*
X105671427Y-112690590D01*
X105671427Y-112690590D02*
X105671427Y-112881066D01*
X105671427Y-112881066D02*
X105814284Y-113071542D01*
X105814284Y-113071542D02*
X105957142Y-113166780D01*
X105957142Y-113166780D02*
X106242856Y-113262019D01*
X106242856Y-113262019D02*
X107242856Y-113262019D01*
X103671427Y-112309638D02*
X103099999Y-112309638D01*
X103099999Y-112309638D02*
X102814284Y-112404876D01*
X102814284Y-112404876D02*
X102528570Y-112595352D01*
X102528570Y-112595352D02*
X102385713Y-112976304D01*
X102385713Y-112976304D02*
X102385713Y-113642971D01*
X102385713Y-113642971D02*
X102528570Y-114023923D01*
X102528570Y-114023923D02*
X102814284Y-114214400D01*
X102814284Y-114214400D02*
X103099999Y-114309638D01*
X103099999Y-114309638D02*
X103671427Y-114309638D01*
X103671427Y-114309638D02*
X103957142Y-114214400D01*
X103957142Y-114214400D02*
X104242856Y-114023923D01*
X104242856Y-114023923D02*
X104385713Y-113642971D01*
X104385713Y-113642971D02*
X104385713Y-112976304D01*
X104385713Y-112976304D02*
X104242856Y-112595352D01*
X104242856Y-112595352D02*
X103957142Y-112404876D01*
X103957142Y-112404876D02*
X103671427Y-112309638D01*
X101099999Y-114309638D02*
X101099999Y-112309638D01*
X101099999Y-112309638D02*
X100385713Y-112309638D01*
X100385713Y-112309638D02*
X99957142Y-112404876D01*
X99957142Y-112404876D02*
X99671427Y-112595352D01*
X99671427Y-112595352D02*
X99528570Y-112785828D01*
X99528570Y-112785828D02*
X99385713Y-113166780D01*
X99385713Y-113166780D02*
X99385713Y-113452495D01*
X99385713Y-113452495D02*
X99528570Y-113833447D01*
X99528570Y-113833447D02*
X99671427Y-114023923D01*
X99671427Y-114023923D02*
X99957142Y-114214400D01*
X99957142Y-114214400D02*
X100385713Y-114309638D01*
X100385713Y-114309638D02*
X101099999Y-114309638D01*
X96385713Y-114119161D02*
X96528570Y-114214400D01*
X96528570Y-114214400D02*
X96957142Y-114309638D01*
X96957142Y-114309638D02*
X97242856Y-114309638D01*
X97242856Y-114309638D02*
X97671427Y-114214400D01*
X97671427Y-114214400D02*
X97957142Y-114023923D01*
X97957142Y-114023923D02*
X98099999Y-113833447D01*
X98099999Y-113833447D02*
X98242856Y-113452495D01*
X98242856Y-113452495D02*
X98242856Y-113166780D01*
X98242856Y-113166780D02*
X98099999Y-112785828D01*
X98099999Y-112785828D02*
X97957142Y-112595352D01*
X97957142Y-112595352D02*
X97671427Y-112404876D01*
X97671427Y-112404876D02*
X97242856Y-112309638D01*
X97242856Y-112309638D02*
X96957142Y-112309638D01*
X96957142Y-112309638D02*
X96528570Y-112404876D01*
X96528570Y-112404876D02*
X96385713Y-112500114D01*
X95242856Y-113738209D02*
X93814285Y-113738209D01*
X95528570Y-114309638D02*
X94528570Y-112309638D01*
X94528570Y-112309638D02*
X93528570Y-114309638D01*
X90814284Y-114309638D02*
X91814284Y-113357257D01*
X92528570Y-114309638D02*
X92528570Y-112309638D01*
X92528570Y-112309638D02*
X91385713Y-112309638D01*
X91385713Y-112309638D02*
X91099998Y-112404876D01*
X91099998Y-112404876D02*
X90957141Y-112500114D01*
X90957141Y-112500114D02*
X90814284Y-112690590D01*
X90814284Y-112690590D02*
X90814284Y-112976304D01*
X90814284Y-112976304D02*
X90957141Y-113166780D01*
X90957141Y-113166780D02*
X91099998Y-113262019D01*
X91099998Y-113262019D02*
X91385713Y-113357257D01*
X91385713Y-113357257D02*
X92528570Y-113357257D01*
X89528570Y-114309638D02*
X89528570Y-112309638D01*
X89528570Y-112309638D02*
X88528570Y-113738209D01*
X88528570Y-113738209D02*
X87528570Y-112309638D01*
X87528570Y-112309638D02*
X87528570Y-114309638D01*
X85528570Y-112309638D02*
X84957142Y-112309638D01*
X84957142Y-112309638D02*
X84671427Y-112404876D01*
X84671427Y-112404876D02*
X84385713Y-112595352D01*
X84385713Y-112595352D02*
X84242856Y-112976304D01*
X84242856Y-112976304D02*
X84242856Y-113642971D01*
X84242856Y-113642971D02*
X84385713Y-114023923D01*
X84385713Y-114023923D02*
X84671427Y-114214400D01*
X84671427Y-114214400D02*
X84957142Y-114309638D01*
X84957142Y-114309638D02*
X85528570Y-114309638D01*
X85528570Y-114309638D02*
X85814285Y-114214400D01*
X85814285Y-114214400D02*
X86099999Y-114023923D01*
X86099999Y-114023923D02*
X86242856Y-113642971D01*
X86242856Y-113642971D02*
X86242856Y-112976304D01*
X86242856Y-112976304D02*
X86099999Y-112595352D01*
X86099999Y-112595352D02*
X85814285Y-112404876D01*
X85814285Y-112404876D02*
X85528570Y-112309638D01*
X82957142Y-114309638D02*
X82957142Y-112309638D01*
X82957142Y-112309638D02*
X82242856Y-112309638D01*
X82242856Y-112309638D02*
X81814285Y-112404876D01*
X81814285Y-112404876D02*
X81528570Y-112595352D01*
X81528570Y-112595352D02*
X81385713Y-112785828D01*
X81385713Y-112785828D02*
X81242856Y-113166780D01*
X81242856Y-113166780D02*
X81242856Y-113452495D01*
X81242856Y-113452495D02*
X81385713Y-113833447D01*
X81385713Y-113833447D02*
X81528570Y-114023923D01*
X81528570Y-114023923D02*
X81814285Y-114214400D01*
X81814285Y-114214400D02*
X82242856Y-114309638D01*
X82242856Y-114309638D02*
X82957142Y-114309638D01*
D10*
X93702438Y-66660588D02*
X93654819Y-66565350D01*
X93654819Y-66565350D02*
X93654819Y-66422493D01*
X93654819Y-66422493D02*
X93702438Y-66279636D01*
X93702438Y-66279636D02*
X93797676Y-66184398D01*
X93797676Y-66184398D02*
X93892914Y-66136779D01*
X93892914Y-66136779D02*
X94083390Y-66089160D01*
X94083390Y-66089160D02*
X94226247Y-66089160D01*
X94226247Y-66089160D02*
X94416723Y-66136779D01*
X94416723Y-66136779D02*
X94511961Y-66184398D01*
X94511961Y-66184398D02*
X94607200Y-66279636D01*
X94607200Y-66279636D02*
X94654819Y-66422493D01*
X94654819Y-66422493D02*
X94654819Y-66517731D01*
X94654819Y-66517731D02*
X94607200Y-66660588D01*
X94607200Y-66660588D02*
X94559580Y-66708207D01*
X94559580Y-66708207D02*
X94226247Y-66708207D01*
X94226247Y-66708207D02*
X94226247Y-66517731D01*
X94654819Y-67136779D02*
X93654819Y-67136779D01*
X93654819Y-67136779D02*
X94654819Y-67708207D01*
X94654819Y-67708207D02*
X93654819Y-67708207D01*
X94654819Y-68184398D02*
X93654819Y-68184398D01*
X93654819Y-68184398D02*
X93654819Y-68422493D01*
X93654819Y-68422493D02*
X93702438Y-68565350D01*
X93702438Y-68565350D02*
X93797676Y-68660588D01*
X93797676Y-68660588D02*
X93892914Y-68708207D01*
X93892914Y-68708207D02*
X94083390Y-68755826D01*
X94083390Y-68755826D02*
X94226247Y-68755826D01*
X94226247Y-68755826D02*
X94416723Y-68708207D01*
X94416723Y-68708207D02*
X94511961Y-68660588D01*
X94511961Y-68660588D02*
X94607200Y-68565350D01*
X94607200Y-68565350D02*
X94654819Y-68422493D01*
X94654819Y-68422493D02*
X94654819Y-68184398D01*
X100454819Y-66612969D02*
X100454819Y-66136779D01*
X100454819Y-66136779D02*
X99454819Y-66136779D01*
X99454819Y-67136779D02*
X99454819Y-67327255D01*
X99454819Y-67327255D02*
X99502438Y-67422493D01*
X99502438Y-67422493D02*
X99597676Y-67517731D01*
X99597676Y-67517731D02*
X99788152Y-67565350D01*
X99788152Y-67565350D02*
X100121485Y-67565350D01*
X100121485Y-67565350D02*
X100311961Y-67517731D01*
X100311961Y-67517731D02*
X100407200Y-67422493D01*
X100407200Y-67422493D02*
X100454819Y-67327255D01*
X100454819Y-67327255D02*
X100454819Y-67136779D01*
X100454819Y-67136779D02*
X100407200Y-67041541D01*
X100407200Y-67041541D02*
X100311961Y-66946303D01*
X100311961Y-66946303D02*
X100121485Y-66898684D01*
X100121485Y-66898684D02*
X99788152Y-66898684D01*
X99788152Y-66898684D02*
X99597676Y-66946303D01*
X99597676Y-66946303D02*
X99502438Y-67041541D01*
X99502438Y-67041541D02*
X99454819Y-67136779D01*
X99454819Y-67898684D02*
X100454819Y-68136779D01*
X100454819Y-68136779D02*
X99740533Y-68327255D01*
X99740533Y-68327255D02*
X100454819Y-68517731D01*
X100454819Y-68517731D02*
X99454819Y-68755827D01*
X99454819Y-70089160D02*
X99454819Y-70279636D01*
X99454819Y-70279636D02*
X99502438Y-70374874D01*
X99502438Y-70374874D02*
X99597676Y-70470112D01*
X99597676Y-70470112D02*
X99788152Y-70517731D01*
X99788152Y-70517731D02*
X100121485Y-70517731D01*
X100121485Y-70517731D02*
X100311961Y-70470112D01*
X100311961Y-70470112D02*
X100407200Y-70374874D01*
X100407200Y-70374874D02*
X100454819Y-70279636D01*
X100454819Y-70279636D02*
X100454819Y-70089160D01*
X100454819Y-70089160D02*
X100407200Y-69993922D01*
X100407200Y-69993922D02*
X100311961Y-69898684D01*
X100311961Y-69898684D02*
X100121485Y-69851065D01*
X100121485Y-69851065D02*
X99788152Y-69851065D01*
X99788152Y-69851065D02*
X99597676Y-69898684D01*
X99597676Y-69898684D02*
X99502438Y-69993922D01*
X99502438Y-69993922D02*
X99454819Y-70089160D01*
X100454819Y-70946303D02*
X99454819Y-70946303D01*
X100454819Y-71898683D02*
X100454819Y-71422493D01*
X100454819Y-71422493D02*
X99454819Y-71422493D01*
X100407200Y-72946303D02*
X100454819Y-73089160D01*
X100454819Y-73089160D02*
X100454819Y-73327255D01*
X100454819Y-73327255D02*
X100407200Y-73422493D01*
X100407200Y-73422493D02*
X100359580Y-73470112D01*
X100359580Y-73470112D02*
X100264342Y-73517731D01*
X100264342Y-73517731D02*
X100169104Y-73517731D01*
X100169104Y-73517731D02*
X100073866Y-73470112D01*
X100073866Y-73470112D02*
X100026247Y-73422493D01*
X100026247Y-73422493D02*
X99978628Y-73327255D01*
X99978628Y-73327255D02*
X99931009Y-73136779D01*
X99931009Y-73136779D02*
X99883390Y-73041541D01*
X99883390Y-73041541D02*
X99835771Y-72993922D01*
X99835771Y-72993922D02*
X99740533Y-72946303D01*
X99740533Y-72946303D02*
X99645295Y-72946303D01*
X99645295Y-72946303D02*
X99550057Y-72993922D01*
X99550057Y-72993922D02*
X99502438Y-73041541D01*
X99502438Y-73041541D02*
X99454819Y-73136779D01*
X99454819Y-73136779D02*
X99454819Y-73374874D01*
X99454819Y-73374874D02*
X99502438Y-73517731D01*
X100454819Y-73946303D02*
X99454819Y-73946303D01*
X99502438Y-74946302D02*
X99454819Y-74851064D01*
X99454819Y-74851064D02*
X99454819Y-74708207D01*
X99454819Y-74708207D02*
X99502438Y-74565350D01*
X99502438Y-74565350D02*
X99597676Y-74470112D01*
X99597676Y-74470112D02*
X99692914Y-74422493D01*
X99692914Y-74422493D02*
X99883390Y-74374874D01*
X99883390Y-74374874D02*
X100026247Y-74374874D01*
X100026247Y-74374874D02*
X100216723Y-74422493D01*
X100216723Y-74422493D02*
X100311961Y-74470112D01*
X100311961Y-74470112D02*
X100407200Y-74565350D01*
X100407200Y-74565350D02*
X100454819Y-74708207D01*
X100454819Y-74708207D02*
X100454819Y-74803445D01*
X100454819Y-74803445D02*
X100407200Y-74946302D01*
X100407200Y-74946302D02*
X100359580Y-74993921D01*
X100359580Y-74993921D02*
X100026247Y-74993921D01*
X100026247Y-74993921D02*
X100026247Y-74803445D01*
X119854819Y-66708207D02*
X119378628Y-66374874D01*
X119854819Y-66136779D02*
X118854819Y-66136779D01*
X118854819Y-66136779D02*
X118854819Y-66517731D01*
X118854819Y-66517731D02*
X118902438Y-66612969D01*
X118902438Y-66612969D02*
X118950057Y-66660588D01*
X118950057Y-66660588D02*
X119045295Y-66708207D01*
X119045295Y-66708207D02*
X119188152Y-66708207D01*
X119188152Y-66708207D02*
X119283390Y-66660588D01*
X119283390Y-66660588D02*
X119331009Y-66612969D01*
X119331009Y-66612969D02*
X119378628Y-66517731D01*
X119378628Y-66517731D02*
X119378628Y-66136779D01*
X118854819Y-67136779D02*
X119664342Y-67136779D01*
X119664342Y-67136779D02*
X119759580Y-67184398D01*
X119759580Y-67184398D02*
X119807200Y-67232017D01*
X119807200Y-67232017D02*
X119854819Y-67327255D01*
X119854819Y-67327255D02*
X119854819Y-67517731D01*
X119854819Y-67517731D02*
X119807200Y-67612969D01*
X119807200Y-67612969D02*
X119759580Y-67660588D01*
X119759580Y-67660588D02*
X119664342Y-67708207D01*
X119664342Y-67708207D02*
X118854819Y-67708207D01*
X119854819Y-68184398D02*
X118854819Y-68184398D01*
X118854819Y-68184398D02*
X119854819Y-68755826D01*
X119854819Y-68755826D02*
X118854819Y-68755826D01*
X119854819Y-70565350D02*
X119378628Y-70232017D01*
X119854819Y-69993922D02*
X118854819Y-69993922D01*
X118854819Y-69993922D02*
X118854819Y-70374874D01*
X118854819Y-70374874D02*
X118902438Y-70470112D01*
X118902438Y-70470112D02*
X118950057Y-70517731D01*
X118950057Y-70517731D02*
X119045295Y-70565350D01*
X119045295Y-70565350D02*
X119188152Y-70565350D01*
X119188152Y-70565350D02*
X119283390Y-70517731D01*
X119283390Y-70517731D02*
X119331009Y-70470112D01*
X119331009Y-70470112D02*
X119378628Y-70374874D01*
X119378628Y-70374874D02*
X119378628Y-69993922D01*
X119331009Y-70993922D02*
X119331009Y-71327255D01*
X119854819Y-71470112D02*
X119854819Y-70993922D01*
X119854819Y-70993922D02*
X118854819Y-70993922D01*
X118854819Y-70993922D02*
X118854819Y-71470112D01*
X119854819Y-72374874D02*
X119854819Y-71898684D01*
X119854819Y-71898684D02*
X118854819Y-71898684D01*
X119569104Y-72660589D02*
X119569104Y-73136779D01*
X119854819Y-72565351D02*
X118854819Y-72898684D01*
X118854819Y-72898684D02*
X119854819Y-73232017D01*
X119378628Y-73755827D02*
X119854819Y-73755827D01*
X118854819Y-73422494D02*
X119378628Y-73755827D01*
X119378628Y-73755827D02*
X118854819Y-74089160D01*
X118854819Y-75374875D02*
X118854819Y-75565351D01*
X118854819Y-75565351D02*
X118902438Y-75660589D01*
X118902438Y-75660589D02*
X118997676Y-75755827D01*
X118997676Y-75755827D02*
X119188152Y-75803446D01*
X119188152Y-75803446D02*
X119521485Y-75803446D01*
X119521485Y-75803446D02*
X119711961Y-75755827D01*
X119711961Y-75755827D02*
X119807200Y-75660589D01*
X119807200Y-75660589D02*
X119854819Y-75565351D01*
X119854819Y-75565351D02*
X119854819Y-75374875D01*
X119854819Y-75374875D02*
X119807200Y-75279637D01*
X119807200Y-75279637D02*
X119711961Y-75184399D01*
X119711961Y-75184399D02*
X119521485Y-75136780D01*
X119521485Y-75136780D02*
X119188152Y-75136780D01*
X119188152Y-75136780D02*
X118997676Y-75184399D01*
X118997676Y-75184399D02*
X118902438Y-75279637D01*
X118902438Y-75279637D02*
X118854819Y-75374875D01*
X118854819Y-76232018D02*
X119664342Y-76232018D01*
X119664342Y-76232018D02*
X119759580Y-76279637D01*
X119759580Y-76279637D02*
X119807200Y-76327256D01*
X119807200Y-76327256D02*
X119854819Y-76422494D01*
X119854819Y-76422494D02*
X119854819Y-76612970D01*
X119854819Y-76612970D02*
X119807200Y-76708208D01*
X119807200Y-76708208D02*
X119759580Y-76755827D01*
X119759580Y-76755827D02*
X119664342Y-76803446D01*
X119664342Y-76803446D02*
X118854819Y-76803446D01*
X118854819Y-77136780D02*
X118854819Y-77708208D01*
X119854819Y-77422494D02*
X118854819Y-77422494D01*
X98054819Y-66660588D02*
X98054819Y-66089160D01*
X98054819Y-66374874D02*
X97054819Y-66374874D01*
X97054819Y-66374874D02*
X97197676Y-66279636D01*
X97197676Y-66279636D02*
X97292914Y-66184398D01*
X97292914Y-66184398D02*
X97340533Y-66089160D01*
X97150057Y-67041541D02*
X97102438Y-67089160D01*
X97102438Y-67089160D02*
X97054819Y-67184398D01*
X97054819Y-67184398D02*
X97054819Y-67422493D01*
X97054819Y-67422493D02*
X97102438Y-67517731D01*
X97102438Y-67517731D02*
X97150057Y-67565350D01*
X97150057Y-67565350D02*
X97245295Y-67612969D01*
X97245295Y-67612969D02*
X97340533Y-67612969D01*
X97340533Y-67612969D02*
X97483390Y-67565350D01*
X97483390Y-67565350D02*
X98054819Y-66993922D01*
X98054819Y-66993922D02*
X98054819Y-67612969D01*
X97054819Y-67898684D02*
X98054819Y-68232017D01*
X98054819Y-68232017D02*
X97054819Y-68565350D01*
X109131009Y-66470112D02*
X109178628Y-66612969D01*
X109178628Y-66612969D02*
X109226247Y-66660588D01*
X109226247Y-66660588D02*
X109321485Y-66708207D01*
X109321485Y-66708207D02*
X109464342Y-66708207D01*
X109464342Y-66708207D02*
X109559580Y-66660588D01*
X109559580Y-66660588D02*
X109607200Y-66612969D01*
X109607200Y-66612969D02*
X109654819Y-66517731D01*
X109654819Y-66517731D02*
X109654819Y-66136779D01*
X109654819Y-66136779D02*
X108654819Y-66136779D01*
X108654819Y-66136779D02*
X108654819Y-66470112D01*
X108654819Y-66470112D02*
X108702438Y-66565350D01*
X108702438Y-66565350D02*
X108750057Y-66612969D01*
X108750057Y-66612969D02*
X108845295Y-66660588D01*
X108845295Y-66660588D02*
X108940533Y-66660588D01*
X108940533Y-66660588D02*
X109035771Y-66612969D01*
X109035771Y-66612969D02*
X109083390Y-66565350D01*
X109083390Y-66565350D02*
X109131009Y-66470112D01*
X109131009Y-66470112D02*
X109131009Y-66136779D01*
X108654819Y-67136779D02*
X109464342Y-67136779D01*
X109464342Y-67136779D02*
X109559580Y-67184398D01*
X109559580Y-67184398D02*
X109607200Y-67232017D01*
X109607200Y-67232017D02*
X109654819Y-67327255D01*
X109654819Y-67327255D02*
X109654819Y-67517731D01*
X109654819Y-67517731D02*
X109607200Y-67612969D01*
X109607200Y-67612969D02*
X109559580Y-67660588D01*
X109559580Y-67660588D02*
X109464342Y-67708207D01*
X109464342Y-67708207D02*
X108654819Y-67708207D01*
X108654819Y-68089160D02*
X108654819Y-68755826D01*
X108654819Y-68755826D02*
X109654819Y-68089160D01*
X109654819Y-68089160D02*
X109654819Y-68755826D01*
X108654819Y-69041541D02*
X108654819Y-69708207D01*
X108654819Y-69708207D02*
X109654819Y-69041541D01*
X109654819Y-69041541D02*
X109654819Y-69708207D01*
X109131009Y-70089160D02*
X109131009Y-70422493D01*
X109654819Y-70565350D02*
X109654819Y-70089160D01*
X109654819Y-70089160D02*
X108654819Y-70089160D01*
X108654819Y-70089160D02*
X108654819Y-70565350D01*
X109654819Y-71565350D02*
X109178628Y-71232017D01*
X109654819Y-70993922D02*
X108654819Y-70993922D01*
X108654819Y-70993922D02*
X108654819Y-71374874D01*
X108654819Y-71374874D02*
X108702438Y-71470112D01*
X108702438Y-71470112D02*
X108750057Y-71517731D01*
X108750057Y-71517731D02*
X108845295Y-71565350D01*
X108845295Y-71565350D02*
X108988152Y-71565350D01*
X108988152Y-71565350D02*
X109083390Y-71517731D01*
X109083390Y-71517731D02*
X109131009Y-71470112D01*
X109131009Y-71470112D02*
X109178628Y-71374874D01*
X109178628Y-71374874D02*
X109178628Y-70993922D01*
X109654819Y-73279636D02*
X109654819Y-72708208D01*
X109654819Y-72993922D02*
X108654819Y-72993922D01*
X108654819Y-72993922D02*
X108797676Y-72898684D01*
X108797676Y-72898684D02*
X108892914Y-72803446D01*
X108892914Y-72803446D02*
X108940533Y-72708208D01*
X108750057Y-73660589D02*
X108702438Y-73708208D01*
X108702438Y-73708208D02*
X108654819Y-73803446D01*
X108654819Y-73803446D02*
X108654819Y-74041541D01*
X108654819Y-74041541D02*
X108702438Y-74136779D01*
X108702438Y-74136779D02*
X108750057Y-74184398D01*
X108750057Y-74184398D02*
X108845295Y-74232017D01*
X108845295Y-74232017D02*
X108940533Y-74232017D01*
X108940533Y-74232017D02*
X109083390Y-74184398D01*
X109083390Y-74184398D02*
X109654819Y-73612970D01*
X109654819Y-73612970D02*
X109654819Y-74232017D01*
X108654819Y-74517732D02*
X109654819Y-74851065D01*
X109654819Y-74851065D02*
X108654819Y-75184398D01*
X93854819Y-88566666D02*
X94569104Y-88566666D01*
X94569104Y-88566666D02*
X94711961Y-88519047D01*
X94711961Y-88519047D02*
X94807200Y-88423809D01*
X94807200Y-88423809D02*
X94854819Y-88280952D01*
X94854819Y-88280952D02*
X94854819Y-88185714D01*
X94854819Y-89042857D02*
X93854819Y-89042857D01*
X93854819Y-89042857D02*
X93854819Y-89423809D01*
X93854819Y-89423809D02*
X93902438Y-89519047D01*
X93902438Y-89519047D02*
X93950057Y-89566666D01*
X93950057Y-89566666D02*
X94045295Y-89614285D01*
X94045295Y-89614285D02*
X94188152Y-89614285D01*
X94188152Y-89614285D02*
X94283390Y-89566666D01*
X94283390Y-89566666D02*
X94331009Y-89519047D01*
X94331009Y-89519047D02*
X94378628Y-89423809D01*
X94378628Y-89423809D02*
X94378628Y-89042857D01*
X94854819Y-90566666D02*
X94854819Y-89995238D01*
X94854819Y-90280952D02*
X93854819Y-90280952D01*
X93854819Y-90280952D02*
X93997676Y-90185714D01*
X93997676Y-90185714D02*
X94092914Y-90090476D01*
X94092914Y-90090476D02*
X94140533Y-89995238D01*
D12*
%TO.C,JP1*%
X94100000Y-90950000D02*
X94700000Y-90950000D01*
X95900000Y-92100000D02*
X95900000Y-91500000D01*
X93400000Y-94400000D02*
X93400000Y-91600000D01*
X95900000Y-91500000D02*
X95600000Y-91800000D01*
X95900000Y-92100000D02*
X95600000Y-91800000D01*
X95400000Y-91600000D02*
X95400000Y-94400000D01*
X94700000Y-95050000D02*
X94100000Y-95050000D01*
X93400000Y-91650000D02*
G75*
G02*
X94100000Y-90950000I699999J1D01*
G01*
X94700000Y-90950000D02*
G75*
G02*
X95400000Y-91650000I1J-699999D01*
G01*
X94100000Y-95050000D02*
G75*
G02*
X93400000Y-94350000I0J700000D01*
G01*
X95400000Y-94350000D02*
G75*
G02*
X94700000Y-95050000I-700000J0D01*
G01*
%TD*%
M02*
