M48
; DRILL file {KiCad 8.0.4} date 2024-08-13T22:42:27-0600
; FORMAT={-:-/ absolute / inch / decimal}
; #@! TF.CreationDate,2024-08-13T22:42:27-06:00
; #@! TF.GenerationSoftware,Kicad,Pcbnew,8.0.4
; #@! TF.FileFunction,Plated,1,2,PTH
FMAT,2
INCH
; #@! TA.AperFunction,Plated,PTH,ComponentDrill
T1C0.0315
; #@! TA.AperFunction,Plated,PTH,ComponentDrill
T2C0.0354
; #@! TA.AperFunction,Plated,PTH,ComponentDrill
T3C0.0394
; #@! TA.AperFunction,Plated,PTH,ComponentDrill
T4C0.0433
; #@! TA.AperFunction,Plated,PTH,ComponentDrill
T5C0.0472
; #@! TA.AperFunction,Plated,PTH,ComponentDrill
T6C0.2087
%
G90
G05
T1
X3.2165Y-3.315
X3.2598Y-4.185
X3.2598Y-4.685
X3.2874Y-2.8819
X3.3142Y-3.4606
X3.3142Y-3.5606
X3.3142Y-3.6606
X3.3142Y-3.7606
X3.3142Y-3.8606
X3.3142Y-3.9606
X3.3142Y-4.0606
X3.3425Y-3.0945
X3.4016Y-4.185
X3.4016Y-4.685
X3.4409Y-3.0945
X3.4843Y-2.8819
X3.5433Y-4.185
X3.5433Y-4.685
X3.6142Y-3.4606
X3.6142Y-3.5606
X3.6142Y-3.6606
X3.6142Y-3.7606
X3.6142Y-3.8606
X3.6142Y-3.9606
X3.6142Y-4.0606
X3.7087Y-4.185
X3.7087Y-4.685
X3.7165Y-3.315
X3.8346Y-3.3957
X3.8346Y-3.8957
X4.0Y-2.7835
X4.0Y-2.9803
X4.0157Y-3.5846
X4.0157Y-4.0846
X4.2205Y-3.3957
X4.2205Y-3.8957
X4.3858Y-2.7835
X4.3858Y-2.9803
X4.4094Y-3.5846
X4.4094Y-4.0846
X4.622Y-3.3878
X4.622Y-3.8878
X4.7874Y-2.7756
X4.7874Y-2.9724
X4.8031Y-3.5846
X4.8031Y-4.0846
T2
X3.8793Y-4.3307
X3.9793Y-4.3307
X4.2652Y-4.3307
X4.3652Y-4.3307
X4.6746Y-4.3307
X4.7746Y-4.3307
T3
X3.6693Y-2.7913
X3.6693Y-3.1457
X4.0236Y-4.5906
X4.0236Y-4.7874
T4
X3.8346Y-2.7815
X3.8346Y-3.2815
X4.0551Y-3.2047
X4.0551Y-3.3047
X4.0551Y-3.4047
X4.2205Y-2.7815
X4.2205Y-3.2815
X4.4409Y-3.2094
X4.4409Y-3.3094
X4.4409Y-3.4094
X4.622Y-2.7736
X4.622Y-3.2736
X4.8425Y-3.2071
X4.8425Y-3.3071
X4.8425Y-3.4071
T5
X3.7087Y-2.5236
X3.8465Y-2.5236
X3.9843Y-2.5236
X4.122Y-2.5236
X4.2598Y-2.5236
X4.3976Y-2.5236
X4.5354Y-2.5236
X4.6732Y-2.5236
X4.811Y-2.5236
T6
X3.378Y-2.5906
X4.6929Y-4.6929
M30
