%TF.GenerationSoftware,KiCad,Pcbnew,8.0.4*%
%TF.CreationDate,2024-08-13T22:42:24-06:00*%
%TF.ProjectId,oil-lamp-safety,6f696c2d-6c61-46d7-902d-736166657479,v0.2*%
%TF.SameCoordinates,Original*%
%TF.FileFunction,Copper,L2,Bot*%
%TF.FilePolarity,Positive*%
%FSLAX46Y46*%
G04 Gerber Fmt 4.6, Leading zero omitted, Abs format (unit mm)*
G04 Created by KiCad (PCBNEW 8.0.4) date 2024-08-13 22:42:24*
%MOMM*%
%LPD*%
G01*
G04 APERTURE LIST*
G04 Aperture macros list*
%AMFreePoly0*
4,1,19,0.550000,-0.750000,0.000000,-0.750000,0.000000,-0.744911,-0.071157,-0.744911,-0.207708,-0.704816,-0.327430,-0.627875,-0.420627,-0.520320,-0.479746,-0.390866,-0.500000,-0.250000,-0.500000,0.250000,-0.479746,0.390866,-0.420627,0.520320,-0.327430,0.627875,-0.207708,0.704816,-0.071157,0.744911,0.000000,0.744911,0.000000,0.750000,0.550000,0.750000,0.550000,-0.750000,0.550000,-0.750000,
$1*%
%AMFreePoly1*
4,1,19,0.000000,0.744911,0.071157,0.744911,0.207708,0.704816,0.327430,0.627875,0.420627,0.520320,0.479746,0.390866,0.500000,0.250000,0.500000,-0.250000,0.479746,-0.390866,0.420627,-0.520320,0.327430,-0.627875,0.207708,-0.704816,0.071157,-0.744911,0.000000,-0.744911,0.000000,-0.750000,-0.550000,-0.750000,-0.550000,0.750000,0.000000,0.750000,0.000000,0.744911,0.000000,0.744911,
$1*%
G04 Aperture macros list end*
%TA.AperFunction,ComponentPad*%
%ADD10C,10.600000*%
%TD*%
%TA.AperFunction,ComponentPad*%
%ADD11R,2.000000X1.905000*%
%TD*%
%TA.AperFunction,ComponentPad*%
%ADD12O,2.000000X1.905000*%
%TD*%
%TA.AperFunction,SMDPad,CuDef*%
%ADD13FreePoly0,270.000000*%
%TD*%
%TA.AperFunction,SMDPad,CuDef*%
%ADD14R,1.500000X1.000000*%
%TD*%
%TA.AperFunction,SMDPad,CuDef*%
%ADD15FreePoly1,270.000000*%
%TD*%
%TA.AperFunction,ComponentPad*%
%ADD16R,2.200000X2.200000*%
%TD*%
%TA.AperFunction,ComponentPad*%
%ADD17O,2.200000X2.200000*%
%TD*%
%TA.AperFunction,ComponentPad*%
%ADD18R,1.600000X1.600000*%
%TD*%
%TA.AperFunction,ComponentPad*%
%ADD19O,1.600000X1.600000*%
%TD*%
%TA.AperFunction,ComponentPad*%
%ADD20C,1.600000*%
%TD*%
%TA.AperFunction,ComponentPad*%
%ADD21R,1.800000X1.800000*%
%TD*%
%TA.AperFunction,ComponentPad*%
%ADD22C,1.800000*%
%TD*%
%TA.AperFunction,ComponentPad*%
%ADD23O,2.400000X1.600000*%
%TD*%
%TA.AperFunction,ComponentPad*%
%ADD24R,2.400000X1.600000*%
%TD*%
%TA.AperFunction,ComponentPad*%
%ADD25C,2.000000*%
%TD*%
%TA.AperFunction,ComponentPad*%
%ADD26R,2.000000X2.000000*%
%TD*%
%TA.AperFunction,ComponentPad*%
%ADD27R,2.400000X2.400000*%
%TD*%
%TA.AperFunction,ComponentPad*%
%ADD28C,2.400000*%
%TD*%
%TA.AperFunction,Conductor*%
%ADD29C,0.500000*%
%TD*%
%TA.AperFunction,Conductor*%
%ADD30C,1.000000*%
%TD*%
G04 APERTURE END LIST*
D10*
%TO.P,H2,1,1*%
%TO.N,GND*%
X119200000Y-119200000D03*
%TD*%
%TO.P,H1,1,1*%
%TO.N,GND*%
X85800000Y-65800000D03*
%TD*%
D11*
%TO.P,Q3,1,G*%
%TO.N,Net-(Q3-G)*%
X123000000Y-86540000D03*
D12*
%TO.P,Q3,2,D*%
%TO.N,RUN_RELAY_OUT_SIG*%
X123000000Y-84000000D03*
%TO.P,Q3,3,S*%
%TO.N,GND*%
X123000000Y-81460000D03*
%TD*%
D11*
%TO.P,Q2,1,G*%
%TO.N,Net-(Q2-G)*%
X112800000Y-86600000D03*
D12*
%TO.P,Q2,2,D*%
%TO.N,LOCKOUT_LAMP_OUT_SIG*%
X112800000Y-84060000D03*
%TO.P,Q2,3,S*%
%TO.N,GND*%
X112800000Y-81520000D03*
%TD*%
D11*
%TO.P,Q1,1,G*%
%TO.N,Net-(Q1-G)*%
X103000000Y-86480000D03*
D12*
%TO.P,Q1,2,D*%
%TO.N,OIL_BUZZER_OUT_SIG*%
X103000000Y-83940000D03*
%TO.P,Q1,3,S*%
%TO.N,GND*%
X103000000Y-81400000D03*
%TD*%
D13*
%TO.P,JP1,1,A*%
%TO.N,OIL_LOW_SIGNAL*%
X94400000Y-91700000D03*
D14*
%TO.P,JP1,2,C*%
%TO.N,Net-(JP1-C)*%
X94400000Y-93000000D03*
D15*
%TO.P,JP1,3,B*%
%TO.N,LOCKOUT*%
X94400000Y-94300000D03*
%TD*%
D16*
%TO.P,D7,1,K*%
%TO.N,+12V*%
X117400000Y-83150000D03*
D17*
%TO.P,D7,2,A*%
%TO.N,RUN_RELAY_OUT_SIG*%
X117400000Y-70450000D03*
%TD*%
D16*
%TO.P,D6,1,K*%
%TO.N,+12V*%
X107200000Y-83350000D03*
D17*
%TO.P,D6,2,A*%
%TO.N,LOCKOUT_LAMP_OUT_SIG*%
X107200000Y-70650000D03*
%TD*%
D16*
%TO.P,D5,1,K*%
%TO.N,+12V*%
X97400000Y-83350000D03*
D17*
%TO.P,D5,2,A*%
%TO.N,OIL_BUZZER_OUT_SIG*%
X97400000Y-70650000D03*
%TD*%
D18*
%TO.P,D1,1,K*%
%TO.N,Net-(D1-K)*%
X86400000Y-119000000D03*
D19*
%TO.P,D1,2,A*%
%TO.N,Net-(D1-A)*%
X86400000Y-106300000D03*
%TD*%
D20*
%TO.P,R3,1*%
%TO.N,Net-(R3-Pad1)*%
X82800000Y-106300000D03*
D19*
%TO.P,R3,2*%
%TO.N,Net-(D1-K)*%
X82800000Y-119000000D03*
%TD*%
D21*
%TO.P,D2,1,K*%
%TO.N,Net-(D2-K)*%
X121275000Y-110000000D03*
D22*
%TO.P,D2,2,A*%
%TO.N,RUN*%
X118735000Y-110000000D03*
%TD*%
D20*
%TO.P,R6,1*%
%TO.N,Net-(D3-K)*%
X112000000Y-103750000D03*
D19*
%TO.P,R6,2*%
%TO.N,GND*%
X112000000Y-91050000D03*
%TD*%
D21*
%TO.P,D3,1,K*%
%TO.N,Net-(D3-K)*%
X110875000Y-110000000D03*
D22*
%TO.P,D3,2,A*%
%TO.N,LOCKOUT*%
X108335000Y-110000000D03*
%TD*%
D20*
%TO.P,R9,1*%
%TO.N,LOCKOUT*%
X107200000Y-98950000D03*
D19*
%TO.P,R9,2*%
%TO.N,Net-(Q2-G)*%
X107200000Y-86250000D03*
%TD*%
D23*
%TO.P,U1,14,VCC*%
%TO.N,+12V*%
X91800000Y-87900000D03*
%TO.P,U1,13*%
%TO.N,OIL_LOW_SIGNAL*%
X91800000Y-90440000D03*
%TO.P,U1,12*%
%TO.N,Net-(JP1-C)*%
X91800000Y-92980000D03*
%TO.P,U1,11*%
%TO.N,OIL_LOW*%
X91800000Y-95520000D03*
%TO.P,U1,10*%
%TO.N,LOCKOUT*%
X91800000Y-98060000D03*
%TO.P,U1,9*%
%TO.N,RUN*%
X91800000Y-100600000D03*
%TO.P,U1,8*%
X91800000Y-103140000D03*
%TO.P,U1,7,GND*%
%TO.N,GND*%
X84180000Y-103140000D03*
%TO.P,U1,6*%
%TO.N,Net-(D1-A)*%
X84180000Y-100600000D03*
%TO.P,U1,5*%
X84180000Y-98060000D03*
%TO.P,U1,4*%
%TO.N,RUN*%
X84180000Y-95520000D03*
%TO.P,U1,3*%
%TO.N,Net-(R3-Pad1)*%
X84180000Y-92980000D03*
%TO.P,U1,2*%
%TO.N,RUN*%
X84180000Y-90440000D03*
D24*
%TO.P,U1,1*%
%TO.N,OIL_LOW_SIGNAL*%
X84180000Y-87900000D03*
%TD*%
D25*
%TO.P,FB1,1*%
%TO.N,+12V*%
X93200000Y-79900000D03*
%TO.P,FB1,2*%
%TO.N,12V_BATT*%
X93200000Y-70900000D03*
%TD*%
D20*
%TO.P,R1,1*%
%TO.N,+12V*%
X94400000Y-84200000D03*
D19*
%TO.P,R1,2*%
%TO.N,OIL_LOW_SIGNAL*%
X81700000Y-84200000D03*
%TD*%
D20*
%TO.P,R10,1*%
%TO.N,RUN*%
X117400000Y-98750000D03*
D19*
%TO.P,R10,2*%
%TO.N,Net-(Q3-G)*%
X117400000Y-86050000D03*
%TD*%
D20*
%TO.P,R5,1*%
%TO.N,+12V*%
X90000000Y-119000000D03*
D19*
%TO.P,R5,2*%
%TO.N,Net-(D1-A)*%
X90000000Y-106300000D03*
%TD*%
D20*
%TO.P,R4,1*%
%TO.N,Net-(D2-K)*%
X122000000Y-103750000D03*
D19*
%TO.P,R4,2*%
%TO.N,GND*%
X122000000Y-91050000D03*
%TD*%
D20*
%TO.P,R8,1*%
%TO.N,OIL_LOW*%
X97400000Y-98950000D03*
D19*
%TO.P,R8,2*%
%TO.N,Net-(Q1-G)*%
X97400000Y-86250000D03*
%TD*%
D20*
%TO.P,C5,1*%
%TO.N,+12V*%
X111400000Y-75700000D03*
%TO.P,C5,2*%
%TO.N,LOCKOUT_LAMP_OUT_SIG*%
X111400000Y-70700000D03*
%TD*%
%TO.P,R2,1*%
%TO.N,+12V*%
X94200000Y-119000000D03*
D19*
%TO.P,R2,2*%
%TO.N,RUN*%
X94200000Y-106300000D03*
%TD*%
D20*
%TO.P,R7,1*%
%TO.N,Net-(D4-K)*%
X102000000Y-103750000D03*
D19*
%TO.P,R7,2*%
%TO.N,GND*%
X102000000Y-91050000D03*
%TD*%
D18*
%TO.P,C1,1*%
%TO.N,+12V*%
X87400000Y-78600000D03*
D20*
%TO.P,C1,2*%
%TO.N,GND*%
X84900000Y-78600000D03*
%TD*%
D21*
%TO.P,D4,1,K*%
%TO.N,Net-(D4-K)*%
X101075000Y-110000000D03*
D22*
%TO.P,D4,2,A*%
%TO.N,OIL_LOW*%
X98535000Y-110000000D03*
%TD*%
D26*
%TO.P,C2,1*%
%TO.N,Net-(D1-A)*%
X102200000Y-116600000D03*
D25*
%TO.P,C2,2*%
%TO.N,GND*%
X102200000Y-121600000D03*
%TD*%
D20*
%TO.P,C4,1*%
%TO.N,+12V*%
X101600000Y-75700000D03*
%TO.P,C4,2*%
%TO.N,OIL_BUZZER_OUT_SIG*%
X101600000Y-70700000D03*
%TD*%
D27*
%TO.P,J1,1,Pin_1*%
%TO.N,GND*%
X94200000Y-64100000D03*
D28*
%TO.P,J1,2,Pin_2*%
%TO.N,12V_BATT*%
X97700000Y-64100000D03*
%TO.P,J1,3,Pin_3*%
%TO.N,OIL_LOW_SIGNAL*%
X101200000Y-64100000D03*
%TO.P,J1,4,Pin_4*%
%TO.N,OIL_BUZZER_OUT_SIG*%
X104700000Y-64100000D03*
%TO.P,J1,5,Pin_5*%
%TO.N,+12V*%
X108200000Y-64100000D03*
%TO.P,J1,6,Pin_6*%
%TO.N,LOCKOUT_LAMP_OUT_SIG*%
X111700000Y-64100000D03*
%TO.P,J1,7,Pin_7*%
%TO.N,+12V*%
X115200000Y-64100000D03*
%TO.P,J1,8,Pin_8*%
%TO.N,RUN_RELAY_OUT_SIG*%
X118700000Y-64100000D03*
%TO.P,J1,9,Pin_9*%
%TO.N,+12V*%
X122200000Y-64100000D03*
%TD*%
D20*
%TO.P,C3,1*%
%TO.N,+12V*%
X88500000Y-73200000D03*
%TO.P,C3,2*%
%TO.N,GND*%
X83500000Y-73200000D03*
%TD*%
%TO.P,C6,1*%
%TO.N,+12V*%
X121600000Y-75500000D03*
%TO.P,C6,2*%
%TO.N,RUN_RELAY_OUT_SIG*%
X121600000Y-70500000D03*
%TD*%
D29*
%TO.N,OIL_LOW_SIGNAL*%
X93140000Y-90440000D02*
X94400000Y-91700000D01*
X91800000Y-90440000D02*
X93140000Y-90440000D01*
%TO.N,Net-(JP1-C)*%
X94380000Y-92980000D02*
X94400000Y-93000000D01*
X91800000Y-92980000D02*
X94380000Y-92980000D01*
%TO.N,LOCKOUT*%
X94400000Y-95460000D02*
X94400000Y-94300000D01*
X91800000Y-98060000D02*
X94400000Y-95460000D01*
D30*
%TO.N,GND*%
X112745000Y-81520000D02*
X112745000Y-79655000D01*
X122945000Y-81460000D02*
X122945000Y-79455000D01*
X102945000Y-81460000D02*
X102945000Y-79455000D01*
%TO.N,OIL_BUZZER_OUT_SIG*%
X104700000Y-67600000D02*
X101600000Y-70700000D01*
X97400000Y-78455000D02*
X102945000Y-84000000D01*
X104700000Y-64100000D02*
X104700000Y-67600000D01*
X101600000Y-70700000D02*
X97450000Y-70700000D01*
X97400000Y-70650000D02*
X97400000Y-78455000D01*
X97450000Y-70700000D02*
X97400000Y-70650000D01*
%TO.N,LOCKOUT_LAMP_OUT_SIG*%
X107200000Y-78358809D02*
X107200000Y-70650000D01*
X111400000Y-64400000D02*
X111700000Y-64100000D01*
X112745000Y-83903809D02*
X107200000Y-78358809D01*
X111400000Y-70700000D02*
X107250000Y-70700000D01*
X111400000Y-70700000D02*
X111400000Y-64400000D01*
X112745000Y-84060000D02*
X112745000Y-83903809D01*
X107250000Y-70700000D02*
X107200000Y-70650000D01*
%TO.N,RUN_RELAY_OUT_SIG*%
X117400000Y-70450000D02*
X121550000Y-70450000D01*
X121550000Y-70450000D02*
X121600000Y-70500000D01*
X118700000Y-64100000D02*
X118700000Y-69150000D01*
X118700000Y-69150000D02*
X117400000Y-70450000D01*
X117400000Y-78455000D02*
X117400000Y-70450000D01*
X122945000Y-84000000D02*
X117400000Y-78455000D01*
D29*
%TO.N,Net-(Q1-G)*%
X102655000Y-86250000D02*
X102945000Y-86540000D01*
X97400000Y-86250000D02*
X102655000Y-86250000D01*
%TO.N,Net-(Q2-G)*%
X107200000Y-86250000D02*
X112395000Y-86250000D01*
X112395000Y-86250000D02*
X112745000Y-86600000D01*
%TO.N,Net-(Q3-G)*%
X122455000Y-86050000D02*
X122945000Y-86540000D01*
X117400000Y-86050000D02*
X122455000Y-86050000D01*
%TD*%
%TA.AperFunction,Conductor*%
%TO.N,GND*%
G36*
X124942121Y-60020002D02*
G01*
X124988614Y-60073658D01*
X125000000Y-60126000D01*
X125000000Y-117462110D01*
X124979998Y-117530231D01*
X124926342Y-117576724D01*
X124856068Y-117586828D01*
X124791488Y-117557334D01*
X124753238Y-117498063D01*
X124698005Y-117312540D01*
X124523356Y-116864953D01*
X124312351Y-116433335D01*
X124312349Y-116433330D01*
X124066424Y-116020615D01*
X124066421Y-116020610D01*
X123787255Y-115629612D01*
X123485673Y-115273534D01*
X121245057Y-117514150D01*
X121179066Y-117431399D01*
X120968601Y-117220934D01*
X120885848Y-117154941D01*
X123126464Y-114914325D01*
X122770387Y-114612744D01*
X122379389Y-114333578D01*
X122379384Y-114333575D01*
X121966669Y-114087650D01*
X121966664Y-114087648D01*
X121535046Y-113876643D01*
X121087456Y-113701993D01*
X120626992Y-113564907D01*
X120156795Y-113466317D01*
X120156777Y-113466314D01*
X119680042Y-113406888D01*
X119680026Y-113406887D01*
X119200009Y-113387034D01*
X119199991Y-113387034D01*
X118719973Y-113406887D01*
X118719957Y-113406888D01*
X118243222Y-113466314D01*
X118243204Y-113466317D01*
X117773007Y-113564907D01*
X117312543Y-113701993D01*
X116864953Y-113876643D01*
X116433335Y-114087648D01*
X116433330Y-114087650D01*
X116020615Y-114333575D01*
X116020610Y-114333578D01*
X115629606Y-114612749D01*
X115273535Y-114914324D01*
X115273534Y-114914325D01*
X117514150Y-117154941D01*
X117431399Y-117220934D01*
X117220934Y-117431399D01*
X117154941Y-117514150D01*
X114914325Y-115273534D01*
X114914324Y-115273535D01*
X114612749Y-115629606D01*
X114333578Y-116020610D01*
X114333575Y-116020615D01*
X114087650Y-116433330D01*
X114087648Y-116433335D01*
X113876643Y-116864953D01*
X113701993Y-117312543D01*
X113564907Y-117773007D01*
X113466317Y-118243204D01*
X113466314Y-118243222D01*
X113406888Y-118719957D01*
X113406887Y-118719973D01*
X113387034Y-119199990D01*
X113387034Y-119200009D01*
X113406887Y-119680026D01*
X113406888Y-119680042D01*
X113466314Y-120156777D01*
X113466317Y-120156795D01*
X113564907Y-120626992D01*
X113701993Y-121087456D01*
X113876643Y-121535046D01*
X114087648Y-121966664D01*
X114087650Y-121966669D01*
X114333575Y-122379384D01*
X114333578Y-122379389D01*
X114612744Y-122770387D01*
X114914325Y-123126464D01*
X117154941Y-120885848D01*
X117220934Y-120968601D01*
X117431399Y-121179066D01*
X117514150Y-121245057D01*
X115273534Y-123485673D01*
X115629612Y-123787255D01*
X116020610Y-124066421D01*
X116020615Y-124066424D01*
X116433330Y-124312349D01*
X116433335Y-124312351D01*
X116864953Y-124523356D01*
X117312540Y-124698005D01*
X117498063Y-124753238D01*
X117557644Y-124791846D01*
X117586894Y-124856537D01*
X117576526Y-124926773D01*
X117529832Y-124980253D01*
X117462110Y-125000000D01*
X80126000Y-125000000D01*
X80057879Y-124979998D01*
X80011386Y-124926342D01*
X80000000Y-124874000D01*
X80000000Y-121600000D01*
X100687337Y-121600000D01*
X100705960Y-121836632D01*
X100761371Y-122067437D01*
X100852208Y-122286738D01*
X100966896Y-122473890D01*
X100966897Y-122473890D01*
X101715841Y-121724946D01*
X101734075Y-121792993D01*
X101799901Y-121907007D01*
X101892993Y-122000099D01*
X102007007Y-122065925D01*
X102075051Y-122084157D01*
X101326107Y-122833101D01*
X101326108Y-122833102D01*
X101513261Y-122947791D01*
X101732562Y-123038628D01*
X101963367Y-123094039D01*
X102200000Y-123112662D01*
X102436632Y-123094039D01*
X102667437Y-123038628D01*
X102886738Y-122947791D01*
X103073890Y-122833102D01*
X103073891Y-122833102D01*
X102324947Y-122084158D01*
X102392993Y-122065925D01*
X102507007Y-122000099D01*
X102600099Y-121907007D01*
X102665925Y-121792993D01*
X102684158Y-121724947D01*
X103433102Y-122473891D01*
X103433102Y-122473890D01*
X103547791Y-122286738D01*
X103638628Y-122067437D01*
X103694039Y-121836632D01*
X103712662Y-121600000D01*
X103694039Y-121363367D01*
X103638628Y-121132562D01*
X103547791Y-120913261D01*
X103433102Y-120726108D01*
X103433101Y-120726107D01*
X102684157Y-121475051D01*
X102665925Y-121407007D01*
X102600099Y-121292993D01*
X102507007Y-121199901D01*
X102392993Y-121134075D01*
X102324946Y-121115841D01*
X103073890Y-120366897D01*
X103073890Y-120366896D01*
X102886738Y-120252208D01*
X102667437Y-120161371D01*
X102436632Y-120105960D01*
X102200000Y-120087337D01*
X101963367Y-120105960D01*
X101732562Y-120161371D01*
X101513266Y-120252206D01*
X101326108Y-120366897D01*
X101326108Y-120366898D01*
X102075052Y-121115842D01*
X102007007Y-121134075D01*
X101892993Y-121199901D01*
X101799901Y-121292993D01*
X101734075Y-121407007D01*
X101715842Y-121475052D01*
X100966898Y-120726108D01*
X100966897Y-120726108D01*
X100852206Y-120913266D01*
X100761371Y-121132562D01*
X100705960Y-121363367D01*
X100687337Y-121600000D01*
X80000000Y-121600000D01*
X80000000Y-119000000D01*
X81486502Y-119000000D01*
X81506457Y-119228087D01*
X81565716Y-119449243D01*
X81662477Y-119656749D01*
X81793802Y-119844300D01*
X81955700Y-120006198D01*
X82143251Y-120137523D01*
X82350757Y-120234284D01*
X82571913Y-120293543D01*
X82800000Y-120313498D01*
X83028087Y-120293543D01*
X83249243Y-120234284D01*
X83456749Y-120137523D01*
X83644300Y-120006198D01*
X83806198Y-119844300D01*
X83937523Y-119656749D01*
X84034284Y-119449243D01*
X84093543Y-119228087D01*
X84113498Y-119000000D01*
X84093543Y-118771913D01*
X84034284Y-118550757D01*
X83937523Y-118343251D01*
X83806198Y-118155700D01*
X83801848Y-118151350D01*
X85091500Y-118151350D01*
X85091500Y-119848649D01*
X85098009Y-119909196D01*
X85098011Y-119909204D01*
X85149110Y-120046202D01*
X85149112Y-120046207D01*
X85236738Y-120163261D01*
X85353792Y-120250887D01*
X85353794Y-120250888D01*
X85353796Y-120250889D01*
X85412875Y-120272924D01*
X85490795Y-120301988D01*
X85490803Y-120301990D01*
X85551350Y-120308499D01*
X85551355Y-120308499D01*
X85551362Y-120308500D01*
X85551368Y-120308500D01*
X87248632Y-120308500D01*
X87248638Y-120308500D01*
X87248645Y-120308499D01*
X87248649Y-120308499D01*
X87309196Y-120301990D01*
X87309199Y-120301989D01*
X87309201Y-120301989D01*
X87446204Y-120250889D01*
X87468389Y-120234282D01*
X87563261Y-120163261D01*
X87650887Y-120046207D01*
X87650887Y-120046206D01*
X87650889Y-120046204D01*
X87701989Y-119909201D01*
X87708500Y-119848638D01*
X87708500Y-119000000D01*
X88686502Y-119000000D01*
X88706457Y-119228087D01*
X88765716Y-119449243D01*
X88862477Y-119656749D01*
X88993802Y-119844300D01*
X89155700Y-120006198D01*
X89343251Y-120137523D01*
X89550757Y-120234284D01*
X89771913Y-120293543D01*
X90000000Y-120313498D01*
X90228087Y-120293543D01*
X90449243Y-120234284D01*
X90656749Y-120137523D01*
X90844300Y-120006198D01*
X91006198Y-119844300D01*
X91137523Y-119656749D01*
X91234284Y-119449243D01*
X91293543Y-119228087D01*
X91313498Y-119000000D01*
X92886502Y-119000000D01*
X92906457Y-119228087D01*
X92965716Y-119449243D01*
X93062477Y-119656749D01*
X93193802Y-119844300D01*
X93355700Y-120006198D01*
X93543251Y-120137523D01*
X93750757Y-120234284D01*
X93971913Y-120293543D01*
X94200000Y-120313498D01*
X94428087Y-120293543D01*
X94649243Y-120234284D01*
X94856749Y-120137523D01*
X95044300Y-120006198D01*
X95206198Y-119844300D01*
X95337523Y-119656749D01*
X95434284Y-119449243D01*
X95493543Y-119228087D01*
X95513498Y-119000000D01*
X95493543Y-118771913D01*
X95434284Y-118550757D01*
X95337523Y-118343251D01*
X95206198Y-118155700D01*
X95044300Y-117993802D01*
X94856749Y-117862477D01*
X94821847Y-117846202D01*
X94649246Y-117765717D01*
X94649240Y-117765715D01*
X94555771Y-117740670D01*
X94428087Y-117706457D01*
X94200000Y-117686502D01*
X93971913Y-117706457D01*
X93750759Y-117765715D01*
X93750753Y-117765717D01*
X93543250Y-117862477D01*
X93355703Y-117993799D01*
X93355697Y-117993804D01*
X93193804Y-118155697D01*
X93193799Y-118155703D01*
X93062477Y-118343250D01*
X92965717Y-118550753D01*
X92965716Y-118550757D01*
X92906457Y-118771913D01*
X92886502Y-119000000D01*
X91313498Y-119000000D01*
X91293543Y-118771913D01*
X91234284Y-118550757D01*
X91137523Y-118343251D01*
X91006198Y-118155700D01*
X90844300Y-117993802D01*
X90656749Y-117862477D01*
X90621847Y-117846202D01*
X90449246Y-117765717D01*
X90449240Y-117765715D01*
X90355771Y-117740670D01*
X90228087Y-117706457D01*
X90000000Y-117686502D01*
X89771913Y-117706457D01*
X89550759Y-117765715D01*
X89550753Y-117765717D01*
X89343250Y-117862477D01*
X89155703Y-117993799D01*
X89155697Y-117993804D01*
X88993804Y-118155697D01*
X88993799Y-118155703D01*
X88862477Y-118343250D01*
X88765717Y-118550753D01*
X88765716Y-118550757D01*
X88706457Y-118771913D01*
X88686502Y-119000000D01*
X87708500Y-119000000D01*
X87708500Y-118151362D01*
X87703892Y-118108499D01*
X87701990Y-118090803D01*
X87701988Y-118090795D01*
X87665811Y-117993804D01*
X87650889Y-117953796D01*
X87650888Y-117953794D01*
X87650887Y-117953792D01*
X87563261Y-117836738D01*
X87446207Y-117749112D01*
X87446202Y-117749110D01*
X87309204Y-117698011D01*
X87309196Y-117698009D01*
X87248649Y-117691500D01*
X87248638Y-117691500D01*
X85551362Y-117691500D01*
X85551350Y-117691500D01*
X85490803Y-117698009D01*
X85490795Y-117698011D01*
X85353797Y-117749110D01*
X85353792Y-117749112D01*
X85236738Y-117836738D01*
X85149112Y-117953792D01*
X85149110Y-117953797D01*
X85098011Y-118090795D01*
X85098009Y-118090803D01*
X85091500Y-118151350D01*
X83801848Y-118151350D01*
X83644300Y-117993802D01*
X83456749Y-117862477D01*
X83421847Y-117846202D01*
X83249246Y-117765717D01*
X83249240Y-117765715D01*
X83155771Y-117740670D01*
X83028087Y-117706457D01*
X82800000Y-117686502D01*
X82571913Y-117706457D01*
X82350759Y-117765715D01*
X82350753Y-117765717D01*
X82143250Y-117862477D01*
X81955703Y-117993799D01*
X81955697Y-117993804D01*
X81793804Y-118155697D01*
X81793799Y-118155703D01*
X81662477Y-118343250D01*
X81565717Y-118550753D01*
X81565716Y-118550757D01*
X81506457Y-118771913D01*
X81486502Y-119000000D01*
X80000000Y-119000000D01*
X80000000Y-115551350D01*
X100691500Y-115551350D01*
X100691500Y-117648649D01*
X100698009Y-117709196D01*
X100698011Y-117709204D01*
X100749110Y-117846202D01*
X100749112Y-117846207D01*
X100836738Y-117963261D01*
X100953792Y-118050887D01*
X100953794Y-118050888D01*
X100953796Y-118050889D01*
X101012875Y-118072924D01*
X101090795Y-118101988D01*
X101090803Y-118101990D01*
X101151350Y-118108499D01*
X101151355Y-118108499D01*
X101151362Y-118108500D01*
X101151368Y-118108500D01*
X103248632Y-118108500D01*
X103248638Y-118108500D01*
X103248645Y-118108499D01*
X103248649Y-118108499D01*
X103309196Y-118101990D01*
X103309199Y-118101989D01*
X103309201Y-118101989D01*
X103446204Y-118050889D01*
X103522461Y-117993804D01*
X103563261Y-117963261D01*
X103650887Y-117846207D01*
X103650887Y-117846206D01*
X103650889Y-117846204D01*
X103701989Y-117709201D01*
X103703193Y-117698009D01*
X103708499Y-117648649D01*
X103708500Y-117648632D01*
X103708500Y-115551367D01*
X103708499Y-115551350D01*
X103701990Y-115490803D01*
X103701988Y-115490795D01*
X103650889Y-115353797D01*
X103650887Y-115353792D01*
X103563261Y-115236738D01*
X103446207Y-115149112D01*
X103446202Y-115149110D01*
X103309204Y-115098011D01*
X103309196Y-115098009D01*
X103248649Y-115091500D01*
X103248638Y-115091500D01*
X101151362Y-115091500D01*
X101151350Y-115091500D01*
X101090803Y-115098009D01*
X101090795Y-115098011D01*
X100953797Y-115149110D01*
X100953792Y-115149112D01*
X100836738Y-115236738D01*
X100749112Y-115353792D01*
X100749110Y-115353797D01*
X100698011Y-115490795D01*
X100698009Y-115490803D01*
X100691500Y-115551350D01*
X80000000Y-115551350D01*
X80000000Y-110000000D01*
X97121673Y-110000000D01*
X97140950Y-110232633D01*
X97198249Y-110458903D01*
X97198252Y-110458910D01*
X97292015Y-110672668D01*
X97419685Y-110868083D01*
X97577774Y-111039813D01*
X97577778Y-111039817D01*
X97633965Y-111083549D01*
X97761983Y-111183190D01*
X97967273Y-111294287D01*
X98188049Y-111370080D01*
X98418288Y-111408500D01*
X98418292Y-111408500D01*
X98651708Y-111408500D01*
X98651712Y-111408500D01*
X98881951Y-111370080D01*
X99102727Y-111294287D01*
X99308017Y-111183190D01*
X99492220Y-111039818D01*
X99492225Y-111039813D01*
X99496054Y-111036289D01*
X99497431Y-111037785D01*
X99550780Y-111005690D01*
X99621745Y-111007790D01*
X99680310Y-111047924D01*
X99700741Y-111083549D01*
X99724111Y-111146204D01*
X99724112Y-111146207D01*
X99811738Y-111263261D01*
X99928792Y-111350887D01*
X99928794Y-111350888D01*
X99928796Y-111350889D01*
X99980243Y-111370078D01*
X100065795Y-111401988D01*
X100065803Y-111401990D01*
X100126350Y-111408499D01*
X100126355Y-111408499D01*
X100126362Y-111408500D01*
X100126368Y-111408500D01*
X102023632Y-111408500D01*
X102023638Y-111408500D01*
X102023645Y-111408499D01*
X102023649Y-111408499D01*
X102084196Y-111401990D01*
X102084199Y-111401989D01*
X102084201Y-111401989D01*
X102221204Y-111350889D01*
X102338261Y-111263261D01*
X102425889Y-111146204D01*
X102476989Y-111009201D01*
X102477367Y-111005690D01*
X102483499Y-110948649D01*
X102483500Y-110948632D01*
X102483500Y-110000000D01*
X106921673Y-110000000D01*
X106940950Y-110232633D01*
X106998249Y-110458903D01*
X106998252Y-110458910D01*
X107092015Y-110672668D01*
X107219685Y-110868083D01*
X107377774Y-111039813D01*
X107377778Y-111039817D01*
X107433965Y-111083549D01*
X107561983Y-111183190D01*
X107767273Y-111294287D01*
X107988049Y-111370080D01*
X108218288Y-111408500D01*
X108218292Y-111408500D01*
X108451708Y-111408500D01*
X108451712Y-111408500D01*
X108681951Y-111370080D01*
X108902727Y-111294287D01*
X109108017Y-111183190D01*
X109292220Y-111039818D01*
X109292225Y-111039813D01*
X109296054Y-111036289D01*
X109297431Y-111037785D01*
X109350780Y-111005690D01*
X109421745Y-111007790D01*
X109480310Y-111047924D01*
X109500741Y-111083549D01*
X109524111Y-111146204D01*
X109524112Y-111146207D01*
X109611738Y-111263261D01*
X109728792Y-111350887D01*
X109728794Y-111350888D01*
X109728796Y-111350889D01*
X109780243Y-111370078D01*
X109865795Y-111401988D01*
X109865803Y-111401990D01*
X109926350Y-111408499D01*
X109926355Y-111408499D01*
X109926362Y-111408500D01*
X109926368Y-111408500D01*
X111823632Y-111408500D01*
X111823638Y-111408500D01*
X111823645Y-111408499D01*
X111823649Y-111408499D01*
X111884196Y-111401990D01*
X111884199Y-111401989D01*
X111884201Y-111401989D01*
X112021204Y-111350889D01*
X112138261Y-111263261D01*
X112225889Y-111146204D01*
X112276989Y-111009201D01*
X112277367Y-111005690D01*
X112283499Y-110948649D01*
X112283500Y-110948632D01*
X112283500Y-110000000D01*
X117321673Y-110000000D01*
X117340950Y-110232633D01*
X117398249Y-110458903D01*
X117398252Y-110458910D01*
X117492015Y-110672668D01*
X117619685Y-110868083D01*
X117777774Y-111039813D01*
X117777778Y-111039817D01*
X117833965Y-111083549D01*
X117961983Y-111183190D01*
X118167273Y-111294287D01*
X118388049Y-111370080D01*
X118618288Y-111408500D01*
X118618292Y-111408500D01*
X118851708Y-111408500D01*
X118851712Y-111408500D01*
X119081951Y-111370080D01*
X119302727Y-111294287D01*
X119508017Y-111183190D01*
X119692220Y-111039818D01*
X119692225Y-111039813D01*
X119696054Y-111036289D01*
X119697431Y-111037785D01*
X119750780Y-111005690D01*
X119821745Y-111007790D01*
X119880310Y-111047924D01*
X119900741Y-111083549D01*
X119924111Y-111146204D01*
X119924112Y-111146207D01*
X120011738Y-111263261D01*
X120128792Y-111350887D01*
X120128794Y-111350888D01*
X120128796Y-111350889D01*
X120180243Y-111370078D01*
X120265795Y-111401988D01*
X120265803Y-111401990D01*
X120326350Y-111408499D01*
X120326355Y-111408499D01*
X120326362Y-111408500D01*
X120326368Y-111408500D01*
X122223632Y-111408500D01*
X122223638Y-111408500D01*
X122223645Y-111408499D01*
X122223649Y-111408499D01*
X122284196Y-111401990D01*
X122284199Y-111401989D01*
X122284201Y-111401989D01*
X122421204Y-111350889D01*
X122538261Y-111263261D01*
X122625889Y-111146204D01*
X122676989Y-111009201D01*
X122677367Y-111005690D01*
X122683499Y-110948649D01*
X122683500Y-110948632D01*
X122683500Y-109051367D01*
X122683499Y-109051350D01*
X122676990Y-108990803D01*
X122676988Y-108990795D01*
X122625889Y-108853797D01*
X122625887Y-108853792D01*
X122538261Y-108736738D01*
X122421207Y-108649112D01*
X122421202Y-108649110D01*
X122284204Y-108598011D01*
X122284196Y-108598009D01*
X122223649Y-108591500D01*
X122223638Y-108591500D01*
X120326362Y-108591500D01*
X120326350Y-108591500D01*
X120265803Y-108598009D01*
X120265795Y-108598011D01*
X120128797Y-108649110D01*
X120128792Y-108649112D01*
X120011738Y-108736738D01*
X119924112Y-108853792D01*
X119924112Y-108853793D01*
X119900741Y-108916451D01*
X119858193Y-108973286D01*
X119791672Y-108998095D01*
X119722298Y-108983002D01*
X119696705Y-108963002D01*
X119696054Y-108963711D01*
X119692221Y-108960182D01*
X119600118Y-108888496D01*
X119508017Y-108816810D01*
X119302727Y-108705713D01*
X119302724Y-108705712D01*
X119302723Y-108705711D01*
X119081955Y-108629921D01*
X119081948Y-108629919D01*
X118983411Y-108613476D01*
X118851712Y-108591500D01*
X118618288Y-108591500D01*
X118503066Y-108610727D01*
X118388051Y-108629919D01*
X118388044Y-108629921D01*
X118167276Y-108705711D01*
X118167273Y-108705713D01*
X117961985Y-108816809D01*
X117961983Y-108816810D01*
X117777778Y-108960182D01*
X117777774Y-108960186D01*
X117619685Y-109131916D01*
X117492015Y-109327331D01*
X117398252Y-109541089D01*
X117398249Y-109541096D01*
X117340950Y-109767366D01*
X117321673Y-110000000D01*
X112283500Y-110000000D01*
X112283500Y-109051367D01*
X112283499Y-109051350D01*
X112276990Y-108990803D01*
X112276988Y-108990795D01*
X112225889Y-108853797D01*
X112225887Y-108853792D01*
X112138261Y-108736738D01*
X112021207Y-108649112D01*
X112021202Y-108649110D01*
X111884204Y-108598011D01*
X111884196Y-108598009D01*
X111823649Y-108591500D01*
X111823638Y-108591500D01*
X109926362Y-108591500D01*
X109926350Y-108591500D01*
X109865803Y-108598009D01*
X109865795Y-108598011D01*
X109728797Y-108649110D01*
X109728792Y-108649112D01*
X109611738Y-108736738D01*
X109524112Y-108853792D01*
X109524112Y-108853793D01*
X109500741Y-108916451D01*
X109458193Y-108973286D01*
X109391672Y-108998095D01*
X109322298Y-108983002D01*
X109296705Y-108963002D01*
X109296054Y-108963711D01*
X109292221Y-108960182D01*
X109200118Y-108888496D01*
X109108017Y-108816810D01*
X108902727Y-108705713D01*
X108902724Y-108705712D01*
X108902723Y-108705711D01*
X108681955Y-108629921D01*
X108681948Y-108629919D01*
X108583411Y-108613476D01*
X108451712Y-108591500D01*
X108218288Y-108591500D01*
X108103066Y-108610727D01*
X107988051Y-108629919D01*
X107988044Y-108629921D01*
X107767276Y-108705711D01*
X107767273Y-108705713D01*
X107561985Y-108816809D01*
X107561983Y-108816810D01*
X107377778Y-108960182D01*
X107377774Y-108960186D01*
X107219685Y-109131916D01*
X107092015Y-109327331D01*
X106998252Y-109541089D01*
X106998249Y-109541096D01*
X106940950Y-109767366D01*
X106921673Y-110000000D01*
X102483500Y-110000000D01*
X102483500Y-109051367D01*
X102483499Y-109051350D01*
X102476990Y-108990803D01*
X102476988Y-108990795D01*
X102425889Y-108853797D01*
X102425887Y-108853792D01*
X102338261Y-108736738D01*
X102221207Y-108649112D01*
X102221202Y-108649110D01*
X102084204Y-108598011D01*
X102084196Y-108598009D01*
X102023649Y-108591500D01*
X102023638Y-108591500D01*
X100126362Y-108591500D01*
X100126350Y-108591500D01*
X100065803Y-108598009D01*
X100065795Y-108598011D01*
X99928797Y-108649110D01*
X99928792Y-108649112D01*
X99811738Y-108736738D01*
X99724112Y-108853792D01*
X99724112Y-108853793D01*
X99700741Y-108916451D01*
X99658193Y-108973286D01*
X99591672Y-108998095D01*
X99522298Y-108983002D01*
X99496705Y-108963002D01*
X99496054Y-108963711D01*
X99492221Y-108960182D01*
X99400118Y-108888496D01*
X99308017Y-108816810D01*
X99102727Y-108705713D01*
X99102724Y-108705712D01*
X99102723Y-108705711D01*
X98881955Y-108629921D01*
X98881948Y-108629919D01*
X98783411Y-108613476D01*
X98651712Y-108591500D01*
X98418288Y-108591500D01*
X98303066Y-108610727D01*
X98188051Y-108629919D01*
X98188044Y-108629921D01*
X97967276Y-108705711D01*
X97967273Y-108705713D01*
X97761985Y-108816809D01*
X97761983Y-108816810D01*
X97577778Y-108960182D01*
X97577774Y-108960186D01*
X97419685Y-109131916D01*
X97292015Y-109327331D01*
X97198252Y-109541089D01*
X97198249Y-109541096D01*
X97140950Y-109767366D01*
X97121673Y-110000000D01*
X80000000Y-110000000D01*
X80000000Y-106300000D01*
X81486502Y-106300000D01*
X81506457Y-106528087D01*
X81565716Y-106749243D01*
X81662477Y-106956749D01*
X81793802Y-107144300D01*
X81955700Y-107306198D01*
X82143251Y-107437523D01*
X82350757Y-107534284D01*
X82571913Y-107593543D01*
X82800000Y-107613498D01*
X83028087Y-107593543D01*
X83249243Y-107534284D01*
X83456749Y-107437523D01*
X83644300Y-107306198D01*
X83806198Y-107144300D01*
X83937523Y-106956749D01*
X84034284Y-106749243D01*
X84093543Y-106528087D01*
X84113498Y-106300000D01*
X85086502Y-106300000D01*
X85106457Y-106528087D01*
X85165716Y-106749243D01*
X85262477Y-106956749D01*
X85393802Y-107144300D01*
X85555700Y-107306198D01*
X85743251Y-107437523D01*
X85950757Y-107534284D01*
X86171913Y-107593543D01*
X86400000Y-107613498D01*
X86628087Y-107593543D01*
X86849243Y-107534284D01*
X87056749Y-107437523D01*
X87244300Y-107306198D01*
X87406198Y-107144300D01*
X87537523Y-106956749D01*
X87634284Y-106749243D01*
X87693543Y-106528087D01*
X87713498Y-106300000D01*
X88686502Y-106300000D01*
X88706457Y-106528087D01*
X88765716Y-106749243D01*
X88862477Y-106956749D01*
X88993802Y-107144300D01*
X89155700Y-107306198D01*
X89343251Y-107437523D01*
X89550757Y-107534284D01*
X89771913Y-107593543D01*
X90000000Y-107613498D01*
X90228087Y-107593543D01*
X90449243Y-107534284D01*
X90656749Y-107437523D01*
X90844300Y-107306198D01*
X91006198Y-107144300D01*
X91137523Y-106956749D01*
X91234284Y-106749243D01*
X91293543Y-106528087D01*
X91313498Y-106300000D01*
X92886502Y-106300000D01*
X92906457Y-106528087D01*
X92965716Y-106749243D01*
X93062477Y-106956749D01*
X93193802Y-107144300D01*
X93355700Y-107306198D01*
X93543251Y-107437523D01*
X93750757Y-107534284D01*
X93971913Y-107593543D01*
X94200000Y-107613498D01*
X94428087Y-107593543D01*
X94649243Y-107534284D01*
X94856749Y-107437523D01*
X95044300Y-107306198D01*
X95206198Y-107144300D01*
X95337523Y-106956749D01*
X95434284Y-106749243D01*
X95493543Y-106528087D01*
X95513498Y-106300000D01*
X95493543Y-106071913D01*
X95434284Y-105850757D01*
X95337523Y-105643251D01*
X95206198Y-105455700D01*
X95044300Y-105293802D01*
X94856749Y-105162477D01*
X94649246Y-105065717D01*
X94649240Y-105065715D01*
X94555771Y-105040670D01*
X94428087Y-105006457D01*
X94200000Y-104986502D01*
X93971913Y-105006457D01*
X93750759Y-105065715D01*
X93750753Y-105065717D01*
X93543250Y-105162477D01*
X93355703Y-105293799D01*
X93355697Y-105293804D01*
X93193804Y-105455697D01*
X93193799Y-105455703D01*
X93062477Y-105643250D01*
X92965717Y-105850753D01*
X92965716Y-105850757D01*
X92906457Y-106071913D01*
X92886502Y-106300000D01*
X91313498Y-106300000D01*
X91293543Y-106071913D01*
X91234284Y-105850757D01*
X91137523Y-105643251D01*
X91006198Y-105455700D01*
X90844300Y-105293802D01*
X90656749Y-105162477D01*
X90449246Y-105065717D01*
X90449240Y-105065715D01*
X90355771Y-105040670D01*
X90228087Y-105006457D01*
X90000000Y-104986502D01*
X89771913Y-105006457D01*
X89550759Y-105065715D01*
X89550753Y-105065717D01*
X89343250Y-105162477D01*
X89155703Y-105293799D01*
X89155697Y-105293804D01*
X88993804Y-105455697D01*
X88993799Y-105455703D01*
X88862477Y-105643250D01*
X88765717Y-105850753D01*
X88765716Y-105850757D01*
X88706457Y-106071913D01*
X88686502Y-106300000D01*
X87713498Y-106300000D01*
X87693543Y-106071913D01*
X87634284Y-105850757D01*
X87537523Y-105643251D01*
X87406198Y-105455700D01*
X87244300Y-105293802D01*
X87056749Y-105162477D01*
X86849246Y-105065717D01*
X86849240Y-105065715D01*
X86755771Y-105040670D01*
X86628087Y-105006457D01*
X86400000Y-104986502D01*
X86171913Y-105006457D01*
X85950759Y-105065715D01*
X85950753Y-105065717D01*
X85743250Y-105162477D01*
X85555703Y-105293799D01*
X85555697Y-105293804D01*
X85393804Y-105455697D01*
X85393799Y-105455703D01*
X85262477Y-105643250D01*
X85165717Y-105850753D01*
X85165716Y-105850757D01*
X85106457Y-106071913D01*
X85086502Y-106300000D01*
X84113498Y-106300000D01*
X84093543Y-106071913D01*
X84034284Y-105850757D01*
X83937523Y-105643251D01*
X83806198Y-105455700D01*
X83644300Y-105293802D01*
X83456749Y-105162477D01*
X83249246Y-105065717D01*
X83249240Y-105065715D01*
X83155771Y-105040670D01*
X83028087Y-105006457D01*
X82800000Y-104986502D01*
X82571913Y-105006457D01*
X82350759Y-105065715D01*
X82350753Y-105065717D01*
X82143250Y-105162477D01*
X81955703Y-105293799D01*
X81955697Y-105293804D01*
X81793804Y-105455697D01*
X81793799Y-105455703D01*
X81662477Y-105643250D01*
X81565717Y-105850753D01*
X81565716Y-105850757D01*
X81506457Y-106071913D01*
X81486502Y-106300000D01*
X80000000Y-106300000D01*
X80000000Y-87051350D01*
X82471500Y-87051350D01*
X82471500Y-88748649D01*
X82478009Y-88809196D01*
X82478011Y-88809204D01*
X82529110Y-88946202D01*
X82529112Y-88946207D01*
X82616738Y-89063261D01*
X82733792Y-89150887D01*
X82733794Y-89150888D01*
X82733796Y-89150889D01*
X82770567Y-89164604D01*
X82870795Y-89201988D01*
X82870798Y-89201988D01*
X82870799Y-89201989D01*
X82870804Y-89201990D01*
X82882728Y-89203272D01*
X82948321Y-89230440D01*
X82988813Y-89288757D01*
X82991349Y-89359708D01*
X82955122Y-89420767D01*
X82943326Y-89430484D01*
X82927567Y-89441933D01*
X82781936Y-89587564D01*
X82781934Y-89587567D01*
X82660873Y-89754193D01*
X82567367Y-89937708D01*
X82567364Y-89937714D01*
X82503721Y-90133587D01*
X82503720Y-90133590D01*
X82503720Y-90133592D01*
X82471500Y-90337019D01*
X82471500Y-90542981D01*
X82501109Y-90729920D01*
X82503721Y-90746412D01*
X82549390Y-90886968D01*
X82567366Y-90942290D01*
X82660871Y-91125803D01*
X82781932Y-91292430D01*
X82781934Y-91292432D01*
X82781936Y-91292435D01*
X82927564Y-91438063D01*
X82927567Y-91438065D01*
X82927570Y-91438068D01*
X83094197Y-91559129D01*
X83169962Y-91597733D01*
X83221577Y-91646482D01*
X83238643Y-91715397D01*
X83215742Y-91782598D01*
X83169963Y-91822266D01*
X83101033Y-91857387D01*
X83094193Y-91860873D01*
X82927567Y-91981934D01*
X82927564Y-91981936D01*
X82781936Y-92127564D01*
X82781934Y-92127567D01*
X82660873Y-92294193D01*
X82567367Y-92477708D01*
X82567364Y-92477714D01*
X82503721Y-92673587D01*
X82503720Y-92673590D01*
X82503720Y-92673592D01*
X82471500Y-92877019D01*
X82471500Y-93082981D01*
X82503720Y-93286408D01*
X82567366Y-93482290D01*
X82660871Y-93665803D01*
X82781932Y-93832430D01*
X82781934Y-93832432D01*
X82781936Y-93832435D01*
X82927564Y-93978063D01*
X82927567Y-93978065D01*
X82927570Y-93978068D01*
X83094197Y-94099129D01*
X83169962Y-94137733D01*
X83221577Y-94186482D01*
X83238643Y-94255397D01*
X83215742Y-94322598D01*
X83169963Y-94362266D01*
X83101033Y-94397387D01*
X83094193Y-94400873D01*
X82927567Y-94521934D01*
X82927564Y-94521936D01*
X82781936Y-94667564D01*
X82781934Y-94667567D01*
X82660873Y-94834193D01*
X82567367Y-95017708D01*
X82567364Y-95017714D01*
X82503721Y-95213587D01*
X82503720Y-95213590D01*
X82503720Y-95213592D01*
X82471500Y-95417019D01*
X82471500Y-95622981D01*
X82502592Y-95819284D01*
X82503721Y-95826412D01*
X82541770Y-95943516D01*
X82567366Y-96022290D01*
X82660871Y-96205803D01*
X82781932Y-96372430D01*
X82781934Y-96372432D01*
X82781936Y-96372435D01*
X82927564Y-96518063D01*
X82927567Y-96518065D01*
X82927570Y-96518068D01*
X83094197Y-96639129D01*
X83169962Y-96677733D01*
X83221577Y-96726482D01*
X83238643Y-96795397D01*
X83215742Y-96862598D01*
X83169963Y-96902266D01*
X83101033Y-96937387D01*
X83094193Y-96940873D01*
X82927567Y-97061934D01*
X82927564Y-97061936D01*
X82781936Y-97207564D01*
X82781934Y-97207567D01*
X82660873Y-97374193D01*
X82567367Y-97557708D01*
X82567364Y-97557714D01*
X82503721Y-97753587D01*
X82503720Y-97753590D01*
X82503720Y-97753592D01*
X82471500Y-97957019D01*
X82471500Y-98162981D01*
X82503720Y-98366408D01*
X82503721Y-98366412D01*
X82554246Y-98521913D01*
X82567366Y-98562290D01*
X82660871Y-98745803D01*
X82781932Y-98912430D01*
X82781934Y-98912432D01*
X82781936Y-98912435D01*
X82927564Y-99058063D01*
X82927567Y-99058065D01*
X82927570Y-99058068D01*
X83094197Y-99179129D01*
X83169962Y-99217733D01*
X83221577Y-99266482D01*
X83238643Y-99335397D01*
X83215742Y-99402598D01*
X83169963Y-99442266D01*
X83101033Y-99477387D01*
X83094193Y-99480873D01*
X82927567Y-99601934D01*
X82927564Y-99601936D01*
X82781936Y-99747564D01*
X82781934Y-99747567D01*
X82660873Y-99914193D01*
X82567367Y-100097708D01*
X82567364Y-100097714D01*
X82503721Y-100293587D01*
X82503720Y-100293590D01*
X82503720Y-100293592D01*
X82471500Y-100497019D01*
X82471500Y-100702981D01*
X82503720Y-100906408D01*
X82567366Y-101102290D01*
X82660871Y-101285803D01*
X82781932Y-101452430D01*
X82781934Y-101452432D01*
X82781936Y-101452435D01*
X82927564Y-101598063D01*
X82927567Y-101598065D01*
X82927570Y-101598068D01*
X83094197Y-101719129D01*
X83170511Y-101758013D01*
X83222126Y-101806760D01*
X83239192Y-101875675D01*
X83216292Y-101942876D01*
X83170513Y-101982545D01*
X83094455Y-102021299D01*
X82927892Y-102142315D01*
X82927889Y-102142317D01*
X82782317Y-102287889D01*
X82782315Y-102287892D01*
X82661300Y-102454454D01*
X82567829Y-102637900D01*
X82567826Y-102637906D01*
X82504208Y-102833704D01*
X82495926Y-102886000D01*
X83868314Y-102886000D01*
X83859920Y-102894394D01*
X83807259Y-102985606D01*
X83780000Y-103087339D01*
X83780000Y-103192661D01*
X83807259Y-103294394D01*
X83859920Y-103385606D01*
X83868314Y-103394000D01*
X82495926Y-103394000D01*
X82504208Y-103446295D01*
X82567826Y-103642093D01*
X82567829Y-103642099D01*
X82661300Y-103825545D01*
X82782315Y-103992107D01*
X82782317Y-103992110D01*
X82927889Y-104137682D01*
X82927892Y-104137684D01*
X83094454Y-104258699D01*
X83277900Y-104352170D01*
X83277906Y-104352173D01*
X83473705Y-104415791D01*
X83473701Y-104415791D01*
X83677061Y-104448000D01*
X83926000Y-104448000D01*
X83926000Y-103451686D01*
X83934394Y-103460080D01*
X84025606Y-103512741D01*
X84127339Y-103540000D01*
X84232661Y-103540000D01*
X84334394Y-103512741D01*
X84425606Y-103460080D01*
X84434000Y-103451686D01*
X84434000Y-104448000D01*
X84682939Y-104448000D01*
X84886296Y-104415791D01*
X85082093Y-104352173D01*
X85082099Y-104352170D01*
X85265545Y-104258699D01*
X85432107Y-104137684D01*
X85432110Y-104137682D01*
X85577682Y-103992110D01*
X85577684Y-103992107D01*
X85698699Y-103825545D01*
X85792170Y-103642099D01*
X85792173Y-103642093D01*
X85855791Y-103446295D01*
X85864074Y-103394000D01*
X84491686Y-103394000D01*
X84500080Y-103385606D01*
X84552741Y-103294394D01*
X84580000Y-103192661D01*
X84580000Y-103087339D01*
X84552741Y-102985606D01*
X84500080Y-102894394D01*
X84491686Y-102886000D01*
X85864074Y-102886000D01*
X85855791Y-102833704D01*
X85792173Y-102637906D01*
X85792170Y-102637900D01*
X85698699Y-102454454D01*
X85577684Y-102287892D01*
X85577682Y-102287889D01*
X85432110Y-102142317D01*
X85432107Y-102142315D01*
X85265542Y-102021298D01*
X85189487Y-101982545D01*
X85137872Y-101933797D01*
X85120807Y-101864882D01*
X85143708Y-101797680D01*
X85189485Y-101758014D01*
X85265803Y-101719129D01*
X85432430Y-101598068D01*
X85578068Y-101452430D01*
X85699129Y-101285803D01*
X85792634Y-101102290D01*
X85856280Y-100906408D01*
X85888500Y-100702981D01*
X85888500Y-100497019D01*
X85856280Y-100293592D01*
X85792634Y-100097710D01*
X85699129Y-99914197D01*
X85578068Y-99747570D01*
X85578065Y-99747567D01*
X85578063Y-99747564D01*
X85432435Y-99601936D01*
X85432432Y-99601934D01*
X85432430Y-99601932D01*
X85265803Y-99480871D01*
X85190034Y-99442265D01*
X85138422Y-99393519D01*
X85121356Y-99324604D01*
X85144257Y-99257402D01*
X85190034Y-99217735D01*
X85265803Y-99179129D01*
X85432430Y-99058068D01*
X85578068Y-98912430D01*
X85699129Y-98745803D01*
X85792634Y-98562290D01*
X85856280Y-98366408D01*
X85888500Y-98162981D01*
X85888500Y-97957019D01*
X85856280Y-97753592D01*
X85792634Y-97557710D01*
X85699129Y-97374197D01*
X85578068Y-97207570D01*
X85578065Y-97207567D01*
X85578063Y-97207564D01*
X85432435Y-97061936D01*
X85432432Y-97061934D01*
X85432430Y-97061932D01*
X85265803Y-96940871D01*
X85190034Y-96902265D01*
X85138422Y-96853519D01*
X85121356Y-96784604D01*
X85144257Y-96717402D01*
X85190034Y-96677735D01*
X85265803Y-96639129D01*
X85432430Y-96518068D01*
X85578068Y-96372430D01*
X85699129Y-96205803D01*
X85792634Y-96022290D01*
X85856280Y-95826408D01*
X85888500Y-95622981D01*
X85888500Y-95417019D01*
X85856280Y-95213592D01*
X85792634Y-95017710D01*
X85699129Y-94834197D01*
X85578068Y-94667570D01*
X85578065Y-94667567D01*
X85578063Y-94667564D01*
X85432435Y-94521936D01*
X85432432Y-94521934D01*
X85432430Y-94521932D01*
X85265803Y-94400871D01*
X85190034Y-94362265D01*
X85138422Y-94313519D01*
X85121356Y-94244604D01*
X85144257Y-94177402D01*
X85190034Y-94137735D01*
X85265803Y-94099129D01*
X85432430Y-93978068D01*
X85578068Y-93832430D01*
X85699129Y-93665803D01*
X85792634Y-93482290D01*
X85856280Y-93286408D01*
X85888500Y-93082981D01*
X85888500Y-92877019D01*
X85856280Y-92673592D01*
X85792634Y-92477710D01*
X85699129Y-92294197D01*
X85578068Y-92127570D01*
X85578065Y-92127567D01*
X85578063Y-92127564D01*
X85432435Y-91981936D01*
X85432432Y-91981934D01*
X85432430Y-91981932D01*
X85265803Y-91860871D01*
X85190034Y-91822265D01*
X85138422Y-91773519D01*
X85121356Y-91704604D01*
X85144257Y-91637402D01*
X85190034Y-91597735D01*
X85265803Y-91559129D01*
X85432430Y-91438068D01*
X85578068Y-91292430D01*
X85699129Y-91125803D01*
X85792634Y-90942290D01*
X85856280Y-90746408D01*
X85888500Y-90542981D01*
X85888500Y-90337019D01*
X85856280Y-90133592D01*
X85792634Y-89937710D01*
X85699129Y-89754197D01*
X85578068Y-89587570D01*
X85578065Y-89587567D01*
X85578063Y-89587564D01*
X85432436Y-89441937D01*
X85432432Y-89441934D01*
X85432430Y-89441932D01*
X85416673Y-89430484D01*
X85373322Y-89374263D01*
X85367247Y-89303527D01*
X85400379Y-89240735D01*
X85462199Y-89205824D01*
X85477271Y-89203272D01*
X85489196Y-89201990D01*
X85489199Y-89201989D01*
X85489201Y-89201989D01*
X85626204Y-89150889D01*
X85743261Y-89063261D01*
X85830889Y-88946204D01*
X85881989Y-88809201D01*
X85888093Y-88752430D01*
X85888499Y-88748649D01*
X85888500Y-88748632D01*
X85888500Y-87797019D01*
X90091500Y-87797019D01*
X90091500Y-88002981D01*
X90123720Y-88206408D01*
X90187366Y-88402290D01*
X90280871Y-88585803D01*
X90401932Y-88752430D01*
X90401934Y-88752432D01*
X90401936Y-88752435D01*
X90547564Y-88898063D01*
X90547567Y-88898065D01*
X90547570Y-88898068D01*
X90714197Y-89019129D01*
X90789962Y-89057733D01*
X90841577Y-89106482D01*
X90858643Y-89175397D01*
X90835742Y-89242598D01*
X90789963Y-89282266D01*
X90721033Y-89317387D01*
X90714193Y-89320873D01*
X90547567Y-89441934D01*
X90547564Y-89441936D01*
X90401936Y-89587564D01*
X90401934Y-89587567D01*
X90280873Y-89754193D01*
X90187367Y-89937708D01*
X90187364Y-89937714D01*
X90123721Y-90133587D01*
X90123720Y-90133590D01*
X90123720Y-90133592D01*
X90091500Y-90337019D01*
X90091500Y-90542981D01*
X90121109Y-90729920D01*
X90123721Y-90746412D01*
X90169390Y-90886968D01*
X90187366Y-90942290D01*
X90280871Y-91125803D01*
X90401932Y-91292430D01*
X90401934Y-91292432D01*
X90401936Y-91292435D01*
X90547564Y-91438063D01*
X90547567Y-91438065D01*
X90547570Y-91438068D01*
X90714197Y-91559129D01*
X90789962Y-91597733D01*
X90841577Y-91646482D01*
X90858643Y-91715397D01*
X90835742Y-91782598D01*
X90789963Y-91822266D01*
X90721033Y-91857387D01*
X90714193Y-91860873D01*
X90547567Y-91981934D01*
X90547564Y-91981936D01*
X90401936Y-92127564D01*
X90401934Y-92127567D01*
X90280873Y-92294193D01*
X90187367Y-92477708D01*
X90187364Y-92477714D01*
X90123721Y-92673587D01*
X90123720Y-92673590D01*
X90123720Y-92673592D01*
X90091500Y-92877019D01*
X90091500Y-93082981D01*
X90123720Y-93286408D01*
X90187366Y-93482290D01*
X90280871Y-93665803D01*
X90401932Y-93832430D01*
X90401934Y-93832432D01*
X90401936Y-93832435D01*
X90547564Y-93978063D01*
X90547567Y-93978065D01*
X90547570Y-93978068D01*
X90714197Y-94099129D01*
X90789962Y-94137733D01*
X90841577Y-94186482D01*
X90858643Y-94255397D01*
X90835742Y-94322598D01*
X90789963Y-94362266D01*
X90721033Y-94397387D01*
X90714193Y-94400873D01*
X90547567Y-94521934D01*
X90547564Y-94521936D01*
X90401936Y-94667564D01*
X90401934Y-94667567D01*
X90280873Y-94834193D01*
X90187367Y-95017708D01*
X90187364Y-95017714D01*
X90123721Y-95213587D01*
X90123720Y-95213590D01*
X90123720Y-95213592D01*
X90091500Y-95417019D01*
X90091500Y-95622981D01*
X90122592Y-95819284D01*
X90123721Y-95826412D01*
X90161770Y-95943516D01*
X90187366Y-96022290D01*
X90280871Y-96205803D01*
X90401932Y-96372430D01*
X90401934Y-96372432D01*
X90401936Y-96372435D01*
X90547564Y-96518063D01*
X90547567Y-96518065D01*
X90547570Y-96518068D01*
X90714197Y-96639129D01*
X90789962Y-96677733D01*
X90841577Y-96726482D01*
X90858643Y-96795397D01*
X90835742Y-96862598D01*
X90789963Y-96902266D01*
X90721033Y-96937387D01*
X90714193Y-96940873D01*
X90547567Y-97061934D01*
X90547564Y-97061936D01*
X90401936Y-97207564D01*
X90401934Y-97207567D01*
X90280873Y-97374193D01*
X90187367Y-97557708D01*
X90187364Y-97557714D01*
X90123721Y-97753587D01*
X90123720Y-97753590D01*
X90123720Y-97753592D01*
X90091500Y-97957019D01*
X90091500Y-98162981D01*
X90123720Y-98366408D01*
X90123721Y-98366412D01*
X90174246Y-98521913D01*
X90187366Y-98562290D01*
X90280871Y-98745803D01*
X90401932Y-98912430D01*
X90401934Y-98912432D01*
X90401936Y-98912435D01*
X90547564Y-99058063D01*
X90547567Y-99058065D01*
X90547570Y-99058068D01*
X90714197Y-99179129D01*
X90789962Y-99217733D01*
X90841577Y-99266482D01*
X90858643Y-99335397D01*
X90835742Y-99402598D01*
X90789963Y-99442266D01*
X90721033Y-99477387D01*
X90714193Y-99480873D01*
X90547567Y-99601934D01*
X90547564Y-99601936D01*
X90401936Y-99747564D01*
X90401934Y-99747567D01*
X90280873Y-99914193D01*
X90187367Y-100097708D01*
X90187364Y-100097714D01*
X90123721Y-100293587D01*
X90123720Y-100293590D01*
X90123720Y-100293592D01*
X90091500Y-100497019D01*
X90091500Y-100702981D01*
X90123720Y-100906408D01*
X90187366Y-101102290D01*
X90280871Y-101285803D01*
X90401932Y-101452430D01*
X90401934Y-101452432D01*
X90401936Y-101452435D01*
X90547564Y-101598063D01*
X90547567Y-101598065D01*
X90547570Y-101598068D01*
X90714197Y-101719129D01*
X90789962Y-101757733D01*
X90841577Y-101806482D01*
X90858643Y-101875397D01*
X90835742Y-101942598D01*
X90789963Y-101982266D01*
X90789416Y-101982545D01*
X90714193Y-102020873D01*
X90547567Y-102141934D01*
X90547564Y-102141936D01*
X90401936Y-102287564D01*
X90401934Y-102287567D01*
X90280873Y-102454193D01*
X90187367Y-102637708D01*
X90187364Y-102637714D01*
X90123721Y-102833587D01*
X90123720Y-102833590D01*
X90123720Y-102833592D01*
X90091500Y-103037019D01*
X90091500Y-103242981D01*
X90123720Y-103446408D01*
X90187366Y-103642290D01*
X90280871Y-103825803D01*
X90401932Y-103992430D01*
X90401934Y-103992432D01*
X90401936Y-103992435D01*
X90547564Y-104138063D01*
X90547567Y-104138065D01*
X90547570Y-104138068D01*
X90714197Y-104259129D01*
X90897710Y-104352634D01*
X91093592Y-104416280D01*
X91297019Y-104448500D01*
X91297022Y-104448500D01*
X92302978Y-104448500D01*
X92302981Y-104448500D01*
X92506408Y-104416280D01*
X92702290Y-104352634D01*
X92885803Y-104259129D01*
X93052430Y-104138068D01*
X93198068Y-103992430D01*
X93319129Y-103825803D01*
X93357753Y-103750000D01*
X100686502Y-103750000D01*
X100706457Y-103978087D01*
X100710300Y-103992430D01*
X100765715Y-104199240D01*
X100765717Y-104199246D01*
X100837028Y-104352173D01*
X100862477Y-104406749D01*
X100993802Y-104594300D01*
X101155700Y-104756198D01*
X101343251Y-104887523D01*
X101550757Y-104984284D01*
X101771913Y-105043543D01*
X102000000Y-105063498D01*
X102228087Y-105043543D01*
X102449243Y-104984284D01*
X102656749Y-104887523D01*
X102844300Y-104756198D01*
X103006198Y-104594300D01*
X103137523Y-104406749D01*
X103234284Y-104199243D01*
X103293543Y-103978087D01*
X103313498Y-103750000D01*
X110686502Y-103750000D01*
X110706457Y-103978087D01*
X110710300Y-103992430D01*
X110765715Y-104199240D01*
X110765717Y-104199246D01*
X110837028Y-104352173D01*
X110862477Y-104406749D01*
X110993802Y-104594300D01*
X111155700Y-104756198D01*
X111343251Y-104887523D01*
X111550757Y-104984284D01*
X111771913Y-105043543D01*
X112000000Y-105063498D01*
X112228087Y-105043543D01*
X112449243Y-104984284D01*
X112656749Y-104887523D01*
X112844300Y-104756198D01*
X113006198Y-104594300D01*
X113137523Y-104406749D01*
X113234284Y-104199243D01*
X113293543Y-103978087D01*
X113313498Y-103750000D01*
X120686502Y-103750000D01*
X120706457Y-103978087D01*
X120710300Y-103992430D01*
X120765715Y-104199240D01*
X120765717Y-104199246D01*
X120837028Y-104352173D01*
X120862477Y-104406749D01*
X120993802Y-104594300D01*
X121155700Y-104756198D01*
X121343251Y-104887523D01*
X121550757Y-104984284D01*
X121771913Y-105043543D01*
X122000000Y-105063498D01*
X122228087Y-105043543D01*
X122449243Y-104984284D01*
X122656749Y-104887523D01*
X122844300Y-104756198D01*
X123006198Y-104594300D01*
X123137523Y-104406749D01*
X123234284Y-104199243D01*
X123293543Y-103978087D01*
X123313498Y-103750000D01*
X123293543Y-103521913D01*
X123234284Y-103300757D01*
X123137523Y-103093251D01*
X123006198Y-102905700D01*
X122844300Y-102743802D01*
X122692782Y-102637708D01*
X122656749Y-102612477D01*
X122449246Y-102515717D01*
X122449240Y-102515715D01*
X122355771Y-102490670D01*
X122228087Y-102456457D01*
X122000000Y-102436502D01*
X121771913Y-102456457D01*
X121550759Y-102515715D01*
X121550753Y-102515717D01*
X121343250Y-102612477D01*
X121155703Y-102743799D01*
X121155697Y-102743804D01*
X120993804Y-102905697D01*
X120993799Y-102905703D01*
X120862477Y-103093250D01*
X120765717Y-103300753D01*
X120765715Y-103300759D01*
X120723025Y-103460080D01*
X120706457Y-103521913D01*
X120686502Y-103750000D01*
X113313498Y-103750000D01*
X113293543Y-103521913D01*
X113234284Y-103300757D01*
X113137523Y-103093251D01*
X113006198Y-102905700D01*
X112844300Y-102743802D01*
X112692782Y-102637708D01*
X112656749Y-102612477D01*
X112449246Y-102515717D01*
X112449240Y-102515715D01*
X112355771Y-102490670D01*
X112228087Y-102456457D01*
X112000000Y-102436502D01*
X111771913Y-102456457D01*
X111550759Y-102515715D01*
X111550753Y-102515717D01*
X111343250Y-102612477D01*
X111155703Y-102743799D01*
X111155697Y-102743804D01*
X110993804Y-102905697D01*
X110993799Y-102905703D01*
X110862477Y-103093250D01*
X110765717Y-103300753D01*
X110765715Y-103300759D01*
X110723025Y-103460080D01*
X110706457Y-103521913D01*
X110686502Y-103750000D01*
X103313498Y-103750000D01*
X103293543Y-103521913D01*
X103234284Y-103300757D01*
X103137523Y-103093251D01*
X103006198Y-102905700D01*
X102844300Y-102743802D01*
X102692782Y-102637708D01*
X102656749Y-102612477D01*
X102449246Y-102515717D01*
X102449240Y-102515715D01*
X102355771Y-102490670D01*
X102228087Y-102456457D01*
X102000000Y-102436502D01*
X101771913Y-102456457D01*
X101550759Y-102515715D01*
X101550753Y-102515717D01*
X101343250Y-102612477D01*
X101155703Y-102743799D01*
X101155697Y-102743804D01*
X100993804Y-102905697D01*
X100993799Y-102905703D01*
X100862477Y-103093250D01*
X100765717Y-103300753D01*
X100765715Y-103300759D01*
X100723025Y-103460080D01*
X100706457Y-103521913D01*
X100686502Y-103750000D01*
X93357753Y-103750000D01*
X93412634Y-103642290D01*
X93476280Y-103446408D01*
X93508500Y-103242981D01*
X93508500Y-103037019D01*
X93476280Y-102833592D01*
X93412634Y-102637710D01*
X93319129Y-102454197D01*
X93198068Y-102287570D01*
X93198065Y-102287567D01*
X93198063Y-102287564D01*
X93052435Y-102141936D01*
X93052432Y-102141934D01*
X93052430Y-102141932D01*
X92885803Y-102020871D01*
X92810034Y-101982265D01*
X92758422Y-101933519D01*
X92741356Y-101864604D01*
X92764257Y-101797402D01*
X92810034Y-101757735D01*
X92885803Y-101719129D01*
X93052430Y-101598068D01*
X93198068Y-101452430D01*
X93319129Y-101285803D01*
X93412634Y-101102290D01*
X93476280Y-100906408D01*
X93508500Y-100702981D01*
X93508500Y-100497019D01*
X93476280Y-100293592D01*
X93412634Y-100097710D01*
X93319129Y-99914197D01*
X93198068Y-99747570D01*
X93198065Y-99747567D01*
X93198063Y-99747564D01*
X93052435Y-99601936D01*
X93052432Y-99601934D01*
X93052430Y-99601932D01*
X92885803Y-99480871D01*
X92810034Y-99442265D01*
X92758422Y-99393519D01*
X92741356Y-99324604D01*
X92764257Y-99257402D01*
X92810034Y-99217735D01*
X92885803Y-99179129D01*
X93052430Y-99058068D01*
X93160498Y-98950000D01*
X96086502Y-98950000D01*
X96106457Y-99178087D01*
X96106736Y-99179129D01*
X96165715Y-99399240D01*
X96165717Y-99399246D01*
X96262477Y-99606749D01*
X96367122Y-99756198D01*
X96393802Y-99794300D01*
X96555700Y-99956198D01*
X96743251Y-100087523D01*
X96950757Y-100184284D01*
X97171913Y-100243543D01*
X97400000Y-100263498D01*
X97628087Y-100243543D01*
X97849243Y-100184284D01*
X98056749Y-100087523D01*
X98244300Y-99956198D01*
X98406198Y-99794300D01*
X98537523Y-99606749D01*
X98634284Y-99399243D01*
X98693543Y-99178087D01*
X98713498Y-98950000D01*
X105886502Y-98950000D01*
X105906457Y-99178087D01*
X105906736Y-99179129D01*
X105965715Y-99399240D01*
X105965717Y-99399246D01*
X106062477Y-99606749D01*
X106167122Y-99756198D01*
X106193802Y-99794300D01*
X106355700Y-99956198D01*
X106543251Y-100087523D01*
X106750757Y-100184284D01*
X106971913Y-100243543D01*
X107200000Y-100263498D01*
X107428087Y-100243543D01*
X107649243Y-100184284D01*
X107856749Y-100087523D01*
X108044300Y-99956198D01*
X108206198Y-99794300D01*
X108337523Y-99606749D01*
X108434284Y-99399243D01*
X108493543Y-99178087D01*
X108513498Y-98950000D01*
X108496000Y-98750000D01*
X116086502Y-98750000D01*
X116106457Y-98978086D01*
X116165715Y-99199240D01*
X116165717Y-99199246D01*
X116229205Y-99335397D01*
X116262477Y-99406749D01*
X116393802Y-99594300D01*
X116555700Y-99756198D01*
X116743251Y-99887523D01*
X116950757Y-99984284D01*
X117171913Y-100043543D01*
X117400000Y-100063498D01*
X117628087Y-100043543D01*
X117849243Y-99984284D01*
X118056749Y-99887523D01*
X118244300Y-99756198D01*
X118406198Y-99594300D01*
X118537523Y-99406749D01*
X118634284Y-99199243D01*
X118693543Y-98978087D01*
X118713498Y-98750000D01*
X118693543Y-98521913D01*
X118634284Y-98300757D01*
X118537523Y-98093251D01*
X118406198Y-97905700D01*
X118244300Y-97743802D01*
X118056749Y-97612477D01*
X117939309Y-97557714D01*
X117849246Y-97515717D01*
X117849240Y-97515715D01*
X117755771Y-97490670D01*
X117628087Y-97456457D01*
X117400000Y-97436502D01*
X117171913Y-97456457D01*
X116950759Y-97515715D01*
X116950753Y-97515717D01*
X116743250Y-97612477D01*
X116555703Y-97743799D01*
X116555697Y-97743804D01*
X116393804Y-97905697D01*
X116393799Y-97905703D01*
X116262477Y-98093250D01*
X116165717Y-98300753D01*
X116165715Y-98300759D01*
X116106457Y-98521913D01*
X116086502Y-98750000D01*
X108496000Y-98750000D01*
X108493543Y-98721913D01*
X108434284Y-98500757D01*
X108337523Y-98293251D01*
X108206198Y-98105700D01*
X108044300Y-97943802D01*
X107856749Y-97812477D01*
X107730469Y-97753592D01*
X107649246Y-97715717D01*
X107649240Y-97715715D01*
X107555771Y-97690670D01*
X107428087Y-97656457D01*
X107200000Y-97636502D01*
X106971913Y-97656457D01*
X106750759Y-97715715D01*
X106750753Y-97715717D01*
X106543250Y-97812477D01*
X106355703Y-97943799D01*
X106355697Y-97943804D01*
X106193804Y-98105697D01*
X106193799Y-98105703D01*
X106062477Y-98293250D01*
X105965717Y-98500753D01*
X105965715Y-98500759D01*
X105949228Y-98562290D01*
X105906457Y-98721913D01*
X105886502Y-98950000D01*
X98713498Y-98950000D01*
X98693543Y-98721913D01*
X98634284Y-98500757D01*
X98537523Y-98293251D01*
X98406198Y-98105700D01*
X98244300Y-97943802D01*
X98056749Y-97812477D01*
X97930469Y-97753592D01*
X97849246Y-97715717D01*
X97849240Y-97715715D01*
X97755771Y-97690670D01*
X97628087Y-97656457D01*
X97400000Y-97636502D01*
X97171913Y-97656457D01*
X96950759Y-97715715D01*
X96950753Y-97715717D01*
X96743250Y-97812477D01*
X96555703Y-97943799D01*
X96555697Y-97943804D01*
X96393804Y-98105697D01*
X96393799Y-98105703D01*
X96262477Y-98293250D01*
X96165717Y-98500753D01*
X96165715Y-98500759D01*
X96149228Y-98562290D01*
X96106457Y-98721913D01*
X96086502Y-98950000D01*
X93160498Y-98950000D01*
X93198068Y-98912430D01*
X93319129Y-98745803D01*
X93412634Y-98562290D01*
X93476280Y-98366408D01*
X93508500Y-98162981D01*
X93508500Y-97957019D01*
X93476280Y-97753592D01*
X93427256Y-97602714D01*
X93425229Y-97531748D01*
X93457992Y-97474687D01*
X94989165Y-95943516D01*
X95072173Y-95819285D01*
X95072174Y-95819284D01*
X95129351Y-95681246D01*
X95158500Y-95534706D01*
X95158500Y-95246656D01*
X95178502Y-95178535D01*
X95216379Y-95140658D01*
X95259368Y-95113032D01*
X95364685Y-95021774D01*
X95366435Y-95020364D01*
X95368029Y-95018878D01*
X95368033Y-95018875D01*
X95463745Y-94908416D01*
X95541477Y-94787462D01*
X95602193Y-94654513D01*
X95642700Y-94516558D01*
X95663500Y-94371889D01*
X95663500Y-93750000D01*
X95658273Y-93676921D01*
X95655323Y-93666877D01*
X95654026Y-93617346D01*
X95651146Y-93617037D01*
X95651988Y-93609203D01*
X95651989Y-93609201D01*
X95658500Y-93548638D01*
X95658500Y-92451362D01*
X95658499Y-92451350D01*
X95651147Y-92382962D01*
X95651691Y-92382903D01*
X95649960Y-92344172D01*
X95663500Y-92250000D01*
X95663500Y-91628111D01*
X95642700Y-91483442D01*
X95602193Y-91345487D01*
X95541477Y-91212538D01*
X95467406Y-91097282D01*
X95466579Y-91095829D01*
X95463745Y-91091584D01*
X95463743Y-91091580D01*
X95368029Y-90981122D01*
X95259368Y-90886968D01*
X95194631Y-90845364D01*
X95136418Y-90807953D01*
X95110245Y-90796000D01*
X100713917Y-90796000D01*
X101688314Y-90796000D01*
X101679920Y-90804394D01*
X101627259Y-90895606D01*
X101600000Y-90997339D01*
X101600000Y-91102661D01*
X101627259Y-91204394D01*
X101679920Y-91295606D01*
X101688314Y-91304000D01*
X100713918Y-91304000D01*
X100766186Y-91499068D01*
X100766188Y-91499073D01*
X100862912Y-91706498D01*
X100994184Y-91893974D01*
X100994189Y-91893980D01*
X101156019Y-92055810D01*
X101156025Y-92055815D01*
X101343501Y-92187087D01*
X101550926Y-92283811D01*
X101550931Y-92283813D01*
X101746000Y-92336081D01*
X101746000Y-91361686D01*
X101754394Y-91370080D01*
X101845606Y-91422741D01*
X101947339Y-91450000D01*
X102052661Y-91450000D01*
X102154394Y-91422741D01*
X102245606Y-91370080D01*
X102254000Y-91361686D01*
X102254000Y-92336081D01*
X102449068Y-92283813D01*
X102449073Y-92283811D01*
X102656498Y-92187087D01*
X102843974Y-92055815D01*
X102843980Y-92055810D01*
X103005810Y-91893980D01*
X103005815Y-91893974D01*
X103137087Y-91706498D01*
X103233811Y-91499073D01*
X103233813Y-91499068D01*
X103286082Y-91304000D01*
X102311686Y-91304000D01*
X102320080Y-91295606D01*
X102372741Y-91204394D01*
X102400000Y-91102661D01*
X102400000Y-90997339D01*
X102372741Y-90895606D01*
X102320080Y-90804394D01*
X102311686Y-90796000D01*
X103286082Y-90796000D01*
X110713917Y-90796000D01*
X111688314Y-90796000D01*
X111679920Y-90804394D01*
X111627259Y-90895606D01*
X111600000Y-90997339D01*
X111600000Y-91102661D01*
X111627259Y-91204394D01*
X111679920Y-91295606D01*
X111688314Y-91304000D01*
X110713918Y-91304000D01*
X110766186Y-91499068D01*
X110766188Y-91499073D01*
X110862912Y-91706498D01*
X110994184Y-91893974D01*
X110994189Y-91893980D01*
X111156019Y-92055810D01*
X111156025Y-92055815D01*
X111343501Y-92187087D01*
X111550926Y-92283811D01*
X111550931Y-92283813D01*
X111746000Y-92336081D01*
X111746000Y-91361686D01*
X111754394Y-91370080D01*
X111845606Y-91422741D01*
X111947339Y-91450000D01*
X112052661Y-91450000D01*
X112154394Y-91422741D01*
X112245606Y-91370080D01*
X112254000Y-91361686D01*
X112254000Y-92336081D01*
X112449068Y-92283813D01*
X112449073Y-92283811D01*
X112656498Y-92187087D01*
X112843974Y-92055815D01*
X112843980Y-92055810D01*
X113005810Y-91893980D01*
X113005815Y-91893974D01*
X113137087Y-91706498D01*
X113233811Y-91499073D01*
X113233813Y-91499068D01*
X113286082Y-91304000D01*
X112311686Y-91304000D01*
X112320080Y-91295606D01*
X112372741Y-91204394D01*
X112400000Y-91102661D01*
X112400000Y-90997339D01*
X112372741Y-90895606D01*
X112320080Y-90804394D01*
X112311686Y-90796000D01*
X113286082Y-90796000D01*
X120713917Y-90796000D01*
X121688314Y-90796000D01*
X121679920Y-90804394D01*
X121627259Y-90895606D01*
X121600000Y-90997339D01*
X121600000Y-91102661D01*
X121627259Y-91204394D01*
X121679920Y-91295606D01*
X121688314Y-91304000D01*
X120713918Y-91304000D01*
X120766186Y-91499068D01*
X120766188Y-91499073D01*
X120862912Y-91706498D01*
X120994184Y-91893974D01*
X120994189Y-91893980D01*
X121156019Y-92055810D01*
X121156025Y-92055815D01*
X121343501Y-92187087D01*
X121550926Y-92283811D01*
X121550931Y-92283813D01*
X121746000Y-92336081D01*
X121746000Y-91361686D01*
X121754394Y-91370080D01*
X121845606Y-91422741D01*
X121947339Y-91450000D01*
X122052661Y-91450000D01*
X122154394Y-91422741D01*
X122245606Y-91370080D01*
X122254000Y-91361686D01*
X122254000Y-92336081D01*
X122449068Y-92283813D01*
X122449073Y-92283811D01*
X122656498Y-92187087D01*
X122843974Y-92055815D01*
X122843980Y-92055810D01*
X123005810Y-91893980D01*
X123005815Y-91893974D01*
X123137087Y-91706498D01*
X123233811Y-91499073D01*
X123233813Y-91499068D01*
X123286082Y-91304000D01*
X122311686Y-91304000D01*
X122320080Y-91295606D01*
X122372741Y-91204394D01*
X122400000Y-91102661D01*
X122400000Y-90997339D01*
X122372741Y-90895606D01*
X122320080Y-90804394D01*
X122311686Y-90796000D01*
X123286082Y-90796000D01*
X123233813Y-90600931D01*
X123233811Y-90600926D01*
X123137087Y-90393501D01*
X123005815Y-90206025D01*
X123005810Y-90206019D01*
X122843980Y-90044189D01*
X122843974Y-90044184D01*
X122656498Y-89912912D01*
X122449073Y-89816188D01*
X122449071Y-89816187D01*
X122254000Y-89763917D01*
X122254000Y-90738314D01*
X122245606Y-90729920D01*
X122154394Y-90677259D01*
X122052661Y-90650000D01*
X121947339Y-90650000D01*
X121845606Y-90677259D01*
X121754394Y-90729920D01*
X121746000Y-90738314D01*
X121746000Y-89763917D01*
X121745999Y-89763917D01*
X121550928Y-89816187D01*
X121550926Y-89816188D01*
X121343501Y-89912912D01*
X121156025Y-90044184D01*
X121156019Y-90044189D01*
X120994189Y-90206019D01*
X120994184Y-90206025D01*
X120862912Y-90393501D01*
X120766188Y-90600926D01*
X120766186Y-90600931D01*
X120713917Y-90796000D01*
X113286082Y-90796000D01*
X113233813Y-90600931D01*
X113233811Y-90600926D01*
X113137087Y-90393501D01*
X113005815Y-90206025D01*
X113005810Y-90206019D01*
X112843980Y-90044189D01*
X112843974Y-90044184D01*
X112656498Y-89912912D01*
X112449073Y-89816188D01*
X112449071Y-89816187D01*
X112254000Y-89763917D01*
X112254000Y-90738314D01*
X112245606Y-90729920D01*
X112154394Y-90677259D01*
X112052661Y-90650000D01*
X111947339Y-90650000D01*
X111845606Y-90677259D01*
X111754394Y-90729920D01*
X111746000Y-90738314D01*
X111746000Y-89763917D01*
X111745999Y-89763917D01*
X111550928Y-89816187D01*
X111550926Y-89816188D01*
X111343501Y-89912912D01*
X111156025Y-90044184D01*
X111156019Y-90044189D01*
X110994189Y-90206019D01*
X110994184Y-90206025D01*
X110862912Y-90393501D01*
X110766188Y-90600926D01*
X110766186Y-90600931D01*
X110713917Y-90796000D01*
X103286082Y-90796000D01*
X103233813Y-90600931D01*
X103233811Y-90600926D01*
X103137087Y-90393501D01*
X103005815Y-90206025D01*
X103005810Y-90206019D01*
X102843980Y-90044189D01*
X102843974Y-90044184D01*
X102656498Y-89912912D01*
X102449073Y-89816188D01*
X102449071Y-89816187D01*
X102254000Y-89763917D01*
X102254000Y-90738314D01*
X102245606Y-90729920D01*
X102154394Y-90677259D01*
X102052661Y-90650000D01*
X101947339Y-90650000D01*
X101845606Y-90677259D01*
X101754394Y-90729920D01*
X101746000Y-90738314D01*
X101746000Y-89763917D01*
X101745999Y-89763917D01*
X101550928Y-89816187D01*
X101550926Y-89816188D01*
X101343501Y-89912912D01*
X101156025Y-90044184D01*
X101156019Y-90044189D01*
X100994189Y-90206019D01*
X100994184Y-90206025D01*
X100862912Y-90393501D01*
X100766188Y-90600926D01*
X100766186Y-90600931D01*
X100713917Y-90796000D01*
X95110245Y-90796000D01*
X95084956Y-90784451D01*
X95011767Y-90751026D01*
X95007406Y-90748745D01*
X94865402Y-90707049D01*
X94865381Y-90707044D01*
X94723084Y-90686585D01*
X94723079Y-90686585D01*
X94666512Y-90686585D01*
X94666223Y-90686500D01*
X94614236Y-90686500D01*
X94511371Y-90686500D01*
X94443250Y-90666498D01*
X94422276Y-90649595D01*
X93623519Y-89850838D01*
X93623515Y-89850834D01*
X93499284Y-89767826D01*
X93361247Y-89710649D01*
X93323395Y-89703119D01*
X93260487Y-89670211D01*
X93246042Y-89653601D01*
X93198067Y-89587568D01*
X93052435Y-89441936D01*
X93052432Y-89441934D01*
X93052431Y-89441933D01*
X93052430Y-89441932D01*
X92885803Y-89320871D01*
X92810034Y-89282265D01*
X92758422Y-89233519D01*
X92741356Y-89164604D01*
X92764257Y-89097402D01*
X92810034Y-89057735D01*
X92885803Y-89019129D01*
X93052430Y-88898068D01*
X93198068Y-88752430D01*
X93319129Y-88585803D01*
X93412634Y-88402290D01*
X93476280Y-88206408D01*
X93508500Y-88002981D01*
X93508500Y-87797019D01*
X93476280Y-87593592D01*
X93412634Y-87397710D01*
X93319129Y-87214197D01*
X93198068Y-87047570D01*
X93198065Y-87047567D01*
X93198063Y-87047564D01*
X93052435Y-86901936D01*
X93052432Y-86901934D01*
X93052430Y-86901932D01*
X92885803Y-86780871D01*
X92702290Y-86687366D01*
X92702287Y-86687365D01*
X92702285Y-86687364D01*
X92506412Y-86623721D01*
X92506410Y-86623720D01*
X92506408Y-86623720D01*
X92302981Y-86591500D01*
X91297019Y-86591500D01*
X91093592Y-86623720D01*
X91093590Y-86623720D01*
X91093587Y-86623721D01*
X90897714Y-86687364D01*
X90897708Y-86687367D01*
X90714193Y-86780873D01*
X90547567Y-86901934D01*
X90547564Y-86901936D01*
X90401936Y-87047564D01*
X90401934Y-87047567D01*
X90280873Y-87214193D01*
X90187367Y-87397708D01*
X90187364Y-87397714D01*
X90123721Y-87593587D01*
X90123720Y-87593590D01*
X90123720Y-87593592D01*
X90091500Y-87797019D01*
X85888500Y-87797019D01*
X85888500Y-87051367D01*
X85888499Y-87051350D01*
X85881990Y-86990803D01*
X85881988Y-86990795D01*
X85845994Y-86894293D01*
X85830889Y-86853796D01*
X85830888Y-86853794D01*
X85830887Y-86853792D01*
X85743261Y-86736738D01*
X85626207Y-86649112D01*
X85626202Y-86649110D01*
X85489204Y-86598011D01*
X85489196Y-86598009D01*
X85428649Y-86591500D01*
X85428638Y-86591500D01*
X82931362Y-86591500D01*
X82931350Y-86591500D01*
X82870803Y-86598009D01*
X82870795Y-86598011D01*
X82733797Y-86649110D01*
X82733792Y-86649112D01*
X82616738Y-86736738D01*
X82529112Y-86853792D01*
X82529110Y-86853797D01*
X82478011Y-86990795D01*
X82478009Y-86990803D01*
X82471500Y-87051350D01*
X80000000Y-87051350D01*
X80000000Y-84200000D01*
X80386502Y-84200000D01*
X80406457Y-84428087D01*
X80424709Y-84496204D01*
X80465715Y-84649240D01*
X80465717Y-84649246D01*
X80562477Y-84856749D01*
X80693454Y-85043804D01*
X80693802Y-85044300D01*
X80855700Y-85206198D01*
X81043251Y-85337523D01*
X81250757Y-85434284D01*
X81471913Y-85493543D01*
X81700000Y-85513498D01*
X81928087Y-85493543D01*
X82149243Y-85434284D01*
X82356749Y-85337523D01*
X82544300Y-85206198D01*
X82706198Y-85044300D01*
X82837523Y-84856749D01*
X82934284Y-84649243D01*
X82993543Y-84428087D01*
X83013498Y-84200000D01*
X82993543Y-83971913D01*
X82934284Y-83750757D01*
X82837523Y-83543251D01*
X82706198Y-83355700D01*
X82544300Y-83193802D01*
X82422079Y-83108222D01*
X82356749Y-83062477D01*
X82149246Y-82965717D01*
X82149240Y-82965715D01*
X82055771Y-82940670D01*
X81928087Y-82906457D01*
X81700000Y-82886502D01*
X81471913Y-82906457D01*
X81250759Y-82965715D01*
X81250753Y-82965717D01*
X81043250Y-83062477D01*
X80855703Y-83193799D01*
X80855697Y-83193804D01*
X80693804Y-83355697D01*
X80693799Y-83355703D01*
X80562477Y-83543250D01*
X80465717Y-83750753D01*
X80465715Y-83750759D01*
X80416126Y-83935829D01*
X80406457Y-83971913D01*
X80386502Y-84200000D01*
X80000000Y-84200000D01*
X80000000Y-78600000D01*
X83587004Y-78600000D01*
X83606951Y-78828002D01*
X83666186Y-79049068D01*
X83666188Y-79049073D01*
X83762913Y-79256501D01*
X83812899Y-79327888D01*
X84500000Y-78640788D01*
X84500000Y-78652661D01*
X84527259Y-78754394D01*
X84579920Y-78845606D01*
X84654394Y-78920080D01*
X84745606Y-78972741D01*
X84847339Y-79000000D01*
X84859210Y-79000000D01*
X84172110Y-79687098D01*
X84172110Y-79687100D01*
X84243498Y-79737086D01*
X84450926Y-79833811D01*
X84450931Y-79833813D01*
X84671999Y-79893048D01*
X84671995Y-79893048D01*
X84900000Y-79912995D01*
X85128002Y-79893048D01*
X85349068Y-79833813D01*
X85349073Y-79833811D01*
X85556497Y-79737088D01*
X85627888Y-79687099D01*
X85627888Y-79687097D01*
X84940791Y-79000000D01*
X84952661Y-79000000D01*
X85054394Y-78972741D01*
X85145606Y-78920080D01*
X85220080Y-78845606D01*
X85272741Y-78754394D01*
X85300000Y-78652661D01*
X85300000Y-78640791D01*
X85998776Y-79339567D01*
X86024346Y-79344705D01*
X86075340Y-79394103D01*
X86090341Y-79445368D01*
X86091139Y-79445283D01*
X86098009Y-79509196D01*
X86098011Y-79509204D01*
X86149110Y-79646202D01*
X86149112Y-79646207D01*
X86236738Y-79763261D01*
X86353792Y-79850887D01*
X86353794Y-79850888D01*
X86353796Y-79850889D01*
X86412875Y-79872924D01*
X86490795Y-79901988D01*
X86490803Y-79901990D01*
X86551350Y-79908499D01*
X86551355Y-79908499D01*
X86551362Y-79908500D01*
X86551368Y-79908500D01*
X88248632Y-79908500D01*
X88248638Y-79908500D01*
X88248645Y-79908499D01*
X88248649Y-79908499D01*
X88309196Y-79901990D01*
X88309199Y-79901989D01*
X88309201Y-79901989D01*
X88314534Y-79900000D01*
X91686835Y-79900000D01*
X91705465Y-80136711D01*
X91722976Y-80209651D01*
X91760894Y-80367592D01*
X91794425Y-80448542D01*
X91851760Y-80586963D01*
X91880907Y-80634527D01*
X91975825Y-80789417D01*
X91975826Y-80789419D01*
X92130030Y-80969969D01*
X92308378Y-81122292D01*
X92310584Y-81124176D01*
X92513037Y-81248240D01*
X92732406Y-81339105D01*
X92963289Y-81394535D01*
X93200000Y-81413165D01*
X93436711Y-81394535D01*
X93667594Y-81339105D01*
X93886963Y-81248240D01*
X94089416Y-81124176D01*
X94269969Y-80969969D01*
X94424176Y-80789416D01*
X94548240Y-80586963D01*
X94639105Y-80367594D01*
X94694535Y-80136711D01*
X94713165Y-79900000D01*
X94694535Y-79663289D01*
X94639105Y-79432406D01*
X94548240Y-79213037D01*
X94424176Y-79010584D01*
X94416576Y-79001685D01*
X94269969Y-78830030D01*
X94089419Y-78675826D01*
X94089417Y-78675825D01*
X94089416Y-78675824D01*
X93886963Y-78551760D01*
X93667594Y-78460895D01*
X93667592Y-78460894D01*
X93509651Y-78422976D01*
X93436711Y-78405465D01*
X93200000Y-78386835D01*
X92963289Y-78405465D01*
X92732407Y-78460894D01*
X92513038Y-78551759D01*
X92310582Y-78675825D01*
X92310580Y-78675826D01*
X92130030Y-78830030D01*
X91975826Y-79010580D01*
X91975825Y-79010582D01*
X91851759Y-79213038D01*
X91760894Y-79432407D01*
X91756995Y-79448649D01*
X91705465Y-79663289D01*
X91686835Y-79900000D01*
X88314534Y-79900000D01*
X88446204Y-79850889D01*
X88469018Y-79833811D01*
X88563261Y-79763261D01*
X88650887Y-79646207D01*
X88650887Y-79646206D01*
X88650889Y-79646204D01*
X88701989Y-79509201D01*
X88708500Y-79448638D01*
X88708500Y-77751362D01*
X88708499Y-77751350D01*
X88701990Y-77690803D01*
X88701988Y-77690795D01*
X88650889Y-77553797D01*
X88650887Y-77553792D01*
X88563261Y-77436738D01*
X88446207Y-77349112D01*
X88446202Y-77349110D01*
X88309204Y-77298011D01*
X88309196Y-77298009D01*
X88248649Y-77291500D01*
X88248638Y-77291500D01*
X86551362Y-77291500D01*
X86551350Y-77291500D01*
X86490803Y-77298009D01*
X86490795Y-77298011D01*
X86353797Y-77349110D01*
X86353792Y-77349112D01*
X86236738Y-77436738D01*
X86149112Y-77553792D01*
X86149110Y-77553797D01*
X86098011Y-77690795D01*
X86098009Y-77690803D01*
X86091139Y-77754717D01*
X86090103Y-77754605D01*
X86067912Y-77817474D01*
X86011837Y-77861018D01*
X85995882Y-77863326D01*
X85300000Y-78559208D01*
X85300000Y-78547339D01*
X85272741Y-78445606D01*
X85220080Y-78354394D01*
X85145606Y-78279920D01*
X85054394Y-78227259D01*
X84952661Y-78200000D01*
X84940790Y-78200000D01*
X85627888Y-77512899D01*
X85627888Y-77512898D01*
X85556501Y-77462913D01*
X85349073Y-77366188D01*
X85349068Y-77366186D01*
X85128000Y-77306951D01*
X85128004Y-77306951D01*
X84900000Y-77287004D01*
X84671997Y-77306951D01*
X84450931Y-77366186D01*
X84450926Y-77366188D01*
X84243500Y-77462913D01*
X84172109Y-77512900D01*
X84859209Y-78200000D01*
X84847339Y-78200000D01*
X84745606Y-78227259D01*
X84654394Y-78279920D01*
X84579920Y-78354394D01*
X84527259Y-78445606D01*
X84500000Y-78547339D01*
X84500000Y-78559209D01*
X83812900Y-77872109D01*
X83762913Y-77943500D01*
X83666188Y-78150926D01*
X83666186Y-78150931D01*
X83606951Y-78371997D01*
X83587004Y-78600000D01*
X80000000Y-78600000D01*
X80000000Y-73200000D01*
X82187004Y-73200000D01*
X82206951Y-73428002D01*
X82266186Y-73649068D01*
X82266188Y-73649073D01*
X82362913Y-73856501D01*
X82412899Y-73927888D01*
X83100000Y-73240788D01*
X83100000Y-73252661D01*
X83127259Y-73354394D01*
X83179920Y-73445606D01*
X83254394Y-73520080D01*
X83345606Y-73572741D01*
X83447339Y-73600000D01*
X83459210Y-73600000D01*
X82772110Y-74287098D01*
X82772110Y-74287100D01*
X82843498Y-74337086D01*
X83050926Y-74433811D01*
X83050931Y-74433813D01*
X83271999Y-74493048D01*
X83271995Y-74493048D01*
X83500000Y-74512995D01*
X83728002Y-74493048D01*
X83949068Y-74433813D01*
X83949073Y-74433811D01*
X84156497Y-74337088D01*
X84227888Y-74287099D01*
X84227888Y-74287097D01*
X83540791Y-73600000D01*
X83552661Y-73600000D01*
X83654394Y-73572741D01*
X83745606Y-73520080D01*
X83820080Y-73445606D01*
X83872741Y-73354394D01*
X83900000Y-73252661D01*
X83900000Y-73240791D01*
X84587097Y-73927888D01*
X84587099Y-73927888D01*
X84637088Y-73856497D01*
X84733811Y-73649073D01*
X84733813Y-73649068D01*
X84793048Y-73428002D01*
X84812995Y-73200000D01*
X87186502Y-73200000D01*
X87206457Y-73428087D01*
X87265716Y-73649243D01*
X87362477Y-73856749D01*
X87493802Y-74044300D01*
X87655700Y-74206198D01*
X87843251Y-74337523D01*
X88050757Y-74434284D01*
X88271913Y-74493543D01*
X88500000Y-74513498D01*
X88728087Y-74493543D01*
X88949243Y-74434284D01*
X89156749Y-74337523D01*
X89344300Y-74206198D01*
X89506198Y-74044300D01*
X89637523Y-73856749D01*
X89734284Y-73649243D01*
X89793543Y-73428087D01*
X89813498Y-73200000D01*
X89793543Y-72971913D01*
X89734284Y-72750757D01*
X89637523Y-72543251D01*
X89506198Y-72355700D01*
X89344300Y-72193802D01*
X89228757Y-72112898D01*
X89156749Y-72062477D01*
X88949246Y-71965717D01*
X88949240Y-71965715D01*
X88831938Y-71934284D01*
X88728087Y-71906457D01*
X88500000Y-71886502D01*
X88271913Y-71906457D01*
X88050759Y-71965715D01*
X88050753Y-71965717D01*
X87843250Y-72062477D01*
X87655703Y-72193799D01*
X87655697Y-72193804D01*
X87493804Y-72355697D01*
X87493799Y-72355703D01*
X87362477Y-72543250D01*
X87265717Y-72750753D01*
X87265715Y-72750759D01*
X87211151Y-72954394D01*
X87206457Y-72971913D01*
X87186502Y-73200000D01*
X84812995Y-73200000D01*
X84793048Y-72971997D01*
X84733813Y-72750931D01*
X84733811Y-72750926D01*
X84637086Y-72543498D01*
X84587100Y-72472110D01*
X84587098Y-72472110D01*
X83900000Y-73159208D01*
X83900000Y-73147339D01*
X83872741Y-73045606D01*
X83820080Y-72954394D01*
X83745606Y-72879920D01*
X83654394Y-72827259D01*
X83552661Y-72800000D01*
X83540790Y-72800000D01*
X84227888Y-72112899D01*
X84227888Y-72112898D01*
X84156501Y-72062913D01*
X83949073Y-71966188D01*
X83949068Y-71966186D01*
X83728000Y-71906951D01*
X83728004Y-71906951D01*
X83500000Y-71887004D01*
X83271997Y-71906951D01*
X83050931Y-71966186D01*
X83050926Y-71966188D01*
X82843500Y-72062913D01*
X82772109Y-72112900D01*
X83459209Y-72800000D01*
X83447339Y-72800000D01*
X83345606Y-72827259D01*
X83254394Y-72879920D01*
X83179920Y-72954394D01*
X83127259Y-73045606D01*
X83100000Y-73147339D01*
X83100000Y-73159209D01*
X82412900Y-72472109D01*
X82362913Y-72543500D01*
X82266188Y-72750926D01*
X82266186Y-72750931D01*
X82206951Y-72971997D01*
X82187004Y-73200000D01*
X80000000Y-73200000D01*
X80000000Y-67537889D01*
X80020002Y-67469768D01*
X80073658Y-67423275D01*
X80143932Y-67413171D01*
X80208512Y-67442665D01*
X80246762Y-67501937D01*
X80301993Y-67687456D01*
X80476643Y-68135046D01*
X80687648Y-68566664D01*
X80687650Y-68566669D01*
X80933575Y-68979384D01*
X80933578Y-68979389D01*
X81212744Y-69370387D01*
X81514325Y-69726464D01*
X83754941Y-67485848D01*
X83820934Y-67568601D01*
X84031399Y-67779066D01*
X84114150Y-67845057D01*
X81873534Y-70085673D01*
X82229612Y-70387255D01*
X82620610Y-70666421D01*
X82620615Y-70666424D01*
X83033330Y-70912349D01*
X83033335Y-70912351D01*
X83464953Y-71123356D01*
X83912543Y-71298006D01*
X84373007Y-71435092D01*
X84843204Y-71533682D01*
X84843222Y-71533685D01*
X85319957Y-71593111D01*
X85319973Y-71593112D01*
X85799991Y-71612966D01*
X85800009Y-71612966D01*
X86280026Y-71593112D01*
X86280042Y-71593111D01*
X86756777Y-71533685D01*
X86756795Y-71533682D01*
X87226992Y-71435092D01*
X87687456Y-71298006D01*
X88135046Y-71123356D01*
X88566664Y-70912351D01*
X88566669Y-70912349D01*
X88587393Y-70900000D01*
X91686835Y-70900000D01*
X91705465Y-71136711D01*
X91722976Y-71209651D01*
X91760894Y-71367592D01*
X91834089Y-71544300D01*
X91851760Y-71586963D01*
X91953305Y-71752669D01*
X91975825Y-71789417D01*
X91975826Y-71789419D01*
X92130030Y-71969969D01*
X92310580Y-72124173D01*
X92310584Y-72124176D01*
X92513037Y-72248240D01*
X92732406Y-72339105D01*
X92963289Y-72394535D01*
X93200000Y-72413165D01*
X93436711Y-72394535D01*
X93667594Y-72339105D01*
X93886963Y-72248240D01*
X94089416Y-72124176D01*
X94269969Y-71969969D01*
X94424176Y-71789416D01*
X94548240Y-71586963D01*
X94639105Y-71367594D01*
X94694535Y-71136711D01*
X94713165Y-70900000D01*
X94694535Y-70663289D01*
X94639105Y-70432406D01*
X94548240Y-70213037D01*
X94424176Y-70010584D01*
X94344674Y-69917499D01*
X94269969Y-69830030D01*
X94089419Y-69675826D01*
X94089417Y-69675825D01*
X94089416Y-69675824D01*
X93886963Y-69551760D01*
X93765924Y-69501624D01*
X93667592Y-69460894D01*
X93491897Y-69418714D01*
X93436711Y-69405465D01*
X93200000Y-69386835D01*
X92963289Y-69405465D01*
X92732407Y-69460894D01*
X92513038Y-69551759D01*
X92310582Y-69675825D01*
X92310580Y-69675826D01*
X92130030Y-69830030D01*
X91975826Y-70010580D01*
X91975825Y-70010582D01*
X91851759Y-70213038D01*
X91760894Y-70432407D01*
X91751410Y-70471913D01*
X91705465Y-70663289D01*
X91686835Y-70900000D01*
X88587393Y-70900000D01*
X88979384Y-70666424D01*
X88979389Y-70666421D01*
X89370394Y-70387249D01*
X89726463Y-70085673D01*
X89726464Y-70085673D01*
X87485849Y-67845058D01*
X87568601Y-67779066D01*
X87779066Y-67568601D01*
X87845058Y-67485849D01*
X90085673Y-69726464D01*
X90085673Y-69726463D01*
X90387249Y-69370394D01*
X90666421Y-68979389D01*
X90666424Y-68979384D01*
X90912349Y-68566669D01*
X90912351Y-68566664D01*
X91123356Y-68135046D01*
X91298006Y-67687456D01*
X91435092Y-67226992D01*
X91533682Y-66756795D01*
X91533685Y-66756777D01*
X91593111Y-66280042D01*
X91593112Y-66280026D01*
X91612966Y-65800009D01*
X91612966Y-65799990D01*
X91593112Y-65319973D01*
X91593111Y-65319957D01*
X91533685Y-64843222D01*
X91533682Y-64843204D01*
X91435092Y-64373007D01*
X91298006Y-63912543D01*
X91123356Y-63464953D01*
X90912351Y-63033335D01*
X90912349Y-63033330D01*
X90803943Y-62851402D01*
X92492000Y-62851402D01*
X92492000Y-63846000D01*
X93653827Y-63846000D01*
X93640889Y-63868409D01*
X93600000Y-64021009D01*
X93600000Y-64178991D01*
X93640889Y-64331591D01*
X93653827Y-64354000D01*
X92492000Y-64354000D01*
X92492000Y-65348597D01*
X92498505Y-65409093D01*
X92549555Y-65545964D01*
X92549555Y-65545965D01*
X92637095Y-65662904D01*
X92754034Y-65750444D01*
X92890906Y-65801494D01*
X92951402Y-65807999D01*
X92951415Y-65808000D01*
X93946000Y-65808000D01*
X93946000Y-64646173D01*
X93968409Y-64659111D01*
X94121009Y-64700000D01*
X94278991Y-64700000D01*
X94431591Y-64659111D01*
X94454000Y-64646173D01*
X94454000Y-65808000D01*
X95448585Y-65808000D01*
X95448597Y-65807999D01*
X95509093Y-65801494D01*
X95645964Y-65750444D01*
X95645965Y-65750444D01*
X95762904Y-65662904D01*
X95850444Y-65545965D01*
X95850444Y-65545964D01*
X95901494Y-65409093D01*
X95907999Y-65348597D01*
X95908000Y-65348585D01*
X95908000Y-64876439D01*
X95928002Y-64808318D01*
X95981658Y-64761825D01*
X96051932Y-64751721D01*
X96116512Y-64781215D01*
X96151290Y-64830407D01*
X96156372Y-64843358D01*
X96156376Y-64843366D01*
X96284410Y-65065127D01*
X96284412Y-65065130D01*
X96284413Y-65065131D01*
X96444069Y-65265334D01*
X96631781Y-65439505D01*
X96631787Y-65439509D01*
X96843345Y-65583748D01*
X96843352Y-65583752D01*
X96843355Y-65583754D01*
X96920166Y-65620744D01*
X97074060Y-65694856D01*
X97074073Y-65694861D01*
X97318746Y-65770332D01*
X97318748Y-65770332D01*
X97318757Y-65770335D01*
X97571966Y-65808500D01*
X97571970Y-65808500D01*
X97828030Y-65808500D01*
X97828034Y-65808500D01*
X98081243Y-65770335D01*
X98081253Y-65770332D01*
X98325929Y-65694860D01*
X98325930Y-65694859D01*
X98325935Y-65694858D01*
X98556646Y-65583754D01*
X98768219Y-65439505D01*
X98955931Y-65265334D01*
X99115587Y-65065131D01*
X99243622Y-64843369D01*
X99243625Y-64843362D01*
X99332710Y-64616376D01*
X99376216Y-64560272D01*
X99443149Y-64536595D01*
X99512256Y-64552864D01*
X99561598Y-64603912D01*
X99567290Y-64616376D01*
X99656374Y-64843362D01*
X99656376Y-64843366D01*
X99784410Y-65065127D01*
X99784412Y-65065130D01*
X99784413Y-65065131D01*
X99944069Y-65265334D01*
X100131781Y-65439505D01*
X100131787Y-65439509D01*
X100343345Y-65583748D01*
X100343352Y-65583752D01*
X100343355Y-65583754D01*
X100420166Y-65620744D01*
X100574060Y-65694856D01*
X100574073Y-65694861D01*
X100818746Y-65770332D01*
X100818748Y-65770332D01*
X100818757Y-65770335D01*
X101071966Y-65808500D01*
X101071970Y-65808500D01*
X101328030Y-65808500D01*
X101328034Y-65808500D01*
X101581243Y-65770335D01*
X101581253Y-65770332D01*
X101825929Y-65694860D01*
X101825930Y-65694859D01*
X101825935Y-65694858D01*
X102056646Y-65583754D01*
X102268219Y-65439505D01*
X102455931Y-65265334D01*
X102615587Y-65065131D01*
X102743622Y-64843369D01*
X102743625Y-64843362D01*
X102832710Y-64616376D01*
X102876216Y-64560272D01*
X102943149Y-64536595D01*
X103012256Y-64552864D01*
X103061598Y-64603912D01*
X103067290Y-64616376D01*
X103156374Y-64843362D01*
X103156376Y-64843366D01*
X103284410Y-65065127D01*
X103444072Y-65265338D01*
X103533792Y-65348585D01*
X103631781Y-65439505D01*
X103636471Y-65442703D01*
X103681491Y-65497599D01*
X103691500Y-65546813D01*
X103691500Y-67130075D01*
X103671498Y-67198196D01*
X103654595Y-67219170D01*
X101508883Y-69364881D01*
X101446571Y-69398907D01*
X101430772Y-69401306D01*
X101371921Y-69406455D01*
X101371916Y-69406456D01*
X101150759Y-69465715D01*
X101150753Y-69465717D01*
X100943252Y-69562476D01*
X100943250Y-69562477D01*
X100791530Y-69668713D01*
X100724257Y-69691401D01*
X100719260Y-69691500D01*
X98754768Y-69691500D01*
X98686647Y-69671498D01*
X98658957Y-69647331D01*
X98540898Y-69509102D01*
X98348376Y-69344672D01*
X98132502Y-69212384D01*
X98070018Y-69186502D01*
X97898589Y-69115494D01*
X97730177Y-69075062D01*
X97652403Y-69056391D01*
X97400000Y-69036526D01*
X97147597Y-69056391D01*
X96901410Y-69115494D01*
X96667499Y-69212383D01*
X96451625Y-69344671D01*
X96259102Y-69509102D01*
X96094671Y-69701625D01*
X95962383Y-69917499D01*
X95865494Y-70151410D01*
X95808875Y-70387249D01*
X95806391Y-70397597D01*
X95786526Y-70650000D01*
X95806391Y-70902403D01*
X95817636Y-70949243D01*
X95865494Y-71148589D01*
X95946559Y-71344296D01*
X95962384Y-71382502D01*
X96094672Y-71598376D01*
X96257837Y-71789417D01*
X96259104Y-71790900D01*
X96347330Y-71866252D01*
X96386139Y-71925702D01*
X96391500Y-71962063D01*
X96391500Y-78554331D01*
X96411059Y-78652661D01*
X96430256Y-78749169D01*
X96466435Y-78836513D01*
X96506279Y-78932704D01*
X96616647Y-79097881D01*
X96616649Y-79097883D01*
X101454595Y-83935829D01*
X101488621Y-83998141D01*
X101491500Y-84024924D01*
X101491500Y-84054983D01*
X101501003Y-84114983D01*
X101527474Y-84282120D01*
X101532845Y-84298649D01*
X101598538Y-84500829D01*
X101598539Y-84500832D01*
X101598541Y-84500836D01*
X101702940Y-84705731D01*
X101828316Y-84878296D01*
X101852174Y-84945164D01*
X101836094Y-85014315D01*
X101785180Y-85063795D01*
X101770417Y-85070411D01*
X101753795Y-85076611D01*
X101753792Y-85076612D01*
X101636738Y-85164238D01*
X101549112Y-85281292D01*
X101549110Y-85281297D01*
X101501280Y-85409533D01*
X101458733Y-85466369D01*
X101392213Y-85491179D01*
X101383225Y-85491500D01*
X98531868Y-85491500D01*
X98463747Y-85471498D01*
X98428656Y-85437772D01*
X98406202Y-85405706D01*
X98406200Y-85405703D01*
X98406198Y-85405700D01*
X98244300Y-85243802D01*
X98235688Y-85237772D01*
X98164197Y-85187713D01*
X98119869Y-85132256D01*
X98112560Y-85061636D01*
X98144591Y-84998276D01*
X98205792Y-84962291D01*
X98236468Y-84958500D01*
X98548632Y-84958500D01*
X98548638Y-84958500D01*
X98548645Y-84958499D01*
X98548649Y-84958499D01*
X98609196Y-84951990D01*
X98609199Y-84951989D01*
X98609201Y-84951989D01*
X98746204Y-84900889D01*
X98863261Y-84813261D01*
X98904255Y-84758500D01*
X98950887Y-84696207D01*
X98950887Y-84696206D01*
X98950889Y-84696204D01*
X99001989Y-84559201D01*
X99008265Y-84500829D01*
X99008499Y-84498649D01*
X99008500Y-84498632D01*
X99008500Y-82201367D01*
X99008499Y-82201350D01*
X99001990Y-82140803D01*
X99001988Y-82140795D01*
X98957171Y-82020638D01*
X98950889Y-82003796D01*
X98950888Y-82003794D01*
X98950887Y-82003792D01*
X98863261Y-81886738D01*
X98746207Y-81799112D01*
X98746202Y-81799110D01*
X98609204Y-81748011D01*
X98609196Y-81748009D01*
X98548649Y-81741500D01*
X98548638Y-81741500D01*
X96251362Y-81741500D01*
X96251350Y-81741500D01*
X96190803Y-81748009D01*
X96190795Y-81748011D01*
X96053797Y-81799110D01*
X96053792Y-81799112D01*
X95936738Y-81886738D01*
X95849112Y-82003792D01*
X95849110Y-82003797D01*
X95798011Y-82140795D01*
X95798009Y-82140803D01*
X95791500Y-82201350D01*
X95791500Y-83519556D01*
X95771498Y-83587677D01*
X95717842Y-83634170D01*
X95647568Y-83644274D01*
X95582988Y-83614780D01*
X95551306Y-83572807D01*
X95537524Y-83543252D01*
X95406200Y-83355703D01*
X95406195Y-83355697D01*
X95244302Y-83193804D01*
X95244296Y-83193799D01*
X95056749Y-83062477D01*
X94849246Y-82965717D01*
X94849240Y-82965715D01*
X94755771Y-82940670D01*
X94628087Y-82906457D01*
X94400000Y-82886502D01*
X94171913Y-82906457D01*
X93950759Y-82965715D01*
X93950753Y-82965717D01*
X93743250Y-83062477D01*
X93555703Y-83193799D01*
X93555697Y-83193804D01*
X93393804Y-83355697D01*
X93393799Y-83355703D01*
X93262477Y-83543250D01*
X93165717Y-83750753D01*
X93165715Y-83750759D01*
X93116126Y-83935829D01*
X93106457Y-83971913D01*
X93086502Y-84200000D01*
X93106457Y-84428087D01*
X93124709Y-84496204D01*
X93165715Y-84649240D01*
X93165717Y-84649246D01*
X93262477Y-84856749D01*
X93393454Y-85043804D01*
X93393802Y-85044300D01*
X93555700Y-85206198D01*
X93743251Y-85337523D01*
X93950757Y-85434284D01*
X94171913Y-85493543D01*
X94400000Y-85513498D01*
X94628087Y-85493543D01*
X94849243Y-85434284D01*
X95056749Y-85337523D01*
X95244300Y-85206198D01*
X95406198Y-85044300D01*
X95537523Y-84856749D01*
X95616782Y-84686775D01*
X95663699Y-84633491D01*
X95731976Y-84614030D01*
X95799936Y-84634572D01*
X95846002Y-84688594D01*
X95849027Y-84695978D01*
X95849111Y-84696204D01*
X95849112Y-84696206D01*
X95849112Y-84696207D01*
X95936738Y-84813261D01*
X96053792Y-84900887D01*
X96053794Y-84900888D01*
X96053796Y-84900889D01*
X96112875Y-84922924D01*
X96190795Y-84951988D01*
X96190803Y-84951990D01*
X96251350Y-84958499D01*
X96251355Y-84958499D01*
X96251362Y-84958500D01*
X96563532Y-84958500D01*
X96631653Y-84978502D01*
X96678146Y-85032158D01*
X96688250Y-85102432D01*
X96658756Y-85167012D01*
X96635803Y-85187713D01*
X96555703Y-85243799D01*
X96555697Y-85243804D01*
X96393804Y-85405697D01*
X96393799Y-85405703D01*
X96262477Y-85593250D01*
X96165717Y-85800753D01*
X96165715Y-85800759D01*
X96106457Y-86021913D01*
X96086502Y-86250000D01*
X96106457Y-86478086D01*
X96165715Y-86699240D01*
X96165717Y-86699246D01*
X96262477Y-86906749D01*
X96367122Y-87056198D01*
X96393802Y-87094300D01*
X96555700Y-87256198D01*
X96743251Y-87387523D01*
X96950757Y-87484284D01*
X97171913Y-87543543D01*
X97400000Y-87563498D01*
X97628087Y-87543543D01*
X97849243Y-87484284D01*
X98056749Y-87387523D01*
X98244300Y-87256198D01*
X98406198Y-87094300D01*
X98417618Y-87077990D01*
X98428656Y-87062228D01*
X98484113Y-87017900D01*
X98531868Y-87008500D01*
X101365500Y-87008500D01*
X101433621Y-87028502D01*
X101480114Y-87082158D01*
X101491500Y-87134500D01*
X101491500Y-87481149D01*
X101498009Y-87541696D01*
X101498011Y-87541704D01*
X101549110Y-87678702D01*
X101549112Y-87678707D01*
X101636738Y-87795761D01*
X101753792Y-87883387D01*
X101753794Y-87883388D01*
X101753796Y-87883389D01*
X101812875Y-87905424D01*
X101890795Y-87934488D01*
X101890803Y-87934490D01*
X101951350Y-87940999D01*
X101951355Y-87940999D01*
X101951362Y-87941000D01*
X101951368Y-87941000D01*
X104048632Y-87941000D01*
X104048638Y-87941000D01*
X104048645Y-87940999D01*
X104048649Y-87940999D01*
X104109196Y-87934490D01*
X104109199Y-87934489D01*
X104109201Y-87934489D01*
X104246204Y-87883389D01*
X104363261Y-87795761D01*
X104405971Y-87738707D01*
X104450887Y-87678707D01*
X104450887Y-87678706D01*
X104450889Y-87678704D01*
X104501989Y-87541701D01*
X104502049Y-87541149D01*
X104508499Y-87481149D01*
X104508500Y-87481132D01*
X104508500Y-85478867D01*
X104508499Y-85478850D01*
X104501990Y-85418303D01*
X104501988Y-85418295D01*
X104454695Y-85291500D01*
X104450889Y-85281296D01*
X104450888Y-85281294D01*
X104450887Y-85281292D01*
X104363261Y-85164238D01*
X104246207Y-85076613D01*
X104246206Y-85076612D01*
X104246204Y-85076611D01*
X104229581Y-85070411D01*
X104172749Y-85027863D01*
X104147940Y-84961343D01*
X104163033Y-84891969D01*
X104171674Y-84878309D01*
X104297060Y-84705731D01*
X104401462Y-84500829D01*
X104472526Y-84282118D01*
X104508500Y-84054983D01*
X104508500Y-83825017D01*
X104472526Y-83597882D01*
X104401462Y-83379171D01*
X104389501Y-83355697D01*
X104387424Y-83351619D01*
X104297060Y-83174269D01*
X104161889Y-82988222D01*
X104161886Y-82988219D01*
X104161884Y-82988216D01*
X103999283Y-82825615D01*
X103999280Y-82825613D01*
X103999278Y-82825611D01*
X103924974Y-82771626D01*
X103881620Y-82715404D01*
X103875545Y-82644667D01*
X103908677Y-82581876D01*
X103924975Y-82567753D01*
X103998957Y-82514002D01*
X104161502Y-82351457D01*
X104161504Y-82351454D01*
X104296628Y-82165472D01*
X104400996Y-81960638D01*
X104400999Y-81960632D01*
X104472035Y-81742006D01*
X104485975Y-81654000D01*
X103488438Y-81654000D01*
X103512518Y-81612292D01*
X103550000Y-81472409D01*
X103550000Y-81327591D01*
X103512518Y-81187708D01*
X103488438Y-81146000D01*
X104485974Y-81146000D01*
X104472035Y-81057993D01*
X104400999Y-80839367D01*
X104400996Y-80839361D01*
X104296628Y-80634527D01*
X104161504Y-80448545D01*
X104161502Y-80448542D01*
X103998957Y-80285997D01*
X103998954Y-80285995D01*
X103812972Y-80150871D01*
X103608138Y-80046503D01*
X103608132Y-80046500D01*
X103389506Y-79975464D01*
X103254000Y-79954001D01*
X103254000Y-80911561D01*
X103212292Y-80887482D01*
X103072409Y-80850000D01*
X102927591Y-80850000D01*
X102787708Y-80887482D01*
X102746000Y-80911561D01*
X102746000Y-79954001D01*
X102610493Y-79975464D01*
X102391867Y-80046500D01*
X102391861Y-80046503D01*
X102187027Y-80150871D01*
X102001045Y-80285995D01*
X102001042Y-80285997D01*
X101838497Y-80448542D01*
X101838495Y-80448545D01*
X101703371Y-80634527D01*
X101599003Y-80839361D01*
X101599002Y-80839364D01*
X101567288Y-80936968D01*
X101527214Y-80995573D01*
X101461817Y-81023210D01*
X101391860Y-81011103D01*
X101358360Y-80987126D01*
X98445405Y-78074171D01*
X98411379Y-78011859D01*
X98408500Y-77985076D01*
X98408500Y-75700000D01*
X100286502Y-75700000D01*
X100306457Y-75928086D01*
X100365715Y-76149240D01*
X100365717Y-76149246D01*
X100462477Y-76356749D01*
X100567122Y-76506198D01*
X100593802Y-76544300D01*
X100755700Y-76706198D01*
X100943251Y-76837523D01*
X101150757Y-76934284D01*
X101371913Y-76993543D01*
X101600000Y-77013498D01*
X101828087Y-76993543D01*
X102049243Y-76934284D01*
X102256749Y-76837523D01*
X102444300Y-76706198D01*
X102606198Y-76544300D01*
X102737523Y-76356749D01*
X102834284Y-76149243D01*
X102893543Y-75928087D01*
X102913498Y-75700000D01*
X102893543Y-75471913D01*
X102834284Y-75250757D01*
X102737523Y-75043251D01*
X102606198Y-74855700D01*
X102444300Y-74693802D01*
X102256749Y-74562477D01*
X102151713Y-74513498D01*
X102049246Y-74465717D01*
X102049240Y-74465715D01*
X101931938Y-74434284D01*
X101828087Y-74406457D01*
X101600000Y-74386502D01*
X101371913Y-74406457D01*
X101150759Y-74465715D01*
X101150753Y-74465717D01*
X100943250Y-74562477D01*
X100755703Y-74693799D01*
X100755697Y-74693804D01*
X100593804Y-74855697D01*
X100593799Y-74855703D01*
X100462477Y-75043250D01*
X100365717Y-75250753D01*
X100365715Y-75250759D01*
X100306457Y-75471913D01*
X100286502Y-75700000D01*
X98408500Y-75700000D01*
X98408500Y-71962063D01*
X98428502Y-71893942D01*
X98452670Y-71866252D01*
X98486307Y-71837523D01*
X98540898Y-71790898D01*
X98565526Y-71762063D01*
X98573550Y-71752669D01*
X98633000Y-71713860D01*
X98669360Y-71708500D01*
X100719260Y-71708500D01*
X100787381Y-71728502D01*
X100791530Y-71731287D01*
X100876664Y-71790898D01*
X100943251Y-71837523D01*
X101150757Y-71934284D01*
X101371913Y-71993543D01*
X101600000Y-72013498D01*
X101828087Y-71993543D01*
X102049243Y-71934284D01*
X102256749Y-71837523D01*
X102444300Y-71706198D01*
X102606198Y-71544300D01*
X102737523Y-71356749D01*
X102834284Y-71149243D01*
X102893543Y-70928087D01*
X102898692Y-70869226D01*
X102924556Y-70803110D01*
X102935118Y-70791115D01*
X105483348Y-68242886D01*
X105483348Y-68242885D01*
X105483353Y-68242881D01*
X105593721Y-68077704D01*
X105669744Y-67894168D01*
X105708500Y-67699329D01*
X105708500Y-67500671D01*
X105708500Y-65546813D01*
X105728502Y-65478692D01*
X105763527Y-65442703D01*
X105768219Y-65439505D01*
X105955931Y-65265334D01*
X106115587Y-65065131D01*
X106243622Y-64843369D01*
X106243625Y-64843362D01*
X106332710Y-64616376D01*
X106376216Y-64560272D01*
X106443149Y-64536595D01*
X106512256Y-64552864D01*
X106561598Y-64603912D01*
X106567290Y-64616376D01*
X106656374Y-64843362D01*
X106656376Y-64843366D01*
X106784410Y-65065127D01*
X106784412Y-65065130D01*
X106784413Y-65065131D01*
X106944069Y-65265334D01*
X107131781Y-65439505D01*
X107131787Y-65439509D01*
X107343345Y-65583748D01*
X107343352Y-65583752D01*
X107343355Y-65583754D01*
X107420166Y-65620744D01*
X107574060Y-65694856D01*
X107574073Y-65694861D01*
X107818746Y-65770332D01*
X107818748Y-65770332D01*
X107818757Y-65770335D01*
X108071966Y-65808500D01*
X108071970Y-65808500D01*
X108328030Y-65808500D01*
X108328034Y-65808500D01*
X108581243Y-65770335D01*
X108581253Y-65770332D01*
X108825929Y-65694860D01*
X108825930Y-65694859D01*
X108825935Y-65694858D01*
X109056646Y-65583754D01*
X109268219Y-65439505D01*
X109455931Y-65265334D01*
X109615587Y-65065131D01*
X109743622Y-64843369D01*
X109743625Y-64843362D01*
X109832710Y-64616376D01*
X109876216Y-64560272D01*
X109943149Y-64536595D01*
X110012256Y-64552864D01*
X110061598Y-64603912D01*
X110067290Y-64616376D01*
X110156374Y-64843362D01*
X110156376Y-64843366D01*
X110284410Y-65065127D01*
X110284412Y-65065130D01*
X110284413Y-65065131D01*
X110364011Y-65164944D01*
X110390845Y-65230673D01*
X110391500Y-65243503D01*
X110391500Y-69565500D01*
X110371498Y-69633621D01*
X110317842Y-69680114D01*
X110265500Y-69691500D01*
X108554768Y-69691500D01*
X108486647Y-69671498D01*
X108458957Y-69647331D01*
X108340898Y-69509102D01*
X108148376Y-69344672D01*
X107932502Y-69212384D01*
X107870018Y-69186502D01*
X107698589Y-69115494D01*
X107530177Y-69075062D01*
X107452403Y-69056391D01*
X107200000Y-69036526D01*
X106947597Y-69056391D01*
X106701410Y-69115494D01*
X106467499Y-69212383D01*
X106251625Y-69344671D01*
X106059102Y-69509102D01*
X105894671Y-69701625D01*
X105762383Y-69917499D01*
X105665494Y-70151410D01*
X105608875Y-70387249D01*
X105606391Y-70397597D01*
X105586526Y-70650000D01*
X105606391Y-70902403D01*
X105617636Y-70949243D01*
X105665494Y-71148589D01*
X105746559Y-71344296D01*
X105762384Y-71382502D01*
X105894672Y-71598376D01*
X106057837Y-71789417D01*
X106059104Y-71790900D01*
X106147330Y-71866252D01*
X106186139Y-71925702D01*
X106191500Y-71962063D01*
X106191500Y-78458140D01*
X106230257Y-78652981D01*
X106270100Y-78749169D01*
X106306279Y-78836512D01*
X106306278Y-78836512D01*
X106360716Y-78917983D01*
X106416647Y-79001690D01*
X106416649Y-79001692D01*
X111255465Y-83840508D01*
X111289491Y-83902820D01*
X111290585Y-83939983D01*
X111291888Y-83940086D01*
X111291500Y-83945014D01*
X111291500Y-83945017D01*
X111291500Y-84174983D01*
X111308468Y-84282118D01*
X111327474Y-84402120D01*
X111358835Y-84498638D01*
X111398538Y-84620829D01*
X111398539Y-84620832D01*
X111398541Y-84620836D01*
X111439329Y-84700887D01*
X111502940Y-84825731D01*
X111594672Y-84951990D01*
X111628316Y-84998296D01*
X111652174Y-85065164D01*
X111636094Y-85134315D01*
X111585180Y-85183795D01*
X111570417Y-85190411D01*
X111553795Y-85196611D01*
X111553792Y-85196612D01*
X111436738Y-85284238D01*
X111349111Y-85401294D01*
X111346038Y-85409534D01*
X111303490Y-85466369D01*
X111236970Y-85491179D01*
X111227983Y-85491500D01*
X108331868Y-85491500D01*
X108263747Y-85471498D01*
X108228656Y-85437772D01*
X108206202Y-85405706D01*
X108206200Y-85405703D01*
X108206198Y-85405700D01*
X108044300Y-85243802D01*
X108035688Y-85237772D01*
X107964197Y-85187713D01*
X107919869Y-85132256D01*
X107912560Y-85061636D01*
X107944591Y-84998276D01*
X108005792Y-84962291D01*
X108036468Y-84958500D01*
X108348632Y-84958500D01*
X108348638Y-84958500D01*
X108348645Y-84958499D01*
X108348649Y-84958499D01*
X108409196Y-84951990D01*
X108409199Y-84951989D01*
X108409201Y-84951989D01*
X108546204Y-84900889D01*
X108663261Y-84813261D01*
X108704255Y-84758500D01*
X108750887Y-84696207D01*
X108750887Y-84696206D01*
X108750889Y-84696204D01*
X108801989Y-84559201D01*
X108808265Y-84500829D01*
X108808499Y-84498649D01*
X108808500Y-84498632D01*
X108808500Y-82201367D01*
X108808499Y-82201350D01*
X108801990Y-82140803D01*
X108801988Y-82140795D01*
X108757171Y-82020638D01*
X108750889Y-82003796D01*
X108750888Y-82003794D01*
X108750887Y-82003792D01*
X108663261Y-81886738D01*
X108546207Y-81799112D01*
X108546202Y-81799110D01*
X108409204Y-81748011D01*
X108409196Y-81748009D01*
X108348649Y-81741500D01*
X108348638Y-81741500D01*
X106051362Y-81741500D01*
X106051350Y-81741500D01*
X105990803Y-81748009D01*
X105990795Y-81748011D01*
X105853797Y-81799110D01*
X105853792Y-81799112D01*
X105736738Y-81886738D01*
X105649112Y-82003792D01*
X105649110Y-82003797D01*
X105598011Y-82140795D01*
X105598009Y-82140803D01*
X105591500Y-82201350D01*
X105591500Y-84498649D01*
X105598009Y-84559196D01*
X105598011Y-84559204D01*
X105649110Y-84696202D01*
X105649112Y-84696207D01*
X105736738Y-84813261D01*
X105853792Y-84900887D01*
X105853794Y-84900888D01*
X105853796Y-84900889D01*
X105912875Y-84922924D01*
X105990795Y-84951988D01*
X105990803Y-84951990D01*
X106051350Y-84958499D01*
X106051355Y-84958499D01*
X106051362Y-84958500D01*
X106363532Y-84958500D01*
X106431653Y-84978502D01*
X106478146Y-85032158D01*
X106488250Y-85102432D01*
X106458756Y-85167012D01*
X106435803Y-85187713D01*
X106355703Y-85243799D01*
X106355697Y-85243804D01*
X106193804Y-85405697D01*
X106193799Y-85405703D01*
X106062477Y-85593250D01*
X105965717Y-85800753D01*
X105965715Y-85800759D01*
X105906457Y-86021913D01*
X105886502Y-86250000D01*
X105906457Y-86478086D01*
X105965715Y-86699240D01*
X105965717Y-86699246D01*
X106062477Y-86906749D01*
X106167122Y-87056198D01*
X106193802Y-87094300D01*
X106355700Y-87256198D01*
X106543251Y-87387523D01*
X106750757Y-87484284D01*
X106971913Y-87543543D01*
X107200000Y-87563498D01*
X107428087Y-87543543D01*
X107649243Y-87484284D01*
X107856749Y-87387523D01*
X108044300Y-87256198D01*
X108206198Y-87094300D01*
X108217618Y-87077990D01*
X108228656Y-87062228D01*
X108284113Y-87017900D01*
X108331868Y-87008500D01*
X111165500Y-87008500D01*
X111233621Y-87028502D01*
X111280114Y-87082158D01*
X111291500Y-87134500D01*
X111291500Y-87601149D01*
X111298009Y-87661696D01*
X111298011Y-87661704D01*
X111349110Y-87798702D01*
X111349112Y-87798707D01*
X111436738Y-87915761D01*
X111553792Y-88003387D01*
X111553794Y-88003388D01*
X111553796Y-88003389D01*
X111612875Y-88025424D01*
X111690795Y-88054488D01*
X111690803Y-88054490D01*
X111751350Y-88060999D01*
X111751355Y-88060999D01*
X111751362Y-88061000D01*
X111751368Y-88061000D01*
X113848632Y-88061000D01*
X113848638Y-88061000D01*
X113848645Y-88060999D01*
X113848649Y-88060999D01*
X113909196Y-88054490D01*
X113909199Y-88054489D01*
X113909201Y-88054489D01*
X114046204Y-88003389D01*
X114046755Y-88002977D01*
X114163261Y-87915761D01*
X114250887Y-87798707D01*
X114250887Y-87798706D01*
X114250889Y-87798704D01*
X114301989Y-87661701D01*
X114308440Y-87601701D01*
X114308499Y-87601149D01*
X114308500Y-87601132D01*
X114308500Y-85598867D01*
X114308499Y-85598850D01*
X114301990Y-85538303D01*
X114301988Y-85538295D01*
X114257229Y-85418295D01*
X114250889Y-85401296D01*
X114250888Y-85401294D01*
X114250887Y-85401292D01*
X114163261Y-85284238D01*
X114046207Y-85196613D01*
X114046206Y-85196612D01*
X114046204Y-85196611D01*
X114029581Y-85190411D01*
X113972749Y-85147863D01*
X113947940Y-85081343D01*
X113963033Y-85011969D01*
X113971674Y-84998309D01*
X114097060Y-84825731D01*
X114201462Y-84620829D01*
X114272526Y-84402118D01*
X114308500Y-84174983D01*
X114308500Y-83945017D01*
X114272526Y-83717882D01*
X114201462Y-83499171D01*
X114097060Y-83294269D01*
X113961889Y-83108222D01*
X113961886Y-83108219D01*
X113961884Y-83108216D01*
X113799283Y-82945615D01*
X113799280Y-82945613D01*
X113799278Y-82945611D01*
X113724974Y-82891626D01*
X113681620Y-82835404D01*
X113675545Y-82764667D01*
X113708677Y-82701876D01*
X113724975Y-82687753D01*
X113798957Y-82634002D01*
X113961502Y-82471457D01*
X113961504Y-82471454D01*
X114096628Y-82285472D01*
X114200996Y-82080638D01*
X114200999Y-82080632D01*
X114272035Y-81862006D01*
X114285975Y-81774000D01*
X113288438Y-81774000D01*
X113312518Y-81732292D01*
X113350000Y-81592409D01*
X113350000Y-81447591D01*
X113312518Y-81307708D01*
X113288438Y-81266000D01*
X114285974Y-81266000D01*
X114272035Y-81177993D01*
X114200999Y-80959367D01*
X114200996Y-80959361D01*
X114096628Y-80754527D01*
X113961504Y-80568545D01*
X113961502Y-80568542D01*
X113798957Y-80405997D01*
X113798954Y-80405995D01*
X113612972Y-80270871D01*
X113408138Y-80166503D01*
X113408132Y-80166500D01*
X113189506Y-80095464D01*
X113054000Y-80074001D01*
X113054000Y-81031561D01*
X113012292Y-81007482D01*
X112872409Y-80970000D01*
X112727591Y-80970000D01*
X112587708Y-81007482D01*
X112546000Y-81031561D01*
X112546000Y-80074001D01*
X112410493Y-80095464D01*
X112191867Y-80166500D01*
X112191861Y-80166503D01*
X111987027Y-80270871D01*
X111801045Y-80405995D01*
X111801042Y-80405997D01*
X111638497Y-80568542D01*
X111638495Y-80568545D01*
X111503370Y-80754527D01*
X111419605Y-80918926D01*
X111370856Y-80970541D01*
X111301941Y-80987607D01*
X111234740Y-80964706D01*
X111218243Y-80950818D01*
X108245405Y-77977980D01*
X108211379Y-77915668D01*
X108208500Y-77888885D01*
X108208500Y-75700000D01*
X110086502Y-75700000D01*
X110106457Y-75928086D01*
X110165715Y-76149240D01*
X110165717Y-76149246D01*
X110262477Y-76356749D01*
X110367122Y-76506198D01*
X110393802Y-76544300D01*
X110555700Y-76706198D01*
X110743251Y-76837523D01*
X110950757Y-76934284D01*
X111171913Y-76993543D01*
X111400000Y-77013498D01*
X111628087Y-76993543D01*
X111849243Y-76934284D01*
X112056749Y-76837523D01*
X112244300Y-76706198D01*
X112406198Y-76544300D01*
X112537523Y-76356749D01*
X112634284Y-76149243D01*
X112693543Y-75928087D01*
X112713498Y-75700000D01*
X112693543Y-75471913D01*
X112634284Y-75250757D01*
X112537523Y-75043251D01*
X112406198Y-74855700D01*
X112244300Y-74693802D01*
X112056749Y-74562477D01*
X111951713Y-74513498D01*
X111849246Y-74465717D01*
X111849240Y-74465715D01*
X111731938Y-74434284D01*
X111628087Y-74406457D01*
X111400000Y-74386502D01*
X111171913Y-74406457D01*
X110950759Y-74465715D01*
X110950753Y-74465717D01*
X110743250Y-74562477D01*
X110555703Y-74693799D01*
X110555697Y-74693804D01*
X110393804Y-74855697D01*
X110393799Y-74855703D01*
X110262477Y-75043250D01*
X110165717Y-75250753D01*
X110165715Y-75250759D01*
X110106457Y-75471913D01*
X110086502Y-75700000D01*
X108208500Y-75700000D01*
X108208500Y-71962063D01*
X108228502Y-71893942D01*
X108252670Y-71866252D01*
X108286307Y-71837523D01*
X108340898Y-71790898D01*
X108365526Y-71762063D01*
X108373550Y-71752669D01*
X108433000Y-71713860D01*
X108469360Y-71708500D01*
X110519260Y-71708500D01*
X110587381Y-71728502D01*
X110591530Y-71731287D01*
X110676664Y-71790898D01*
X110743251Y-71837523D01*
X110950757Y-71934284D01*
X111171913Y-71993543D01*
X111400000Y-72013498D01*
X111628087Y-71993543D01*
X111849243Y-71934284D01*
X112056749Y-71837523D01*
X112244300Y-71706198D01*
X112406198Y-71544300D01*
X112537523Y-71356749D01*
X112634284Y-71149243D01*
X112693543Y-70928087D01*
X112713498Y-70700000D01*
X112693543Y-70471913D01*
X112634284Y-70250757D01*
X112537523Y-70043251D01*
X112431287Y-69891530D01*
X112408599Y-69824256D01*
X112408500Y-69819259D01*
X112408500Y-65734267D01*
X112428502Y-65666146D01*
X112479831Y-65620745D01*
X112556646Y-65583754D01*
X112768219Y-65439505D01*
X112955931Y-65265334D01*
X113115587Y-65065131D01*
X113243622Y-64843369D01*
X113243625Y-64843362D01*
X113332710Y-64616376D01*
X113376216Y-64560272D01*
X113443149Y-64536595D01*
X113512256Y-64552864D01*
X113561598Y-64603912D01*
X113567290Y-64616376D01*
X113656374Y-64843362D01*
X113656376Y-64843366D01*
X113784410Y-65065127D01*
X113784412Y-65065130D01*
X113784413Y-65065131D01*
X113944069Y-65265334D01*
X114131781Y-65439505D01*
X114131787Y-65439509D01*
X114343345Y-65583748D01*
X114343352Y-65583752D01*
X114343355Y-65583754D01*
X114420166Y-65620744D01*
X114574060Y-65694856D01*
X114574073Y-65694861D01*
X114818746Y-65770332D01*
X114818748Y-65770332D01*
X114818757Y-65770335D01*
X115071966Y-65808500D01*
X115071970Y-65808500D01*
X115328030Y-65808500D01*
X115328034Y-65808500D01*
X115581243Y-65770335D01*
X115581253Y-65770332D01*
X115825929Y-65694860D01*
X115825930Y-65694859D01*
X115825935Y-65694858D01*
X116056646Y-65583754D01*
X116268219Y-65439505D01*
X116455931Y-65265334D01*
X116615587Y-65065131D01*
X116743622Y-64843369D01*
X116743625Y-64843362D01*
X116832710Y-64616376D01*
X116876216Y-64560272D01*
X116943149Y-64536595D01*
X117012256Y-64552864D01*
X117061598Y-64603912D01*
X117067290Y-64616376D01*
X117156374Y-64843362D01*
X117156376Y-64843366D01*
X117284410Y-65065127D01*
X117444072Y-65265338D01*
X117533792Y-65348585D01*
X117631781Y-65439505D01*
X117636471Y-65442703D01*
X117681491Y-65497599D01*
X117691500Y-65546813D01*
X117691500Y-68680075D01*
X117671498Y-68748196D01*
X117654598Y-68769166D01*
X117614651Y-68809114D01*
X117552339Y-68843138D01*
X117515672Y-68845629D01*
X117400000Y-68836526D01*
X117147597Y-68856391D01*
X116901410Y-68915494D01*
X116667499Y-69012383D01*
X116451625Y-69144671D01*
X116259102Y-69309102D01*
X116094671Y-69501625D01*
X115962383Y-69717499D01*
X115865494Y-69951410D01*
X115806391Y-70197597D01*
X115786526Y-70450000D01*
X115806391Y-70702402D01*
X115865494Y-70948589D01*
X115948338Y-71148591D01*
X115962384Y-71182502D01*
X116094672Y-71398376D01*
X116255741Y-71586963D01*
X116259104Y-71590900D01*
X116347330Y-71666252D01*
X116386139Y-71725702D01*
X116391500Y-71762063D01*
X116391500Y-78554331D01*
X116411059Y-78652661D01*
X116430256Y-78749169D01*
X116466435Y-78836513D01*
X116506279Y-78932704D01*
X116616647Y-79097881D01*
X116616649Y-79097883D01*
X118978847Y-81460081D01*
X119012873Y-81522393D01*
X119011945Y-81535364D01*
X119076332Y-81559378D01*
X119089918Y-81571152D01*
X121454595Y-83935829D01*
X121488621Y-83998141D01*
X121491500Y-84024924D01*
X121491500Y-84114983D01*
X121501003Y-84174983D01*
X121527474Y-84342120D01*
X121546969Y-84402118D01*
X121598538Y-84560829D01*
X121598539Y-84560832D01*
X121598541Y-84560836D01*
X121672369Y-84705731D01*
X121702940Y-84765731D01*
X121823927Y-84932256D01*
X121828316Y-84938296D01*
X121852174Y-85005164D01*
X121836094Y-85074315D01*
X121785180Y-85123795D01*
X121770417Y-85130411D01*
X121753795Y-85136611D01*
X121753792Y-85136612D01*
X121636739Y-85224238D01*
X121624186Y-85241008D01*
X121567350Y-85283555D01*
X121523317Y-85291500D01*
X118531868Y-85291500D01*
X118463747Y-85271498D01*
X118428656Y-85237772D01*
X118406547Y-85206198D01*
X118406198Y-85205700D01*
X118244300Y-85043802D01*
X118212225Y-85021343D01*
X118164197Y-84987713D01*
X118119869Y-84932256D01*
X118112560Y-84861636D01*
X118144591Y-84798276D01*
X118205792Y-84762291D01*
X118236468Y-84758500D01*
X118548632Y-84758500D01*
X118548638Y-84758500D01*
X118548645Y-84758499D01*
X118548649Y-84758499D01*
X118609196Y-84751990D01*
X118609199Y-84751989D01*
X118609201Y-84751989D01*
X118746204Y-84700889D01*
X118752459Y-84696207D01*
X118863261Y-84613261D01*
X118950887Y-84496207D01*
X118950887Y-84496206D01*
X118950889Y-84496204D01*
X119001989Y-84359201D01*
X119003826Y-84342120D01*
X119008499Y-84298649D01*
X119008500Y-84298632D01*
X119008500Y-82001367D01*
X119008499Y-82001350D01*
X119001990Y-81940803D01*
X119001988Y-81940795D01*
X118970997Y-81857708D01*
X118950889Y-81803796D01*
X118950888Y-81803794D01*
X118950887Y-81803792D01*
X118899955Y-81735756D01*
X118875341Y-81669764D01*
X118829367Y-81659764D01*
X118814243Y-81650044D01*
X118746207Y-81599112D01*
X118746202Y-81599110D01*
X118609204Y-81548011D01*
X118609196Y-81548009D01*
X118548649Y-81541500D01*
X118548638Y-81541500D01*
X116251362Y-81541500D01*
X116251350Y-81541500D01*
X116190803Y-81548009D01*
X116190795Y-81548011D01*
X116053797Y-81599110D01*
X116053792Y-81599112D01*
X115936738Y-81686738D01*
X115849112Y-81803792D01*
X115849110Y-81803797D01*
X115798011Y-81940795D01*
X115798009Y-81940803D01*
X115791500Y-82001350D01*
X115791500Y-84298649D01*
X115798009Y-84359196D01*
X115798011Y-84359204D01*
X115849110Y-84496202D01*
X115849112Y-84496207D01*
X115936738Y-84613261D01*
X116053792Y-84700887D01*
X116053794Y-84700888D01*
X116053796Y-84700889D01*
X116112875Y-84722924D01*
X116190795Y-84751988D01*
X116190803Y-84751990D01*
X116251350Y-84758499D01*
X116251355Y-84758499D01*
X116251362Y-84758500D01*
X116563532Y-84758500D01*
X116631653Y-84778502D01*
X116678146Y-84832158D01*
X116688250Y-84902432D01*
X116658756Y-84967012D01*
X116635803Y-84987713D01*
X116555703Y-85043799D01*
X116555697Y-85043804D01*
X116393804Y-85205697D01*
X116393799Y-85205703D01*
X116262477Y-85393250D01*
X116165717Y-85600753D01*
X116165715Y-85600759D01*
X116106457Y-85821913D01*
X116086502Y-86050000D01*
X116106457Y-86278086D01*
X116165715Y-86499240D01*
X116165717Y-86499246D01*
X116262477Y-86706749D01*
X116347729Y-86828502D01*
X116393802Y-86894300D01*
X116555700Y-87056198D01*
X116743251Y-87187523D01*
X116950757Y-87284284D01*
X117171913Y-87343543D01*
X117400000Y-87363498D01*
X117628087Y-87343543D01*
X117849243Y-87284284D01*
X118056749Y-87187523D01*
X118244300Y-87056198D01*
X118406198Y-86894300D01*
X118417618Y-86877990D01*
X118428656Y-86862228D01*
X118484113Y-86817900D01*
X118531868Y-86808500D01*
X121365500Y-86808500D01*
X121433621Y-86828502D01*
X121480114Y-86882158D01*
X121491500Y-86934500D01*
X121491500Y-87541149D01*
X121498009Y-87601696D01*
X121498011Y-87601704D01*
X121549110Y-87738702D01*
X121549112Y-87738707D01*
X121636738Y-87855761D01*
X121753792Y-87943387D01*
X121753794Y-87943388D01*
X121753796Y-87943389D01*
X121812875Y-87965424D01*
X121890795Y-87994488D01*
X121890803Y-87994490D01*
X121951350Y-88000999D01*
X121951355Y-88000999D01*
X121951362Y-88001000D01*
X121951368Y-88001000D01*
X124048632Y-88001000D01*
X124048638Y-88001000D01*
X124048645Y-88000999D01*
X124048649Y-88000999D01*
X124109196Y-87994490D01*
X124109199Y-87994489D01*
X124109201Y-87994489D01*
X124246204Y-87943389D01*
X124249396Y-87941000D01*
X124363261Y-87855761D01*
X124450887Y-87738707D01*
X124450887Y-87738706D01*
X124450889Y-87738704D01*
X124501989Y-87601701D01*
X124502049Y-87601149D01*
X124508499Y-87541149D01*
X124508500Y-87541132D01*
X124508500Y-85538867D01*
X124508499Y-85538850D01*
X124501990Y-85478303D01*
X124501988Y-85478295D01*
X124450889Y-85341297D01*
X124450887Y-85341292D01*
X124363261Y-85224238D01*
X124246207Y-85136613D01*
X124246206Y-85136612D01*
X124246204Y-85136611D01*
X124229581Y-85130411D01*
X124172749Y-85087863D01*
X124147940Y-85021343D01*
X124163033Y-84951969D01*
X124171674Y-84938309D01*
X124297060Y-84765731D01*
X124401462Y-84560829D01*
X124472526Y-84342118D01*
X124508500Y-84114983D01*
X124508500Y-83885017D01*
X124472526Y-83657882D01*
X124401462Y-83439171D01*
X124297060Y-83234269D01*
X124161889Y-83048222D01*
X124161886Y-83048219D01*
X124161884Y-83048216D01*
X123999283Y-82885615D01*
X123999280Y-82885613D01*
X123999278Y-82885611D01*
X123924974Y-82831626D01*
X123881620Y-82775404D01*
X123875545Y-82704667D01*
X123908677Y-82641876D01*
X123924975Y-82627753D01*
X123998957Y-82574002D01*
X124161502Y-82411457D01*
X124161504Y-82411454D01*
X124296628Y-82225472D01*
X124400996Y-82020638D01*
X124400999Y-82020632D01*
X124472035Y-81802006D01*
X124485975Y-81714000D01*
X123488438Y-81714000D01*
X123512518Y-81672292D01*
X123550000Y-81532409D01*
X123550000Y-81387591D01*
X123512518Y-81247708D01*
X123488438Y-81206000D01*
X124485974Y-81206000D01*
X124472035Y-81117993D01*
X124400999Y-80899367D01*
X124400996Y-80899361D01*
X124296628Y-80694527D01*
X124161504Y-80508545D01*
X124161502Y-80508542D01*
X123998957Y-80345997D01*
X123998954Y-80345995D01*
X123812972Y-80210871D01*
X123608138Y-80106503D01*
X123608132Y-80106500D01*
X123389506Y-80035464D01*
X123254000Y-80014001D01*
X123254000Y-80971561D01*
X123212292Y-80947482D01*
X123072409Y-80910000D01*
X122927591Y-80910000D01*
X122787708Y-80947482D01*
X122746000Y-80971561D01*
X122746000Y-80014001D01*
X122610493Y-80035464D01*
X122391867Y-80106500D01*
X122391861Y-80106503D01*
X122187027Y-80210871D01*
X122001045Y-80345995D01*
X122001042Y-80345997D01*
X121838497Y-80508542D01*
X121838495Y-80508545D01*
X121703371Y-80694527D01*
X121599003Y-80899361D01*
X121598998Y-80899372D01*
X121582001Y-80951683D01*
X121541927Y-81010288D01*
X121476530Y-81037924D01*
X121406573Y-81025816D01*
X121373074Y-81001840D01*
X118445405Y-78074171D01*
X118411379Y-78011859D01*
X118408500Y-77985076D01*
X118408500Y-75500000D01*
X120286502Y-75500000D01*
X120306457Y-75728087D01*
X120365716Y-75949243D01*
X120462477Y-76156749D01*
X120593802Y-76344300D01*
X120755700Y-76506198D01*
X120943251Y-76637523D01*
X121150757Y-76734284D01*
X121371913Y-76793543D01*
X121600000Y-76813498D01*
X121828087Y-76793543D01*
X122049243Y-76734284D01*
X122256749Y-76637523D01*
X122444300Y-76506198D01*
X122606198Y-76344300D01*
X122737523Y-76156749D01*
X122834284Y-75949243D01*
X122893543Y-75728087D01*
X122913498Y-75500000D01*
X122893543Y-75271913D01*
X122834284Y-75050757D01*
X122737523Y-74843251D01*
X122606198Y-74655700D01*
X122444300Y-74493802D01*
X122256749Y-74362477D01*
X122203235Y-74337523D01*
X122049246Y-74265717D01*
X122049240Y-74265715D01*
X121955771Y-74240670D01*
X121828087Y-74206457D01*
X121600000Y-74186502D01*
X121371913Y-74206457D01*
X121150759Y-74265715D01*
X121150753Y-74265717D01*
X120943250Y-74362477D01*
X120755703Y-74493799D01*
X120755697Y-74493804D01*
X120593804Y-74655697D01*
X120593799Y-74655703D01*
X120462477Y-74843250D01*
X120365717Y-75050753D01*
X120365716Y-75050757D01*
X120306457Y-75271913D01*
X120286502Y-75500000D01*
X118408500Y-75500000D01*
X118408500Y-71762063D01*
X118428502Y-71693942D01*
X118452670Y-71666252D01*
X118486307Y-71637523D01*
X118540898Y-71590898D01*
X118616253Y-71502669D01*
X118675704Y-71463860D01*
X118712064Y-71458500D01*
X120655812Y-71458500D01*
X120723933Y-71478502D01*
X120744907Y-71495405D01*
X120755700Y-71506198D01*
X120943251Y-71637523D01*
X121150757Y-71734284D01*
X121371913Y-71793543D01*
X121600000Y-71813498D01*
X121828087Y-71793543D01*
X122049243Y-71734284D01*
X122256749Y-71637523D01*
X122444300Y-71506198D01*
X122606198Y-71344300D01*
X122737523Y-71156749D01*
X122834284Y-70949243D01*
X122893543Y-70728087D01*
X122913498Y-70500000D01*
X122893543Y-70271913D01*
X122834284Y-70050757D01*
X122737523Y-69843251D01*
X122606198Y-69655700D01*
X122444300Y-69493802D01*
X122341039Y-69421498D01*
X122256749Y-69362477D01*
X122049246Y-69265717D01*
X122049240Y-69265715D01*
X121955771Y-69240670D01*
X121828087Y-69206457D01*
X121600000Y-69186502D01*
X121371913Y-69206457D01*
X121150759Y-69265715D01*
X121150753Y-69265717D01*
X120943255Y-69362474D01*
X120935589Y-69367842D01*
X120880442Y-69406457D01*
X120862937Y-69418714D01*
X120795663Y-69441401D01*
X120790667Y-69441500D01*
X119823807Y-69441500D01*
X119755686Y-69421498D01*
X119709193Y-69367842D01*
X119699089Y-69297568D01*
X119700228Y-69290920D01*
X119708499Y-69249336D01*
X119708500Y-69249327D01*
X119708500Y-65546813D01*
X119728502Y-65478692D01*
X119763527Y-65442703D01*
X119768219Y-65439505D01*
X119955931Y-65265334D01*
X120115587Y-65065131D01*
X120243622Y-64843369D01*
X120243625Y-64843362D01*
X120332710Y-64616376D01*
X120376216Y-64560272D01*
X120443149Y-64536595D01*
X120512256Y-64552864D01*
X120561598Y-64603912D01*
X120567290Y-64616376D01*
X120656374Y-64843362D01*
X120656376Y-64843366D01*
X120784410Y-65065127D01*
X120784412Y-65065130D01*
X120784413Y-65065131D01*
X120944069Y-65265334D01*
X121131781Y-65439505D01*
X121131787Y-65439509D01*
X121343345Y-65583748D01*
X121343352Y-65583752D01*
X121343355Y-65583754D01*
X121420166Y-65620744D01*
X121574060Y-65694856D01*
X121574073Y-65694861D01*
X121818746Y-65770332D01*
X121818748Y-65770332D01*
X121818757Y-65770335D01*
X122071966Y-65808500D01*
X122071970Y-65808500D01*
X122328030Y-65808500D01*
X122328034Y-65808500D01*
X122581243Y-65770335D01*
X122581253Y-65770332D01*
X122825929Y-65694860D01*
X122825930Y-65694859D01*
X122825935Y-65694858D01*
X123056646Y-65583754D01*
X123268219Y-65439505D01*
X123455931Y-65265334D01*
X123615587Y-65065131D01*
X123743622Y-64843369D01*
X123743627Y-64843358D01*
X123799890Y-64700000D01*
X123837174Y-64605001D01*
X123894155Y-64355353D01*
X123913291Y-64100000D01*
X123894155Y-63844647D01*
X123837174Y-63594999D01*
X123799890Y-63500000D01*
X123743625Y-63356637D01*
X123743623Y-63356633D01*
X123738558Y-63347861D01*
X123615587Y-63134869D01*
X123455931Y-62934666D01*
X123268219Y-62760495D01*
X123056646Y-62616246D01*
X123056643Y-62616245D01*
X123056641Y-62616243D01*
X123056640Y-62616242D01*
X122825936Y-62505142D01*
X122825929Y-62505139D01*
X122581253Y-62429667D01*
X122581245Y-62429665D01*
X122581243Y-62429665D01*
X122328034Y-62391500D01*
X122071966Y-62391500D01*
X121818757Y-62429665D01*
X121818755Y-62429665D01*
X121818746Y-62429667D01*
X121574073Y-62505138D01*
X121574060Y-62505143D01*
X121343352Y-62616247D01*
X121343345Y-62616251D01*
X121131787Y-62760490D01*
X121131782Y-62760494D01*
X120944070Y-62934665D01*
X120784410Y-63134872D01*
X120656376Y-63356633D01*
X120656374Y-63356637D01*
X120567290Y-63583623D01*
X120523784Y-63639727D01*
X120456851Y-63663404D01*
X120387744Y-63647135D01*
X120338402Y-63596087D01*
X120332710Y-63583623D01*
X120243625Y-63356637D01*
X120243623Y-63356633D01*
X120238558Y-63347861D01*
X120115587Y-63134869D01*
X119955931Y-62934666D01*
X119768219Y-62760495D01*
X119556646Y-62616246D01*
X119556643Y-62616245D01*
X119556641Y-62616243D01*
X119556640Y-62616242D01*
X119325936Y-62505142D01*
X119325929Y-62505139D01*
X119081253Y-62429667D01*
X119081245Y-62429665D01*
X119081243Y-62429665D01*
X118828034Y-62391500D01*
X118571966Y-62391500D01*
X118318757Y-62429665D01*
X118318755Y-62429665D01*
X118318746Y-62429667D01*
X118074073Y-62505138D01*
X118074060Y-62505143D01*
X117843352Y-62616247D01*
X117843345Y-62616251D01*
X117631787Y-62760490D01*
X117631782Y-62760494D01*
X117444070Y-62934665D01*
X117284410Y-63134872D01*
X117156376Y-63356633D01*
X117156374Y-63356637D01*
X117067290Y-63583623D01*
X117023784Y-63639727D01*
X116956851Y-63663404D01*
X116887744Y-63647135D01*
X116838402Y-63596087D01*
X116832710Y-63583623D01*
X116743625Y-63356637D01*
X116743623Y-63356633D01*
X116738558Y-63347861D01*
X116615587Y-63134869D01*
X116455931Y-62934666D01*
X116268219Y-62760495D01*
X116056646Y-62616246D01*
X116056643Y-62616245D01*
X116056641Y-62616243D01*
X116056640Y-62616242D01*
X115825936Y-62505142D01*
X115825929Y-62505139D01*
X115581253Y-62429667D01*
X115581245Y-62429665D01*
X115581243Y-62429665D01*
X115328034Y-62391500D01*
X115071966Y-62391500D01*
X114818757Y-62429665D01*
X114818755Y-62429665D01*
X114818746Y-62429667D01*
X114574073Y-62505138D01*
X114574060Y-62505143D01*
X114343352Y-62616247D01*
X114343345Y-62616251D01*
X114131787Y-62760490D01*
X114131782Y-62760494D01*
X113944070Y-62934665D01*
X113784410Y-63134872D01*
X113656376Y-63356633D01*
X113656374Y-63356637D01*
X113567290Y-63583623D01*
X113523784Y-63639727D01*
X113456851Y-63663404D01*
X113387744Y-63647135D01*
X113338402Y-63596087D01*
X113332710Y-63583623D01*
X113243625Y-63356637D01*
X113243623Y-63356633D01*
X113238558Y-63347861D01*
X113115587Y-63134869D01*
X112955931Y-62934666D01*
X112768219Y-62760495D01*
X112556646Y-62616246D01*
X112556643Y-62616245D01*
X112556641Y-62616243D01*
X112556640Y-62616242D01*
X112325936Y-62505142D01*
X112325929Y-62505139D01*
X112081253Y-62429667D01*
X112081245Y-62429665D01*
X112081243Y-62429665D01*
X111828034Y-62391500D01*
X111571966Y-62391500D01*
X111318757Y-62429665D01*
X111318755Y-62429665D01*
X111318746Y-62429667D01*
X111074073Y-62505138D01*
X111074060Y-62505143D01*
X110843352Y-62616247D01*
X110843345Y-62616251D01*
X110631787Y-62760490D01*
X110631782Y-62760494D01*
X110444070Y-62934665D01*
X110284410Y-63134872D01*
X110156376Y-63356633D01*
X110156374Y-63356637D01*
X110067290Y-63583623D01*
X110023784Y-63639727D01*
X109956851Y-63663404D01*
X109887744Y-63647135D01*
X109838402Y-63596087D01*
X109832710Y-63583623D01*
X109743625Y-63356637D01*
X109743623Y-63356633D01*
X109738558Y-63347861D01*
X109615587Y-63134869D01*
X109455931Y-62934666D01*
X109268219Y-62760495D01*
X109056646Y-62616246D01*
X109056643Y-62616245D01*
X109056641Y-62616243D01*
X109056640Y-62616242D01*
X108825936Y-62505142D01*
X108825929Y-62505139D01*
X108581253Y-62429667D01*
X108581245Y-62429665D01*
X108581243Y-62429665D01*
X108328034Y-62391500D01*
X108071966Y-62391500D01*
X107818757Y-62429665D01*
X107818755Y-62429665D01*
X107818746Y-62429667D01*
X107574073Y-62505138D01*
X107574060Y-62505143D01*
X107343352Y-62616247D01*
X107343345Y-62616251D01*
X107131787Y-62760490D01*
X107131782Y-62760494D01*
X106944070Y-62934665D01*
X106784410Y-63134872D01*
X106656376Y-63356633D01*
X106656374Y-63356637D01*
X106567290Y-63583623D01*
X106523784Y-63639727D01*
X106456851Y-63663404D01*
X106387744Y-63647135D01*
X106338402Y-63596087D01*
X106332710Y-63583623D01*
X106243625Y-63356637D01*
X106243623Y-63356633D01*
X106238558Y-63347861D01*
X106115587Y-63134869D01*
X105955931Y-62934666D01*
X105768219Y-62760495D01*
X105556646Y-62616246D01*
X105556643Y-62616245D01*
X105556641Y-62616243D01*
X105556640Y-62616242D01*
X105325936Y-62505142D01*
X105325929Y-62505139D01*
X105081253Y-62429667D01*
X105081245Y-62429665D01*
X105081243Y-62429665D01*
X104828034Y-62391500D01*
X104571966Y-62391500D01*
X104318757Y-62429665D01*
X104318755Y-62429665D01*
X104318746Y-62429667D01*
X104074073Y-62505138D01*
X104074060Y-62505143D01*
X103843352Y-62616247D01*
X103843345Y-62616251D01*
X103631787Y-62760490D01*
X103631782Y-62760494D01*
X103444070Y-62934665D01*
X103284410Y-63134872D01*
X103156376Y-63356633D01*
X103156374Y-63356637D01*
X103067290Y-63583623D01*
X103023784Y-63639727D01*
X102956851Y-63663404D01*
X102887744Y-63647135D01*
X102838402Y-63596087D01*
X102832710Y-63583623D01*
X102743625Y-63356637D01*
X102743623Y-63356633D01*
X102738558Y-63347861D01*
X102615587Y-63134869D01*
X102455931Y-62934666D01*
X102268219Y-62760495D01*
X102056646Y-62616246D01*
X102056643Y-62616245D01*
X102056641Y-62616243D01*
X102056640Y-62616242D01*
X101825936Y-62505142D01*
X101825929Y-62505139D01*
X101581253Y-62429667D01*
X101581245Y-62429665D01*
X101581243Y-62429665D01*
X101328034Y-62391500D01*
X101071966Y-62391500D01*
X100818757Y-62429665D01*
X100818755Y-62429665D01*
X100818746Y-62429667D01*
X100574073Y-62505138D01*
X100574060Y-62505143D01*
X100343352Y-62616247D01*
X100343345Y-62616251D01*
X100131787Y-62760490D01*
X100131782Y-62760494D01*
X99944070Y-62934665D01*
X99784410Y-63134872D01*
X99656376Y-63356633D01*
X99656374Y-63356637D01*
X99567290Y-63583623D01*
X99523784Y-63639727D01*
X99456851Y-63663404D01*
X99387744Y-63647135D01*
X99338402Y-63596087D01*
X99332710Y-63583623D01*
X99243625Y-63356637D01*
X99243623Y-63356633D01*
X99238558Y-63347861D01*
X99115587Y-63134869D01*
X98955931Y-62934666D01*
X98768219Y-62760495D01*
X98556646Y-62616246D01*
X98556643Y-62616245D01*
X98556641Y-62616243D01*
X98556640Y-62616242D01*
X98325936Y-62505142D01*
X98325929Y-62505139D01*
X98081253Y-62429667D01*
X98081245Y-62429665D01*
X98081243Y-62429665D01*
X97828034Y-62391500D01*
X97571966Y-62391500D01*
X97318757Y-62429665D01*
X97318755Y-62429665D01*
X97318746Y-62429667D01*
X97074073Y-62505138D01*
X97074060Y-62505143D01*
X96843352Y-62616247D01*
X96843345Y-62616251D01*
X96631787Y-62760490D01*
X96631782Y-62760494D01*
X96444070Y-62934665D01*
X96284410Y-63134872D01*
X96156376Y-63356633D01*
X96156376Y-63356634D01*
X96151290Y-63369594D01*
X96107782Y-63425698D01*
X96040850Y-63449374D01*
X95971742Y-63433104D01*
X95922401Y-63382055D01*
X95908000Y-63323560D01*
X95908000Y-62851414D01*
X95907999Y-62851402D01*
X95901494Y-62790906D01*
X95850444Y-62654035D01*
X95850444Y-62654034D01*
X95762904Y-62537095D01*
X95645965Y-62449555D01*
X95509093Y-62398505D01*
X95448597Y-62392000D01*
X94454000Y-62392000D01*
X94454000Y-63553826D01*
X94431591Y-63540889D01*
X94278991Y-63500000D01*
X94121009Y-63500000D01*
X93968409Y-63540889D01*
X93946000Y-63553826D01*
X93946000Y-62392000D01*
X92951402Y-62392000D01*
X92890906Y-62398505D01*
X92754035Y-62449555D01*
X92754034Y-62449555D01*
X92637095Y-62537095D01*
X92549555Y-62654034D01*
X92549555Y-62654035D01*
X92498505Y-62790906D01*
X92492000Y-62851402D01*
X90803943Y-62851402D01*
X90666424Y-62620615D01*
X90666421Y-62620610D01*
X90387255Y-62229612D01*
X90085673Y-61873534D01*
X87845057Y-64114150D01*
X87779066Y-64031399D01*
X87568601Y-63820934D01*
X87485848Y-63754941D01*
X89726464Y-61514325D01*
X89370387Y-61212744D01*
X88979389Y-60933578D01*
X88979384Y-60933575D01*
X88566669Y-60687650D01*
X88566664Y-60687648D01*
X88135046Y-60476643D01*
X87687459Y-60301994D01*
X87501937Y-60246762D01*
X87442356Y-60208154D01*
X87413106Y-60143463D01*
X87423474Y-60073227D01*
X87470168Y-60019747D01*
X87537890Y-60000000D01*
X124874000Y-60000000D01*
X124942121Y-60020002D01*
G37*
%TD.AperFunction*%
%TA.AperFunction,Conductor*%
G36*
X124926773Y-120823473D02*
G01*
X124980253Y-120870167D01*
X125000000Y-120937889D01*
X125000000Y-124874000D01*
X124979998Y-124942121D01*
X124926342Y-124988614D01*
X124874000Y-125000000D01*
X120937890Y-125000000D01*
X120869769Y-124979998D01*
X120823276Y-124926342D01*
X120813172Y-124856068D01*
X120842666Y-124791488D01*
X120901937Y-124753238D01*
X121087459Y-124698005D01*
X121535046Y-124523356D01*
X121966664Y-124312351D01*
X121966669Y-124312349D01*
X122379384Y-124066424D01*
X122379389Y-124066421D01*
X122770394Y-123787249D01*
X123126463Y-123485673D01*
X123126464Y-123485673D01*
X120885849Y-121245058D01*
X120968601Y-121179066D01*
X121179066Y-120968601D01*
X121245058Y-120885849D01*
X123485673Y-123126464D01*
X123485673Y-123126463D01*
X123787249Y-122770394D01*
X124066421Y-122379389D01*
X124066424Y-122379384D01*
X124312349Y-121966669D01*
X124312351Y-121966664D01*
X124523356Y-121535046D01*
X124698006Y-121087456D01*
X124753238Y-120901937D01*
X124791846Y-120842355D01*
X124856537Y-120813105D01*
X124926773Y-120823473D01*
G37*
%TD.AperFunction*%
%TA.AperFunction,Conductor*%
G36*
X84130231Y-60020002D02*
G01*
X84176724Y-60073658D01*
X84186828Y-60143932D01*
X84157334Y-60208512D01*
X84098063Y-60246762D01*
X83912540Y-60301994D01*
X83464953Y-60476643D01*
X83033335Y-60687648D01*
X83033330Y-60687650D01*
X82620615Y-60933575D01*
X82620610Y-60933578D01*
X82229606Y-61212749D01*
X81873535Y-61514324D01*
X81873534Y-61514325D01*
X84114150Y-63754941D01*
X84031399Y-63820934D01*
X83820934Y-64031399D01*
X83754941Y-64114150D01*
X81514325Y-61873534D01*
X81514324Y-61873535D01*
X81212749Y-62229606D01*
X80933578Y-62620610D01*
X80933575Y-62620615D01*
X80687650Y-63033330D01*
X80687648Y-63033335D01*
X80476643Y-63464953D01*
X80301994Y-63912540D01*
X80246762Y-64098063D01*
X80208154Y-64157644D01*
X80143463Y-64186894D01*
X80073227Y-64176526D01*
X80019747Y-64129832D01*
X80000000Y-64062110D01*
X80000000Y-60126000D01*
X80020002Y-60057879D01*
X80073658Y-60011386D01*
X80126000Y-60000000D01*
X84062110Y-60000000D01*
X84130231Y-60020002D01*
G37*
%TD.AperFunction*%
%TD*%
M02*
