%TF.GenerationSoftware,KiCad,Pcbnew,(6.0.5)*%
%TF.CreationDate,2024-08-08T10:41:32-06:00*%
%TF.ProjectId,oil-lamp-safety,6f696c2d-6c61-46d7-902d-736166657479,v0.1*%
%TF.SameCoordinates,Original*%
%TF.FileFunction,Copper,L1,Top*%
%TF.FilePolarity,Positive*%
%FSLAX46Y46*%
G04 Gerber Fmt 4.6, Leading zero omitted, Abs format (unit mm)*
G04 Created by KiCad (PCBNEW (6.0.5)) date 2024-08-08 10:41:32*
%MOMM*%
%LPD*%
G01*
G04 APERTURE LIST*
%TA.AperFunction,ComponentPad*%
%ADD10C,9.500000*%
%TD*%
%TA.AperFunction,ComponentPad*%
%ADD11R,1.800000X1.800000*%
%TD*%
%TA.AperFunction,ComponentPad*%
%ADD12C,1.800000*%
%TD*%
%TA.AperFunction,ComponentPad*%
%ADD13R,2.400000X1.600000*%
%TD*%
%TA.AperFunction,ComponentPad*%
%ADD14O,2.400000X1.600000*%
%TD*%
%TA.AperFunction,ComponentPad*%
%ADD15O,1.600000X1.600000*%
%TD*%
%TA.AperFunction,ComponentPad*%
%ADD16C,1.600000*%
%TD*%
%TA.AperFunction,ComponentPad*%
%ADD17R,2.000000X1.905000*%
%TD*%
%TA.AperFunction,ComponentPad*%
%ADD18O,2.000000X1.905000*%
%TD*%
%TA.AperFunction,ComponentPad*%
%ADD19R,2.400000X2.400000*%
%TD*%
%TA.AperFunction,ComponentPad*%
%ADD20C,2.400000*%
%TD*%
%TA.AperFunction,ComponentPad*%
%ADD21C,2.000000*%
%TD*%
%TA.AperFunction,ComponentPad*%
%ADD22R,2.200000X2.200000*%
%TD*%
%TA.AperFunction,ComponentPad*%
%ADD23O,2.200000X2.200000*%
%TD*%
%TA.AperFunction,ComponentPad*%
%ADD24R,1.600000X1.600000*%
%TD*%
%TA.AperFunction,ComponentPad*%
%ADD25R,2.000000X2.000000*%
%TD*%
%TA.AperFunction,ViaPad*%
%ADD26C,1.500000*%
%TD*%
%TA.AperFunction,Conductor*%
%ADD27C,1.000000*%
%TD*%
%TA.AperFunction,Conductor*%
%ADD28C,0.500000*%
%TD*%
G04 APERTURE END LIST*
D10*
%TO.P,REF\u002A\u002A,1*%
%TO.N,12V_GND*%
X119600000Y-119600000D03*
%TD*%
%TO.P,REF\u002A\u002A,1*%
%TO.N,12V_GND*%
X85400000Y-65400000D03*
%TD*%
D11*
%TO.P,D4,1,K*%
%TO.N,Net-(D4-Pad1)*%
X100400000Y-110000000D03*
D12*
%TO.P,D4,2,A*%
%TO.N,OIL_LOW*%
X97860000Y-110000000D03*
%TD*%
D11*
%TO.P,D3,1,K*%
%TO.N,Net-(D3-Pad1)*%
X110875000Y-110000000D03*
D12*
%TO.P,D3,2,A*%
%TO.N,LOCKOUT*%
X108335000Y-110000000D03*
%TD*%
D11*
%TO.P,D2,1,K*%
%TO.N,Net-(D2-Pad1)*%
X121275000Y-110000000D03*
D12*
%TO.P,D2,2,A*%
%TO.N,RUN*%
X118735000Y-110000000D03*
%TD*%
D13*
%TO.P,U1,1*%
%TO.N,Net-(C2-Pad1)*%
X83775000Y-107375000D03*
D14*
%TO.P,U1,2*%
%TO.N,RUN*%
X83775000Y-109915000D03*
%TO.P,U1,3*%
%TO.N,LOCKOUT*%
X83775000Y-112455000D03*
%TO.P,U1,4*%
%TO.N,RUN*%
X83775000Y-114995000D03*
%TO.P,U1,5*%
%TO.N,LOCKOUT*%
X83775000Y-117535000D03*
%TO.P,U1,6*%
X83775000Y-120075000D03*
%TO.P,U1,7,GND*%
%TO.N,12V_GND*%
X83775000Y-122615000D03*
%TO.P,U1,8*%
%TO.N,Net-(C2-Pad1)*%
X91395000Y-122615000D03*
%TO.P,U1,9*%
X91395000Y-120075000D03*
%TO.P,U1,10*%
%TO.N,OIL_LOW*%
X91395000Y-117535000D03*
%TO.P,U1,11*%
%TO.N,unconnected-(U1-Pad11)*%
X91395000Y-114995000D03*
%TO.P,U1,12*%
%TO.N,12V_GND*%
X91395000Y-112455000D03*
%TO.P,U1,13*%
X91395000Y-109915000D03*
%TO.P,U1,14,VCC*%
%TO.N,OIL_BUZZER_OUT_12V*%
X91395000Y-107375000D03*
%TD*%
D15*
%TO.P,R10,2*%
%TO.N,Net-(Q3-Pad1)*%
X117400000Y-86050000D03*
D16*
%TO.P,R10,1*%
%TO.N,RUN*%
X117400000Y-98750000D03*
%TD*%
D15*
%TO.P,R9,2*%
%TO.N,Net-(Q2-Pad1)*%
X107200000Y-86250000D03*
D16*
%TO.P,R9,1*%
%TO.N,LOCKOUT*%
X107200000Y-98950000D03*
%TD*%
D15*
%TO.P,R8,2*%
%TO.N,Net-(Q1-Pad1)*%
X97400000Y-86250000D03*
D16*
%TO.P,R8,1*%
%TO.N,OIL_LOW*%
X97400000Y-98950000D03*
%TD*%
D15*
%TO.P,R7,2*%
%TO.N,12V_GND*%
X102000000Y-91050000D03*
D16*
%TO.P,R7,1*%
%TO.N,Net-(D4-Pad1)*%
X102000000Y-103750000D03*
%TD*%
%TO.P,R6,1*%
%TO.N,Net-(D3-Pad1)*%
X112000000Y-103750000D03*
D15*
%TO.P,R6,2*%
%TO.N,12V_GND*%
X112000000Y-91050000D03*
%TD*%
%TO.P,R5,2*%
%TO.N,12V_GND*%
X94350000Y-92200000D03*
D16*
%TO.P,R5,1*%
%TO.N,Net-(C2-Pad1)*%
X81650000Y-92200000D03*
%TD*%
%TO.P,R4,1*%
%TO.N,Net-(D2-Pad1)*%
X122000000Y-103750000D03*
D15*
%TO.P,R4,2*%
%TO.N,12V_GND*%
X122000000Y-91050000D03*
%TD*%
D16*
%TO.P,R3,1*%
%TO.N,OIL_BUZZER_OUT_12V*%
X95450000Y-121400000D03*
D15*
%TO.P,R3,2*%
%TO.N,RUN*%
X108150000Y-121400000D03*
%TD*%
D16*
%TO.P,R2,1*%
%TO.N,LOCKOUT*%
X108150000Y-117400000D03*
D15*
%TO.P,R2,2*%
%TO.N,12V_GND*%
X95450000Y-117400000D03*
%TD*%
D16*
%TO.P,R1,1*%
%TO.N,OIL_BUZZER_OUT_12V*%
X81650000Y-84400000D03*
D15*
%TO.P,R1,2*%
%TO.N,OIL_LOW_SIGNAL*%
X94350000Y-84400000D03*
%TD*%
D17*
%TO.P,Q3,1,G*%
%TO.N,Net-(Q3-Pad1)*%
X122945000Y-86540000D03*
D18*
%TO.P,Q3,2,D*%
%TO.N,RUN_RELAY_OUT_SIG*%
X122945000Y-84000000D03*
%TO.P,Q3,3,S*%
%TO.N,12V_GND*%
X122945000Y-81460000D03*
%TD*%
%TO.P,Q2,3,S*%
%TO.N,12V_GND*%
X112745000Y-81520000D03*
%TO.P,Q2,2,D*%
%TO.N,LOCKOUT_LAMP_OUT_SIG*%
X112745000Y-84060000D03*
D17*
%TO.P,Q2,1,G*%
%TO.N,Net-(Q2-Pad1)*%
X112745000Y-86600000D03*
%TD*%
D18*
%TO.P,Q1,3,S*%
%TO.N,12V_GND*%
X102945000Y-81460000D03*
%TO.P,Q1,2,D*%
%TO.N,OIL_BUZZER_OUT_SIG*%
X102945000Y-84000000D03*
D17*
%TO.P,Q1,1,G*%
%TO.N,Net-(Q1-Pad1)*%
X102945000Y-86540000D03*
%TD*%
D19*
%TO.P,J1,1,Pin_1*%
%TO.N,12V_GND*%
X94200000Y-64100000D03*
D20*
%TO.P,J1,2,Pin_2*%
%TO.N,12V_BATT*%
X97700000Y-64100000D03*
%TO.P,J1,3,Pin_3*%
%TO.N,OIL_LOW_SIGNAL*%
X101200000Y-64100000D03*
%TO.P,J1,4,Pin_4*%
%TO.N,OIL_BUZZER_OUT_SIG*%
X104700000Y-64100000D03*
%TO.P,J1,5,Pin_5*%
%TO.N,OIL_BUZZER_OUT_12V*%
X108200000Y-64100000D03*
%TO.P,J1,6,Pin_6*%
%TO.N,LOCKOUT_LAMP_OUT_SIG*%
X111700000Y-64100000D03*
%TO.P,J1,7,Pin_7*%
%TO.N,OIL_BUZZER_OUT_12V*%
X115200000Y-64100000D03*
%TO.P,J1,8,Pin_8*%
%TO.N,RUN_RELAY_OUT_SIG*%
X118700000Y-64100000D03*
%TO.P,J1,9,Pin_9*%
%TO.N,OIL_BUZZER_OUT_12V*%
X122200000Y-64100000D03*
%TD*%
D21*
%TO.P,FB1,1*%
%TO.N,12V_BATT*%
X92600000Y-70500000D03*
%TO.P,FB1,2*%
%TO.N,OIL_BUZZER_OUT_12V*%
X92600000Y-79500000D03*
%TD*%
D22*
%TO.P,D7,1,K*%
%TO.N,OIL_BUZZER_OUT_12V*%
X117400000Y-83150000D03*
D23*
%TO.P,D7,2,A*%
%TO.N,RUN_RELAY_OUT_SIG*%
X117400000Y-70450000D03*
%TD*%
%TO.P,D6,2,A*%
%TO.N,LOCKOUT_LAMP_OUT_SIG*%
X107200000Y-70650000D03*
D22*
%TO.P,D6,1,K*%
%TO.N,OIL_BUZZER_OUT_12V*%
X107200000Y-83350000D03*
%TD*%
D23*
%TO.P,D5,2,A*%
%TO.N,OIL_BUZZER_OUT_SIG*%
X97400000Y-70650000D03*
D22*
%TO.P,D5,1,K*%
%TO.N,OIL_BUZZER_OUT_12V*%
X97400000Y-83350000D03*
%TD*%
D15*
%TO.P,D1,2,A*%
%TO.N,OIL_LOW_SIGNAL*%
X94350000Y-88200000D03*
D24*
%TO.P,D1,1,K*%
%TO.N,Net-(C2-Pad1)*%
X81650000Y-88200000D03*
%TD*%
D16*
%TO.P,C6,1*%
%TO.N,OIL_BUZZER_OUT_12V*%
X121600000Y-75500000D03*
%TO.P,C6,2*%
%TO.N,RUN_RELAY_OUT_SIG*%
X121600000Y-70500000D03*
%TD*%
%TO.P,C5,2*%
%TO.N,LOCKOUT_LAMP_OUT_SIG*%
X111400000Y-70700000D03*
%TO.P,C5,1*%
%TO.N,OIL_BUZZER_OUT_12V*%
X111400000Y-75700000D03*
%TD*%
%TO.P,C4,2*%
%TO.N,OIL_BUZZER_OUT_SIG*%
X101600000Y-70700000D03*
%TO.P,C4,1*%
%TO.N,OIL_BUZZER_OUT_12V*%
X101600000Y-75700000D03*
%TD*%
%TO.P,C3,2*%
%TO.N,12V_GND*%
X83500000Y-73000000D03*
%TO.P,C3,1*%
%TO.N,OIL_BUZZER_OUT_12V*%
X88500000Y-73000000D03*
%TD*%
D21*
%TO.P,C2,2*%
%TO.N,12V_GND*%
X90232323Y-100000000D03*
D25*
%TO.P,C2,1*%
%TO.N,Net-(C2-Pad1)*%
X85232323Y-100000000D03*
%TD*%
D16*
%TO.P,C1,2*%
%TO.N,12V_GND*%
X84900000Y-78600000D03*
D24*
%TO.P,C1,1*%
%TO.N,OIL_BUZZER_OUT_12V*%
X87400000Y-78600000D03*
%TD*%
D26*
%TO.N,OIL_BUZZER_OUT_12V*%
X98800000Y-113800000D03*
X98800000Y-117800000D03*
%TD*%
D27*
%TO.N,OIL_BUZZER_OUT_12V*%
X92600000Y-79500000D02*
X90900000Y-79500000D01*
D28*
%TO.N,OIL_LOW_SIGNAL*%
X94350000Y-84400000D02*
X94350000Y-70950000D01*
X94350000Y-70950000D02*
X101200000Y-64100000D01*
%TO.N,Net-(C2-Pad1)*%
X83800000Y-100000000D02*
X83775000Y-99975000D01*
X83775000Y-99975000D02*
X83775000Y-94325000D01*
X83775000Y-107375000D02*
X83775000Y-99975000D01*
X85232323Y-100000000D02*
X83800000Y-100000000D01*
X83775000Y-94325000D02*
X81650000Y-92200000D01*
X81650000Y-88200000D02*
X81650000Y-92200000D01*
%TO.N,OIL_LOW_SIGNAL*%
X94350000Y-84400000D02*
X94350000Y-88200000D01*
D27*
%TO.N,12V_BATT*%
X92600000Y-69200000D02*
X97700000Y-64100000D01*
X92600000Y-70300000D02*
X92600000Y-69200000D01*
D28*
%TO.N,RUN*%
X81795000Y-114995000D02*
X81766456Y-114966456D01*
X83775000Y-114995000D02*
X81795000Y-114995000D01*
X81766456Y-120233544D02*
X81766456Y-114966456D01*
X81766456Y-114966456D02*
X81766456Y-114566456D01*
X81766456Y-110833544D02*
X82200000Y-110400000D01*
X81766456Y-120233544D02*
X81766456Y-110833544D01*
X82200000Y-110400000D02*
X82685000Y-109915000D01*
X82898392Y-121365480D02*
X81766456Y-120233544D01*
X85965480Y-121365480D02*
X82898392Y-121365480D01*
X88574520Y-118825480D02*
X86000000Y-121400000D01*
X86000000Y-121400000D02*
X85965480Y-121365480D01*
X93025480Y-118825480D02*
X88574520Y-118825480D01*
X94400000Y-123000000D02*
X93800000Y-122400000D01*
X106550000Y-123000000D02*
X94400000Y-123000000D01*
X108150000Y-121400000D02*
X106550000Y-123000000D01*
X93800000Y-122400000D02*
X93800000Y-119600000D01*
X93800000Y-119600000D02*
X93025480Y-118825480D01*
%TO.N,Net-(C2-Pad1)*%
X89800000Y-124200000D02*
X91385000Y-122615000D01*
X82000000Y-124200000D02*
X89800000Y-124200000D01*
X91385000Y-122615000D02*
X91395000Y-122615000D01*
X80800480Y-123000480D02*
X82000000Y-124200000D01*
X80800480Y-110349520D02*
X80800480Y-123000480D01*
X83775000Y-107375000D02*
X80800480Y-110349520D01*
D27*
%TO.N,OIL_BUZZER_OUT_12V*%
X95450000Y-121150000D02*
X98800000Y-117800000D01*
X95450000Y-121400000D02*
X95450000Y-121150000D01*
D28*
%TO.N,LOCKOUT*%
X92755480Y-116244520D02*
X86244520Y-116244520D01*
X93400000Y-115600000D02*
X92755480Y-116244520D01*
X106350000Y-115600000D02*
X93400000Y-115600000D01*
X86244520Y-116244520D02*
X86000000Y-116000000D01*
X108150000Y-117400000D02*
X106350000Y-115600000D01*
%TO.N,RUN*%
X110800000Y-113400000D02*
X114200000Y-110000000D01*
X110800000Y-118750000D02*
X110800000Y-113400000D01*
X108150000Y-121400000D02*
X110800000Y-118750000D01*
X114200000Y-110000000D02*
X118735000Y-110000000D01*
%TO.N,LOCKOUT*%
X108335000Y-110000000D02*
X108335000Y-117215000D01*
X108335000Y-117215000D02*
X108150000Y-117400000D01*
%TO.N,Net-(D2-Pad1)*%
X121275000Y-104475000D02*
X122000000Y-103750000D01*
X121275000Y-110000000D02*
X121275000Y-104475000D01*
%TO.N,RUN*%
X117400000Y-108665000D02*
X118735000Y-110000000D01*
X117400000Y-98750000D02*
X117400000Y-108665000D01*
%TO.N,Net-(D3-Pad1)*%
X110875000Y-104875000D02*
X112000000Y-103750000D01*
X110875000Y-110000000D02*
X110875000Y-104875000D01*
%TO.N,LOCKOUT*%
X108335000Y-110000000D02*
X108335000Y-100085000D01*
X108335000Y-100085000D02*
X107200000Y-98950000D01*
%TO.N,Net-(D4-Pad1)*%
X100400000Y-105350000D02*
X102000000Y-103750000D01*
X100400000Y-110000000D02*
X100400000Y-105350000D01*
%TO.N,OIL_LOW*%
X97860000Y-99410000D02*
X97400000Y-98950000D01*
X97860000Y-110000000D02*
X97860000Y-99410000D01*
%TO.N,RUN*%
X82685000Y-109915000D02*
X83775000Y-109915000D01*
%TO.N,Net-(C2-Pad1)*%
X91395000Y-122615000D02*
X91395000Y-120075000D01*
%TO.N,LOCKOUT*%
X86000000Y-116000000D02*
X86000000Y-114200000D01*
X84255000Y-112455000D02*
X83775000Y-112455000D01*
X84465000Y-117535000D02*
X86000000Y-116000000D01*
X83775000Y-117535000D02*
X84465000Y-117535000D01*
X86000000Y-114200000D02*
X84255000Y-112455000D01*
X83775000Y-120075000D02*
X83775000Y-117535000D01*
%TD*%
%TA.AperFunction,Conductor*%
%TO.N,OIL_BUZZER_OUT_12V*%
G36*
X124433621Y-60528502D02*
G01*
X124480114Y-60582158D01*
X124491500Y-60634500D01*
X124491500Y-80660406D01*
X124471498Y-80728527D01*
X124417842Y-80775020D01*
X124347568Y-80785124D01*
X124282988Y-80755630D01*
X124253737Y-80718587D01*
X124235416Y-80683393D01*
X124233025Y-80678800D01*
X124136931Y-80550815D01*
X124091882Y-80490815D01*
X124091880Y-80490812D01*
X124088777Y-80486680D01*
X123915088Y-80320699D01*
X123716622Y-80185314D01*
X123711939Y-80183140D01*
X123711935Y-80183138D01*
X123503405Y-80086342D01*
X123503401Y-80086341D01*
X123498710Y-80084163D01*
X123267202Y-80019960D01*
X123262065Y-80019411D01*
X123074407Y-79999356D01*
X123074399Y-79999356D01*
X123071072Y-79999000D01*
X122836598Y-79999000D01*
X122834025Y-79999212D01*
X122834014Y-79999212D01*
X122733054Y-80007513D01*
X122658063Y-80013678D01*
X122425056Y-80072206D01*
X122296229Y-80128221D01*
X122209474Y-80165943D01*
X122209471Y-80165945D01*
X122204737Y-80168003D01*
X122003023Y-80298498D01*
X121825330Y-80460186D01*
X121801141Y-80490815D01*
X121679633Y-80644670D01*
X121679630Y-80644675D01*
X121676432Y-80648724D01*
X121673939Y-80653240D01*
X121673937Y-80653243D01*
X121562823Y-80854526D01*
X121560326Y-80859050D01*
X121558602Y-80863919D01*
X121558600Y-80863923D01*
X121481856Y-81080640D01*
X121480130Y-81085515D01*
X121479223Y-81090608D01*
X121479222Y-81090611D01*
X121464130Y-81175341D01*
X121437999Y-81322037D01*
X121437936Y-81327201D01*
X121435240Y-81547895D01*
X121435064Y-81562263D01*
X121471404Y-81799744D01*
X121498196Y-81881715D01*
X121544434Y-82023183D01*
X121544437Y-82023189D01*
X121546042Y-82028101D01*
X121548429Y-82032687D01*
X121548431Y-82032691D01*
X121633381Y-82195876D01*
X121656975Y-82241200D01*
X121801223Y-82433320D01*
X121974912Y-82599301D01*
X122011903Y-82624535D01*
X122056904Y-82679444D01*
X122065075Y-82749968D01*
X122033821Y-82813716D01*
X122009340Y-82834411D01*
X122007707Y-82835468D01*
X122003023Y-82838498D01*
X121825330Y-83000186D01*
X121801141Y-83030815D01*
X121679633Y-83184670D01*
X121679630Y-83184675D01*
X121676432Y-83188724D01*
X121673939Y-83193240D01*
X121673937Y-83193243D01*
X121563223Y-83393802D01*
X121560326Y-83399050D01*
X121558602Y-83403919D01*
X121558600Y-83403923D01*
X121498563Y-83573462D01*
X121480130Y-83625515D01*
X121479223Y-83630608D01*
X121479222Y-83630611D01*
X121458270Y-83748238D01*
X121437999Y-83862037D01*
X121437936Y-83867201D01*
X121435879Y-84035592D01*
X121435064Y-84102263D01*
X121471404Y-84339744D01*
X121492888Y-84405475D01*
X121544434Y-84563183D01*
X121544437Y-84563189D01*
X121546042Y-84568101D01*
X121548429Y-84572687D01*
X121548431Y-84572691D01*
X121644705Y-84757629D01*
X121656975Y-84781200D01*
X121773415Y-84936283D01*
X121798320Y-85002765D01*
X121783328Y-85072161D01*
X121733198Y-85122435D01*
X121716885Y-85129915D01*
X121706707Y-85133731D01*
X121706704Y-85133733D01*
X121698295Y-85136885D01*
X121581739Y-85224239D01*
X121494385Y-85340795D01*
X121443255Y-85477184D01*
X121436500Y-85539366D01*
X121436500Y-87540634D01*
X121443255Y-87602816D01*
X121494385Y-87739205D01*
X121581739Y-87855761D01*
X121698295Y-87943115D01*
X121834684Y-87994245D01*
X121896866Y-88001000D01*
X123993134Y-88001000D01*
X124055316Y-87994245D01*
X124191705Y-87943115D01*
X124198892Y-87937729D01*
X124289935Y-87869496D01*
X124356442Y-87844648D01*
X124425824Y-87859701D01*
X124476054Y-87909875D01*
X124491500Y-87970322D01*
X124491500Y-109874000D01*
X124471498Y-109942121D01*
X124417842Y-109988614D01*
X124365500Y-110000000D01*
X122809500Y-110000000D01*
X122741379Y-109979998D01*
X122694886Y-109926342D01*
X122683500Y-109874000D01*
X122683500Y-109051866D01*
X122676745Y-108989684D01*
X122625615Y-108853295D01*
X122538261Y-108736739D01*
X122421705Y-108649385D01*
X122285316Y-108598255D01*
X122223134Y-108591500D01*
X122159500Y-108591500D01*
X122091379Y-108571498D01*
X122044886Y-108517842D01*
X122033500Y-108465500D01*
X122033500Y-105176025D01*
X122053502Y-105107904D01*
X122107158Y-105061411D01*
X122148518Y-105050504D01*
X122172829Y-105048377D01*
X122222606Y-105044023D01*
X122222611Y-105044022D01*
X122228087Y-105043543D01*
X122233400Y-105042119D01*
X122233402Y-105042119D01*
X122443933Y-104985707D01*
X122443935Y-104985706D01*
X122449243Y-104984284D01*
X122511312Y-104955341D01*
X122651762Y-104889849D01*
X122651767Y-104889846D01*
X122656749Y-104887523D01*
X122785925Y-104797073D01*
X122839789Y-104759357D01*
X122839792Y-104759355D01*
X122844300Y-104756198D01*
X123006198Y-104594300D01*
X123137523Y-104406749D01*
X123139846Y-104401767D01*
X123139849Y-104401762D01*
X123231961Y-104204225D01*
X123231961Y-104204224D01*
X123234284Y-104199243D01*
X123293543Y-103978087D01*
X123313498Y-103750000D01*
X123293543Y-103521913D01*
X123234284Y-103300757D01*
X123231961Y-103295775D01*
X123139849Y-103098238D01*
X123139846Y-103098233D01*
X123137523Y-103093251D01*
X123006198Y-102905700D01*
X122844300Y-102743802D01*
X122839792Y-102740645D01*
X122839789Y-102740643D01*
X122761611Y-102685902D01*
X122656749Y-102612477D01*
X122651767Y-102610154D01*
X122651762Y-102610151D01*
X122454225Y-102518039D01*
X122454224Y-102518039D01*
X122449243Y-102515716D01*
X122443935Y-102514294D01*
X122443933Y-102514293D01*
X122233402Y-102457881D01*
X122233400Y-102457881D01*
X122228087Y-102456457D01*
X122000000Y-102436502D01*
X121771913Y-102456457D01*
X121766600Y-102457881D01*
X121766598Y-102457881D01*
X121556067Y-102514293D01*
X121556065Y-102514294D01*
X121550757Y-102515716D01*
X121545776Y-102518039D01*
X121545775Y-102518039D01*
X121348238Y-102610151D01*
X121348233Y-102610154D01*
X121343251Y-102612477D01*
X121238389Y-102685902D01*
X121160211Y-102740643D01*
X121160208Y-102740645D01*
X121155700Y-102743802D01*
X120993802Y-102905700D01*
X120862477Y-103093251D01*
X120860154Y-103098233D01*
X120860151Y-103098238D01*
X120768039Y-103295775D01*
X120765716Y-103300757D01*
X120706457Y-103521913D01*
X120686502Y-103750000D01*
X120686981Y-103755475D01*
X120701439Y-103920732D01*
X120687450Y-103990337D01*
X120671943Y-104013294D01*
X120639667Y-104051285D01*
X120636340Y-104057800D01*
X120632972Y-104062850D01*
X120629805Y-104067979D01*
X120625266Y-104073716D01*
X120594345Y-104139875D01*
X120592442Y-104143769D01*
X120559231Y-104208808D01*
X120557492Y-104215916D01*
X120555393Y-104221559D01*
X120553476Y-104227322D01*
X120550378Y-104233950D01*
X120535888Y-104303616D01*
X120535514Y-104305412D01*
X120534544Y-104309696D01*
X120517192Y-104380610D01*
X120516500Y-104391764D01*
X120516464Y-104391762D01*
X120516225Y-104395755D01*
X120515851Y-104399947D01*
X120514360Y-104407115D01*
X120514558Y-104414432D01*
X120516454Y-104484521D01*
X120516500Y-104487928D01*
X120516500Y-108465500D01*
X120496498Y-108533621D01*
X120442842Y-108580114D01*
X120390500Y-108591500D01*
X120326866Y-108591500D01*
X120264684Y-108598255D01*
X120128295Y-108649385D01*
X120011739Y-108736739D01*
X119924385Y-108853295D01*
X119921233Y-108861703D01*
X119921232Y-108861705D01*
X119900538Y-108916906D01*
X119857897Y-108973671D01*
X119791335Y-108998371D01*
X119721986Y-108983164D01*
X119699167Y-108966666D01*
X119698887Y-108966358D01*
X119629250Y-108911362D01*
X119521177Y-108826011D01*
X119521172Y-108826008D01*
X119517123Y-108822810D01*
X119512607Y-108820317D01*
X119512604Y-108820315D01*
X119318879Y-108713373D01*
X119318875Y-108713371D01*
X119314355Y-108710876D01*
X119309486Y-108709152D01*
X119309482Y-108709150D01*
X119100903Y-108635288D01*
X119100899Y-108635287D01*
X119096028Y-108633562D01*
X119090935Y-108632655D01*
X119090932Y-108632654D01*
X118873095Y-108593851D01*
X118873089Y-108593850D01*
X118868006Y-108592945D01*
X118795096Y-108592054D01*
X118641581Y-108590179D01*
X118641579Y-108590179D01*
X118636411Y-108590116D01*
X118492515Y-108612135D01*
X118422152Y-108602667D01*
X118384361Y-108576680D01*
X118195405Y-108387724D01*
X118161379Y-108325412D01*
X118158500Y-108298629D01*
X118158500Y-99881867D01*
X118178502Y-99813746D01*
X118212228Y-99778655D01*
X118244300Y-99756198D01*
X118406198Y-99594300D01*
X118537523Y-99406749D01*
X118539846Y-99401767D01*
X118539849Y-99401762D01*
X118631961Y-99204225D01*
X118631961Y-99204224D01*
X118634284Y-99199243D01*
X118693543Y-98978087D01*
X118713498Y-98750000D01*
X118693543Y-98521913D01*
X118634284Y-98300757D01*
X118545432Y-98110211D01*
X118539849Y-98098238D01*
X118539846Y-98098233D01*
X118537523Y-98093251D01*
X118435606Y-97947699D01*
X118409357Y-97910211D01*
X118409355Y-97910208D01*
X118406198Y-97905700D01*
X118244300Y-97743802D01*
X118239792Y-97740645D01*
X118239789Y-97740643D01*
X118121592Y-97657881D01*
X118056749Y-97612477D01*
X118051767Y-97610154D01*
X118051762Y-97610151D01*
X117854225Y-97518039D01*
X117854224Y-97518039D01*
X117849243Y-97515716D01*
X117843935Y-97514294D01*
X117843933Y-97514293D01*
X117633402Y-97457881D01*
X117633400Y-97457881D01*
X117628087Y-97456457D01*
X117400000Y-97436502D01*
X117171913Y-97456457D01*
X117166600Y-97457881D01*
X117166598Y-97457881D01*
X116956067Y-97514293D01*
X116956065Y-97514294D01*
X116950757Y-97515716D01*
X116945776Y-97518039D01*
X116945775Y-97518039D01*
X116748238Y-97610151D01*
X116748233Y-97610154D01*
X116743251Y-97612477D01*
X116678408Y-97657881D01*
X116560211Y-97740643D01*
X116560208Y-97740645D01*
X116555700Y-97743802D01*
X116393802Y-97905700D01*
X116390645Y-97910208D01*
X116390643Y-97910211D01*
X116364394Y-97947699D01*
X116262477Y-98093251D01*
X116260154Y-98098233D01*
X116260151Y-98098238D01*
X116254568Y-98110211D01*
X116165716Y-98300757D01*
X116106457Y-98521913D01*
X116086502Y-98750000D01*
X116106457Y-98978087D01*
X116165716Y-99199243D01*
X116168039Y-99204224D01*
X116168039Y-99204225D01*
X116260151Y-99401762D01*
X116260154Y-99401767D01*
X116262477Y-99406749D01*
X116393802Y-99594300D01*
X116555700Y-99756198D01*
X116587771Y-99778655D01*
X116632099Y-99834110D01*
X116641500Y-99881867D01*
X116641500Y-108597930D01*
X116640067Y-108616880D01*
X116638259Y-108628767D01*
X116636801Y-108638349D01*
X116637394Y-108645641D01*
X116637394Y-108645644D01*
X116641085Y-108691018D01*
X116641500Y-108701233D01*
X116641500Y-108709293D01*
X116641925Y-108712937D01*
X116644789Y-108737507D01*
X116645222Y-108741882D01*
X116651140Y-108814637D01*
X116653396Y-108821601D01*
X116654587Y-108827560D01*
X116655971Y-108833415D01*
X116656818Y-108840681D01*
X116681735Y-108909327D01*
X116683152Y-108913455D01*
X116702660Y-108973671D01*
X116705649Y-108982899D01*
X116709445Y-108989154D01*
X116711951Y-108994628D01*
X116714670Y-109000058D01*
X116717167Y-109006937D01*
X116721180Y-109013057D01*
X116721180Y-109013058D01*
X116743050Y-109046415D01*
X116763673Y-109114350D01*
X116744293Y-109182651D01*
X116691064Y-109229631D01*
X116637678Y-109241500D01*
X114267070Y-109241500D01*
X114248120Y-109240067D01*
X114233885Y-109237901D01*
X114233881Y-109237901D01*
X114226651Y-109236801D01*
X114219359Y-109237394D01*
X114219356Y-109237394D01*
X114173982Y-109241085D01*
X114163767Y-109241500D01*
X114155707Y-109241500D01*
X114142417Y-109243049D01*
X114127493Y-109244789D01*
X114123118Y-109245222D01*
X114057661Y-109250546D01*
X114057658Y-109250547D01*
X114050363Y-109251140D01*
X114043399Y-109253396D01*
X114037440Y-109254587D01*
X114031585Y-109255971D01*
X114024319Y-109256818D01*
X113955673Y-109281735D01*
X113951545Y-109283152D01*
X113889064Y-109303393D01*
X113889062Y-109303394D01*
X113882101Y-109305649D01*
X113875846Y-109309445D01*
X113870372Y-109311951D01*
X113864942Y-109314670D01*
X113858063Y-109317167D01*
X113851943Y-109321180D01*
X113851942Y-109321180D01*
X113797024Y-109357186D01*
X113793320Y-109359523D01*
X113730893Y-109397405D01*
X113722516Y-109404803D01*
X113722492Y-109404776D01*
X113719500Y-109407429D01*
X113716267Y-109410132D01*
X113710148Y-109414144D01*
X113705116Y-109419456D01*
X113656872Y-109470383D01*
X113654494Y-109472825D01*
X113164224Y-109963095D01*
X113101912Y-109997121D01*
X113075129Y-110000000D01*
X112409500Y-110000000D01*
X112341379Y-109979998D01*
X112294886Y-109926342D01*
X112283500Y-109874000D01*
X112283500Y-109051866D01*
X112276745Y-108989684D01*
X112225615Y-108853295D01*
X112138261Y-108736739D01*
X112021705Y-108649385D01*
X111885316Y-108598255D01*
X111823134Y-108591500D01*
X111759500Y-108591500D01*
X111691379Y-108571498D01*
X111644886Y-108517842D01*
X111633500Y-108465500D01*
X111633500Y-105241371D01*
X111653502Y-105173250D01*
X111670405Y-105152276D01*
X111737010Y-105085671D01*
X111799322Y-105051645D01*
X111837087Y-105049245D01*
X111994525Y-105063019D01*
X112000000Y-105063498D01*
X112228087Y-105043543D01*
X112233400Y-105042119D01*
X112233402Y-105042119D01*
X112443933Y-104985707D01*
X112443935Y-104985706D01*
X112449243Y-104984284D01*
X112511312Y-104955341D01*
X112651762Y-104889849D01*
X112651767Y-104889846D01*
X112656749Y-104887523D01*
X112785925Y-104797073D01*
X112839789Y-104759357D01*
X112839792Y-104759355D01*
X112844300Y-104756198D01*
X113006198Y-104594300D01*
X113137523Y-104406749D01*
X113139846Y-104401767D01*
X113139849Y-104401762D01*
X113231961Y-104204225D01*
X113231961Y-104204224D01*
X113234284Y-104199243D01*
X113293543Y-103978087D01*
X113313498Y-103750000D01*
X113293543Y-103521913D01*
X113234284Y-103300757D01*
X113231961Y-103295775D01*
X113139849Y-103098238D01*
X113139846Y-103098233D01*
X113137523Y-103093251D01*
X113006198Y-102905700D01*
X112844300Y-102743802D01*
X112839792Y-102740645D01*
X112839789Y-102740643D01*
X112761611Y-102685902D01*
X112656749Y-102612477D01*
X112651767Y-102610154D01*
X112651762Y-102610151D01*
X112454225Y-102518039D01*
X112454224Y-102518039D01*
X112449243Y-102515716D01*
X112443935Y-102514294D01*
X112443933Y-102514293D01*
X112233402Y-102457881D01*
X112233400Y-102457881D01*
X112228087Y-102456457D01*
X112000000Y-102436502D01*
X111771913Y-102456457D01*
X111766600Y-102457881D01*
X111766598Y-102457881D01*
X111556067Y-102514293D01*
X111556065Y-102514294D01*
X111550757Y-102515716D01*
X111545776Y-102518039D01*
X111545775Y-102518039D01*
X111348238Y-102610151D01*
X111348233Y-102610154D01*
X111343251Y-102612477D01*
X111238389Y-102685902D01*
X111160211Y-102740643D01*
X111160208Y-102740645D01*
X111155700Y-102743802D01*
X110993802Y-102905700D01*
X110862477Y-103093251D01*
X110860154Y-103098233D01*
X110860151Y-103098238D01*
X110768039Y-103295775D01*
X110765716Y-103300757D01*
X110706457Y-103521913D01*
X110686502Y-103750000D01*
X110686981Y-103755475D01*
X110700755Y-103912913D01*
X110686766Y-103982518D01*
X110664329Y-104012990D01*
X110386089Y-104291230D01*
X110371677Y-104303616D01*
X110360082Y-104312149D01*
X110360077Y-104312154D01*
X110354182Y-104316492D01*
X110349443Y-104322070D01*
X110349440Y-104322073D01*
X110319965Y-104356768D01*
X110313035Y-104364284D01*
X110307340Y-104369979D01*
X110305060Y-104372861D01*
X110289719Y-104392251D01*
X110286928Y-104395655D01*
X110270976Y-104414432D01*
X110239667Y-104451285D01*
X110236339Y-104457801D01*
X110232972Y-104462850D01*
X110229805Y-104467979D01*
X110225266Y-104473716D01*
X110194345Y-104539875D01*
X110192442Y-104543769D01*
X110159231Y-104608808D01*
X110157492Y-104615916D01*
X110155393Y-104621559D01*
X110153476Y-104627322D01*
X110150378Y-104633950D01*
X110148888Y-104641112D01*
X110148888Y-104641113D01*
X110135514Y-104705412D01*
X110134544Y-104709696D01*
X110117192Y-104780610D01*
X110116500Y-104791764D01*
X110116464Y-104791762D01*
X110116225Y-104795755D01*
X110115851Y-104799947D01*
X110114360Y-104807115D01*
X110114558Y-104814432D01*
X110116454Y-104884521D01*
X110116500Y-104887928D01*
X110116500Y-108465500D01*
X110096498Y-108533621D01*
X110042842Y-108580114D01*
X109990500Y-108591500D01*
X109926866Y-108591500D01*
X109864684Y-108598255D01*
X109728295Y-108649385D01*
X109611739Y-108736739D01*
X109524385Y-108853295D01*
X109521233Y-108861703D01*
X109521232Y-108861705D01*
X109500538Y-108916906D01*
X109457897Y-108973671D01*
X109391335Y-108998371D01*
X109321986Y-108983164D01*
X109299167Y-108966666D01*
X109298887Y-108966358D01*
X109141408Y-108841989D01*
X109100345Y-108784072D01*
X109093500Y-108743107D01*
X109093500Y-100152063D01*
X109094933Y-100133114D01*
X109097097Y-100118886D01*
X109098198Y-100111651D01*
X109093915Y-100058990D01*
X109093500Y-100048777D01*
X109093500Y-100040707D01*
X109093078Y-100037087D01*
X109093077Y-100037069D01*
X109090208Y-100012461D01*
X109089775Y-100008086D01*
X109089519Y-100004930D01*
X109085238Y-99952301D01*
X109084454Y-99942661D01*
X109084453Y-99942658D01*
X109083860Y-99935363D01*
X109081604Y-99928399D01*
X109080413Y-99922440D01*
X109079029Y-99916585D01*
X109078182Y-99909319D01*
X109053265Y-99840673D01*
X109051848Y-99836545D01*
X109031607Y-99774064D01*
X109031606Y-99774062D01*
X109029351Y-99767101D01*
X109025555Y-99760846D01*
X109023049Y-99755372D01*
X109020330Y-99749942D01*
X109017833Y-99743063D01*
X108977809Y-99682016D01*
X108975472Y-99678312D01*
X108940509Y-99620693D01*
X108940505Y-99620688D01*
X108937595Y-99615892D01*
X108933502Y-99611257D01*
X108930197Y-99607516D01*
X108930223Y-99607493D01*
X108927574Y-99604503D01*
X108924866Y-99601264D01*
X108920856Y-99595148D01*
X108915549Y-99590121D01*
X108915546Y-99590117D01*
X108864617Y-99541872D01*
X108862175Y-99539494D01*
X108535671Y-99212990D01*
X108501645Y-99150678D01*
X108499245Y-99112913D01*
X108513019Y-98955475D01*
X108513498Y-98950000D01*
X108493543Y-98721913D01*
X108492119Y-98716598D01*
X108435707Y-98506067D01*
X108435706Y-98506065D01*
X108434284Y-98500757D01*
X108431961Y-98495775D01*
X108339849Y-98298238D01*
X108339846Y-98298233D01*
X108337523Y-98293251D01*
X108206198Y-98105700D01*
X108044300Y-97943802D01*
X108039792Y-97940645D01*
X108039789Y-97940643D01*
X107961611Y-97885902D01*
X107856749Y-97812477D01*
X107851767Y-97810154D01*
X107851762Y-97810151D01*
X107654225Y-97718039D01*
X107654224Y-97718039D01*
X107649243Y-97715716D01*
X107643935Y-97714294D01*
X107643933Y-97714293D01*
X107433402Y-97657881D01*
X107433400Y-97657881D01*
X107428087Y-97656457D01*
X107200000Y-97636502D01*
X106971913Y-97656457D01*
X106966600Y-97657881D01*
X106966598Y-97657881D01*
X106756067Y-97714293D01*
X106756065Y-97714294D01*
X106750757Y-97715716D01*
X106745776Y-97718039D01*
X106745775Y-97718039D01*
X106548238Y-97810151D01*
X106548233Y-97810154D01*
X106543251Y-97812477D01*
X106438389Y-97885902D01*
X106360211Y-97940643D01*
X106360208Y-97940645D01*
X106355700Y-97943802D01*
X106193802Y-98105700D01*
X106062477Y-98293251D01*
X106060154Y-98298233D01*
X106060151Y-98298238D01*
X105968039Y-98495775D01*
X105965716Y-98500757D01*
X105964294Y-98506065D01*
X105964293Y-98506067D01*
X105907881Y-98716598D01*
X105906457Y-98721913D01*
X105886502Y-98950000D01*
X105906457Y-99178087D01*
X105907881Y-99183400D01*
X105907881Y-99183402D01*
X105943843Y-99317611D01*
X105965716Y-99399243D01*
X105968039Y-99404224D01*
X105968039Y-99404225D01*
X106060151Y-99601762D01*
X106060154Y-99601767D01*
X106062477Y-99606749D01*
X106068879Y-99615892D01*
X106179633Y-99774064D01*
X106193802Y-99794300D01*
X106355700Y-99956198D01*
X106360208Y-99959355D01*
X106360211Y-99959357D01*
X106432960Y-100010296D01*
X106543251Y-100087523D01*
X106548233Y-100089846D01*
X106548238Y-100089849D01*
X106661223Y-100142534D01*
X106750757Y-100184284D01*
X106756065Y-100185706D01*
X106756067Y-100185707D01*
X106966598Y-100242119D01*
X106966600Y-100242119D01*
X106971913Y-100243543D01*
X107200000Y-100263498D01*
X107205475Y-100263019D01*
X107362913Y-100249245D01*
X107432518Y-100263234D01*
X107462990Y-100285671D01*
X107539595Y-100362276D01*
X107573621Y-100424588D01*
X107576500Y-100451371D01*
X107576500Y-108745127D01*
X107556498Y-108813248D01*
X107526154Y-108845886D01*
X107516286Y-108853295D01*
X107431565Y-108916906D01*
X107396655Y-108943117D01*
X107236639Y-109110564D01*
X107233725Y-109114836D01*
X107233724Y-109114837D01*
X107169300Y-109209279D01*
X107106119Y-109301899D01*
X107008602Y-109511981D01*
X106946707Y-109735169D01*
X106922095Y-109965469D01*
X106922392Y-109970622D01*
X106922392Y-109970625D01*
X106923429Y-109988614D01*
X106935427Y-110196697D01*
X106936564Y-110201743D01*
X106936565Y-110201749D01*
X106968741Y-110344523D01*
X106986346Y-110422642D01*
X106988288Y-110427424D01*
X106988289Y-110427428D01*
X107071540Y-110632450D01*
X107073484Y-110637237D01*
X107194501Y-110834719D01*
X107346147Y-111009784D01*
X107523517Y-111157039D01*
X107524349Y-111157730D01*
X107524206Y-111157902D01*
X107567101Y-111211570D01*
X107576500Y-111259321D01*
X107576500Y-114874000D01*
X107556498Y-114942121D01*
X107502842Y-114988614D01*
X107450500Y-115000000D01*
X106861601Y-115000000D01*
X106793480Y-114979998D01*
X106780025Y-114970028D01*
X106779295Y-114969408D01*
X106773715Y-114964667D01*
X106767195Y-114961338D01*
X106762149Y-114957972D01*
X106757023Y-114954807D01*
X106751284Y-114950266D01*
X106685125Y-114919345D01*
X106681225Y-114917439D01*
X106616192Y-114884231D01*
X106609084Y-114882492D01*
X106603441Y-114880393D01*
X106597678Y-114878476D01*
X106591050Y-114875378D01*
X106519583Y-114860513D01*
X106515299Y-114859543D01*
X106444390Y-114842192D01*
X106438788Y-114841844D01*
X106438785Y-114841844D01*
X106433236Y-114841500D01*
X106433238Y-114841464D01*
X106429245Y-114841225D01*
X106425053Y-114840851D01*
X106417885Y-114839360D01*
X106354120Y-114841085D01*
X106340479Y-114841454D01*
X106337072Y-114841500D01*
X93467070Y-114841500D01*
X93448120Y-114840067D01*
X93433885Y-114837901D01*
X93433881Y-114837901D01*
X93426651Y-114836801D01*
X93419359Y-114837394D01*
X93419356Y-114837394D01*
X93373982Y-114841085D01*
X93363767Y-114841500D01*
X93355707Y-114841500D01*
X93352073Y-114841924D01*
X93352067Y-114841924D01*
X93339042Y-114843443D01*
X93327480Y-114844791D01*
X93323132Y-114845221D01*
X93250364Y-114851140D01*
X93243401Y-114853396D01*
X93236219Y-114854831D01*
X93236119Y-114854332D01*
X93225181Y-114856717D01*
X93224707Y-114856773D01*
X93224257Y-114856825D01*
X93223874Y-114853525D01*
X93167747Y-114850569D01*
X93110123Y-114809097D01*
X93087848Y-114764319D01*
X93030706Y-114551064D01*
X93029284Y-114545757D01*
X92968990Y-114416455D01*
X92934849Y-114343238D01*
X92934846Y-114343233D01*
X92932523Y-114338251D01*
X92849272Y-114219356D01*
X92804357Y-114155211D01*
X92804355Y-114155208D01*
X92801198Y-114150700D01*
X92639300Y-113988802D01*
X92634792Y-113985645D01*
X92634789Y-113985643D01*
X92496855Y-113889061D01*
X92451749Y-113857477D01*
X92446767Y-113855154D01*
X92446762Y-113855151D01*
X92412543Y-113839195D01*
X92359258Y-113792278D01*
X92339797Y-113724001D01*
X92360339Y-113656041D01*
X92412543Y-113610805D01*
X92446762Y-113594849D01*
X92446767Y-113594846D01*
X92451749Y-113592523D01*
X92556611Y-113519098D01*
X92634789Y-113464357D01*
X92634792Y-113464355D01*
X92639300Y-113461198D01*
X92801198Y-113299300D01*
X92932523Y-113111749D01*
X92934846Y-113106767D01*
X92934849Y-113106762D01*
X93026961Y-112909225D01*
X93026961Y-112909224D01*
X93029284Y-112904243D01*
X93088543Y-112683087D01*
X93108498Y-112455000D01*
X93088543Y-112226913D01*
X93029284Y-112005757D01*
X93026961Y-112000775D01*
X92934849Y-111803238D01*
X92934846Y-111803233D01*
X92932523Y-111798251D01*
X92801198Y-111610700D01*
X92639300Y-111448802D01*
X92634792Y-111445645D01*
X92634789Y-111445643D01*
X92503576Y-111353767D01*
X92451749Y-111317477D01*
X92446767Y-111315154D01*
X92446762Y-111315151D01*
X92412543Y-111299195D01*
X92359258Y-111252278D01*
X92339797Y-111184001D01*
X92360339Y-111116041D01*
X92412543Y-111070805D01*
X92446762Y-111054849D01*
X92446767Y-111054846D01*
X92451749Y-111052523D01*
X92600832Y-110948134D01*
X92634789Y-110924357D01*
X92634792Y-110924355D01*
X92639300Y-110921198D01*
X92801198Y-110759300D01*
X92932523Y-110571749D01*
X92934846Y-110566767D01*
X92934849Y-110566762D01*
X93026961Y-110369225D01*
X93026961Y-110369224D01*
X93029284Y-110364243D01*
X93072825Y-110201749D01*
X93087119Y-110148402D01*
X93087119Y-110148400D01*
X93088543Y-110143087D01*
X93108498Y-109915000D01*
X93088543Y-109686913D01*
X93029284Y-109465757D01*
X93005217Y-109414144D01*
X92934849Y-109263238D01*
X92934846Y-109263233D01*
X92932523Y-109258251D01*
X92829111Y-109110564D01*
X92804357Y-109075211D01*
X92804355Y-109075208D01*
X92801198Y-109070700D01*
X92639300Y-108908802D01*
X92634792Y-108905645D01*
X92634789Y-108905643D01*
X92523012Y-108827376D01*
X92451749Y-108777477D01*
X92446767Y-108775154D01*
X92446762Y-108775151D01*
X92411951Y-108758919D01*
X92358666Y-108712002D01*
X92339205Y-108643725D01*
X92359747Y-108575765D01*
X92411951Y-108530529D01*
X92446511Y-108514414D01*
X92456007Y-108508931D01*
X92634467Y-108383972D01*
X92642875Y-108376916D01*
X92796916Y-108222875D01*
X92803972Y-108214467D01*
X92928931Y-108036007D01*
X92934414Y-108026511D01*
X93026490Y-107829053D01*
X93030236Y-107818761D01*
X93076394Y-107646497D01*
X93076058Y-107632401D01*
X93068116Y-107629000D01*
X89727033Y-107629000D01*
X89713502Y-107632973D01*
X89712273Y-107641522D01*
X89759764Y-107818761D01*
X89763510Y-107829053D01*
X89855586Y-108026511D01*
X89861069Y-108036007D01*
X89986028Y-108214467D01*
X89993084Y-108222875D01*
X90147125Y-108376916D01*
X90155533Y-108383972D01*
X90333993Y-108508931D01*
X90343489Y-108514414D01*
X90378049Y-108530529D01*
X90431334Y-108577446D01*
X90450795Y-108645723D01*
X90430253Y-108713683D01*
X90378049Y-108758919D01*
X90343238Y-108775151D01*
X90343233Y-108775154D01*
X90338251Y-108777477D01*
X90266988Y-108827376D01*
X90155211Y-108905643D01*
X90155208Y-108905645D01*
X90150700Y-108908802D01*
X89988802Y-109070700D01*
X89985645Y-109075208D01*
X89985643Y-109075211D01*
X89960889Y-109110564D01*
X89857477Y-109258251D01*
X89855154Y-109263233D01*
X89855151Y-109263238D01*
X89784783Y-109414144D01*
X89760716Y-109465757D01*
X89701457Y-109686913D01*
X89681502Y-109915000D01*
X89701457Y-110143087D01*
X89702881Y-110148400D01*
X89702881Y-110148402D01*
X89717176Y-110201749D01*
X89760716Y-110364243D01*
X89763039Y-110369224D01*
X89763039Y-110369225D01*
X89855151Y-110566762D01*
X89855154Y-110566767D01*
X89857477Y-110571749D01*
X89988802Y-110759300D01*
X90150700Y-110921198D01*
X90155208Y-110924355D01*
X90155211Y-110924357D01*
X90189168Y-110948134D01*
X90338251Y-111052523D01*
X90343233Y-111054846D01*
X90343238Y-111054849D01*
X90377457Y-111070805D01*
X90430742Y-111117722D01*
X90450203Y-111185999D01*
X90429661Y-111253959D01*
X90377457Y-111299195D01*
X90343238Y-111315151D01*
X90343233Y-111315154D01*
X90338251Y-111317477D01*
X90286424Y-111353767D01*
X90155211Y-111445643D01*
X90155208Y-111445645D01*
X90150700Y-111448802D01*
X89988802Y-111610700D01*
X89857477Y-111798251D01*
X89855154Y-111803233D01*
X89855151Y-111803238D01*
X89763039Y-112000775D01*
X89760716Y-112005757D01*
X89701457Y-112226913D01*
X89681502Y-112455000D01*
X89701457Y-112683087D01*
X89760716Y-112904243D01*
X89763039Y-112909224D01*
X89763039Y-112909225D01*
X89855151Y-113106762D01*
X89855154Y-113106767D01*
X89857477Y-113111749D01*
X89988802Y-113299300D01*
X90150700Y-113461198D01*
X90155208Y-113464355D01*
X90155211Y-113464357D01*
X90233389Y-113519098D01*
X90338251Y-113592523D01*
X90343233Y-113594846D01*
X90343238Y-113594849D01*
X90377457Y-113610805D01*
X90430742Y-113657722D01*
X90450203Y-113725999D01*
X90429661Y-113793959D01*
X90377457Y-113839195D01*
X90343238Y-113855151D01*
X90343233Y-113855154D01*
X90338251Y-113857477D01*
X90293145Y-113889061D01*
X90155211Y-113985643D01*
X90155208Y-113985645D01*
X90150700Y-113988802D01*
X89988802Y-114150700D01*
X89985645Y-114155208D01*
X89985643Y-114155211D01*
X89940728Y-114219356D01*
X89857477Y-114338251D01*
X89855154Y-114343233D01*
X89855151Y-114343238D01*
X89821010Y-114416455D01*
X89760716Y-114545757D01*
X89701457Y-114766913D01*
X89695969Y-114829640D01*
X89691127Y-114884982D01*
X89665263Y-114951100D01*
X89607760Y-114992740D01*
X89565606Y-115000000D01*
X86884500Y-115000000D01*
X86816379Y-114979998D01*
X86769886Y-114926342D01*
X86758500Y-114874000D01*
X86758500Y-114267070D01*
X86759933Y-114248120D01*
X86762099Y-114233885D01*
X86762099Y-114233881D01*
X86763199Y-114226651D01*
X86758915Y-114173982D01*
X86758500Y-114163767D01*
X86758500Y-114155707D01*
X86757917Y-114150700D01*
X86755211Y-114127497D01*
X86754778Y-114123121D01*
X86749454Y-114057662D01*
X86749453Y-114057659D01*
X86748860Y-114050364D01*
X86746604Y-114043400D01*
X86745417Y-114037461D01*
X86744030Y-114031590D01*
X86743182Y-114024319D01*
X86740686Y-114017443D01*
X86740684Y-114017434D01*
X86718275Y-113955702D01*
X86716865Y-113951598D01*
X86694352Y-113882101D01*
X86690556Y-113875846D01*
X86688057Y-113870387D01*
X86685329Y-113864939D01*
X86682833Y-113858063D01*
X86642805Y-113797010D01*
X86640481Y-113793327D01*
X86639845Y-113792278D01*
X86620692Y-113760716D01*
X86605504Y-113735686D01*
X86605501Y-113735682D01*
X86602595Y-113730893D01*
X86598886Y-113726694D01*
X86598883Y-113726689D01*
X86595197Y-113722516D01*
X86595224Y-113722492D01*
X86592571Y-113719500D01*
X86589868Y-113716267D01*
X86585856Y-113710148D01*
X86529617Y-113656872D01*
X86527175Y-113654494D01*
X85517107Y-112644426D01*
X85483081Y-112582114D01*
X85480681Y-112544349D01*
X85488019Y-112460475D01*
X85488498Y-112455000D01*
X85468543Y-112226913D01*
X85409284Y-112005757D01*
X85406961Y-112000775D01*
X85314849Y-111803238D01*
X85314846Y-111803233D01*
X85312523Y-111798251D01*
X85181198Y-111610700D01*
X85019300Y-111448802D01*
X85014792Y-111445645D01*
X85014789Y-111445643D01*
X84883576Y-111353767D01*
X84831749Y-111317477D01*
X84826767Y-111315154D01*
X84826762Y-111315151D01*
X84792543Y-111299195D01*
X84739258Y-111252278D01*
X84719797Y-111184001D01*
X84740339Y-111116041D01*
X84792543Y-111070805D01*
X84826762Y-111054849D01*
X84826767Y-111054846D01*
X84831749Y-111052523D01*
X84980832Y-110948134D01*
X85014789Y-110924357D01*
X85014792Y-110924355D01*
X85019300Y-110921198D01*
X85181198Y-110759300D01*
X85312523Y-110571749D01*
X85314846Y-110566767D01*
X85314849Y-110566762D01*
X85406961Y-110369225D01*
X85406961Y-110369224D01*
X85409284Y-110364243D01*
X85452825Y-110201749D01*
X85467119Y-110148402D01*
X85467119Y-110148400D01*
X85468543Y-110143087D01*
X85488498Y-109915000D01*
X85468543Y-109686913D01*
X85409284Y-109465757D01*
X85385217Y-109414144D01*
X85314849Y-109263238D01*
X85314846Y-109263233D01*
X85312523Y-109258251D01*
X85209111Y-109110564D01*
X85184357Y-109075211D01*
X85184355Y-109075208D01*
X85181198Y-109070700D01*
X85019300Y-108908802D01*
X85014789Y-108905643D01*
X85010576Y-108902108D01*
X85011527Y-108900974D01*
X84971529Y-108850929D01*
X84964224Y-108780310D01*
X84996258Y-108716951D01*
X85057462Y-108680970D01*
X85074517Y-108677918D01*
X85085316Y-108676745D01*
X85221705Y-108625615D01*
X85338261Y-108538261D01*
X85425615Y-108421705D01*
X85476745Y-108285316D01*
X85483500Y-108223134D01*
X85483500Y-107103503D01*
X89713606Y-107103503D01*
X89713942Y-107117599D01*
X89721884Y-107121000D01*
X91122885Y-107121000D01*
X91138124Y-107116525D01*
X91139329Y-107115135D01*
X91141000Y-107107452D01*
X91141000Y-107102885D01*
X91649000Y-107102885D01*
X91653475Y-107118124D01*
X91654865Y-107119329D01*
X91662548Y-107121000D01*
X93062967Y-107121000D01*
X93076498Y-107117027D01*
X93077727Y-107108478D01*
X93030236Y-106931239D01*
X93026490Y-106920947D01*
X92934414Y-106723489D01*
X92928931Y-106713993D01*
X92803972Y-106535533D01*
X92796916Y-106527125D01*
X92642875Y-106373084D01*
X92634467Y-106366028D01*
X92456007Y-106241069D01*
X92446511Y-106235586D01*
X92249053Y-106143510D01*
X92238761Y-106139764D01*
X92028312Y-106083375D01*
X92017519Y-106081472D01*
X91854830Y-106067238D01*
X91849365Y-106067000D01*
X91667115Y-106067000D01*
X91651876Y-106071475D01*
X91650671Y-106072865D01*
X91649000Y-106080548D01*
X91649000Y-107102885D01*
X91141000Y-107102885D01*
X91141000Y-106085115D01*
X91136525Y-106069876D01*
X91135135Y-106068671D01*
X91127452Y-106067000D01*
X90940635Y-106067000D01*
X90935170Y-106067238D01*
X90772481Y-106081472D01*
X90761688Y-106083375D01*
X90551239Y-106139764D01*
X90540947Y-106143510D01*
X90343489Y-106235586D01*
X90333993Y-106241069D01*
X90155533Y-106366028D01*
X90147125Y-106373084D01*
X89993084Y-106527125D01*
X89986028Y-106535533D01*
X89861069Y-106713993D01*
X89855586Y-106723489D01*
X89763510Y-106920947D01*
X89759764Y-106931239D01*
X89713606Y-107103503D01*
X85483500Y-107103503D01*
X85483500Y-106526866D01*
X85476745Y-106464684D01*
X85425615Y-106328295D01*
X85338261Y-106211739D01*
X85221705Y-106124385D01*
X85085316Y-106073255D01*
X85023134Y-106066500D01*
X84659500Y-106066500D01*
X84591379Y-106046498D01*
X84544886Y-105992842D01*
X84533500Y-105940500D01*
X84533500Y-101634500D01*
X84553502Y-101566379D01*
X84607158Y-101519886D01*
X84659500Y-101508500D01*
X86280457Y-101508500D01*
X86342639Y-101501745D01*
X86479028Y-101450615D01*
X86595584Y-101363261D01*
X86682938Y-101246705D01*
X86734068Y-101110316D01*
X86740823Y-101048134D01*
X86740823Y-100000000D01*
X88719158Y-100000000D01*
X88737788Y-100236711D01*
X88738942Y-100241518D01*
X88738943Y-100241524D01*
X88758110Y-100321359D01*
X88793218Y-100467594D01*
X88884083Y-100686963D01*
X88886669Y-100691183D01*
X89005564Y-100885202D01*
X89005568Y-100885208D01*
X89008147Y-100889416D01*
X89162354Y-101069969D01*
X89342907Y-101224176D01*
X89347115Y-101226755D01*
X89347121Y-101226759D01*
X89541140Y-101345654D01*
X89545360Y-101348240D01*
X89549930Y-101350133D01*
X89549934Y-101350135D01*
X89760156Y-101437211D01*
X89764729Y-101439105D01*
X89812672Y-101450615D01*
X89990799Y-101493380D01*
X89990805Y-101493381D01*
X89995612Y-101494535D01*
X90232323Y-101513165D01*
X90469034Y-101494535D01*
X90473841Y-101493381D01*
X90473847Y-101493380D01*
X90651974Y-101450615D01*
X90699917Y-101439105D01*
X90704490Y-101437211D01*
X90914712Y-101350135D01*
X90914716Y-101350133D01*
X90919286Y-101348240D01*
X90923506Y-101345654D01*
X91117525Y-101226759D01*
X91117531Y-101226755D01*
X91121739Y-101224176D01*
X91302292Y-101069969D01*
X91456499Y-100889416D01*
X91459078Y-100885208D01*
X91459082Y-100885202D01*
X91577977Y-100691183D01*
X91580563Y-100686963D01*
X91671428Y-100467594D01*
X91706536Y-100321359D01*
X91725703Y-100241524D01*
X91725704Y-100241518D01*
X91726858Y-100236711D01*
X91745488Y-100000000D01*
X91726858Y-99763289D01*
X91724958Y-99755372D01*
X91685204Y-99589789D01*
X91671428Y-99532406D01*
X91648507Y-99477069D01*
X91582458Y-99317611D01*
X91582456Y-99317607D01*
X91580563Y-99313037D01*
X91507576Y-99193933D01*
X91459082Y-99114798D01*
X91459078Y-99114792D01*
X91456499Y-99110584D01*
X91319347Y-98950000D01*
X96086502Y-98950000D01*
X96106457Y-99178087D01*
X96107881Y-99183400D01*
X96107881Y-99183402D01*
X96143843Y-99317611D01*
X96165716Y-99399243D01*
X96168039Y-99404224D01*
X96168039Y-99404225D01*
X96260151Y-99601762D01*
X96260154Y-99601767D01*
X96262477Y-99606749D01*
X96268879Y-99615892D01*
X96379633Y-99774064D01*
X96393802Y-99794300D01*
X96555700Y-99956198D01*
X96560208Y-99959355D01*
X96560211Y-99959357D01*
X96632960Y-100010296D01*
X96743251Y-100087523D01*
X96748233Y-100089846D01*
X96748238Y-100089849D01*
X96841022Y-100133114D01*
X96950757Y-100184284D01*
X96956066Y-100185707D01*
X96956070Y-100185708D01*
X96992211Y-100195392D01*
X97008111Y-100199652D01*
X97068734Y-100236603D01*
X97099755Y-100300464D01*
X97101500Y-100321359D01*
X97101500Y-108745127D01*
X97081498Y-108813248D01*
X97051154Y-108845886D01*
X97041286Y-108853295D01*
X96956565Y-108916906D01*
X96921655Y-108943117D01*
X96761639Y-109110564D01*
X96758725Y-109114836D01*
X96758724Y-109114837D01*
X96694300Y-109209279D01*
X96631119Y-109301899D01*
X96533602Y-109511981D01*
X96471707Y-109735169D01*
X96447095Y-109965469D01*
X96447392Y-109970622D01*
X96447392Y-109970625D01*
X96448429Y-109988614D01*
X96460427Y-110196697D01*
X96461564Y-110201743D01*
X96461565Y-110201749D01*
X96493741Y-110344523D01*
X96511346Y-110422642D01*
X96513288Y-110427424D01*
X96513289Y-110427428D01*
X96596540Y-110632450D01*
X96598484Y-110637237D01*
X96719501Y-110834719D01*
X96871147Y-111009784D01*
X97049349Y-111157730D01*
X97249322Y-111274584D01*
X97465694Y-111357209D01*
X97470760Y-111358240D01*
X97470761Y-111358240D01*
X97523846Y-111369040D01*
X97692656Y-111403385D01*
X97822089Y-111408131D01*
X97918949Y-111411683D01*
X97918953Y-111411683D01*
X97924113Y-111411872D01*
X97929233Y-111411216D01*
X97929235Y-111411216D01*
X98003166Y-111401745D01*
X98153847Y-111382442D01*
X98158795Y-111380957D01*
X98158802Y-111380956D01*
X98370747Y-111317369D01*
X98375690Y-111315886D01*
X98456236Y-111276427D01*
X98579049Y-111216262D01*
X98579052Y-111216260D01*
X98583684Y-111213991D01*
X98772243Y-111079494D01*
X98817309Y-111034585D01*
X98879681Y-111000669D01*
X98950487Y-111005857D01*
X99007249Y-111048503D01*
X99024231Y-111079607D01*
X99037890Y-111116041D01*
X99049385Y-111146705D01*
X99136739Y-111263261D01*
X99253295Y-111350615D01*
X99389684Y-111401745D01*
X99451866Y-111408500D01*
X101348134Y-111408500D01*
X101410316Y-111401745D01*
X101546705Y-111350615D01*
X101663261Y-111263261D01*
X101750615Y-111146705D01*
X101801745Y-111010316D01*
X101808500Y-110948134D01*
X101808500Y-109051866D01*
X101801745Y-108989684D01*
X101750615Y-108853295D01*
X101663261Y-108736739D01*
X101546705Y-108649385D01*
X101410316Y-108598255D01*
X101348134Y-108591500D01*
X101284500Y-108591500D01*
X101216379Y-108571498D01*
X101169886Y-108517842D01*
X101158500Y-108465500D01*
X101158500Y-105716371D01*
X101178502Y-105648250D01*
X101195405Y-105627276D01*
X101737010Y-105085671D01*
X101799322Y-105051645D01*
X101837087Y-105049245D01*
X101994525Y-105063019D01*
X102000000Y-105063498D01*
X102228087Y-105043543D01*
X102233400Y-105042119D01*
X102233402Y-105042119D01*
X102443933Y-104985707D01*
X102443935Y-104985706D01*
X102449243Y-104984284D01*
X102511312Y-104955341D01*
X102651762Y-104889849D01*
X102651767Y-104889846D01*
X102656749Y-104887523D01*
X102785925Y-104797073D01*
X102839789Y-104759357D01*
X102839792Y-104759355D01*
X102844300Y-104756198D01*
X103006198Y-104594300D01*
X103137523Y-104406749D01*
X103139846Y-104401767D01*
X103139849Y-104401762D01*
X103231961Y-104204225D01*
X103231961Y-104204224D01*
X103234284Y-104199243D01*
X103293543Y-103978087D01*
X103313498Y-103750000D01*
X103293543Y-103521913D01*
X103234284Y-103300757D01*
X103231961Y-103295775D01*
X103139849Y-103098238D01*
X103139846Y-103098233D01*
X103137523Y-103093251D01*
X103006198Y-102905700D01*
X102844300Y-102743802D01*
X102839792Y-102740645D01*
X102839789Y-102740643D01*
X102761611Y-102685902D01*
X102656749Y-102612477D01*
X102651767Y-102610154D01*
X102651762Y-102610151D01*
X102454225Y-102518039D01*
X102454224Y-102518039D01*
X102449243Y-102515716D01*
X102443935Y-102514294D01*
X102443933Y-102514293D01*
X102233402Y-102457881D01*
X102233400Y-102457881D01*
X102228087Y-102456457D01*
X102000000Y-102436502D01*
X101771913Y-102456457D01*
X101766600Y-102457881D01*
X101766598Y-102457881D01*
X101556067Y-102514293D01*
X101556065Y-102514294D01*
X101550757Y-102515716D01*
X101545776Y-102518039D01*
X101545775Y-102518039D01*
X101348238Y-102610151D01*
X101348233Y-102610154D01*
X101343251Y-102612477D01*
X101238389Y-102685902D01*
X101160211Y-102740643D01*
X101160208Y-102740645D01*
X101155700Y-102743802D01*
X100993802Y-102905700D01*
X100862477Y-103093251D01*
X100860154Y-103098233D01*
X100860151Y-103098238D01*
X100768039Y-103295775D01*
X100765716Y-103300757D01*
X100706457Y-103521913D01*
X100686502Y-103750000D01*
X100686981Y-103755475D01*
X100700755Y-103912913D01*
X100686766Y-103982518D01*
X100664329Y-104012990D01*
X99911089Y-104766230D01*
X99896677Y-104778616D01*
X99885082Y-104787149D01*
X99885077Y-104787154D01*
X99879182Y-104791492D01*
X99874443Y-104797070D01*
X99874440Y-104797073D01*
X99844965Y-104831768D01*
X99838035Y-104839284D01*
X99832340Y-104844979D01*
X99830060Y-104847861D01*
X99814719Y-104867251D01*
X99811928Y-104870655D01*
X99769409Y-104920703D01*
X99764667Y-104926285D01*
X99761339Y-104932801D01*
X99757972Y-104937850D01*
X99754805Y-104942979D01*
X99750266Y-104948716D01*
X99719345Y-105014875D01*
X99717442Y-105018769D01*
X99684231Y-105083808D01*
X99682492Y-105090916D01*
X99680393Y-105096559D01*
X99678476Y-105102322D01*
X99675378Y-105108950D01*
X99673888Y-105116112D01*
X99673888Y-105116113D01*
X99660514Y-105180412D01*
X99659544Y-105184696D01*
X99642192Y-105255610D01*
X99641500Y-105266764D01*
X99641464Y-105266762D01*
X99641225Y-105270755D01*
X99640851Y-105274947D01*
X99639360Y-105282115D01*
X99639558Y-105289432D01*
X99641454Y-105359521D01*
X99641500Y-105362928D01*
X99641500Y-108465500D01*
X99621498Y-108533621D01*
X99567842Y-108580114D01*
X99515500Y-108591500D01*
X99451866Y-108591500D01*
X99389684Y-108598255D01*
X99253295Y-108649385D01*
X99136739Y-108736739D01*
X99049385Y-108853295D01*
X99046233Y-108861703D01*
X99046232Y-108861705D01*
X99025538Y-108916906D01*
X98982897Y-108973671D01*
X98916335Y-108998371D01*
X98846986Y-108983164D01*
X98824167Y-108966666D01*
X98823887Y-108966358D01*
X98666408Y-108841989D01*
X98625345Y-108784072D01*
X98618500Y-108743107D01*
X98618500Y-99477069D01*
X98619933Y-99458118D01*
X98623199Y-99436650D01*
X98624919Y-99436912D01*
X98631409Y-99409880D01*
X98630078Y-99409396D01*
X98631957Y-99404233D01*
X98634284Y-99399243D01*
X98693543Y-99178087D01*
X98713498Y-98950000D01*
X98693543Y-98721913D01*
X98692119Y-98716598D01*
X98635707Y-98506067D01*
X98635706Y-98506065D01*
X98634284Y-98500757D01*
X98631961Y-98495775D01*
X98539849Y-98298238D01*
X98539846Y-98298233D01*
X98537523Y-98293251D01*
X98406198Y-98105700D01*
X98244300Y-97943802D01*
X98239792Y-97940645D01*
X98239789Y-97940643D01*
X98161611Y-97885902D01*
X98056749Y-97812477D01*
X98051767Y-97810154D01*
X98051762Y-97810151D01*
X97854225Y-97718039D01*
X97854224Y-97718039D01*
X97849243Y-97715716D01*
X97843935Y-97714294D01*
X97843933Y-97714293D01*
X97633402Y-97657881D01*
X97633400Y-97657881D01*
X97628087Y-97656457D01*
X97400000Y-97636502D01*
X97171913Y-97656457D01*
X97166600Y-97657881D01*
X97166598Y-97657881D01*
X96956067Y-97714293D01*
X96956065Y-97714294D01*
X96950757Y-97715716D01*
X96945776Y-97718039D01*
X96945775Y-97718039D01*
X96748238Y-97810151D01*
X96748233Y-97810154D01*
X96743251Y-97812477D01*
X96638389Y-97885902D01*
X96560211Y-97940643D01*
X96560208Y-97940645D01*
X96555700Y-97943802D01*
X96393802Y-98105700D01*
X96262477Y-98293251D01*
X96260154Y-98298233D01*
X96260151Y-98298238D01*
X96168039Y-98495775D01*
X96165716Y-98500757D01*
X96164294Y-98506065D01*
X96164293Y-98506067D01*
X96107881Y-98716598D01*
X96106457Y-98721913D01*
X96086502Y-98950000D01*
X91319347Y-98950000D01*
X91302292Y-98930031D01*
X91121739Y-98775824D01*
X91117531Y-98773245D01*
X91117525Y-98773241D01*
X90923506Y-98654346D01*
X90919286Y-98651760D01*
X90914716Y-98649867D01*
X90914712Y-98649865D01*
X90704490Y-98562789D01*
X90704488Y-98562788D01*
X90699917Y-98560895D01*
X90619714Y-98541640D01*
X90473847Y-98506620D01*
X90473841Y-98506619D01*
X90469034Y-98505465D01*
X90232323Y-98486835D01*
X89995612Y-98505465D01*
X89990805Y-98506619D01*
X89990799Y-98506620D01*
X89844932Y-98541640D01*
X89764729Y-98560895D01*
X89760158Y-98562788D01*
X89760156Y-98562789D01*
X89549934Y-98649865D01*
X89549930Y-98649867D01*
X89545360Y-98651760D01*
X89541140Y-98654346D01*
X89347121Y-98773241D01*
X89347115Y-98773245D01*
X89342907Y-98775824D01*
X89162354Y-98930031D01*
X89008147Y-99110584D01*
X89005568Y-99114792D01*
X89005564Y-99114798D01*
X88957070Y-99193933D01*
X88884083Y-99313037D01*
X88882190Y-99317607D01*
X88882188Y-99317611D01*
X88816139Y-99477069D01*
X88793218Y-99532406D01*
X88779442Y-99589789D01*
X88739689Y-99755372D01*
X88737788Y-99763289D01*
X88719158Y-100000000D01*
X86740823Y-100000000D01*
X86740823Y-98951866D01*
X86734068Y-98889684D01*
X86682938Y-98753295D01*
X86595584Y-98636739D01*
X86479028Y-98549385D01*
X86342639Y-98498255D01*
X86280457Y-98491500D01*
X84659500Y-98491500D01*
X84591379Y-98471498D01*
X84544886Y-98417842D01*
X84533500Y-98365500D01*
X84533500Y-94392070D01*
X84534933Y-94373120D01*
X84537099Y-94358885D01*
X84537099Y-94358881D01*
X84538199Y-94351651D01*
X84533915Y-94298982D01*
X84533500Y-94288767D01*
X84533500Y-94280707D01*
X84530209Y-94252480D01*
X84529778Y-94248121D01*
X84524453Y-94182660D01*
X84523860Y-94175364D01*
X84521605Y-94168403D01*
X84520418Y-94162463D01*
X84519029Y-94156588D01*
X84518182Y-94149319D01*
X84493264Y-94080670D01*
X84491847Y-94076542D01*
X84471607Y-94014064D01*
X84471606Y-94014062D01*
X84469351Y-94007101D01*
X84465555Y-94000846D01*
X84463049Y-93995372D01*
X84460330Y-93989942D01*
X84457833Y-93983063D01*
X84417814Y-93922024D01*
X84415467Y-93918305D01*
X84377595Y-93855893D01*
X84370197Y-93847516D01*
X84370224Y-93847492D01*
X84367571Y-93844500D01*
X84364868Y-93841267D01*
X84360856Y-93835148D01*
X84304617Y-93781872D01*
X84302175Y-93779494D01*
X82985671Y-92462990D01*
X82951645Y-92400678D01*
X82949245Y-92362913D01*
X82963019Y-92205475D01*
X82963498Y-92200000D01*
X93036502Y-92200000D01*
X93056457Y-92428087D01*
X93115716Y-92649243D01*
X93118039Y-92654224D01*
X93118039Y-92654225D01*
X93210151Y-92851762D01*
X93210154Y-92851767D01*
X93212477Y-92856749D01*
X93343802Y-93044300D01*
X93505700Y-93206198D01*
X93510208Y-93209355D01*
X93510211Y-93209357D01*
X93588389Y-93264098D01*
X93693251Y-93337523D01*
X93698233Y-93339846D01*
X93698238Y-93339849D01*
X93895775Y-93431961D01*
X93900757Y-93434284D01*
X93906065Y-93435706D01*
X93906067Y-93435707D01*
X94116598Y-93492119D01*
X94116600Y-93492119D01*
X94121913Y-93493543D01*
X94350000Y-93513498D01*
X94578087Y-93493543D01*
X94583400Y-93492119D01*
X94583402Y-93492119D01*
X94793933Y-93435707D01*
X94793935Y-93435706D01*
X94799243Y-93434284D01*
X94804225Y-93431961D01*
X95001762Y-93339849D01*
X95001767Y-93339846D01*
X95006749Y-93337523D01*
X95111611Y-93264098D01*
X95189789Y-93209357D01*
X95189792Y-93209355D01*
X95194300Y-93206198D01*
X95356198Y-93044300D01*
X95487523Y-92856749D01*
X95489846Y-92851767D01*
X95489849Y-92851762D01*
X95581961Y-92654225D01*
X95581961Y-92654224D01*
X95584284Y-92649243D01*
X95643543Y-92428087D01*
X95663498Y-92200000D01*
X95643543Y-91971913D01*
X95584284Y-91750757D01*
X95563763Y-91706749D01*
X95489849Y-91548238D01*
X95489846Y-91548233D01*
X95487523Y-91543251D01*
X95356198Y-91355700D01*
X95194300Y-91193802D01*
X95189792Y-91190645D01*
X95189789Y-91190643D01*
X95083030Y-91115890D01*
X95006749Y-91062477D01*
X95001767Y-91060154D01*
X95001762Y-91060151D01*
X94979993Y-91050000D01*
X100686502Y-91050000D01*
X100706457Y-91278087D01*
X100765716Y-91499243D01*
X100768039Y-91504224D01*
X100768039Y-91504225D01*
X100860151Y-91701762D01*
X100860154Y-91701767D01*
X100862477Y-91706749D01*
X100993802Y-91894300D01*
X101155700Y-92056198D01*
X101160208Y-92059355D01*
X101160211Y-92059357D01*
X101238389Y-92114098D01*
X101343251Y-92187523D01*
X101348233Y-92189846D01*
X101348238Y-92189849D01*
X101545775Y-92281961D01*
X101550757Y-92284284D01*
X101556065Y-92285706D01*
X101556067Y-92285707D01*
X101766598Y-92342119D01*
X101766600Y-92342119D01*
X101771913Y-92343543D01*
X102000000Y-92363498D01*
X102228087Y-92343543D01*
X102233400Y-92342119D01*
X102233402Y-92342119D01*
X102443933Y-92285707D01*
X102443935Y-92285706D01*
X102449243Y-92284284D01*
X102454225Y-92281961D01*
X102651762Y-92189849D01*
X102651767Y-92189846D01*
X102656749Y-92187523D01*
X102761611Y-92114098D01*
X102839789Y-92059357D01*
X102839792Y-92059355D01*
X102844300Y-92056198D01*
X103006198Y-91894300D01*
X103137523Y-91706749D01*
X103139846Y-91701767D01*
X103139849Y-91701762D01*
X103231961Y-91504225D01*
X103231961Y-91504224D01*
X103234284Y-91499243D01*
X103293543Y-91278087D01*
X103313498Y-91050000D01*
X110686502Y-91050000D01*
X110706457Y-91278087D01*
X110765716Y-91499243D01*
X110768039Y-91504224D01*
X110768039Y-91504225D01*
X110860151Y-91701762D01*
X110860154Y-91701767D01*
X110862477Y-91706749D01*
X110993802Y-91894300D01*
X111155700Y-92056198D01*
X111160208Y-92059355D01*
X111160211Y-92059357D01*
X111238389Y-92114098D01*
X111343251Y-92187523D01*
X111348233Y-92189846D01*
X111348238Y-92189849D01*
X111545775Y-92281961D01*
X111550757Y-92284284D01*
X111556065Y-92285706D01*
X111556067Y-92285707D01*
X111766598Y-92342119D01*
X111766600Y-92342119D01*
X111771913Y-92343543D01*
X112000000Y-92363498D01*
X112228087Y-92343543D01*
X112233400Y-92342119D01*
X112233402Y-92342119D01*
X112443933Y-92285707D01*
X112443935Y-92285706D01*
X112449243Y-92284284D01*
X112454225Y-92281961D01*
X112651762Y-92189849D01*
X112651767Y-92189846D01*
X112656749Y-92187523D01*
X112761611Y-92114098D01*
X112839789Y-92059357D01*
X112839792Y-92059355D01*
X112844300Y-92056198D01*
X113006198Y-91894300D01*
X113137523Y-91706749D01*
X113139846Y-91701767D01*
X113139849Y-91701762D01*
X113231961Y-91504225D01*
X113231961Y-91504224D01*
X113234284Y-91499243D01*
X113293543Y-91278087D01*
X113313498Y-91050000D01*
X120686502Y-91050000D01*
X120706457Y-91278087D01*
X120765716Y-91499243D01*
X120768039Y-91504224D01*
X120768039Y-91504225D01*
X120860151Y-91701762D01*
X120860154Y-91701767D01*
X120862477Y-91706749D01*
X120993802Y-91894300D01*
X121155700Y-92056198D01*
X121160208Y-92059355D01*
X121160211Y-92059357D01*
X121238389Y-92114098D01*
X121343251Y-92187523D01*
X121348233Y-92189846D01*
X121348238Y-92189849D01*
X121545775Y-92281961D01*
X121550757Y-92284284D01*
X121556065Y-92285706D01*
X121556067Y-92285707D01*
X121766598Y-92342119D01*
X121766600Y-92342119D01*
X121771913Y-92343543D01*
X122000000Y-92363498D01*
X122228087Y-92343543D01*
X122233400Y-92342119D01*
X122233402Y-92342119D01*
X122443933Y-92285707D01*
X122443935Y-92285706D01*
X122449243Y-92284284D01*
X122454225Y-92281961D01*
X122651762Y-92189849D01*
X122651767Y-92189846D01*
X122656749Y-92187523D01*
X122761611Y-92114098D01*
X122839789Y-92059357D01*
X122839792Y-92059355D01*
X122844300Y-92056198D01*
X123006198Y-91894300D01*
X123137523Y-91706749D01*
X123139846Y-91701767D01*
X123139849Y-91701762D01*
X123231961Y-91504225D01*
X123231961Y-91504224D01*
X123234284Y-91499243D01*
X123293543Y-91278087D01*
X123313498Y-91050000D01*
X123293543Y-90821913D01*
X123234284Y-90600757D01*
X123231961Y-90595775D01*
X123139849Y-90398238D01*
X123139846Y-90398233D01*
X123137523Y-90393251D01*
X123006198Y-90205700D01*
X122844300Y-90043802D01*
X122839792Y-90040645D01*
X122839789Y-90040643D01*
X122761611Y-89985902D01*
X122656749Y-89912477D01*
X122651767Y-89910154D01*
X122651762Y-89910151D01*
X122454225Y-89818039D01*
X122454224Y-89818039D01*
X122449243Y-89815716D01*
X122443935Y-89814294D01*
X122443933Y-89814293D01*
X122233402Y-89757881D01*
X122233400Y-89757881D01*
X122228087Y-89756457D01*
X122000000Y-89736502D01*
X121771913Y-89756457D01*
X121766600Y-89757881D01*
X121766598Y-89757881D01*
X121556067Y-89814293D01*
X121556065Y-89814294D01*
X121550757Y-89815716D01*
X121545776Y-89818039D01*
X121545775Y-89818039D01*
X121348238Y-89910151D01*
X121348233Y-89910154D01*
X121343251Y-89912477D01*
X121238389Y-89985902D01*
X121160211Y-90040643D01*
X121160208Y-90040645D01*
X121155700Y-90043802D01*
X120993802Y-90205700D01*
X120862477Y-90393251D01*
X120860154Y-90398233D01*
X120860151Y-90398238D01*
X120768039Y-90595775D01*
X120765716Y-90600757D01*
X120706457Y-90821913D01*
X120686502Y-91050000D01*
X113313498Y-91050000D01*
X113293543Y-90821913D01*
X113234284Y-90600757D01*
X113231961Y-90595775D01*
X113139849Y-90398238D01*
X113139846Y-90398233D01*
X113137523Y-90393251D01*
X113006198Y-90205700D01*
X112844300Y-90043802D01*
X112839792Y-90040645D01*
X112839789Y-90040643D01*
X112761611Y-89985902D01*
X112656749Y-89912477D01*
X112651767Y-89910154D01*
X112651762Y-89910151D01*
X112454225Y-89818039D01*
X112454224Y-89818039D01*
X112449243Y-89815716D01*
X112443935Y-89814294D01*
X112443933Y-89814293D01*
X112233402Y-89757881D01*
X112233400Y-89757881D01*
X112228087Y-89756457D01*
X112000000Y-89736502D01*
X111771913Y-89756457D01*
X111766600Y-89757881D01*
X111766598Y-89757881D01*
X111556067Y-89814293D01*
X111556065Y-89814294D01*
X111550757Y-89815716D01*
X111545776Y-89818039D01*
X111545775Y-89818039D01*
X111348238Y-89910151D01*
X111348233Y-89910154D01*
X111343251Y-89912477D01*
X111238389Y-89985902D01*
X111160211Y-90040643D01*
X111160208Y-90040645D01*
X111155700Y-90043802D01*
X110993802Y-90205700D01*
X110862477Y-90393251D01*
X110860154Y-90398233D01*
X110860151Y-90398238D01*
X110768039Y-90595775D01*
X110765716Y-90600757D01*
X110706457Y-90821913D01*
X110686502Y-91050000D01*
X103313498Y-91050000D01*
X103293543Y-90821913D01*
X103234284Y-90600757D01*
X103231961Y-90595775D01*
X103139849Y-90398238D01*
X103139846Y-90398233D01*
X103137523Y-90393251D01*
X103006198Y-90205700D01*
X102844300Y-90043802D01*
X102839792Y-90040645D01*
X102839789Y-90040643D01*
X102761611Y-89985902D01*
X102656749Y-89912477D01*
X102651767Y-89910154D01*
X102651762Y-89910151D01*
X102454225Y-89818039D01*
X102454224Y-89818039D01*
X102449243Y-89815716D01*
X102443935Y-89814294D01*
X102443933Y-89814293D01*
X102233402Y-89757881D01*
X102233400Y-89757881D01*
X102228087Y-89756457D01*
X102000000Y-89736502D01*
X101771913Y-89756457D01*
X101766600Y-89757881D01*
X101766598Y-89757881D01*
X101556067Y-89814293D01*
X101556065Y-89814294D01*
X101550757Y-89815716D01*
X101545776Y-89818039D01*
X101545775Y-89818039D01*
X101348238Y-89910151D01*
X101348233Y-89910154D01*
X101343251Y-89912477D01*
X101238389Y-89985902D01*
X101160211Y-90040643D01*
X101160208Y-90040645D01*
X101155700Y-90043802D01*
X100993802Y-90205700D01*
X100862477Y-90393251D01*
X100860154Y-90398233D01*
X100860151Y-90398238D01*
X100768039Y-90595775D01*
X100765716Y-90600757D01*
X100706457Y-90821913D01*
X100686502Y-91050000D01*
X94979993Y-91050000D01*
X94804225Y-90968039D01*
X94804224Y-90968039D01*
X94799243Y-90965716D01*
X94793935Y-90964294D01*
X94793933Y-90964293D01*
X94583402Y-90907881D01*
X94583400Y-90907881D01*
X94578087Y-90906457D01*
X94350000Y-90886502D01*
X94121913Y-90906457D01*
X94116600Y-90907881D01*
X94116598Y-90907881D01*
X93906067Y-90964293D01*
X93906065Y-90964294D01*
X93900757Y-90965716D01*
X93895776Y-90968039D01*
X93895775Y-90968039D01*
X93698238Y-91060151D01*
X93698233Y-91060154D01*
X93693251Y-91062477D01*
X93616970Y-91115890D01*
X93510211Y-91190643D01*
X93510208Y-91190645D01*
X93505700Y-91193802D01*
X93343802Y-91355700D01*
X93212477Y-91543251D01*
X93210154Y-91548233D01*
X93210151Y-91548238D01*
X93136237Y-91706749D01*
X93115716Y-91750757D01*
X93056457Y-91971913D01*
X93036502Y-92200000D01*
X82963498Y-92200000D01*
X82943543Y-91971913D01*
X82884284Y-91750757D01*
X82863763Y-91706749D01*
X82789849Y-91548238D01*
X82789846Y-91548233D01*
X82787523Y-91543251D01*
X82656198Y-91355700D01*
X82494300Y-91193802D01*
X82462229Y-91171345D01*
X82417901Y-91115890D01*
X82408500Y-91068133D01*
X82408500Y-89631291D01*
X82428502Y-89563170D01*
X82482158Y-89516677D01*
X82520892Y-89506028D01*
X82533086Y-89504703D01*
X82560316Y-89501745D01*
X82696705Y-89450615D01*
X82813261Y-89363261D01*
X82900615Y-89246705D01*
X82951745Y-89110316D01*
X82958500Y-89048134D01*
X82958500Y-87351866D01*
X82951745Y-87289684D01*
X82900615Y-87153295D01*
X82813261Y-87036739D01*
X82696705Y-86949385D01*
X82560316Y-86898255D01*
X82498134Y-86891500D01*
X80801866Y-86891500D01*
X80739684Y-86898255D01*
X80678729Y-86921106D01*
X80607923Y-86926289D01*
X80545554Y-86892369D01*
X80511425Y-86830113D01*
X80508500Y-86803124D01*
X80508500Y-85486062D01*
X80928493Y-85486062D01*
X80937789Y-85498077D01*
X80988994Y-85533931D01*
X80998489Y-85539414D01*
X81195947Y-85631490D01*
X81206239Y-85635236D01*
X81416688Y-85691625D01*
X81427481Y-85693528D01*
X81644525Y-85712517D01*
X81655475Y-85712517D01*
X81872519Y-85693528D01*
X81883312Y-85691625D01*
X82093761Y-85635236D01*
X82104053Y-85631490D01*
X82301511Y-85539414D01*
X82311006Y-85533931D01*
X82363048Y-85497491D01*
X82371424Y-85487012D01*
X82364356Y-85473566D01*
X81662812Y-84772022D01*
X81648868Y-84764408D01*
X81647035Y-84764539D01*
X81640420Y-84768790D01*
X80934923Y-85474287D01*
X80928493Y-85486062D01*
X80508500Y-85486062D01*
X80508500Y-85226180D01*
X80528502Y-85158059D01*
X80575878Y-85114648D01*
X80576434Y-85114356D01*
X81277978Y-84412812D01*
X81284356Y-84401132D01*
X82014408Y-84401132D01*
X82014539Y-84402965D01*
X82018790Y-84409580D01*
X82724287Y-85115077D01*
X82736062Y-85121507D01*
X82748077Y-85112211D01*
X82783931Y-85061006D01*
X82789414Y-85051511D01*
X82881490Y-84854053D01*
X82885236Y-84843761D01*
X82941625Y-84633312D01*
X82943528Y-84622519D01*
X82962517Y-84405475D01*
X82962517Y-84394525D01*
X82943528Y-84177481D01*
X82941625Y-84166688D01*
X82885236Y-83956239D01*
X82881490Y-83945947D01*
X82789414Y-83748489D01*
X82783931Y-83738994D01*
X82747491Y-83686952D01*
X82737012Y-83678576D01*
X82723566Y-83685644D01*
X82022022Y-84387188D01*
X82014408Y-84401132D01*
X81284356Y-84401132D01*
X81285592Y-84398868D01*
X81285461Y-84397035D01*
X81281210Y-84390420D01*
X80575711Y-83684921D01*
X80574112Y-83684048D01*
X80523911Y-83633845D01*
X80508500Y-83573462D01*
X80508500Y-83312988D01*
X80928576Y-83312988D01*
X80935644Y-83326434D01*
X81637188Y-84027978D01*
X81651132Y-84035592D01*
X81652965Y-84035461D01*
X81659580Y-84031210D01*
X82365077Y-83325713D01*
X82371507Y-83313938D01*
X82362211Y-83301923D01*
X82311006Y-83266069D01*
X82301511Y-83260586D01*
X82104053Y-83168510D01*
X82093761Y-83164764D01*
X81883312Y-83108375D01*
X81872519Y-83106472D01*
X81655475Y-83087483D01*
X81644525Y-83087483D01*
X81427481Y-83106472D01*
X81416688Y-83108375D01*
X81206239Y-83164764D01*
X81195947Y-83168510D01*
X80998489Y-83260586D01*
X80988994Y-83266069D01*
X80936952Y-83302509D01*
X80928576Y-83312988D01*
X80508500Y-83312988D01*
X80508500Y-78600000D01*
X83586502Y-78600000D01*
X83606457Y-78828087D01*
X83607881Y-78833400D01*
X83607881Y-78833402D01*
X83617031Y-78867548D01*
X83665716Y-79049243D01*
X83668039Y-79054224D01*
X83668039Y-79054225D01*
X83760151Y-79251762D01*
X83760154Y-79251767D01*
X83762477Y-79256749D01*
X83765634Y-79261257D01*
X83881025Y-79426052D01*
X83893802Y-79444300D01*
X84055700Y-79606198D01*
X84060208Y-79609355D01*
X84060211Y-79609357D01*
X84101195Y-79638054D01*
X84243251Y-79737523D01*
X84248233Y-79739846D01*
X84248238Y-79739849D01*
X84445775Y-79831961D01*
X84450757Y-79834284D01*
X84456065Y-79835706D01*
X84456067Y-79835707D01*
X84666598Y-79892119D01*
X84666600Y-79892119D01*
X84671913Y-79893543D01*
X84900000Y-79913498D01*
X85128087Y-79893543D01*
X85133400Y-79892119D01*
X85133402Y-79892119D01*
X85343933Y-79835707D01*
X85343935Y-79835706D01*
X85349243Y-79834284D01*
X85354225Y-79831961D01*
X85551762Y-79739849D01*
X85551767Y-79739846D01*
X85556749Y-79737523D01*
X85698805Y-79638054D01*
X85739789Y-79609357D01*
X85739792Y-79609355D01*
X85744300Y-79606198D01*
X85890420Y-79460078D01*
X85952732Y-79426052D01*
X86023547Y-79431117D01*
X86080383Y-79473664D01*
X86097683Y-79510606D01*
X86098748Y-79510207D01*
X86146676Y-79638054D01*
X86155214Y-79653649D01*
X86231715Y-79755724D01*
X86244276Y-79768285D01*
X86346351Y-79844786D01*
X86361946Y-79853324D01*
X86482394Y-79898478D01*
X86497649Y-79902105D01*
X86548514Y-79907631D01*
X86555328Y-79908000D01*
X87127885Y-79908000D01*
X87143124Y-79903525D01*
X87144329Y-79902135D01*
X87146000Y-79894452D01*
X87146000Y-79889884D01*
X87654000Y-79889884D01*
X87658475Y-79905123D01*
X87659865Y-79906328D01*
X87667548Y-79907999D01*
X88244669Y-79907999D01*
X88251490Y-79907629D01*
X88302352Y-79902105D01*
X88317604Y-79898479D01*
X88438054Y-79853324D01*
X88453649Y-79844786D01*
X88555724Y-79768285D01*
X88568285Y-79755724D01*
X88644786Y-79653649D01*
X88653324Y-79638054D01*
X88698478Y-79517606D01*
X88701492Y-79504930D01*
X91087725Y-79504930D01*
X91105572Y-79731699D01*
X91107115Y-79741446D01*
X91160217Y-79962627D01*
X91163266Y-79972012D01*
X91250313Y-80182163D01*
X91254795Y-80190958D01*
X91357432Y-80358445D01*
X91367890Y-80367907D01*
X91376666Y-80364124D01*
X92227978Y-79512812D01*
X92235592Y-79498868D01*
X92235461Y-79497035D01*
X92231210Y-79490420D01*
X91379710Y-78638920D01*
X91367330Y-78632160D01*
X91359680Y-78637887D01*
X91254795Y-78809042D01*
X91250313Y-78817837D01*
X91163266Y-79027988D01*
X91160217Y-79037373D01*
X91107115Y-79258554D01*
X91105572Y-79268301D01*
X91087725Y-79495070D01*
X91087725Y-79504930D01*
X88701492Y-79504930D01*
X88702105Y-79502351D01*
X88707631Y-79451486D01*
X88708000Y-79444672D01*
X88708000Y-78872115D01*
X88703525Y-78856876D01*
X88702135Y-78855671D01*
X88694452Y-78854000D01*
X87672115Y-78854000D01*
X87656876Y-78858475D01*
X87655671Y-78859865D01*
X87654000Y-78867548D01*
X87654000Y-79889884D01*
X87146000Y-79889884D01*
X87146000Y-78327885D01*
X87654000Y-78327885D01*
X87658475Y-78343124D01*
X87659865Y-78344329D01*
X87667548Y-78346000D01*
X88689884Y-78346000D01*
X88705123Y-78341525D01*
X88706328Y-78340135D01*
X88707999Y-78332452D01*
X88707999Y-77755331D01*
X88707629Y-77748510D01*
X88702105Y-77697648D01*
X88698479Y-77682396D01*
X88653324Y-77561946D01*
X88644786Y-77546351D01*
X88568285Y-77444276D01*
X88555724Y-77431715D01*
X88453649Y-77355214D01*
X88438054Y-77346676D01*
X88317606Y-77301522D01*
X88302351Y-77297895D01*
X88251486Y-77292369D01*
X88244672Y-77292000D01*
X87672115Y-77292000D01*
X87656876Y-77296475D01*
X87655671Y-77297865D01*
X87654000Y-77305548D01*
X87654000Y-78327885D01*
X87146000Y-78327885D01*
X87146000Y-77310116D01*
X87141525Y-77294877D01*
X87140135Y-77293672D01*
X87132452Y-77292001D01*
X86555331Y-77292001D01*
X86548510Y-77292371D01*
X86497648Y-77297895D01*
X86482396Y-77301521D01*
X86361946Y-77346676D01*
X86346351Y-77355214D01*
X86244276Y-77431715D01*
X86231715Y-77444276D01*
X86155214Y-77546351D01*
X86146676Y-77561946D01*
X86098748Y-77689793D01*
X86096888Y-77689096D01*
X86066869Y-77741628D01*
X86003910Y-77774442D01*
X85933206Y-77768008D01*
X85890419Y-77739921D01*
X85744300Y-77593802D01*
X85739792Y-77590645D01*
X85739789Y-77590643D01*
X85661611Y-77535902D01*
X85556749Y-77462477D01*
X85551767Y-77460154D01*
X85551762Y-77460151D01*
X85354225Y-77368039D01*
X85354224Y-77368039D01*
X85349243Y-77365716D01*
X85343935Y-77364294D01*
X85343933Y-77364293D01*
X85133402Y-77307881D01*
X85133400Y-77307881D01*
X85128087Y-77306457D01*
X84900000Y-77286502D01*
X84671913Y-77306457D01*
X84666600Y-77307881D01*
X84666598Y-77307881D01*
X84456067Y-77364293D01*
X84456065Y-77364294D01*
X84450757Y-77365716D01*
X84445776Y-77368039D01*
X84445775Y-77368039D01*
X84248238Y-77460151D01*
X84248233Y-77460154D01*
X84243251Y-77462477D01*
X84138389Y-77535902D01*
X84060211Y-77590643D01*
X84060208Y-77590645D01*
X84055700Y-77593802D01*
X83893802Y-77755700D01*
X83890645Y-77760208D01*
X83890643Y-77760211D01*
X83835902Y-77838389D01*
X83762477Y-77943251D01*
X83760154Y-77948233D01*
X83760151Y-77948238D01*
X83733416Y-78005572D01*
X83665716Y-78150757D01*
X83664294Y-78156065D01*
X83664293Y-78156067D01*
X83614972Y-78340135D01*
X83606457Y-78371913D01*
X83586502Y-78600000D01*
X80508500Y-78600000D01*
X80508500Y-73000000D01*
X82186502Y-73000000D01*
X82206457Y-73228087D01*
X82207881Y-73233400D01*
X82207881Y-73233402D01*
X82245025Y-73372022D01*
X82265716Y-73449243D01*
X82268039Y-73454224D01*
X82268039Y-73454225D01*
X82360151Y-73651762D01*
X82360154Y-73651767D01*
X82362477Y-73656749D01*
X82493802Y-73844300D01*
X82655700Y-74006198D01*
X82660208Y-74009355D01*
X82660211Y-74009357D01*
X82738389Y-74064098D01*
X82843251Y-74137523D01*
X82848233Y-74139846D01*
X82848238Y-74139849D01*
X83044765Y-74231490D01*
X83050757Y-74234284D01*
X83056065Y-74235706D01*
X83056067Y-74235707D01*
X83266598Y-74292119D01*
X83266600Y-74292119D01*
X83271913Y-74293543D01*
X83500000Y-74313498D01*
X83728087Y-74293543D01*
X83733400Y-74292119D01*
X83733402Y-74292119D01*
X83943933Y-74235707D01*
X83943935Y-74235706D01*
X83949243Y-74234284D01*
X83955235Y-74231490D01*
X84151762Y-74139849D01*
X84151767Y-74139846D01*
X84156749Y-74137523D01*
X84230243Y-74086062D01*
X87778493Y-74086062D01*
X87787789Y-74098077D01*
X87838994Y-74133931D01*
X87848489Y-74139414D01*
X88045947Y-74231490D01*
X88056239Y-74235236D01*
X88266688Y-74291625D01*
X88277481Y-74293528D01*
X88494525Y-74312517D01*
X88505475Y-74312517D01*
X88722519Y-74293528D01*
X88733312Y-74291625D01*
X88943761Y-74235236D01*
X88954053Y-74231490D01*
X89151511Y-74139414D01*
X89161006Y-74133931D01*
X89213048Y-74097491D01*
X89221424Y-74087012D01*
X89214356Y-74073566D01*
X88512812Y-73372022D01*
X88498868Y-73364408D01*
X88497035Y-73364539D01*
X88490420Y-73368790D01*
X87784923Y-74074287D01*
X87778493Y-74086062D01*
X84230243Y-74086062D01*
X84261611Y-74064098D01*
X84339789Y-74009357D01*
X84339792Y-74009355D01*
X84344300Y-74006198D01*
X84506198Y-73844300D01*
X84637523Y-73656749D01*
X84639846Y-73651767D01*
X84639849Y-73651762D01*
X84731961Y-73454225D01*
X84731961Y-73454224D01*
X84734284Y-73449243D01*
X84754976Y-73372022D01*
X84792119Y-73233402D01*
X84792119Y-73233400D01*
X84793543Y-73228087D01*
X84813019Y-73005475D01*
X87187483Y-73005475D01*
X87206472Y-73222519D01*
X87208375Y-73233312D01*
X87264764Y-73443761D01*
X87268510Y-73454053D01*
X87360586Y-73651511D01*
X87366069Y-73661006D01*
X87402509Y-73713048D01*
X87412988Y-73721424D01*
X87426434Y-73714356D01*
X88127978Y-73012812D01*
X88134356Y-73001132D01*
X88864408Y-73001132D01*
X88864539Y-73002965D01*
X88868790Y-73009580D01*
X89574287Y-73715077D01*
X89586062Y-73721507D01*
X89598077Y-73712211D01*
X89633931Y-73661006D01*
X89639414Y-73651511D01*
X89731490Y-73454053D01*
X89735236Y-73443761D01*
X89791625Y-73233312D01*
X89793528Y-73222519D01*
X89812517Y-73005475D01*
X89812517Y-72994525D01*
X89793528Y-72777481D01*
X89791625Y-72766688D01*
X89735236Y-72556239D01*
X89731490Y-72545947D01*
X89639414Y-72348489D01*
X89633931Y-72338994D01*
X89597491Y-72286952D01*
X89587012Y-72278576D01*
X89573566Y-72285644D01*
X88872022Y-72987188D01*
X88864408Y-73001132D01*
X88134356Y-73001132D01*
X88135592Y-72998868D01*
X88135461Y-72997035D01*
X88131210Y-72990420D01*
X87425713Y-72284923D01*
X87413938Y-72278493D01*
X87401923Y-72287789D01*
X87366069Y-72338994D01*
X87360586Y-72348489D01*
X87268510Y-72545947D01*
X87264764Y-72556239D01*
X87208375Y-72766688D01*
X87206472Y-72777481D01*
X87187483Y-72994525D01*
X87187483Y-73005475D01*
X84813019Y-73005475D01*
X84813498Y-73000000D01*
X84793543Y-72771913D01*
X84756981Y-72635461D01*
X84735707Y-72556067D01*
X84735706Y-72556065D01*
X84734284Y-72550757D01*
X84639966Y-72348489D01*
X84639849Y-72348238D01*
X84639846Y-72348233D01*
X84637523Y-72343251D01*
X84564098Y-72238389D01*
X84509357Y-72160211D01*
X84509355Y-72160208D01*
X84506198Y-72155700D01*
X84344300Y-71993802D01*
X84339792Y-71990645D01*
X84339789Y-71990643D01*
X84228886Y-71912988D01*
X87778576Y-71912988D01*
X87785644Y-71926434D01*
X88487188Y-72627978D01*
X88501132Y-72635592D01*
X88502965Y-72635461D01*
X88509580Y-72631210D01*
X89215077Y-71925713D01*
X89221507Y-71913938D01*
X89212211Y-71901923D01*
X89161006Y-71866069D01*
X89151511Y-71860586D01*
X88954053Y-71768510D01*
X88943761Y-71764764D01*
X88733312Y-71708375D01*
X88722519Y-71706472D01*
X88505475Y-71687483D01*
X88494525Y-71687483D01*
X88277481Y-71706472D01*
X88266688Y-71708375D01*
X88056239Y-71764764D01*
X88045947Y-71768510D01*
X87848489Y-71860586D01*
X87838994Y-71866069D01*
X87786952Y-71902509D01*
X87778576Y-71912988D01*
X84228886Y-71912988D01*
X84213920Y-71902509D01*
X84156749Y-71862477D01*
X84151767Y-71860154D01*
X84151762Y-71860151D01*
X83954225Y-71768039D01*
X83954224Y-71768039D01*
X83949243Y-71765716D01*
X83943935Y-71764294D01*
X83943933Y-71764293D01*
X83733402Y-71707881D01*
X83733400Y-71707881D01*
X83728087Y-71706457D01*
X83500000Y-71686502D01*
X83271913Y-71706457D01*
X83266600Y-71707881D01*
X83266598Y-71707881D01*
X83056067Y-71764293D01*
X83056065Y-71764294D01*
X83050757Y-71765716D01*
X83045776Y-71768039D01*
X83045775Y-71768039D01*
X82848238Y-71860151D01*
X82848233Y-71860154D01*
X82843251Y-71862477D01*
X82786080Y-71902509D01*
X82660211Y-71990643D01*
X82660208Y-71990645D01*
X82655700Y-71993802D01*
X82493802Y-72155700D01*
X82490645Y-72160208D01*
X82490643Y-72160211D01*
X82435902Y-72238389D01*
X82362477Y-72343251D01*
X82360154Y-72348233D01*
X82360151Y-72348238D01*
X82360034Y-72348489D01*
X82265716Y-72550757D01*
X82264294Y-72556065D01*
X82264293Y-72556067D01*
X82243019Y-72635461D01*
X82206457Y-72771913D01*
X82186502Y-73000000D01*
X80508500Y-73000000D01*
X80508500Y-71326000D01*
X80528502Y-71257879D01*
X80582158Y-71211386D01*
X80634500Y-71200000D01*
X91189186Y-71200000D01*
X91257307Y-71220002D01*
X91296618Y-71260165D01*
X91375824Y-71389416D01*
X91530031Y-71569969D01*
X91710584Y-71724176D01*
X91714792Y-71726755D01*
X91714798Y-71726759D01*
X91899344Y-71839849D01*
X91913037Y-71848240D01*
X91917607Y-71850133D01*
X91917611Y-71850135D01*
X92120767Y-71934284D01*
X92132406Y-71939105D01*
X92186605Y-71952117D01*
X92358476Y-71993380D01*
X92358482Y-71993381D01*
X92363289Y-71994535D01*
X92600000Y-72013165D01*
X92836711Y-71994535D01*
X92841518Y-71993381D01*
X92841524Y-71993380D01*
X93013395Y-71952117D01*
X93067594Y-71939105D01*
X93079233Y-71934284D01*
X93282389Y-71850135D01*
X93282393Y-71850133D01*
X93286963Y-71848240D01*
X93300656Y-71839849D01*
X93399665Y-71779176D01*
X93468199Y-71760638D01*
X93535875Y-71782094D01*
X93581208Y-71836733D01*
X93591500Y-71886609D01*
X93591500Y-78113979D01*
X93571498Y-78182100D01*
X93517842Y-78228593D01*
X93447568Y-78238697D01*
X93399665Y-78221411D01*
X93290958Y-78154795D01*
X93282163Y-78150313D01*
X93072012Y-78063266D01*
X93062627Y-78060217D01*
X92841446Y-78007115D01*
X92831699Y-78005572D01*
X92604930Y-77987725D01*
X92595070Y-77987725D01*
X92368301Y-78005572D01*
X92358554Y-78007115D01*
X92137373Y-78060217D01*
X92127988Y-78063266D01*
X91917837Y-78150313D01*
X91909042Y-78154795D01*
X91741555Y-78257432D01*
X91732093Y-78267890D01*
X91735876Y-78276666D01*
X92870115Y-79410905D01*
X92904141Y-79473217D01*
X92899076Y-79544032D01*
X92870115Y-79589095D01*
X91738920Y-80720290D01*
X91732160Y-80732670D01*
X91737887Y-80740320D01*
X91909042Y-80845205D01*
X91917837Y-80849687D01*
X92127988Y-80936734D01*
X92137373Y-80939783D01*
X92358554Y-80992885D01*
X92368301Y-80994428D01*
X92595070Y-81012275D01*
X92604930Y-81012275D01*
X92831699Y-80994428D01*
X92841446Y-80992885D01*
X93062627Y-80939783D01*
X93072012Y-80936734D01*
X93282163Y-80849687D01*
X93290958Y-80845205D01*
X93399665Y-80778589D01*
X93468198Y-80760050D01*
X93535875Y-80781506D01*
X93581208Y-80836145D01*
X93591500Y-80886021D01*
X93591500Y-83268133D01*
X93571498Y-83336254D01*
X93537772Y-83371345D01*
X93505700Y-83393802D01*
X93343802Y-83555700D01*
X93212477Y-83743251D01*
X93210154Y-83748233D01*
X93210151Y-83748238D01*
X93131481Y-83916948D01*
X93115716Y-83950757D01*
X93114294Y-83956065D01*
X93114293Y-83956067D01*
X93065554Y-84137963D01*
X93056457Y-84171913D01*
X93036502Y-84400000D01*
X93056457Y-84628087D01*
X93057881Y-84633400D01*
X93057881Y-84633402D01*
X93098594Y-84785342D01*
X93115716Y-84849243D01*
X93118039Y-84854224D01*
X93118039Y-84854225D01*
X93210151Y-85051762D01*
X93210154Y-85051767D01*
X93212477Y-85056749D01*
X93283415Y-85158059D01*
X93334783Y-85231419D01*
X93343802Y-85244300D01*
X93505700Y-85406198D01*
X93537771Y-85428655D01*
X93582099Y-85484110D01*
X93591500Y-85531867D01*
X93591500Y-87068133D01*
X93571498Y-87136254D01*
X93537772Y-87171345D01*
X93505700Y-87193802D01*
X93343802Y-87355700D01*
X93340645Y-87360208D01*
X93340643Y-87360211D01*
X93285902Y-87438389D01*
X93212477Y-87543251D01*
X93210154Y-87548233D01*
X93210151Y-87548238D01*
X93156723Y-87662816D01*
X93115716Y-87750757D01*
X93114294Y-87756065D01*
X93114293Y-87756067D01*
X93064173Y-87943115D01*
X93056457Y-87971913D01*
X93036502Y-88200000D01*
X93056457Y-88428087D01*
X93115716Y-88649243D01*
X93118039Y-88654224D01*
X93118039Y-88654225D01*
X93210151Y-88851762D01*
X93210154Y-88851767D01*
X93212477Y-88856749D01*
X93343802Y-89044300D01*
X93505700Y-89206198D01*
X93510208Y-89209355D01*
X93510211Y-89209357D01*
X93551542Y-89238297D01*
X93693251Y-89337523D01*
X93698233Y-89339846D01*
X93698238Y-89339849D01*
X93895775Y-89431961D01*
X93900757Y-89434284D01*
X93906065Y-89435706D01*
X93906067Y-89435707D01*
X94116598Y-89492119D01*
X94116600Y-89492119D01*
X94121913Y-89493543D01*
X94350000Y-89513498D01*
X94578087Y-89493543D01*
X94583400Y-89492119D01*
X94583402Y-89492119D01*
X94793933Y-89435707D01*
X94793935Y-89435706D01*
X94799243Y-89434284D01*
X94804225Y-89431961D01*
X95001762Y-89339849D01*
X95001767Y-89339846D01*
X95006749Y-89337523D01*
X95148458Y-89238297D01*
X95189789Y-89209357D01*
X95189792Y-89209355D01*
X95194300Y-89206198D01*
X95356198Y-89044300D01*
X95487523Y-88856749D01*
X95489846Y-88851767D01*
X95489849Y-88851762D01*
X95581961Y-88654225D01*
X95581961Y-88654224D01*
X95584284Y-88649243D01*
X95643543Y-88428087D01*
X95663498Y-88200000D01*
X95643543Y-87971913D01*
X95635827Y-87943115D01*
X95585707Y-87756067D01*
X95585706Y-87756065D01*
X95584284Y-87750757D01*
X95543277Y-87662816D01*
X95489849Y-87548238D01*
X95489846Y-87548233D01*
X95487523Y-87543251D01*
X95414098Y-87438389D01*
X95359357Y-87360211D01*
X95359355Y-87360208D01*
X95356198Y-87355700D01*
X95194300Y-87193802D01*
X95162229Y-87171345D01*
X95117901Y-87115890D01*
X95108500Y-87068133D01*
X95108500Y-85531867D01*
X95128502Y-85463746D01*
X95162228Y-85428655D01*
X95194300Y-85406198D01*
X95356198Y-85244300D01*
X95365218Y-85231419D01*
X95416585Y-85158059D01*
X95487523Y-85056749D01*
X95489846Y-85051767D01*
X95489849Y-85051762D01*
X95581961Y-84854225D01*
X95581961Y-84854224D01*
X95584284Y-84849243D01*
X95618176Y-84722757D01*
X95655127Y-84662136D01*
X95718987Y-84631115D01*
X95789482Y-84639543D01*
X95844229Y-84684746D01*
X95850401Y-84694859D01*
X95855212Y-84703646D01*
X95931715Y-84805724D01*
X95944276Y-84818285D01*
X96046351Y-84894786D01*
X96061946Y-84903324D01*
X96182394Y-84948478D01*
X96197649Y-84952105D01*
X96248514Y-84957631D01*
X96255328Y-84958000D01*
X96564246Y-84958000D01*
X96632367Y-84978002D01*
X96678860Y-85031658D01*
X96688964Y-85101932D01*
X96659470Y-85166512D01*
X96636517Y-85187213D01*
X96560211Y-85240643D01*
X96560208Y-85240645D01*
X96555700Y-85243802D01*
X96393802Y-85405700D01*
X96262477Y-85593251D01*
X96260154Y-85598233D01*
X96260151Y-85598238D01*
X96168039Y-85795775D01*
X96165716Y-85800757D01*
X96106457Y-86021913D01*
X96086502Y-86250000D01*
X96106457Y-86478087D01*
X96165716Y-86699243D01*
X96168039Y-86704224D01*
X96168039Y-86704225D01*
X96260151Y-86901762D01*
X96260154Y-86901767D01*
X96262477Y-86906749D01*
X96335902Y-87011611D01*
X96375480Y-87068133D01*
X96393802Y-87094300D01*
X96555700Y-87256198D01*
X96560208Y-87259355D01*
X96560211Y-87259357D01*
X96592493Y-87281961D01*
X96743251Y-87387523D01*
X96748233Y-87389846D01*
X96748238Y-87389849D01*
X96945775Y-87481961D01*
X96950757Y-87484284D01*
X96956065Y-87485706D01*
X96956067Y-87485707D01*
X97166598Y-87542119D01*
X97166600Y-87542119D01*
X97171913Y-87543543D01*
X97400000Y-87563498D01*
X97628087Y-87543543D01*
X97633400Y-87542119D01*
X97633402Y-87542119D01*
X97843933Y-87485707D01*
X97843935Y-87485706D01*
X97849243Y-87484284D01*
X97854225Y-87481961D01*
X98051762Y-87389849D01*
X98051767Y-87389846D01*
X98056749Y-87387523D01*
X98207507Y-87281961D01*
X98239789Y-87259357D01*
X98239792Y-87259355D01*
X98244300Y-87256198D01*
X98406198Y-87094300D01*
X98424521Y-87068133D01*
X98464098Y-87011611D01*
X98537523Y-86906749D01*
X98539846Y-86901767D01*
X98539849Y-86901762D01*
X98631961Y-86704225D01*
X98631961Y-86704224D01*
X98634284Y-86699243D01*
X98693543Y-86478087D01*
X98713498Y-86250000D01*
X98693543Y-86021913D01*
X98634284Y-85800757D01*
X98631961Y-85795775D01*
X98539849Y-85598238D01*
X98539846Y-85598233D01*
X98537523Y-85593251D01*
X98406198Y-85405700D01*
X98244300Y-85243802D01*
X98239792Y-85240645D01*
X98239789Y-85240643D01*
X98177296Y-85196885D01*
X98163481Y-85187211D01*
X98119153Y-85131755D01*
X98111844Y-85061136D01*
X98143875Y-84997775D01*
X98205076Y-84961790D01*
X98235752Y-84957999D01*
X98544669Y-84957999D01*
X98551490Y-84957629D01*
X98602352Y-84952105D01*
X98617604Y-84948479D01*
X98738054Y-84903324D01*
X98753649Y-84894786D01*
X98855724Y-84818285D01*
X98868285Y-84805724D01*
X98944786Y-84703649D01*
X98953324Y-84688054D01*
X98998478Y-84567606D01*
X99002105Y-84552351D01*
X99007631Y-84501486D01*
X99008000Y-84494672D01*
X99008000Y-84102263D01*
X101435064Y-84102263D01*
X101471404Y-84339744D01*
X101492888Y-84405475D01*
X101544434Y-84563183D01*
X101544437Y-84563189D01*
X101546042Y-84568101D01*
X101548429Y-84572687D01*
X101548431Y-84572691D01*
X101644705Y-84757629D01*
X101656975Y-84781200D01*
X101773415Y-84936283D01*
X101798320Y-85002765D01*
X101783328Y-85072161D01*
X101733198Y-85122435D01*
X101716885Y-85129915D01*
X101706707Y-85133731D01*
X101706704Y-85133733D01*
X101698295Y-85136885D01*
X101581739Y-85224239D01*
X101494385Y-85340795D01*
X101443255Y-85477184D01*
X101436500Y-85539366D01*
X101436500Y-87540634D01*
X101443255Y-87602816D01*
X101494385Y-87739205D01*
X101581739Y-87855761D01*
X101698295Y-87943115D01*
X101834684Y-87994245D01*
X101896866Y-88001000D01*
X103993134Y-88001000D01*
X104055316Y-87994245D01*
X104191705Y-87943115D01*
X104308261Y-87855761D01*
X104395615Y-87739205D01*
X104446745Y-87602816D01*
X104453500Y-87540634D01*
X104453500Y-85539366D01*
X104446745Y-85477184D01*
X104395615Y-85340795D01*
X104308261Y-85224239D01*
X104191705Y-85136885D01*
X104171811Y-85129427D01*
X104115047Y-85086787D01*
X104090346Y-85020226D01*
X104105553Y-84950877D01*
X104117158Y-84933353D01*
X104210367Y-84815330D01*
X104210370Y-84815325D01*
X104213568Y-84811276D01*
X104227885Y-84785342D01*
X104327177Y-84605474D01*
X104327179Y-84605470D01*
X104329674Y-84600950D01*
X104364131Y-84503649D01*
X104367311Y-84494669D01*
X105592001Y-84494669D01*
X105592371Y-84501490D01*
X105597895Y-84552352D01*
X105601521Y-84567604D01*
X105646676Y-84688054D01*
X105655214Y-84703649D01*
X105731715Y-84805724D01*
X105744276Y-84818285D01*
X105846351Y-84894786D01*
X105861946Y-84903324D01*
X105982394Y-84948478D01*
X105997649Y-84952105D01*
X106048514Y-84957631D01*
X106055328Y-84958000D01*
X106364246Y-84958000D01*
X106432367Y-84978002D01*
X106478860Y-85031658D01*
X106488964Y-85101932D01*
X106459470Y-85166512D01*
X106436517Y-85187213D01*
X106360211Y-85240643D01*
X106360208Y-85240645D01*
X106355700Y-85243802D01*
X106193802Y-85405700D01*
X106062477Y-85593251D01*
X106060154Y-85598233D01*
X106060151Y-85598238D01*
X105968039Y-85795775D01*
X105965716Y-85800757D01*
X105906457Y-86021913D01*
X105886502Y-86250000D01*
X105906457Y-86478087D01*
X105965716Y-86699243D01*
X105968039Y-86704224D01*
X105968039Y-86704225D01*
X106060151Y-86901762D01*
X106060154Y-86901767D01*
X106062477Y-86906749D01*
X106135902Y-87011611D01*
X106175480Y-87068133D01*
X106193802Y-87094300D01*
X106355700Y-87256198D01*
X106360208Y-87259355D01*
X106360211Y-87259357D01*
X106392493Y-87281961D01*
X106543251Y-87387523D01*
X106548233Y-87389846D01*
X106548238Y-87389849D01*
X106745775Y-87481961D01*
X106750757Y-87484284D01*
X106756065Y-87485706D01*
X106756067Y-87485707D01*
X106966598Y-87542119D01*
X106966600Y-87542119D01*
X106971913Y-87543543D01*
X107200000Y-87563498D01*
X107428087Y-87543543D01*
X107433400Y-87542119D01*
X107433402Y-87542119D01*
X107643933Y-87485707D01*
X107643935Y-87485706D01*
X107649243Y-87484284D01*
X107654225Y-87481961D01*
X107851762Y-87389849D01*
X107851767Y-87389846D01*
X107856749Y-87387523D01*
X108007507Y-87281961D01*
X108039789Y-87259357D01*
X108039792Y-87259355D01*
X108044300Y-87256198D01*
X108206198Y-87094300D01*
X108224521Y-87068133D01*
X108264098Y-87011611D01*
X108337523Y-86906749D01*
X108339846Y-86901767D01*
X108339849Y-86901762D01*
X108431961Y-86704225D01*
X108431961Y-86704224D01*
X108434284Y-86699243D01*
X108493543Y-86478087D01*
X108513498Y-86250000D01*
X108493543Y-86021913D01*
X108434284Y-85800757D01*
X108431961Y-85795775D01*
X108339849Y-85598238D01*
X108339846Y-85598233D01*
X108337523Y-85593251D01*
X108206198Y-85405700D01*
X108044300Y-85243802D01*
X108039792Y-85240645D01*
X108039789Y-85240643D01*
X107977296Y-85196885D01*
X107963481Y-85187211D01*
X107919153Y-85131755D01*
X107911844Y-85061136D01*
X107943875Y-84997775D01*
X108005076Y-84961790D01*
X108035752Y-84957999D01*
X108344669Y-84957999D01*
X108351490Y-84957629D01*
X108402352Y-84952105D01*
X108417604Y-84948479D01*
X108538054Y-84903324D01*
X108553649Y-84894786D01*
X108655724Y-84818285D01*
X108668285Y-84805724D01*
X108744786Y-84703649D01*
X108753324Y-84688054D01*
X108798478Y-84567606D01*
X108802105Y-84552351D01*
X108807631Y-84501486D01*
X108808000Y-84494672D01*
X108808000Y-84162263D01*
X111235064Y-84162263D01*
X111271404Y-84399744D01*
X111305365Y-84503649D01*
X111344434Y-84623183D01*
X111344437Y-84623189D01*
X111346042Y-84628101D01*
X111348429Y-84632687D01*
X111348431Y-84632691D01*
X111420963Y-84772022D01*
X111456975Y-84841200D01*
X111573415Y-84996283D01*
X111598320Y-85062765D01*
X111583328Y-85132161D01*
X111533198Y-85182435D01*
X111516885Y-85189915D01*
X111506707Y-85193731D01*
X111506704Y-85193733D01*
X111498295Y-85196885D01*
X111381739Y-85284239D01*
X111294385Y-85400795D01*
X111243255Y-85537184D01*
X111236500Y-85599366D01*
X111236500Y-87600634D01*
X111243255Y-87662816D01*
X111294385Y-87799205D01*
X111381739Y-87915761D01*
X111498295Y-88003115D01*
X111634684Y-88054245D01*
X111696866Y-88061000D01*
X113793134Y-88061000D01*
X113855316Y-88054245D01*
X113991705Y-88003115D01*
X114108261Y-87915761D01*
X114195615Y-87799205D01*
X114246745Y-87662816D01*
X114253500Y-87600634D01*
X114253500Y-85599366D01*
X114246745Y-85537184D01*
X114195615Y-85400795D01*
X114108261Y-85284239D01*
X113991705Y-85196885D01*
X113971811Y-85189427D01*
X113915047Y-85146787D01*
X113890346Y-85080226D01*
X113905553Y-85010877D01*
X113917158Y-84993353D01*
X114010367Y-84875330D01*
X114010370Y-84875325D01*
X114013568Y-84871276D01*
X114027885Y-84845342D01*
X114127177Y-84665474D01*
X114127179Y-84665470D01*
X114129674Y-84660950D01*
X114139430Y-84633402D01*
X114208144Y-84439360D01*
X114208145Y-84439356D01*
X114209870Y-84434485D01*
X114213731Y-84412812D01*
X114234776Y-84294669D01*
X115792001Y-84294669D01*
X115792371Y-84301490D01*
X115797895Y-84352352D01*
X115801521Y-84367604D01*
X115846676Y-84488054D01*
X115855214Y-84503649D01*
X115931715Y-84605724D01*
X115944276Y-84618285D01*
X116046351Y-84694786D01*
X116061946Y-84703324D01*
X116182394Y-84748478D01*
X116197649Y-84752105D01*
X116248514Y-84757631D01*
X116255328Y-84758000D01*
X116564246Y-84758000D01*
X116632367Y-84778002D01*
X116678860Y-84831658D01*
X116688964Y-84901932D01*
X116659470Y-84966512D01*
X116636517Y-84987213D01*
X116560211Y-85040643D01*
X116560208Y-85040645D01*
X116555700Y-85043802D01*
X116393802Y-85205700D01*
X116390645Y-85210208D01*
X116390643Y-85210211D01*
X116366774Y-85244300D01*
X116262477Y-85393251D01*
X116260154Y-85398233D01*
X116260151Y-85398238D01*
X116191697Y-85545040D01*
X116165716Y-85600757D01*
X116106457Y-85821913D01*
X116086502Y-86050000D01*
X116106457Y-86278087D01*
X116165716Y-86499243D01*
X116168039Y-86504224D01*
X116168039Y-86504225D01*
X116260151Y-86701762D01*
X116260154Y-86701767D01*
X116262477Y-86706749D01*
X116393802Y-86894300D01*
X116555700Y-87056198D01*
X116560208Y-87059355D01*
X116560211Y-87059357D01*
X116638389Y-87114098D01*
X116743251Y-87187523D01*
X116748233Y-87189846D01*
X116748238Y-87189849D01*
X116945775Y-87281961D01*
X116950757Y-87284284D01*
X116956065Y-87285706D01*
X116956067Y-87285707D01*
X117166598Y-87342119D01*
X117166600Y-87342119D01*
X117171913Y-87343543D01*
X117400000Y-87363498D01*
X117628087Y-87343543D01*
X117633400Y-87342119D01*
X117633402Y-87342119D01*
X117843933Y-87285707D01*
X117843935Y-87285706D01*
X117849243Y-87284284D01*
X117854225Y-87281961D01*
X118051762Y-87189849D01*
X118051767Y-87189846D01*
X118056749Y-87187523D01*
X118161611Y-87114098D01*
X118239789Y-87059357D01*
X118239792Y-87059355D01*
X118244300Y-87056198D01*
X118406198Y-86894300D01*
X118537523Y-86706749D01*
X118539846Y-86701767D01*
X118539849Y-86701762D01*
X118631961Y-86504225D01*
X118631961Y-86504224D01*
X118634284Y-86499243D01*
X118693543Y-86278087D01*
X118713498Y-86050000D01*
X118693543Y-85821913D01*
X118634284Y-85600757D01*
X118608303Y-85545040D01*
X118539849Y-85398238D01*
X118539846Y-85398233D01*
X118537523Y-85393251D01*
X118433226Y-85244300D01*
X118409357Y-85210211D01*
X118409355Y-85210208D01*
X118406198Y-85205700D01*
X118244300Y-85043802D01*
X118239792Y-85040645D01*
X118239789Y-85040643D01*
X118176433Y-84996281D01*
X118163481Y-84987211D01*
X118119153Y-84931755D01*
X118111844Y-84861136D01*
X118143875Y-84797775D01*
X118205076Y-84761790D01*
X118235752Y-84757999D01*
X118544669Y-84757999D01*
X118551490Y-84757629D01*
X118602352Y-84752105D01*
X118617604Y-84748479D01*
X118738054Y-84703324D01*
X118753649Y-84694786D01*
X118855724Y-84618285D01*
X118868285Y-84605724D01*
X118944786Y-84503649D01*
X118953324Y-84488054D01*
X118998478Y-84367606D01*
X119002105Y-84352351D01*
X119007631Y-84301486D01*
X119008000Y-84294672D01*
X119008000Y-83422115D01*
X119003525Y-83406876D01*
X119002135Y-83405671D01*
X118994452Y-83404000D01*
X115810116Y-83404000D01*
X115794877Y-83408475D01*
X115793672Y-83409865D01*
X115792001Y-83417548D01*
X115792001Y-84294669D01*
X114234776Y-84294669D01*
X114251095Y-84203052D01*
X114251096Y-84203046D01*
X114252001Y-84197963D01*
X114254936Y-83957737D01*
X114218596Y-83720256D01*
X114164811Y-83555700D01*
X114145566Y-83496817D01*
X114145563Y-83496811D01*
X114143958Y-83491899D01*
X114110335Y-83427309D01*
X114035416Y-83283393D01*
X114033025Y-83278800D01*
X113905066Y-83108375D01*
X113891882Y-83090815D01*
X113891880Y-83090812D01*
X113888777Y-83086680D01*
X113715088Y-82920699D01*
X113678097Y-82895465D01*
X113663689Y-82877885D01*
X115792000Y-82877885D01*
X115796475Y-82893124D01*
X115797865Y-82894329D01*
X115805548Y-82896000D01*
X117127885Y-82896000D01*
X117143124Y-82891525D01*
X117144329Y-82890135D01*
X117146000Y-82882452D01*
X117146000Y-82877885D01*
X117654000Y-82877885D01*
X117658475Y-82893124D01*
X117659865Y-82894329D01*
X117667548Y-82896000D01*
X118989884Y-82896000D01*
X119005123Y-82891525D01*
X119006328Y-82890135D01*
X119007999Y-82882452D01*
X119007999Y-82005331D01*
X119007629Y-81998510D01*
X119002105Y-81947648D01*
X118998479Y-81932396D01*
X118953324Y-81811946D01*
X118944786Y-81796351D01*
X118868285Y-81694276D01*
X118855724Y-81681715D01*
X118753649Y-81605214D01*
X118738054Y-81596676D01*
X118617606Y-81551522D01*
X118602351Y-81547895D01*
X118551486Y-81542369D01*
X118544672Y-81542000D01*
X117672115Y-81542000D01*
X117656876Y-81546475D01*
X117655671Y-81547865D01*
X117654000Y-81555548D01*
X117654000Y-82877885D01*
X117146000Y-82877885D01*
X117146000Y-81560116D01*
X117141525Y-81544877D01*
X117140135Y-81543672D01*
X117132452Y-81542001D01*
X116255331Y-81542001D01*
X116248510Y-81542371D01*
X116197648Y-81547895D01*
X116182396Y-81551521D01*
X116061946Y-81596676D01*
X116046351Y-81605214D01*
X115944276Y-81681715D01*
X115931715Y-81694276D01*
X115855214Y-81796351D01*
X115846676Y-81811946D01*
X115801522Y-81932394D01*
X115797895Y-81947649D01*
X115792369Y-81998514D01*
X115792000Y-82005328D01*
X115792000Y-82877885D01*
X113663689Y-82877885D01*
X113633096Y-82840556D01*
X113624925Y-82770032D01*
X113656179Y-82706284D01*
X113680660Y-82685589D01*
X113682635Y-82684311D01*
X113686977Y-82681502D01*
X113864670Y-82519814D01*
X113936244Y-82429185D01*
X114010367Y-82335330D01*
X114010370Y-82335325D01*
X114013568Y-82331276D01*
X114027885Y-82305342D01*
X114127177Y-82125474D01*
X114127179Y-82125470D01*
X114129674Y-82120950D01*
X114149320Y-82065474D01*
X114208144Y-81899360D01*
X114208145Y-81899356D01*
X114209870Y-81894485D01*
X114215183Y-81864659D01*
X114251095Y-81663052D01*
X114251096Y-81663046D01*
X114252001Y-81657963D01*
X114254936Y-81417737D01*
X114218596Y-81180256D01*
X114157859Y-80994428D01*
X114145566Y-80956817D01*
X114145563Y-80956811D01*
X114143958Y-80951899D01*
X114110335Y-80887309D01*
X114035416Y-80743393D01*
X114033025Y-80738800D01*
X113888777Y-80546680D01*
X113715088Y-80380699D01*
X113516622Y-80245314D01*
X113511939Y-80243140D01*
X113511935Y-80243138D01*
X113303405Y-80146342D01*
X113303401Y-80146341D01*
X113298710Y-80144163D01*
X113067202Y-80079960D01*
X113062065Y-80079411D01*
X112874407Y-80059356D01*
X112874399Y-80059356D01*
X112871072Y-80059000D01*
X112636598Y-80059000D01*
X112634025Y-80059212D01*
X112634014Y-80059212D01*
X112533054Y-80067513D01*
X112458063Y-80073678D01*
X112225056Y-80132206D01*
X112110162Y-80182163D01*
X112009474Y-80225943D01*
X112009471Y-80225945D01*
X112004737Y-80228003D01*
X111900109Y-80295690D01*
X111865956Y-80317785D01*
X111803023Y-80358498D01*
X111625330Y-80520186D01*
X111601141Y-80550815D01*
X111479633Y-80704670D01*
X111479630Y-80704675D01*
X111476432Y-80708724D01*
X111473939Y-80713240D01*
X111473937Y-80713243D01*
X111378559Y-80886021D01*
X111360326Y-80919050D01*
X111358602Y-80923919D01*
X111358600Y-80923923D01*
X111287264Y-81125369D01*
X111280130Y-81145515D01*
X111279223Y-81150608D01*
X111279222Y-81150611D01*
X111241407Y-81362907D01*
X111237999Y-81382037D01*
X111237936Y-81387201D01*
X111235377Y-81596676D01*
X111235064Y-81622263D01*
X111271404Y-81859744D01*
X111295150Y-81932396D01*
X111344434Y-82083183D01*
X111344437Y-82083189D01*
X111346042Y-82088101D01*
X111348429Y-82092687D01*
X111348431Y-82092691D01*
X111403520Y-82198514D01*
X111456975Y-82301200D01*
X111460085Y-82305342D01*
X111558856Y-82436892D01*
X111601223Y-82493320D01*
X111604961Y-82496892D01*
X111761291Y-82646284D01*
X111774912Y-82659301D01*
X111811903Y-82684535D01*
X111856904Y-82739444D01*
X111865075Y-82809968D01*
X111833821Y-82873716D01*
X111809340Y-82894411D01*
X111807707Y-82895468D01*
X111803023Y-82898498D01*
X111625330Y-83060186D01*
X111603772Y-83087483D01*
X111479633Y-83244670D01*
X111479630Y-83244675D01*
X111476432Y-83248724D01*
X111473939Y-83253240D01*
X111473937Y-83253243D01*
X111383236Y-83417548D01*
X111360326Y-83459050D01*
X111358602Y-83463919D01*
X111358600Y-83463923D01*
X111287264Y-83665369D01*
X111280130Y-83685515D01*
X111279223Y-83690608D01*
X111279222Y-83690611D01*
X111241407Y-83902907D01*
X111237999Y-83922037D01*
X111237936Y-83927201D01*
X111235735Y-84107377D01*
X111235064Y-84162263D01*
X108808000Y-84162263D01*
X108808000Y-83622115D01*
X108803525Y-83606876D01*
X108802135Y-83605671D01*
X108794452Y-83604000D01*
X105610116Y-83604000D01*
X105594877Y-83608475D01*
X105593672Y-83609865D01*
X105592001Y-83617548D01*
X105592001Y-84494669D01*
X104367311Y-84494669D01*
X104408144Y-84379360D01*
X104408145Y-84379356D01*
X104409870Y-84374485D01*
X104410778Y-84369389D01*
X104451095Y-84143052D01*
X104451096Y-84143046D01*
X104452001Y-84137963D01*
X104454223Y-83956067D01*
X104454873Y-83902907D01*
X104454873Y-83902905D01*
X104454936Y-83897737D01*
X104418596Y-83660256D01*
X104381906Y-83548003D01*
X104345566Y-83436817D01*
X104345563Y-83436811D01*
X104343958Y-83431899D01*
X104336488Y-83417548D01*
X104235416Y-83223393D01*
X104233025Y-83218800D01*
X104192454Y-83164764D01*
X104127223Y-83077885D01*
X105592000Y-83077885D01*
X105596475Y-83093124D01*
X105597865Y-83094329D01*
X105605548Y-83096000D01*
X106927885Y-83096000D01*
X106943124Y-83091525D01*
X106944329Y-83090135D01*
X106946000Y-83082452D01*
X106946000Y-83077885D01*
X107454000Y-83077885D01*
X107458475Y-83093124D01*
X107459865Y-83094329D01*
X107467548Y-83096000D01*
X108789884Y-83096000D01*
X108805123Y-83091525D01*
X108806328Y-83090135D01*
X108807999Y-83082452D01*
X108807999Y-82205331D01*
X108807629Y-82198510D01*
X108802105Y-82147648D01*
X108798479Y-82132396D01*
X108753324Y-82011946D01*
X108744786Y-81996351D01*
X108668285Y-81894276D01*
X108655724Y-81881715D01*
X108553649Y-81805214D01*
X108538054Y-81796676D01*
X108417606Y-81751522D01*
X108402351Y-81747895D01*
X108351486Y-81742369D01*
X108344672Y-81742000D01*
X107472115Y-81742000D01*
X107456876Y-81746475D01*
X107455671Y-81747865D01*
X107454000Y-81755548D01*
X107454000Y-83077885D01*
X106946000Y-83077885D01*
X106946000Y-81760116D01*
X106941525Y-81744877D01*
X106940135Y-81743672D01*
X106932452Y-81742001D01*
X106055331Y-81742001D01*
X106048510Y-81742371D01*
X105997648Y-81747895D01*
X105982396Y-81751521D01*
X105861946Y-81796676D01*
X105846351Y-81805214D01*
X105744276Y-81881715D01*
X105731715Y-81894276D01*
X105655214Y-81996351D01*
X105646676Y-82011946D01*
X105601522Y-82132394D01*
X105597895Y-82147649D01*
X105592369Y-82198514D01*
X105592000Y-82205328D01*
X105592000Y-83077885D01*
X104127223Y-83077885D01*
X104091882Y-83030815D01*
X104091880Y-83030812D01*
X104088777Y-83026680D01*
X103933072Y-82877885D01*
X103918825Y-82864270D01*
X103918824Y-82864269D01*
X103915088Y-82860699D01*
X103878097Y-82835465D01*
X103833096Y-82780556D01*
X103824925Y-82710032D01*
X103856179Y-82646284D01*
X103880660Y-82625589D01*
X103882635Y-82624311D01*
X103886977Y-82621502D01*
X104064670Y-82459814D01*
X104125347Y-82382983D01*
X104210367Y-82275330D01*
X104210370Y-82275325D01*
X104213568Y-82271276D01*
X104227885Y-82245342D01*
X104327177Y-82065474D01*
X104327179Y-82065470D01*
X104329674Y-82060950D01*
X104347028Y-82011946D01*
X104408144Y-81839360D01*
X104408145Y-81839356D01*
X104409870Y-81834485D01*
X104415183Y-81804659D01*
X104451095Y-81603052D01*
X104451096Y-81603046D01*
X104452001Y-81597963D01*
X104454203Y-81417737D01*
X104454873Y-81362907D01*
X104454873Y-81362905D01*
X104454936Y-81357737D01*
X104418596Y-81120256D01*
X104376965Y-80992885D01*
X104345566Y-80896817D01*
X104345563Y-80896811D01*
X104343958Y-80891899D01*
X104340899Y-80886021D01*
X104235416Y-80683393D01*
X104233025Y-80678800D01*
X104136931Y-80550815D01*
X104091882Y-80490815D01*
X104091880Y-80490812D01*
X104088777Y-80486680D01*
X103915088Y-80320699D01*
X103716622Y-80185314D01*
X103711939Y-80183140D01*
X103711935Y-80183138D01*
X103503405Y-80086342D01*
X103503401Y-80086341D01*
X103498710Y-80084163D01*
X103267202Y-80019960D01*
X103262065Y-80019411D01*
X103074407Y-79999356D01*
X103074399Y-79999356D01*
X103071072Y-79999000D01*
X102836598Y-79999000D01*
X102834025Y-79999212D01*
X102834014Y-79999212D01*
X102733054Y-80007513D01*
X102658063Y-80013678D01*
X102425056Y-80072206D01*
X102296229Y-80128221D01*
X102209474Y-80165943D01*
X102209471Y-80165945D01*
X102204737Y-80168003D01*
X102003023Y-80298498D01*
X101825330Y-80460186D01*
X101801141Y-80490815D01*
X101679633Y-80644670D01*
X101679630Y-80644675D01*
X101676432Y-80648724D01*
X101673939Y-80653240D01*
X101673937Y-80653243D01*
X101562823Y-80854526D01*
X101560326Y-80859050D01*
X101558602Y-80863919D01*
X101558600Y-80863923D01*
X101481856Y-81080640D01*
X101480130Y-81085515D01*
X101479223Y-81090608D01*
X101479222Y-81090611D01*
X101464130Y-81175341D01*
X101437999Y-81322037D01*
X101437936Y-81327201D01*
X101435240Y-81547895D01*
X101435064Y-81562263D01*
X101471404Y-81799744D01*
X101498196Y-81881715D01*
X101544434Y-82023183D01*
X101544437Y-82023189D01*
X101546042Y-82028101D01*
X101548429Y-82032687D01*
X101548431Y-82032691D01*
X101633381Y-82195876D01*
X101656975Y-82241200D01*
X101801223Y-82433320D01*
X101974912Y-82599301D01*
X102011903Y-82624535D01*
X102056904Y-82679444D01*
X102065075Y-82749968D01*
X102033821Y-82813716D01*
X102009340Y-82834411D01*
X102007707Y-82835468D01*
X102003023Y-82838498D01*
X101825330Y-83000186D01*
X101801141Y-83030815D01*
X101679633Y-83184670D01*
X101679630Y-83184675D01*
X101676432Y-83188724D01*
X101673939Y-83193240D01*
X101673937Y-83193243D01*
X101563223Y-83393802D01*
X101560326Y-83399050D01*
X101558602Y-83403919D01*
X101558600Y-83403923D01*
X101498563Y-83573462D01*
X101480130Y-83625515D01*
X101479223Y-83630608D01*
X101479222Y-83630611D01*
X101458270Y-83748238D01*
X101437999Y-83862037D01*
X101437936Y-83867201D01*
X101435879Y-84035592D01*
X101435064Y-84102263D01*
X99008000Y-84102263D01*
X99008000Y-83622115D01*
X99003525Y-83606876D01*
X99002135Y-83605671D01*
X98994452Y-83604000D01*
X95810116Y-83604000D01*
X95794877Y-83608475D01*
X95793672Y-83609865D01*
X95792001Y-83617548D01*
X95792001Y-83827857D01*
X95771999Y-83895978D01*
X95718343Y-83942471D01*
X95648069Y-83952575D01*
X95583489Y-83923081D01*
X95551806Y-83881107D01*
X95489849Y-83748238D01*
X95489846Y-83748233D01*
X95487523Y-83743251D01*
X95356198Y-83555700D01*
X95194300Y-83393802D01*
X95162229Y-83371345D01*
X95117901Y-83315890D01*
X95108500Y-83268133D01*
X95108500Y-83077885D01*
X95792000Y-83077885D01*
X95796475Y-83093124D01*
X95797865Y-83094329D01*
X95805548Y-83096000D01*
X97127885Y-83096000D01*
X97143124Y-83091525D01*
X97144329Y-83090135D01*
X97146000Y-83082452D01*
X97146000Y-83077885D01*
X97654000Y-83077885D01*
X97658475Y-83093124D01*
X97659865Y-83094329D01*
X97667548Y-83096000D01*
X98989884Y-83096000D01*
X99005123Y-83091525D01*
X99006328Y-83090135D01*
X99007999Y-83082452D01*
X99007999Y-82205331D01*
X99007629Y-82198510D01*
X99002105Y-82147648D01*
X98998479Y-82132396D01*
X98953324Y-82011946D01*
X98944786Y-81996351D01*
X98868285Y-81894276D01*
X98855724Y-81881715D01*
X98753649Y-81805214D01*
X98738054Y-81796676D01*
X98617606Y-81751522D01*
X98602351Y-81747895D01*
X98551486Y-81742369D01*
X98544672Y-81742000D01*
X97672115Y-81742000D01*
X97656876Y-81746475D01*
X97655671Y-81747865D01*
X97654000Y-81755548D01*
X97654000Y-83077885D01*
X97146000Y-83077885D01*
X97146000Y-81760116D01*
X97141525Y-81744877D01*
X97140135Y-81743672D01*
X97132452Y-81742001D01*
X96255331Y-81742001D01*
X96248510Y-81742371D01*
X96197648Y-81747895D01*
X96182396Y-81751521D01*
X96061946Y-81796676D01*
X96046351Y-81805214D01*
X95944276Y-81881715D01*
X95931715Y-81894276D01*
X95855214Y-81996351D01*
X95846676Y-82011946D01*
X95801522Y-82132394D01*
X95797895Y-82147649D01*
X95792369Y-82198514D01*
X95792000Y-82205328D01*
X95792000Y-83077885D01*
X95108500Y-83077885D01*
X95108500Y-76786062D01*
X100878493Y-76786062D01*
X100887789Y-76798077D01*
X100938994Y-76833931D01*
X100948489Y-76839414D01*
X101145947Y-76931490D01*
X101156239Y-76935236D01*
X101366688Y-76991625D01*
X101377481Y-76993528D01*
X101594525Y-77012517D01*
X101605475Y-77012517D01*
X101822519Y-76993528D01*
X101833312Y-76991625D01*
X102043761Y-76935236D01*
X102054053Y-76931490D01*
X102251511Y-76839414D01*
X102261006Y-76833931D01*
X102313048Y-76797491D01*
X102321424Y-76787012D01*
X102320925Y-76786062D01*
X110678493Y-76786062D01*
X110687789Y-76798077D01*
X110738994Y-76833931D01*
X110748489Y-76839414D01*
X110945947Y-76931490D01*
X110956239Y-76935236D01*
X111166688Y-76991625D01*
X111177481Y-76993528D01*
X111394525Y-77012517D01*
X111405475Y-77012517D01*
X111622519Y-76993528D01*
X111633312Y-76991625D01*
X111843761Y-76935236D01*
X111854053Y-76931490D01*
X112051511Y-76839414D01*
X112061006Y-76833931D01*
X112113048Y-76797491D01*
X112121424Y-76787012D01*
X112114356Y-76773566D01*
X111926852Y-76586062D01*
X120878493Y-76586062D01*
X120887789Y-76598077D01*
X120938994Y-76633931D01*
X120948489Y-76639414D01*
X121145947Y-76731490D01*
X121156239Y-76735236D01*
X121366688Y-76791625D01*
X121377481Y-76793528D01*
X121594525Y-76812517D01*
X121605475Y-76812517D01*
X121822519Y-76793528D01*
X121833312Y-76791625D01*
X122043761Y-76735236D01*
X122054053Y-76731490D01*
X122251511Y-76639414D01*
X122261006Y-76633931D01*
X122313048Y-76597491D01*
X122321424Y-76587012D01*
X122314356Y-76573566D01*
X121612812Y-75872022D01*
X121598868Y-75864408D01*
X121597035Y-75864539D01*
X121590420Y-75868790D01*
X120884923Y-76574287D01*
X120878493Y-76586062D01*
X111926852Y-76586062D01*
X111412812Y-76072022D01*
X111398868Y-76064408D01*
X111397035Y-76064539D01*
X111390420Y-76068790D01*
X110684923Y-76774287D01*
X110678493Y-76786062D01*
X102320925Y-76786062D01*
X102314356Y-76773566D01*
X101612812Y-76072022D01*
X101598868Y-76064408D01*
X101597035Y-76064539D01*
X101590420Y-76068790D01*
X100884923Y-76774287D01*
X100878493Y-76786062D01*
X95108500Y-76786062D01*
X95108500Y-75705475D01*
X100287483Y-75705475D01*
X100306472Y-75922519D01*
X100308375Y-75933312D01*
X100364764Y-76143761D01*
X100368510Y-76154053D01*
X100460586Y-76351511D01*
X100466069Y-76361006D01*
X100502509Y-76413048D01*
X100512988Y-76421424D01*
X100526434Y-76414356D01*
X101227978Y-75712812D01*
X101234356Y-75701132D01*
X101964408Y-75701132D01*
X101964539Y-75702965D01*
X101968790Y-75709580D01*
X102674287Y-76415077D01*
X102686062Y-76421507D01*
X102698077Y-76412211D01*
X102733931Y-76361006D01*
X102739414Y-76351511D01*
X102831490Y-76154053D01*
X102835236Y-76143761D01*
X102891625Y-75933312D01*
X102893528Y-75922519D01*
X102912517Y-75705475D01*
X110087483Y-75705475D01*
X110106472Y-75922519D01*
X110108375Y-75933312D01*
X110164764Y-76143761D01*
X110168510Y-76154053D01*
X110260586Y-76351511D01*
X110266069Y-76361006D01*
X110302509Y-76413048D01*
X110312988Y-76421424D01*
X110326434Y-76414356D01*
X111027978Y-75712812D01*
X111034356Y-75701132D01*
X111764408Y-75701132D01*
X111764539Y-75702965D01*
X111768790Y-75709580D01*
X112474287Y-76415077D01*
X112486062Y-76421507D01*
X112498077Y-76412211D01*
X112533931Y-76361006D01*
X112539414Y-76351511D01*
X112631490Y-76154053D01*
X112635236Y-76143761D01*
X112691625Y-75933312D01*
X112693528Y-75922519D01*
X112712517Y-75705475D01*
X112712517Y-75694525D01*
X112695977Y-75505475D01*
X120287483Y-75505475D01*
X120306472Y-75722519D01*
X120308375Y-75733312D01*
X120364764Y-75943761D01*
X120368510Y-75954053D01*
X120460586Y-76151511D01*
X120466069Y-76161006D01*
X120502509Y-76213048D01*
X120512988Y-76221424D01*
X120526434Y-76214356D01*
X121227978Y-75512812D01*
X121234356Y-75501132D01*
X121964408Y-75501132D01*
X121964539Y-75502965D01*
X121968790Y-75509580D01*
X122674287Y-76215077D01*
X122686062Y-76221507D01*
X122698077Y-76212211D01*
X122733931Y-76161006D01*
X122739414Y-76151511D01*
X122831490Y-75954053D01*
X122835236Y-75943761D01*
X122891625Y-75733312D01*
X122893528Y-75722519D01*
X122912517Y-75505475D01*
X122912517Y-75494525D01*
X122893528Y-75277481D01*
X122891625Y-75266688D01*
X122835236Y-75056239D01*
X122831490Y-75045947D01*
X122739414Y-74848489D01*
X122733931Y-74838994D01*
X122697491Y-74786952D01*
X122687012Y-74778576D01*
X122673566Y-74785644D01*
X121972022Y-75487188D01*
X121964408Y-75501132D01*
X121234356Y-75501132D01*
X121235592Y-75498868D01*
X121235461Y-75497035D01*
X121231210Y-75490420D01*
X120525713Y-74784923D01*
X120513938Y-74778493D01*
X120501923Y-74787789D01*
X120466069Y-74838994D01*
X120460586Y-74848489D01*
X120368510Y-75045947D01*
X120364764Y-75056239D01*
X120308375Y-75266688D01*
X120306472Y-75277481D01*
X120287483Y-75494525D01*
X120287483Y-75505475D01*
X112695977Y-75505475D01*
X112693528Y-75477481D01*
X112691625Y-75466688D01*
X112635236Y-75256239D01*
X112631490Y-75245947D01*
X112539414Y-75048489D01*
X112533931Y-75038994D01*
X112497491Y-74986952D01*
X112487012Y-74978576D01*
X112473566Y-74985644D01*
X111772022Y-75687188D01*
X111764408Y-75701132D01*
X111034356Y-75701132D01*
X111035592Y-75698868D01*
X111035461Y-75697035D01*
X111031210Y-75690420D01*
X110325713Y-74984923D01*
X110313938Y-74978493D01*
X110301923Y-74987789D01*
X110266069Y-75038994D01*
X110260586Y-75048489D01*
X110168510Y-75245947D01*
X110164764Y-75256239D01*
X110108375Y-75466688D01*
X110106472Y-75477481D01*
X110087483Y-75694525D01*
X110087483Y-75705475D01*
X102912517Y-75705475D01*
X102912517Y-75694525D01*
X102893528Y-75477481D01*
X102891625Y-75466688D01*
X102835236Y-75256239D01*
X102831490Y-75245947D01*
X102739414Y-75048489D01*
X102733931Y-75038994D01*
X102697491Y-74986952D01*
X102687012Y-74978576D01*
X102673566Y-74985644D01*
X101972022Y-75687188D01*
X101964408Y-75701132D01*
X101234356Y-75701132D01*
X101235592Y-75698868D01*
X101235461Y-75697035D01*
X101231210Y-75690420D01*
X100525713Y-74984923D01*
X100513938Y-74978493D01*
X100501923Y-74987789D01*
X100466069Y-75038994D01*
X100460586Y-75048489D01*
X100368510Y-75245947D01*
X100364764Y-75256239D01*
X100308375Y-75466688D01*
X100306472Y-75477481D01*
X100287483Y-75694525D01*
X100287483Y-75705475D01*
X95108500Y-75705475D01*
X95108500Y-74612988D01*
X100878576Y-74612988D01*
X100885644Y-74626434D01*
X101587188Y-75327978D01*
X101601132Y-75335592D01*
X101602965Y-75335461D01*
X101609580Y-75331210D01*
X102315077Y-74625713D01*
X102321507Y-74613938D01*
X102320772Y-74612988D01*
X110678576Y-74612988D01*
X110685644Y-74626434D01*
X111387188Y-75327978D01*
X111401132Y-75335592D01*
X111402965Y-75335461D01*
X111409580Y-75331210D01*
X112115077Y-74625713D01*
X112121507Y-74613938D01*
X112112211Y-74601923D01*
X112061006Y-74566069D01*
X112051511Y-74560586D01*
X111854053Y-74468510D01*
X111843761Y-74464764D01*
X111650528Y-74412988D01*
X120878576Y-74412988D01*
X120885644Y-74426434D01*
X121587188Y-75127978D01*
X121601132Y-75135592D01*
X121602965Y-75135461D01*
X121609580Y-75131210D01*
X122315077Y-74425713D01*
X122321507Y-74413938D01*
X122312211Y-74401923D01*
X122261006Y-74366069D01*
X122251511Y-74360586D01*
X122054053Y-74268510D01*
X122043761Y-74264764D01*
X121833312Y-74208375D01*
X121822519Y-74206472D01*
X121605475Y-74187483D01*
X121594525Y-74187483D01*
X121377481Y-74206472D01*
X121366688Y-74208375D01*
X121156239Y-74264764D01*
X121145947Y-74268510D01*
X120948489Y-74360586D01*
X120938994Y-74366069D01*
X120886952Y-74402509D01*
X120878576Y-74412988D01*
X111650528Y-74412988D01*
X111633312Y-74408375D01*
X111622519Y-74406472D01*
X111405475Y-74387483D01*
X111394525Y-74387483D01*
X111177481Y-74406472D01*
X111166688Y-74408375D01*
X110956239Y-74464764D01*
X110945947Y-74468510D01*
X110748489Y-74560586D01*
X110738994Y-74566069D01*
X110686952Y-74602509D01*
X110678576Y-74612988D01*
X102320772Y-74612988D01*
X102312211Y-74601923D01*
X102261006Y-74566069D01*
X102251511Y-74560586D01*
X102054053Y-74468510D01*
X102043761Y-74464764D01*
X101833312Y-74408375D01*
X101822519Y-74406472D01*
X101605475Y-74387483D01*
X101594525Y-74387483D01*
X101377481Y-74406472D01*
X101366688Y-74408375D01*
X101156239Y-74464764D01*
X101145947Y-74468510D01*
X100948489Y-74560586D01*
X100938994Y-74566069D01*
X100886952Y-74602509D01*
X100878576Y-74612988D01*
X95108500Y-74612988D01*
X95108500Y-71316371D01*
X95128502Y-71248250D01*
X95145405Y-71227276D01*
X95588605Y-70784076D01*
X95650917Y-70750050D01*
X95721732Y-70755115D01*
X95778568Y-70797662D01*
X95803311Y-70863284D01*
X95806001Y-70897457D01*
X95806002Y-70897466D01*
X95806391Y-70902403D01*
X95807545Y-70907210D01*
X95807546Y-70907216D01*
X95818832Y-70954225D01*
X95865495Y-71148591D01*
X95867388Y-71153162D01*
X95867389Y-71153164D01*
X95951717Y-71356749D01*
X95962384Y-71382502D01*
X96094672Y-71598376D01*
X96259102Y-71790898D01*
X96451624Y-71955328D01*
X96667498Y-72087616D01*
X96672068Y-72089509D01*
X96672072Y-72089511D01*
X96896836Y-72182611D01*
X96901409Y-72184505D01*
X96986032Y-72204821D01*
X97142784Y-72242454D01*
X97142790Y-72242455D01*
X97147597Y-72243609D01*
X97400000Y-72263474D01*
X97652403Y-72243609D01*
X97657210Y-72242455D01*
X97657216Y-72242454D01*
X97813968Y-72204821D01*
X97898591Y-72184505D01*
X97903164Y-72182611D01*
X98127928Y-72089511D01*
X98127932Y-72089509D01*
X98132502Y-72087616D01*
X98348376Y-71955328D01*
X98540898Y-71790898D01*
X98705328Y-71598376D01*
X98837616Y-71382502D01*
X98848284Y-71356749D01*
X98932611Y-71153164D01*
X98932612Y-71153162D01*
X98934505Y-71148591D01*
X98981168Y-70954225D01*
X98992454Y-70907216D01*
X98992455Y-70907210D01*
X98993609Y-70902403D01*
X99009539Y-70700000D01*
X100286502Y-70700000D01*
X100306457Y-70928087D01*
X100365716Y-71149243D01*
X100368039Y-71154224D01*
X100368039Y-71154225D01*
X100460151Y-71351762D01*
X100460154Y-71351767D01*
X100462477Y-71356749D01*
X100485351Y-71389416D01*
X100569335Y-71509357D01*
X100593802Y-71544300D01*
X100755700Y-71706198D01*
X100760208Y-71709355D01*
X100760211Y-71709357D01*
X100776789Y-71720965D01*
X100943251Y-71837523D01*
X100948233Y-71839846D01*
X100948238Y-71839849D01*
X101145775Y-71931961D01*
X101150757Y-71934284D01*
X101156065Y-71935706D01*
X101156067Y-71935707D01*
X101366598Y-71992119D01*
X101366600Y-71992119D01*
X101371913Y-71993543D01*
X101600000Y-72013498D01*
X101828087Y-71993543D01*
X101833400Y-71992119D01*
X101833402Y-71992119D01*
X102043933Y-71935707D01*
X102043935Y-71935706D01*
X102049243Y-71934284D01*
X102054225Y-71931961D01*
X102251762Y-71839849D01*
X102251767Y-71839846D01*
X102256749Y-71837523D01*
X102423211Y-71720965D01*
X102439789Y-71709357D01*
X102439792Y-71709355D01*
X102444300Y-71706198D01*
X102606198Y-71544300D01*
X102630666Y-71509357D01*
X102714649Y-71389416D01*
X102737523Y-71356749D01*
X102739846Y-71351767D01*
X102739849Y-71351762D01*
X102831961Y-71154225D01*
X102831961Y-71154224D01*
X102834284Y-71149243D01*
X102893543Y-70928087D01*
X102913498Y-70700000D01*
X102909124Y-70650000D01*
X105586526Y-70650000D01*
X105606391Y-70902403D01*
X105607545Y-70907210D01*
X105607546Y-70907216D01*
X105618832Y-70954225D01*
X105665495Y-71148591D01*
X105667388Y-71153162D01*
X105667389Y-71153164D01*
X105751717Y-71356749D01*
X105762384Y-71382502D01*
X105894672Y-71598376D01*
X106059102Y-71790898D01*
X106251624Y-71955328D01*
X106467498Y-72087616D01*
X106472068Y-72089509D01*
X106472072Y-72089511D01*
X106696836Y-72182611D01*
X106701409Y-72184505D01*
X106786032Y-72204821D01*
X106942784Y-72242454D01*
X106942790Y-72242455D01*
X106947597Y-72243609D01*
X107200000Y-72263474D01*
X107452403Y-72243609D01*
X107457210Y-72242455D01*
X107457216Y-72242454D01*
X107613968Y-72204821D01*
X107698591Y-72184505D01*
X107703164Y-72182611D01*
X107927928Y-72089511D01*
X107927932Y-72089509D01*
X107932502Y-72087616D01*
X108148376Y-71955328D01*
X108340898Y-71790898D01*
X108505328Y-71598376D01*
X108637616Y-71382502D01*
X108648284Y-71356749D01*
X108732611Y-71153164D01*
X108732612Y-71153162D01*
X108734505Y-71148591D01*
X108781168Y-70954225D01*
X108792454Y-70907216D01*
X108792455Y-70907210D01*
X108793609Y-70902403D01*
X108809539Y-70700000D01*
X110086502Y-70700000D01*
X110106457Y-70928087D01*
X110165716Y-71149243D01*
X110168039Y-71154224D01*
X110168039Y-71154225D01*
X110260151Y-71351762D01*
X110260154Y-71351767D01*
X110262477Y-71356749D01*
X110285351Y-71389416D01*
X110369335Y-71509357D01*
X110393802Y-71544300D01*
X110555700Y-71706198D01*
X110560208Y-71709355D01*
X110560211Y-71709357D01*
X110576789Y-71720965D01*
X110743251Y-71837523D01*
X110748233Y-71839846D01*
X110748238Y-71839849D01*
X110945775Y-71931961D01*
X110950757Y-71934284D01*
X110956065Y-71935706D01*
X110956067Y-71935707D01*
X111166598Y-71992119D01*
X111166600Y-71992119D01*
X111171913Y-71993543D01*
X111400000Y-72013498D01*
X111628087Y-71993543D01*
X111633400Y-71992119D01*
X111633402Y-71992119D01*
X111843933Y-71935707D01*
X111843935Y-71935706D01*
X111849243Y-71934284D01*
X111854225Y-71931961D01*
X112051762Y-71839849D01*
X112051767Y-71839846D01*
X112056749Y-71837523D01*
X112223211Y-71720965D01*
X112239789Y-71709357D01*
X112239792Y-71709355D01*
X112244300Y-71706198D01*
X112406198Y-71544300D01*
X112430666Y-71509357D01*
X112514649Y-71389416D01*
X112537523Y-71356749D01*
X112539846Y-71351767D01*
X112539849Y-71351762D01*
X112631961Y-71154225D01*
X112631961Y-71154224D01*
X112634284Y-71149243D01*
X112693543Y-70928087D01*
X112713498Y-70700000D01*
X112693543Y-70471913D01*
X112692119Y-70466598D01*
X112687672Y-70450000D01*
X115786526Y-70450000D01*
X115806391Y-70702403D01*
X115807545Y-70707210D01*
X115807546Y-70707216D01*
X115817830Y-70750050D01*
X115865495Y-70948591D01*
X115867388Y-70953162D01*
X115867389Y-70953164D01*
X115951717Y-71156749D01*
X115962384Y-71182502D01*
X116094672Y-71398376D01*
X116259102Y-71590898D01*
X116451624Y-71755328D01*
X116667498Y-71887616D01*
X116672068Y-71889509D01*
X116672072Y-71889511D01*
X116896836Y-71982611D01*
X116901409Y-71984505D01*
X116986032Y-72004821D01*
X117142784Y-72042454D01*
X117142790Y-72042455D01*
X117147597Y-72043609D01*
X117400000Y-72063474D01*
X117652403Y-72043609D01*
X117657210Y-72042455D01*
X117657216Y-72042454D01*
X117813968Y-72004821D01*
X117898591Y-71984505D01*
X117903164Y-71982611D01*
X118127928Y-71889511D01*
X118127932Y-71889509D01*
X118132502Y-71887616D01*
X118348376Y-71755328D01*
X118540898Y-71590898D01*
X118705328Y-71398376D01*
X118837616Y-71182502D01*
X118848284Y-71156749D01*
X118932611Y-70953164D01*
X118932612Y-70953162D01*
X118934505Y-70948591D01*
X118982170Y-70750050D01*
X118992454Y-70707216D01*
X118992455Y-70707210D01*
X118993609Y-70702403D01*
X119009539Y-70500000D01*
X120286502Y-70500000D01*
X120306457Y-70728087D01*
X120365716Y-70949243D01*
X120368039Y-70954224D01*
X120368039Y-70954225D01*
X120460151Y-71151762D01*
X120460154Y-71151767D01*
X120462477Y-71156749D01*
X120593802Y-71344300D01*
X120755700Y-71506198D01*
X120760208Y-71509355D01*
X120760211Y-71509357D01*
X120838389Y-71564098D01*
X120943251Y-71637523D01*
X120948233Y-71639846D01*
X120948238Y-71639849D01*
X121122194Y-71720965D01*
X121150757Y-71734284D01*
X121156065Y-71735706D01*
X121156067Y-71735707D01*
X121366598Y-71792119D01*
X121366600Y-71792119D01*
X121371913Y-71793543D01*
X121600000Y-71813498D01*
X121828087Y-71793543D01*
X121833400Y-71792119D01*
X121833402Y-71792119D01*
X122043933Y-71735707D01*
X122043935Y-71735706D01*
X122049243Y-71734284D01*
X122077806Y-71720965D01*
X122251762Y-71639849D01*
X122251767Y-71639846D01*
X122256749Y-71637523D01*
X122361611Y-71564098D01*
X122439789Y-71509357D01*
X122439792Y-71509355D01*
X122444300Y-71506198D01*
X122606198Y-71344300D01*
X122737523Y-71156749D01*
X122739846Y-71151767D01*
X122739849Y-71151762D01*
X122831961Y-70954225D01*
X122831961Y-70954224D01*
X122834284Y-70949243D01*
X122893543Y-70728087D01*
X122913498Y-70500000D01*
X122893543Y-70271913D01*
X122861254Y-70151409D01*
X122835707Y-70056067D01*
X122835706Y-70056065D01*
X122834284Y-70050757D01*
X122825727Y-70032406D01*
X122739849Y-69848238D01*
X122739846Y-69848233D01*
X122737523Y-69843251D01*
X122641305Y-69705838D01*
X122609357Y-69660211D01*
X122609355Y-69660208D01*
X122606198Y-69655700D01*
X122444300Y-69493802D01*
X122439792Y-69490645D01*
X122439789Y-69490643D01*
X122321592Y-69407881D01*
X122256749Y-69362477D01*
X122251767Y-69360154D01*
X122251762Y-69360151D01*
X122054225Y-69268039D01*
X122054224Y-69268039D01*
X122049243Y-69265716D01*
X122043935Y-69264294D01*
X122043933Y-69264293D01*
X121833402Y-69207881D01*
X121833400Y-69207881D01*
X121828087Y-69206457D01*
X121600000Y-69186502D01*
X121371913Y-69206457D01*
X121366600Y-69207881D01*
X121366598Y-69207881D01*
X121156067Y-69264293D01*
X121156065Y-69264294D01*
X121150757Y-69265716D01*
X121145776Y-69268039D01*
X121145775Y-69268039D01*
X120948238Y-69360151D01*
X120948233Y-69360154D01*
X120943251Y-69362477D01*
X120878408Y-69407881D01*
X120760211Y-69490643D01*
X120760208Y-69490645D01*
X120755700Y-69493802D01*
X120593802Y-69655700D01*
X120590645Y-69660208D01*
X120590643Y-69660211D01*
X120558695Y-69705838D01*
X120462477Y-69843251D01*
X120460154Y-69848233D01*
X120460151Y-69848238D01*
X120374273Y-70032406D01*
X120365716Y-70050757D01*
X120364294Y-70056065D01*
X120364293Y-70056067D01*
X120338746Y-70151409D01*
X120306457Y-70271913D01*
X120286502Y-70500000D01*
X119009539Y-70500000D01*
X119013474Y-70450000D01*
X118993609Y-70197597D01*
X118982521Y-70151409D01*
X118935660Y-69956221D01*
X118934505Y-69951409D01*
X118893247Y-69851803D01*
X118839511Y-69722072D01*
X118839509Y-69722068D01*
X118837616Y-69717498D01*
X118705328Y-69501624D01*
X118540898Y-69309102D01*
X118348376Y-69144672D01*
X118132502Y-69012384D01*
X118127932Y-69010491D01*
X118127928Y-69010489D01*
X117903164Y-68917389D01*
X117903162Y-68917388D01*
X117898591Y-68915495D01*
X117813968Y-68895179D01*
X117657216Y-68857546D01*
X117657210Y-68857545D01*
X117652403Y-68856391D01*
X117400000Y-68836526D01*
X117147597Y-68856391D01*
X117142790Y-68857545D01*
X117142784Y-68857546D01*
X116986032Y-68895179D01*
X116901409Y-68915495D01*
X116896838Y-68917388D01*
X116896836Y-68917389D01*
X116672072Y-69010489D01*
X116672068Y-69010491D01*
X116667498Y-69012384D01*
X116451624Y-69144672D01*
X116259102Y-69309102D01*
X116094672Y-69501624D01*
X115962384Y-69717498D01*
X115960491Y-69722068D01*
X115960489Y-69722072D01*
X115906753Y-69851803D01*
X115865495Y-69951409D01*
X115864340Y-69956221D01*
X115817480Y-70151409D01*
X115806391Y-70197597D01*
X115786526Y-70450000D01*
X112687672Y-70450000D01*
X112635707Y-70256067D01*
X112635706Y-70256065D01*
X112634284Y-70250757D01*
X112596795Y-70170360D01*
X112539849Y-70048238D01*
X112539846Y-70048233D01*
X112537523Y-70043251D01*
X112406198Y-69855700D01*
X112244300Y-69693802D01*
X112239792Y-69690645D01*
X112239789Y-69690643D01*
X112127795Y-69612224D01*
X112056749Y-69562477D01*
X112051767Y-69560154D01*
X112051762Y-69560151D01*
X111854225Y-69468039D01*
X111854224Y-69468039D01*
X111849243Y-69465716D01*
X111843935Y-69464294D01*
X111843933Y-69464293D01*
X111633402Y-69407881D01*
X111633400Y-69407881D01*
X111628087Y-69406457D01*
X111400000Y-69386502D01*
X111171913Y-69406457D01*
X111166600Y-69407881D01*
X111166598Y-69407881D01*
X110956067Y-69464293D01*
X110956065Y-69464294D01*
X110950757Y-69465716D01*
X110945776Y-69468039D01*
X110945775Y-69468039D01*
X110748238Y-69560151D01*
X110748233Y-69560154D01*
X110743251Y-69562477D01*
X110672205Y-69612224D01*
X110560211Y-69690643D01*
X110560208Y-69690645D01*
X110555700Y-69693802D01*
X110393802Y-69855700D01*
X110262477Y-70043251D01*
X110260154Y-70048233D01*
X110260151Y-70048238D01*
X110203205Y-70170360D01*
X110165716Y-70250757D01*
X110164294Y-70256065D01*
X110164293Y-70256067D01*
X110107881Y-70466598D01*
X110106457Y-70471913D01*
X110086502Y-70700000D01*
X108809539Y-70700000D01*
X108813474Y-70650000D01*
X108793609Y-70397597D01*
X108781242Y-70346082D01*
X108744438Y-70192784D01*
X108734505Y-70151409D01*
X108692814Y-70050757D01*
X108639511Y-69922072D01*
X108639509Y-69922068D01*
X108637616Y-69917498D01*
X108505328Y-69701624D01*
X108340898Y-69509102D01*
X108148376Y-69344672D01*
X107932502Y-69212384D01*
X107927932Y-69210491D01*
X107927928Y-69210489D01*
X107703164Y-69117389D01*
X107703162Y-69117388D01*
X107698591Y-69115495D01*
X107604238Y-69092843D01*
X107457216Y-69057546D01*
X107457210Y-69057545D01*
X107452403Y-69056391D01*
X107200000Y-69036526D01*
X106947597Y-69056391D01*
X106942790Y-69057545D01*
X106942784Y-69057546D01*
X106795762Y-69092843D01*
X106701409Y-69115495D01*
X106696838Y-69117388D01*
X106696836Y-69117389D01*
X106472072Y-69210489D01*
X106472068Y-69210491D01*
X106467498Y-69212384D01*
X106251624Y-69344672D01*
X106059102Y-69509102D01*
X105894672Y-69701624D01*
X105762384Y-69917498D01*
X105760491Y-69922068D01*
X105760489Y-69922072D01*
X105707186Y-70050757D01*
X105665495Y-70151409D01*
X105655562Y-70192784D01*
X105618759Y-70346082D01*
X105606391Y-70397597D01*
X105586526Y-70650000D01*
X102909124Y-70650000D01*
X102893543Y-70471913D01*
X102892119Y-70466598D01*
X102835707Y-70256067D01*
X102835706Y-70256065D01*
X102834284Y-70250757D01*
X102796795Y-70170360D01*
X102739849Y-70048238D01*
X102739846Y-70048233D01*
X102737523Y-70043251D01*
X102606198Y-69855700D01*
X102444300Y-69693802D01*
X102439792Y-69690645D01*
X102439789Y-69690643D01*
X102327795Y-69612224D01*
X102256749Y-69562477D01*
X102251767Y-69560154D01*
X102251762Y-69560151D01*
X102054225Y-69468039D01*
X102054224Y-69468039D01*
X102049243Y-69465716D01*
X102043935Y-69464294D01*
X102043933Y-69464293D01*
X101833402Y-69407881D01*
X101833400Y-69407881D01*
X101828087Y-69406457D01*
X101600000Y-69386502D01*
X101371913Y-69406457D01*
X101366600Y-69407881D01*
X101366598Y-69407881D01*
X101156067Y-69464293D01*
X101156065Y-69464294D01*
X101150757Y-69465716D01*
X101145776Y-69468039D01*
X101145775Y-69468039D01*
X100948238Y-69560151D01*
X100948233Y-69560154D01*
X100943251Y-69562477D01*
X100872205Y-69612224D01*
X100760211Y-69690643D01*
X100760208Y-69690645D01*
X100755700Y-69693802D01*
X100593802Y-69855700D01*
X100462477Y-70043251D01*
X100460154Y-70048233D01*
X100460151Y-70048238D01*
X100403205Y-70170360D01*
X100365716Y-70250757D01*
X100364294Y-70256065D01*
X100364293Y-70256067D01*
X100307881Y-70466598D01*
X100306457Y-70471913D01*
X100286502Y-70700000D01*
X99009539Y-70700000D01*
X99013474Y-70650000D01*
X98993609Y-70397597D01*
X98981242Y-70346082D01*
X98944438Y-70192784D01*
X98934505Y-70151409D01*
X98892814Y-70050757D01*
X98839511Y-69922072D01*
X98839509Y-69922068D01*
X98837616Y-69917498D01*
X98705328Y-69701624D01*
X98540898Y-69509102D01*
X98348376Y-69344672D01*
X98132502Y-69212384D01*
X98127932Y-69210491D01*
X98127928Y-69210489D01*
X97903164Y-69117389D01*
X97903162Y-69117388D01*
X97898591Y-69115495D01*
X97804238Y-69092843D01*
X97657216Y-69057546D01*
X97657210Y-69057545D01*
X97652403Y-69056391D01*
X97647466Y-69056002D01*
X97647457Y-69056001D01*
X97613284Y-69053311D01*
X97546943Y-69028026D01*
X97504804Y-68970887D01*
X97500245Y-68900037D01*
X97534076Y-68838605D01*
X100597750Y-65774931D01*
X100660062Y-65740905D01*
X100728384Y-65745070D01*
X100735337Y-65747498D01*
X100756568Y-65754912D01*
X101006050Y-65802278D01*
X101126532Y-65807011D01*
X101255125Y-65812064D01*
X101255130Y-65812064D01*
X101259793Y-65812247D01*
X101350830Y-65802277D01*
X101507569Y-65785112D01*
X101507575Y-65785111D01*
X101512222Y-65784602D01*
X101621680Y-65755784D01*
X101753273Y-65721138D01*
X101757793Y-65719948D01*
X101889737Y-65663261D01*
X101986807Y-65621557D01*
X101986810Y-65621555D01*
X101991110Y-65619708D01*
X101995090Y-65617245D01*
X101995094Y-65617243D01*
X102203064Y-65488547D01*
X102203066Y-65488545D01*
X102207047Y-65486082D01*
X102305428Y-65402797D01*
X102397289Y-65325031D01*
X102397291Y-65325029D01*
X102400862Y-65322006D01*
X102568295Y-65131084D01*
X102582686Y-65108712D01*
X102703141Y-64921442D01*
X102705669Y-64917512D01*
X102809967Y-64685980D01*
X102811288Y-64681298D01*
X102828528Y-64620167D01*
X102866269Y-64560033D01*
X102930530Y-64529850D01*
X103000909Y-64539200D01*
X103055059Y-64585116D01*
X103068385Y-64611789D01*
X103134831Y-64796858D01*
X103137048Y-64800984D01*
X103252666Y-65016160D01*
X103255025Y-65020551D01*
X103257820Y-65024294D01*
X103257822Y-65024297D01*
X103404171Y-65220282D01*
X103404176Y-65220288D01*
X103406963Y-65224020D01*
X103410272Y-65227300D01*
X103410277Y-65227306D01*
X103508859Y-65325031D01*
X103587307Y-65402797D01*
X103591069Y-65405555D01*
X103591072Y-65405558D01*
X103666912Y-65461166D01*
X103792094Y-65552953D01*
X103796229Y-65555129D01*
X103796233Y-65555131D01*
X103913447Y-65616800D01*
X104016827Y-65671191D01*
X104149803Y-65717628D01*
X104250764Y-65752885D01*
X104256568Y-65754912D01*
X104506050Y-65802278D01*
X104626532Y-65807011D01*
X104755125Y-65812064D01*
X104755130Y-65812064D01*
X104759793Y-65812247D01*
X104850830Y-65802277D01*
X105007569Y-65785112D01*
X105007575Y-65785111D01*
X105012222Y-65784602D01*
X105121680Y-65755784D01*
X105253273Y-65721138D01*
X105257793Y-65719948D01*
X105389737Y-65663261D01*
X105486807Y-65621557D01*
X105486810Y-65621555D01*
X105491110Y-65619708D01*
X105495090Y-65617245D01*
X105495094Y-65617243D01*
X105703064Y-65488547D01*
X105703066Y-65488545D01*
X105707047Y-65486082D01*
X105722076Y-65473359D01*
X107191386Y-65473359D01*
X107200099Y-65484879D01*
X107288586Y-65549760D01*
X107296505Y-65554708D01*
X107512877Y-65668547D01*
X107521451Y-65672275D01*
X107752282Y-65752885D01*
X107761291Y-65755299D01*
X108001518Y-65800908D01*
X108010775Y-65801962D01*
X108255107Y-65811563D01*
X108264420Y-65811237D01*
X108507478Y-65784618D01*
X108516655Y-65782917D01*
X108753107Y-65720665D01*
X108761926Y-65717628D01*
X108986584Y-65621107D01*
X108994856Y-65616800D01*
X109202777Y-65488135D01*
X109204620Y-65486796D01*
X109212038Y-65475541D01*
X109205974Y-65465184D01*
X108212812Y-64472022D01*
X108198868Y-64464408D01*
X108197035Y-64464539D01*
X108190420Y-64468790D01*
X107198044Y-65461166D01*
X107191386Y-65473359D01*
X105722076Y-65473359D01*
X105805428Y-65402797D01*
X105897289Y-65325031D01*
X105897291Y-65325029D01*
X105900862Y-65322006D01*
X106068295Y-65131084D01*
X106082686Y-65108712D01*
X106203141Y-64921442D01*
X106205669Y-64917512D01*
X106309967Y-64685980D01*
X106311287Y-64681302D01*
X106328762Y-64619338D01*
X106366504Y-64559204D01*
X106430765Y-64529022D01*
X106501143Y-64538373D01*
X106555294Y-64584288D01*
X106568619Y-64610963D01*
X106633706Y-64792246D01*
X106637505Y-64800778D01*
X106753234Y-65016160D01*
X106758245Y-65024027D01*
X106815173Y-65100263D01*
X106826431Y-65108712D01*
X106838850Y-65101940D01*
X107827978Y-64112812D01*
X107834356Y-64101132D01*
X108564408Y-64101132D01*
X108564539Y-64102965D01*
X108568790Y-64109580D01*
X109563732Y-65104522D01*
X109576112Y-65111282D01*
X109584453Y-65105038D01*
X109702700Y-64921202D01*
X109707147Y-64913011D01*
X109807572Y-64690076D01*
X109810766Y-64681302D01*
X109828237Y-64619354D01*
X109865979Y-64559220D01*
X109930240Y-64529038D01*
X110000618Y-64538389D01*
X110054769Y-64584304D01*
X110068093Y-64610977D01*
X110134831Y-64796858D01*
X110137048Y-64800984D01*
X110252666Y-65016160D01*
X110255025Y-65020551D01*
X110257820Y-65024294D01*
X110257822Y-65024297D01*
X110404171Y-65220282D01*
X110404176Y-65220288D01*
X110406963Y-65224020D01*
X110410272Y-65227300D01*
X110410277Y-65227306D01*
X110508859Y-65325031D01*
X110587307Y-65402797D01*
X110591069Y-65405555D01*
X110591072Y-65405558D01*
X110666912Y-65461166D01*
X110792094Y-65552953D01*
X110796229Y-65555129D01*
X110796233Y-65555131D01*
X110913447Y-65616800D01*
X111016827Y-65671191D01*
X111149803Y-65717628D01*
X111250764Y-65752885D01*
X111256568Y-65754912D01*
X111506050Y-65802278D01*
X111626532Y-65807011D01*
X111755125Y-65812064D01*
X111755130Y-65812064D01*
X111759793Y-65812247D01*
X111850830Y-65802277D01*
X112007569Y-65785112D01*
X112007575Y-65785111D01*
X112012222Y-65784602D01*
X112121680Y-65755784D01*
X112253273Y-65721138D01*
X112257793Y-65719948D01*
X112389737Y-65663261D01*
X112486807Y-65621557D01*
X112486810Y-65621555D01*
X112491110Y-65619708D01*
X112495090Y-65617245D01*
X112495094Y-65617243D01*
X112703064Y-65488547D01*
X112703066Y-65488545D01*
X112707047Y-65486082D01*
X112722076Y-65473359D01*
X114191386Y-65473359D01*
X114200099Y-65484879D01*
X114288586Y-65549760D01*
X114296505Y-65554708D01*
X114512877Y-65668547D01*
X114521451Y-65672275D01*
X114752282Y-65752885D01*
X114761291Y-65755299D01*
X115001518Y-65800908D01*
X115010775Y-65801962D01*
X115255107Y-65811563D01*
X115264420Y-65811237D01*
X115507478Y-65784618D01*
X115516655Y-65782917D01*
X115753107Y-65720665D01*
X115761926Y-65717628D01*
X115986584Y-65621107D01*
X115994856Y-65616800D01*
X116202777Y-65488135D01*
X116204620Y-65486796D01*
X116212038Y-65475541D01*
X116205974Y-65465184D01*
X115212812Y-64472022D01*
X115198868Y-64464408D01*
X115197035Y-64464539D01*
X115190420Y-64468790D01*
X114198044Y-65461166D01*
X114191386Y-65473359D01*
X112722076Y-65473359D01*
X112805428Y-65402797D01*
X112897289Y-65325031D01*
X112897291Y-65325029D01*
X112900862Y-65322006D01*
X113068295Y-65131084D01*
X113082686Y-65108712D01*
X113203141Y-64921442D01*
X113205669Y-64917512D01*
X113309967Y-64685980D01*
X113311287Y-64681302D01*
X113328762Y-64619338D01*
X113366504Y-64559204D01*
X113430765Y-64529022D01*
X113501143Y-64538373D01*
X113555294Y-64584288D01*
X113568619Y-64610963D01*
X113633706Y-64792246D01*
X113637505Y-64800778D01*
X113753234Y-65016160D01*
X113758245Y-65024027D01*
X113815173Y-65100263D01*
X113826431Y-65108712D01*
X113838850Y-65101940D01*
X114827978Y-64112812D01*
X114834356Y-64101132D01*
X115564408Y-64101132D01*
X115564539Y-64102965D01*
X115568790Y-64109580D01*
X116563732Y-65104522D01*
X116576112Y-65111282D01*
X116584453Y-65105038D01*
X116702700Y-64921202D01*
X116707147Y-64913011D01*
X116807572Y-64690076D01*
X116810766Y-64681302D01*
X116828237Y-64619354D01*
X116865979Y-64559220D01*
X116930240Y-64529038D01*
X117000618Y-64538389D01*
X117054769Y-64584304D01*
X117068093Y-64610977D01*
X117134831Y-64796858D01*
X117137048Y-64800984D01*
X117252666Y-65016160D01*
X117255025Y-65020551D01*
X117257820Y-65024294D01*
X117257822Y-65024297D01*
X117404171Y-65220282D01*
X117404176Y-65220288D01*
X117406963Y-65224020D01*
X117410272Y-65227300D01*
X117410277Y-65227306D01*
X117508859Y-65325031D01*
X117587307Y-65402797D01*
X117591069Y-65405555D01*
X117591072Y-65405558D01*
X117666912Y-65461166D01*
X117792094Y-65552953D01*
X117796229Y-65555129D01*
X117796233Y-65555131D01*
X117913447Y-65616800D01*
X118016827Y-65671191D01*
X118149803Y-65717628D01*
X118250764Y-65752885D01*
X118256568Y-65754912D01*
X118506050Y-65802278D01*
X118626532Y-65807011D01*
X118755125Y-65812064D01*
X118755130Y-65812064D01*
X118759793Y-65812247D01*
X118850830Y-65802277D01*
X119007569Y-65785112D01*
X119007575Y-65785111D01*
X119012222Y-65784602D01*
X119121680Y-65755784D01*
X119253273Y-65721138D01*
X119257793Y-65719948D01*
X119389737Y-65663261D01*
X119486807Y-65621557D01*
X119486810Y-65621555D01*
X119491110Y-65619708D01*
X119495090Y-65617245D01*
X119495094Y-65617243D01*
X119703064Y-65488547D01*
X119703066Y-65488545D01*
X119707047Y-65486082D01*
X119722076Y-65473359D01*
X121191386Y-65473359D01*
X121200099Y-65484879D01*
X121288586Y-65549760D01*
X121296505Y-65554708D01*
X121512877Y-65668547D01*
X121521451Y-65672275D01*
X121752282Y-65752885D01*
X121761291Y-65755299D01*
X122001518Y-65800908D01*
X122010775Y-65801962D01*
X122255107Y-65811563D01*
X122264420Y-65811237D01*
X122507478Y-65784618D01*
X122516655Y-65782917D01*
X122753107Y-65720665D01*
X122761926Y-65717628D01*
X122986584Y-65621107D01*
X122994856Y-65616800D01*
X123202777Y-65488135D01*
X123204620Y-65486796D01*
X123212038Y-65475541D01*
X123205974Y-65465184D01*
X122212812Y-64472022D01*
X122198868Y-64464408D01*
X122197035Y-64464539D01*
X122190420Y-64468790D01*
X121198044Y-65461166D01*
X121191386Y-65473359D01*
X119722076Y-65473359D01*
X119805428Y-65402797D01*
X119897289Y-65325031D01*
X119897291Y-65325029D01*
X119900862Y-65322006D01*
X120068295Y-65131084D01*
X120082686Y-65108712D01*
X120203141Y-64921442D01*
X120205669Y-64917512D01*
X120309967Y-64685980D01*
X120311287Y-64681302D01*
X120328762Y-64619338D01*
X120366504Y-64559204D01*
X120430765Y-64529022D01*
X120501143Y-64538373D01*
X120555294Y-64584288D01*
X120568619Y-64610963D01*
X120633706Y-64792246D01*
X120637505Y-64800778D01*
X120753234Y-65016160D01*
X120758245Y-65024027D01*
X120815173Y-65100263D01*
X120826431Y-65108712D01*
X120838850Y-65101940D01*
X121827978Y-64112812D01*
X121834356Y-64101132D01*
X122564408Y-64101132D01*
X122564539Y-64102965D01*
X122568790Y-64109580D01*
X123563732Y-65104522D01*
X123576112Y-65111282D01*
X123584453Y-65105038D01*
X123702700Y-64921202D01*
X123707147Y-64913011D01*
X123807572Y-64690076D01*
X123810767Y-64681298D01*
X123877135Y-64445973D01*
X123878993Y-64436844D01*
X123910044Y-64192770D01*
X123910525Y-64186483D01*
X123912706Y-64103160D01*
X123912555Y-64096851D01*
X123894321Y-63851486D01*
X123892944Y-63842280D01*
X123838979Y-63603786D01*
X123836255Y-63594875D01*
X123747633Y-63366983D01*
X123743619Y-63358567D01*
X123622284Y-63146276D01*
X123617074Y-63138553D01*
X123585787Y-63098865D01*
X123573863Y-63090395D01*
X123562328Y-63096882D01*
X122572022Y-64087188D01*
X122564408Y-64101132D01*
X121834356Y-64101132D01*
X121835592Y-64098868D01*
X121835461Y-64097035D01*
X121831210Y-64090420D01*
X120836828Y-63096038D01*
X120823520Y-63088771D01*
X120813481Y-63095893D01*
X120808581Y-63101784D01*
X120803168Y-63109373D01*
X120676322Y-63318409D01*
X120672084Y-63326726D01*
X120577529Y-63552214D01*
X120574573Y-63561050D01*
X120572328Y-63569888D01*
X120536172Y-63630989D01*
X120472722Y-63662843D01*
X120402124Y-63655336D01*
X120346790Y-63610853D01*
X120332772Y-63584538D01*
X120248084Y-63366762D01*
X120248083Y-63366760D01*
X120246391Y-63362409D01*
X120244073Y-63358353D01*
X120122702Y-63145997D01*
X120122700Y-63145995D01*
X120120383Y-63141940D01*
X119963171Y-62942517D01*
X119778209Y-62768523D01*
X119729443Y-62734693D01*
X119715351Y-62724917D01*
X121189330Y-62724917D01*
X121193903Y-62734693D01*
X122187188Y-63727978D01*
X122201132Y-63735592D01*
X122202965Y-63735461D01*
X122209580Y-63731210D01*
X123202488Y-62738302D01*
X123208872Y-62726612D01*
X123199460Y-62714502D01*
X123073144Y-62626873D01*
X123065116Y-62622145D01*
X122845810Y-62513995D01*
X122837177Y-62510507D01*
X122604288Y-62435958D01*
X122595238Y-62433785D01*
X122353891Y-62394480D01*
X122344602Y-62393668D01*
X122100114Y-62390467D01*
X122090803Y-62391037D01*
X121848522Y-62424010D01*
X121839403Y-62425948D01*
X121604668Y-62494367D01*
X121595915Y-62497639D01*
X121373869Y-62600004D01*
X121365714Y-62604524D01*
X121198468Y-62714175D01*
X121189330Y-62724917D01*
X119715351Y-62724917D01*
X119573393Y-62626437D01*
X119573390Y-62626435D01*
X119569561Y-62623779D01*
X119565384Y-62621719D01*
X119565377Y-62621715D01*
X119345996Y-62513528D01*
X119345992Y-62513527D01*
X119341810Y-62511464D01*
X119099960Y-62434047D01*
X119095355Y-62433297D01*
X118853935Y-62393980D01*
X118853934Y-62393980D01*
X118849323Y-62393229D01*
X118722364Y-62391567D01*
X118600083Y-62389966D01*
X118600080Y-62389966D01*
X118595406Y-62389905D01*
X118343787Y-62424149D01*
X118339301Y-62425457D01*
X118339299Y-62425457D01*
X118312401Y-62433297D01*
X118099993Y-62495208D01*
X118095740Y-62497168D01*
X118095739Y-62497169D01*
X118067818Y-62510041D01*
X117869380Y-62601522D01*
X117865471Y-62604085D01*
X117660928Y-62738189D01*
X117660923Y-62738193D01*
X117657015Y-62740755D01*
X117467562Y-62909848D01*
X117305183Y-63105087D01*
X117173447Y-63322182D01*
X117171638Y-63326496D01*
X117171637Y-63326498D01*
X117112300Y-63468002D01*
X117075246Y-63556365D01*
X117071804Y-63569919D01*
X117035651Y-63631019D01*
X116972203Y-63662875D01*
X116901604Y-63655371D01*
X116846269Y-63610890D01*
X116832248Y-63584571D01*
X116747633Y-63366983D01*
X116743619Y-63358567D01*
X116622284Y-63146276D01*
X116617074Y-63138553D01*
X116585787Y-63098865D01*
X116573863Y-63090395D01*
X116562328Y-63096882D01*
X115572022Y-64087188D01*
X115564408Y-64101132D01*
X114834356Y-64101132D01*
X114835592Y-64098868D01*
X114835461Y-64097035D01*
X114831210Y-64090420D01*
X113836828Y-63096038D01*
X113823520Y-63088771D01*
X113813481Y-63095893D01*
X113808581Y-63101784D01*
X113803168Y-63109373D01*
X113676322Y-63318409D01*
X113672084Y-63326726D01*
X113577529Y-63552214D01*
X113574573Y-63561050D01*
X113572328Y-63569888D01*
X113536172Y-63630989D01*
X113472722Y-63662843D01*
X113402124Y-63655336D01*
X113346790Y-63610853D01*
X113332772Y-63584538D01*
X113248084Y-63366762D01*
X113248083Y-63366760D01*
X113246391Y-63362409D01*
X113244073Y-63358353D01*
X113122702Y-63145997D01*
X113122700Y-63145995D01*
X113120383Y-63141940D01*
X112963171Y-62942517D01*
X112778209Y-62768523D01*
X112729443Y-62734693D01*
X112715351Y-62724917D01*
X114189330Y-62724917D01*
X114193903Y-62734693D01*
X115187188Y-63727978D01*
X115201132Y-63735592D01*
X115202965Y-63735461D01*
X115209580Y-63731210D01*
X116202488Y-62738302D01*
X116208872Y-62726612D01*
X116199460Y-62714502D01*
X116073144Y-62626873D01*
X116065116Y-62622145D01*
X115845810Y-62513995D01*
X115837177Y-62510507D01*
X115604288Y-62435958D01*
X115595238Y-62433785D01*
X115353891Y-62394480D01*
X115344602Y-62393668D01*
X115100114Y-62390467D01*
X115090803Y-62391037D01*
X114848522Y-62424010D01*
X114839403Y-62425948D01*
X114604668Y-62494367D01*
X114595915Y-62497639D01*
X114373869Y-62600004D01*
X114365714Y-62604524D01*
X114198468Y-62714175D01*
X114189330Y-62724917D01*
X112715351Y-62724917D01*
X112573393Y-62626437D01*
X112573390Y-62626435D01*
X112569561Y-62623779D01*
X112565384Y-62621719D01*
X112565377Y-62621715D01*
X112345996Y-62513528D01*
X112345992Y-62513527D01*
X112341810Y-62511464D01*
X112099960Y-62434047D01*
X112095355Y-62433297D01*
X111853935Y-62393980D01*
X111853934Y-62393980D01*
X111849323Y-62393229D01*
X111722364Y-62391567D01*
X111600083Y-62389966D01*
X111600080Y-62389966D01*
X111595406Y-62389905D01*
X111343787Y-62424149D01*
X111339301Y-62425457D01*
X111339299Y-62425457D01*
X111312401Y-62433297D01*
X111099993Y-62495208D01*
X111095740Y-62497168D01*
X111095739Y-62497169D01*
X111067818Y-62510041D01*
X110869380Y-62601522D01*
X110865471Y-62604085D01*
X110660928Y-62738189D01*
X110660923Y-62738193D01*
X110657015Y-62740755D01*
X110467562Y-62909848D01*
X110305183Y-63105087D01*
X110173447Y-63322182D01*
X110171638Y-63326496D01*
X110171637Y-63326498D01*
X110112300Y-63468002D01*
X110075246Y-63556365D01*
X110071804Y-63569919D01*
X110035651Y-63631019D01*
X109972203Y-63662875D01*
X109901604Y-63655371D01*
X109846269Y-63610890D01*
X109832248Y-63584571D01*
X109747633Y-63366983D01*
X109743619Y-63358567D01*
X109622284Y-63146276D01*
X109617074Y-63138553D01*
X109585787Y-63098865D01*
X109573863Y-63090395D01*
X109562328Y-63096882D01*
X108572022Y-64087188D01*
X108564408Y-64101132D01*
X107834356Y-64101132D01*
X107835592Y-64098868D01*
X107835461Y-64097035D01*
X107831210Y-64090420D01*
X106836828Y-63096038D01*
X106823520Y-63088771D01*
X106813481Y-63095893D01*
X106808581Y-63101784D01*
X106803168Y-63109373D01*
X106676322Y-63318409D01*
X106672084Y-63326726D01*
X106577529Y-63552214D01*
X106574573Y-63561050D01*
X106572328Y-63569888D01*
X106536172Y-63630989D01*
X106472722Y-63662843D01*
X106402124Y-63655336D01*
X106346790Y-63610853D01*
X106332772Y-63584538D01*
X106248084Y-63366762D01*
X106248083Y-63366760D01*
X106246391Y-63362409D01*
X106244073Y-63358353D01*
X106122702Y-63145997D01*
X106122700Y-63145995D01*
X106120383Y-63141940D01*
X105963171Y-62942517D01*
X105778209Y-62768523D01*
X105729443Y-62734693D01*
X105715351Y-62724917D01*
X107189330Y-62724917D01*
X107193903Y-62734693D01*
X108187188Y-63727978D01*
X108201132Y-63735592D01*
X108202965Y-63735461D01*
X108209580Y-63731210D01*
X109202488Y-62738302D01*
X109208872Y-62726612D01*
X109199460Y-62714502D01*
X109073144Y-62626873D01*
X109065116Y-62622145D01*
X108845810Y-62513995D01*
X108837177Y-62510507D01*
X108604288Y-62435958D01*
X108595238Y-62433785D01*
X108353891Y-62394480D01*
X108344602Y-62393668D01*
X108100114Y-62390467D01*
X108090803Y-62391037D01*
X107848522Y-62424010D01*
X107839403Y-62425948D01*
X107604668Y-62494367D01*
X107595915Y-62497639D01*
X107373869Y-62600004D01*
X107365714Y-62604524D01*
X107198468Y-62714175D01*
X107189330Y-62724917D01*
X105715351Y-62724917D01*
X105573393Y-62626437D01*
X105573390Y-62626435D01*
X105569561Y-62623779D01*
X105565384Y-62621719D01*
X105565377Y-62621715D01*
X105345996Y-62513528D01*
X105345992Y-62513527D01*
X105341810Y-62511464D01*
X105099960Y-62434047D01*
X105095355Y-62433297D01*
X104853935Y-62393980D01*
X104853934Y-62393980D01*
X104849323Y-62393229D01*
X104722364Y-62391567D01*
X104600083Y-62389966D01*
X104600080Y-62389966D01*
X104595406Y-62389905D01*
X104343787Y-62424149D01*
X104339301Y-62425457D01*
X104339299Y-62425457D01*
X104312401Y-62433297D01*
X104099993Y-62495208D01*
X104095740Y-62497168D01*
X104095739Y-62497169D01*
X104067818Y-62510041D01*
X103869380Y-62601522D01*
X103865471Y-62604085D01*
X103660928Y-62738189D01*
X103660923Y-62738193D01*
X103657015Y-62740755D01*
X103467562Y-62909848D01*
X103305183Y-63105087D01*
X103173447Y-63322182D01*
X103171638Y-63326496D01*
X103171637Y-63326498D01*
X103112300Y-63468002D01*
X103075246Y-63556365D01*
X103074096Y-63560893D01*
X103074095Y-63560897D01*
X103072016Y-63569084D01*
X103035861Y-63630185D01*
X102972412Y-63662039D01*
X102901813Y-63654534D01*
X102846479Y-63610051D01*
X102832460Y-63583735D01*
X102748084Y-63366762D01*
X102748083Y-63366760D01*
X102746391Y-63362409D01*
X102744073Y-63358353D01*
X102622702Y-63145997D01*
X102622700Y-63145995D01*
X102620383Y-63141940D01*
X102463171Y-62942517D01*
X102278209Y-62768523D01*
X102229443Y-62734693D01*
X102073393Y-62626437D01*
X102073390Y-62626435D01*
X102069561Y-62623779D01*
X102065384Y-62621719D01*
X102065377Y-62621715D01*
X101845996Y-62513528D01*
X101845992Y-62513527D01*
X101841810Y-62511464D01*
X101599960Y-62434047D01*
X101595355Y-62433297D01*
X101353935Y-62393980D01*
X101353934Y-62393980D01*
X101349323Y-62393229D01*
X101222364Y-62391567D01*
X101100083Y-62389966D01*
X101100080Y-62389966D01*
X101095406Y-62389905D01*
X100843787Y-62424149D01*
X100839301Y-62425457D01*
X100839299Y-62425457D01*
X100812401Y-62433297D01*
X100599993Y-62495208D01*
X100595740Y-62497168D01*
X100595739Y-62497169D01*
X100567818Y-62510041D01*
X100369380Y-62601522D01*
X100365471Y-62604085D01*
X100160928Y-62738189D01*
X100160923Y-62738193D01*
X100157015Y-62740755D01*
X99967562Y-62909848D01*
X99805183Y-63105087D01*
X99673447Y-63322182D01*
X99671638Y-63326496D01*
X99671637Y-63326498D01*
X99612300Y-63468002D01*
X99575246Y-63556365D01*
X99574096Y-63560893D01*
X99574095Y-63560897D01*
X99572016Y-63569084D01*
X99535861Y-63630185D01*
X99472412Y-63662039D01*
X99401813Y-63654534D01*
X99346479Y-63610051D01*
X99332460Y-63583735D01*
X99248084Y-63366762D01*
X99248083Y-63366760D01*
X99246391Y-63362409D01*
X99244073Y-63358353D01*
X99122702Y-63145997D01*
X99122700Y-63145995D01*
X99120383Y-63141940D01*
X98963171Y-62942517D01*
X98778209Y-62768523D01*
X98729443Y-62734693D01*
X98573393Y-62626437D01*
X98573390Y-62626435D01*
X98569561Y-62623779D01*
X98565384Y-62621719D01*
X98565377Y-62621715D01*
X98345996Y-62513528D01*
X98345992Y-62513527D01*
X98341810Y-62511464D01*
X98099960Y-62434047D01*
X98095355Y-62433297D01*
X97853935Y-62393980D01*
X97853934Y-62393980D01*
X97849323Y-62393229D01*
X97722364Y-62391567D01*
X97600083Y-62389966D01*
X97600080Y-62389966D01*
X97595406Y-62389905D01*
X97343787Y-62424149D01*
X97339301Y-62425457D01*
X97339299Y-62425457D01*
X97312401Y-62433297D01*
X97099993Y-62495208D01*
X97095740Y-62497168D01*
X97095739Y-62497169D01*
X97067818Y-62510041D01*
X96869380Y-62601522D01*
X96865471Y-62604085D01*
X96660928Y-62738189D01*
X96660923Y-62738193D01*
X96657015Y-62740755D01*
X96467562Y-62909848D01*
X96305183Y-63105087D01*
X96173447Y-63322182D01*
X96171638Y-63326497D01*
X96171635Y-63326502D01*
X96150697Y-63376434D01*
X96105909Y-63431520D01*
X96038448Y-63453647D01*
X95969734Y-63435789D01*
X95921583Y-63383617D01*
X95908500Y-63327709D01*
X95908500Y-62851866D01*
X95901745Y-62789684D01*
X95850615Y-62653295D01*
X95763261Y-62536739D01*
X95646705Y-62449385D01*
X95510316Y-62398255D01*
X95448134Y-62391500D01*
X94526000Y-62391500D01*
X94457879Y-62371498D01*
X94411386Y-62317842D01*
X94400000Y-62265500D01*
X94400000Y-60634500D01*
X94420002Y-60566379D01*
X94473658Y-60519886D01*
X94526000Y-60508500D01*
X124365500Y-60508500D01*
X124433621Y-60528502D01*
G37*
%TD.AperFunction*%
%TD*%
M02*
