%TF.GenerationSoftware,KiCad,Pcbnew,(6.0.5)*%
%TF.CreationDate,2024-08-08T10:41:33-06:00*%
%TF.ProjectId,oil-lamp-safety,6f696c2d-6c61-46d7-902d-736166657479,v0.1*%
%TF.SameCoordinates,Original*%
%TF.FileFunction,Legend,Bot*%
%TF.FilePolarity,Positive*%
%FSLAX46Y46*%
G04 Gerber Fmt 4.6, Leading zero omitted, Abs format (unit mm)*
G04 Created by KiCad (PCBNEW (6.0.5)) date 2024-08-08 10:41:33*
%MOMM*%
%LPD*%
G01*
G04 APERTURE LIST*
%ADD10C,0.150000*%
%ADD11C,0.300000*%
G04 APERTURE END LIST*
D10*
X123852380Y-66707023D02*
X123376190Y-66373690D01*
X123852380Y-66135595D02*
X122852380Y-66135595D01*
X122852380Y-66516547D01*
X122900000Y-66611785D01*
X122947619Y-66659404D01*
X123042857Y-66707023D01*
X123185714Y-66707023D01*
X123280952Y-66659404D01*
X123328571Y-66611785D01*
X123376190Y-66516547D01*
X123376190Y-66135595D01*
X122852380Y-67135595D02*
X123661904Y-67135595D01*
X123757142Y-67183214D01*
X123804761Y-67230833D01*
X123852380Y-67326071D01*
X123852380Y-67516547D01*
X123804761Y-67611785D01*
X123757142Y-67659404D01*
X123661904Y-67707023D01*
X122852380Y-67707023D01*
X123852380Y-68183214D02*
X122852380Y-68183214D01*
X123852380Y-68754642D01*
X122852380Y-68754642D01*
X123852380Y-70564166D02*
X123376190Y-70230833D01*
X123852380Y-69992738D02*
X122852380Y-69992738D01*
X122852380Y-70373690D01*
X122900000Y-70468928D01*
X122947619Y-70516547D01*
X123042857Y-70564166D01*
X123185714Y-70564166D01*
X123280952Y-70516547D01*
X123328571Y-70468928D01*
X123376190Y-70373690D01*
X123376190Y-69992738D01*
X123328571Y-70992738D02*
X123328571Y-71326071D01*
X123852380Y-71468928D02*
X123852380Y-70992738D01*
X122852380Y-70992738D01*
X122852380Y-71468928D01*
X123852380Y-72373690D02*
X123852380Y-71897500D01*
X122852380Y-71897500D01*
X123566666Y-72659404D02*
X123566666Y-73135595D01*
X123852380Y-72564166D02*
X122852380Y-72897500D01*
X123852380Y-73230833D01*
X123376190Y-73754642D02*
X123852380Y-73754642D01*
X122852380Y-73421309D02*
X123376190Y-73754642D01*
X122852380Y-74087976D01*
X123852380Y-75707023D02*
X123852380Y-75135595D01*
X123852380Y-75421309D02*
X122852380Y-75421309D01*
X122995238Y-75326071D01*
X123090476Y-75230833D01*
X123138095Y-75135595D01*
X122947619Y-76087976D02*
X122900000Y-76135595D01*
X122852380Y-76230833D01*
X122852380Y-76468928D01*
X122900000Y-76564166D01*
X122947619Y-76611785D01*
X123042857Y-76659404D01*
X123138095Y-76659404D01*
X123280952Y-76611785D01*
X123852380Y-76040357D01*
X123852380Y-76659404D01*
X122852380Y-76945119D02*
X123852380Y-77278452D01*
X122852380Y-77611785D01*
X119852380Y-66707023D02*
X119376190Y-66373690D01*
X119852380Y-66135595D02*
X118852380Y-66135595D01*
X118852380Y-66516547D01*
X118900000Y-66611785D01*
X118947619Y-66659404D01*
X119042857Y-66707023D01*
X119185714Y-66707023D01*
X119280952Y-66659404D01*
X119328571Y-66611785D01*
X119376190Y-66516547D01*
X119376190Y-66135595D01*
X118852380Y-67135595D02*
X119661904Y-67135595D01*
X119757142Y-67183214D01*
X119804761Y-67230833D01*
X119852380Y-67326071D01*
X119852380Y-67516547D01*
X119804761Y-67611785D01*
X119757142Y-67659404D01*
X119661904Y-67707023D01*
X118852380Y-67707023D01*
X119852380Y-68183214D02*
X118852380Y-68183214D01*
X119852380Y-68754642D01*
X118852380Y-68754642D01*
X119852380Y-70564166D02*
X119376190Y-70230833D01*
X119852380Y-69992738D02*
X118852380Y-69992738D01*
X118852380Y-70373690D01*
X118900000Y-70468928D01*
X118947619Y-70516547D01*
X119042857Y-70564166D01*
X119185714Y-70564166D01*
X119280952Y-70516547D01*
X119328571Y-70468928D01*
X119376190Y-70373690D01*
X119376190Y-69992738D01*
X119328571Y-70992738D02*
X119328571Y-71326071D01*
X119852380Y-71468928D02*
X119852380Y-70992738D01*
X118852380Y-70992738D01*
X118852380Y-71468928D01*
X119852380Y-72373690D02*
X119852380Y-71897500D01*
X118852380Y-71897500D01*
X119566666Y-72659404D02*
X119566666Y-73135595D01*
X119852380Y-72564166D02*
X118852380Y-72897500D01*
X119852380Y-73230833D01*
X119376190Y-73754642D02*
X119852380Y-73754642D01*
X118852380Y-73421309D02*
X119376190Y-73754642D01*
X118852380Y-74087976D01*
X118852380Y-75373690D02*
X118852380Y-75564166D01*
X118900000Y-75659404D01*
X118995238Y-75754642D01*
X119185714Y-75802261D01*
X119519047Y-75802261D01*
X119709523Y-75754642D01*
X119804761Y-75659404D01*
X119852380Y-75564166D01*
X119852380Y-75373690D01*
X119804761Y-75278452D01*
X119709523Y-75183214D01*
X119519047Y-75135595D01*
X119185714Y-75135595D01*
X118995238Y-75183214D01*
X118900000Y-75278452D01*
X118852380Y-75373690D01*
X118852380Y-76230833D02*
X119661904Y-76230833D01*
X119757142Y-76278452D01*
X119804761Y-76326071D01*
X119852380Y-76421309D01*
X119852380Y-76611785D01*
X119804761Y-76707023D01*
X119757142Y-76754642D01*
X119661904Y-76802261D01*
X118852380Y-76802261D01*
X118852380Y-77135595D02*
X118852380Y-77707023D01*
X119852380Y-77421309D02*
X118852380Y-77421309D01*
X115652380Y-66611785D02*
X115652380Y-66135595D01*
X114652380Y-66135595D01*
X114652380Y-67135595D02*
X114652380Y-67326071D01*
X114700000Y-67421309D01*
X114795238Y-67516547D01*
X114985714Y-67564166D01*
X115319047Y-67564166D01*
X115509523Y-67516547D01*
X115604761Y-67421309D01*
X115652380Y-67326071D01*
X115652380Y-67135595D01*
X115604761Y-67040357D01*
X115509523Y-66945119D01*
X115319047Y-66897500D01*
X114985714Y-66897500D01*
X114795238Y-66945119D01*
X114700000Y-67040357D01*
X114652380Y-67135595D01*
X115557142Y-68564166D02*
X115604761Y-68516547D01*
X115652380Y-68373690D01*
X115652380Y-68278452D01*
X115604761Y-68135595D01*
X115509523Y-68040357D01*
X115414285Y-67992738D01*
X115223809Y-67945119D01*
X115080952Y-67945119D01*
X114890476Y-67992738D01*
X114795238Y-68040357D01*
X114700000Y-68135595D01*
X114652380Y-68278452D01*
X114652380Y-68373690D01*
X114700000Y-68516547D01*
X114747619Y-68564166D01*
X115652380Y-68992738D02*
X114652380Y-68992738D01*
X115652380Y-69564166D02*
X115080952Y-69135595D01*
X114652380Y-69564166D02*
X115223809Y-68992738D01*
X115652380Y-71230833D02*
X115652380Y-70754642D01*
X114652380Y-70754642D01*
X115366666Y-71516547D02*
X115366666Y-71992738D01*
X115652380Y-71421309D02*
X114652380Y-71754642D01*
X115652380Y-72087976D01*
X115652380Y-72421309D02*
X114652380Y-72421309D01*
X115366666Y-72754642D01*
X114652380Y-73087976D01*
X115652380Y-73087976D01*
X115652380Y-73564166D02*
X114652380Y-73564166D01*
X114652380Y-73945119D01*
X114700000Y-74040357D01*
X114747619Y-74087976D01*
X114842857Y-74135595D01*
X114985714Y-74135595D01*
X115080952Y-74087976D01*
X115128571Y-74040357D01*
X115176190Y-73945119D01*
X115176190Y-73564166D01*
X115652380Y-75849880D02*
X115652380Y-75278452D01*
X115652380Y-75564166D02*
X114652380Y-75564166D01*
X114795238Y-75468928D01*
X114890476Y-75373690D01*
X114938095Y-75278452D01*
X114747619Y-76230833D02*
X114700000Y-76278452D01*
X114652380Y-76373690D01*
X114652380Y-76611785D01*
X114700000Y-76707023D01*
X114747619Y-76754642D01*
X114842857Y-76802261D01*
X114938095Y-76802261D01*
X115080952Y-76754642D01*
X115652380Y-76183214D01*
X115652380Y-76802261D01*
X114652380Y-77087976D02*
X115652380Y-77421309D01*
X114652380Y-77754642D01*
X113652380Y-66611785D02*
X113652380Y-66135595D01*
X112652380Y-66135595D01*
X112652380Y-67135595D02*
X112652380Y-67326071D01*
X112700000Y-67421309D01*
X112795238Y-67516547D01*
X112985714Y-67564166D01*
X113319047Y-67564166D01*
X113509523Y-67516547D01*
X113604761Y-67421309D01*
X113652380Y-67326071D01*
X113652380Y-67135595D01*
X113604761Y-67040357D01*
X113509523Y-66945119D01*
X113319047Y-66897500D01*
X112985714Y-66897500D01*
X112795238Y-66945119D01*
X112700000Y-67040357D01*
X112652380Y-67135595D01*
X113557142Y-68564166D02*
X113604761Y-68516547D01*
X113652380Y-68373690D01*
X113652380Y-68278452D01*
X113604761Y-68135595D01*
X113509523Y-68040357D01*
X113414285Y-67992738D01*
X113223809Y-67945119D01*
X113080952Y-67945119D01*
X112890476Y-67992738D01*
X112795238Y-68040357D01*
X112700000Y-68135595D01*
X112652380Y-68278452D01*
X112652380Y-68373690D01*
X112700000Y-68516547D01*
X112747619Y-68564166D01*
X113652380Y-68992738D02*
X112652380Y-68992738D01*
X113652380Y-69564166D02*
X113080952Y-69135595D01*
X112652380Y-69564166D02*
X113223809Y-68992738D01*
X113652380Y-71230833D02*
X113652380Y-70754642D01*
X112652380Y-70754642D01*
X113366666Y-71516547D02*
X113366666Y-71992738D01*
X113652380Y-71421309D02*
X112652380Y-71754642D01*
X113652380Y-72087976D01*
X113652380Y-72421309D02*
X112652380Y-72421309D01*
X113366666Y-72754642D01*
X112652380Y-73087976D01*
X113652380Y-73087976D01*
X113652380Y-73564166D02*
X112652380Y-73564166D01*
X112652380Y-73945119D01*
X112700000Y-74040357D01*
X112747619Y-74087976D01*
X112842857Y-74135595D01*
X112985714Y-74135595D01*
X113080952Y-74087976D01*
X113128571Y-74040357D01*
X113176190Y-73945119D01*
X113176190Y-73564166D01*
X112652380Y-75516547D02*
X112652380Y-75707023D01*
X112700000Y-75802261D01*
X112795238Y-75897500D01*
X112985714Y-75945119D01*
X113319047Y-75945119D01*
X113509523Y-75897500D01*
X113604761Y-75802261D01*
X113652380Y-75707023D01*
X113652380Y-75516547D01*
X113604761Y-75421309D01*
X113509523Y-75326071D01*
X113319047Y-75278452D01*
X112985714Y-75278452D01*
X112795238Y-75326071D01*
X112700000Y-75421309D01*
X112652380Y-75516547D01*
X112652380Y-76373690D02*
X113461904Y-76373690D01*
X113557142Y-76421309D01*
X113604761Y-76468928D01*
X113652380Y-76564166D01*
X113652380Y-76754642D01*
X113604761Y-76849880D01*
X113557142Y-76897500D01*
X113461904Y-76945119D01*
X112652380Y-76945119D01*
X112652380Y-77278452D02*
X112652380Y-77849880D01*
X113652380Y-77564166D02*
X112652380Y-77564166D01*
X109128571Y-66468928D02*
X109176190Y-66611785D01*
X109223809Y-66659404D01*
X109319047Y-66707023D01*
X109461904Y-66707023D01*
X109557142Y-66659404D01*
X109604761Y-66611785D01*
X109652380Y-66516547D01*
X109652380Y-66135595D01*
X108652380Y-66135595D01*
X108652380Y-66468928D01*
X108700000Y-66564166D01*
X108747619Y-66611785D01*
X108842857Y-66659404D01*
X108938095Y-66659404D01*
X109033333Y-66611785D01*
X109080952Y-66564166D01*
X109128571Y-66468928D01*
X109128571Y-66135595D01*
X108652380Y-67135595D02*
X109461904Y-67135595D01*
X109557142Y-67183214D01*
X109604761Y-67230833D01*
X109652380Y-67326071D01*
X109652380Y-67516547D01*
X109604761Y-67611785D01*
X109557142Y-67659404D01*
X109461904Y-67707023D01*
X108652380Y-67707023D01*
X108652380Y-68087976D02*
X108652380Y-68754642D01*
X109652380Y-68087976D01*
X109652380Y-68754642D01*
X108652380Y-69040357D02*
X108652380Y-69707023D01*
X109652380Y-69040357D01*
X109652380Y-69707023D01*
X109128571Y-70087976D02*
X109128571Y-70421309D01*
X109652380Y-70564166D02*
X109652380Y-70087976D01*
X108652380Y-70087976D01*
X108652380Y-70564166D01*
X109652380Y-71564166D02*
X109176190Y-71230833D01*
X109652380Y-70992738D02*
X108652380Y-70992738D01*
X108652380Y-71373690D01*
X108700000Y-71468928D01*
X108747619Y-71516547D01*
X108842857Y-71564166D01*
X108985714Y-71564166D01*
X109080952Y-71516547D01*
X109128571Y-71468928D01*
X109176190Y-71373690D01*
X109176190Y-70992738D01*
X109652380Y-73278452D02*
X109652380Y-72707023D01*
X109652380Y-72992738D02*
X108652380Y-72992738D01*
X108795238Y-72897500D01*
X108890476Y-72802261D01*
X108938095Y-72707023D01*
X108747619Y-73659404D02*
X108700000Y-73707023D01*
X108652380Y-73802261D01*
X108652380Y-74040357D01*
X108700000Y-74135595D01*
X108747619Y-74183214D01*
X108842857Y-74230833D01*
X108938095Y-74230833D01*
X109080952Y-74183214D01*
X109652380Y-73611785D01*
X109652380Y-74230833D01*
X108652380Y-74516547D02*
X109652380Y-74849880D01*
X108652380Y-75183214D01*
X104528571Y-66468928D02*
X104576190Y-66611785D01*
X104623809Y-66659404D01*
X104719047Y-66707023D01*
X104861904Y-66707023D01*
X104957142Y-66659404D01*
X105004761Y-66611785D01*
X105052380Y-66516547D01*
X105052380Y-66135595D01*
X104052380Y-66135595D01*
X104052380Y-66468928D01*
X104100000Y-66564166D01*
X104147619Y-66611785D01*
X104242857Y-66659404D01*
X104338095Y-66659404D01*
X104433333Y-66611785D01*
X104480952Y-66564166D01*
X104528571Y-66468928D01*
X104528571Y-66135595D01*
X104052380Y-67135595D02*
X104861904Y-67135595D01*
X104957142Y-67183214D01*
X105004761Y-67230833D01*
X105052380Y-67326071D01*
X105052380Y-67516547D01*
X105004761Y-67611785D01*
X104957142Y-67659404D01*
X104861904Y-67707023D01*
X104052380Y-67707023D01*
X104052380Y-68087976D02*
X104052380Y-68754642D01*
X105052380Y-68087976D01*
X105052380Y-68754642D01*
X104052380Y-69040357D02*
X104052380Y-69707023D01*
X105052380Y-69040357D01*
X105052380Y-69707023D01*
X104528571Y-70087976D02*
X104528571Y-70421309D01*
X105052380Y-70564166D02*
X105052380Y-70087976D01*
X104052380Y-70087976D01*
X104052380Y-70564166D01*
X105052380Y-71564166D02*
X104576190Y-71230833D01*
X105052380Y-70992738D02*
X104052380Y-70992738D01*
X104052380Y-71373690D01*
X104100000Y-71468928D01*
X104147619Y-71516547D01*
X104242857Y-71564166D01*
X104385714Y-71564166D01*
X104480952Y-71516547D01*
X104528571Y-71468928D01*
X104576190Y-71373690D01*
X104576190Y-70992738D01*
X104052380Y-72945119D02*
X104052380Y-73135595D01*
X104100000Y-73230833D01*
X104195238Y-73326071D01*
X104385714Y-73373690D01*
X104719047Y-73373690D01*
X104909523Y-73326071D01*
X105004761Y-73230833D01*
X105052380Y-73135595D01*
X105052380Y-72945119D01*
X105004761Y-72849880D01*
X104909523Y-72754642D01*
X104719047Y-72707023D01*
X104385714Y-72707023D01*
X104195238Y-72754642D01*
X104100000Y-72849880D01*
X104052380Y-72945119D01*
X104052380Y-73802261D02*
X104861904Y-73802261D01*
X104957142Y-73849880D01*
X105004761Y-73897500D01*
X105052380Y-73992738D01*
X105052380Y-74183214D01*
X105004761Y-74278452D01*
X104957142Y-74326071D01*
X104861904Y-74373690D01*
X104052380Y-74373690D01*
X104052380Y-74707023D02*
X104052380Y-75278452D01*
X105052380Y-74992738D02*
X104052380Y-74992738D01*
X100452380Y-66611785D02*
X100452380Y-66135595D01*
X99452380Y-66135595D01*
X99452380Y-67135595D02*
X99452380Y-67326071D01*
X99500000Y-67421309D01*
X99595238Y-67516547D01*
X99785714Y-67564166D01*
X100119047Y-67564166D01*
X100309523Y-67516547D01*
X100404761Y-67421309D01*
X100452380Y-67326071D01*
X100452380Y-67135595D01*
X100404761Y-67040357D01*
X100309523Y-66945119D01*
X100119047Y-66897500D01*
X99785714Y-66897500D01*
X99595238Y-66945119D01*
X99500000Y-67040357D01*
X99452380Y-67135595D01*
X99452380Y-67897500D02*
X100452380Y-68135595D01*
X99738095Y-68326071D01*
X100452380Y-68516547D01*
X99452380Y-68754642D01*
X99452380Y-70087976D02*
X99452380Y-70278452D01*
X99500000Y-70373690D01*
X99595238Y-70468928D01*
X99785714Y-70516547D01*
X100119047Y-70516547D01*
X100309523Y-70468928D01*
X100404761Y-70373690D01*
X100452380Y-70278452D01*
X100452380Y-70087976D01*
X100404761Y-69992738D01*
X100309523Y-69897500D01*
X100119047Y-69849880D01*
X99785714Y-69849880D01*
X99595238Y-69897500D01*
X99500000Y-69992738D01*
X99452380Y-70087976D01*
X100452380Y-70945119D02*
X99452380Y-70945119D01*
X100452380Y-71897500D02*
X100452380Y-71421309D01*
X99452380Y-71421309D01*
X100404761Y-72945119D02*
X100452380Y-73087976D01*
X100452380Y-73326071D01*
X100404761Y-73421309D01*
X100357142Y-73468928D01*
X100261904Y-73516547D01*
X100166666Y-73516547D01*
X100071428Y-73468928D01*
X100023809Y-73421309D01*
X99976190Y-73326071D01*
X99928571Y-73135595D01*
X99880952Y-73040357D01*
X99833333Y-72992738D01*
X99738095Y-72945119D01*
X99642857Y-72945119D01*
X99547619Y-72992738D01*
X99500000Y-73040357D01*
X99452380Y-73135595D01*
X99452380Y-73373690D01*
X99500000Y-73516547D01*
X100452380Y-73945119D02*
X99452380Y-73945119D01*
X99500000Y-74945119D02*
X99452380Y-74849880D01*
X99452380Y-74707023D01*
X99500000Y-74564166D01*
X99595238Y-74468928D01*
X99690476Y-74421309D01*
X99880952Y-74373690D01*
X100023809Y-74373690D01*
X100214285Y-74421309D01*
X100309523Y-74468928D01*
X100404761Y-74564166D01*
X100452380Y-74707023D01*
X100452380Y-74802261D01*
X100404761Y-74945119D01*
X100357142Y-74992738D01*
X100023809Y-74992738D01*
X100023809Y-74802261D01*
X98052380Y-66659404D02*
X98052380Y-66087976D01*
X98052380Y-66373690D02*
X97052380Y-66373690D01*
X97195238Y-66278452D01*
X97290476Y-66183214D01*
X97338095Y-66087976D01*
X97147619Y-67040357D02*
X97100000Y-67087976D01*
X97052380Y-67183214D01*
X97052380Y-67421309D01*
X97100000Y-67516547D01*
X97147619Y-67564166D01*
X97242857Y-67611785D01*
X97338095Y-67611785D01*
X97480952Y-67564166D01*
X98052380Y-66992738D01*
X98052380Y-67611785D01*
X97052380Y-67897500D02*
X98052380Y-68230833D01*
X97052380Y-68564166D01*
X93700000Y-66659404D02*
X93652380Y-66564166D01*
X93652380Y-66421309D01*
X93700000Y-66278452D01*
X93795238Y-66183214D01*
X93890476Y-66135595D01*
X94080952Y-66087976D01*
X94223809Y-66087976D01*
X94414285Y-66135595D01*
X94509523Y-66183214D01*
X94604761Y-66278452D01*
X94652380Y-66421309D01*
X94652380Y-66516547D01*
X94604761Y-66659404D01*
X94557142Y-66707023D01*
X94223809Y-66707023D01*
X94223809Y-66516547D01*
X94652380Y-67135595D02*
X93652380Y-67135595D01*
X94652380Y-67707023D01*
X93652380Y-67707023D01*
X94652380Y-68183214D02*
X93652380Y-68183214D01*
X93652380Y-68421309D01*
X93700000Y-68564166D01*
X93795238Y-68659404D01*
X93890476Y-68707023D01*
X94080952Y-68754642D01*
X94223809Y-68754642D01*
X94414285Y-68707023D01*
X94509523Y-68659404D01*
X94604761Y-68564166D01*
X94652380Y-68421309D01*
X94652380Y-68183214D01*
D11*
X114342857Y-112695238D02*
X114200000Y-112600000D01*
X113914285Y-112504761D01*
X113200000Y-112504761D01*
X112914285Y-112600000D01*
X112771428Y-112695238D01*
X112628571Y-112885714D01*
X112628571Y-113076190D01*
X112771428Y-113361904D01*
X114485714Y-114504761D01*
X112628571Y-114504761D01*
X110771428Y-112504761D02*
X110485714Y-112504761D01*
X110200000Y-112600000D01*
X110057142Y-112695238D01*
X109914285Y-112885714D01*
X109771428Y-113266666D01*
X109771428Y-113742857D01*
X109914285Y-114123809D01*
X110057142Y-114314285D01*
X110200000Y-114409523D01*
X110485714Y-114504761D01*
X110771428Y-114504761D01*
X111057142Y-114409523D01*
X111200000Y-114314285D01*
X111342857Y-114123809D01*
X111485714Y-113742857D01*
X111485714Y-113266666D01*
X111342857Y-112885714D01*
X111200000Y-112695238D01*
X111057142Y-112600000D01*
X110771428Y-112504761D01*
X108628571Y-112695238D02*
X108485714Y-112600000D01*
X108200000Y-112504761D01*
X107485714Y-112504761D01*
X107200000Y-112600000D01*
X107057142Y-112695238D01*
X106914285Y-112885714D01*
X106914285Y-113076190D01*
X107057142Y-113361904D01*
X108771428Y-114504761D01*
X106914285Y-114504761D01*
X104342857Y-113171428D02*
X104342857Y-114504761D01*
X105057142Y-112409523D02*
X105771428Y-113838095D01*
X103914285Y-113838095D01*
D10*
X97000000Y-102047380D02*
X96809523Y-102047380D01*
X96714285Y-102095000D01*
X96619047Y-102190238D01*
X96571428Y-102380714D01*
X96571428Y-102714047D01*
X96619047Y-102904523D01*
X96714285Y-102999761D01*
X96809523Y-103047380D01*
X97000000Y-103047380D01*
X97095238Y-102999761D01*
X97190476Y-102904523D01*
X97238095Y-102714047D01*
X97238095Y-102380714D01*
X97190476Y-102190238D01*
X97095238Y-102095000D01*
X97000000Y-102047380D01*
X96142857Y-103047380D02*
X96142857Y-102047380D01*
X95190476Y-103047380D02*
X95666666Y-103047380D01*
X95666666Y-102047380D01*
X93619047Y-103047380D02*
X94095238Y-103047380D01*
X94095238Y-102047380D01*
X93333333Y-102761666D02*
X92857142Y-102761666D01*
X93428571Y-103047380D02*
X93095238Y-102047380D01*
X92761904Y-103047380D01*
X92428571Y-103047380D02*
X92428571Y-102047380D01*
X92095238Y-102761666D01*
X91761904Y-102047380D01*
X91761904Y-103047380D01*
X91285714Y-103047380D02*
X91285714Y-102047380D01*
X90904761Y-102047380D01*
X90809523Y-102095000D01*
X90761904Y-102142619D01*
X90714285Y-102237857D01*
X90714285Y-102380714D01*
X90761904Y-102475952D01*
X90809523Y-102523571D01*
X90904761Y-102571190D01*
X91285714Y-102571190D01*
X89571428Y-102999761D02*
X89428571Y-103047380D01*
X89190476Y-103047380D01*
X89095238Y-102999761D01*
X89047619Y-102952142D01*
X89000000Y-102856904D01*
X89000000Y-102761666D01*
X89047619Y-102666428D01*
X89095238Y-102618809D01*
X89190476Y-102571190D01*
X89380952Y-102523571D01*
X89476190Y-102475952D01*
X89523809Y-102428333D01*
X89571428Y-102333095D01*
X89571428Y-102237857D01*
X89523809Y-102142619D01*
X89476190Y-102095000D01*
X89380952Y-102047380D01*
X89142857Y-102047380D01*
X89000000Y-102095000D01*
X88619047Y-102761666D02*
X88142857Y-102761666D01*
X88714285Y-103047380D02*
X88380952Y-102047380D01*
X88047619Y-103047380D01*
X87380952Y-102523571D02*
X87714285Y-102523571D01*
X87714285Y-103047380D02*
X87714285Y-102047380D01*
X87238095Y-102047380D01*
X86857142Y-102523571D02*
X86523809Y-102523571D01*
X86380952Y-103047380D02*
X86857142Y-103047380D01*
X86857142Y-102047380D01*
X86380952Y-102047380D01*
X86095238Y-102047380D02*
X85523809Y-102047380D01*
X85809523Y-103047380D02*
X85809523Y-102047380D01*
X85000000Y-102571190D02*
X85000000Y-103047380D01*
X85333333Y-102047380D02*
X85000000Y-102571190D01*
X84666666Y-102047380D01*
X92523809Y-103657380D02*
X92190476Y-104657380D01*
X91857142Y-103657380D01*
X91333333Y-103657380D02*
X91238095Y-103657380D01*
X91142857Y-103705000D01*
X91095238Y-103752619D01*
X91047619Y-103847857D01*
X91000000Y-104038333D01*
X91000000Y-104276428D01*
X91047619Y-104466904D01*
X91095238Y-104562142D01*
X91142857Y-104609761D01*
X91238095Y-104657380D01*
X91333333Y-104657380D01*
X91428571Y-104609761D01*
X91476190Y-104562142D01*
X91523809Y-104466904D01*
X91571428Y-104276428D01*
X91571428Y-104038333D01*
X91523809Y-103847857D01*
X91476190Y-103752619D01*
X91428571Y-103705000D01*
X91333333Y-103657380D01*
X90571428Y-104562142D02*
X90523809Y-104609761D01*
X90571428Y-104657380D01*
X90619047Y-104609761D01*
X90571428Y-104562142D01*
X90571428Y-104657380D01*
X89571428Y-104657380D02*
X90142857Y-104657380D01*
X89857142Y-104657380D02*
X89857142Y-103657380D01*
X89952380Y-103800238D01*
X90047619Y-103895476D01*
X90142857Y-103943095D01*
D11*
X119414285Y-96104761D02*
X119414285Y-94104761D01*
X118700000Y-94104761D01*
X118271428Y-94200000D01*
X117985714Y-94390476D01*
X117842857Y-94580952D01*
X117699999Y-94961904D01*
X117699999Y-95247619D01*
X117842857Y-95628571D01*
X117985714Y-95819047D01*
X118271428Y-96009523D01*
X118700000Y-96104761D01*
X119414285Y-96104761D01*
X116557142Y-95533333D02*
X115128571Y-95533333D01*
X116842857Y-96104761D02*
X115842857Y-94104761D01*
X114842857Y-96104761D01*
X113842857Y-96104761D02*
X113842857Y-94104761D01*
X113128571Y-94104761D01*
X112699999Y-94200000D01*
X112414285Y-94390476D01*
X112271428Y-94580952D01*
X112128571Y-94961904D01*
X112128571Y-95247619D01*
X112271428Y-95628571D01*
X112414285Y-95819047D01*
X112699999Y-96009523D01*
X113128571Y-96104761D01*
X113842857Y-96104761D01*
X109842857Y-95057142D02*
X109414285Y-95152380D01*
X109271428Y-95247619D01*
X109128571Y-95438095D01*
X109128571Y-95723809D01*
X109271428Y-95914285D01*
X109414285Y-96009523D01*
X109699999Y-96104761D01*
X110842857Y-96104761D01*
X110842857Y-94104761D01*
X109842857Y-94104761D01*
X109557142Y-94200000D01*
X109414285Y-94295238D01*
X109271428Y-94485714D01*
X109271428Y-94676190D01*
X109414285Y-94866666D01*
X109557142Y-94961904D01*
X109842857Y-95057142D01*
X110842857Y-95057142D01*
X107271428Y-94104761D02*
X106699999Y-94104761D01*
X106414285Y-94200000D01*
X106128571Y-94390476D01*
X105985714Y-94771428D01*
X105985714Y-95438095D01*
X106128571Y-95819047D01*
X106414285Y-96009523D01*
X106699999Y-96104761D01*
X107271428Y-96104761D01*
X107557142Y-96009523D01*
X107842857Y-95819047D01*
X107985714Y-95438095D01*
X107985714Y-94771428D01*
X107842857Y-94390476D01*
X107557142Y-94200000D01*
X107271428Y-94104761D01*
X104700000Y-96104761D02*
X104700000Y-94104761D01*
X103985714Y-94104761D01*
X103557142Y-94200000D01*
X103271428Y-94390476D01*
X103128571Y-94580952D01*
X102985714Y-94961904D01*
X102985714Y-95247619D01*
X103128571Y-95628571D01*
X103271428Y-95819047D01*
X103557142Y-96009523D01*
X103985714Y-96104761D01*
X104700000Y-96104761D01*
X99985714Y-95914285D02*
X100128571Y-96009523D01*
X100557142Y-96104761D01*
X100842857Y-96104761D01*
X101271428Y-96009523D01*
X101557142Y-95819047D01*
X101700000Y-95628571D01*
X101842857Y-95247619D01*
X101842857Y-94961904D01*
X101700000Y-94580952D01*
X101557142Y-94390476D01*
X101271428Y-94200000D01*
X100842857Y-94104761D01*
X100557142Y-94104761D01*
X100128571Y-94200000D01*
X99985714Y-94295238D01*
X98842857Y-95533333D02*
X97414285Y-95533333D01*
X99128571Y-96104761D02*
X98128571Y-94104761D01*
X97128571Y-96104761D01*
X94414285Y-96104761D02*
X95414285Y-95152380D01*
X96128571Y-96104761D02*
X96128571Y-94104761D01*
X94985714Y-94104761D01*
X94700000Y-94200000D01*
X94557142Y-94295238D01*
X94414285Y-94485714D01*
X94414285Y-94771428D01*
X94557142Y-94961904D01*
X94700000Y-95057142D01*
X94985714Y-95152380D01*
X96128571Y-95152380D01*
X93128571Y-96104761D02*
X93128571Y-94104761D01*
X92128571Y-95533333D01*
X91128571Y-94104761D01*
X91128571Y-96104761D01*
X89128571Y-94104761D02*
X88557142Y-94104761D01*
X88271428Y-94200000D01*
X87985714Y-94390476D01*
X87842857Y-94771428D01*
X87842857Y-95438095D01*
X87985714Y-95819047D01*
X88271428Y-96009523D01*
X88557142Y-96104761D01*
X89128571Y-96104761D01*
X89414285Y-96009523D01*
X89700000Y-95819047D01*
X89842857Y-95438095D01*
X89842857Y-94771428D01*
X89700000Y-94390476D01*
X89414285Y-94200000D01*
X89128571Y-94104761D01*
X86557142Y-96104761D02*
X86557142Y-94104761D01*
X85842857Y-94104761D01*
X85414285Y-94200000D01*
X85128571Y-94390476D01*
X84985714Y-94580952D01*
X84842857Y-94961904D01*
X84842857Y-95247619D01*
X84985714Y-95628571D01*
X85128571Y-95819047D01*
X85414285Y-96009523D01*
X85842857Y-96104761D01*
X86557142Y-96104761D01*
M02*
