%TF.GenerationSoftware,KiCad,Pcbnew,8.0.4*%
%TF.CreationDate,2024-08-13T22:42:24-06:00*%
%TF.ProjectId,oil-lamp-safety,6f696c2d-6c61-46d7-902d-736166657479,v0.2*%
%TF.SameCoordinates,Original*%
%TF.FileFunction,Soldermask,Bot*%
%TF.FilePolarity,Negative*%
%FSLAX46Y46*%
G04 Gerber Fmt 4.6, Leading zero omitted, Abs format (unit mm)*
G04 Created by KiCad (PCBNEW 8.0.4) date 2024-08-13 22:42:24*
%MOMM*%
%LPD*%
G01*
G04 APERTURE LIST*
G04 Aperture macros list*
%AMFreePoly0*
4,1,19,0.550000,-0.750000,0.000000,-0.750000,0.000000,-0.744911,-0.071157,-0.744911,-0.207708,-0.704816,-0.327430,-0.627875,-0.420627,-0.520320,-0.479746,-0.390866,-0.500000,-0.250000,-0.500000,0.250000,-0.479746,0.390866,-0.420627,0.520320,-0.327430,0.627875,-0.207708,0.704816,-0.071157,0.744911,0.000000,0.744911,0.000000,0.750000,0.550000,0.750000,0.550000,-0.750000,0.550000,-0.750000,
$1*%
%AMFreePoly1*
4,1,19,0.000000,0.744911,0.071157,0.744911,0.207708,0.704816,0.327430,0.627875,0.420627,0.520320,0.479746,0.390866,0.500000,0.250000,0.500000,-0.250000,0.479746,-0.390866,0.420627,-0.520320,0.327430,-0.627875,0.207708,-0.704816,0.071157,-0.744911,0.000000,-0.744911,0.000000,-0.750000,-0.550000,-0.750000,-0.550000,0.750000,0.000000,0.750000,0.000000,0.744911,0.000000,0.744911,
$1*%
G04 Aperture macros list end*
%ADD10C,10.600000*%
%ADD11R,2.000000X1.905000*%
%ADD12O,2.000000X1.905000*%
%ADD13FreePoly0,270.000000*%
%ADD14R,1.500000X1.000000*%
%ADD15FreePoly1,270.000000*%
%ADD16R,2.200000X2.200000*%
%ADD17O,2.200000X2.200000*%
%ADD18R,1.600000X1.600000*%
%ADD19O,1.600000X1.600000*%
%ADD20C,1.600000*%
%ADD21R,1.800000X1.800000*%
%ADD22C,1.800000*%
%ADD23O,2.400000X1.600000*%
%ADD24R,2.400000X1.600000*%
%ADD25C,2.000000*%
%ADD26R,2.000000X2.000000*%
%ADD27R,2.400000X2.400000*%
%ADD28C,2.400000*%
G04 APERTURE END LIST*
D10*
%TO.C,H2*%
X119200000Y-119200000D03*
%TD*%
%TO.C,H1*%
X85800000Y-65800000D03*
%TD*%
D11*
%TO.C,Q3*%
X123000000Y-86540000D03*
D12*
X123000000Y-84000000D03*
X123000000Y-81460000D03*
%TD*%
D11*
%TO.C,Q2*%
X112800000Y-86600000D03*
D12*
X112800000Y-84060000D03*
X112800000Y-81520000D03*
%TD*%
D11*
%TO.C,Q1*%
X103000000Y-86480000D03*
D12*
X103000000Y-83940000D03*
X103000000Y-81400000D03*
%TD*%
D13*
%TO.C,JP1*%
X94400000Y-91700000D03*
D14*
X94400000Y-93000000D03*
D15*
X94400000Y-94300000D03*
%TD*%
D16*
%TO.C,D7*%
X117400000Y-83150000D03*
D17*
X117400000Y-70450000D03*
%TD*%
D16*
%TO.C,D6*%
X107200000Y-83350000D03*
D17*
X107200000Y-70650000D03*
%TD*%
D16*
%TO.C,D5*%
X97400000Y-83350000D03*
D17*
X97400000Y-70650000D03*
%TD*%
D18*
%TO.C,D1*%
X86400000Y-119000000D03*
D19*
X86400000Y-106300000D03*
%TD*%
D20*
%TO.C,R3*%
X82800000Y-106300000D03*
D19*
X82800000Y-119000000D03*
%TD*%
D21*
%TO.C,D2*%
X121275000Y-110000000D03*
D22*
X118735000Y-110000000D03*
%TD*%
D20*
%TO.C,R6*%
X112000000Y-103750000D03*
D19*
X112000000Y-91050000D03*
%TD*%
D21*
%TO.C,D3*%
X110875000Y-110000000D03*
D22*
X108335000Y-110000000D03*
%TD*%
D20*
%TO.C,R9*%
X107200000Y-98950000D03*
D19*
X107200000Y-86250000D03*
%TD*%
D23*
%TO.C,U1*%
X91800000Y-87900000D03*
X91800000Y-90440000D03*
X91800000Y-92980000D03*
X91800000Y-95520000D03*
X91800000Y-98060000D03*
X91800000Y-100600000D03*
X91800000Y-103140000D03*
X84180000Y-103140000D03*
X84180000Y-100600000D03*
X84180000Y-98060000D03*
X84180000Y-95520000D03*
X84180000Y-92980000D03*
X84180000Y-90440000D03*
D24*
X84180000Y-87900000D03*
%TD*%
D25*
%TO.C,FB1*%
X93200000Y-79900000D03*
X93200000Y-70900000D03*
%TD*%
D20*
%TO.C,R1*%
X94400000Y-84200000D03*
D19*
X81700000Y-84200000D03*
%TD*%
D20*
%TO.C,R10*%
X117400000Y-98750000D03*
D19*
X117400000Y-86050000D03*
%TD*%
D20*
%TO.C,R5*%
X90000000Y-119000000D03*
D19*
X90000000Y-106300000D03*
%TD*%
D20*
%TO.C,R4*%
X122000000Y-103750000D03*
D19*
X122000000Y-91050000D03*
%TD*%
D20*
%TO.C,R8*%
X97400000Y-98950000D03*
D19*
X97400000Y-86250000D03*
%TD*%
D20*
%TO.C,C5*%
X111400000Y-75700000D03*
X111400000Y-70700000D03*
%TD*%
%TO.C,R2*%
X94200000Y-119000000D03*
D19*
X94200000Y-106300000D03*
%TD*%
D20*
%TO.C,R7*%
X102000000Y-103750000D03*
D19*
X102000000Y-91050000D03*
%TD*%
D18*
%TO.C,C1*%
X87400000Y-78600000D03*
D20*
X84900000Y-78600000D03*
%TD*%
D21*
%TO.C,D4*%
X101075000Y-110000000D03*
D22*
X98535000Y-110000000D03*
%TD*%
D26*
%TO.C,C2*%
X102200000Y-116600000D03*
D25*
X102200000Y-121600000D03*
%TD*%
D20*
%TO.C,C4*%
X101600000Y-75700000D03*
X101600000Y-70700000D03*
%TD*%
D27*
%TO.C,J1*%
X94200000Y-64100000D03*
D28*
X97700000Y-64100000D03*
X101200000Y-64100000D03*
X104700000Y-64100000D03*
X108200000Y-64100000D03*
X111700000Y-64100000D03*
X115200000Y-64100000D03*
X118700000Y-64100000D03*
X122200000Y-64100000D03*
%TD*%
D20*
%TO.C,C3*%
X88500000Y-73200000D03*
X83500000Y-73200000D03*
%TD*%
%TO.C,C6*%
X121600000Y-75500000D03*
X121600000Y-70500000D03*
%TD*%
M02*
