M48
; DRILL file {KiCad (6.0.5)} date Thu Aug  8 10:41:34 2024
; FORMAT={-:-/ absolute / inch / decimal}
; #@! TF.CreationDate,2024-08-08T10:41:34-06:00
; #@! TF.GenerationSoftware,Kicad,Pcbnew,(6.0.5)
; #@! TF.FileFunction,Plated,1,2,PTH
FMAT,2
INCH
; #@! TA.AperFunction,Plated,PTH,ViaDrill
T1C0.0157
; #@! TA.AperFunction,Plated,PTH,ComponentDrill
T2C0.0315
; #@! TA.AperFunction,Plated,PTH,ComponentDrill
T3C0.0354
; #@! TA.AperFunction,Plated,PTH,ComponentDrill
T4C0.0394
; #@! TA.AperFunction,Plated,PTH,ComponentDrill
T5C0.0433
; #@! TA.AperFunction,Plated,PTH,ComponentDrill
T6C0.0472
; #@! TA.AperFunction,Plated,PTH,ComponentDrill
T7C0.2087
%
G90
G05
T1
X3.8898Y-4.4803
X3.8898Y-4.6378
T2
X3.2146Y-3.3228
X3.2146Y-3.4724
X3.2146Y-3.6299
X3.2874Y-2.874
X3.2982Y-4.2274
X3.2982Y-4.3274
X3.2982Y-4.4274
X3.2982Y-4.5274
X3.2982Y-4.6274
X3.2982Y-4.7274
X3.2982Y-4.8274
X3.3425Y-3.0945
X3.4409Y-3.0945
X3.4843Y-2.874
X3.5982Y-4.2274
X3.5982Y-4.3274
X3.5982Y-4.4274
X3.5982Y-4.5274
X3.5982Y-4.6274
X3.5982Y-4.7274
X3.5982Y-4.8274
X3.7146Y-3.3228
X3.7146Y-3.4724
X3.7146Y-3.6299
X3.7579Y-4.622
X3.7579Y-4.7795
X3.8346Y-3.3957
X3.8346Y-3.8957
X4.0Y-2.7835
X4.0Y-2.9803
X4.0157Y-3.5846
X4.0157Y-4.0846
X4.2205Y-3.3957
X4.2205Y-3.8957
X4.2579Y-4.622
X4.2579Y-4.7795
X4.3858Y-2.7835
X4.3858Y-2.9803
X4.4094Y-3.5846
X4.4094Y-4.0846
X4.622Y-3.3878
X4.622Y-3.8878
X4.7874Y-2.7756
X4.7874Y-2.9724
X4.8031Y-3.5846
X4.8031Y-4.0846
T3
X3.8528Y-4.3307
X3.9528Y-4.3307
X4.2652Y-4.3307
X4.3652Y-4.3307
X4.6746Y-4.3307
X4.7746Y-4.3307
T4
X3.3556Y-3.937
X3.5525Y-3.937
X3.6457Y-2.7756
X3.6457Y-3.1299
T5
X3.8346Y-2.7815
X3.8346Y-3.2815
X4.053Y-3.2071
X4.053Y-3.3071
X4.053Y-3.4071
X4.2205Y-2.7815
X4.2205Y-3.2815
X4.4388Y-3.2094
X4.4388Y-3.3094
X4.4388Y-3.4094
X4.622Y-2.7736
X4.622Y-3.2736
X4.8404Y-3.2071
X4.8404Y-3.3071
X4.8404Y-3.4071
T6
X3.7087Y-2.5236
X3.8465Y-2.5236
X3.9843Y-2.5236
X4.122Y-2.5236
X4.2598Y-2.5236
X4.3976Y-2.5236
X4.5354Y-2.5236
X4.6732Y-2.5236
X4.811Y-2.5236
T7
X3.3622Y-2.5748
X4.7087Y-4.7087
T0
M30
