%TF.GenerationSoftware,KiCad,Pcbnew,(6.0.5)*%
%TF.CreationDate,2024-08-08T10:41:33-06:00*%
%TF.ProjectId,oil-lamp-safety,6f696c2d-6c61-46d7-902d-736166657479,v0.1*%
%TF.SameCoordinates,Original*%
%TF.FileFunction,Copper,L2,Bot*%
%TF.FilePolarity,Positive*%
%FSLAX46Y46*%
G04 Gerber Fmt 4.6, Leading zero omitted, Abs format (unit mm)*
G04 Created by KiCad (PCBNEW (6.0.5)) date 2024-08-08 10:41:33*
%MOMM*%
%LPD*%
G01*
G04 APERTURE LIST*
%TA.AperFunction,ComponentPad*%
%ADD10C,9.500000*%
%TD*%
%TA.AperFunction,ComponentPad*%
%ADD11R,1.800000X1.800000*%
%TD*%
%TA.AperFunction,ComponentPad*%
%ADD12C,1.800000*%
%TD*%
%TA.AperFunction,ComponentPad*%
%ADD13R,2.400000X1.600000*%
%TD*%
%TA.AperFunction,ComponentPad*%
%ADD14O,2.400000X1.600000*%
%TD*%
%TA.AperFunction,ComponentPad*%
%ADD15O,1.600000X1.600000*%
%TD*%
%TA.AperFunction,ComponentPad*%
%ADD16C,1.600000*%
%TD*%
%TA.AperFunction,ComponentPad*%
%ADD17R,2.000000X1.905000*%
%TD*%
%TA.AperFunction,ComponentPad*%
%ADD18O,2.000000X1.905000*%
%TD*%
%TA.AperFunction,ComponentPad*%
%ADD19R,2.400000X2.400000*%
%TD*%
%TA.AperFunction,ComponentPad*%
%ADD20C,2.400000*%
%TD*%
%TA.AperFunction,ComponentPad*%
%ADD21C,2.000000*%
%TD*%
%TA.AperFunction,ComponentPad*%
%ADD22R,2.200000X2.200000*%
%TD*%
%TA.AperFunction,ComponentPad*%
%ADD23O,2.200000X2.200000*%
%TD*%
%TA.AperFunction,ComponentPad*%
%ADD24R,1.600000X1.600000*%
%TD*%
%TA.AperFunction,ComponentPad*%
%ADD25R,2.000000X2.000000*%
%TD*%
%TA.AperFunction,ViaPad*%
%ADD26C,1.500000*%
%TD*%
%TA.AperFunction,Conductor*%
%ADD27C,1.000000*%
%TD*%
%TA.AperFunction,Conductor*%
%ADD28C,0.500000*%
%TD*%
G04 APERTURE END LIST*
D10*
%TO.P,REF\u002A\u002A,1*%
%TO.N,12V_GND*%
X119600000Y-119600000D03*
%TD*%
%TO.P,REF\u002A\u002A,1*%
%TO.N,12V_GND*%
X85400000Y-65400000D03*
%TD*%
D11*
%TO.P,D4,1,K*%
%TO.N,Net-(D4-Pad1)*%
X100400000Y-110000000D03*
D12*
%TO.P,D4,2,A*%
%TO.N,OIL_LOW*%
X97860000Y-110000000D03*
%TD*%
D11*
%TO.P,D3,1,K*%
%TO.N,Net-(D3-Pad1)*%
X110875000Y-110000000D03*
D12*
%TO.P,D3,2,A*%
%TO.N,LOCKOUT*%
X108335000Y-110000000D03*
%TD*%
D11*
%TO.P,D2,1,K*%
%TO.N,Net-(D2-Pad1)*%
X121275000Y-110000000D03*
D12*
%TO.P,D2,2,A*%
%TO.N,RUN*%
X118735000Y-110000000D03*
%TD*%
D13*
%TO.P,U1,1*%
%TO.N,Net-(C2-Pad1)*%
X83775000Y-107375000D03*
D14*
%TO.P,U1,2*%
%TO.N,RUN*%
X83775000Y-109915000D03*
%TO.P,U1,3*%
%TO.N,LOCKOUT*%
X83775000Y-112455000D03*
%TO.P,U1,4*%
%TO.N,RUN*%
X83775000Y-114995000D03*
%TO.P,U1,5*%
%TO.N,LOCKOUT*%
X83775000Y-117535000D03*
%TO.P,U1,6*%
X83775000Y-120075000D03*
%TO.P,U1,7,GND*%
%TO.N,12V_GND*%
X83775000Y-122615000D03*
%TO.P,U1,8*%
%TO.N,Net-(C2-Pad1)*%
X91395000Y-122615000D03*
%TO.P,U1,9*%
X91395000Y-120075000D03*
%TO.P,U1,10*%
%TO.N,OIL_LOW*%
X91395000Y-117535000D03*
%TO.P,U1,11*%
%TO.N,unconnected-(U1-Pad11)*%
X91395000Y-114995000D03*
%TO.P,U1,12*%
%TO.N,12V_GND*%
X91395000Y-112455000D03*
%TO.P,U1,13*%
X91395000Y-109915000D03*
%TO.P,U1,14,VCC*%
%TO.N,OIL_BUZZER_OUT_12V*%
X91395000Y-107375000D03*
%TD*%
D15*
%TO.P,R10,2*%
%TO.N,Net-(Q3-Pad1)*%
X117400000Y-86050000D03*
D16*
%TO.P,R10,1*%
%TO.N,RUN*%
X117400000Y-98750000D03*
%TD*%
D15*
%TO.P,R9,2*%
%TO.N,Net-(Q2-Pad1)*%
X107200000Y-86250000D03*
D16*
%TO.P,R9,1*%
%TO.N,LOCKOUT*%
X107200000Y-98950000D03*
%TD*%
D15*
%TO.P,R8,2*%
%TO.N,Net-(Q1-Pad1)*%
X97400000Y-86250000D03*
D16*
%TO.P,R8,1*%
%TO.N,OIL_LOW*%
X97400000Y-98950000D03*
%TD*%
D15*
%TO.P,R7,2*%
%TO.N,12V_GND*%
X102000000Y-91050000D03*
D16*
%TO.P,R7,1*%
%TO.N,Net-(D4-Pad1)*%
X102000000Y-103750000D03*
%TD*%
%TO.P,R6,1*%
%TO.N,Net-(D3-Pad1)*%
X112000000Y-103750000D03*
D15*
%TO.P,R6,2*%
%TO.N,12V_GND*%
X112000000Y-91050000D03*
%TD*%
%TO.P,R5,2*%
%TO.N,12V_GND*%
X94350000Y-92200000D03*
D16*
%TO.P,R5,1*%
%TO.N,Net-(C2-Pad1)*%
X81650000Y-92200000D03*
%TD*%
%TO.P,R4,1*%
%TO.N,Net-(D2-Pad1)*%
X122000000Y-103750000D03*
D15*
%TO.P,R4,2*%
%TO.N,12V_GND*%
X122000000Y-91050000D03*
%TD*%
D16*
%TO.P,R3,1*%
%TO.N,OIL_BUZZER_OUT_12V*%
X95450000Y-121400000D03*
D15*
%TO.P,R3,2*%
%TO.N,RUN*%
X108150000Y-121400000D03*
%TD*%
D16*
%TO.P,R2,1*%
%TO.N,LOCKOUT*%
X108150000Y-117400000D03*
D15*
%TO.P,R2,2*%
%TO.N,12V_GND*%
X95450000Y-117400000D03*
%TD*%
D16*
%TO.P,R1,1*%
%TO.N,OIL_BUZZER_OUT_12V*%
X81650000Y-84400000D03*
D15*
%TO.P,R1,2*%
%TO.N,OIL_LOW_SIGNAL*%
X94350000Y-84400000D03*
%TD*%
D17*
%TO.P,Q3,1,G*%
%TO.N,Net-(Q3-Pad1)*%
X122945000Y-86540000D03*
D18*
%TO.P,Q3,2,D*%
%TO.N,RUN_RELAY_OUT_SIG*%
X122945000Y-84000000D03*
%TO.P,Q3,3,S*%
%TO.N,12V_GND*%
X122945000Y-81460000D03*
%TD*%
%TO.P,Q2,3,S*%
%TO.N,12V_GND*%
X112745000Y-81520000D03*
%TO.P,Q2,2,D*%
%TO.N,LOCKOUT_LAMP_OUT_SIG*%
X112745000Y-84060000D03*
D17*
%TO.P,Q2,1,G*%
%TO.N,Net-(Q2-Pad1)*%
X112745000Y-86600000D03*
%TD*%
D18*
%TO.P,Q1,3,S*%
%TO.N,12V_GND*%
X102945000Y-81460000D03*
%TO.P,Q1,2,D*%
%TO.N,OIL_BUZZER_OUT_SIG*%
X102945000Y-84000000D03*
D17*
%TO.P,Q1,1,G*%
%TO.N,Net-(Q1-Pad1)*%
X102945000Y-86540000D03*
%TD*%
D19*
%TO.P,J1,1,Pin_1*%
%TO.N,12V_GND*%
X94200000Y-64100000D03*
D20*
%TO.P,J1,2,Pin_2*%
%TO.N,12V_BATT*%
X97700000Y-64100000D03*
%TO.P,J1,3,Pin_3*%
%TO.N,OIL_LOW_SIGNAL*%
X101200000Y-64100000D03*
%TO.P,J1,4,Pin_4*%
%TO.N,OIL_BUZZER_OUT_SIG*%
X104700000Y-64100000D03*
%TO.P,J1,5,Pin_5*%
%TO.N,OIL_BUZZER_OUT_12V*%
X108200000Y-64100000D03*
%TO.P,J1,6,Pin_6*%
%TO.N,LOCKOUT_LAMP_OUT_SIG*%
X111700000Y-64100000D03*
%TO.P,J1,7,Pin_7*%
%TO.N,OIL_BUZZER_OUT_12V*%
X115200000Y-64100000D03*
%TO.P,J1,8,Pin_8*%
%TO.N,RUN_RELAY_OUT_SIG*%
X118700000Y-64100000D03*
%TO.P,J1,9,Pin_9*%
%TO.N,OIL_BUZZER_OUT_12V*%
X122200000Y-64100000D03*
%TD*%
D21*
%TO.P,FB1,1*%
%TO.N,12V_BATT*%
X92600000Y-70500000D03*
%TO.P,FB1,2*%
%TO.N,OIL_BUZZER_OUT_12V*%
X92600000Y-79500000D03*
%TD*%
D22*
%TO.P,D7,1,K*%
%TO.N,OIL_BUZZER_OUT_12V*%
X117400000Y-83150000D03*
D23*
%TO.P,D7,2,A*%
%TO.N,RUN_RELAY_OUT_SIG*%
X117400000Y-70450000D03*
%TD*%
%TO.P,D6,2,A*%
%TO.N,LOCKOUT_LAMP_OUT_SIG*%
X107200000Y-70650000D03*
D22*
%TO.P,D6,1,K*%
%TO.N,OIL_BUZZER_OUT_12V*%
X107200000Y-83350000D03*
%TD*%
D23*
%TO.P,D5,2,A*%
%TO.N,OIL_BUZZER_OUT_SIG*%
X97400000Y-70650000D03*
D22*
%TO.P,D5,1,K*%
%TO.N,OIL_BUZZER_OUT_12V*%
X97400000Y-83350000D03*
%TD*%
D15*
%TO.P,D1,2,A*%
%TO.N,OIL_LOW_SIGNAL*%
X94350000Y-88200000D03*
D24*
%TO.P,D1,1,K*%
%TO.N,Net-(C2-Pad1)*%
X81650000Y-88200000D03*
%TD*%
D16*
%TO.P,C6,1*%
%TO.N,OIL_BUZZER_OUT_12V*%
X121600000Y-75500000D03*
%TO.P,C6,2*%
%TO.N,RUN_RELAY_OUT_SIG*%
X121600000Y-70500000D03*
%TD*%
%TO.P,C5,2*%
%TO.N,LOCKOUT_LAMP_OUT_SIG*%
X111400000Y-70700000D03*
%TO.P,C5,1*%
%TO.N,OIL_BUZZER_OUT_12V*%
X111400000Y-75700000D03*
%TD*%
%TO.P,C4,2*%
%TO.N,OIL_BUZZER_OUT_SIG*%
X101600000Y-70700000D03*
%TO.P,C4,1*%
%TO.N,OIL_BUZZER_OUT_12V*%
X101600000Y-75700000D03*
%TD*%
%TO.P,C3,2*%
%TO.N,12V_GND*%
X83500000Y-73000000D03*
%TO.P,C3,1*%
%TO.N,OIL_BUZZER_OUT_12V*%
X88500000Y-73000000D03*
%TD*%
D21*
%TO.P,C2,2*%
%TO.N,12V_GND*%
X90232323Y-100000000D03*
D25*
%TO.P,C2,1*%
%TO.N,Net-(C2-Pad1)*%
X85232323Y-100000000D03*
%TD*%
D16*
%TO.P,C1,2*%
%TO.N,12V_GND*%
X84900000Y-78600000D03*
D24*
%TO.P,C1,1*%
%TO.N,OIL_BUZZER_OUT_12V*%
X87400000Y-78600000D03*
%TD*%
D26*
%TO.N,OIL_BUZZER_OUT_12V*%
X98800000Y-113800000D03*
X98800000Y-117800000D03*
%TD*%
D27*
%TO.N,12V_GND*%
X122945000Y-81460000D02*
X122945000Y-79455000D01*
X112745000Y-81520000D02*
X112745000Y-79655000D01*
X102945000Y-81460000D02*
X102945000Y-79455000D01*
D28*
%TO.N,Net-(Q3-Pad1)*%
X117400000Y-86050000D02*
X122455000Y-86050000D01*
X122455000Y-86050000D02*
X122945000Y-86540000D01*
%TO.N,Net-(Q2-Pad1)*%
X112395000Y-86250000D02*
X112745000Y-86600000D01*
X107200000Y-86250000D02*
X112395000Y-86250000D01*
%TO.N,Net-(Q1-Pad1)*%
X102655000Y-86250000D02*
X102945000Y-86540000D01*
X97400000Y-86250000D02*
X102655000Y-86250000D01*
D27*
%TO.N,RUN_RELAY_OUT_SIG*%
X118700000Y-69150000D02*
X117400000Y-70450000D01*
X118700000Y-64100000D02*
X118700000Y-69150000D01*
%TO.N,LOCKOUT_LAMP_OUT_SIG*%
X111400000Y-64400000D02*
X111700000Y-64100000D01*
X111400000Y-70700000D02*
X111400000Y-64400000D01*
%TO.N,OIL_BUZZER_OUT_SIG*%
X104700000Y-67600000D02*
X101600000Y-70700000D01*
X104700000Y-64100000D02*
X104700000Y-67600000D01*
%TO.N,OIL_BUZZER_OUT_12V*%
X98800000Y-117800000D02*
X98800000Y-113800000D01*
D28*
%TO.N,OIL_LOW*%
X91395000Y-117535000D02*
X97860000Y-111070000D01*
X97860000Y-111070000D02*
X97860000Y-110000000D01*
D27*
%TO.N,OIL_BUZZER_OUT_SIG*%
X97400000Y-78455000D02*
X102945000Y-84000000D01*
X97400000Y-70650000D02*
X97400000Y-78455000D01*
X97450000Y-70700000D02*
X97400000Y-70650000D01*
X101600000Y-70700000D02*
X97450000Y-70700000D01*
%TO.N,LOCKOUT_LAMP_OUT_SIG*%
X107200000Y-78358809D02*
X107200000Y-70650000D01*
X112745000Y-83903809D02*
X107200000Y-78358809D01*
X112745000Y-84060000D02*
X112745000Y-83903809D01*
X107250000Y-70700000D02*
X107200000Y-70650000D01*
X111400000Y-70700000D02*
X107250000Y-70700000D01*
%TO.N,RUN_RELAY_OUT_SIG*%
X117400000Y-78455000D02*
X117400000Y-70450000D01*
X122945000Y-84000000D02*
X117400000Y-78455000D01*
X121550000Y-70450000D02*
X121600000Y-70500000D01*
X117400000Y-70450000D02*
X121550000Y-70450000D01*
%TD*%
%TA.AperFunction,Conductor*%
%TO.N,12V_GND*%
G36*
X82962538Y-60528502D02*
G01*
X83009031Y-60582158D01*
X83019135Y-60652432D01*
X82989641Y-60717012D01*
X82952598Y-60746263D01*
X82770934Y-60840832D01*
X82766176Y-60843579D01*
X82383576Y-61087321D01*
X82379082Y-61090467D01*
X82019195Y-61366619D01*
X82014967Y-61370166D01*
X81879294Y-61494488D01*
X81871080Y-61508084D01*
X81871090Y-61508454D01*
X81876501Y-61517291D01*
X85387188Y-65027978D01*
X85401132Y-65035592D01*
X85402965Y-65035461D01*
X85409580Y-65031210D01*
X88921251Y-61519539D01*
X88928865Y-61505595D01*
X88928839Y-61505225D01*
X88923050Y-61496636D01*
X88785033Y-61370166D01*
X88780805Y-61366619D01*
X88420918Y-61090467D01*
X88416424Y-61087321D01*
X88033829Y-60843582D01*
X88029057Y-60840827D01*
X87847402Y-60746263D01*
X87796214Y-60697067D01*
X87779749Y-60628005D01*
X87803236Y-60561006D01*
X87859217Y-60517341D01*
X87905582Y-60508500D01*
X124365500Y-60508500D01*
X124433621Y-60528502D01*
X124480114Y-60582158D01*
X124491500Y-60634500D01*
X124491500Y-80661491D01*
X124471498Y-80729612D01*
X124417842Y-80776105D01*
X124347568Y-80786209D01*
X124282988Y-80756715D01*
X124253737Y-80719671D01*
X124234989Y-80683656D01*
X124229495Y-80674931D01*
X124091507Y-80491148D01*
X124084664Y-80483441D01*
X123918509Y-80324661D01*
X123910499Y-80318174D01*
X123720653Y-80188670D01*
X123711679Y-80183571D01*
X123503231Y-80086813D01*
X123493544Y-80083250D01*
X123272092Y-80021835D01*
X123261970Y-80019904D01*
X123217013Y-80015099D01*
X123202392Y-80017747D01*
X123199000Y-80030124D01*
X123199000Y-81588000D01*
X123178998Y-81656121D01*
X123125342Y-81702614D01*
X123073000Y-81714000D01*
X122817000Y-81714000D01*
X122748879Y-81693998D01*
X122702386Y-81640342D01*
X122691000Y-81588000D01*
X122691000Y-80029588D01*
X122686675Y-80014859D01*
X122674889Y-80012798D01*
X122663296Y-80013751D01*
X122653134Y-80015433D01*
X122430229Y-80071422D01*
X122420481Y-80074741D01*
X122209711Y-80166385D01*
X122200636Y-80171251D01*
X122007673Y-80296085D01*
X121999502Y-80302378D01*
X121829520Y-80457050D01*
X121822494Y-80464583D01*
X121680055Y-80644944D01*
X121674350Y-80653531D01*
X121563286Y-80854722D01*
X121559054Y-80864138D01*
X121541068Y-80914929D01*
X121499474Y-80972466D01*
X121433377Y-80998382D01*
X121363761Y-80984448D01*
X121333200Y-80961965D01*
X118445405Y-78074171D01*
X118411379Y-78011859D01*
X118408500Y-77985076D01*
X118408500Y-75500000D01*
X120286502Y-75500000D01*
X120306457Y-75728087D01*
X120365716Y-75949243D01*
X120368039Y-75954224D01*
X120368039Y-75954225D01*
X120460151Y-76151762D01*
X120460154Y-76151767D01*
X120462477Y-76156749D01*
X120593802Y-76344300D01*
X120755700Y-76506198D01*
X120760208Y-76509355D01*
X120760211Y-76509357D01*
X120838389Y-76564098D01*
X120943251Y-76637523D01*
X120948233Y-76639846D01*
X120948238Y-76639849D01*
X121145775Y-76731961D01*
X121150757Y-76734284D01*
X121156065Y-76735706D01*
X121156067Y-76735707D01*
X121366598Y-76792119D01*
X121366600Y-76792119D01*
X121371913Y-76793543D01*
X121600000Y-76813498D01*
X121828087Y-76793543D01*
X121833400Y-76792119D01*
X121833402Y-76792119D01*
X122043933Y-76735707D01*
X122043935Y-76735706D01*
X122049243Y-76734284D01*
X122054225Y-76731961D01*
X122251762Y-76639849D01*
X122251767Y-76639846D01*
X122256749Y-76637523D01*
X122361611Y-76564098D01*
X122439789Y-76509357D01*
X122439792Y-76509355D01*
X122444300Y-76506198D01*
X122606198Y-76344300D01*
X122737523Y-76156749D01*
X122739846Y-76151767D01*
X122739849Y-76151762D01*
X122831961Y-75954225D01*
X122831961Y-75954224D01*
X122834284Y-75949243D01*
X122893543Y-75728087D01*
X122913498Y-75500000D01*
X122893543Y-75271913D01*
X122834284Y-75050757D01*
X122745432Y-74860211D01*
X122739849Y-74848238D01*
X122739846Y-74848233D01*
X122737523Y-74843251D01*
X122635606Y-74697699D01*
X122609357Y-74660211D01*
X122609355Y-74660208D01*
X122606198Y-74655700D01*
X122444300Y-74493802D01*
X122439792Y-74490645D01*
X122439789Y-74490643D01*
X122321592Y-74407881D01*
X122256749Y-74362477D01*
X122251767Y-74360154D01*
X122251762Y-74360151D01*
X122054225Y-74268039D01*
X122054224Y-74268039D01*
X122049243Y-74265716D01*
X122043935Y-74264294D01*
X122043933Y-74264293D01*
X121833402Y-74207881D01*
X121833400Y-74207881D01*
X121828087Y-74206457D01*
X121600000Y-74186502D01*
X121371913Y-74206457D01*
X121366600Y-74207881D01*
X121366598Y-74207881D01*
X121156067Y-74264293D01*
X121156065Y-74264294D01*
X121150757Y-74265716D01*
X121145776Y-74268039D01*
X121145775Y-74268039D01*
X120948238Y-74360151D01*
X120948233Y-74360154D01*
X120943251Y-74362477D01*
X120878408Y-74407881D01*
X120760211Y-74490643D01*
X120760208Y-74490645D01*
X120755700Y-74493802D01*
X120593802Y-74655700D01*
X120590645Y-74660208D01*
X120590643Y-74660211D01*
X120564394Y-74697699D01*
X120462477Y-74843251D01*
X120460154Y-74848233D01*
X120460151Y-74848238D01*
X120454568Y-74860211D01*
X120365716Y-75050757D01*
X120306457Y-75271913D01*
X120286502Y-75500000D01*
X118408500Y-75500000D01*
X118408500Y-71762064D01*
X118428502Y-71693943D01*
X118452669Y-71666253D01*
X118537142Y-71594106D01*
X118540898Y-71590898D01*
X118616253Y-71502669D01*
X118675704Y-71463860D01*
X118712064Y-71458500D01*
X120655812Y-71458500D01*
X120723933Y-71478502D01*
X120744907Y-71495405D01*
X120755700Y-71506198D01*
X120760208Y-71509355D01*
X120760211Y-71509357D01*
X120838389Y-71564098D01*
X120943251Y-71637523D01*
X120948233Y-71639846D01*
X120948238Y-71639849D01*
X121106957Y-71713860D01*
X121150757Y-71734284D01*
X121156065Y-71735706D01*
X121156067Y-71735707D01*
X121366598Y-71792119D01*
X121366600Y-71792119D01*
X121371913Y-71793543D01*
X121600000Y-71813498D01*
X121828087Y-71793543D01*
X121833400Y-71792119D01*
X121833402Y-71792119D01*
X122043933Y-71735707D01*
X122043935Y-71735706D01*
X122049243Y-71734284D01*
X122093043Y-71713860D01*
X122251762Y-71639849D01*
X122251767Y-71639846D01*
X122256749Y-71637523D01*
X122361611Y-71564098D01*
X122439789Y-71509357D01*
X122439792Y-71509355D01*
X122444300Y-71506198D01*
X122606198Y-71344300D01*
X122737523Y-71156749D01*
X122739846Y-71151767D01*
X122739849Y-71151762D01*
X122831961Y-70954225D01*
X122831961Y-70954224D01*
X122834284Y-70949243D01*
X122893543Y-70728087D01*
X122913498Y-70500000D01*
X122893543Y-70271913D01*
X122861254Y-70151409D01*
X122835707Y-70056067D01*
X122835706Y-70056065D01*
X122834284Y-70050757D01*
X122825727Y-70032406D01*
X122739849Y-69848238D01*
X122739846Y-69848233D01*
X122737523Y-69843251D01*
X122646095Y-69712679D01*
X122609357Y-69660211D01*
X122609355Y-69660208D01*
X122606198Y-69655700D01*
X122444300Y-69493802D01*
X122439792Y-69490645D01*
X122439789Y-69490643D01*
X122321592Y-69407881D01*
X122256749Y-69362477D01*
X122251767Y-69360154D01*
X122251762Y-69360151D01*
X122054225Y-69268039D01*
X122054224Y-69268039D01*
X122049243Y-69265716D01*
X122043935Y-69264294D01*
X122043933Y-69264293D01*
X121833402Y-69207881D01*
X121833400Y-69207881D01*
X121828087Y-69206457D01*
X121600000Y-69186502D01*
X121371913Y-69206457D01*
X121366600Y-69207881D01*
X121366598Y-69207881D01*
X121156067Y-69264293D01*
X121156065Y-69264294D01*
X121150757Y-69265716D01*
X121145776Y-69268039D01*
X121145775Y-69268039D01*
X120948238Y-69360151D01*
X120948233Y-69360154D01*
X120943251Y-69362477D01*
X120880441Y-69406457D01*
X120862938Y-69418713D01*
X120790667Y-69441500D01*
X119823571Y-69441500D01*
X119755450Y-69421498D01*
X119708957Y-69367842D01*
X119698216Y-69302767D01*
X119699066Y-69294405D01*
X119702795Y-69257689D01*
X119702915Y-69256569D01*
X119708500Y-69206773D01*
X119708500Y-69203244D01*
X119708555Y-69202261D01*
X119709004Y-69196556D01*
X119710026Y-69186502D01*
X119713374Y-69153537D01*
X119709059Y-69107888D01*
X119708500Y-69096031D01*
X119708500Y-65543272D01*
X119728502Y-65475151D01*
X119753086Y-65447107D01*
X119900862Y-65322006D01*
X120068295Y-65131084D01*
X120129718Y-65035592D01*
X120203141Y-64921442D01*
X120205669Y-64917512D01*
X120309967Y-64685980D01*
X120328528Y-64620167D01*
X120366269Y-64560033D01*
X120430530Y-64529850D01*
X120500909Y-64539200D01*
X120555059Y-64585116D01*
X120568385Y-64611789D01*
X120634831Y-64796858D01*
X120637048Y-64800984D01*
X120713925Y-64944059D01*
X120755025Y-65020551D01*
X120757820Y-65024294D01*
X120757822Y-65024297D01*
X120904171Y-65220282D01*
X120904176Y-65220288D01*
X120906963Y-65224020D01*
X120910272Y-65227300D01*
X120910277Y-65227306D01*
X121083990Y-65399509D01*
X121087307Y-65402797D01*
X121091069Y-65405555D01*
X121091072Y-65405558D01*
X121185985Y-65475151D01*
X121292094Y-65552953D01*
X121296229Y-65555129D01*
X121296233Y-65555131D01*
X121414289Y-65617243D01*
X121516827Y-65671191D01*
X121651160Y-65718102D01*
X121752021Y-65753324D01*
X121756568Y-65754912D01*
X122006050Y-65802278D01*
X122126532Y-65807011D01*
X122255125Y-65812064D01*
X122255130Y-65812064D01*
X122259793Y-65812247D01*
X122358774Y-65801407D01*
X122507569Y-65785112D01*
X122507575Y-65785111D01*
X122512222Y-65784602D01*
X122621680Y-65755784D01*
X122753273Y-65721138D01*
X122757793Y-65719948D01*
X122907280Y-65655724D01*
X122986807Y-65621557D01*
X122986810Y-65621555D01*
X122991110Y-65619708D01*
X122995090Y-65617245D01*
X122995094Y-65617243D01*
X123203064Y-65488547D01*
X123203066Y-65488545D01*
X123207047Y-65486082D01*
X123210624Y-65483054D01*
X123397289Y-65325031D01*
X123397291Y-65325029D01*
X123400862Y-65322006D01*
X123568295Y-65131084D01*
X123629718Y-65035592D01*
X123703141Y-64921442D01*
X123705669Y-64917512D01*
X123809967Y-64685980D01*
X123878896Y-64441575D01*
X123910943Y-64189667D01*
X123913291Y-64100000D01*
X123894472Y-63846759D01*
X123892974Y-63840135D01*
X123839459Y-63603639D01*
X123838428Y-63599082D01*
X123832460Y-63583735D01*
X123748084Y-63366762D01*
X123748083Y-63366760D01*
X123746391Y-63362409D01*
X123725866Y-63326498D01*
X123622702Y-63145997D01*
X123622700Y-63145995D01*
X123620383Y-63141940D01*
X123463171Y-62942517D01*
X123292957Y-62782396D01*
X123281610Y-62771722D01*
X123281608Y-62771720D01*
X123278209Y-62768523D01*
X123124579Y-62661946D01*
X123073393Y-62626437D01*
X123073390Y-62626435D01*
X123069561Y-62623779D01*
X123065384Y-62621719D01*
X123065377Y-62621715D01*
X122845996Y-62513528D01*
X122845992Y-62513527D01*
X122841810Y-62511464D01*
X122599960Y-62434047D01*
X122595355Y-62433297D01*
X122353935Y-62393980D01*
X122353934Y-62393980D01*
X122349323Y-62393229D01*
X122222364Y-62391567D01*
X122100083Y-62389966D01*
X122100080Y-62389966D01*
X122095406Y-62389905D01*
X121843787Y-62424149D01*
X121599993Y-62495208D01*
X121369380Y-62601522D01*
X121365471Y-62604085D01*
X121160928Y-62738189D01*
X121160923Y-62738193D01*
X121157015Y-62740755D01*
X121110360Y-62782396D01*
X121028647Y-62855328D01*
X120967562Y-62909848D01*
X120805183Y-63105087D01*
X120673447Y-63322182D01*
X120671638Y-63326496D01*
X120671637Y-63326498D01*
X120617819Y-63454841D01*
X120575246Y-63556365D01*
X120574095Y-63560897D01*
X120572016Y-63569084D01*
X120535861Y-63630185D01*
X120472412Y-63662039D01*
X120401813Y-63654534D01*
X120346479Y-63610051D01*
X120332460Y-63583735D01*
X120248084Y-63366762D01*
X120248083Y-63366760D01*
X120246391Y-63362409D01*
X120225866Y-63326498D01*
X120122702Y-63145997D01*
X120122700Y-63145995D01*
X120120383Y-63141940D01*
X119963171Y-62942517D01*
X119792957Y-62782396D01*
X119781610Y-62771722D01*
X119781608Y-62771720D01*
X119778209Y-62768523D01*
X119624579Y-62661946D01*
X119573393Y-62626437D01*
X119573390Y-62626435D01*
X119569561Y-62623779D01*
X119565384Y-62621719D01*
X119565377Y-62621715D01*
X119345996Y-62513528D01*
X119345992Y-62513527D01*
X119341810Y-62511464D01*
X119099960Y-62434047D01*
X119095355Y-62433297D01*
X118853935Y-62393980D01*
X118853934Y-62393980D01*
X118849323Y-62393229D01*
X118722364Y-62391567D01*
X118600083Y-62389966D01*
X118600080Y-62389966D01*
X118595406Y-62389905D01*
X118343787Y-62424149D01*
X118099993Y-62495208D01*
X117869380Y-62601522D01*
X117865471Y-62604085D01*
X117660928Y-62738189D01*
X117660923Y-62738193D01*
X117657015Y-62740755D01*
X117610360Y-62782396D01*
X117528647Y-62855328D01*
X117467562Y-62909848D01*
X117305183Y-63105087D01*
X117173447Y-63322182D01*
X117171638Y-63326496D01*
X117171637Y-63326498D01*
X117117819Y-63454841D01*
X117075246Y-63556365D01*
X117074095Y-63560897D01*
X117072016Y-63569084D01*
X117035861Y-63630185D01*
X116972412Y-63662039D01*
X116901813Y-63654534D01*
X116846479Y-63610051D01*
X116832460Y-63583735D01*
X116748084Y-63366762D01*
X116748083Y-63366760D01*
X116746391Y-63362409D01*
X116725866Y-63326498D01*
X116622702Y-63145997D01*
X116622700Y-63145995D01*
X116620383Y-63141940D01*
X116463171Y-62942517D01*
X116292957Y-62782396D01*
X116281610Y-62771722D01*
X116281608Y-62771720D01*
X116278209Y-62768523D01*
X116124579Y-62661946D01*
X116073393Y-62626437D01*
X116073390Y-62626435D01*
X116069561Y-62623779D01*
X116065384Y-62621719D01*
X116065377Y-62621715D01*
X115845996Y-62513528D01*
X115845992Y-62513527D01*
X115841810Y-62511464D01*
X115599960Y-62434047D01*
X115595355Y-62433297D01*
X115353935Y-62393980D01*
X115353934Y-62393980D01*
X115349323Y-62393229D01*
X115222364Y-62391567D01*
X115100083Y-62389966D01*
X115100080Y-62389966D01*
X115095406Y-62389905D01*
X114843787Y-62424149D01*
X114599993Y-62495208D01*
X114369380Y-62601522D01*
X114365471Y-62604085D01*
X114160928Y-62738189D01*
X114160923Y-62738193D01*
X114157015Y-62740755D01*
X114110360Y-62782396D01*
X114028647Y-62855328D01*
X113967562Y-62909848D01*
X113805183Y-63105087D01*
X113673447Y-63322182D01*
X113671638Y-63326496D01*
X113671637Y-63326498D01*
X113617819Y-63454841D01*
X113575246Y-63556365D01*
X113574095Y-63560897D01*
X113572016Y-63569084D01*
X113535861Y-63630185D01*
X113472412Y-63662039D01*
X113401813Y-63654534D01*
X113346479Y-63610051D01*
X113332460Y-63583735D01*
X113248084Y-63366762D01*
X113248083Y-63366760D01*
X113246391Y-63362409D01*
X113225866Y-63326498D01*
X113122702Y-63145997D01*
X113122700Y-63145995D01*
X113120383Y-63141940D01*
X112963171Y-62942517D01*
X112792957Y-62782396D01*
X112781610Y-62771722D01*
X112781608Y-62771720D01*
X112778209Y-62768523D01*
X112624579Y-62661946D01*
X112573393Y-62626437D01*
X112573390Y-62626435D01*
X112569561Y-62623779D01*
X112565384Y-62621719D01*
X112565377Y-62621715D01*
X112345996Y-62513528D01*
X112345992Y-62513527D01*
X112341810Y-62511464D01*
X112099960Y-62434047D01*
X112095355Y-62433297D01*
X111853935Y-62393980D01*
X111853934Y-62393980D01*
X111849323Y-62393229D01*
X111722364Y-62391567D01*
X111600083Y-62389966D01*
X111600080Y-62389966D01*
X111595406Y-62389905D01*
X111343787Y-62424149D01*
X111099993Y-62495208D01*
X110869380Y-62601522D01*
X110865471Y-62604085D01*
X110660928Y-62738189D01*
X110660923Y-62738193D01*
X110657015Y-62740755D01*
X110610360Y-62782396D01*
X110528647Y-62855328D01*
X110467562Y-62909848D01*
X110305183Y-63105087D01*
X110173447Y-63322182D01*
X110171638Y-63326496D01*
X110171637Y-63326498D01*
X110117819Y-63454841D01*
X110075246Y-63556365D01*
X110074095Y-63560897D01*
X110072016Y-63569084D01*
X110035861Y-63630185D01*
X109972412Y-63662039D01*
X109901813Y-63654534D01*
X109846479Y-63610051D01*
X109832460Y-63583735D01*
X109748084Y-63366762D01*
X109748083Y-63366760D01*
X109746391Y-63362409D01*
X109725866Y-63326498D01*
X109622702Y-63145997D01*
X109622700Y-63145995D01*
X109620383Y-63141940D01*
X109463171Y-62942517D01*
X109292957Y-62782396D01*
X109281610Y-62771722D01*
X109281608Y-62771720D01*
X109278209Y-62768523D01*
X109124579Y-62661946D01*
X109073393Y-62626437D01*
X109073390Y-62626435D01*
X109069561Y-62623779D01*
X109065384Y-62621719D01*
X109065377Y-62621715D01*
X108845996Y-62513528D01*
X108845992Y-62513527D01*
X108841810Y-62511464D01*
X108599960Y-62434047D01*
X108595355Y-62433297D01*
X108353935Y-62393980D01*
X108353934Y-62393980D01*
X108349323Y-62393229D01*
X108222364Y-62391567D01*
X108100083Y-62389966D01*
X108100080Y-62389966D01*
X108095406Y-62389905D01*
X107843787Y-62424149D01*
X107599993Y-62495208D01*
X107369380Y-62601522D01*
X107365471Y-62604085D01*
X107160928Y-62738189D01*
X107160923Y-62738193D01*
X107157015Y-62740755D01*
X107110360Y-62782396D01*
X107028647Y-62855328D01*
X106967562Y-62909848D01*
X106805183Y-63105087D01*
X106673447Y-63322182D01*
X106671638Y-63326496D01*
X106671637Y-63326498D01*
X106617819Y-63454841D01*
X106575246Y-63556365D01*
X106574095Y-63560897D01*
X106572016Y-63569084D01*
X106535861Y-63630185D01*
X106472412Y-63662039D01*
X106401813Y-63654534D01*
X106346479Y-63610051D01*
X106332460Y-63583735D01*
X106248084Y-63366762D01*
X106248083Y-63366760D01*
X106246391Y-63362409D01*
X106225866Y-63326498D01*
X106122702Y-63145997D01*
X106122700Y-63145995D01*
X106120383Y-63141940D01*
X105963171Y-62942517D01*
X105792957Y-62782396D01*
X105781610Y-62771722D01*
X105781608Y-62771720D01*
X105778209Y-62768523D01*
X105624579Y-62661946D01*
X105573393Y-62626437D01*
X105573390Y-62626435D01*
X105569561Y-62623779D01*
X105565384Y-62621719D01*
X105565377Y-62621715D01*
X105345996Y-62513528D01*
X105345992Y-62513527D01*
X105341810Y-62511464D01*
X105099960Y-62434047D01*
X105095355Y-62433297D01*
X104853935Y-62393980D01*
X104853934Y-62393980D01*
X104849323Y-62393229D01*
X104722364Y-62391567D01*
X104600083Y-62389966D01*
X104600080Y-62389966D01*
X104595406Y-62389905D01*
X104343787Y-62424149D01*
X104099993Y-62495208D01*
X103869380Y-62601522D01*
X103865471Y-62604085D01*
X103660928Y-62738189D01*
X103660923Y-62738193D01*
X103657015Y-62740755D01*
X103610360Y-62782396D01*
X103528647Y-62855328D01*
X103467562Y-62909848D01*
X103305183Y-63105087D01*
X103173447Y-63322182D01*
X103171638Y-63326496D01*
X103171637Y-63326498D01*
X103117819Y-63454841D01*
X103075246Y-63556365D01*
X103074095Y-63560897D01*
X103072016Y-63569084D01*
X103035861Y-63630185D01*
X102972412Y-63662039D01*
X102901813Y-63654534D01*
X102846479Y-63610051D01*
X102832460Y-63583735D01*
X102748084Y-63366762D01*
X102748083Y-63366760D01*
X102746391Y-63362409D01*
X102725866Y-63326498D01*
X102622702Y-63145997D01*
X102622700Y-63145995D01*
X102620383Y-63141940D01*
X102463171Y-62942517D01*
X102292957Y-62782396D01*
X102281610Y-62771722D01*
X102281608Y-62771720D01*
X102278209Y-62768523D01*
X102124579Y-62661946D01*
X102073393Y-62626437D01*
X102073390Y-62626435D01*
X102069561Y-62623779D01*
X102065384Y-62621719D01*
X102065377Y-62621715D01*
X101845996Y-62513528D01*
X101845992Y-62513527D01*
X101841810Y-62511464D01*
X101599960Y-62434047D01*
X101595355Y-62433297D01*
X101353935Y-62393980D01*
X101353934Y-62393980D01*
X101349323Y-62393229D01*
X101222364Y-62391567D01*
X101100083Y-62389966D01*
X101100080Y-62389966D01*
X101095406Y-62389905D01*
X100843787Y-62424149D01*
X100599993Y-62495208D01*
X100369380Y-62601522D01*
X100365471Y-62604085D01*
X100160928Y-62738189D01*
X100160923Y-62738193D01*
X100157015Y-62740755D01*
X100110360Y-62782396D01*
X100028647Y-62855328D01*
X99967562Y-62909848D01*
X99805183Y-63105087D01*
X99673447Y-63322182D01*
X99671638Y-63326496D01*
X99671637Y-63326498D01*
X99617819Y-63454841D01*
X99575246Y-63556365D01*
X99574095Y-63560897D01*
X99572016Y-63569084D01*
X99535861Y-63630185D01*
X99472412Y-63662039D01*
X99401813Y-63654534D01*
X99346479Y-63610051D01*
X99332460Y-63583735D01*
X99248084Y-63366762D01*
X99248083Y-63366760D01*
X99246391Y-63362409D01*
X99225866Y-63326498D01*
X99122702Y-63145997D01*
X99122700Y-63145995D01*
X99120383Y-63141940D01*
X98963171Y-62942517D01*
X98792957Y-62782396D01*
X98781610Y-62771722D01*
X98781608Y-62771720D01*
X98778209Y-62768523D01*
X98624579Y-62661946D01*
X98573393Y-62626437D01*
X98573390Y-62626435D01*
X98569561Y-62623779D01*
X98565384Y-62621719D01*
X98565377Y-62621715D01*
X98345996Y-62513528D01*
X98345992Y-62513527D01*
X98341810Y-62511464D01*
X98099960Y-62434047D01*
X98095355Y-62433297D01*
X97853935Y-62393980D01*
X97853934Y-62393980D01*
X97849323Y-62393229D01*
X97722364Y-62391567D01*
X97600083Y-62389966D01*
X97600080Y-62389966D01*
X97595406Y-62389905D01*
X97343787Y-62424149D01*
X97099993Y-62495208D01*
X96869380Y-62601522D01*
X96865471Y-62604085D01*
X96660928Y-62738189D01*
X96660923Y-62738193D01*
X96657015Y-62740755D01*
X96610360Y-62782396D01*
X96528647Y-62855328D01*
X96467562Y-62909848D01*
X96305183Y-63105087D01*
X96173447Y-63322182D01*
X96171638Y-63326496D01*
X96171637Y-63326498D01*
X96150196Y-63377629D01*
X96105407Y-63432715D01*
X96037946Y-63454841D01*
X95969233Y-63436983D01*
X95921081Y-63384810D01*
X95907999Y-63328903D01*
X95907999Y-62855331D01*
X95907629Y-62848510D01*
X95902105Y-62797648D01*
X95898479Y-62782396D01*
X95853324Y-62661946D01*
X95844786Y-62646351D01*
X95768285Y-62544276D01*
X95755724Y-62531715D01*
X95653649Y-62455214D01*
X95638054Y-62446676D01*
X95517606Y-62401522D01*
X95502351Y-62397895D01*
X95451486Y-62392369D01*
X95444672Y-62392000D01*
X94472115Y-62392000D01*
X94456876Y-62396475D01*
X94455671Y-62397865D01*
X94454000Y-62405548D01*
X94454000Y-65789884D01*
X94458475Y-65805123D01*
X94459865Y-65806328D01*
X94467548Y-65807999D01*
X95444669Y-65807999D01*
X95451490Y-65807629D01*
X95502352Y-65802105D01*
X95517604Y-65798479D01*
X95638054Y-65753324D01*
X95653649Y-65744786D01*
X95755724Y-65668285D01*
X95768285Y-65655724D01*
X95844786Y-65553649D01*
X95853324Y-65538054D01*
X95898478Y-65417606D01*
X95902105Y-65402351D01*
X95907631Y-65351486D01*
X95908000Y-65344672D01*
X95908000Y-64875406D01*
X95928002Y-64807285D01*
X95981658Y-64760792D01*
X96051932Y-64750688D01*
X96116512Y-64780182D01*
X96144991Y-64815767D01*
X96255025Y-65020551D01*
X96257820Y-65024294D01*
X96257822Y-65024297D01*
X96404171Y-65220282D01*
X96404176Y-65220288D01*
X96406963Y-65224020D01*
X96410272Y-65227300D01*
X96410277Y-65227306D01*
X96583990Y-65399509D01*
X96587307Y-65402797D01*
X96591069Y-65405555D01*
X96591072Y-65405558D01*
X96685985Y-65475151D01*
X96792094Y-65552953D01*
X96796229Y-65555129D01*
X96796233Y-65555131D01*
X96914289Y-65617243D01*
X97016827Y-65671191D01*
X97151160Y-65718102D01*
X97252021Y-65753324D01*
X97256568Y-65754912D01*
X97506050Y-65802278D01*
X97626532Y-65807011D01*
X97755125Y-65812064D01*
X97755130Y-65812064D01*
X97759793Y-65812247D01*
X97858774Y-65801407D01*
X98007569Y-65785112D01*
X98007575Y-65785111D01*
X98012222Y-65784602D01*
X98121680Y-65755784D01*
X98253273Y-65721138D01*
X98257793Y-65719948D01*
X98407280Y-65655724D01*
X98486807Y-65621557D01*
X98486810Y-65621555D01*
X98491110Y-65619708D01*
X98495090Y-65617245D01*
X98495094Y-65617243D01*
X98703064Y-65488547D01*
X98703066Y-65488545D01*
X98707047Y-65486082D01*
X98710624Y-65483054D01*
X98897289Y-65325031D01*
X98897291Y-65325029D01*
X98900862Y-65322006D01*
X99068295Y-65131084D01*
X99129718Y-65035592D01*
X99203141Y-64921442D01*
X99205669Y-64917512D01*
X99309967Y-64685980D01*
X99328528Y-64620167D01*
X99366269Y-64560033D01*
X99430530Y-64529850D01*
X99500909Y-64539200D01*
X99555059Y-64585116D01*
X99568385Y-64611789D01*
X99634831Y-64796858D01*
X99637048Y-64800984D01*
X99713925Y-64944059D01*
X99755025Y-65020551D01*
X99757820Y-65024294D01*
X99757822Y-65024297D01*
X99904171Y-65220282D01*
X99904176Y-65220288D01*
X99906963Y-65224020D01*
X99910272Y-65227300D01*
X99910277Y-65227306D01*
X100083990Y-65399509D01*
X100087307Y-65402797D01*
X100091069Y-65405555D01*
X100091072Y-65405558D01*
X100185985Y-65475151D01*
X100292094Y-65552953D01*
X100296229Y-65555129D01*
X100296233Y-65555131D01*
X100414289Y-65617243D01*
X100516827Y-65671191D01*
X100651160Y-65718102D01*
X100752021Y-65753324D01*
X100756568Y-65754912D01*
X101006050Y-65802278D01*
X101126532Y-65807011D01*
X101255125Y-65812064D01*
X101255130Y-65812064D01*
X101259793Y-65812247D01*
X101358774Y-65801407D01*
X101507569Y-65785112D01*
X101507575Y-65785111D01*
X101512222Y-65784602D01*
X101621680Y-65755784D01*
X101753273Y-65721138D01*
X101757793Y-65719948D01*
X101907280Y-65655724D01*
X101986807Y-65621557D01*
X101986810Y-65621555D01*
X101991110Y-65619708D01*
X101995090Y-65617245D01*
X101995094Y-65617243D01*
X102203064Y-65488547D01*
X102203066Y-65488545D01*
X102207047Y-65486082D01*
X102210624Y-65483054D01*
X102397289Y-65325031D01*
X102397291Y-65325029D01*
X102400862Y-65322006D01*
X102568295Y-65131084D01*
X102629718Y-65035592D01*
X102703141Y-64921442D01*
X102705669Y-64917512D01*
X102809967Y-64685980D01*
X102828528Y-64620167D01*
X102866269Y-64560033D01*
X102930530Y-64529850D01*
X103000909Y-64539200D01*
X103055059Y-64585116D01*
X103068385Y-64611789D01*
X103134831Y-64796858D01*
X103137048Y-64800984D01*
X103213925Y-64944059D01*
X103255025Y-65020551D01*
X103257820Y-65024294D01*
X103257822Y-65024297D01*
X103404171Y-65220282D01*
X103404176Y-65220288D01*
X103406963Y-65224020D01*
X103410272Y-65227300D01*
X103410277Y-65227306D01*
X103583990Y-65399509D01*
X103587307Y-65402797D01*
X103591069Y-65405555D01*
X103591072Y-65405558D01*
X103640005Y-65441437D01*
X103683113Y-65497848D01*
X103691500Y-65543049D01*
X103691500Y-67130075D01*
X103671498Y-67198196D01*
X103654595Y-67219170D01*
X101508884Y-69364882D01*
X101446572Y-69398907D01*
X101430773Y-69401308D01*
X101371913Y-69406457D01*
X101271432Y-69433381D01*
X101156067Y-69464293D01*
X101156065Y-69464294D01*
X101150757Y-69465716D01*
X101145776Y-69468039D01*
X101145775Y-69468039D01*
X100948238Y-69560151D01*
X100948233Y-69560154D01*
X100943251Y-69562477D01*
X100822068Y-69647331D01*
X100791531Y-69668713D01*
X100719260Y-69691500D01*
X98754768Y-69691500D01*
X98686647Y-69671498D01*
X98658957Y-69647331D01*
X98544106Y-69512858D01*
X98540898Y-69509102D01*
X98348376Y-69344672D01*
X98132502Y-69212384D01*
X98127932Y-69210491D01*
X98127928Y-69210489D01*
X97903164Y-69117389D01*
X97903162Y-69117388D01*
X97898591Y-69115495D01*
X97813968Y-69095179D01*
X97657216Y-69057546D01*
X97657210Y-69057545D01*
X97652403Y-69056391D01*
X97400000Y-69036526D01*
X97147597Y-69056391D01*
X97142790Y-69057545D01*
X97142784Y-69057546D01*
X96986032Y-69095179D01*
X96901409Y-69115495D01*
X96896838Y-69117388D01*
X96896836Y-69117389D01*
X96672072Y-69210489D01*
X96672068Y-69210491D01*
X96667498Y-69212384D01*
X96451624Y-69344672D01*
X96259102Y-69509102D01*
X96094672Y-69701624D01*
X95962384Y-69917498D01*
X95960491Y-69922068D01*
X95960489Y-69922072D01*
X95907186Y-70050757D01*
X95865495Y-70151409D01*
X95864340Y-70156221D01*
X95818673Y-70346440D01*
X95806391Y-70397597D01*
X95786526Y-70650000D01*
X95806391Y-70902403D01*
X95807545Y-70907210D01*
X95807546Y-70907216D01*
X95845179Y-71063968D01*
X95865495Y-71148591D01*
X95867388Y-71153162D01*
X95867389Y-71153164D01*
X95951717Y-71356749D01*
X95962384Y-71382502D01*
X96094672Y-71598376D01*
X96259102Y-71790898D01*
X96262858Y-71794106D01*
X96347331Y-71866253D01*
X96386140Y-71925704D01*
X96391500Y-71962064D01*
X96391500Y-78393157D01*
X96390763Y-78406764D01*
X96387828Y-78433787D01*
X96386676Y-78444388D01*
X96387397Y-78452628D01*
X96391050Y-78494388D01*
X96391379Y-78499214D01*
X96391500Y-78501686D01*
X96391500Y-78504769D01*
X96391801Y-78507837D01*
X96395690Y-78547506D01*
X96395812Y-78548819D01*
X96396925Y-78561537D01*
X96403913Y-78641413D01*
X96405400Y-78646532D01*
X96405920Y-78651833D01*
X96432791Y-78740834D01*
X96433126Y-78741967D01*
X96453775Y-78813037D01*
X96459091Y-78831336D01*
X96461544Y-78836068D01*
X96463084Y-78841169D01*
X96465978Y-78846612D01*
X96506731Y-78923260D01*
X96507343Y-78924426D01*
X96550108Y-79006926D01*
X96553431Y-79011089D01*
X96555934Y-79015796D01*
X96614755Y-79087918D01*
X96615446Y-79088774D01*
X96646738Y-79127973D01*
X96649242Y-79130477D01*
X96649884Y-79131195D01*
X96653585Y-79135528D01*
X96680935Y-79169062D01*
X96685682Y-79172989D01*
X96685684Y-79172991D01*
X96716262Y-79198287D01*
X96725042Y-79206277D01*
X99078274Y-81559508D01*
X101399764Y-83880998D01*
X101433790Y-83943310D01*
X101436660Y-83971632D01*
X101435064Y-84102263D01*
X101471404Y-84339744D01*
X101492888Y-84405475D01*
X101544434Y-84563183D01*
X101544437Y-84563189D01*
X101546042Y-84568101D01*
X101548429Y-84572687D01*
X101548431Y-84572691D01*
X101654584Y-84776607D01*
X101656975Y-84781200D01*
X101773415Y-84936283D01*
X101798320Y-85002765D01*
X101783328Y-85072161D01*
X101733198Y-85122435D01*
X101716885Y-85129915D01*
X101706707Y-85133731D01*
X101706704Y-85133733D01*
X101698295Y-85136885D01*
X101581739Y-85224239D01*
X101494385Y-85340795D01*
X101491233Y-85349203D01*
X101468542Y-85409730D01*
X101425900Y-85466494D01*
X101359338Y-85491194D01*
X101350560Y-85491500D01*
X98531867Y-85491500D01*
X98463746Y-85471498D01*
X98428655Y-85437772D01*
X98406198Y-85405700D01*
X98244300Y-85243802D01*
X98239792Y-85240645D01*
X98239789Y-85240643D01*
X98164197Y-85187713D01*
X98119869Y-85132256D01*
X98112560Y-85061636D01*
X98144591Y-84998276D01*
X98205792Y-84962291D01*
X98236468Y-84958500D01*
X98548134Y-84958500D01*
X98610316Y-84951745D01*
X98746705Y-84900615D01*
X98863261Y-84813261D01*
X98950615Y-84696705D01*
X99001745Y-84560316D01*
X99008500Y-84498134D01*
X99008500Y-82201866D01*
X99001745Y-82139684D01*
X98950615Y-82003295D01*
X98863261Y-81886739D01*
X98746705Y-81799385D01*
X98610316Y-81748255D01*
X98548134Y-81741500D01*
X96251866Y-81741500D01*
X96189684Y-81748255D01*
X96053295Y-81799385D01*
X95936739Y-81886739D01*
X95849385Y-82003295D01*
X95798255Y-82139684D01*
X95791500Y-82201866D01*
X95791500Y-83826783D01*
X95771498Y-83894904D01*
X95717842Y-83941397D01*
X95647568Y-83951501D01*
X95582988Y-83922007D01*
X95551305Y-83880033D01*
X95489849Y-83748238D01*
X95489846Y-83748233D01*
X95487523Y-83743251D01*
X95356198Y-83555700D01*
X95194300Y-83393802D01*
X95189792Y-83390645D01*
X95189789Y-83390643D01*
X95036620Y-83283393D01*
X95006749Y-83262477D01*
X95001767Y-83260154D01*
X95001762Y-83260151D01*
X94804225Y-83168039D01*
X94804224Y-83168039D01*
X94799243Y-83165716D01*
X94793935Y-83164294D01*
X94793933Y-83164293D01*
X94583402Y-83107881D01*
X94583400Y-83107881D01*
X94578087Y-83106457D01*
X94350000Y-83086502D01*
X94121913Y-83106457D01*
X94116600Y-83107881D01*
X94116598Y-83107881D01*
X93906067Y-83164293D01*
X93906065Y-83164294D01*
X93900757Y-83165716D01*
X93895776Y-83168039D01*
X93895775Y-83168039D01*
X93698238Y-83260151D01*
X93698233Y-83260154D01*
X93693251Y-83262477D01*
X93663380Y-83283393D01*
X93510211Y-83390643D01*
X93510208Y-83390645D01*
X93505700Y-83393802D01*
X93343802Y-83555700D01*
X93212477Y-83743251D01*
X93210154Y-83748233D01*
X93210151Y-83748238D01*
X93118039Y-83945775D01*
X93115716Y-83950757D01*
X93114294Y-83956065D01*
X93114293Y-83956067D01*
X93065554Y-84137963D01*
X93056457Y-84171913D01*
X93036502Y-84400000D01*
X93056457Y-84628087D01*
X93057881Y-84633400D01*
X93057881Y-84633402D01*
X93106075Y-84813261D01*
X93115716Y-84849243D01*
X93118039Y-84854224D01*
X93118039Y-84854225D01*
X93210151Y-85051762D01*
X93210154Y-85051767D01*
X93212477Y-85056749D01*
X93285902Y-85161611D01*
X93339230Y-85237770D01*
X93343802Y-85244300D01*
X93505700Y-85406198D01*
X93510208Y-85409355D01*
X93510211Y-85409357D01*
X93550789Y-85437770D01*
X93693251Y-85537523D01*
X93698233Y-85539846D01*
X93698238Y-85539849D01*
X93833202Y-85602783D01*
X93900757Y-85634284D01*
X93906065Y-85635706D01*
X93906067Y-85635707D01*
X94116598Y-85692119D01*
X94116600Y-85692119D01*
X94121913Y-85693543D01*
X94350000Y-85713498D01*
X94578087Y-85693543D01*
X94583400Y-85692119D01*
X94583402Y-85692119D01*
X94793933Y-85635707D01*
X94793935Y-85635706D01*
X94799243Y-85634284D01*
X94866798Y-85602783D01*
X95001762Y-85539849D01*
X95001767Y-85539846D01*
X95006749Y-85537523D01*
X95149211Y-85437770D01*
X95189789Y-85409357D01*
X95189792Y-85409355D01*
X95194300Y-85406198D01*
X95356198Y-85244300D01*
X95360771Y-85237770D01*
X95414098Y-85161611D01*
X95487523Y-85056749D01*
X95489846Y-85051767D01*
X95489849Y-85051762D01*
X95581961Y-84854225D01*
X95581961Y-84854224D01*
X95584284Y-84849243D01*
X95593926Y-84813261D01*
X95617986Y-84723466D01*
X95654938Y-84662843D01*
X95718799Y-84631822D01*
X95789293Y-84640250D01*
X95844040Y-84685453D01*
X95846961Y-84690239D01*
X95849385Y-84696705D01*
X95936739Y-84813261D01*
X96053295Y-84900615D01*
X96189684Y-84951745D01*
X96251866Y-84958500D01*
X96563532Y-84958500D01*
X96631653Y-84978502D01*
X96678146Y-85032158D01*
X96688250Y-85102432D01*
X96658756Y-85167012D01*
X96635803Y-85187713D01*
X96560211Y-85240643D01*
X96560208Y-85240645D01*
X96555700Y-85243802D01*
X96393802Y-85405700D01*
X96390645Y-85410208D01*
X96390643Y-85410211D01*
X96385837Y-85417075D01*
X96262477Y-85593251D01*
X96260154Y-85598233D01*
X96260151Y-85598238D01*
X96206405Y-85713498D01*
X96165716Y-85800757D01*
X96106457Y-86021913D01*
X96086502Y-86250000D01*
X96106457Y-86478087D01*
X96165716Y-86699243D01*
X96168039Y-86704224D01*
X96168039Y-86704225D01*
X96260151Y-86901762D01*
X96260154Y-86901767D01*
X96262477Y-86906749D01*
X96302770Y-86964293D01*
X96369891Y-87060151D01*
X96393802Y-87094300D01*
X96555700Y-87256198D01*
X96560208Y-87259355D01*
X96560211Y-87259357D01*
X96592493Y-87281961D01*
X96743251Y-87387523D01*
X96748233Y-87389846D01*
X96748238Y-87389849D01*
X96945775Y-87481961D01*
X96950757Y-87484284D01*
X96956065Y-87485706D01*
X96956067Y-87485707D01*
X97166598Y-87542119D01*
X97166600Y-87542119D01*
X97171913Y-87543543D01*
X97400000Y-87563498D01*
X97628087Y-87543543D01*
X97633400Y-87542119D01*
X97633402Y-87542119D01*
X97843933Y-87485707D01*
X97843935Y-87485706D01*
X97849243Y-87484284D01*
X97854225Y-87481961D01*
X98051762Y-87389849D01*
X98051767Y-87389846D01*
X98056749Y-87387523D01*
X98207507Y-87281961D01*
X98239789Y-87259357D01*
X98239792Y-87259355D01*
X98244300Y-87256198D01*
X98406198Y-87094300D01*
X98428655Y-87062229D01*
X98484110Y-87017901D01*
X98531867Y-87008500D01*
X101310500Y-87008500D01*
X101378621Y-87028502D01*
X101425114Y-87082158D01*
X101436500Y-87134500D01*
X101436500Y-87540634D01*
X101443255Y-87602816D01*
X101494385Y-87739205D01*
X101581739Y-87855761D01*
X101698295Y-87943115D01*
X101834684Y-87994245D01*
X101896866Y-88001000D01*
X103993134Y-88001000D01*
X104055316Y-87994245D01*
X104191705Y-87943115D01*
X104308261Y-87855761D01*
X104395615Y-87739205D01*
X104446745Y-87602816D01*
X104453500Y-87540634D01*
X104453500Y-85539366D01*
X104446745Y-85477184D01*
X104395615Y-85340795D01*
X104308261Y-85224239D01*
X104191705Y-85136885D01*
X104171811Y-85129427D01*
X104115047Y-85086787D01*
X104090346Y-85020226D01*
X104105553Y-84950877D01*
X104117158Y-84933353D01*
X104210367Y-84815330D01*
X104210370Y-84815325D01*
X104213568Y-84811276D01*
X104220745Y-84798276D01*
X104327177Y-84605474D01*
X104327179Y-84605470D01*
X104329674Y-84600950D01*
X104341444Y-84567715D01*
X104408144Y-84379360D01*
X104408145Y-84379356D01*
X104409870Y-84374485D01*
X104412394Y-84360316D01*
X104451095Y-84143052D01*
X104451096Y-84143046D01*
X104452001Y-84137963D01*
X104454223Y-83956067D01*
X104454873Y-83902907D01*
X104454873Y-83902905D01*
X104454936Y-83897737D01*
X104418596Y-83660256D01*
X104367808Y-83504868D01*
X104345566Y-83436817D01*
X104345563Y-83436811D01*
X104343958Y-83431899D01*
X104326155Y-83397699D01*
X104235416Y-83223393D01*
X104233025Y-83218800D01*
X104149745Y-83107881D01*
X104091882Y-83030815D01*
X104091880Y-83030812D01*
X104088777Y-83026680D01*
X103915088Y-82860699D01*
X103877649Y-82835160D01*
X103832648Y-82780249D01*
X103824477Y-82709725D01*
X103855731Y-82645978D01*
X103880210Y-82625284D01*
X103882326Y-82623915D01*
X103890498Y-82617622D01*
X104060480Y-82462950D01*
X104067506Y-82455417D01*
X104209945Y-82275056D01*
X104215650Y-82266469D01*
X104326714Y-82065278D01*
X104330944Y-82055866D01*
X104407659Y-81839232D01*
X104410293Y-81829261D01*
X104427647Y-81731837D01*
X104426187Y-81718540D01*
X104411630Y-81714000D01*
X102817000Y-81714000D01*
X102748879Y-81693998D01*
X102702386Y-81640342D01*
X102691000Y-81588000D01*
X102691000Y-81187885D01*
X103199000Y-81187885D01*
X103203475Y-81203124D01*
X103204865Y-81204329D01*
X103212548Y-81206000D01*
X104413096Y-81206000D01*
X104426440Y-81202082D01*
X104428427Y-81187806D01*
X104418890Y-81125485D01*
X104416501Y-81115457D01*
X104345102Y-80897012D01*
X104341105Y-80887503D01*
X104234989Y-80683656D01*
X104229495Y-80674931D01*
X104091507Y-80491148D01*
X104084664Y-80483441D01*
X103918509Y-80324661D01*
X103910499Y-80318174D01*
X103720653Y-80188670D01*
X103711679Y-80183571D01*
X103503231Y-80086813D01*
X103493544Y-80083250D01*
X103272092Y-80021835D01*
X103261970Y-80019904D01*
X103217013Y-80015099D01*
X103202392Y-80017747D01*
X103199000Y-80030124D01*
X103199000Y-81187885D01*
X102691000Y-81187885D01*
X102691000Y-80029588D01*
X102686675Y-80014859D01*
X102674889Y-80012798D01*
X102663296Y-80013751D01*
X102653134Y-80015433D01*
X102430229Y-80071422D01*
X102420481Y-80074741D01*
X102209711Y-80166385D01*
X102200636Y-80171251D01*
X102007673Y-80296085D01*
X101999502Y-80302378D01*
X101829520Y-80457050D01*
X101822494Y-80464583D01*
X101680055Y-80644944D01*
X101674350Y-80653531D01*
X101563286Y-80854722D01*
X101559054Y-80864138D01*
X101541068Y-80914929D01*
X101499474Y-80972466D01*
X101433377Y-80998382D01*
X101363761Y-80984448D01*
X101333200Y-80961965D01*
X98445405Y-78074171D01*
X98411379Y-78011859D01*
X98408500Y-77985076D01*
X98408500Y-75700000D01*
X100286502Y-75700000D01*
X100306457Y-75928087D01*
X100365716Y-76149243D01*
X100368039Y-76154224D01*
X100368039Y-76154225D01*
X100460151Y-76351762D01*
X100460154Y-76351767D01*
X100462477Y-76356749D01*
X100465634Y-76361257D01*
X100569335Y-76509357D01*
X100593802Y-76544300D01*
X100755700Y-76706198D01*
X100760208Y-76709355D01*
X100760211Y-76709357D01*
X100792493Y-76731961D01*
X100943251Y-76837523D01*
X100948233Y-76839846D01*
X100948238Y-76839849D01*
X101145775Y-76931961D01*
X101150757Y-76934284D01*
X101156065Y-76935706D01*
X101156067Y-76935707D01*
X101366598Y-76992119D01*
X101366600Y-76992119D01*
X101371913Y-76993543D01*
X101600000Y-77013498D01*
X101828087Y-76993543D01*
X101833400Y-76992119D01*
X101833402Y-76992119D01*
X102043933Y-76935707D01*
X102043935Y-76935706D01*
X102049243Y-76934284D01*
X102054225Y-76931961D01*
X102251762Y-76839849D01*
X102251767Y-76839846D01*
X102256749Y-76837523D01*
X102407507Y-76731961D01*
X102439789Y-76709357D01*
X102439792Y-76709355D01*
X102444300Y-76706198D01*
X102606198Y-76544300D01*
X102630666Y-76509357D01*
X102734366Y-76361257D01*
X102737523Y-76356749D01*
X102739846Y-76351767D01*
X102739849Y-76351762D01*
X102831961Y-76154225D01*
X102831961Y-76154224D01*
X102834284Y-76149243D01*
X102893543Y-75928087D01*
X102913498Y-75700000D01*
X102893543Y-75471913D01*
X102834284Y-75250757D01*
X102831961Y-75245775D01*
X102739849Y-75048238D01*
X102739846Y-75048233D01*
X102737523Y-75043251D01*
X102606198Y-74855700D01*
X102444300Y-74693802D01*
X102439792Y-74690645D01*
X102439789Y-74690643D01*
X102361611Y-74635902D01*
X102256749Y-74562477D01*
X102251767Y-74560154D01*
X102251762Y-74560151D01*
X102054225Y-74468039D01*
X102054224Y-74468039D01*
X102049243Y-74465716D01*
X102043935Y-74464294D01*
X102043933Y-74464293D01*
X101833402Y-74407881D01*
X101833400Y-74407881D01*
X101828087Y-74406457D01*
X101600000Y-74386502D01*
X101371913Y-74406457D01*
X101366600Y-74407881D01*
X101366598Y-74407881D01*
X101156067Y-74464293D01*
X101156065Y-74464294D01*
X101150757Y-74465716D01*
X101145776Y-74468039D01*
X101145775Y-74468039D01*
X100948238Y-74560151D01*
X100948233Y-74560154D01*
X100943251Y-74562477D01*
X100838389Y-74635902D01*
X100760211Y-74690643D01*
X100760208Y-74690645D01*
X100755700Y-74693802D01*
X100593802Y-74855700D01*
X100462477Y-75043251D01*
X100460154Y-75048233D01*
X100460151Y-75048238D01*
X100368039Y-75245775D01*
X100365716Y-75250757D01*
X100306457Y-75471913D01*
X100286502Y-75700000D01*
X98408500Y-75700000D01*
X98408500Y-71962064D01*
X98428502Y-71893943D01*
X98452669Y-71866253D01*
X98537142Y-71794106D01*
X98540898Y-71790898D01*
X98573549Y-71752669D01*
X98633000Y-71713860D01*
X98669360Y-71708500D01*
X100719260Y-71708500D01*
X100791531Y-71731287D01*
X100943251Y-71837523D01*
X100948233Y-71839846D01*
X100948238Y-71839849D01*
X101145775Y-71931961D01*
X101150757Y-71934284D01*
X101156065Y-71935706D01*
X101156067Y-71935707D01*
X101366598Y-71992119D01*
X101366600Y-71992119D01*
X101371913Y-71993543D01*
X101600000Y-72013498D01*
X101828087Y-71993543D01*
X101833400Y-71992119D01*
X101833402Y-71992119D01*
X102043933Y-71935707D01*
X102043935Y-71935706D01*
X102049243Y-71934284D01*
X102054225Y-71931961D01*
X102251762Y-71839849D01*
X102251767Y-71839846D01*
X102256749Y-71837523D01*
X102407507Y-71731961D01*
X102439789Y-71709357D01*
X102439792Y-71709355D01*
X102444300Y-71706198D01*
X102606198Y-71544300D01*
X102630666Y-71509357D01*
X102714649Y-71389416D01*
X102737523Y-71356749D01*
X102739846Y-71351767D01*
X102739849Y-71351762D01*
X102831961Y-71154225D01*
X102831961Y-71154224D01*
X102834284Y-71149243D01*
X102893543Y-70928087D01*
X102898692Y-70869231D01*
X102924555Y-70803113D01*
X102935118Y-70791117D01*
X105369379Y-68356855D01*
X105379522Y-68347753D01*
X105404218Y-68327897D01*
X105409025Y-68324032D01*
X105441292Y-68285578D01*
X105444472Y-68281931D01*
X105446115Y-68280119D01*
X105448309Y-68277925D01*
X105475642Y-68244651D01*
X105476348Y-68243800D01*
X105532195Y-68177244D01*
X105536154Y-68172526D01*
X105538722Y-68167856D01*
X105542103Y-68163739D01*
X105585977Y-68081914D01*
X105586606Y-68080755D01*
X105628462Y-68004619D01*
X105628465Y-68004611D01*
X105631433Y-67999213D01*
X105633045Y-67994131D01*
X105635562Y-67989437D01*
X105662762Y-67900469D01*
X105663108Y-67899358D01*
X105689373Y-67816563D01*
X105691235Y-67810694D01*
X105691829Y-67805398D01*
X105693387Y-67800302D01*
X105702790Y-67707743D01*
X105702911Y-67706607D01*
X105708500Y-67656773D01*
X105708500Y-67653246D01*
X105708555Y-67652261D01*
X105709002Y-67646581D01*
X105713374Y-67603538D01*
X105709059Y-67557891D01*
X105708500Y-67546033D01*
X105708500Y-65543272D01*
X105728502Y-65475151D01*
X105753086Y-65447107D01*
X105900862Y-65322006D01*
X106068295Y-65131084D01*
X106129718Y-65035592D01*
X106203141Y-64921442D01*
X106205669Y-64917512D01*
X106309967Y-64685980D01*
X106328528Y-64620167D01*
X106366269Y-64560033D01*
X106430530Y-64529850D01*
X106500909Y-64539200D01*
X106555059Y-64585116D01*
X106568385Y-64611789D01*
X106634831Y-64796858D01*
X106637048Y-64800984D01*
X106713925Y-64944059D01*
X106755025Y-65020551D01*
X106757820Y-65024294D01*
X106757822Y-65024297D01*
X106904171Y-65220282D01*
X106904176Y-65220288D01*
X106906963Y-65224020D01*
X106910272Y-65227300D01*
X106910277Y-65227306D01*
X107083990Y-65399509D01*
X107087307Y-65402797D01*
X107091069Y-65405555D01*
X107091072Y-65405558D01*
X107185985Y-65475151D01*
X107292094Y-65552953D01*
X107296229Y-65555129D01*
X107296233Y-65555131D01*
X107414289Y-65617243D01*
X107516827Y-65671191D01*
X107651160Y-65718102D01*
X107752021Y-65753324D01*
X107756568Y-65754912D01*
X108006050Y-65802278D01*
X108126532Y-65807011D01*
X108255125Y-65812064D01*
X108255130Y-65812064D01*
X108259793Y-65812247D01*
X108358774Y-65801407D01*
X108507569Y-65785112D01*
X108507575Y-65785111D01*
X108512222Y-65784602D01*
X108621680Y-65755784D01*
X108753273Y-65721138D01*
X108757793Y-65719948D01*
X108907280Y-65655724D01*
X108986807Y-65621557D01*
X108986810Y-65621555D01*
X108991110Y-65619708D01*
X108995090Y-65617245D01*
X108995094Y-65617243D01*
X109203064Y-65488547D01*
X109203066Y-65488545D01*
X109207047Y-65486082D01*
X109210624Y-65483054D01*
X109397289Y-65325031D01*
X109397291Y-65325029D01*
X109400862Y-65322006D01*
X109568295Y-65131084D01*
X109629718Y-65035592D01*
X109703141Y-64921442D01*
X109705669Y-64917512D01*
X109809967Y-64685980D01*
X109828528Y-64620167D01*
X109866269Y-64560033D01*
X109930530Y-64529850D01*
X110000909Y-64539200D01*
X110055059Y-64585116D01*
X110068385Y-64611789D01*
X110134831Y-64796858D01*
X110137048Y-64800984D01*
X110213925Y-64944059D01*
X110255025Y-65020551D01*
X110257820Y-65024295D01*
X110257822Y-65024297D01*
X110366458Y-65169778D01*
X110391190Y-65236328D01*
X110391500Y-65245167D01*
X110391500Y-69565500D01*
X110371498Y-69633621D01*
X110317842Y-69680114D01*
X110265500Y-69691500D01*
X108554768Y-69691500D01*
X108486647Y-69671498D01*
X108458957Y-69647331D01*
X108344106Y-69512858D01*
X108340898Y-69509102D01*
X108148376Y-69344672D01*
X107932502Y-69212384D01*
X107927932Y-69210491D01*
X107927928Y-69210489D01*
X107703164Y-69117389D01*
X107703162Y-69117388D01*
X107698591Y-69115495D01*
X107613968Y-69095179D01*
X107457216Y-69057546D01*
X107457210Y-69057545D01*
X107452403Y-69056391D01*
X107200000Y-69036526D01*
X106947597Y-69056391D01*
X106942790Y-69057545D01*
X106942784Y-69057546D01*
X106786032Y-69095179D01*
X106701409Y-69115495D01*
X106696838Y-69117388D01*
X106696836Y-69117389D01*
X106472072Y-69210489D01*
X106472068Y-69210491D01*
X106467498Y-69212384D01*
X106251624Y-69344672D01*
X106059102Y-69509102D01*
X105894672Y-69701624D01*
X105762384Y-69917498D01*
X105760491Y-69922068D01*
X105760489Y-69922072D01*
X105707186Y-70050757D01*
X105665495Y-70151409D01*
X105664340Y-70156221D01*
X105618673Y-70346440D01*
X105606391Y-70397597D01*
X105586526Y-70650000D01*
X105606391Y-70902403D01*
X105607545Y-70907210D01*
X105607546Y-70907216D01*
X105645179Y-71063968D01*
X105665495Y-71148591D01*
X105667388Y-71153162D01*
X105667389Y-71153164D01*
X105751717Y-71356749D01*
X105762384Y-71382502D01*
X105894672Y-71598376D01*
X106059102Y-71790898D01*
X106062858Y-71794106D01*
X106147331Y-71866253D01*
X106186140Y-71925704D01*
X106191500Y-71962064D01*
X106191500Y-78296966D01*
X106190763Y-78310573D01*
X106186676Y-78348197D01*
X106187213Y-78354332D01*
X106191050Y-78398197D01*
X106191379Y-78403023D01*
X106191500Y-78405495D01*
X106191500Y-78408578D01*
X106191801Y-78411646D01*
X106195690Y-78451315D01*
X106195812Y-78452628D01*
X106203913Y-78545222D01*
X106205400Y-78550341D01*
X106205920Y-78555642D01*
X106232791Y-78644643D01*
X106233126Y-78645776D01*
X106236599Y-78657728D01*
X106259091Y-78735145D01*
X106261544Y-78739877D01*
X106263084Y-78744978D01*
X106265978Y-78750421D01*
X106306731Y-78827069D01*
X106307343Y-78828235D01*
X106314048Y-78841169D01*
X106350108Y-78910735D01*
X106353431Y-78914898D01*
X106355934Y-78919605D01*
X106414755Y-78991727D01*
X106415446Y-78992583D01*
X106446738Y-79031782D01*
X106449242Y-79034286D01*
X106449884Y-79035004D01*
X106453585Y-79039337D01*
X106480935Y-79072871D01*
X106485682Y-79076798D01*
X106485684Y-79076800D01*
X106516262Y-79102096D01*
X106525042Y-79110086D01*
X108874869Y-81459912D01*
X111206488Y-83791531D01*
X111240514Y-83853843D01*
X111241440Y-83902721D01*
X111237999Y-83922037D01*
X111237739Y-83943310D01*
X111235735Y-84107377D01*
X111235064Y-84162263D01*
X111271404Y-84399744D01*
X111303563Y-84498134D01*
X111344434Y-84623183D01*
X111344437Y-84623189D01*
X111346042Y-84628101D01*
X111348429Y-84632687D01*
X111348431Y-84632691D01*
X111385431Y-84703767D01*
X111456975Y-84841200D01*
X111573415Y-84996283D01*
X111598320Y-85062765D01*
X111583328Y-85132161D01*
X111533198Y-85182435D01*
X111516885Y-85189915D01*
X111506707Y-85193731D01*
X111506704Y-85193733D01*
X111498295Y-85196885D01*
X111381739Y-85284239D01*
X111294385Y-85400795D01*
X111291233Y-85409202D01*
X111291230Y-85409208D01*
X111291033Y-85409734D01*
X111290698Y-85410180D01*
X111286923Y-85417075D01*
X111285927Y-85416530D01*
X111248389Y-85466497D01*
X111181827Y-85491194D01*
X111173053Y-85491500D01*
X108331867Y-85491500D01*
X108263746Y-85471498D01*
X108228655Y-85437772D01*
X108206198Y-85405700D01*
X108044300Y-85243802D01*
X108039792Y-85240645D01*
X108039789Y-85240643D01*
X107964197Y-85187713D01*
X107919869Y-85132256D01*
X107912560Y-85061636D01*
X107944591Y-84998276D01*
X108005792Y-84962291D01*
X108036468Y-84958500D01*
X108348134Y-84958500D01*
X108410316Y-84951745D01*
X108546705Y-84900615D01*
X108663261Y-84813261D01*
X108750615Y-84696705D01*
X108801745Y-84560316D01*
X108808500Y-84498134D01*
X108808500Y-82201866D01*
X108801745Y-82139684D01*
X108750615Y-82003295D01*
X108663261Y-81886739D01*
X108546705Y-81799385D01*
X108410316Y-81748255D01*
X108348134Y-81741500D01*
X106051866Y-81741500D01*
X105989684Y-81748255D01*
X105853295Y-81799385D01*
X105736739Y-81886739D01*
X105649385Y-82003295D01*
X105598255Y-82139684D01*
X105591500Y-82201866D01*
X105591500Y-84498134D01*
X105598255Y-84560316D01*
X105649385Y-84696705D01*
X105736739Y-84813261D01*
X105853295Y-84900615D01*
X105989684Y-84951745D01*
X106051866Y-84958500D01*
X106363532Y-84958500D01*
X106431653Y-84978502D01*
X106478146Y-85032158D01*
X106488250Y-85102432D01*
X106458756Y-85167012D01*
X106435803Y-85187713D01*
X106360211Y-85240643D01*
X106360208Y-85240645D01*
X106355700Y-85243802D01*
X106193802Y-85405700D01*
X106190645Y-85410208D01*
X106190643Y-85410211D01*
X106185837Y-85417075D01*
X106062477Y-85593251D01*
X106060154Y-85598233D01*
X106060151Y-85598238D01*
X106006405Y-85713498D01*
X105965716Y-85800757D01*
X105906457Y-86021913D01*
X105886502Y-86250000D01*
X105906457Y-86478087D01*
X105965716Y-86699243D01*
X105968039Y-86704224D01*
X105968039Y-86704225D01*
X106060151Y-86901762D01*
X106060154Y-86901767D01*
X106062477Y-86906749D01*
X106102770Y-86964293D01*
X106169891Y-87060151D01*
X106193802Y-87094300D01*
X106355700Y-87256198D01*
X106360208Y-87259355D01*
X106360211Y-87259357D01*
X106392493Y-87281961D01*
X106543251Y-87387523D01*
X106548233Y-87389846D01*
X106548238Y-87389849D01*
X106745775Y-87481961D01*
X106750757Y-87484284D01*
X106756065Y-87485706D01*
X106756067Y-87485707D01*
X106966598Y-87542119D01*
X106966600Y-87542119D01*
X106971913Y-87543543D01*
X107200000Y-87563498D01*
X107428087Y-87543543D01*
X107433400Y-87542119D01*
X107433402Y-87542119D01*
X107643933Y-87485707D01*
X107643935Y-87485706D01*
X107649243Y-87484284D01*
X107654225Y-87481961D01*
X107851762Y-87389849D01*
X107851767Y-87389846D01*
X107856749Y-87387523D01*
X108007507Y-87281961D01*
X108039789Y-87259357D01*
X108039792Y-87259355D01*
X108044300Y-87256198D01*
X108206198Y-87094300D01*
X108228655Y-87062229D01*
X108284110Y-87017901D01*
X108331867Y-87008500D01*
X111110500Y-87008500D01*
X111178621Y-87028502D01*
X111225114Y-87082158D01*
X111236500Y-87134500D01*
X111236500Y-87600634D01*
X111243255Y-87662816D01*
X111294385Y-87799205D01*
X111381739Y-87915761D01*
X111498295Y-88003115D01*
X111634684Y-88054245D01*
X111696866Y-88061000D01*
X113793134Y-88061000D01*
X113855316Y-88054245D01*
X113991705Y-88003115D01*
X114108261Y-87915761D01*
X114195615Y-87799205D01*
X114246745Y-87662816D01*
X114253500Y-87600634D01*
X114253500Y-85599366D01*
X114246745Y-85537184D01*
X114195615Y-85400795D01*
X114108261Y-85284239D01*
X113991705Y-85196885D01*
X113971811Y-85189427D01*
X113915047Y-85146787D01*
X113890346Y-85080226D01*
X113905553Y-85010877D01*
X113917158Y-84993353D01*
X114010367Y-84875330D01*
X114010370Y-84875325D01*
X114013568Y-84871276D01*
X114027885Y-84845342D01*
X114127177Y-84665474D01*
X114127179Y-84665470D01*
X114129674Y-84660950D01*
X114137005Y-84640250D01*
X114208144Y-84439360D01*
X114208145Y-84439356D01*
X114209870Y-84434485D01*
X114210778Y-84429389D01*
X114251095Y-84203052D01*
X114251096Y-84203046D01*
X114252001Y-84197963D01*
X114254936Y-83957737D01*
X114218596Y-83720256D01*
X114164811Y-83555700D01*
X114145566Y-83496817D01*
X114145563Y-83496811D01*
X114143958Y-83491899D01*
X114110335Y-83427309D01*
X114035416Y-83283393D01*
X114033025Y-83278800D01*
X113903626Y-83106457D01*
X113891882Y-83090815D01*
X113891880Y-83090812D01*
X113888777Y-83086680D01*
X113715088Y-82920699D01*
X113677649Y-82895160D01*
X113632648Y-82840249D01*
X113624477Y-82769725D01*
X113655731Y-82705978D01*
X113680210Y-82685284D01*
X113682326Y-82683915D01*
X113690498Y-82677622D01*
X113860480Y-82522950D01*
X113867506Y-82515417D01*
X114009945Y-82335056D01*
X114015650Y-82326469D01*
X114126714Y-82125278D01*
X114130944Y-82115866D01*
X114207659Y-81899232D01*
X114210293Y-81889261D01*
X114227647Y-81791837D01*
X114226187Y-81778540D01*
X114211630Y-81774000D01*
X112617000Y-81774000D01*
X112548879Y-81753998D01*
X112502386Y-81700342D01*
X112491000Y-81648000D01*
X112491000Y-81247885D01*
X112999000Y-81247885D01*
X113003475Y-81263124D01*
X113004865Y-81264329D01*
X113012548Y-81266000D01*
X114213096Y-81266000D01*
X114226440Y-81262082D01*
X114228427Y-81247806D01*
X114218890Y-81185485D01*
X114216501Y-81175457D01*
X114145102Y-80957012D01*
X114141105Y-80947503D01*
X114034989Y-80743656D01*
X114029495Y-80734931D01*
X113891507Y-80551148D01*
X113884664Y-80543441D01*
X113718509Y-80384661D01*
X113710499Y-80378174D01*
X113520653Y-80248670D01*
X113511679Y-80243571D01*
X113303231Y-80146813D01*
X113293544Y-80143250D01*
X113072092Y-80081835D01*
X113061970Y-80079904D01*
X113017013Y-80075099D01*
X113002392Y-80077747D01*
X112999000Y-80090124D01*
X112999000Y-81247885D01*
X112491000Y-81247885D01*
X112491000Y-80089588D01*
X112486675Y-80074859D01*
X112474889Y-80072798D01*
X112463296Y-80073751D01*
X112453134Y-80075433D01*
X112230229Y-80131422D01*
X112220481Y-80134741D01*
X112009711Y-80226385D01*
X112000636Y-80231251D01*
X111807673Y-80356085D01*
X111799502Y-80362378D01*
X111629520Y-80517050D01*
X111622494Y-80524583D01*
X111480055Y-80704944D01*
X111474350Y-80713531D01*
X111379813Y-80884784D01*
X111329381Y-80934754D01*
X111259938Y-80949526D01*
X111193533Y-80924410D01*
X111180415Y-80912989D01*
X108245405Y-77977980D01*
X108211379Y-77915668D01*
X108208500Y-77888885D01*
X108208500Y-75700000D01*
X110086502Y-75700000D01*
X110106457Y-75928087D01*
X110165716Y-76149243D01*
X110168039Y-76154224D01*
X110168039Y-76154225D01*
X110260151Y-76351762D01*
X110260154Y-76351767D01*
X110262477Y-76356749D01*
X110265634Y-76361257D01*
X110369335Y-76509357D01*
X110393802Y-76544300D01*
X110555700Y-76706198D01*
X110560208Y-76709355D01*
X110560211Y-76709357D01*
X110592493Y-76731961D01*
X110743251Y-76837523D01*
X110748233Y-76839846D01*
X110748238Y-76839849D01*
X110945775Y-76931961D01*
X110950757Y-76934284D01*
X110956065Y-76935706D01*
X110956067Y-76935707D01*
X111166598Y-76992119D01*
X111166600Y-76992119D01*
X111171913Y-76993543D01*
X111400000Y-77013498D01*
X111628087Y-76993543D01*
X111633400Y-76992119D01*
X111633402Y-76992119D01*
X111843933Y-76935707D01*
X111843935Y-76935706D01*
X111849243Y-76934284D01*
X111854225Y-76931961D01*
X112051762Y-76839849D01*
X112051767Y-76839846D01*
X112056749Y-76837523D01*
X112207507Y-76731961D01*
X112239789Y-76709357D01*
X112239792Y-76709355D01*
X112244300Y-76706198D01*
X112406198Y-76544300D01*
X112430666Y-76509357D01*
X112534366Y-76361257D01*
X112537523Y-76356749D01*
X112539846Y-76351767D01*
X112539849Y-76351762D01*
X112631961Y-76154225D01*
X112631961Y-76154224D01*
X112634284Y-76149243D01*
X112693543Y-75928087D01*
X112713498Y-75700000D01*
X112693543Y-75471913D01*
X112634284Y-75250757D01*
X112631961Y-75245775D01*
X112539849Y-75048238D01*
X112539846Y-75048233D01*
X112537523Y-75043251D01*
X112406198Y-74855700D01*
X112244300Y-74693802D01*
X112239792Y-74690645D01*
X112239789Y-74690643D01*
X112161611Y-74635902D01*
X112056749Y-74562477D01*
X112051767Y-74560154D01*
X112051762Y-74560151D01*
X111854225Y-74468039D01*
X111854224Y-74468039D01*
X111849243Y-74465716D01*
X111843935Y-74464294D01*
X111843933Y-74464293D01*
X111633402Y-74407881D01*
X111633400Y-74407881D01*
X111628087Y-74406457D01*
X111400000Y-74386502D01*
X111171913Y-74406457D01*
X111166600Y-74407881D01*
X111166598Y-74407881D01*
X110956067Y-74464293D01*
X110956065Y-74464294D01*
X110950757Y-74465716D01*
X110945776Y-74468039D01*
X110945775Y-74468039D01*
X110748238Y-74560151D01*
X110748233Y-74560154D01*
X110743251Y-74562477D01*
X110638389Y-74635902D01*
X110560211Y-74690643D01*
X110560208Y-74690645D01*
X110555700Y-74693802D01*
X110393802Y-74855700D01*
X110262477Y-75043251D01*
X110260154Y-75048233D01*
X110260151Y-75048238D01*
X110168039Y-75245775D01*
X110165716Y-75250757D01*
X110106457Y-75471913D01*
X110086502Y-75700000D01*
X108208500Y-75700000D01*
X108208500Y-71962064D01*
X108228502Y-71893943D01*
X108252669Y-71866253D01*
X108337142Y-71794106D01*
X108340898Y-71790898D01*
X108373549Y-71752669D01*
X108433000Y-71713860D01*
X108469360Y-71708500D01*
X110519260Y-71708500D01*
X110591531Y-71731287D01*
X110743251Y-71837523D01*
X110748233Y-71839846D01*
X110748238Y-71839849D01*
X110945775Y-71931961D01*
X110950757Y-71934284D01*
X110956065Y-71935706D01*
X110956067Y-71935707D01*
X111166598Y-71992119D01*
X111166600Y-71992119D01*
X111171913Y-71993543D01*
X111400000Y-72013498D01*
X111628087Y-71993543D01*
X111633400Y-71992119D01*
X111633402Y-71992119D01*
X111843933Y-71935707D01*
X111843935Y-71935706D01*
X111849243Y-71934284D01*
X111854225Y-71931961D01*
X112051762Y-71839849D01*
X112051767Y-71839846D01*
X112056749Y-71837523D01*
X112207507Y-71731961D01*
X112239789Y-71709357D01*
X112239792Y-71709355D01*
X112244300Y-71706198D01*
X112406198Y-71544300D01*
X112430666Y-71509357D01*
X112514649Y-71389416D01*
X112537523Y-71356749D01*
X112539846Y-71351767D01*
X112539849Y-71351762D01*
X112631961Y-71154225D01*
X112631961Y-71154224D01*
X112634284Y-71149243D01*
X112684247Y-70962782D01*
X112692119Y-70933402D01*
X112692119Y-70933400D01*
X112693543Y-70928087D01*
X112713498Y-70700000D01*
X112693543Y-70471913D01*
X112692119Y-70466598D01*
X112635707Y-70256067D01*
X112635706Y-70256065D01*
X112634284Y-70250757D01*
X112595989Y-70168632D01*
X112539849Y-70048238D01*
X112539846Y-70048233D01*
X112537523Y-70043251D01*
X112431287Y-69891531D01*
X112408500Y-69819260D01*
X112408500Y-65738203D01*
X112428502Y-65670082D01*
X112482844Y-65624062D01*
X112482663Y-65623715D01*
X112484195Y-65622917D01*
X112484767Y-65622433D01*
X112491110Y-65619708D01*
X112623061Y-65538054D01*
X112703064Y-65488547D01*
X112703066Y-65488545D01*
X112707047Y-65486082D01*
X112710624Y-65483054D01*
X112897289Y-65325031D01*
X112897291Y-65325029D01*
X112900862Y-65322006D01*
X113068295Y-65131084D01*
X113129718Y-65035592D01*
X113203141Y-64921442D01*
X113205669Y-64917512D01*
X113309967Y-64685980D01*
X113328528Y-64620167D01*
X113366269Y-64560033D01*
X113430530Y-64529850D01*
X113500909Y-64539200D01*
X113555059Y-64585116D01*
X113568385Y-64611789D01*
X113634831Y-64796858D01*
X113637048Y-64800984D01*
X113713925Y-64944059D01*
X113755025Y-65020551D01*
X113757820Y-65024294D01*
X113757822Y-65024297D01*
X113904171Y-65220282D01*
X113904176Y-65220288D01*
X113906963Y-65224020D01*
X113910272Y-65227300D01*
X113910277Y-65227306D01*
X114083990Y-65399509D01*
X114087307Y-65402797D01*
X114091069Y-65405555D01*
X114091072Y-65405558D01*
X114185985Y-65475151D01*
X114292094Y-65552953D01*
X114296229Y-65555129D01*
X114296233Y-65555131D01*
X114414289Y-65617243D01*
X114516827Y-65671191D01*
X114651160Y-65718102D01*
X114752021Y-65753324D01*
X114756568Y-65754912D01*
X115006050Y-65802278D01*
X115126532Y-65807011D01*
X115255125Y-65812064D01*
X115255130Y-65812064D01*
X115259793Y-65812247D01*
X115358774Y-65801407D01*
X115507569Y-65785112D01*
X115507575Y-65785111D01*
X115512222Y-65784602D01*
X115621680Y-65755784D01*
X115753273Y-65721138D01*
X115757793Y-65719948D01*
X115907280Y-65655724D01*
X115986807Y-65621557D01*
X115986810Y-65621555D01*
X115991110Y-65619708D01*
X115995090Y-65617245D01*
X115995094Y-65617243D01*
X116203064Y-65488547D01*
X116203066Y-65488545D01*
X116207047Y-65486082D01*
X116210624Y-65483054D01*
X116397289Y-65325031D01*
X116397291Y-65325029D01*
X116400862Y-65322006D01*
X116568295Y-65131084D01*
X116629718Y-65035592D01*
X116703141Y-64921442D01*
X116705669Y-64917512D01*
X116809967Y-64685980D01*
X116828528Y-64620167D01*
X116866269Y-64560033D01*
X116930530Y-64529850D01*
X117000909Y-64539200D01*
X117055059Y-64585116D01*
X117068385Y-64611789D01*
X117134831Y-64796858D01*
X117137048Y-64800984D01*
X117213925Y-64944059D01*
X117255025Y-65020551D01*
X117257820Y-65024294D01*
X117257822Y-65024297D01*
X117404171Y-65220282D01*
X117404176Y-65220288D01*
X117406963Y-65224020D01*
X117410272Y-65227300D01*
X117410277Y-65227306D01*
X117583990Y-65399509D01*
X117587307Y-65402797D01*
X117591069Y-65405555D01*
X117591072Y-65405558D01*
X117640005Y-65441437D01*
X117683113Y-65497848D01*
X117691500Y-65543049D01*
X117691500Y-68680076D01*
X117671498Y-68748197D01*
X117654595Y-68769171D01*
X117614653Y-68809113D01*
X117552341Y-68843139D01*
X117515675Y-68845630D01*
X117400000Y-68836526D01*
X117147597Y-68856391D01*
X117142790Y-68857545D01*
X117142784Y-68857546D01*
X116986032Y-68895179D01*
X116901409Y-68915495D01*
X116896838Y-68917388D01*
X116896836Y-68917389D01*
X116672072Y-69010489D01*
X116672068Y-69010491D01*
X116667498Y-69012384D01*
X116451624Y-69144672D01*
X116259102Y-69309102D01*
X116094672Y-69501624D01*
X115962384Y-69717498D01*
X115960491Y-69722068D01*
X115960489Y-69722072D01*
X115903777Y-69858988D01*
X115865495Y-69951409D01*
X115863631Y-69959173D01*
X115813345Y-70168632D01*
X115806391Y-70197597D01*
X115786526Y-70450000D01*
X115806391Y-70702403D01*
X115807545Y-70707210D01*
X115807546Y-70707216D01*
X115845179Y-70863968D01*
X115865495Y-70948591D01*
X115867388Y-70953162D01*
X115867389Y-70953164D01*
X115951717Y-71156749D01*
X115962384Y-71182502D01*
X116094672Y-71398376D01*
X116259102Y-71590898D01*
X116262858Y-71594106D01*
X116347331Y-71666253D01*
X116386140Y-71725704D01*
X116391500Y-71762064D01*
X116391500Y-78393157D01*
X116390763Y-78406764D01*
X116387828Y-78433787D01*
X116386676Y-78444388D01*
X116387397Y-78452628D01*
X116391050Y-78494388D01*
X116391379Y-78499214D01*
X116391500Y-78501686D01*
X116391500Y-78504769D01*
X116391801Y-78507837D01*
X116395690Y-78547506D01*
X116395812Y-78548819D01*
X116396925Y-78561537D01*
X116403913Y-78641413D01*
X116405400Y-78646532D01*
X116405920Y-78651833D01*
X116432791Y-78740834D01*
X116433126Y-78741967D01*
X116453775Y-78813037D01*
X116459091Y-78831336D01*
X116461544Y-78836068D01*
X116463084Y-78841169D01*
X116465978Y-78846612D01*
X116506731Y-78923260D01*
X116507343Y-78924426D01*
X116550108Y-79006926D01*
X116553431Y-79011089D01*
X116555934Y-79015796D01*
X116614755Y-79087918D01*
X116615446Y-79088774D01*
X116646738Y-79127973D01*
X116649242Y-79130477D01*
X116649884Y-79131195D01*
X116653585Y-79135528D01*
X116680935Y-79169062D01*
X116685682Y-79172989D01*
X116685684Y-79172991D01*
X116716262Y-79198287D01*
X116725042Y-79206277D01*
X118978677Y-81459912D01*
X119012703Y-81522224D01*
X119011759Y-81535422D01*
X119076445Y-81559508D01*
X119090088Y-81571323D01*
X121399764Y-83880998D01*
X121433789Y-83943310D01*
X121436660Y-83971632D01*
X121435064Y-84102263D01*
X121471404Y-84339744D01*
X121492888Y-84405475D01*
X121544434Y-84563183D01*
X121544437Y-84563189D01*
X121546042Y-84568101D01*
X121548429Y-84572687D01*
X121548431Y-84572691D01*
X121654584Y-84776607D01*
X121656975Y-84781200D01*
X121773415Y-84936283D01*
X121798320Y-85002765D01*
X121783328Y-85072161D01*
X121733198Y-85122435D01*
X121716885Y-85129915D01*
X121706707Y-85133731D01*
X121706704Y-85133733D01*
X121698295Y-85136885D01*
X121581739Y-85224239D01*
X121569129Y-85241065D01*
X121512272Y-85283579D01*
X121468303Y-85291500D01*
X118531867Y-85291500D01*
X118463746Y-85271498D01*
X118428655Y-85237772D01*
X118406198Y-85205700D01*
X118244300Y-85043802D01*
X118239792Y-85040645D01*
X118239789Y-85040643D01*
X118164197Y-84987713D01*
X118119869Y-84932256D01*
X118112560Y-84861636D01*
X118144591Y-84798276D01*
X118205792Y-84762291D01*
X118236468Y-84758500D01*
X118548134Y-84758500D01*
X118610316Y-84751745D01*
X118746705Y-84700615D01*
X118863261Y-84613261D01*
X118950615Y-84496705D01*
X119001745Y-84360316D01*
X119008500Y-84298134D01*
X119008500Y-82001866D01*
X119001745Y-81939684D01*
X118950615Y-81803295D01*
X118900167Y-81735982D01*
X118875380Y-81669641D01*
X118829197Y-81659595D01*
X118814021Y-81649835D01*
X118746705Y-81599385D01*
X118610316Y-81548255D01*
X118548134Y-81541500D01*
X116251866Y-81541500D01*
X116189684Y-81548255D01*
X116053295Y-81599385D01*
X115936739Y-81686739D01*
X115849385Y-81803295D01*
X115798255Y-81939684D01*
X115791500Y-82001866D01*
X115791500Y-84298134D01*
X115798255Y-84360316D01*
X115849385Y-84496705D01*
X115936739Y-84613261D01*
X116053295Y-84700615D01*
X116189684Y-84751745D01*
X116251866Y-84758500D01*
X116563532Y-84758500D01*
X116631653Y-84778502D01*
X116678146Y-84832158D01*
X116688250Y-84902432D01*
X116658756Y-84967012D01*
X116635803Y-84987713D01*
X116560211Y-85040643D01*
X116560208Y-85040645D01*
X116555700Y-85043802D01*
X116393802Y-85205700D01*
X116390645Y-85210208D01*
X116390643Y-85210211D01*
X116366774Y-85244300D01*
X116262477Y-85393251D01*
X116260154Y-85398233D01*
X116260151Y-85398238D01*
X116191697Y-85545040D01*
X116165716Y-85600757D01*
X116164294Y-85606065D01*
X116164293Y-85606067D01*
X116135635Y-85713019D01*
X116106457Y-85821913D01*
X116086502Y-86050000D01*
X116106457Y-86278087D01*
X116165716Y-86499243D01*
X116168039Y-86504224D01*
X116168039Y-86504225D01*
X116260151Y-86701762D01*
X116260154Y-86701767D01*
X116262477Y-86706749D01*
X116265634Y-86711257D01*
X116388342Y-86886502D01*
X116393802Y-86894300D01*
X116555700Y-87056198D01*
X116560208Y-87059355D01*
X116560211Y-87059357D01*
X116638389Y-87114098D01*
X116743251Y-87187523D01*
X116748233Y-87189846D01*
X116748238Y-87189849D01*
X116945775Y-87281961D01*
X116950757Y-87284284D01*
X116956065Y-87285706D01*
X116956067Y-87285707D01*
X117166598Y-87342119D01*
X117166600Y-87342119D01*
X117171913Y-87343543D01*
X117400000Y-87363498D01*
X117628087Y-87343543D01*
X117633400Y-87342119D01*
X117633402Y-87342119D01*
X117843933Y-87285707D01*
X117843935Y-87285706D01*
X117849243Y-87284284D01*
X117854225Y-87281961D01*
X118051762Y-87189849D01*
X118051767Y-87189846D01*
X118056749Y-87187523D01*
X118161611Y-87114098D01*
X118239789Y-87059357D01*
X118239792Y-87059355D01*
X118244300Y-87056198D01*
X118406198Y-86894300D01*
X118428655Y-86862229D01*
X118484110Y-86817901D01*
X118531867Y-86808500D01*
X121310500Y-86808500D01*
X121378621Y-86828502D01*
X121425114Y-86882158D01*
X121436500Y-86934500D01*
X121436500Y-87540634D01*
X121443255Y-87602816D01*
X121494385Y-87739205D01*
X121581739Y-87855761D01*
X121698295Y-87943115D01*
X121834684Y-87994245D01*
X121896866Y-88001000D01*
X123993134Y-88001000D01*
X124055316Y-87994245D01*
X124191705Y-87943115D01*
X124198892Y-87937729D01*
X124289935Y-87869496D01*
X124356442Y-87844648D01*
X124425824Y-87859701D01*
X124476054Y-87909875D01*
X124491500Y-87970322D01*
X124491500Y-117094417D01*
X124471498Y-117162538D01*
X124417842Y-117209031D01*
X124347568Y-117219135D01*
X124282988Y-117189641D01*
X124253737Y-117152598D01*
X124159168Y-116970934D01*
X124156421Y-116966176D01*
X123912679Y-116583576D01*
X123909533Y-116579082D01*
X123633381Y-116219195D01*
X123629834Y-116214967D01*
X123505512Y-116079294D01*
X123491916Y-116071080D01*
X123491546Y-116071090D01*
X123482709Y-116076501D01*
X119972022Y-119587188D01*
X119964408Y-119601132D01*
X119964539Y-119602965D01*
X119968790Y-119609580D01*
X123480461Y-123121251D01*
X123494405Y-123128865D01*
X123494775Y-123128839D01*
X123503364Y-123123050D01*
X123629834Y-122985033D01*
X123633381Y-122980805D01*
X123909533Y-122620918D01*
X123912679Y-122616424D01*
X124156421Y-122233824D01*
X124159168Y-122229066D01*
X124253737Y-122047402D01*
X124302934Y-121996215D01*
X124371995Y-121979751D01*
X124438994Y-122003237D01*
X124482659Y-122059218D01*
X124491500Y-122105583D01*
X124491500Y-124365500D01*
X124471498Y-124433621D01*
X124417842Y-124480114D01*
X124365500Y-124491500D01*
X122105582Y-124491500D01*
X122037461Y-124471498D01*
X121990968Y-124417842D01*
X121980864Y-124347568D01*
X122010358Y-124282988D01*
X122047402Y-124253737D01*
X122229057Y-124159173D01*
X122233829Y-124156418D01*
X122616424Y-123912679D01*
X122620918Y-123909533D01*
X122980805Y-123633381D01*
X122985033Y-123629834D01*
X123120706Y-123505512D01*
X123128920Y-123491916D01*
X123128910Y-123491546D01*
X123123499Y-123482709D01*
X119612812Y-119972022D01*
X119598868Y-119964408D01*
X119597035Y-119964539D01*
X119590420Y-119968790D01*
X116078749Y-123480461D01*
X116071135Y-123494405D01*
X116071161Y-123494775D01*
X116076950Y-123503364D01*
X116214967Y-123629834D01*
X116219195Y-123633381D01*
X116579082Y-123909533D01*
X116583576Y-123912679D01*
X116966171Y-124156418D01*
X116970943Y-124159173D01*
X117152598Y-124253737D01*
X117203786Y-124302933D01*
X117220251Y-124371995D01*
X117196764Y-124438994D01*
X117140783Y-124482659D01*
X117094418Y-124491500D01*
X80634500Y-124491500D01*
X80566379Y-124471498D01*
X80519886Y-124417842D01*
X80508500Y-124365500D01*
X80508500Y-122881522D01*
X82092273Y-122881522D01*
X82139764Y-123058761D01*
X82143510Y-123069053D01*
X82235586Y-123266511D01*
X82241069Y-123276007D01*
X82366028Y-123454467D01*
X82373084Y-123462875D01*
X82527125Y-123616916D01*
X82535533Y-123623972D01*
X82713993Y-123748931D01*
X82723489Y-123754414D01*
X82920947Y-123846490D01*
X82931239Y-123850236D01*
X83141688Y-123906625D01*
X83152481Y-123908528D01*
X83315170Y-123922762D01*
X83320635Y-123923000D01*
X83502885Y-123923000D01*
X83518124Y-123918525D01*
X83519329Y-123917135D01*
X83521000Y-123909452D01*
X83521000Y-123904885D01*
X84029000Y-123904885D01*
X84033475Y-123920124D01*
X84034865Y-123921329D01*
X84042548Y-123923000D01*
X84229365Y-123923000D01*
X84234830Y-123922762D01*
X84397519Y-123908528D01*
X84408312Y-123906625D01*
X84618761Y-123850236D01*
X84629053Y-123846490D01*
X84826511Y-123754414D01*
X84836007Y-123748931D01*
X85014467Y-123623972D01*
X85022875Y-123616916D01*
X85176916Y-123462875D01*
X85183972Y-123454467D01*
X85308931Y-123276007D01*
X85314414Y-123266511D01*
X85406490Y-123069053D01*
X85410236Y-123058761D01*
X85456394Y-122886497D01*
X85456058Y-122872401D01*
X85448116Y-122869000D01*
X84047115Y-122869000D01*
X84031876Y-122873475D01*
X84030671Y-122874865D01*
X84029000Y-122882548D01*
X84029000Y-123904885D01*
X83521000Y-123904885D01*
X83521000Y-122887115D01*
X83516525Y-122871876D01*
X83515135Y-122870671D01*
X83507452Y-122869000D01*
X82107033Y-122869000D01*
X82093502Y-122872973D01*
X82092273Y-122881522D01*
X80508500Y-122881522D01*
X80508500Y-122615000D01*
X89681502Y-122615000D01*
X89701457Y-122843087D01*
X89702881Y-122848400D01*
X89702881Y-122848402D01*
X89739492Y-122985033D01*
X89760716Y-123064243D01*
X89763039Y-123069224D01*
X89763039Y-123069225D01*
X89855151Y-123266762D01*
X89855154Y-123266767D01*
X89857477Y-123271749D01*
X89988802Y-123459300D01*
X90150700Y-123621198D01*
X90155208Y-123624355D01*
X90155211Y-123624357D01*
X90163033Y-123629834D01*
X90338251Y-123752523D01*
X90343233Y-123754846D01*
X90343238Y-123754849D01*
X90539765Y-123846490D01*
X90545757Y-123849284D01*
X90551065Y-123850706D01*
X90551067Y-123850707D01*
X90761598Y-123907119D01*
X90761600Y-123907119D01*
X90766913Y-123908543D01*
X90865120Y-123917135D01*
X90935149Y-123923262D01*
X90935156Y-123923262D01*
X90937873Y-123923500D01*
X91852127Y-123923500D01*
X91854844Y-123923262D01*
X91854851Y-123923262D01*
X91924880Y-123917135D01*
X92023087Y-123908543D01*
X92028400Y-123907119D01*
X92028402Y-123907119D01*
X92238933Y-123850707D01*
X92238935Y-123850706D01*
X92244243Y-123849284D01*
X92250235Y-123846490D01*
X92446762Y-123754849D01*
X92446767Y-123754846D01*
X92451749Y-123752523D01*
X92626967Y-123629834D01*
X92634789Y-123624357D01*
X92634792Y-123624355D01*
X92639300Y-123621198D01*
X92801198Y-123459300D01*
X92932523Y-123271749D01*
X92934846Y-123266767D01*
X92934849Y-123266762D01*
X93026961Y-123069225D01*
X93026961Y-123069224D01*
X93029284Y-123064243D01*
X93050509Y-122985033D01*
X93087119Y-122848402D01*
X93087119Y-122848400D01*
X93088543Y-122843087D01*
X93108498Y-122615000D01*
X93088543Y-122386913D01*
X93029284Y-122165757D01*
X93001225Y-122105583D01*
X92934849Y-121963238D01*
X92934846Y-121963233D01*
X92932523Y-121958251D01*
X92801198Y-121770700D01*
X92639300Y-121608802D01*
X92634792Y-121605645D01*
X92634789Y-121605643D01*
X92556611Y-121550902D01*
X92451749Y-121477477D01*
X92446767Y-121475154D01*
X92446762Y-121475151D01*
X92412543Y-121459195D01*
X92359258Y-121412278D01*
X92355758Y-121400000D01*
X94136502Y-121400000D01*
X94156457Y-121628087D01*
X94215716Y-121849243D01*
X94218039Y-121854224D01*
X94218039Y-121854225D01*
X94310151Y-122051762D01*
X94310154Y-122051767D01*
X94312477Y-122056749D01*
X94315634Y-122061257D01*
X94436467Y-122233824D01*
X94443802Y-122244300D01*
X94605700Y-122406198D01*
X94610208Y-122409355D01*
X94610211Y-122409357D01*
X94688389Y-122464098D01*
X94793251Y-122537523D01*
X94798233Y-122539846D01*
X94798238Y-122539849D01*
X94971143Y-122620475D01*
X95000757Y-122634284D01*
X95006065Y-122635706D01*
X95006067Y-122635707D01*
X95216598Y-122692119D01*
X95216600Y-122692119D01*
X95221913Y-122693543D01*
X95450000Y-122713498D01*
X95678087Y-122693543D01*
X95683400Y-122692119D01*
X95683402Y-122692119D01*
X95893933Y-122635707D01*
X95893935Y-122635706D01*
X95899243Y-122634284D01*
X95928857Y-122620475D01*
X96101762Y-122539849D01*
X96101767Y-122539846D01*
X96106749Y-122537523D01*
X96211611Y-122464098D01*
X96289789Y-122409357D01*
X96289792Y-122409355D01*
X96294300Y-122406198D01*
X96456198Y-122244300D01*
X96463534Y-122233824D01*
X96584366Y-122061257D01*
X96587523Y-122056749D01*
X96589846Y-122051767D01*
X96589849Y-122051762D01*
X96681961Y-121854225D01*
X96681961Y-121854224D01*
X96684284Y-121849243D01*
X96743543Y-121628087D01*
X96763498Y-121400000D01*
X106836502Y-121400000D01*
X106856457Y-121628087D01*
X106915716Y-121849243D01*
X106918039Y-121854224D01*
X106918039Y-121854225D01*
X107010151Y-122051762D01*
X107010154Y-122051767D01*
X107012477Y-122056749D01*
X107015634Y-122061257D01*
X107136467Y-122233824D01*
X107143802Y-122244300D01*
X107305700Y-122406198D01*
X107310208Y-122409355D01*
X107310211Y-122409357D01*
X107388389Y-122464098D01*
X107493251Y-122537523D01*
X107498233Y-122539846D01*
X107498238Y-122539849D01*
X107671143Y-122620475D01*
X107700757Y-122634284D01*
X107706065Y-122635706D01*
X107706067Y-122635707D01*
X107916598Y-122692119D01*
X107916600Y-122692119D01*
X107921913Y-122693543D01*
X108150000Y-122713498D01*
X108378087Y-122693543D01*
X108383400Y-122692119D01*
X108383402Y-122692119D01*
X108593933Y-122635707D01*
X108593935Y-122635706D01*
X108599243Y-122634284D01*
X108628857Y-122620475D01*
X108801762Y-122539849D01*
X108801767Y-122539846D01*
X108806749Y-122537523D01*
X108911611Y-122464098D01*
X108989789Y-122409357D01*
X108989792Y-122409355D01*
X108994300Y-122406198D01*
X109156198Y-122244300D01*
X109163534Y-122233824D01*
X109284366Y-122061257D01*
X109287523Y-122056749D01*
X109289846Y-122051767D01*
X109289849Y-122051762D01*
X109381961Y-121854225D01*
X109381961Y-121854224D01*
X109384284Y-121849243D01*
X109443543Y-121628087D01*
X109463498Y-121400000D01*
X109443543Y-121171913D01*
X109384284Y-120950757D01*
X109371433Y-120923197D01*
X109289849Y-120748238D01*
X109289846Y-120748233D01*
X109287523Y-120743251D01*
X109156198Y-120555700D01*
X108994300Y-120393802D01*
X108989792Y-120390645D01*
X108989789Y-120390643D01*
X108911611Y-120335902D01*
X108806749Y-120262477D01*
X108801767Y-120260154D01*
X108801762Y-120260151D01*
X108604225Y-120168039D01*
X108604224Y-120168039D01*
X108599243Y-120165716D01*
X108593935Y-120164294D01*
X108593933Y-120164293D01*
X108383402Y-120107881D01*
X108383400Y-120107881D01*
X108378087Y-120106457D01*
X108150000Y-120086502D01*
X107921913Y-120106457D01*
X107916600Y-120107881D01*
X107916598Y-120107881D01*
X107706067Y-120164293D01*
X107706065Y-120164294D01*
X107700757Y-120165716D01*
X107695776Y-120168039D01*
X107695775Y-120168039D01*
X107498238Y-120260151D01*
X107498233Y-120260154D01*
X107493251Y-120262477D01*
X107388389Y-120335902D01*
X107310211Y-120390643D01*
X107310208Y-120390645D01*
X107305700Y-120393802D01*
X107143802Y-120555700D01*
X107012477Y-120743251D01*
X107010154Y-120748233D01*
X107010151Y-120748238D01*
X106928567Y-120923197D01*
X106915716Y-120950757D01*
X106856457Y-121171913D01*
X106836502Y-121400000D01*
X96763498Y-121400000D01*
X96743543Y-121171913D01*
X96684284Y-120950757D01*
X96671433Y-120923197D01*
X96589849Y-120748238D01*
X96589846Y-120748233D01*
X96587523Y-120743251D01*
X96456198Y-120555700D01*
X96294300Y-120393802D01*
X96289792Y-120390645D01*
X96289789Y-120390643D01*
X96211611Y-120335902D01*
X96106749Y-120262477D01*
X96101767Y-120260154D01*
X96101762Y-120260151D01*
X95904225Y-120168039D01*
X95904224Y-120168039D01*
X95899243Y-120165716D01*
X95893935Y-120164294D01*
X95893933Y-120164293D01*
X95683402Y-120107881D01*
X95683400Y-120107881D01*
X95678087Y-120106457D01*
X95450000Y-120086502D01*
X95221913Y-120106457D01*
X95216600Y-120107881D01*
X95216598Y-120107881D01*
X95006067Y-120164293D01*
X95006065Y-120164294D01*
X95000757Y-120165716D01*
X94995776Y-120168039D01*
X94995775Y-120168039D01*
X94798238Y-120260151D01*
X94798233Y-120260154D01*
X94793251Y-120262477D01*
X94688389Y-120335902D01*
X94610211Y-120390643D01*
X94610208Y-120390645D01*
X94605700Y-120393802D01*
X94443802Y-120555700D01*
X94312477Y-120743251D01*
X94310154Y-120748233D01*
X94310151Y-120748238D01*
X94228567Y-120923197D01*
X94215716Y-120950757D01*
X94156457Y-121171913D01*
X94136502Y-121400000D01*
X92355758Y-121400000D01*
X92339797Y-121344001D01*
X92360339Y-121276041D01*
X92412543Y-121230805D01*
X92446762Y-121214849D01*
X92446767Y-121214846D01*
X92451749Y-121212523D01*
X92556611Y-121139098D01*
X92634789Y-121084357D01*
X92634792Y-121084355D01*
X92639300Y-121081198D01*
X92801198Y-120919300D01*
X92932523Y-120731749D01*
X92934846Y-120726767D01*
X92934849Y-120726762D01*
X93026961Y-120529225D01*
X93026961Y-120529224D01*
X93029284Y-120524243D01*
X93032783Y-120511187D01*
X93087119Y-120308402D01*
X93087119Y-120308400D01*
X93088543Y-120303087D01*
X93108498Y-120075000D01*
X93088543Y-119846913D01*
X93029284Y-119625757D01*
X93018555Y-119602748D01*
X114337111Y-119602748D01*
X114356898Y-120055941D01*
X114357379Y-120061440D01*
X114416589Y-120511187D01*
X114417544Y-120516599D01*
X114515727Y-120959474D01*
X114517153Y-120964797D01*
X114653560Y-121397427D01*
X114655442Y-121402596D01*
X114829041Y-121821702D01*
X114831365Y-121826686D01*
X115040832Y-122229066D01*
X115043579Y-122233824D01*
X115287321Y-122616424D01*
X115290467Y-122620918D01*
X115566619Y-122980805D01*
X115570166Y-122985033D01*
X115694488Y-123120706D01*
X115708084Y-123128920D01*
X115708454Y-123128910D01*
X115717291Y-123123499D01*
X119227978Y-119612812D01*
X119235592Y-119598868D01*
X119235461Y-119597035D01*
X119231210Y-119590420D01*
X115719539Y-116078749D01*
X115705595Y-116071135D01*
X115705225Y-116071161D01*
X115696636Y-116076950D01*
X115570166Y-116214967D01*
X115566619Y-116219195D01*
X115290467Y-116579082D01*
X115287321Y-116583576D01*
X115043579Y-116966176D01*
X115040832Y-116970934D01*
X114831365Y-117373314D01*
X114829041Y-117378298D01*
X114655442Y-117797404D01*
X114653560Y-117802573D01*
X114517153Y-118235203D01*
X114515727Y-118240526D01*
X114417544Y-118683401D01*
X114416589Y-118688813D01*
X114357379Y-119138560D01*
X114356898Y-119144059D01*
X114337111Y-119597252D01*
X114337111Y-119602748D01*
X93018555Y-119602748D01*
X93011299Y-119587188D01*
X92934849Y-119423238D01*
X92934846Y-119423233D01*
X92932523Y-119418251D01*
X92859098Y-119313389D01*
X92804357Y-119235211D01*
X92804355Y-119235208D01*
X92801198Y-119230700D01*
X92639300Y-119068802D01*
X92634792Y-119065645D01*
X92634789Y-119065643D01*
X92556611Y-119010902D01*
X92451749Y-118937477D01*
X92446767Y-118935154D01*
X92446762Y-118935151D01*
X92412543Y-118919195D01*
X92359258Y-118872278D01*
X92339797Y-118804001D01*
X92360339Y-118736041D01*
X92412543Y-118690805D01*
X92446762Y-118674849D01*
X92446767Y-118674846D01*
X92451749Y-118672523D01*
X92556611Y-118599098D01*
X92634789Y-118544357D01*
X92634792Y-118544355D01*
X92639300Y-118541198D01*
X92801198Y-118379300D01*
X92932523Y-118191749D01*
X92934846Y-118186767D01*
X92934849Y-118186762D01*
X93026961Y-117989225D01*
X93026961Y-117989224D01*
X93029284Y-117984243D01*
X93064123Y-117854225D01*
X93087119Y-117768402D01*
X93087119Y-117768400D01*
X93088543Y-117763087D01*
X93096991Y-117666522D01*
X94167273Y-117666522D01*
X94214764Y-117843761D01*
X94218510Y-117854053D01*
X94310586Y-118051511D01*
X94316069Y-118061007D01*
X94441028Y-118239467D01*
X94448084Y-118247875D01*
X94602125Y-118401916D01*
X94610533Y-118408972D01*
X94788993Y-118533931D01*
X94798489Y-118539414D01*
X94995947Y-118631490D01*
X95006239Y-118635236D01*
X95178503Y-118681394D01*
X95192599Y-118681058D01*
X95196000Y-118673116D01*
X95196000Y-118667967D01*
X95704000Y-118667967D01*
X95707973Y-118681498D01*
X95716522Y-118682727D01*
X95893761Y-118635236D01*
X95904053Y-118631490D01*
X96101511Y-118539414D01*
X96111007Y-118533931D01*
X96289467Y-118408972D01*
X96297875Y-118401916D01*
X96451916Y-118247875D01*
X96458972Y-118239467D01*
X96583931Y-118061007D01*
X96589414Y-118051511D01*
X96681490Y-117854053D01*
X96685236Y-117843761D01*
X96696962Y-117800000D01*
X97536693Y-117800000D01*
X97555885Y-118019371D01*
X97612880Y-118232076D01*
X97656415Y-118325438D01*
X97703618Y-118426666D01*
X97703621Y-118426671D01*
X97705944Y-118431653D01*
X97709100Y-118436160D01*
X97709101Y-118436162D01*
X97781704Y-118539849D01*
X97832251Y-118612038D01*
X97987962Y-118767749D01*
X97992471Y-118770906D01*
X97992473Y-118770908D01*
X98042588Y-118805999D01*
X98168346Y-118894056D01*
X98367924Y-118987120D01*
X98580629Y-119044115D01*
X98800000Y-119063307D01*
X99019371Y-119044115D01*
X99232076Y-118987120D01*
X99431654Y-118894056D01*
X99557412Y-118805999D01*
X99607527Y-118770908D01*
X99607529Y-118770906D01*
X99612038Y-118767749D01*
X99767749Y-118612038D01*
X99818297Y-118539849D01*
X99890899Y-118436162D01*
X99890900Y-118436160D01*
X99894056Y-118431653D01*
X99896379Y-118426671D01*
X99896382Y-118426666D01*
X99943585Y-118325438D01*
X99987120Y-118232076D01*
X100044115Y-118019371D01*
X100063307Y-117800000D01*
X100044115Y-117580629D01*
X99995715Y-117400000D01*
X106836502Y-117400000D01*
X106856457Y-117628087D01*
X106857881Y-117633400D01*
X106857881Y-117633402D01*
X106894055Y-117768402D01*
X106915716Y-117849243D01*
X106918039Y-117854224D01*
X106918039Y-117854225D01*
X107010151Y-118051762D01*
X107010154Y-118051767D01*
X107012477Y-118056749D01*
X107015634Y-118061257D01*
X107135243Y-118232076D01*
X107143802Y-118244300D01*
X107305700Y-118406198D01*
X107310208Y-118409355D01*
X107310211Y-118409357D01*
X107334931Y-118426666D01*
X107493251Y-118537523D01*
X107498233Y-118539846D01*
X107498238Y-118539849D01*
X107643376Y-118607527D01*
X107700757Y-118634284D01*
X107706065Y-118635706D01*
X107706067Y-118635707D01*
X107916598Y-118692119D01*
X107916600Y-118692119D01*
X107921913Y-118693543D01*
X108150000Y-118713498D01*
X108378087Y-118693543D01*
X108383400Y-118692119D01*
X108383402Y-118692119D01*
X108593933Y-118635707D01*
X108593935Y-118635706D01*
X108599243Y-118634284D01*
X108656624Y-118607527D01*
X108801762Y-118539849D01*
X108801767Y-118539846D01*
X108806749Y-118537523D01*
X108965069Y-118426666D01*
X108989789Y-118409357D01*
X108989792Y-118409355D01*
X108994300Y-118406198D01*
X109156198Y-118244300D01*
X109164758Y-118232076D01*
X109284366Y-118061257D01*
X109287523Y-118056749D01*
X109289846Y-118051767D01*
X109289849Y-118051762D01*
X109381961Y-117854225D01*
X109381961Y-117854224D01*
X109384284Y-117849243D01*
X109405946Y-117768402D01*
X109442119Y-117633402D01*
X109442119Y-117633400D01*
X109443543Y-117628087D01*
X109463498Y-117400000D01*
X109443543Y-117171913D01*
X109442119Y-117166598D01*
X109385707Y-116956067D01*
X109385706Y-116956065D01*
X109384284Y-116950757D01*
X109289966Y-116748489D01*
X109289849Y-116748238D01*
X109289846Y-116748233D01*
X109287523Y-116743251D01*
X109175717Y-116583576D01*
X109159357Y-116560211D01*
X109159355Y-116560208D01*
X109156198Y-116555700D01*
X108994300Y-116393802D01*
X108989792Y-116390645D01*
X108989789Y-116390643D01*
X108906435Y-116332278D01*
X108806749Y-116262477D01*
X108801767Y-116260154D01*
X108801762Y-116260151D01*
X108604225Y-116168039D01*
X108604224Y-116168039D01*
X108599243Y-116165716D01*
X108593935Y-116164294D01*
X108593933Y-116164293D01*
X108383402Y-116107881D01*
X108383400Y-116107881D01*
X108378087Y-116106457D01*
X108150000Y-116086502D01*
X107921913Y-116106457D01*
X107916600Y-116107881D01*
X107916598Y-116107881D01*
X107706067Y-116164293D01*
X107706065Y-116164294D01*
X107700757Y-116165716D01*
X107695776Y-116168039D01*
X107695775Y-116168039D01*
X107498238Y-116260151D01*
X107498233Y-116260154D01*
X107493251Y-116262477D01*
X107393565Y-116332278D01*
X107310211Y-116390643D01*
X107310208Y-116390645D01*
X107305700Y-116393802D01*
X107143802Y-116555700D01*
X107140645Y-116560208D01*
X107140643Y-116560211D01*
X107124283Y-116583576D01*
X107012477Y-116743251D01*
X107010154Y-116748233D01*
X107010151Y-116748238D01*
X107010034Y-116748489D01*
X106915716Y-116950757D01*
X106914294Y-116956065D01*
X106914293Y-116956067D01*
X106857881Y-117166598D01*
X106856457Y-117171913D01*
X106836502Y-117400000D01*
X99995715Y-117400000D01*
X99987120Y-117367924D01*
X99903986Y-117189641D01*
X99896379Y-117173328D01*
X99896377Y-117173325D01*
X99894056Y-117168347D01*
X99831287Y-117078703D01*
X99808500Y-117006433D01*
X99808500Y-115708084D01*
X116071080Y-115708084D01*
X116071090Y-115708454D01*
X116076501Y-115717291D01*
X119587188Y-119227978D01*
X119601132Y-119235592D01*
X119602965Y-119235461D01*
X119609580Y-119231210D01*
X123121251Y-115719539D01*
X123128865Y-115705595D01*
X123128839Y-115705225D01*
X123123050Y-115696636D01*
X122985033Y-115570166D01*
X122980805Y-115566619D01*
X122620918Y-115290467D01*
X122616424Y-115287321D01*
X122233829Y-115043582D01*
X122229057Y-115040827D01*
X121826690Y-114831368D01*
X121821702Y-114829041D01*
X121402596Y-114655442D01*
X121397427Y-114653560D01*
X120964797Y-114517153D01*
X120959474Y-114515727D01*
X120516599Y-114417544D01*
X120511187Y-114416589D01*
X120061440Y-114357379D01*
X120055941Y-114356898D01*
X119602748Y-114337111D01*
X119597252Y-114337111D01*
X119144059Y-114356898D01*
X119138560Y-114357379D01*
X118688813Y-114416589D01*
X118683401Y-114417544D01*
X118240526Y-114515727D01*
X118235203Y-114517153D01*
X117802573Y-114653560D01*
X117797404Y-114655442D01*
X117378298Y-114829041D01*
X117373314Y-114831365D01*
X116970934Y-115040832D01*
X116966176Y-115043579D01*
X116583576Y-115287321D01*
X116579082Y-115290467D01*
X116219195Y-115566619D01*
X116214967Y-115570166D01*
X116079294Y-115694488D01*
X116071080Y-115708084D01*
X99808500Y-115708084D01*
X99808500Y-114593567D01*
X99831287Y-114521297D01*
X99847516Y-114498120D01*
X99894056Y-114431653D01*
X99901081Y-114416589D01*
X99937610Y-114338251D01*
X99987120Y-114232076D01*
X100044115Y-114019371D01*
X100063307Y-113800000D01*
X100044115Y-113580629D01*
X99987120Y-113367924D01*
X99943585Y-113274562D01*
X99896382Y-113173334D01*
X99896379Y-113173329D01*
X99894056Y-113168347D01*
X99767749Y-112987962D01*
X99612038Y-112832251D01*
X99431654Y-112705944D01*
X99232076Y-112612880D01*
X99019371Y-112555885D01*
X98800000Y-112536693D01*
X98580629Y-112555885D01*
X98367924Y-112612880D01*
X98274562Y-112656415D01*
X98173334Y-112703618D01*
X98173329Y-112703621D01*
X98168347Y-112705944D01*
X98163840Y-112709100D01*
X98163838Y-112709101D01*
X97992473Y-112829092D01*
X97992470Y-112829094D01*
X97987962Y-112832251D01*
X97832251Y-112987962D01*
X97705944Y-113168347D01*
X97703621Y-113173329D01*
X97703618Y-113173334D01*
X97656415Y-113274562D01*
X97612880Y-113367924D01*
X97555885Y-113580629D01*
X97536693Y-113800000D01*
X97555885Y-114019371D01*
X97612880Y-114232076D01*
X97662390Y-114338251D01*
X97698920Y-114416589D01*
X97705944Y-114431653D01*
X97752484Y-114498120D01*
X97768713Y-114521297D01*
X97791500Y-114593567D01*
X97791500Y-117006433D01*
X97768713Y-117078703D01*
X97705944Y-117168347D01*
X97703623Y-117173325D01*
X97703621Y-117173328D01*
X97696014Y-117189641D01*
X97612880Y-117367924D01*
X97555885Y-117580629D01*
X97536693Y-117800000D01*
X96696962Y-117800000D01*
X96731394Y-117671497D01*
X96731058Y-117657401D01*
X96723116Y-117654000D01*
X95722115Y-117654000D01*
X95706876Y-117658475D01*
X95705671Y-117659865D01*
X95704000Y-117667548D01*
X95704000Y-118667967D01*
X95196000Y-118667967D01*
X95196000Y-117672115D01*
X95191525Y-117656876D01*
X95190135Y-117655671D01*
X95182452Y-117654000D01*
X94182033Y-117654000D01*
X94168502Y-117657973D01*
X94167273Y-117666522D01*
X93096991Y-117666522D01*
X93108498Y-117535000D01*
X93088543Y-117306913D01*
X93062316Y-117209031D01*
X93040738Y-117128503D01*
X94168606Y-117128503D01*
X94168942Y-117142599D01*
X94176884Y-117146000D01*
X95177885Y-117146000D01*
X95193124Y-117141525D01*
X95194329Y-117140135D01*
X95196000Y-117132452D01*
X95196000Y-117127885D01*
X95704000Y-117127885D01*
X95708475Y-117143124D01*
X95709865Y-117144329D01*
X95717548Y-117146000D01*
X96717967Y-117146000D01*
X96731498Y-117142027D01*
X96732727Y-117133478D01*
X96685236Y-116956239D01*
X96681490Y-116945947D01*
X96589414Y-116748489D01*
X96583931Y-116738993D01*
X96458972Y-116560533D01*
X96451916Y-116552125D01*
X96297875Y-116398084D01*
X96289467Y-116391028D01*
X96111007Y-116266069D01*
X96101511Y-116260586D01*
X95904053Y-116168510D01*
X95893761Y-116164764D01*
X95721497Y-116118606D01*
X95707401Y-116118942D01*
X95704000Y-116126884D01*
X95704000Y-117127885D01*
X95196000Y-117127885D01*
X95196000Y-116132033D01*
X95192027Y-116118502D01*
X95183478Y-116117273D01*
X95006239Y-116164764D01*
X94995947Y-116168510D01*
X94798489Y-116260586D01*
X94788993Y-116266069D01*
X94610533Y-116391028D01*
X94602125Y-116398084D01*
X94448084Y-116552125D01*
X94441028Y-116560533D01*
X94316069Y-116738993D01*
X94310586Y-116748489D01*
X94218510Y-116945947D01*
X94214764Y-116956239D01*
X94168606Y-117128503D01*
X93040738Y-117128503D01*
X93030708Y-117091071D01*
X93030707Y-117091067D01*
X93029284Y-117085757D01*
X93026961Y-117080775D01*
X93026380Y-117079179D01*
X93021880Y-117008325D01*
X93055688Y-116946993D01*
X98348911Y-111653770D01*
X98363323Y-111641384D01*
X98374918Y-111632851D01*
X98374923Y-111632846D01*
X98380818Y-111628508D01*
X98385557Y-111622930D01*
X98385560Y-111622927D01*
X98415035Y-111588232D01*
X98421965Y-111580716D01*
X98427661Y-111575020D01*
X98429924Y-111572159D01*
X98429929Y-111572154D01*
X98445293Y-111552734D01*
X98448082Y-111549333D01*
X98449743Y-111547378D01*
X98495333Y-111493715D01*
X98498659Y-111487202D01*
X98502020Y-111482163D01*
X98505196Y-111477021D01*
X98509734Y-111471284D01*
X98540655Y-111405125D01*
X98542561Y-111401225D01*
X98552911Y-111380956D01*
X98575769Y-111336192D01*
X98577508Y-111329083D01*
X98579604Y-111323449D01*
X98581523Y-111317681D01*
X98584622Y-111311050D01*
X98598449Y-111244577D01*
X98631905Y-111181957D01*
X98648641Y-111167658D01*
X98772243Y-111079494D01*
X98817309Y-111034585D01*
X98879681Y-111000669D01*
X98950487Y-111005857D01*
X99007249Y-111048503D01*
X99024231Y-111079607D01*
X99037890Y-111116041D01*
X99049385Y-111146705D01*
X99136739Y-111263261D01*
X99253295Y-111350615D01*
X99389684Y-111401745D01*
X99451866Y-111408500D01*
X101348134Y-111408500D01*
X101410316Y-111401745D01*
X101546705Y-111350615D01*
X101663261Y-111263261D01*
X101750615Y-111146705D01*
X101801745Y-111010316D01*
X101808500Y-110948134D01*
X101808500Y-109965469D01*
X106922095Y-109965469D01*
X106922392Y-109970622D01*
X106922392Y-109970625D01*
X106935129Y-110191529D01*
X106935427Y-110196697D01*
X106936564Y-110201743D01*
X106936565Y-110201749D01*
X106968741Y-110344523D01*
X106986346Y-110422642D01*
X106988288Y-110427424D01*
X106988289Y-110427428D01*
X107071540Y-110632450D01*
X107073484Y-110637237D01*
X107194501Y-110834719D01*
X107346147Y-111009784D01*
X107524349Y-111157730D01*
X107724322Y-111274584D01*
X107940694Y-111357209D01*
X107945760Y-111358240D01*
X107945761Y-111358240D01*
X107998846Y-111369040D01*
X108167656Y-111403385D01*
X108297089Y-111408131D01*
X108393949Y-111411683D01*
X108393953Y-111411683D01*
X108399113Y-111411872D01*
X108404233Y-111411216D01*
X108404235Y-111411216D01*
X108482225Y-111401225D01*
X108628847Y-111382442D01*
X108633795Y-111380957D01*
X108633802Y-111380956D01*
X108845747Y-111317369D01*
X108850690Y-111315886D01*
X108860562Y-111311050D01*
X109054049Y-111216262D01*
X109054052Y-111216260D01*
X109058684Y-111213991D01*
X109247243Y-111079494D01*
X109292309Y-111034585D01*
X109354681Y-111000669D01*
X109425487Y-111005857D01*
X109482249Y-111048503D01*
X109499231Y-111079607D01*
X109512890Y-111116041D01*
X109524385Y-111146705D01*
X109611739Y-111263261D01*
X109728295Y-111350615D01*
X109864684Y-111401745D01*
X109926866Y-111408500D01*
X111823134Y-111408500D01*
X111885316Y-111401745D01*
X112021705Y-111350615D01*
X112138261Y-111263261D01*
X112225615Y-111146705D01*
X112276745Y-111010316D01*
X112283500Y-110948134D01*
X112283500Y-109965469D01*
X117322095Y-109965469D01*
X117322392Y-109970622D01*
X117322392Y-109970625D01*
X117335129Y-110191529D01*
X117335427Y-110196697D01*
X117336564Y-110201743D01*
X117336565Y-110201749D01*
X117368741Y-110344523D01*
X117386346Y-110422642D01*
X117388288Y-110427424D01*
X117388289Y-110427428D01*
X117471540Y-110632450D01*
X117473484Y-110637237D01*
X117594501Y-110834719D01*
X117746147Y-111009784D01*
X117924349Y-111157730D01*
X118124322Y-111274584D01*
X118340694Y-111357209D01*
X118345760Y-111358240D01*
X118345761Y-111358240D01*
X118398846Y-111369040D01*
X118567656Y-111403385D01*
X118697089Y-111408131D01*
X118793949Y-111411683D01*
X118793953Y-111411683D01*
X118799113Y-111411872D01*
X118804233Y-111411216D01*
X118804235Y-111411216D01*
X118882225Y-111401225D01*
X119028847Y-111382442D01*
X119033795Y-111380957D01*
X119033802Y-111380956D01*
X119245747Y-111317369D01*
X119250690Y-111315886D01*
X119260562Y-111311050D01*
X119454049Y-111216262D01*
X119454052Y-111216260D01*
X119458684Y-111213991D01*
X119647243Y-111079494D01*
X119692309Y-111034585D01*
X119754681Y-111000669D01*
X119825487Y-111005857D01*
X119882249Y-111048503D01*
X119899231Y-111079607D01*
X119912890Y-111116041D01*
X119924385Y-111146705D01*
X120011739Y-111263261D01*
X120128295Y-111350615D01*
X120264684Y-111401745D01*
X120326866Y-111408500D01*
X122223134Y-111408500D01*
X122285316Y-111401745D01*
X122421705Y-111350615D01*
X122538261Y-111263261D01*
X122625615Y-111146705D01*
X122676745Y-111010316D01*
X122683500Y-110948134D01*
X122683500Y-109051866D01*
X122676745Y-108989684D01*
X122625615Y-108853295D01*
X122538261Y-108736739D01*
X122421705Y-108649385D01*
X122285316Y-108598255D01*
X122223134Y-108591500D01*
X120326866Y-108591500D01*
X120264684Y-108598255D01*
X120128295Y-108649385D01*
X120011739Y-108736739D01*
X119924385Y-108853295D01*
X119921233Y-108861703D01*
X119921232Y-108861705D01*
X119900538Y-108916906D01*
X119857897Y-108973671D01*
X119791335Y-108998371D01*
X119721986Y-108983164D01*
X119699167Y-108966666D01*
X119698887Y-108966358D01*
X119630943Y-108912699D01*
X119521177Y-108826011D01*
X119521172Y-108826008D01*
X119517123Y-108822810D01*
X119512607Y-108820317D01*
X119512604Y-108820315D01*
X119318879Y-108713373D01*
X119318875Y-108713371D01*
X119314355Y-108710876D01*
X119309486Y-108709152D01*
X119309482Y-108709150D01*
X119100903Y-108635288D01*
X119100899Y-108635287D01*
X119096028Y-108633562D01*
X119090935Y-108632655D01*
X119090932Y-108632654D01*
X118873095Y-108593851D01*
X118873089Y-108593850D01*
X118868006Y-108592945D01*
X118795096Y-108592054D01*
X118641581Y-108590179D01*
X118641579Y-108590179D01*
X118636411Y-108590116D01*
X118407464Y-108625150D01*
X118187314Y-108697106D01*
X118182726Y-108699494D01*
X118182722Y-108699496D01*
X118032922Y-108777477D01*
X117981872Y-108804052D01*
X117977739Y-108807155D01*
X117977736Y-108807157D01*
X117800790Y-108940012D01*
X117796655Y-108943117D01*
X117636639Y-109110564D01*
X117506119Y-109301899D01*
X117408602Y-109511981D01*
X117346707Y-109735169D01*
X117322095Y-109965469D01*
X112283500Y-109965469D01*
X112283500Y-109051866D01*
X112276745Y-108989684D01*
X112225615Y-108853295D01*
X112138261Y-108736739D01*
X112021705Y-108649385D01*
X111885316Y-108598255D01*
X111823134Y-108591500D01*
X109926866Y-108591500D01*
X109864684Y-108598255D01*
X109728295Y-108649385D01*
X109611739Y-108736739D01*
X109524385Y-108853295D01*
X109521233Y-108861703D01*
X109521232Y-108861705D01*
X109500538Y-108916906D01*
X109457897Y-108973671D01*
X109391335Y-108998371D01*
X109321986Y-108983164D01*
X109299167Y-108966666D01*
X109298887Y-108966358D01*
X109230943Y-108912699D01*
X109121177Y-108826011D01*
X109121172Y-108826008D01*
X109117123Y-108822810D01*
X109112607Y-108820317D01*
X109112604Y-108820315D01*
X108918879Y-108713373D01*
X108918875Y-108713371D01*
X108914355Y-108710876D01*
X108909486Y-108709152D01*
X108909482Y-108709150D01*
X108700903Y-108635288D01*
X108700899Y-108635287D01*
X108696028Y-108633562D01*
X108690935Y-108632655D01*
X108690932Y-108632654D01*
X108473095Y-108593851D01*
X108473089Y-108593850D01*
X108468006Y-108592945D01*
X108395096Y-108592054D01*
X108241581Y-108590179D01*
X108241579Y-108590179D01*
X108236411Y-108590116D01*
X108007464Y-108625150D01*
X107787314Y-108697106D01*
X107782726Y-108699494D01*
X107782722Y-108699496D01*
X107632922Y-108777477D01*
X107581872Y-108804052D01*
X107577739Y-108807155D01*
X107577736Y-108807157D01*
X107400790Y-108940012D01*
X107396655Y-108943117D01*
X107236639Y-109110564D01*
X107106119Y-109301899D01*
X107008602Y-109511981D01*
X106946707Y-109735169D01*
X106922095Y-109965469D01*
X101808500Y-109965469D01*
X101808500Y-109051866D01*
X101801745Y-108989684D01*
X101750615Y-108853295D01*
X101663261Y-108736739D01*
X101546705Y-108649385D01*
X101410316Y-108598255D01*
X101348134Y-108591500D01*
X99451866Y-108591500D01*
X99389684Y-108598255D01*
X99253295Y-108649385D01*
X99136739Y-108736739D01*
X99049385Y-108853295D01*
X99046233Y-108861703D01*
X99046232Y-108861705D01*
X99025538Y-108916906D01*
X98982897Y-108973671D01*
X98916335Y-108998371D01*
X98846986Y-108983164D01*
X98824167Y-108966666D01*
X98823887Y-108966358D01*
X98755943Y-108912699D01*
X98646177Y-108826011D01*
X98646172Y-108826008D01*
X98642123Y-108822810D01*
X98637607Y-108820317D01*
X98637604Y-108820315D01*
X98443879Y-108713373D01*
X98443875Y-108713371D01*
X98439355Y-108710876D01*
X98434486Y-108709152D01*
X98434482Y-108709150D01*
X98225903Y-108635288D01*
X98225899Y-108635287D01*
X98221028Y-108633562D01*
X98215935Y-108632655D01*
X98215932Y-108632654D01*
X97998095Y-108593851D01*
X97998089Y-108593850D01*
X97993006Y-108592945D01*
X97920096Y-108592054D01*
X97766581Y-108590179D01*
X97766579Y-108590179D01*
X97761411Y-108590116D01*
X97532464Y-108625150D01*
X97312314Y-108697106D01*
X97307726Y-108699494D01*
X97307722Y-108699496D01*
X97157922Y-108777477D01*
X97106872Y-108804052D01*
X97102739Y-108807155D01*
X97102736Y-108807157D01*
X96925790Y-108940012D01*
X96921655Y-108943117D01*
X96761639Y-109110564D01*
X96631119Y-109301899D01*
X96533602Y-109511981D01*
X96471707Y-109735169D01*
X96447095Y-109965469D01*
X96447392Y-109970622D01*
X96447392Y-109970625D01*
X96460129Y-110191529D01*
X96460427Y-110196697D01*
X96461564Y-110201743D01*
X96461565Y-110201749D01*
X96493741Y-110344523D01*
X96511346Y-110422642D01*
X96513288Y-110427424D01*
X96513289Y-110427428D01*
X96596540Y-110632450D01*
X96598484Y-110637237D01*
X96719501Y-110834719D01*
X96722882Y-110838622D01*
X96783392Y-110908478D01*
X96812874Y-110973064D01*
X96802759Y-111043336D01*
X96777249Y-111080070D01*
X93243254Y-114614065D01*
X93180942Y-114648091D01*
X93110127Y-114643026D01*
X93053291Y-114600479D01*
X93032452Y-114557579D01*
X93030708Y-114551071D01*
X93030707Y-114551067D01*
X93029284Y-114545757D01*
X93015281Y-114515727D01*
X92934849Y-114343238D01*
X92934846Y-114343233D01*
X92932523Y-114338251D01*
X92801198Y-114150700D01*
X92639300Y-113988802D01*
X92634792Y-113985645D01*
X92634789Y-113985643D01*
X92556611Y-113930902D01*
X92451749Y-113857477D01*
X92446767Y-113855154D01*
X92446762Y-113855151D01*
X92411951Y-113838919D01*
X92358666Y-113792002D01*
X92339205Y-113723725D01*
X92359747Y-113655765D01*
X92411951Y-113610529D01*
X92446511Y-113594414D01*
X92456007Y-113588931D01*
X92634467Y-113463972D01*
X92642875Y-113456916D01*
X92796916Y-113302875D01*
X92803972Y-113294467D01*
X92928931Y-113116007D01*
X92934414Y-113106511D01*
X93026490Y-112909053D01*
X93030236Y-112898761D01*
X93076394Y-112726497D01*
X93076058Y-112712401D01*
X93068116Y-112709000D01*
X89727033Y-112709000D01*
X89713502Y-112712973D01*
X89712273Y-112721522D01*
X89759764Y-112898761D01*
X89763510Y-112909053D01*
X89855586Y-113106511D01*
X89861069Y-113116007D01*
X89986028Y-113294467D01*
X89993084Y-113302875D01*
X90147125Y-113456916D01*
X90155533Y-113463972D01*
X90333993Y-113588931D01*
X90343489Y-113594414D01*
X90378049Y-113610529D01*
X90431334Y-113657446D01*
X90450795Y-113725723D01*
X90430253Y-113793683D01*
X90378049Y-113838919D01*
X90343238Y-113855151D01*
X90343233Y-113855154D01*
X90338251Y-113857477D01*
X90233389Y-113930902D01*
X90155211Y-113985643D01*
X90155208Y-113985645D01*
X90150700Y-113988802D01*
X89988802Y-114150700D01*
X89857477Y-114338251D01*
X89855154Y-114343233D01*
X89855151Y-114343238D01*
X89774719Y-114515727D01*
X89760716Y-114545757D01*
X89759294Y-114551065D01*
X89759293Y-114551067D01*
X89733295Y-114648091D01*
X89701457Y-114766913D01*
X89681502Y-114995000D01*
X89701457Y-115223087D01*
X89702881Y-115228400D01*
X89702881Y-115228402D01*
X89719512Y-115290467D01*
X89760716Y-115444243D01*
X89763039Y-115449224D01*
X89763039Y-115449225D01*
X89855151Y-115646762D01*
X89855154Y-115646767D01*
X89857477Y-115651749D01*
X89988802Y-115839300D01*
X90150700Y-116001198D01*
X90155208Y-116004355D01*
X90155211Y-116004357D01*
X90233389Y-116059098D01*
X90338251Y-116132523D01*
X90343233Y-116134846D01*
X90343238Y-116134849D01*
X90377457Y-116150805D01*
X90430742Y-116197722D01*
X90450203Y-116265999D01*
X90429661Y-116333959D01*
X90377457Y-116379195D01*
X90343238Y-116395151D01*
X90343233Y-116395154D01*
X90338251Y-116397477D01*
X90233389Y-116470902D01*
X90155211Y-116525643D01*
X90155208Y-116525645D01*
X90150700Y-116528802D01*
X89988802Y-116690700D01*
X89985645Y-116695208D01*
X89985643Y-116695211D01*
X89930902Y-116773389D01*
X89857477Y-116878251D01*
X89855154Y-116883233D01*
X89855151Y-116883238D01*
X89816477Y-116966176D01*
X89760716Y-117085757D01*
X89759294Y-117091065D01*
X89759293Y-117091067D01*
X89724977Y-117219135D01*
X89701457Y-117306913D01*
X89681502Y-117535000D01*
X89701457Y-117763087D01*
X89702881Y-117768400D01*
X89702881Y-117768402D01*
X89725878Y-117854225D01*
X89760716Y-117984243D01*
X89763039Y-117989224D01*
X89763039Y-117989225D01*
X89855151Y-118186762D01*
X89855154Y-118186767D01*
X89857477Y-118191749D01*
X89988802Y-118379300D01*
X90150700Y-118541198D01*
X90155208Y-118544355D01*
X90155211Y-118544357D01*
X90233389Y-118599098D01*
X90338251Y-118672523D01*
X90343233Y-118674846D01*
X90343238Y-118674849D01*
X90377457Y-118690805D01*
X90430742Y-118737722D01*
X90450203Y-118805999D01*
X90429661Y-118873959D01*
X90377457Y-118919195D01*
X90343238Y-118935151D01*
X90343233Y-118935154D01*
X90338251Y-118937477D01*
X90233389Y-119010902D01*
X90155211Y-119065643D01*
X90155208Y-119065645D01*
X90150700Y-119068802D01*
X89988802Y-119230700D01*
X89985645Y-119235208D01*
X89985643Y-119235211D01*
X89930902Y-119313389D01*
X89857477Y-119418251D01*
X89855154Y-119423233D01*
X89855151Y-119423238D01*
X89778701Y-119587188D01*
X89760716Y-119625757D01*
X89701457Y-119846913D01*
X89681502Y-120075000D01*
X89701457Y-120303087D01*
X89702881Y-120308400D01*
X89702881Y-120308402D01*
X89757218Y-120511187D01*
X89760716Y-120524243D01*
X89763039Y-120529224D01*
X89763039Y-120529225D01*
X89855151Y-120726762D01*
X89855154Y-120726767D01*
X89857477Y-120731749D01*
X89988802Y-120919300D01*
X90150700Y-121081198D01*
X90155208Y-121084355D01*
X90155211Y-121084357D01*
X90233389Y-121139098D01*
X90338251Y-121212523D01*
X90343233Y-121214846D01*
X90343238Y-121214849D01*
X90377457Y-121230805D01*
X90430742Y-121277722D01*
X90450203Y-121345999D01*
X90429661Y-121413959D01*
X90377457Y-121459195D01*
X90343238Y-121475151D01*
X90343233Y-121475154D01*
X90338251Y-121477477D01*
X90233389Y-121550902D01*
X90155211Y-121605643D01*
X90155208Y-121605645D01*
X90150700Y-121608802D01*
X89988802Y-121770700D01*
X89857477Y-121958251D01*
X89855154Y-121963233D01*
X89855151Y-121963238D01*
X89788775Y-122105583D01*
X89760716Y-122165757D01*
X89701457Y-122386913D01*
X89681502Y-122615000D01*
X80508500Y-122615000D01*
X80508500Y-120075000D01*
X82061502Y-120075000D01*
X82081457Y-120303087D01*
X82082881Y-120308400D01*
X82082881Y-120308402D01*
X82137218Y-120511187D01*
X82140716Y-120524243D01*
X82143039Y-120529224D01*
X82143039Y-120529225D01*
X82235151Y-120726762D01*
X82235154Y-120726767D01*
X82237477Y-120731749D01*
X82368802Y-120919300D01*
X82530700Y-121081198D01*
X82535208Y-121084355D01*
X82535211Y-121084357D01*
X82613389Y-121139098D01*
X82718251Y-121212523D01*
X82723233Y-121214846D01*
X82723238Y-121214849D01*
X82758049Y-121231081D01*
X82811334Y-121277998D01*
X82830795Y-121346275D01*
X82810253Y-121414235D01*
X82758049Y-121459471D01*
X82723489Y-121475586D01*
X82713993Y-121481069D01*
X82535533Y-121606028D01*
X82527125Y-121613084D01*
X82373084Y-121767125D01*
X82366028Y-121775533D01*
X82241069Y-121953993D01*
X82235586Y-121963489D01*
X82143510Y-122160947D01*
X82139764Y-122171239D01*
X82093606Y-122343503D01*
X82093942Y-122357599D01*
X82101884Y-122361000D01*
X85442967Y-122361000D01*
X85456498Y-122357027D01*
X85457727Y-122348478D01*
X85410236Y-122171239D01*
X85406490Y-122160947D01*
X85314414Y-121963489D01*
X85308931Y-121953993D01*
X85183972Y-121775533D01*
X85176916Y-121767125D01*
X85022875Y-121613084D01*
X85014467Y-121606028D01*
X84836007Y-121481069D01*
X84826511Y-121475586D01*
X84791951Y-121459471D01*
X84738666Y-121412554D01*
X84719205Y-121344277D01*
X84739747Y-121276317D01*
X84791951Y-121231081D01*
X84826762Y-121214849D01*
X84826767Y-121214846D01*
X84831749Y-121212523D01*
X84936611Y-121139098D01*
X85014789Y-121084357D01*
X85014792Y-121084355D01*
X85019300Y-121081198D01*
X85181198Y-120919300D01*
X85312523Y-120731749D01*
X85314846Y-120726767D01*
X85314849Y-120726762D01*
X85406961Y-120529225D01*
X85406961Y-120529224D01*
X85409284Y-120524243D01*
X85412783Y-120511187D01*
X85467119Y-120308402D01*
X85467119Y-120308400D01*
X85468543Y-120303087D01*
X85488498Y-120075000D01*
X85468543Y-119846913D01*
X85409284Y-119625757D01*
X85391299Y-119587188D01*
X85314849Y-119423238D01*
X85314846Y-119423233D01*
X85312523Y-119418251D01*
X85239098Y-119313389D01*
X85184357Y-119235211D01*
X85184355Y-119235208D01*
X85181198Y-119230700D01*
X85019300Y-119068802D01*
X85014792Y-119065645D01*
X85014789Y-119065643D01*
X84936611Y-119010902D01*
X84831749Y-118937477D01*
X84826767Y-118935154D01*
X84826762Y-118935151D01*
X84792543Y-118919195D01*
X84739258Y-118872278D01*
X84719797Y-118804001D01*
X84740339Y-118736041D01*
X84792543Y-118690805D01*
X84826762Y-118674849D01*
X84826767Y-118674846D01*
X84831749Y-118672523D01*
X84936611Y-118599098D01*
X85014789Y-118544357D01*
X85014792Y-118544355D01*
X85019300Y-118541198D01*
X85181198Y-118379300D01*
X85312523Y-118191749D01*
X85314846Y-118186767D01*
X85314849Y-118186762D01*
X85406961Y-117989225D01*
X85406961Y-117989224D01*
X85409284Y-117984243D01*
X85444123Y-117854225D01*
X85467119Y-117768402D01*
X85467119Y-117768400D01*
X85468543Y-117763087D01*
X85488498Y-117535000D01*
X85468543Y-117306913D01*
X85445023Y-117219135D01*
X85410707Y-117091067D01*
X85410706Y-117091065D01*
X85409284Y-117085757D01*
X85353523Y-116966176D01*
X85314849Y-116883238D01*
X85314846Y-116883233D01*
X85312523Y-116878251D01*
X85239098Y-116773389D01*
X85184357Y-116695211D01*
X85184355Y-116695208D01*
X85181198Y-116690700D01*
X85019300Y-116528802D01*
X85014792Y-116525645D01*
X85014789Y-116525643D01*
X84936611Y-116470902D01*
X84831749Y-116397477D01*
X84826767Y-116395154D01*
X84826762Y-116395151D01*
X84792543Y-116379195D01*
X84739258Y-116332278D01*
X84719797Y-116264001D01*
X84740339Y-116196041D01*
X84792543Y-116150805D01*
X84826762Y-116134849D01*
X84826767Y-116134846D01*
X84831749Y-116132523D01*
X84936611Y-116059098D01*
X85014789Y-116004357D01*
X85014792Y-116004355D01*
X85019300Y-116001198D01*
X85181198Y-115839300D01*
X85312523Y-115651749D01*
X85314846Y-115646767D01*
X85314849Y-115646762D01*
X85406961Y-115449225D01*
X85406961Y-115449224D01*
X85409284Y-115444243D01*
X85450489Y-115290467D01*
X85467119Y-115228402D01*
X85467119Y-115228400D01*
X85468543Y-115223087D01*
X85488498Y-114995000D01*
X85468543Y-114766913D01*
X85436705Y-114648091D01*
X85410707Y-114551067D01*
X85410706Y-114551065D01*
X85409284Y-114545757D01*
X85395281Y-114515727D01*
X85314849Y-114343238D01*
X85314846Y-114343233D01*
X85312523Y-114338251D01*
X85181198Y-114150700D01*
X85019300Y-113988802D01*
X85014792Y-113985645D01*
X85014789Y-113985643D01*
X84936611Y-113930902D01*
X84831749Y-113857477D01*
X84826767Y-113855154D01*
X84826762Y-113855151D01*
X84792543Y-113839195D01*
X84739258Y-113792278D01*
X84719797Y-113724001D01*
X84740339Y-113656041D01*
X84792543Y-113610805D01*
X84826762Y-113594849D01*
X84826767Y-113594846D01*
X84831749Y-113592523D01*
X84936611Y-113519098D01*
X85014789Y-113464357D01*
X85014792Y-113464355D01*
X85019300Y-113461198D01*
X85181198Y-113299300D01*
X85312523Y-113111749D01*
X85314846Y-113106767D01*
X85314849Y-113106762D01*
X85406961Y-112909225D01*
X85406961Y-112909224D01*
X85409284Y-112904243D01*
X85428575Y-112832251D01*
X85467119Y-112688402D01*
X85467119Y-112688400D01*
X85468543Y-112683087D01*
X85488498Y-112455000D01*
X85468543Y-112226913D01*
X85458244Y-112188478D01*
X85410707Y-112011067D01*
X85410706Y-112011065D01*
X85409284Y-112005757D01*
X85314966Y-111803489D01*
X85314849Y-111803238D01*
X85314846Y-111803233D01*
X85312523Y-111798251D01*
X85202683Y-111641384D01*
X85184357Y-111615211D01*
X85184355Y-111615208D01*
X85181198Y-111610700D01*
X85019300Y-111448802D01*
X85014792Y-111445645D01*
X85014789Y-111445643D01*
X84883576Y-111353767D01*
X84831749Y-111317477D01*
X84826767Y-111315154D01*
X84826762Y-111315151D01*
X84792543Y-111299195D01*
X84739258Y-111252278D01*
X84719797Y-111184001D01*
X84740339Y-111116041D01*
X84792543Y-111070805D01*
X84826762Y-111054849D01*
X84826767Y-111054846D01*
X84831749Y-111052523D01*
X84980832Y-110948134D01*
X85014789Y-110924357D01*
X85014792Y-110924355D01*
X85019300Y-110921198D01*
X85181198Y-110759300D01*
X85312523Y-110571749D01*
X85314846Y-110566767D01*
X85314849Y-110566762D01*
X85406961Y-110369225D01*
X85406961Y-110369224D01*
X85409284Y-110364243D01*
X85452825Y-110201749D01*
X85458245Y-110181522D01*
X89712273Y-110181522D01*
X89759764Y-110358761D01*
X89763510Y-110369053D01*
X89855586Y-110566511D01*
X89861069Y-110576007D01*
X89986028Y-110754467D01*
X89993084Y-110762875D01*
X90147125Y-110916916D01*
X90155533Y-110923972D01*
X90333993Y-111048931D01*
X90343489Y-111054414D01*
X90378641Y-111070805D01*
X90431926Y-111117722D01*
X90451387Y-111185999D01*
X90430845Y-111253959D01*
X90378641Y-111299195D01*
X90343489Y-111315586D01*
X90333993Y-111321069D01*
X90155533Y-111446028D01*
X90147125Y-111453084D01*
X89993084Y-111607125D01*
X89986028Y-111615533D01*
X89861069Y-111793993D01*
X89855586Y-111803489D01*
X89763510Y-112000947D01*
X89759764Y-112011239D01*
X89713606Y-112183503D01*
X89713942Y-112197599D01*
X89721884Y-112201000D01*
X91122885Y-112201000D01*
X91138124Y-112196525D01*
X91139329Y-112195135D01*
X91141000Y-112187452D01*
X91141000Y-112182885D01*
X91649000Y-112182885D01*
X91653475Y-112198124D01*
X91654865Y-112199329D01*
X91662548Y-112201000D01*
X93062967Y-112201000D01*
X93076498Y-112197027D01*
X93077727Y-112188478D01*
X93030236Y-112011239D01*
X93026490Y-112000947D01*
X92934414Y-111803489D01*
X92928931Y-111793993D01*
X92803972Y-111615533D01*
X92796916Y-111607125D01*
X92642875Y-111453084D01*
X92634467Y-111446028D01*
X92456007Y-111321069D01*
X92446511Y-111315586D01*
X92411359Y-111299195D01*
X92358074Y-111252278D01*
X92338613Y-111184001D01*
X92359155Y-111116041D01*
X92411359Y-111070805D01*
X92446511Y-111054414D01*
X92456007Y-111048931D01*
X92634467Y-110923972D01*
X92642875Y-110916916D01*
X92796916Y-110762875D01*
X92803972Y-110754467D01*
X92928931Y-110576007D01*
X92934414Y-110566511D01*
X93026490Y-110369053D01*
X93030236Y-110358761D01*
X93076394Y-110186497D01*
X93076058Y-110172401D01*
X93068116Y-110169000D01*
X91667115Y-110169000D01*
X91651876Y-110173475D01*
X91650671Y-110174865D01*
X91649000Y-110182548D01*
X91649000Y-112182885D01*
X91141000Y-112182885D01*
X91141000Y-110187115D01*
X91136525Y-110171876D01*
X91135135Y-110170671D01*
X91127452Y-110169000D01*
X89727033Y-110169000D01*
X89713502Y-110172973D01*
X89712273Y-110181522D01*
X85458245Y-110181522D01*
X85467119Y-110148402D01*
X85467119Y-110148400D01*
X85468543Y-110143087D01*
X85488498Y-109915000D01*
X85468543Y-109686913D01*
X85409284Y-109465757D01*
X85406961Y-109460775D01*
X85314849Y-109263238D01*
X85314846Y-109263233D01*
X85312523Y-109258251D01*
X85209111Y-109110564D01*
X85184357Y-109075211D01*
X85184355Y-109075208D01*
X85181198Y-109070700D01*
X85019300Y-108908802D01*
X85014789Y-108905643D01*
X85010576Y-108902108D01*
X85011527Y-108900974D01*
X84971529Y-108850929D01*
X84964224Y-108780310D01*
X84996258Y-108716951D01*
X85057462Y-108680970D01*
X85074517Y-108677918D01*
X85085316Y-108676745D01*
X85221705Y-108625615D01*
X85338261Y-108538261D01*
X85425615Y-108421705D01*
X85476745Y-108285316D01*
X85483500Y-108223134D01*
X85483500Y-107375000D01*
X89681502Y-107375000D01*
X89701457Y-107603087D01*
X89760716Y-107824243D01*
X89763039Y-107829224D01*
X89763039Y-107829225D01*
X89855151Y-108026762D01*
X89855154Y-108026767D01*
X89857477Y-108031749D01*
X89988802Y-108219300D01*
X90150700Y-108381198D01*
X90155208Y-108384355D01*
X90155211Y-108384357D01*
X90196542Y-108413297D01*
X90338251Y-108512523D01*
X90343233Y-108514846D01*
X90343238Y-108514849D01*
X90378049Y-108531081D01*
X90431334Y-108577998D01*
X90450795Y-108646275D01*
X90430253Y-108714235D01*
X90378049Y-108759471D01*
X90343489Y-108775586D01*
X90333993Y-108781069D01*
X90155533Y-108906028D01*
X90147125Y-108913084D01*
X89993084Y-109067125D01*
X89986028Y-109075533D01*
X89861069Y-109253993D01*
X89855586Y-109263489D01*
X89763510Y-109460947D01*
X89759764Y-109471239D01*
X89713606Y-109643503D01*
X89713942Y-109657599D01*
X89721884Y-109661000D01*
X93062967Y-109661000D01*
X93076498Y-109657027D01*
X93077727Y-109648478D01*
X93030236Y-109471239D01*
X93026490Y-109460947D01*
X92934414Y-109263489D01*
X92928931Y-109253993D01*
X92803972Y-109075533D01*
X92796916Y-109067125D01*
X92642875Y-108913084D01*
X92634467Y-108906028D01*
X92456007Y-108781069D01*
X92446511Y-108775586D01*
X92411951Y-108759471D01*
X92358666Y-108712554D01*
X92339205Y-108644277D01*
X92359747Y-108576317D01*
X92411951Y-108531081D01*
X92446762Y-108514849D01*
X92446767Y-108514846D01*
X92451749Y-108512523D01*
X92593458Y-108413297D01*
X92634789Y-108384357D01*
X92634792Y-108384355D01*
X92639300Y-108381198D01*
X92801198Y-108219300D01*
X92932523Y-108031749D01*
X92934846Y-108026767D01*
X92934849Y-108026762D01*
X93026961Y-107829225D01*
X93026961Y-107829224D01*
X93029284Y-107824243D01*
X93088543Y-107603087D01*
X93108498Y-107375000D01*
X93088543Y-107146913D01*
X93029284Y-106925757D01*
X93026961Y-106920775D01*
X92934849Y-106723238D01*
X92934846Y-106723233D01*
X92932523Y-106718251D01*
X92801198Y-106530700D01*
X92639300Y-106368802D01*
X92634792Y-106365645D01*
X92634789Y-106365643D01*
X92556611Y-106310902D01*
X92451749Y-106237477D01*
X92446767Y-106235154D01*
X92446762Y-106235151D01*
X92249225Y-106143039D01*
X92249224Y-106143039D01*
X92244243Y-106140716D01*
X92238935Y-106139294D01*
X92238933Y-106139293D01*
X92028402Y-106082881D01*
X92028400Y-106082881D01*
X92023087Y-106081457D01*
X91923520Y-106072746D01*
X91854851Y-106066738D01*
X91854844Y-106066738D01*
X91852127Y-106066500D01*
X90937873Y-106066500D01*
X90935156Y-106066738D01*
X90935149Y-106066738D01*
X90866480Y-106072746D01*
X90766913Y-106081457D01*
X90761600Y-106082881D01*
X90761598Y-106082881D01*
X90551067Y-106139293D01*
X90551065Y-106139294D01*
X90545757Y-106140716D01*
X90540776Y-106143039D01*
X90540775Y-106143039D01*
X90343238Y-106235151D01*
X90343233Y-106235154D01*
X90338251Y-106237477D01*
X90233389Y-106310902D01*
X90155211Y-106365643D01*
X90155208Y-106365645D01*
X90150700Y-106368802D01*
X89988802Y-106530700D01*
X89857477Y-106718251D01*
X89855154Y-106723233D01*
X89855151Y-106723238D01*
X89763039Y-106920775D01*
X89760716Y-106925757D01*
X89701457Y-107146913D01*
X89681502Y-107375000D01*
X85483500Y-107375000D01*
X85483500Y-106526866D01*
X85476745Y-106464684D01*
X85425615Y-106328295D01*
X85338261Y-106211739D01*
X85221705Y-106124385D01*
X85085316Y-106073255D01*
X85023134Y-106066500D01*
X82526866Y-106066500D01*
X82464684Y-106073255D01*
X82328295Y-106124385D01*
X82211739Y-106211739D01*
X82124385Y-106328295D01*
X82073255Y-106464684D01*
X82066500Y-106526866D01*
X82066500Y-108223134D01*
X82073255Y-108285316D01*
X82124385Y-108421705D01*
X82211739Y-108538261D01*
X82328295Y-108625615D01*
X82464684Y-108676745D01*
X82475474Y-108677917D01*
X82477606Y-108678803D01*
X82480222Y-108679425D01*
X82480121Y-108679848D01*
X82541035Y-108705155D01*
X82581463Y-108763517D01*
X82583922Y-108834471D01*
X82547629Y-108895490D01*
X82538969Y-108902489D01*
X82535207Y-108905646D01*
X82530700Y-108908802D01*
X82368802Y-109070700D01*
X82365645Y-109075208D01*
X82365643Y-109075211D01*
X82340889Y-109110564D01*
X82237477Y-109258251D01*
X82235154Y-109263233D01*
X82235151Y-109263238D01*
X82143039Y-109460775D01*
X82140716Y-109465757D01*
X82081457Y-109686913D01*
X82061502Y-109915000D01*
X82081457Y-110143087D01*
X82082881Y-110148400D01*
X82082881Y-110148402D01*
X82097176Y-110201749D01*
X82140716Y-110364243D01*
X82143039Y-110369224D01*
X82143039Y-110369225D01*
X82235151Y-110566762D01*
X82235154Y-110566767D01*
X82237477Y-110571749D01*
X82368802Y-110759300D01*
X82530700Y-110921198D01*
X82535208Y-110924355D01*
X82535211Y-110924357D01*
X82569168Y-110948134D01*
X82718251Y-111052523D01*
X82723233Y-111054846D01*
X82723238Y-111054849D01*
X82757457Y-111070805D01*
X82810742Y-111117722D01*
X82830203Y-111185999D01*
X82809661Y-111253959D01*
X82757457Y-111299195D01*
X82723238Y-111315151D01*
X82723233Y-111315154D01*
X82718251Y-111317477D01*
X82666424Y-111353767D01*
X82535211Y-111445643D01*
X82535208Y-111445645D01*
X82530700Y-111448802D01*
X82368802Y-111610700D01*
X82365645Y-111615208D01*
X82365643Y-111615211D01*
X82347317Y-111641384D01*
X82237477Y-111798251D01*
X82235154Y-111803233D01*
X82235151Y-111803238D01*
X82235034Y-111803489D01*
X82140716Y-112005757D01*
X82139294Y-112011065D01*
X82139293Y-112011067D01*
X82091756Y-112188478D01*
X82081457Y-112226913D01*
X82061502Y-112455000D01*
X82081457Y-112683087D01*
X82082881Y-112688400D01*
X82082881Y-112688402D01*
X82121426Y-112832251D01*
X82140716Y-112904243D01*
X82143039Y-112909224D01*
X82143039Y-112909225D01*
X82235151Y-113106762D01*
X82235154Y-113106767D01*
X82237477Y-113111749D01*
X82368802Y-113299300D01*
X82530700Y-113461198D01*
X82535208Y-113464355D01*
X82535211Y-113464357D01*
X82613389Y-113519098D01*
X82718251Y-113592523D01*
X82723233Y-113594846D01*
X82723238Y-113594849D01*
X82757457Y-113610805D01*
X82810742Y-113657722D01*
X82830203Y-113725999D01*
X82809661Y-113793959D01*
X82757457Y-113839195D01*
X82723238Y-113855151D01*
X82723233Y-113855154D01*
X82718251Y-113857477D01*
X82613389Y-113930902D01*
X82535211Y-113985643D01*
X82535208Y-113985645D01*
X82530700Y-113988802D01*
X82368802Y-114150700D01*
X82237477Y-114338251D01*
X82235154Y-114343233D01*
X82235151Y-114343238D01*
X82154719Y-114515727D01*
X82140716Y-114545757D01*
X82139294Y-114551065D01*
X82139293Y-114551067D01*
X82113295Y-114648091D01*
X82081457Y-114766913D01*
X82061502Y-114995000D01*
X82081457Y-115223087D01*
X82082881Y-115228400D01*
X82082881Y-115228402D01*
X82099512Y-115290467D01*
X82140716Y-115444243D01*
X82143039Y-115449224D01*
X82143039Y-115449225D01*
X82235151Y-115646762D01*
X82235154Y-115646767D01*
X82237477Y-115651749D01*
X82368802Y-115839300D01*
X82530700Y-116001198D01*
X82535208Y-116004355D01*
X82535211Y-116004357D01*
X82613389Y-116059098D01*
X82718251Y-116132523D01*
X82723233Y-116134846D01*
X82723238Y-116134849D01*
X82757457Y-116150805D01*
X82810742Y-116197722D01*
X82830203Y-116265999D01*
X82809661Y-116333959D01*
X82757457Y-116379195D01*
X82723238Y-116395151D01*
X82723233Y-116395154D01*
X82718251Y-116397477D01*
X82613389Y-116470902D01*
X82535211Y-116525643D01*
X82535208Y-116525645D01*
X82530700Y-116528802D01*
X82368802Y-116690700D01*
X82365645Y-116695208D01*
X82365643Y-116695211D01*
X82310902Y-116773389D01*
X82237477Y-116878251D01*
X82235154Y-116883233D01*
X82235151Y-116883238D01*
X82196477Y-116966176D01*
X82140716Y-117085757D01*
X82139294Y-117091065D01*
X82139293Y-117091067D01*
X82104977Y-117219135D01*
X82081457Y-117306913D01*
X82061502Y-117535000D01*
X82081457Y-117763087D01*
X82082881Y-117768400D01*
X82082881Y-117768402D01*
X82105878Y-117854225D01*
X82140716Y-117984243D01*
X82143039Y-117989224D01*
X82143039Y-117989225D01*
X82235151Y-118186762D01*
X82235154Y-118186767D01*
X82237477Y-118191749D01*
X82368802Y-118379300D01*
X82530700Y-118541198D01*
X82535208Y-118544355D01*
X82535211Y-118544357D01*
X82613389Y-118599098D01*
X82718251Y-118672523D01*
X82723233Y-118674846D01*
X82723238Y-118674849D01*
X82757457Y-118690805D01*
X82810742Y-118737722D01*
X82830203Y-118805999D01*
X82809661Y-118873959D01*
X82757457Y-118919195D01*
X82723238Y-118935151D01*
X82723233Y-118935154D01*
X82718251Y-118937477D01*
X82613389Y-119010902D01*
X82535211Y-119065643D01*
X82535208Y-119065645D01*
X82530700Y-119068802D01*
X82368802Y-119230700D01*
X82365645Y-119235208D01*
X82365643Y-119235211D01*
X82310902Y-119313389D01*
X82237477Y-119418251D01*
X82235154Y-119423233D01*
X82235151Y-119423238D01*
X82158701Y-119587188D01*
X82140716Y-119625757D01*
X82081457Y-119846913D01*
X82061502Y-120075000D01*
X80508500Y-120075000D01*
X80508500Y-103750000D01*
X100686502Y-103750000D01*
X100706457Y-103978087D01*
X100765716Y-104199243D01*
X100768039Y-104204224D01*
X100768039Y-104204225D01*
X100860151Y-104401762D01*
X100860154Y-104401767D01*
X100862477Y-104406749D01*
X100993802Y-104594300D01*
X101155700Y-104756198D01*
X101160208Y-104759355D01*
X101160211Y-104759357D01*
X101238389Y-104814098D01*
X101343251Y-104887523D01*
X101348233Y-104889846D01*
X101348238Y-104889849D01*
X101545775Y-104981961D01*
X101550757Y-104984284D01*
X101556065Y-104985706D01*
X101556067Y-104985707D01*
X101766598Y-105042119D01*
X101766600Y-105042119D01*
X101771913Y-105043543D01*
X102000000Y-105063498D01*
X102228087Y-105043543D01*
X102233400Y-105042119D01*
X102233402Y-105042119D01*
X102443933Y-104985707D01*
X102443935Y-104985706D01*
X102449243Y-104984284D01*
X102454225Y-104981961D01*
X102651762Y-104889849D01*
X102651767Y-104889846D01*
X102656749Y-104887523D01*
X102761611Y-104814098D01*
X102839789Y-104759357D01*
X102839792Y-104759355D01*
X102844300Y-104756198D01*
X103006198Y-104594300D01*
X103137523Y-104406749D01*
X103139846Y-104401767D01*
X103139849Y-104401762D01*
X103231961Y-104204225D01*
X103231961Y-104204224D01*
X103234284Y-104199243D01*
X103293543Y-103978087D01*
X103313498Y-103750000D01*
X110686502Y-103750000D01*
X110706457Y-103978087D01*
X110765716Y-104199243D01*
X110768039Y-104204224D01*
X110768039Y-104204225D01*
X110860151Y-104401762D01*
X110860154Y-104401767D01*
X110862477Y-104406749D01*
X110993802Y-104594300D01*
X111155700Y-104756198D01*
X111160208Y-104759355D01*
X111160211Y-104759357D01*
X111238389Y-104814098D01*
X111343251Y-104887523D01*
X111348233Y-104889846D01*
X111348238Y-104889849D01*
X111545775Y-104981961D01*
X111550757Y-104984284D01*
X111556065Y-104985706D01*
X111556067Y-104985707D01*
X111766598Y-105042119D01*
X111766600Y-105042119D01*
X111771913Y-105043543D01*
X112000000Y-105063498D01*
X112228087Y-105043543D01*
X112233400Y-105042119D01*
X112233402Y-105042119D01*
X112443933Y-104985707D01*
X112443935Y-104985706D01*
X112449243Y-104984284D01*
X112454225Y-104981961D01*
X112651762Y-104889849D01*
X112651767Y-104889846D01*
X112656749Y-104887523D01*
X112761611Y-104814098D01*
X112839789Y-104759357D01*
X112839792Y-104759355D01*
X112844300Y-104756198D01*
X113006198Y-104594300D01*
X113137523Y-104406749D01*
X113139846Y-104401767D01*
X113139849Y-104401762D01*
X113231961Y-104204225D01*
X113231961Y-104204224D01*
X113234284Y-104199243D01*
X113293543Y-103978087D01*
X113313498Y-103750000D01*
X120686502Y-103750000D01*
X120706457Y-103978087D01*
X120765716Y-104199243D01*
X120768039Y-104204224D01*
X120768039Y-104204225D01*
X120860151Y-104401762D01*
X120860154Y-104401767D01*
X120862477Y-104406749D01*
X120993802Y-104594300D01*
X121155700Y-104756198D01*
X121160208Y-104759355D01*
X121160211Y-104759357D01*
X121238389Y-104814098D01*
X121343251Y-104887523D01*
X121348233Y-104889846D01*
X121348238Y-104889849D01*
X121545775Y-104981961D01*
X121550757Y-104984284D01*
X121556065Y-104985706D01*
X121556067Y-104985707D01*
X121766598Y-105042119D01*
X121766600Y-105042119D01*
X121771913Y-105043543D01*
X122000000Y-105063498D01*
X122228087Y-105043543D01*
X122233400Y-105042119D01*
X122233402Y-105042119D01*
X122443933Y-104985707D01*
X122443935Y-104985706D01*
X122449243Y-104984284D01*
X122454225Y-104981961D01*
X122651762Y-104889849D01*
X122651767Y-104889846D01*
X122656749Y-104887523D01*
X122761611Y-104814098D01*
X122839789Y-104759357D01*
X122839792Y-104759355D01*
X122844300Y-104756198D01*
X123006198Y-104594300D01*
X123137523Y-104406749D01*
X123139846Y-104401767D01*
X123139849Y-104401762D01*
X123231961Y-104204225D01*
X123231961Y-104204224D01*
X123234284Y-104199243D01*
X123293543Y-103978087D01*
X123313498Y-103750000D01*
X123293543Y-103521913D01*
X123234284Y-103300757D01*
X123231961Y-103295775D01*
X123139849Y-103098238D01*
X123139846Y-103098233D01*
X123137523Y-103093251D01*
X123006198Y-102905700D01*
X122844300Y-102743802D01*
X122839792Y-102740645D01*
X122839789Y-102740643D01*
X122761611Y-102685902D01*
X122656749Y-102612477D01*
X122651767Y-102610154D01*
X122651762Y-102610151D01*
X122454225Y-102518039D01*
X122454224Y-102518039D01*
X122449243Y-102515716D01*
X122443935Y-102514294D01*
X122443933Y-102514293D01*
X122233402Y-102457881D01*
X122233400Y-102457881D01*
X122228087Y-102456457D01*
X122000000Y-102436502D01*
X121771913Y-102456457D01*
X121766600Y-102457881D01*
X121766598Y-102457881D01*
X121556067Y-102514293D01*
X121556065Y-102514294D01*
X121550757Y-102515716D01*
X121545776Y-102518039D01*
X121545775Y-102518039D01*
X121348238Y-102610151D01*
X121348233Y-102610154D01*
X121343251Y-102612477D01*
X121238389Y-102685902D01*
X121160211Y-102740643D01*
X121160208Y-102740645D01*
X121155700Y-102743802D01*
X120993802Y-102905700D01*
X120862477Y-103093251D01*
X120860154Y-103098233D01*
X120860151Y-103098238D01*
X120768039Y-103295775D01*
X120765716Y-103300757D01*
X120706457Y-103521913D01*
X120686502Y-103750000D01*
X113313498Y-103750000D01*
X113293543Y-103521913D01*
X113234284Y-103300757D01*
X113231961Y-103295775D01*
X113139849Y-103098238D01*
X113139846Y-103098233D01*
X113137523Y-103093251D01*
X113006198Y-102905700D01*
X112844300Y-102743802D01*
X112839792Y-102740645D01*
X112839789Y-102740643D01*
X112761611Y-102685902D01*
X112656749Y-102612477D01*
X112651767Y-102610154D01*
X112651762Y-102610151D01*
X112454225Y-102518039D01*
X112454224Y-102518039D01*
X112449243Y-102515716D01*
X112443935Y-102514294D01*
X112443933Y-102514293D01*
X112233402Y-102457881D01*
X112233400Y-102457881D01*
X112228087Y-102456457D01*
X112000000Y-102436502D01*
X111771913Y-102456457D01*
X111766600Y-102457881D01*
X111766598Y-102457881D01*
X111556067Y-102514293D01*
X111556065Y-102514294D01*
X111550757Y-102515716D01*
X111545776Y-102518039D01*
X111545775Y-102518039D01*
X111348238Y-102610151D01*
X111348233Y-102610154D01*
X111343251Y-102612477D01*
X111238389Y-102685902D01*
X111160211Y-102740643D01*
X111160208Y-102740645D01*
X111155700Y-102743802D01*
X110993802Y-102905700D01*
X110862477Y-103093251D01*
X110860154Y-103098233D01*
X110860151Y-103098238D01*
X110768039Y-103295775D01*
X110765716Y-103300757D01*
X110706457Y-103521913D01*
X110686502Y-103750000D01*
X103313498Y-103750000D01*
X103293543Y-103521913D01*
X103234284Y-103300757D01*
X103231961Y-103295775D01*
X103139849Y-103098238D01*
X103139846Y-103098233D01*
X103137523Y-103093251D01*
X103006198Y-102905700D01*
X102844300Y-102743802D01*
X102839792Y-102740645D01*
X102839789Y-102740643D01*
X102761611Y-102685902D01*
X102656749Y-102612477D01*
X102651767Y-102610154D01*
X102651762Y-102610151D01*
X102454225Y-102518039D01*
X102454224Y-102518039D01*
X102449243Y-102515716D01*
X102443935Y-102514294D01*
X102443933Y-102514293D01*
X102233402Y-102457881D01*
X102233400Y-102457881D01*
X102228087Y-102456457D01*
X102000000Y-102436502D01*
X101771913Y-102456457D01*
X101766600Y-102457881D01*
X101766598Y-102457881D01*
X101556067Y-102514293D01*
X101556065Y-102514294D01*
X101550757Y-102515716D01*
X101545776Y-102518039D01*
X101545775Y-102518039D01*
X101348238Y-102610151D01*
X101348233Y-102610154D01*
X101343251Y-102612477D01*
X101238389Y-102685902D01*
X101160211Y-102740643D01*
X101160208Y-102740645D01*
X101155700Y-102743802D01*
X100993802Y-102905700D01*
X100862477Y-103093251D01*
X100860154Y-103098233D01*
X100860151Y-103098238D01*
X100768039Y-103295775D01*
X100765716Y-103300757D01*
X100706457Y-103521913D01*
X100686502Y-103750000D01*
X80508500Y-103750000D01*
X80508500Y-101048134D01*
X83723823Y-101048134D01*
X83730578Y-101110316D01*
X83781708Y-101246705D01*
X83869062Y-101363261D01*
X83985618Y-101450615D01*
X84122007Y-101501745D01*
X84184189Y-101508500D01*
X86280457Y-101508500D01*
X86342639Y-101501745D01*
X86479028Y-101450615D01*
X86595584Y-101363261D01*
X86682938Y-101246705D01*
X86688199Y-101232670D01*
X89364483Y-101232670D01*
X89370210Y-101240320D01*
X89541365Y-101345205D01*
X89550160Y-101349687D01*
X89760311Y-101436734D01*
X89769696Y-101439783D01*
X89990877Y-101492885D01*
X90000624Y-101494428D01*
X90227393Y-101512275D01*
X90237253Y-101512275D01*
X90464022Y-101494428D01*
X90473769Y-101492885D01*
X90694950Y-101439783D01*
X90704335Y-101436734D01*
X90914486Y-101349687D01*
X90923281Y-101345205D01*
X91090768Y-101242568D01*
X91100230Y-101232110D01*
X91096447Y-101223334D01*
X90245135Y-100372022D01*
X90231191Y-100364408D01*
X90229358Y-100364539D01*
X90222743Y-100368790D01*
X89371243Y-101220290D01*
X89364483Y-101232670D01*
X86688199Y-101232670D01*
X86734068Y-101110316D01*
X86740823Y-101048134D01*
X86740823Y-100004930D01*
X88720048Y-100004930D01*
X88737895Y-100231699D01*
X88739438Y-100241446D01*
X88792540Y-100462627D01*
X88795589Y-100472012D01*
X88882636Y-100682163D01*
X88887118Y-100690958D01*
X88989755Y-100858445D01*
X89000213Y-100867907D01*
X89008989Y-100864124D01*
X89860301Y-100012812D01*
X89866679Y-100001132D01*
X90596731Y-100001132D01*
X90596862Y-100002965D01*
X90601113Y-100009580D01*
X91452613Y-100861080D01*
X91464993Y-100867840D01*
X91472643Y-100862113D01*
X91577528Y-100690958D01*
X91582010Y-100682163D01*
X91669057Y-100472012D01*
X91672106Y-100462627D01*
X91725208Y-100241446D01*
X91726751Y-100231699D01*
X91744598Y-100004930D01*
X91744598Y-99995070D01*
X91726751Y-99768301D01*
X91725208Y-99758554D01*
X91672106Y-99537373D01*
X91669057Y-99527988D01*
X91582010Y-99317837D01*
X91577528Y-99309042D01*
X91474891Y-99141555D01*
X91464433Y-99132093D01*
X91455657Y-99135876D01*
X90604345Y-99987188D01*
X90596731Y-100001132D01*
X89866679Y-100001132D01*
X89867915Y-99998868D01*
X89867784Y-99997035D01*
X89863533Y-99990420D01*
X89012033Y-99138920D01*
X88999653Y-99132160D01*
X88992003Y-99137887D01*
X88887118Y-99309042D01*
X88882636Y-99317837D01*
X88795589Y-99527988D01*
X88792540Y-99537373D01*
X88739438Y-99758554D01*
X88737895Y-99768301D01*
X88720048Y-99995070D01*
X88720048Y-100004930D01*
X86740823Y-100004930D01*
X86740823Y-98951866D01*
X86734068Y-98889684D01*
X86688409Y-98767890D01*
X89364416Y-98767890D01*
X89368199Y-98776666D01*
X90219511Y-99627978D01*
X90233455Y-99635592D01*
X90235288Y-99635461D01*
X90241903Y-99631210D01*
X90923113Y-98950000D01*
X96086502Y-98950000D01*
X96106457Y-99178087D01*
X96107881Y-99183400D01*
X96107881Y-99183402D01*
X96141547Y-99309042D01*
X96165716Y-99399243D01*
X96168039Y-99404224D01*
X96168039Y-99404225D01*
X96260151Y-99601762D01*
X96260154Y-99601767D01*
X96262477Y-99606749D01*
X96282673Y-99635592D01*
X96369335Y-99759357D01*
X96393802Y-99794300D01*
X96555700Y-99956198D01*
X96560208Y-99959355D01*
X96560211Y-99959357D01*
X96592493Y-99981961D01*
X96743251Y-100087523D01*
X96748233Y-100089846D01*
X96748238Y-100089849D01*
X96945775Y-100181961D01*
X96950757Y-100184284D01*
X96956065Y-100185706D01*
X96956067Y-100185707D01*
X97166598Y-100242119D01*
X97166600Y-100242119D01*
X97171913Y-100243543D01*
X97400000Y-100263498D01*
X97628087Y-100243543D01*
X97633400Y-100242119D01*
X97633402Y-100242119D01*
X97843933Y-100185707D01*
X97843935Y-100185706D01*
X97849243Y-100184284D01*
X97854225Y-100181961D01*
X98051762Y-100089849D01*
X98051767Y-100089846D01*
X98056749Y-100087523D01*
X98207507Y-99981961D01*
X98239789Y-99959357D01*
X98239792Y-99959355D01*
X98244300Y-99956198D01*
X98406198Y-99794300D01*
X98430666Y-99759357D01*
X98517327Y-99635592D01*
X98537523Y-99606749D01*
X98539846Y-99601767D01*
X98539849Y-99601762D01*
X98631961Y-99404225D01*
X98631961Y-99404224D01*
X98634284Y-99399243D01*
X98658454Y-99309042D01*
X98692119Y-99183402D01*
X98692119Y-99183400D01*
X98693543Y-99178087D01*
X98713498Y-98950000D01*
X105886502Y-98950000D01*
X105906457Y-99178087D01*
X105907881Y-99183400D01*
X105907881Y-99183402D01*
X105941547Y-99309042D01*
X105965716Y-99399243D01*
X105968039Y-99404224D01*
X105968039Y-99404225D01*
X106060151Y-99601762D01*
X106060154Y-99601767D01*
X106062477Y-99606749D01*
X106082673Y-99635592D01*
X106169335Y-99759357D01*
X106193802Y-99794300D01*
X106355700Y-99956198D01*
X106360208Y-99959355D01*
X106360211Y-99959357D01*
X106392493Y-99981961D01*
X106543251Y-100087523D01*
X106548233Y-100089846D01*
X106548238Y-100089849D01*
X106745775Y-100181961D01*
X106750757Y-100184284D01*
X106756065Y-100185706D01*
X106756067Y-100185707D01*
X106966598Y-100242119D01*
X106966600Y-100242119D01*
X106971913Y-100243543D01*
X107200000Y-100263498D01*
X107428087Y-100243543D01*
X107433400Y-100242119D01*
X107433402Y-100242119D01*
X107643933Y-100185707D01*
X107643935Y-100185706D01*
X107649243Y-100184284D01*
X107654225Y-100181961D01*
X107851762Y-100089849D01*
X107851767Y-100089846D01*
X107856749Y-100087523D01*
X108007507Y-99981961D01*
X108039789Y-99959357D01*
X108039792Y-99959355D01*
X108044300Y-99956198D01*
X108206198Y-99794300D01*
X108230666Y-99759357D01*
X108317327Y-99635592D01*
X108337523Y-99606749D01*
X108339846Y-99601767D01*
X108339849Y-99601762D01*
X108431961Y-99404225D01*
X108431961Y-99404224D01*
X108434284Y-99399243D01*
X108458454Y-99309042D01*
X108492119Y-99183402D01*
X108492119Y-99183400D01*
X108493543Y-99178087D01*
X108513498Y-98950000D01*
X108496000Y-98750000D01*
X116086502Y-98750000D01*
X116106457Y-98978087D01*
X116107881Y-98983400D01*
X116107881Y-98983402D01*
X116149276Y-99137887D01*
X116165716Y-99199243D01*
X116168039Y-99204224D01*
X116168039Y-99204225D01*
X116260151Y-99401762D01*
X116260154Y-99401767D01*
X116262477Y-99406749D01*
X116393802Y-99594300D01*
X116555700Y-99756198D01*
X116560208Y-99759355D01*
X116560211Y-99759357D01*
X116638389Y-99814098D01*
X116743251Y-99887523D01*
X116748233Y-99889846D01*
X116748238Y-99889849D01*
X116945775Y-99981961D01*
X116950757Y-99984284D01*
X116956065Y-99985706D01*
X116956067Y-99985707D01*
X117166598Y-100042119D01*
X117166600Y-100042119D01*
X117171913Y-100043543D01*
X117400000Y-100063498D01*
X117628087Y-100043543D01*
X117633400Y-100042119D01*
X117633402Y-100042119D01*
X117843933Y-99985707D01*
X117843935Y-99985706D01*
X117849243Y-99984284D01*
X117854225Y-99981961D01*
X118051762Y-99889849D01*
X118051767Y-99889846D01*
X118056749Y-99887523D01*
X118161611Y-99814098D01*
X118239789Y-99759357D01*
X118239792Y-99759355D01*
X118244300Y-99756198D01*
X118406198Y-99594300D01*
X118537523Y-99406749D01*
X118539846Y-99401767D01*
X118539849Y-99401762D01*
X118631961Y-99204225D01*
X118631961Y-99204224D01*
X118634284Y-99199243D01*
X118650725Y-99137887D01*
X118692119Y-98983402D01*
X118692119Y-98983400D01*
X118693543Y-98978087D01*
X118713498Y-98750000D01*
X118693543Y-98521913D01*
X118689297Y-98506067D01*
X118635707Y-98306067D01*
X118635706Y-98306065D01*
X118634284Y-98300757D01*
X118545432Y-98110211D01*
X118539849Y-98098238D01*
X118539846Y-98098233D01*
X118537523Y-98093251D01*
X118435606Y-97947699D01*
X118409357Y-97910211D01*
X118409355Y-97910208D01*
X118406198Y-97905700D01*
X118244300Y-97743802D01*
X118239792Y-97740645D01*
X118239789Y-97740643D01*
X118121592Y-97657881D01*
X118056749Y-97612477D01*
X118051767Y-97610154D01*
X118051762Y-97610151D01*
X117854225Y-97518039D01*
X117854224Y-97518039D01*
X117849243Y-97515716D01*
X117843935Y-97514294D01*
X117843933Y-97514293D01*
X117633402Y-97457881D01*
X117633400Y-97457881D01*
X117628087Y-97456457D01*
X117400000Y-97436502D01*
X117171913Y-97456457D01*
X117166600Y-97457881D01*
X117166598Y-97457881D01*
X116956067Y-97514293D01*
X116956065Y-97514294D01*
X116950757Y-97515716D01*
X116945776Y-97518039D01*
X116945775Y-97518039D01*
X116748238Y-97610151D01*
X116748233Y-97610154D01*
X116743251Y-97612477D01*
X116678408Y-97657881D01*
X116560211Y-97740643D01*
X116560208Y-97740645D01*
X116555700Y-97743802D01*
X116393802Y-97905700D01*
X116390645Y-97910208D01*
X116390643Y-97910211D01*
X116364394Y-97947699D01*
X116262477Y-98093251D01*
X116260154Y-98098233D01*
X116260151Y-98098238D01*
X116254568Y-98110211D01*
X116165716Y-98300757D01*
X116164294Y-98306065D01*
X116164293Y-98306067D01*
X116110703Y-98506067D01*
X116106457Y-98521913D01*
X116086502Y-98750000D01*
X108496000Y-98750000D01*
X108493543Y-98721913D01*
X108474358Y-98650313D01*
X108435707Y-98506067D01*
X108435706Y-98506065D01*
X108434284Y-98500757D01*
X108431961Y-98495775D01*
X108339849Y-98298238D01*
X108339846Y-98298233D01*
X108337523Y-98293251D01*
X108206198Y-98105700D01*
X108044300Y-97943802D01*
X108039792Y-97940645D01*
X108039789Y-97940643D01*
X107961611Y-97885902D01*
X107856749Y-97812477D01*
X107851767Y-97810154D01*
X107851762Y-97810151D01*
X107654225Y-97718039D01*
X107654224Y-97718039D01*
X107649243Y-97715716D01*
X107643935Y-97714294D01*
X107643933Y-97714293D01*
X107433402Y-97657881D01*
X107433400Y-97657881D01*
X107428087Y-97656457D01*
X107200000Y-97636502D01*
X106971913Y-97656457D01*
X106966600Y-97657881D01*
X106966598Y-97657881D01*
X106756067Y-97714293D01*
X106756065Y-97714294D01*
X106750757Y-97715716D01*
X106745776Y-97718039D01*
X106745775Y-97718039D01*
X106548238Y-97810151D01*
X106548233Y-97810154D01*
X106543251Y-97812477D01*
X106438389Y-97885902D01*
X106360211Y-97940643D01*
X106360208Y-97940645D01*
X106355700Y-97943802D01*
X106193802Y-98105700D01*
X106062477Y-98293251D01*
X106060154Y-98298233D01*
X106060151Y-98298238D01*
X105968039Y-98495775D01*
X105965716Y-98500757D01*
X105964294Y-98506065D01*
X105964293Y-98506067D01*
X105925642Y-98650313D01*
X105906457Y-98721913D01*
X105886502Y-98950000D01*
X98713498Y-98950000D01*
X98693543Y-98721913D01*
X98674358Y-98650313D01*
X98635707Y-98506067D01*
X98635706Y-98506065D01*
X98634284Y-98500757D01*
X98631961Y-98495775D01*
X98539849Y-98298238D01*
X98539846Y-98298233D01*
X98537523Y-98293251D01*
X98406198Y-98105700D01*
X98244300Y-97943802D01*
X98239792Y-97940645D01*
X98239789Y-97940643D01*
X98161611Y-97885902D01*
X98056749Y-97812477D01*
X98051767Y-97810154D01*
X98051762Y-97810151D01*
X97854225Y-97718039D01*
X97854224Y-97718039D01*
X97849243Y-97715716D01*
X97843935Y-97714294D01*
X97843933Y-97714293D01*
X97633402Y-97657881D01*
X97633400Y-97657881D01*
X97628087Y-97656457D01*
X97400000Y-97636502D01*
X97171913Y-97656457D01*
X97166600Y-97657881D01*
X97166598Y-97657881D01*
X96956067Y-97714293D01*
X96956065Y-97714294D01*
X96950757Y-97715716D01*
X96945776Y-97718039D01*
X96945775Y-97718039D01*
X96748238Y-97810151D01*
X96748233Y-97810154D01*
X96743251Y-97812477D01*
X96638389Y-97885902D01*
X96560211Y-97940643D01*
X96560208Y-97940645D01*
X96555700Y-97943802D01*
X96393802Y-98105700D01*
X96262477Y-98293251D01*
X96260154Y-98298233D01*
X96260151Y-98298238D01*
X96168039Y-98495775D01*
X96165716Y-98500757D01*
X96164294Y-98506065D01*
X96164293Y-98506067D01*
X96125642Y-98650313D01*
X96106457Y-98721913D01*
X96086502Y-98950000D01*
X90923113Y-98950000D01*
X91093403Y-98779710D01*
X91100163Y-98767330D01*
X91094436Y-98759680D01*
X90923281Y-98654795D01*
X90914486Y-98650313D01*
X90704335Y-98563266D01*
X90694950Y-98560217D01*
X90473769Y-98507115D01*
X90464022Y-98505572D01*
X90237253Y-98487725D01*
X90227393Y-98487725D01*
X90000624Y-98505572D01*
X89990877Y-98507115D01*
X89769696Y-98560217D01*
X89760311Y-98563266D01*
X89550160Y-98650313D01*
X89541365Y-98654795D01*
X89373878Y-98757432D01*
X89364416Y-98767890D01*
X86688409Y-98767890D01*
X86682938Y-98753295D01*
X86595584Y-98636739D01*
X86479028Y-98549385D01*
X86342639Y-98498255D01*
X86280457Y-98491500D01*
X84184189Y-98491500D01*
X84122007Y-98498255D01*
X83985618Y-98549385D01*
X83869062Y-98636739D01*
X83781708Y-98753295D01*
X83730578Y-98889684D01*
X83723823Y-98951866D01*
X83723823Y-101048134D01*
X80508500Y-101048134D01*
X80508500Y-93213188D01*
X80528502Y-93145067D01*
X80582158Y-93098574D01*
X80652432Y-93088470D01*
X80717012Y-93117964D01*
X80723595Y-93124093D01*
X80805700Y-93206198D01*
X80810208Y-93209355D01*
X80810211Y-93209357D01*
X80888389Y-93264098D01*
X80993251Y-93337523D01*
X80998233Y-93339846D01*
X80998238Y-93339849D01*
X81194765Y-93431490D01*
X81200757Y-93434284D01*
X81206065Y-93435706D01*
X81206067Y-93435707D01*
X81416598Y-93492119D01*
X81416600Y-93492119D01*
X81421913Y-93493543D01*
X81650000Y-93513498D01*
X81878087Y-93493543D01*
X81883400Y-93492119D01*
X81883402Y-93492119D01*
X82093933Y-93435707D01*
X82093935Y-93435706D01*
X82099243Y-93434284D01*
X82105235Y-93431490D01*
X82301762Y-93339849D01*
X82301767Y-93339846D01*
X82306749Y-93337523D01*
X82411611Y-93264098D01*
X82489789Y-93209357D01*
X82489792Y-93209355D01*
X82494300Y-93206198D01*
X82656198Y-93044300D01*
X82787523Y-92856749D01*
X82789846Y-92851767D01*
X82789849Y-92851762D01*
X82881961Y-92654225D01*
X82881961Y-92654224D01*
X82884284Y-92649243D01*
X82932970Y-92467548D01*
X82933245Y-92466522D01*
X93067273Y-92466522D01*
X93114764Y-92643761D01*
X93118510Y-92654053D01*
X93210586Y-92851511D01*
X93216069Y-92861007D01*
X93341028Y-93039467D01*
X93348084Y-93047875D01*
X93502125Y-93201916D01*
X93510533Y-93208972D01*
X93688993Y-93333931D01*
X93698489Y-93339414D01*
X93895947Y-93431490D01*
X93906239Y-93435236D01*
X94078503Y-93481394D01*
X94092599Y-93481058D01*
X94096000Y-93473116D01*
X94096000Y-93467967D01*
X94604000Y-93467967D01*
X94607973Y-93481498D01*
X94616522Y-93482727D01*
X94793761Y-93435236D01*
X94804053Y-93431490D01*
X95001511Y-93339414D01*
X95011007Y-93333931D01*
X95189467Y-93208972D01*
X95197875Y-93201916D01*
X95351916Y-93047875D01*
X95358972Y-93039467D01*
X95483931Y-92861007D01*
X95489414Y-92851511D01*
X95581490Y-92654053D01*
X95585236Y-92643761D01*
X95631394Y-92471497D01*
X95631058Y-92457401D01*
X95623116Y-92454000D01*
X94622115Y-92454000D01*
X94606876Y-92458475D01*
X94605671Y-92459865D01*
X94604000Y-92467548D01*
X94604000Y-93467967D01*
X94096000Y-93467967D01*
X94096000Y-92472115D01*
X94091525Y-92456876D01*
X94090135Y-92455671D01*
X94082452Y-92454000D01*
X93082033Y-92454000D01*
X93068502Y-92457973D01*
X93067273Y-92466522D01*
X82933245Y-92466522D01*
X82942119Y-92433402D01*
X82942119Y-92433400D01*
X82943543Y-92428087D01*
X82963498Y-92200000D01*
X82943543Y-91971913D01*
X82933244Y-91933478D01*
X82931911Y-91928503D01*
X93068606Y-91928503D01*
X93068942Y-91942599D01*
X93076884Y-91946000D01*
X94077885Y-91946000D01*
X94093124Y-91941525D01*
X94094329Y-91940135D01*
X94096000Y-91932452D01*
X94096000Y-91927885D01*
X94604000Y-91927885D01*
X94608475Y-91943124D01*
X94609865Y-91944329D01*
X94617548Y-91946000D01*
X95617967Y-91946000D01*
X95631498Y-91942027D01*
X95632727Y-91933478D01*
X95585236Y-91756239D01*
X95581490Y-91745947D01*
X95489414Y-91548489D01*
X95483931Y-91538993D01*
X95358972Y-91360533D01*
X95351916Y-91352125D01*
X95316313Y-91316522D01*
X100717273Y-91316522D01*
X100764764Y-91493761D01*
X100768510Y-91504053D01*
X100860586Y-91701511D01*
X100866069Y-91711007D01*
X100991028Y-91889467D01*
X100998084Y-91897875D01*
X101152125Y-92051916D01*
X101160533Y-92058972D01*
X101338993Y-92183931D01*
X101348489Y-92189414D01*
X101545947Y-92281490D01*
X101556239Y-92285236D01*
X101728503Y-92331394D01*
X101742599Y-92331058D01*
X101746000Y-92323116D01*
X101746000Y-92317967D01*
X102254000Y-92317967D01*
X102257973Y-92331498D01*
X102266522Y-92332727D01*
X102443761Y-92285236D01*
X102454053Y-92281490D01*
X102651511Y-92189414D01*
X102661007Y-92183931D01*
X102839467Y-92058972D01*
X102847875Y-92051916D01*
X103001916Y-91897875D01*
X103008972Y-91889467D01*
X103133931Y-91711007D01*
X103139414Y-91701511D01*
X103231490Y-91504053D01*
X103235236Y-91493761D01*
X103281394Y-91321497D01*
X103281275Y-91316522D01*
X110717273Y-91316522D01*
X110764764Y-91493761D01*
X110768510Y-91504053D01*
X110860586Y-91701511D01*
X110866069Y-91711007D01*
X110991028Y-91889467D01*
X110998084Y-91897875D01*
X111152125Y-92051916D01*
X111160533Y-92058972D01*
X111338993Y-92183931D01*
X111348489Y-92189414D01*
X111545947Y-92281490D01*
X111556239Y-92285236D01*
X111728503Y-92331394D01*
X111742599Y-92331058D01*
X111746000Y-92323116D01*
X111746000Y-92317967D01*
X112254000Y-92317967D01*
X112257973Y-92331498D01*
X112266522Y-92332727D01*
X112443761Y-92285236D01*
X112454053Y-92281490D01*
X112651511Y-92189414D01*
X112661007Y-92183931D01*
X112839467Y-92058972D01*
X112847875Y-92051916D01*
X113001916Y-91897875D01*
X113008972Y-91889467D01*
X113133931Y-91711007D01*
X113139414Y-91701511D01*
X113231490Y-91504053D01*
X113235236Y-91493761D01*
X113281394Y-91321497D01*
X113281275Y-91316522D01*
X120717273Y-91316522D01*
X120764764Y-91493761D01*
X120768510Y-91504053D01*
X120860586Y-91701511D01*
X120866069Y-91711007D01*
X120991028Y-91889467D01*
X120998084Y-91897875D01*
X121152125Y-92051916D01*
X121160533Y-92058972D01*
X121338993Y-92183931D01*
X121348489Y-92189414D01*
X121545947Y-92281490D01*
X121556239Y-92285236D01*
X121728503Y-92331394D01*
X121742599Y-92331058D01*
X121746000Y-92323116D01*
X121746000Y-92317967D01*
X122254000Y-92317967D01*
X122257973Y-92331498D01*
X122266522Y-92332727D01*
X122443761Y-92285236D01*
X122454053Y-92281490D01*
X122651511Y-92189414D01*
X122661007Y-92183931D01*
X122839467Y-92058972D01*
X122847875Y-92051916D01*
X123001916Y-91897875D01*
X123008972Y-91889467D01*
X123133931Y-91711007D01*
X123139414Y-91701511D01*
X123231490Y-91504053D01*
X123235236Y-91493761D01*
X123281394Y-91321497D01*
X123281058Y-91307401D01*
X123273116Y-91304000D01*
X122272115Y-91304000D01*
X122256876Y-91308475D01*
X122255671Y-91309865D01*
X122254000Y-91317548D01*
X122254000Y-92317967D01*
X121746000Y-92317967D01*
X121746000Y-91322115D01*
X121741525Y-91306876D01*
X121740135Y-91305671D01*
X121732452Y-91304000D01*
X120732033Y-91304000D01*
X120718502Y-91307973D01*
X120717273Y-91316522D01*
X113281275Y-91316522D01*
X113281058Y-91307401D01*
X113273116Y-91304000D01*
X112272115Y-91304000D01*
X112256876Y-91308475D01*
X112255671Y-91309865D01*
X112254000Y-91317548D01*
X112254000Y-92317967D01*
X111746000Y-92317967D01*
X111746000Y-91322115D01*
X111741525Y-91306876D01*
X111740135Y-91305671D01*
X111732452Y-91304000D01*
X110732033Y-91304000D01*
X110718502Y-91307973D01*
X110717273Y-91316522D01*
X103281275Y-91316522D01*
X103281058Y-91307401D01*
X103273116Y-91304000D01*
X102272115Y-91304000D01*
X102256876Y-91308475D01*
X102255671Y-91309865D01*
X102254000Y-91317548D01*
X102254000Y-92317967D01*
X101746000Y-92317967D01*
X101746000Y-91322115D01*
X101741525Y-91306876D01*
X101740135Y-91305671D01*
X101732452Y-91304000D01*
X100732033Y-91304000D01*
X100718502Y-91307973D01*
X100717273Y-91316522D01*
X95316313Y-91316522D01*
X95197875Y-91198084D01*
X95189467Y-91191028D01*
X95011007Y-91066069D01*
X95001511Y-91060586D01*
X94804053Y-90968510D01*
X94793761Y-90964764D01*
X94621497Y-90918606D01*
X94607401Y-90918942D01*
X94604000Y-90926884D01*
X94604000Y-91927885D01*
X94096000Y-91927885D01*
X94096000Y-90932033D01*
X94092027Y-90918502D01*
X94083478Y-90917273D01*
X93906239Y-90964764D01*
X93895947Y-90968510D01*
X93698489Y-91060586D01*
X93688993Y-91066069D01*
X93510533Y-91191028D01*
X93502125Y-91198084D01*
X93348084Y-91352125D01*
X93341028Y-91360533D01*
X93216069Y-91538993D01*
X93210586Y-91548489D01*
X93118510Y-91745947D01*
X93114764Y-91756239D01*
X93068606Y-91928503D01*
X82931911Y-91928503D01*
X82885707Y-91756067D01*
X82885706Y-91756065D01*
X82884284Y-91750757D01*
X82881961Y-91745775D01*
X82789849Y-91548238D01*
X82789846Y-91548233D01*
X82787523Y-91543251D01*
X82656198Y-91355700D01*
X82494300Y-91193802D01*
X82489792Y-91190645D01*
X82489789Y-91190643D01*
X82411611Y-91135902D01*
X82306749Y-91062477D01*
X82301767Y-91060154D01*
X82301762Y-91060151D01*
X82104225Y-90968039D01*
X82104224Y-90968039D01*
X82099243Y-90965716D01*
X82093935Y-90964294D01*
X82093933Y-90964293D01*
X81883402Y-90907881D01*
X81883400Y-90907881D01*
X81878087Y-90906457D01*
X81650000Y-90886502D01*
X81421913Y-90906457D01*
X81416600Y-90907881D01*
X81416598Y-90907881D01*
X81206067Y-90964293D01*
X81206065Y-90964294D01*
X81200757Y-90965716D01*
X81195776Y-90968039D01*
X81195775Y-90968039D01*
X80998238Y-91060151D01*
X80998233Y-91060154D01*
X80993251Y-91062477D01*
X80888389Y-91135902D01*
X80810211Y-91190643D01*
X80810208Y-91190645D01*
X80805700Y-91193802D01*
X80723595Y-91275907D01*
X80661283Y-91309933D01*
X80590468Y-91304868D01*
X80533632Y-91262321D01*
X80508821Y-91195801D01*
X80508500Y-91186812D01*
X80508500Y-90778503D01*
X100718606Y-90778503D01*
X100718942Y-90792599D01*
X100726884Y-90796000D01*
X101727885Y-90796000D01*
X101743124Y-90791525D01*
X101744329Y-90790135D01*
X101746000Y-90782452D01*
X101746000Y-90777885D01*
X102254000Y-90777885D01*
X102258475Y-90793124D01*
X102259865Y-90794329D01*
X102267548Y-90796000D01*
X103267967Y-90796000D01*
X103281498Y-90792027D01*
X103282727Y-90783478D01*
X103281394Y-90778503D01*
X110718606Y-90778503D01*
X110718942Y-90792599D01*
X110726884Y-90796000D01*
X111727885Y-90796000D01*
X111743124Y-90791525D01*
X111744329Y-90790135D01*
X111746000Y-90782452D01*
X111746000Y-90777885D01*
X112254000Y-90777885D01*
X112258475Y-90793124D01*
X112259865Y-90794329D01*
X112267548Y-90796000D01*
X113267967Y-90796000D01*
X113281498Y-90792027D01*
X113282727Y-90783478D01*
X113281394Y-90778503D01*
X120718606Y-90778503D01*
X120718942Y-90792599D01*
X120726884Y-90796000D01*
X121727885Y-90796000D01*
X121743124Y-90791525D01*
X121744329Y-90790135D01*
X121746000Y-90782452D01*
X121746000Y-90777885D01*
X122254000Y-90777885D01*
X122258475Y-90793124D01*
X122259865Y-90794329D01*
X122267548Y-90796000D01*
X123267967Y-90796000D01*
X123281498Y-90792027D01*
X123282727Y-90783478D01*
X123235236Y-90606239D01*
X123231490Y-90595947D01*
X123139414Y-90398489D01*
X123133931Y-90388993D01*
X123008972Y-90210533D01*
X123001916Y-90202125D01*
X122847875Y-90048084D01*
X122839467Y-90041028D01*
X122661007Y-89916069D01*
X122651511Y-89910586D01*
X122454053Y-89818510D01*
X122443761Y-89814764D01*
X122271497Y-89768606D01*
X122257401Y-89768942D01*
X122254000Y-89776884D01*
X122254000Y-90777885D01*
X121746000Y-90777885D01*
X121746000Y-89782033D01*
X121742027Y-89768502D01*
X121733478Y-89767273D01*
X121556239Y-89814764D01*
X121545947Y-89818510D01*
X121348489Y-89910586D01*
X121338993Y-89916069D01*
X121160533Y-90041028D01*
X121152125Y-90048084D01*
X120998084Y-90202125D01*
X120991028Y-90210533D01*
X120866069Y-90388993D01*
X120860586Y-90398489D01*
X120768510Y-90595947D01*
X120764764Y-90606239D01*
X120718606Y-90778503D01*
X113281394Y-90778503D01*
X113235236Y-90606239D01*
X113231490Y-90595947D01*
X113139414Y-90398489D01*
X113133931Y-90388993D01*
X113008972Y-90210533D01*
X113001916Y-90202125D01*
X112847875Y-90048084D01*
X112839467Y-90041028D01*
X112661007Y-89916069D01*
X112651511Y-89910586D01*
X112454053Y-89818510D01*
X112443761Y-89814764D01*
X112271497Y-89768606D01*
X112257401Y-89768942D01*
X112254000Y-89776884D01*
X112254000Y-90777885D01*
X111746000Y-90777885D01*
X111746000Y-89782033D01*
X111742027Y-89768502D01*
X111733478Y-89767273D01*
X111556239Y-89814764D01*
X111545947Y-89818510D01*
X111348489Y-89910586D01*
X111338993Y-89916069D01*
X111160533Y-90041028D01*
X111152125Y-90048084D01*
X110998084Y-90202125D01*
X110991028Y-90210533D01*
X110866069Y-90388993D01*
X110860586Y-90398489D01*
X110768510Y-90595947D01*
X110764764Y-90606239D01*
X110718606Y-90778503D01*
X103281394Y-90778503D01*
X103235236Y-90606239D01*
X103231490Y-90595947D01*
X103139414Y-90398489D01*
X103133931Y-90388993D01*
X103008972Y-90210533D01*
X103001916Y-90202125D01*
X102847875Y-90048084D01*
X102839467Y-90041028D01*
X102661007Y-89916069D01*
X102651511Y-89910586D01*
X102454053Y-89818510D01*
X102443761Y-89814764D01*
X102271497Y-89768606D01*
X102257401Y-89768942D01*
X102254000Y-89776884D01*
X102254000Y-90777885D01*
X101746000Y-90777885D01*
X101746000Y-89782033D01*
X101742027Y-89768502D01*
X101733478Y-89767273D01*
X101556239Y-89814764D01*
X101545947Y-89818510D01*
X101348489Y-89910586D01*
X101338993Y-89916069D01*
X101160533Y-90041028D01*
X101152125Y-90048084D01*
X100998084Y-90202125D01*
X100991028Y-90210533D01*
X100866069Y-90388993D01*
X100860586Y-90398489D01*
X100768510Y-90595947D01*
X100764764Y-90606239D01*
X100718606Y-90778503D01*
X80508500Y-90778503D01*
X80508500Y-89596876D01*
X80528502Y-89528755D01*
X80582158Y-89482262D01*
X80652432Y-89472158D01*
X80678727Y-89478893D01*
X80739684Y-89501745D01*
X80801866Y-89508500D01*
X82498134Y-89508500D01*
X82560316Y-89501745D01*
X82696705Y-89450615D01*
X82813261Y-89363261D01*
X82900615Y-89246705D01*
X82951745Y-89110316D01*
X82958500Y-89048134D01*
X82958500Y-88200000D01*
X93036502Y-88200000D01*
X93056457Y-88428087D01*
X93115716Y-88649243D01*
X93118039Y-88654224D01*
X93118039Y-88654225D01*
X93210151Y-88851762D01*
X93210154Y-88851767D01*
X93212477Y-88856749D01*
X93343802Y-89044300D01*
X93505700Y-89206198D01*
X93510208Y-89209355D01*
X93510211Y-89209357D01*
X93551542Y-89238297D01*
X93693251Y-89337523D01*
X93698233Y-89339846D01*
X93698238Y-89339849D01*
X93895775Y-89431961D01*
X93900757Y-89434284D01*
X93906065Y-89435706D01*
X93906067Y-89435707D01*
X94116598Y-89492119D01*
X94116600Y-89492119D01*
X94121913Y-89493543D01*
X94350000Y-89513498D01*
X94578087Y-89493543D01*
X94583400Y-89492119D01*
X94583402Y-89492119D01*
X94793933Y-89435707D01*
X94793935Y-89435706D01*
X94799243Y-89434284D01*
X94804225Y-89431961D01*
X95001762Y-89339849D01*
X95001767Y-89339846D01*
X95006749Y-89337523D01*
X95148458Y-89238297D01*
X95189789Y-89209357D01*
X95189792Y-89209355D01*
X95194300Y-89206198D01*
X95356198Y-89044300D01*
X95487523Y-88856749D01*
X95489846Y-88851767D01*
X95489849Y-88851762D01*
X95581961Y-88654225D01*
X95581961Y-88654224D01*
X95584284Y-88649243D01*
X95643543Y-88428087D01*
X95663498Y-88200000D01*
X95643543Y-87971913D01*
X95635827Y-87943115D01*
X95585707Y-87756067D01*
X95585706Y-87756065D01*
X95584284Y-87750757D01*
X95543277Y-87662816D01*
X95489849Y-87548238D01*
X95489846Y-87548233D01*
X95487523Y-87543251D01*
X95414098Y-87438389D01*
X95359357Y-87360211D01*
X95359355Y-87360208D01*
X95356198Y-87355700D01*
X95194300Y-87193802D01*
X95189792Y-87190645D01*
X95189789Y-87190643D01*
X95057762Y-87098197D01*
X95006749Y-87062477D01*
X95001767Y-87060154D01*
X95001762Y-87060151D01*
X94804225Y-86968039D01*
X94804224Y-86968039D01*
X94799243Y-86965716D01*
X94793935Y-86964294D01*
X94793933Y-86964293D01*
X94583402Y-86907881D01*
X94583400Y-86907881D01*
X94578087Y-86906457D01*
X94350000Y-86886502D01*
X94121913Y-86906457D01*
X94116600Y-86907881D01*
X94116598Y-86907881D01*
X93906067Y-86964293D01*
X93906065Y-86964294D01*
X93900757Y-86965716D01*
X93895776Y-86968039D01*
X93895775Y-86968039D01*
X93698238Y-87060151D01*
X93698233Y-87060154D01*
X93693251Y-87062477D01*
X93642238Y-87098197D01*
X93510211Y-87190643D01*
X93510208Y-87190645D01*
X93505700Y-87193802D01*
X93343802Y-87355700D01*
X93340645Y-87360208D01*
X93340643Y-87360211D01*
X93285902Y-87438389D01*
X93212477Y-87543251D01*
X93210154Y-87548233D01*
X93210151Y-87548238D01*
X93156723Y-87662816D01*
X93115716Y-87750757D01*
X93114294Y-87756065D01*
X93114293Y-87756067D01*
X93064173Y-87943115D01*
X93056457Y-87971913D01*
X93036502Y-88200000D01*
X82958500Y-88200000D01*
X82958500Y-87351866D01*
X82951745Y-87289684D01*
X82900615Y-87153295D01*
X82813261Y-87036739D01*
X82696705Y-86949385D01*
X82560316Y-86898255D01*
X82498134Y-86891500D01*
X80801866Y-86891500D01*
X80739684Y-86898255D01*
X80678729Y-86921106D01*
X80607923Y-86926289D01*
X80545554Y-86892369D01*
X80511425Y-86830113D01*
X80508500Y-86803124D01*
X80508500Y-85413188D01*
X80528502Y-85345067D01*
X80582158Y-85298574D01*
X80652432Y-85288470D01*
X80717012Y-85317964D01*
X80723595Y-85324093D01*
X80805700Y-85406198D01*
X80810208Y-85409355D01*
X80810211Y-85409357D01*
X80850789Y-85437770D01*
X80993251Y-85537523D01*
X80998233Y-85539846D01*
X80998238Y-85539849D01*
X81133202Y-85602783D01*
X81200757Y-85634284D01*
X81206065Y-85635706D01*
X81206067Y-85635707D01*
X81416598Y-85692119D01*
X81416600Y-85692119D01*
X81421913Y-85693543D01*
X81650000Y-85713498D01*
X81878087Y-85693543D01*
X81883400Y-85692119D01*
X81883402Y-85692119D01*
X82093933Y-85635707D01*
X82093935Y-85635706D01*
X82099243Y-85634284D01*
X82166798Y-85602783D01*
X82301762Y-85539849D01*
X82301767Y-85539846D01*
X82306749Y-85537523D01*
X82449211Y-85437770D01*
X82489789Y-85409357D01*
X82489792Y-85409355D01*
X82494300Y-85406198D01*
X82656198Y-85244300D01*
X82660771Y-85237770D01*
X82714098Y-85161611D01*
X82787523Y-85056749D01*
X82789846Y-85051767D01*
X82789849Y-85051762D01*
X82881961Y-84854225D01*
X82881961Y-84854224D01*
X82884284Y-84849243D01*
X82893926Y-84813261D01*
X82942119Y-84633402D01*
X82942119Y-84633400D01*
X82943543Y-84628087D01*
X82963498Y-84400000D01*
X82943543Y-84171913D01*
X82934446Y-84137963D01*
X82885707Y-83956067D01*
X82885706Y-83956065D01*
X82884284Y-83950757D01*
X82881961Y-83945775D01*
X82789849Y-83748238D01*
X82789846Y-83748233D01*
X82787523Y-83743251D01*
X82656198Y-83555700D01*
X82494300Y-83393802D01*
X82489792Y-83390645D01*
X82489789Y-83390643D01*
X82336620Y-83283393D01*
X82306749Y-83262477D01*
X82301767Y-83260154D01*
X82301762Y-83260151D01*
X82104225Y-83168039D01*
X82104224Y-83168039D01*
X82099243Y-83165716D01*
X82093935Y-83164294D01*
X82093933Y-83164293D01*
X81883402Y-83107881D01*
X81883400Y-83107881D01*
X81878087Y-83106457D01*
X81650000Y-83086502D01*
X81421913Y-83106457D01*
X81416600Y-83107881D01*
X81416598Y-83107881D01*
X81206067Y-83164293D01*
X81206065Y-83164294D01*
X81200757Y-83165716D01*
X81195776Y-83168039D01*
X81195775Y-83168039D01*
X80998238Y-83260151D01*
X80998233Y-83260154D01*
X80993251Y-83262477D01*
X80963380Y-83283393D01*
X80810211Y-83390643D01*
X80810208Y-83390645D01*
X80805700Y-83393802D01*
X80723595Y-83475907D01*
X80661283Y-83509933D01*
X80590468Y-83504868D01*
X80533632Y-83462321D01*
X80508821Y-83395801D01*
X80508500Y-83386812D01*
X80508500Y-79686062D01*
X84178493Y-79686062D01*
X84187789Y-79698077D01*
X84238994Y-79733931D01*
X84248489Y-79739414D01*
X84445947Y-79831490D01*
X84456239Y-79835236D01*
X84666688Y-79891625D01*
X84677481Y-79893528D01*
X84894525Y-79912517D01*
X84905475Y-79912517D01*
X85122519Y-79893528D01*
X85133312Y-79891625D01*
X85343761Y-79835236D01*
X85354053Y-79831490D01*
X85551511Y-79739414D01*
X85561006Y-79733931D01*
X85613048Y-79697491D01*
X85621424Y-79687012D01*
X85614356Y-79673566D01*
X84912812Y-78972022D01*
X84898868Y-78964408D01*
X84897035Y-78964539D01*
X84890420Y-78968790D01*
X84184923Y-79674287D01*
X84178493Y-79686062D01*
X80508500Y-79686062D01*
X80508500Y-78605475D01*
X83587483Y-78605475D01*
X83606472Y-78822519D01*
X83608375Y-78833312D01*
X83664764Y-79043761D01*
X83668510Y-79054053D01*
X83760586Y-79251511D01*
X83766069Y-79261006D01*
X83802509Y-79313048D01*
X83812988Y-79321424D01*
X83826434Y-79314356D01*
X84527978Y-78612812D01*
X84534356Y-78601132D01*
X85264408Y-78601132D01*
X85264539Y-78602965D01*
X85268790Y-78609580D01*
X85974287Y-79315077D01*
X86016029Y-79337871D01*
X86026029Y-79340047D01*
X86076227Y-79390253D01*
X86091451Y-79443814D01*
X86091500Y-79444717D01*
X86091500Y-79448134D01*
X86098255Y-79510316D01*
X86149385Y-79646705D01*
X86236739Y-79763261D01*
X86353295Y-79850615D01*
X86489684Y-79901745D01*
X86551866Y-79908500D01*
X88248134Y-79908500D01*
X88310316Y-79901745D01*
X88446705Y-79850615D01*
X88563261Y-79763261D01*
X88650615Y-79646705D01*
X88701745Y-79510316D01*
X88702866Y-79500000D01*
X91086835Y-79500000D01*
X91105465Y-79736711D01*
X91106619Y-79741518D01*
X91106620Y-79741524D01*
X91141640Y-79887391D01*
X91160895Y-79967594D01*
X91162788Y-79972165D01*
X91162789Y-79972167D01*
X91233654Y-80143250D01*
X91251760Y-80186963D01*
X91254346Y-80191183D01*
X91373241Y-80385202D01*
X91373245Y-80385208D01*
X91375824Y-80389416D01*
X91530031Y-80569969D01*
X91710584Y-80724176D01*
X91714792Y-80726755D01*
X91714798Y-80726759D01*
X91811812Y-80786209D01*
X91913037Y-80848240D01*
X91917607Y-80850133D01*
X91917611Y-80850135D01*
X92127833Y-80937211D01*
X92132406Y-80939105D01*
X92175813Y-80949526D01*
X92358476Y-80993380D01*
X92358482Y-80993381D01*
X92363289Y-80994535D01*
X92600000Y-81013165D01*
X92836711Y-80994535D01*
X92841518Y-80993381D01*
X92841524Y-80993380D01*
X93024187Y-80949526D01*
X93067594Y-80939105D01*
X93072167Y-80937211D01*
X93282389Y-80850135D01*
X93282393Y-80850133D01*
X93286963Y-80848240D01*
X93388188Y-80786209D01*
X93485202Y-80726759D01*
X93485208Y-80726755D01*
X93489416Y-80724176D01*
X93669969Y-80569969D01*
X93824176Y-80389416D01*
X93826755Y-80385208D01*
X93826759Y-80385202D01*
X93945654Y-80191183D01*
X93948240Y-80186963D01*
X93966347Y-80143250D01*
X94037211Y-79972167D01*
X94037212Y-79972165D01*
X94039105Y-79967594D01*
X94058360Y-79887391D01*
X94093380Y-79741524D01*
X94093381Y-79741518D01*
X94094535Y-79736711D01*
X94113165Y-79500000D01*
X94094535Y-79263289D01*
X94091708Y-79251511D01*
X94057754Y-79110086D01*
X94039105Y-79032406D01*
X94034204Y-79020573D01*
X93950135Y-78817611D01*
X93950133Y-78817607D01*
X93948240Y-78813037D01*
X93909869Y-78750421D01*
X93826759Y-78614798D01*
X93826755Y-78614792D01*
X93824176Y-78610584D01*
X93669969Y-78430031D01*
X93489416Y-78275824D01*
X93485208Y-78273245D01*
X93485202Y-78273241D01*
X93291183Y-78154346D01*
X93286963Y-78151760D01*
X93282393Y-78149867D01*
X93282389Y-78149865D01*
X93072167Y-78062789D01*
X93072165Y-78062788D01*
X93067594Y-78060895D01*
X92969172Y-78037266D01*
X92841524Y-78006620D01*
X92841518Y-78006619D01*
X92836711Y-78005465D01*
X92600000Y-77986835D01*
X92363289Y-78005465D01*
X92358482Y-78006619D01*
X92358476Y-78006620D01*
X92230828Y-78037266D01*
X92132406Y-78060895D01*
X92127835Y-78062788D01*
X92127833Y-78062789D01*
X91917611Y-78149865D01*
X91917607Y-78149867D01*
X91913037Y-78151760D01*
X91908817Y-78154346D01*
X91714798Y-78273241D01*
X91714792Y-78273245D01*
X91710584Y-78275824D01*
X91530031Y-78430031D01*
X91375824Y-78610584D01*
X91373245Y-78614792D01*
X91373241Y-78614798D01*
X91290131Y-78750421D01*
X91251760Y-78813037D01*
X91249867Y-78817607D01*
X91249865Y-78817611D01*
X91165796Y-79020573D01*
X91160895Y-79032406D01*
X91142246Y-79110086D01*
X91108293Y-79251511D01*
X91105465Y-79263289D01*
X91086835Y-79500000D01*
X88702866Y-79500000D01*
X88708500Y-79448134D01*
X88708500Y-77751866D01*
X88701745Y-77689684D01*
X88650615Y-77553295D01*
X88563261Y-77436739D01*
X88446705Y-77349385D01*
X88310316Y-77298255D01*
X88248134Y-77291500D01*
X86551866Y-77291500D01*
X86489684Y-77298255D01*
X86353295Y-77349385D01*
X86236739Y-77436739D01*
X86149385Y-77553295D01*
X86098255Y-77689684D01*
X86091500Y-77751866D01*
X86091500Y-77755185D01*
X86067847Y-77822110D01*
X86021844Y-77857804D01*
X86022859Y-77859734D01*
X86012000Y-77865442D01*
X86011755Y-77865632D01*
X86011597Y-77865653D01*
X85973566Y-77885644D01*
X85272022Y-78587188D01*
X85264408Y-78601132D01*
X84534356Y-78601132D01*
X84535592Y-78598868D01*
X84535461Y-78597035D01*
X84531210Y-78590420D01*
X83825713Y-77884923D01*
X83813938Y-77878493D01*
X83801923Y-77887789D01*
X83766069Y-77938994D01*
X83760586Y-77948489D01*
X83668510Y-78145947D01*
X83664764Y-78156239D01*
X83608375Y-78366688D01*
X83606472Y-78377481D01*
X83587483Y-78594525D01*
X83587483Y-78605475D01*
X80508500Y-78605475D01*
X80508500Y-77512988D01*
X84178576Y-77512988D01*
X84185644Y-77526434D01*
X84887188Y-78227978D01*
X84901132Y-78235592D01*
X84902965Y-78235461D01*
X84909580Y-78231210D01*
X85615077Y-77525713D01*
X85621507Y-77513938D01*
X85612211Y-77501923D01*
X85561006Y-77466069D01*
X85551511Y-77460586D01*
X85354053Y-77368510D01*
X85343761Y-77364764D01*
X85133312Y-77308375D01*
X85122519Y-77306472D01*
X84905475Y-77287483D01*
X84894525Y-77287483D01*
X84677481Y-77306472D01*
X84666688Y-77308375D01*
X84456239Y-77364764D01*
X84445947Y-77368510D01*
X84248489Y-77460586D01*
X84238994Y-77466069D01*
X84186952Y-77502509D01*
X84178576Y-77512988D01*
X80508500Y-77512988D01*
X80508500Y-74086062D01*
X82778493Y-74086062D01*
X82787789Y-74098077D01*
X82838994Y-74133931D01*
X82848489Y-74139414D01*
X83045947Y-74231490D01*
X83056239Y-74235236D01*
X83266688Y-74291625D01*
X83277481Y-74293528D01*
X83494525Y-74312517D01*
X83505475Y-74312517D01*
X83722519Y-74293528D01*
X83733312Y-74291625D01*
X83943761Y-74235236D01*
X83954053Y-74231490D01*
X84151511Y-74139414D01*
X84161006Y-74133931D01*
X84213048Y-74097491D01*
X84221424Y-74087012D01*
X84214356Y-74073566D01*
X83512812Y-73372022D01*
X83498868Y-73364408D01*
X83497035Y-73364539D01*
X83490420Y-73368790D01*
X82784923Y-74074287D01*
X82778493Y-74086062D01*
X80508500Y-74086062D01*
X80508500Y-73005475D01*
X82187483Y-73005475D01*
X82206472Y-73222519D01*
X82208375Y-73233312D01*
X82264764Y-73443761D01*
X82268510Y-73454053D01*
X82360586Y-73651511D01*
X82366069Y-73661006D01*
X82402509Y-73713048D01*
X82412988Y-73721424D01*
X82426434Y-73714356D01*
X83127978Y-73012812D01*
X83134356Y-73001132D01*
X83864408Y-73001132D01*
X83864539Y-73002965D01*
X83868790Y-73009580D01*
X84574287Y-73715077D01*
X84586062Y-73721507D01*
X84598077Y-73712211D01*
X84633931Y-73661006D01*
X84639414Y-73651511D01*
X84731490Y-73454053D01*
X84735236Y-73443761D01*
X84791625Y-73233312D01*
X84793528Y-73222519D01*
X84812517Y-73005475D01*
X84812517Y-73000000D01*
X87186502Y-73000000D01*
X87206457Y-73228087D01*
X87207881Y-73233400D01*
X87207881Y-73233402D01*
X87245025Y-73372022D01*
X87265716Y-73449243D01*
X87268039Y-73454224D01*
X87268039Y-73454225D01*
X87360151Y-73651762D01*
X87360154Y-73651767D01*
X87362477Y-73656749D01*
X87493802Y-73844300D01*
X87655700Y-74006198D01*
X87660208Y-74009355D01*
X87660211Y-74009357D01*
X87738389Y-74064098D01*
X87843251Y-74137523D01*
X87848233Y-74139846D01*
X87848238Y-74139849D01*
X87990054Y-74205978D01*
X88050757Y-74234284D01*
X88056065Y-74235706D01*
X88056067Y-74235707D01*
X88266598Y-74292119D01*
X88266600Y-74292119D01*
X88271913Y-74293543D01*
X88500000Y-74313498D01*
X88728087Y-74293543D01*
X88733400Y-74292119D01*
X88733402Y-74292119D01*
X88943933Y-74235707D01*
X88943935Y-74235706D01*
X88949243Y-74234284D01*
X89009946Y-74205978D01*
X89151762Y-74139849D01*
X89151767Y-74139846D01*
X89156749Y-74137523D01*
X89261611Y-74064098D01*
X89339789Y-74009357D01*
X89339792Y-74009355D01*
X89344300Y-74006198D01*
X89506198Y-73844300D01*
X89637523Y-73656749D01*
X89639846Y-73651767D01*
X89639849Y-73651762D01*
X89731961Y-73454225D01*
X89731961Y-73454224D01*
X89734284Y-73449243D01*
X89754976Y-73372022D01*
X89792119Y-73233402D01*
X89792119Y-73233400D01*
X89793543Y-73228087D01*
X89813498Y-73000000D01*
X89793543Y-72771913D01*
X89756981Y-72635461D01*
X89735707Y-72556067D01*
X89735706Y-72556065D01*
X89734284Y-72550757D01*
X89639966Y-72348489D01*
X89639849Y-72348238D01*
X89639846Y-72348233D01*
X89637523Y-72343251D01*
X89506198Y-72155700D01*
X89344300Y-71993802D01*
X89339792Y-71990645D01*
X89339789Y-71990643D01*
X89213920Y-71902509D01*
X89156749Y-71862477D01*
X89151767Y-71860154D01*
X89151762Y-71860151D01*
X88954225Y-71768039D01*
X88954224Y-71768039D01*
X88949243Y-71765716D01*
X88943935Y-71764294D01*
X88943933Y-71764293D01*
X88733402Y-71707881D01*
X88733400Y-71707881D01*
X88728087Y-71706457D01*
X88500000Y-71686502D01*
X88271913Y-71706457D01*
X88266600Y-71707881D01*
X88266598Y-71707881D01*
X88056067Y-71764293D01*
X88056065Y-71764294D01*
X88050757Y-71765716D01*
X88045776Y-71768039D01*
X88045775Y-71768039D01*
X87848238Y-71860151D01*
X87848233Y-71860154D01*
X87843251Y-71862477D01*
X87786080Y-71902509D01*
X87660211Y-71990643D01*
X87660208Y-71990645D01*
X87655700Y-71993802D01*
X87493802Y-72155700D01*
X87362477Y-72343251D01*
X87360154Y-72348233D01*
X87360151Y-72348238D01*
X87360034Y-72348489D01*
X87265716Y-72550757D01*
X87264294Y-72556065D01*
X87264293Y-72556067D01*
X87243019Y-72635461D01*
X87206457Y-72771913D01*
X87186502Y-73000000D01*
X84812517Y-73000000D01*
X84812517Y-72994525D01*
X84793528Y-72777481D01*
X84791625Y-72766688D01*
X84735236Y-72556239D01*
X84731490Y-72545947D01*
X84639414Y-72348489D01*
X84633931Y-72338994D01*
X84597491Y-72286952D01*
X84587012Y-72278576D01*
X84573566Y-72285644D01*
X83872022Y-72987188D01*
X83864408Y-73001132D01*
X83134356Y-73001132D01*
X83135592Y-72998868D01*
X83135461Y-72997035D01*
X83131210Y-72990420D01*
X82425713Y-72284923D01*
X82413938Y-72278493D01*
X82401923Y-72287789D01*
X82366069Y-72338994D01*
X82360586Y-72348489D01*
X82268510Y-72545947D01*
X82264764Y-72556239D01*
X82208375Y-72766688D01*
X82206472Y-72777481D01*
X82187483Y-72994525D01*
X82187483Y-73005475D01*
X80508500Y-73005475D01*
X80508500Y-71912988D01*
X82778576Y-71912988D01*
X82785644Y-71926434D01*
X83487188Y-72627978D01*
X83501132Y-72635592D01*
X83502965Y-72635461D01*
X83509580Y-72631210D01*
X84215077Y-71925713D01*
X84221507Y-71913938D01*
X84212211Y-71901923D01*
X84161006Y-71866069D01*
X84151511Y-71860586D01*
X83954053Y-71768510D01*
X83943761Y-71764764D01*
X83733312Y-71708375D01*
X83722519Y-71706472D01*
X83505475Y-71687483D01*
X83494525Y-71687483D01*
X83277481Y-71706472D01*
X83266688Y-71708375D01*
X83056239Y-71764764D01*
X83045947Y-71768510D01*
X82848489Y-71860586D01*
X82838994Y-71866069D01*
X82786952Y-71902509D01*
X82778576Y-71912988D01*
X80508500Y-71912988D01*
X80508500Y-69294405D01*
X81871135Y-69294405D01*
X81871161Y-69294775D01*
X81876950Y-69303364D01*
X82014967Y-69429834D01*
X82019195Y-69433381D01*
X82379082Y-69709533D01*
X82383576Y-69712679D01*
X82766171Y-69956418D01*
X82770943Y-69959173D01*
X83173310Y-70168632D01*
X83178298Y-70170959D01*
X83597404Y-70344558D01*
X83602573Y-70346440D01*
X84035203Y-70482847D01*
X84040526Y-70484273D01*
X84483401Y-70582456D01*
X84488813Y-70583411D01*
X84938560Y-70642621D01*
X84944059Y-70643102D01*
X85397252Y-70662889D01*
X85402748Y-70662889D01*
X85855941Y-70643102D01*
X85861440Y-70642621D01*
X86311187Y-70583411D01*
X86316599Y-70582456D01*
X86688534Y-70500000D01*
X91086835Y-70500000D01*
X91105465Y-70736711D01*
X91106619Y-70741518D01*
X91106620Y-70741524D01*
X91126312Y-70823546D01*
X91160895Y-70967594D01*
X91162788Y-70972165D01*
X91162789Y-70972167D01*
X91248018Y-71177928D01*
X91251760Y-71186963D01*
X91254346Y-71191183D01*
X91373241Y-71385202D01*
X91373245Y-71385208D01*
X91375824Y-71389416D01*
X91530031Y-71569969D01*
X91710584Y-71724176D01*
X91714792Y-71726755D01*
X91714798Y-71726759D01*
X91899344Y-71839849D01*
X91913037Y-71848240D01*
X91917607Y-71850133D01*
X91917611Y-71850135D01*
X92120767Y-71934284D01*
X92132406Y-71939105D01*
X92212609Y-71958360D01*
X92358476Y-71993380D01*
X92358482Y-71993381D01*
X92363289Y-71994535D01*
X92600000Y-72013165D01*
X92836711Y-71994535D01*
X92841518Y-71993381D01*
X92841524Y-71993380D01*
X92987391Y-71958360D01*
X93067594Y-71939105D01*
X93079233Y-71934284D01*
X93282389Y-71850135D01*
X93282393Y-71850133D01*
X93286963Y-71848240D01*
X93300656Y-71839849D01*
X93485202Y-71726759D01*
X93485208Y-71726755D01*
X93489416Y-71724176D01*
X93669969Y-71569969D01*
X93824176Y-71389416D01*
X93826755Y-71385208D01*
X93826759Y-71385202D01*
X93945654Y-71191183D01*
X93948240Y-71186963D01*
X93951983Y-71177928D01*
X94037211Y-70972167D01*
X94037212Y-70972165D01*
X94039105Y-70967594D01*
X94073688Y-70823546D01*
X94093380Y-70741524D01*
X94093381Y-70741518D01*
X94094535Y-70736711D01*
X94113165Y-70500000D01*
X94094535Y-70263289D01*
X94092802Y-70256067D01*
X94044785Y-70056067D01*
X94039105Y-70032406D01*
X94007630Y-69956418D01*
X93950135Y-69817611D01*
X93950133Y-69817607D01*
X93948240Y-69813037D01*
X93945654Y-69808817D01*
X93826759Y-69614798D01*
X93826755Y-69614792D01*
X93824176Y-69610584D01*
X93690968Y-69454618D01*
X93673177Y-69433787D01*
X93669969Y-69430031D01*
X93489416Y-69275824D01*
X93485208Y-69273245D01*
X93485202Y-69273241D01*
X93291183Y-69154346D01*
X93286963Y-69151760D01*
X93282393Y-69149867D01*
X93282389Y-69149865D01*
X93072167Y-69062789D01*
X93072165Y-69062788D01*
X93067594Y-69060895D01*
X92966090Y-69036526D01*
X92841524Y-69006620D01*
X92841518Y-69006619D01*
X92836711Y-69005465D01*
X92600000Y-68986835D01*
X92363289Y-69005465D01*
X92358482Y-69006619D01*
X92358476Y-69006620D01*
X92233910Y-69036526D01*
X92132406Y-69060895D01*
X92127835Y-69062788D01*
X92127833Y-69062789D01*
X91917611Y-69149865D01*
X91917607Y-69149867D01*
X91913037Y-69151760D01*
X91908817Y-69154346D01*
X91714798Y-69273241D01*
X91714792Y-69273245D01*
X91710584Y-69275824D01*
X91530031Y-69430031D01*
X91526823Y-69433787D01*
X91509032Y-69454618D01*
X91375824Y-69610584D01*
X91373245Y-69614792D01*
X91373241Y-69614798D01*
X91254346Y-69808817D01*
X91251760Y-69813037D01*
X91249867Y-69817607D01*
X91249865Y-69817611D01*
X91192370Y-69956418D01*
X91160895Y-70032406D01*
X91155215Y-70056067D01*
X91107199Y-70256067D01*
X91105465Y-70263289D01*
X91086835Y-70500000D01*
X86688534Y-70500000D01*
X86759474Y-70484273D01*
X86764797Y-70482847D01*
X87197427Y-70346440D01*
X87202596Y-70344558D01*
X87621702Y-70170959D01*
X87626690Y-70168632D01*
X88029057Y-69959173D01*
X88033829Y-69956418D01*
X88416424Y-69712679D01*
X88420918Y-69709533D01*
X88780805Y-69433381D01*
X88785033Y-69429834D01*
X88920706Y-69305512D01*
X88928920Y-69291916D01*
X88928910Y-69291546D01*
X88923499Y-69282709D01*
X85412812Y-65772022D01*
X85398868Y-65764408D01*
X85397035Y-65764539D01*
X85390420Y-65768790D01*
X81878749Y-69280461D01*
X81871135Y-69294405D01*
X80508500Y-69294405D01*
X80508500Y-67905583D01*
X80528502Y-67837462D01*
X80582158Y-67790969D01*
X80652432Y-67780865D01*
X80717012Y-67810359D01*
X80746263Y-67847402D01*
X80840832Y-68029066D01*
X80843579Y-68033824D01*
X81087321Y-68416424D01*
X81090467Y-68420918D01*
X81366619Y-68780805D01*
X81370166Y-68785033D01*
X81494488Y-68920706D01*
X81508084Y-68928920D01*
X81508454Y-68928910D01*
X81517291Y-68923499D01*
X85027978Y-65412812D01*
X85034356Y-65401132D01*
X85764408Y-65401132D01*
X85764539Y-65402965D01*
X85768790Y-65409580D01*
X89280461Y-68921251D01*
X89294405Y-68928865D01*
X89294775Y-68928839D01*
X89303364Y-68923050D01*
X89429834Y-68785033D01*
X89433381Y-68780805D01*
X89709533Y-68420918D01*
X89712679Y-68416424D01*
X89956421Y-68033824D01*
X89959168Y-68029066D01*
X90168635Y-67626686D01*
X90170959Y-67621702D01*
X90344558Y-67202596D01*
X90346440Y-67197427D01*
X90482847Y-66764797D01*
X90484273Y-66759474D01*
X90582456Y-66316599D01*
X90583411Y-66311187D01*
X90642621Y-65861440D01*
X90643102Y-65855941D01*
X90662889Y-65402748D01*
X90662889Y-65397252D01*
X90660593Y-65344669D01*
X92492001Y-65344669D01*
X92492371Y-65351490D01*
X92497895Y-65402352D01*
X92501521Y-65417604D01*
X92546676Y-65538054D01*
X92555214Y-65553649D01*
X92631715Y-65655724D01*
X92644276Y-65668285D01*
X92746351Y-65744786D01*
X92761946Y-65753324D01*
X92882394Y-65798478D01*
X92897649Y-65802105D01*
X92948514Y-65807631D01*
X92955328Y-65808000D01*
X93927885Y-65808000D01*
X93943124Y-65803525D01*
X93944329Y-65802135D01*
X93946000Y-65794452D01*
X93946000Y-64372115D01*
X93941525Y-64356876D01*
X93940135Y-64355671D01*
X93932452Y-64354000D01*
X92510116Y-64354000D01*
X92494877Y-64358475D01*
X92493672Y-64359865D01*
X92492001Y-64367548D01*
X92492001Y-65344669D01*
X90660593Y-65344669D01*
X90643102Y-64944059D01*
X90642621Y-64938560D01*
X90583411Y-64488813D01*
X90582456Y-64483401D01*
X90484273Y-64040526D01*
X90482847Y-64035203D01*
X90417480Y-63827885D01*
X92492000Y-63827885D01*
X92496475Y-63843124D01*
X92497865Y-63844329D01*
X92505548Y-63846000D01*
X93927885Y-63846000D01*
X93943124Y-63841525D01*
X93944329Y-63840135D01*
X93946000Y-63832452D01*
X93946000Y-62410116D01*
X93941525Y-62394877D01*
X93940135Y-62393672D01*
X93932452Y-62392001D01*
X92955331Y-62392001D01*
X92948510Y-62392371D01*
X92897648Y-62397895D01*
X92882396Y-62401521D01*
X92761946Y-62446676D01*
X92746351Y-62455214D01*
X92644276Y-62531715D01*
X92631715Y-62544276D01*
X92555214Y-62646351D01*
X92546676Y-62661946D01*
X92501522Y-62782394D01*
X92497895Y-62797649D01*
X92492369Y-62848514D01*
X92492000Y-62855328D01*
X92492000Y-63827885D01*
X90417480Y-63827885D01*
X90346440Y-63602573D01*
X90344558Y-63597404D01*
X90170959Y-63178298D01*
X90168635Y-63173314D01*
X89959168Y-62770934D01*
X89956421Y-62766176D01*
X89712679Y-62383576D01*
X89709533Y-62379082D01*
X89433381Y-62019195D01*
X89429834Y-62014967D01*
X89305512Y-61879294D01*
X89291916Y-61871080D01*
X89291546Y-61871090D01*
X89282709Y-61876501D01*
X85772022Y-65387188D01*
X85764408Y-65401132D01*
X85034356Y-65401132D01*
X85035592Y-65398868D01*
X85035461Y-65397035D01*
X85031210Y-65390420D01*
X81519539Y-61878749D01*
X81505595Y-61871135D01*
X81505225Y-61871161D01*
X81496636Y-61876950D01*
X81370166Y-62014967D01*
X81366619Y-62019195D01*
X81090467Y-62379082D01*
X81087321Y-62383576D01*
X80843579Y-62766176D01*
X80840832Y-62770934D01*
X80746263Y-62952598D01*
X80697066Y-63003785D01*
X80628005Y-63020249D01*
X80561006Y-62996763D01*
X80517341Y-62940782D01*
X80508500Y-62894417D01*
X80508500Y-60634500D01*
X80528502Y-60566379D01*
X80582158Y-60519886D01*
X80634500Y-60508500D01*
X82894417Y-60508500D01*
X82962538Y-60528502D01*
G37*
%TD.AperFunction*%
%TD*%
M02*
