%TF.GenerationSoftware,KiCad,Pcbnew,(6.0.5)*%
%TF.CreationDate,2024-08-08T10:41:33-06:00*%
%TF.ProjectId,oil-lamp-safety,6f696c2d-6c61-46d7-902d-736166657479,v0.1*%
%TF.SameCoordinates,Original*%
%TF.FileFunction,Legend,Top*%
%TF.FilePolarity,Positive*%
%FSLAX46Y46*%
G04 Gerber Fmt 4.6, Leading zero omitted, Abs format (unit mm)*
G04 Created by KiCad (PCBNEW (6.0.5)) date 2024-08-08 10:41:33*
%MOMM*%
%LPD*%
G01*
G04 APERTURE LIST*
%ADD10C,0.150000*%
%ADD11C,0.120000*%
G04 APERTURE END LIST*
D10*
%TO.C,D4*%
X102061904Y-110452380D02*
X102061904Y-109452380D01*
X102300000Y-109452380D01*
X102442857Y-109500000D01*
X102538095Y-109595238D01*
X102585714Y-109690476D01*
X102633333Y-109880952D01*
X102633333Y-110023809D01*
X102585714Y-110214285D01*
X102538095Y-110309523D01*
X102442857Y-110404761D01*
X102300000Y-110452380D01*
X102061904Y-110452380D01*
X103490476Y-109785714D02*
X103490476Y-110452380D01*
X103252380Y-109404761D02*
X103014285Y-110119047D01*
X103633333Y-110119047D01*
%TO.C,D3*%
X112461904Y-110452380D02*
X112461904Y-109452380D01*
X112700000Y-109452380D01*
X112842857Y-109500000D01*
X112938095Y-109595238D01*
X112985714Y-109690476D01*
X113033333Y-109880952D01*
X113033333Y-110023809D01*
X112985714Y-110214285D01*
X112938095Y-110309523D01*
X112842857Y-110404761D01*
X112700000Y-110452380D01*
X112461904Y-110452380D01*
X113366666Y-109452380D02*
X113985714Y-109452380D01*
X113652380Y-109833333D01*
X113795238Y-109833333D01*
X113890476Y-109880952D01*
X113938095Y-109928571D01*
X113985714Y-110023809D01*
X113985714Y-110261904D01*
X113938095Y-110357142D01*
X113890476Y-110404761D01*
X113795238Y-110452380D01*
X113509523Y-110452380D01*
X113414285Y-110404761D01*
X113366666Y-110357142D01*
%TO.C,D2*%
X122861904Y-110452380D02*
X122861904Y-109452380D01*
X123100000Y-109452380D01*
X123242857Y-109500000D01*
X123338095Y-109595238D01*
X123385714Y-109690476D01*
X123433333Y-109880952D01*
X123433333Y-110023809D01*
X123385714Y-110214285D01*
X123338095Y-110309523D01*
X123242857Y-110404761D01*
X123100000Y-110452380D01*
X122861904Y-110452380D01*
X123814285Y-109547619D02*
X123861904Y-109500000D01*
X123957142Y-109452380D01*
X124195238Y-109452380D01*
X124290476Y-109500000D01*
X124338095Y-109547619D01*
X124385714Y-109642857D01*
X124385714Y-109738095D01*
X124338095Y-109880952D01*
X123766666Y-110452380D01*
X124385714Y-110452380D01*
%TO.C,U1*%
X86823095Y-114567380D02*
X86823095Y-115376904D01*
X86870714Y-115472142D01*
X86918333Y-115519761D01*
X87013571Y-115567380D01*
X87204047Y-115567380D01*
X87299285Y-115519761D01*
X87346904Y-115472142D01*
X87394523Y-115376904D01*
X87394523Y-114567380D01*
X88394523Y-115567380D02*
X87823095Y-115567380D01*
X88108809Y-115567380D02*
X88108809Y-114567380D01*
X88013571Y-114710238D01*
X87918333Y-114805476D01*
X87823095Y-114853095D01*
%TO.C,R10*%
X117852380Y-93042857D02*
X117376190Y-93376190D01*
X117852380Y-93614285D02*
X116852380Y-93614285D01*
X116852380Y-93233333D01*
X116900000Y-93138095D01*
X116947619Y-93090476D01*
X117042857Y-93042857D01*
X117185714Y-93042857D01*
X117280952Y-93090476D01*
X117328571Y-93138095D01*
X117376190Y-93233333D01*
X117376190Y-93614285D01*
X117852380Y-92090476D02*
X117852380Y-92661904D01*
X117852380Y-92376190D02*
X116852380Y-92376190D01*
X116995238Y-92471428D01*
X117090476Y-92566666D01*
X117138095Y-92661904D01*
X116852380Y-91471428D02*
X116852380Y-91376190D01*
X116900000Y-91280952D01*
X116947619Y-91233333D01*
X117042857Y-91185714D01*
X117233333Y-91138095D01*
X117471428Y-91138095D01*
X117661904Y-91185714D01*
X117757142Y-91233333D01*
X117804761Y-91280952D01*
X117852380Y-91376190D01*
X117852380Y-91471428D01*
X117804761Y-91566666D01*
X117757142Y-91614285D01*
X117661904Y-91661904D01*
X117471428Y-91709523D01*
X117233333Y-91709523D01*
X117042857Y-91661904D01*
X116947619Y-91614285D01*
X116900000Y-91566666D01*
X116852380Y-91471428D01*
%TO.C,R9*%
X107652380Y-92766666D02*
X107176190Y-93100000D01*
X107652380Y-93338095D02*
X106652380Y-93338095D01*
X106652380Y-92957142D01*
X106700000Y-92861904D01*
X106747619Y-92814285D01*
X106842857Y-92766666D01*
X106985714Y-92766666D01*
X107080952Y-92814285D01*
X107128571Y-92861904D01*
X107176190Y-92957142D01*
X107176190Y-93338095D01*
X107652380Y-92290476D02*
X107652380Y-92100000D01*
X107604761Y-92004761D01*
X107557142Y-91957142D01*
X107414285Y-91861904D01*
X107223809Y-91814285D01*
X106842857Y-91814285D01*
X106747619Y-91861904D01*
X106700000Y-91909523D01*
X106652380Y-92004761D01*
X106652380Y-92195238D01*
X106700000Y-92290476D01*
X106747619Y-92338095D01*
X106842857Y-92385714D01*
X107080952Y-92385714D01*
X107176190Y-92338095D01*
X107223809Y-92290476D01*
X107271428Y-92195238D01*
X107271428Y-92004761D01*
X107223809Y-91909523D01*
X107176190Y-91861904D01*
X107080952Y-91814285D01*
%TO.C,R8*%
X97852380Y-92766666D02*
X97376190Y-93100000D01*
X97852380Y-93338095D02*
X96852380Y-93338095D01*
X96852380Y-92957142D01*
X96900000Y-92861904D01*
X96947619Y-92814285D01*
X97042857Y-92766666D01*
X97185714Y-92766666D01*
X97280952Y-92814285D01*
X97328571Y-92861904D01*
X97376190Y-92957142D01*
X97376190Y-93338095D01*
X97280952Y-92195238D02*
X97233333Y-92290476D01*
X97185714Y-92338095D01*
X97090476Y-92385714D01*
X97042857Y-92385714D01*
X96947619Y-92338095D01*
X96900000Y-92290476D01*
X96852380Y-92195238D01*
X96852380Y-92004761D01*
X96900000Y-91909523D01*
X96947619Y-91861904D01*
X97042857Y-91814285D01*
X97090476Y-91814285D01*
X97185714Y-91861904D01*
X97233333Y-91909523D01*
X97280952Y-92004761D01*
X97280952Y-92195238D01*
X97328571Y-92290476D01*
X97376190Y-92338095D01*
X97471428Y-92385714D01*
X97661904Y-92385714D01*
X97757142Y-92338095D01*
X97804761Y-92290476D01*
X97852380Y-92195238D01*
X97852380Y-92004761D01*
X97804761Y-91909523D01*
X97757142Y-91861904D01*
X97661904Y-91814285D01*
X97471428Y-91814285D01*
X97376190Y-91861904D01*
X97328571Y-91909523D01*
X97280952Y-92004761D01*
%TO.C,R7*%
X102452380Y-97566666D02*
X101976190Y-97900000D01*
X102452380Y-98138095D02*
X101452380Y-98138095D01*
X101452380Y-97757142D01*
X101500000Y-97661904D01*
X101547619Y-97614285D01*
X101642857Y-97566666D01*
X101785714Y-97566666D01*
X101880952Y-97614285D01*
X101928571Y-97661904D01*
X101976190Y-97757142D01*
X101976190Y-98138095D01*
X101452380Y-97233333D02*
X101452380Y-96566666D01*
X102452380Y-96995238D01*
%TO.C,R6*%
X112452380Y-97566666D02*
X111976190Y-97900000D01*
X112452380Y-98138095D02*
X111452380Y-98138095D01*
X111452380Y-97757142D01*
X111500000Y-97661904D01*
X111547619Y-97614285D01*
X111642857Y-97566666D01*
X111785714Y-97566666D01*
X111880952Y-97614285D01*
X111928571Y-97661904D01*
X111976190Y-97757142D01*
X111976190Y-98138095D01*
X111452380Y-96709523D02*
X111452380Y-96900000D01*
X111500000Y-96995238D01*
X111547619Y-97042857D01*
X111690476Y-97138095D01*
X111880952Y-97185714D01*
X112261904Y-97185714D01*
X112357142Y-97138095D01*
X112404761Y-97090476D01*
X112452380Y-96995238D01*
X112452380Y-96804761D01*
X112404761Y-96709523D01*
X112357142Y-96661904D01*
X112261904Y-96614285D01*
X112023809Y-96614285D01*
X111928571Y-96661904D01*
X111880952Y-96709523D01*
X111833333Y-96804761D01*
X111833333Y-96995238D01*
X111880952Y-97090476D01*
X111928571Y-97138095D01*
X112023809Y-97185714D01*
%TO.C,R5*%
X87833333Y-92652380D02*
X87500000Y-92176190D01*
X87261904Y-92652380D02*
X87261904Y-91652380D01*
X87642857Y-91652380D01*
X87738095Y-91700000D01*
X87785714Y-91747619D01*
X87833333Y-91842857D01*
X87833333Y-91985714D01*
X87785714Y-92080952D01*
X87738095Y-92128571D01*
X87642857Y-92176190D01*
X87261904Y-92176190D01*
X88738095Y-91652380D02*
X88261904Y-91652380D01*
X88214285Y-92128571D01*
X88261904Y-92080952D01*
X88357142Y-92033333D01*
X88595238Y-92033333D01*
X88690476Y-92080952D01*
X88738095Y-92128571D01*
X88785714Y-92223809D01*
X88785714Y-92461904D01*
X88738095Y-92557142D01*
X88690476Y-92604761D01*
X88595238Y-92652380D01*
X88357142Y-92652380D01*
X88261904Y-92604761D01*
X88214285Y-92557142D01*
%TO.C,R4*%
X122452380Y-97566666D02*
X121976190Y-97900000D01*
X122452380Y-98138095D02*
X121452380Y-98138095D01*
X121452380Y-97757142D01*
X121500000Y-97661904D01*
X121547619Y-97614285D01*
X121642857Y-97566666D01*
X121785714Y-97566666D01*
X121880952Y-97614285D01*
X121928571Y-97661904D01*
X121976190Y-97757142D01*
X121976190Y-98138095D01*
X121785714Y-96709523D02*
X122452380Y-96709523D01*
X121404761Y-96947619D02*
X122119047Y-97185714D01*
X122119047Y-96566666D01*
%TO.C,R3*%
X101633333Y-121852380D02*
X101300000Y-121376190D01*
X101061904Y-121852380D02*
X101061904Y-120852380D01*
X101442857Y-120852380D01*
X101538095Y-120900000D01*
X101585714Y-120947619D01*
X101633333Y-121042857D01*
X101633333Y-121185714D01*
X101585714Y-121280952D01*
X101538095Y-121328571D01*
X101442857Y-121376190D01*
X101061904Y-121376190D01*
X101966666Y-120852380D02*
X102585714Y-120852380D01*
X102252380Y-121233333D01*
X102395238Y-121233333D01*
X102490476Y-121280952D01*
X102538095Y-121328571D01*
X102585714Y-121423809D01*
X102585714Y-121661904D01*
X102538095Y-121757142D01*
X102490476Y-121804761D01*
X102395238Y-121852380D01*
X102109523Y-121852380D01*
X102014285Y-121804761D01*
X101966666Y-121757142D01*
%TO.C,R2*%
X101633333Y-117852380D02*
X101300000Y-117376190D01*
X101061904Y-117852380D02*
X101061904Y-116852380D01*
X101442857Y-116852380D01*
X101538095Y-116900000D01*
X101585714Y-116947619D01*
X101633333Y-117042857D01*
X101633333Y-117185714D01*
X101585714Y-117280952D01*
X101538095Y-117328571D01*
X101442857Y-117376190D01*
X101061904Y-117376190D01*
X102014285Y-116947619D02*
X102061904Y-116900000D01*
X102157142Y-116852380D01*
X102395238Y-116852380D01*
X102490476Y-116900000D01*
X102538095Y-116947619D01*
X102585714Y-117042857D01*
X102585714Y-117138095D01*
X102538095Y-117280952D01*
X101966666Y-117852380D01*
X102585714Y-117852380D01*
%TO.C,R1*%
X87833333Y-84852380D02*
X87500000Y-84376190D01*
X87261904Y-84852380D02*
X87261904Y-83852380D01*
X87642857Y-83852380D01*
X87738095Y-83900000D01*
X87785714Y-83947619D01*
X87833333Y-84042857D01*
X87833333Y-84185714D01*
X87785714Y-84280952D01*
X87738095Y-84328571D01*
X87642857Y-84376190D01*
X87261904Y-84376190D01*
X88785714Y-84852380D02*
X88214285Y-84852380D01*
X88500000Y-84852380D02*
X88500000Y-83852380D01*
X88404761Y-83995238D01*
X88309523Y-84090476D01*
X88214285Y-84138095D01*
%TO.C,Q3*%
X120977619Y-84095238D02*
X120930000Y-84190476D01*
X120834761Y-84285714D01*
X120691904Y-84428571D01*
X120644285Y-84523809D01*
X120644285Y-84619047D01*
X120882380Y-84571428D02*
X120834761Y-84666666D01*
X120739523Y-84761904D01*
X120549047Y-84809523D01*
X120215714Y-84809523D01*
X120025238Y-84761904D01*
X119930000Y-84666666D01*
X119882380Y-84571428D01*
X119882380Y-84380952D01*
X119930000Y-84285714D01*
X120025238Y-84190476D01*
X120215714Y-84142857D01*
X120549047Y-84142857D01*
X120739523Y-84190476D01*
X120834761Y-84285714D01*
X120882380Y-84380952D01*
X120882380Y-84571428D01*
X119882380Y-83809523D02*
X119882380Y-83190476D01*
X120263333Y-83523809D01*
X120263333Y-83380952D01*
X120310952Y-83285714D01*
X120358571Y-83238095D01*
X120453809Y-83190476D01*
X120691904Y-83190476D01*
X120787142Y-83238095D01*
X120834761Y-83285714D01*
X120882380Y-83380952D01*
X120882380Y-83666666D01*
X120834761Y-83761904D01*
X120787142Y-83809523D01*
%TO.C,Q2*%
X110747619Y-84155238D02*
X110700000Y-84250476D01*
X110604761Y-84345714D01*
X110461904Y-84488571D01*
X110414285Y-84583809D01*
X110414285Y-84679047D01*
X110652380Y-84631428D02*
X110604761Y-84726666D01*
X110509523Y-84821904D01*
X110319047Y-84869523D01*
X109985714Y-84869523D01*
X109795238Y-84821904D01*
X109700000Y-84726666D01*
X109652380Y-84631428D01*
X109652380Y-84440952D01*
X109700000Y-84345714D01*
X109795238Y-84250476D01*
X109985714Y-84202857D01*
X110319047Y-84202857D01*
X110509523Y-84250476D01*
X110604761Y-84345714D01*
X110652380Y-84440952D01*
X110652380Y-84631428D01*
X109747619Y-83821904D02*
X109700000Y-83774285D01*
X109652380Y-83679047D01*
X109652380Y-83440952D01*
X109700000Y-83345714D01*
X109747619Y-83298095D01*
X109842857Y-83250476D01*
X109938095Y-83250476D01*
X110080952Y-83298095D01*
X110652380Y-83869523D01*
X110652380Y-83250476D01*
%TO.C,Q1*%
X100947619Y-84095238D02*
X100900000Y-84190476D01*
X100804761Y-84285714D01*
X100661904Y-84428571D01*
X100614285Y-84523809D01*
X100614285Y-84619047D01*
X100852380Y-84571428D02*
X100804761Y-84666666D01*
X100709523Y-84761904D01*
X100519047Y-84809523D01*
X100185714Y-84809523D01*
X99995238Y-84761904D01*
X99900000Y-84666666D01*
X99852380Y-84571428D01*
X99852380Y-84380952D01*
X99900000Y-84285714D01*
X99995238Y-84190476D01*
X100185714Y-84142857D01*
X100519047Y-84142857D01*
X100709523Y-84190476D01*
X100804761Y-84285714D01*
X100852380Y-84380952D01*
X100852380Y-84571428D01*
X100852380Y-83190476D02*
X100852380Y-83761904D01*
X100852380Y-83476190D02*
X99852380Y-83476190D01*
X99995238Y-83571428D01*
X100090476Y-83666666D01*
X100138095Y-83761904D01*
%TO.C,J1*%
X93866666Y-66452380D02*
X93866666Y-67166666D01*
X93819047Y-67309523D01*
X93723809Y-67404761D01*
X93580952Y-67452380D01*
X93485714Y-67452380D01*
X94866666Y-67452380D02*
X94295238Y-67452380D01*
X94580952Y-67452380D02*
X94580952Y-66452380D01*
X94485714Y-66595238D01*
X94390476Y-66690476D01*
X94295238Y-66738095D01*
%TO.C,FB1*%
X92528571Y-75833333D02*
X92528571Y-76166666D01*
X93052380Y-76166666D02*
X92052380Y-76166666D01*
X92052380Y-75690476D01*
X92528571Y-74976190D02*
X92576190Y-74833333D01*
X92623809Y-74785714D01*
X92719047Y-74738095D01*
X92861904Y-74738095D01*
X92957142Y-74785714D01*
X93004761Y-74833333D01*
X93052380Y-74928571D01*
X93052380Y-75309523D01*
X92052380Y-75309523D01*
X92052380Y-74976190D01*
X92100000Y-74880952D01*
X92147619Y-74833333D01*
X92242857Y-74785714D01*
X92338095Y-74785714D01*
X92433333Y-74833333D01*
X92480952Y-74880952D01*
X92528571Y-74976190D01*
X92528571Y-75309523D01*
X93052380Y-73785714D02*
X93052380Y-74357142D01*
X93052380Y-74071428D02*
X92052380Y-74071428D01*
X92195238Y-74166666D01*
X92290476Y-74261904D01*
X92338095Y-74357142D01*
%TO.C,D7*%
X117852380Y-77338095D02*
X116852380Y-77338095D01*
X116852380Y-77100000D01*
X116900000Y-76957142D01*
X116995238Y-76861904D01*
X117090476Y-76814285D01*
X117280952Y-76766666D01*
X117423809Y-76766666D01*
X117614285Y-76814285D01*
X117709523Y-76861904D01*
X117804761Y-76957142D01*
X117852380Y-77100000D01*
X117852380Y-77338095D01*
X116852380Y-76433333D02*
X116852380Y-75766666D01*
X117852380Y-76195238D01*
X117052380Y-81661904D02*
X116052380Y-81661904D01*
X117052380Y-81090476D02*
X116480952Y-81519047D01*
X116052380Y-81090476D02*
X116623809Y-81661904D01*
%TO.C,D6*%
X107652380Y-77738095D02*
X106652380Y-77738095D01*
X106652380Y-77500000D01*
X106700000Y-77357142D01*
X106795238Y-77261904D01*
X106890476Y-77214285D01*
X107080952Y-77166666D01*
X107223809Y-77166666D01*
X107414285Y-77214285D01*
X107509523Y-77261904D01*
X107604761Y-77357142D01*
X107652380Y-77500000D01*
X107652380Y-77738095D01*
X106652380Y-76309523D02*
X106652380Y-76500000D01*
X106700000Y-76595238D01*
X106747619Y-76642857D01*
X106890476Y-76738095D01*
X107080952Y-76785714D01*
X107461904Y-76785714D01*
X107557142Y-76738095D01*
X107604761Y-76690476D01*
X107652380Y-76595238D01*
X107652380Y-76404761D01*
X107604761Y-76309523D01*
X107557142Y-76261904D01*
X107461904Y-76214285D01*
X107223809Y-76214285D01*
X107128571Y-76261904D01*
X107080952Y-76309523D01*
X107033333Y-76404761D01*
X107033333Y-76595238D01*
X107080952Y-76690476D01*
X107128571Y-76738095D01*
X107223809Y-76785714D01*
X106852380Y-81661904D02*
X105852380Y-81661904D01*
X106852380Y-81090476D02*
X106280952Y-81519047D01*
X105852380Y-81090476D02*
X106423809Y-81661904D01*
%TO.C,D5*%
X97852380Y-77738095D02*
X96852380Y-77738095D01*
X96852380Y-77500000D01*
X96900000Y-77357142D01*
X96995238Y-77261904D01*
X97090476Y-77214285D01*
X97280952Y-77166666D01*
X97423809Y-77166666D01*
X97614285Y-77214285D01*
X97709523Y-77261904D01*
X97804761Y-77357142D01*
X97852380Y-77500000D01*
X97852380Y-77738095D01*
X96852380Y-76261904D02*
X96852380Y-76738095D01*
X97328571Y-76785714D01*
X97280952Y-76738095D01*
X97233333Y-76642857D01*
X97233333Y-76404761D01*
X97280952Y-76309523D01*
X97328571Y-76261904D01*
X97423809Y-76214285D01*
X97661904Y-76214285D01*
X97757142Y-76261904D01*
X97804761Y-76309523D01*
X97852380Y-76404761D01*
X97852380Y-76642857D01*
X97804761Y-76738095D01*
X97757142Y-76785714D01*
X97052380Y-81661904D02*
X96052380Y-81661904D01*
X97052380Y-81090476D02*
X96480952Y-81519047D01*
X96052380Y-81090476D02*
X96623809Y-81661904D01*
%TO.C,D1*%
X87261904Y-88652380D02*
X87261904Y-87652380D01*
X87500000Y-87652380D01*
X87642857Y-87700000D01*
X87738095Y-87795238D01*
X87785714Y-87890476D01*
X87833333Y-88080952D01*
X87833333Y-88223809D01*
X87785714Y-88414285D01*
X87738095Y-88509523D01*
X87642857Y-88604761D01*
X87500000Y-88652380D01*
X87261904Y-88652380D01*
X88785714Y-88652380D02*
X88214285Y-88652380D01*
X88500000Y-88652380D02*
X88500000Y-87652380D01*
X88404761Y-87795238D01*
X88309523Y-87890476D01*
X88214285Y-87938095D01*
X83138095Y-89452380D02*
X83138095Y-88452380D01*
X83709523Y-89452380D02*
X83280952Y-88880952D01*
X83709523Y-88452380D02*
X83138095Y-89023809D01*
%TO.C,C6*%
X121957142Y-73166666D02*
X122004761Y-73214285D01*
X122052380Y-73357142D01*
X122052380Y-73452380D01*
X122004761Y-73595238D01*
X121909523Y-73690476D01*
X121814285Y-73738095D01*
X121623809Y-73785714D01*
X121480952Y-73785714D01*
X121290476Y-73738095D01*
X121195238Y-73690476D01*
X121100000Y-73595238D01*
X121052380Y-73452380D01*
X121052380Y-73357142D01*
X121100000Y-73214285D01*
X121147619Y-73166666D01*
X121052380Y-72309523D02*
X121052380Y-72500000D01*
X121100000Y-72595238D01*
X121147619Y-72642857D01*
X121290476Y-72738095D01*
X121480952Y-72785714D01*
X121861904Y-72785714D01*
X121957142Y-72738095D01*
X122004761Y-72690476D01*
X122052380Y-72595238D01*
X122052380Y-72404761D01*
X122004761Y-72309523D01*
X121957142Y-72261904D01*
X121861904Y-72214285D01*
X121623809Y-72214285D01*
X121528571Y-72261904D01*
X121480952Y-72309523D01*
X121433333Y-72404761D01*
X121433333Y-72595238D01*
X121480952Y-72690476D01*
X121528571Y-72738095D01*
X121623809Y-72785714D01*
%TO.C,C5*%
X111757142Y-73366666D02*
X111804761Y-73414285D01*
X111852380Y-73557142D01*
X111852380Y-73652380D01*
X111804761Y-73795238D01*
X111709523Y-73890476D01*
X111614285Y-73938095D01*
X111423809Y-73985714D01*
X111280952Y-73985714D01*
X111090476Y-73938095D01*
X110995238Y-73890476D01*
X110900000Y-73795238D01*
X110852380Y-73652380D01*
X110852380Y-73557142D01*
X110900000Y-73414285D01*
X110947619Y-73366666D01*
X110852380Y-72461904D02*
X110852380Y-72938095D01*
X111328571Y-72985714D01*
X111280952Y-72938095D01*
X111233333Y-72842857D01*
X111233333Y-72604761D01*
X111280952Y-72509523D01*
X111328571Y-72461904D01*
X111423809Y-72414285D01*
X111661904Y-72414285D01*
X111757142Y-72461904D01*
X111804761Y-72509523D01*
X111852380Y-72604761D01*
X111852380Y-72842857D01*
X111804761Y-72938095D01*
X111757142Y-72985714D01*
%TO.C,C4*%
X101957142Y-73366666D02*
X102004761Y-73414285D01*
X102052380Y-73557142D01*
X102052380Y-73652380D01*
X102004761Y-73795238D01*
X101909523Y-73890476D01*
X101814285Y-73938095D01*
X101623809Y-73985714D01*
X101480952Y-73985714D01*
X101290476Y-73938095D01*
X101195238Y-73890476D01*
X101100000Y-73795238D01*
X101052380Y-73652380D01*
X101052380Y-73557142D01*
X101100000Y-73414285D01*
X101147619Y-73366666D01*
X101385714Y-72509523D02*
X102052380Y-72509523D01*
X101004761Y-72747619D02*
X101719047Y-72985714D01*
X101719047Y-72366666D01*
%TO.C,C3*%
X85833333Y-73357142D02*
X85785714Y-73404761D01*
X85642857Y-73452380D01*
X85547619Y-73452380D01*
X85404761Y-73404761D01*
X85309523Y-73309523D01*
X85261904Y-73214285D01*
X85214285Y-73023809D01*
X85214285Y-72880952D01*
X85261904Y-72690476D01*
X85309523Y-72595238D01*
X85404761Y-72500000D01*
X85547619Y-72452380D01*
X85642857Y-72452380D01*
X85785714Y-72500000D01*
X85833333Y-72547619D01*
X86166666Y-72452380D02*
X86785714Y-72452380D01*
X86452380Y-72833333D01*
X86595238Y-72833333D01*
X86690476Y-72880952D01*
X86738095Y-72928571D01*
X86785714Y-73023809D01*
X86785714Y-73261904D01*
X86738095Y-73357142D01*
X86690476Y-73404761D01*
X86595238Y-73452380D01*
X86309523Y-73452380D01*
X86214285Y-73404761D01*
X86166666Y-73357142D01*
%TO.C,C2*%
X85033333Y-97757142D02*
X84985714Y-97804761D01*
X84842857Y-97852380D01*
X84747619Y-97852380D01*
X84604761Y-97804761D01*
X84509523Y-97709523D01*
X84461904Y-97614285D01*
X84414285Y-97423809D01*
X84414285Y-97280952D01*
X84461904Y-97090476D01*
X84509523Y-96995238D01*
X84604761Y-96900000D01*
X84747619Y-96852380D01*
X84842857Y-96852380D01*
X84985714Y-96900000D01*
X85033333Y-96947619D01*
X85414285Y-96947619D02*
X85461904Y-96900000D01*
X85557142Y-96852380D01*
X85795238Y-96852380D01*
X85890476Y-96900000D01*
X85938095Y-96947619D01*
X85985714Y-97042857D01*
X85985714Y-97138095D01*
X85938095Y-97280952D01*
X85366666Y-97852380D01*
X85985714Y-97852380D01*
%TO.C,C1*%
X87250953Y-80757142D02*
X87203334Y-80804761D01*
X87060477Y-80852380D01*
X86965239Y-80852380D01*
X86822381Y-80804761D01*
X86727143Y-80709523D01*
X86679524Y-80614285D01*
X86631905Y-80423809D01*
X86631905Y-80280952D01*
X86679524Y-80090476D01*
X86727143Y-79995238D01*
X86822381Y-79900000D01*
X86965239Y-79852380D01*
X87060477Y-79852380D01*
X87203334Y-79900000D01*
X87250953Y-79947619D01*
X88203334Y-80852380D02*
X87631905Y-80852380D01*
X87917620Y-80852380D02*
X87917620Y-79852380D01*
X87822381Y-79995238D01*
X87727143Y-80090476D01*
X87631905Y-80138095D01*
D11*
%TO.C,D4*%
X101690000Y-111545000D02*
X101690000Y-108455000D01*
X101690000Y-108455170D02*
G75*
G03*
X96140000Y-110000462I-2560000J-1544830D01*
G01*
X96140000Y-109999538D02*
G75*
G03*
X101690000Y-111544830I2990000J-462D01*
G01*
X101630000Y-110000000D02*
G75*
G03*
X101630000Y-110000000I-2500000J0D01*
G01*
%TO.C,D3*%
X112165000Y-111545000D02*
X112165000Y-108455000D01*
X112165000Y-108455170D02*
G75*
G03*
X106615000Y-110000462I-2560000J-1544830D01*
G01*
X106615000Y-109999538D02*
G75*
G03*
X112165000Y-111544830I2990000J-462D01*
G01*
X112105000Y-110000000D02*
G75*
G03*
X112105000Y-110000000I-2500000J0D01*
G01*
%TO.C,D2*%
X122565000Y-111545000D02*
X122565000Y-108455000D01*
X122565000Y-108455170D02*
G75*
G03*
X117015000Y-110000462I-2560000J-1544830D01*
G01*
X117015000Y-109999538D02*
G75*
G03*
X122565000Y-111544830I2990000J-462D01*
G01*
X122505000Y-110000000D02*
G75*
G03*
X122505000Y-110000000I-2500000J0D01*
G01*
%TO.C,U1*%
X89835000Y-123945000D02*
X89835000Y-106045000D01*
X85335000Y-123945000D02*
X89835000Y-123945000D01*
X89835000Y-106045000D02*
X88585000Y-106045000D01*
X86585000Y-106045000D02*
X85335000Y-106045000D01*
X85335000Y-106045000D02*
X85335000Y-123945000D01*
X86585000Y-106045000D02*
G75*
G03*
X88585000Y-106045000I1000000J0D01*
G01*
%TO.C,R10*%
X115680000Y-87780000D02*
X115680000Y-97020000D01*
X119120000Y-97020000D02*
X119120000Y-87780000D01*
X119120000Y-87780000D02*
X115680000Y-87780000D01*
X117400000Y-87090000D02*
X117400000Y-87780000D01*
X117400000Y-97710000D02*
X117400000Y-97020000D01*
X115680000Y-97020000D02*
X119120000Y-97020000D01*
%TO.C,R9*%
X105480000Y-87980000D02*
X105480000Y-97220000D01*
X108920000Y-97220000D02*
X108920000Y-87980000D01*
X108920000Y-87980000D02*
X105480000Y-87980000D01*
X107200000Y-87290000D02*
X107200000Y-87980000D01*
X107200000Y-97910000D02*
X107200000Y-97220000D01*
X105480000Y-97220000D02*
X108920000Y-97220000D01*
%TO.C,R8*%
X95680000Y-87980000D02*
X95680000Y-97220000D01*
X99120000Y-97220000D02*
X99120000Y-87980000D01*
X99120000Y-87980000D02*
X95680000Y-87980000D01*
X97400000Y-87290000D02*
X97400000Y-87980000D01*
X97400000Y-97910000D02*
X97400000Y-97220000D01*
X95680000Y-97220000D02*
X99120000Y-97220000D01*
%TO.C,R7*%
X100280000Y-92780000D02*
X100280000Y-102020000D01*
X103720000Y-102020000D02*
X103720000Y-92780000D01*
X103720000Y-92780000D02*
X100280000Y-92780000D01*
X102000000Y-92090000D02*
X102000000Y-92780000D01*
X102000000Y-102710000D02*
X102000000Y-102020000D01*
X100280000Y-102020000D02*
X103720000Y-102020000D01*
%TO.C,R6*%
X110280000Y-102020000D02*
X113720000Y-102020000D01*
X112000000Y-102710000D02*
X112000000Y-102020000D01*
X112000000Y-92090000D02*
X112000000Y-92780000D01*
X113720000Y-92780000D02*
X110280000Y-92780000D01*
X113720000Y-102020000D02*
X113720000Y-92780000D01*
X110280000Y-92780000D02*
X110280000Y-102020000D01*
%TO.C,R5*%
X92620000Y-90480000D02*
X83380000Y-90480000D01*
X83380000Y-93920000D02*
X92620000Y-93920000D01*
X92620000Y-93920000D02*
X92620000Y-90480000D01*
X93310000Y-92200000D02*
X92620000Y-92200000D01*
X82690000Y-92200000D02*
X83380000Y-92200000D01*
X83380000Y-90480000D02*
X83380000Y-93920000D01*
%TO.C,R4*%
X120280000Y-102020000D02*
X123720000Y-102020000D01*
X122000000Y-102710000D02*
X122000000Y-102020000D01*
X122000000Y-92090000D02*
X122000000Y-92780000D01*
X123720000Y-92780000D02*
X120280000Y-92780000D01*
X123720000Y-102020000D02*
X123720000Y-92780000D01*
X120280000Y-92780000D02*
X120280000Y-102020000D01*
%TO.C,R3*%
X97180000Y-119680000D02*
X97180000Y-123120000D01*
X96490000Y-121400000D02*
X97180000Y-121400000D01*
X107110000Y-121400000D02*
X106420000Y-121400000D01*
X106420000Y-123120000D02*
X106420000Y-119680000D01*
X97180000Y-123120000D02*
X106420000Y-123120000D01*
X106420000Y-119680000D02*
X97180000Y-119680000D01*
%TO.C,R2*%
X106420000Y-119120000D02*
X106420000Y-115680000D01*
X107110000Y-117400000D02*
X106420000Y-117400000D01*
X96490000Y-117400000D02*
X97180000Y-117400000D01*
X97180000Y-115680000D02*
X97180000Y-119120000D01*
X106420000Y-115680000D02*
X97180000Y-115680000D01*
X97180000Y-119120000D02*
X106420000Y-119120000D01*
%TO.C,R1*%
X83380000Y-82680000D02*
X83380000Y-86120000D01*
X82690000Y-84400000D02*
X83380000Y-84400000D01*
X93310000Y-84400000D02*
X92620000Y-84400000D01*
X92620000Y-86120000D02*
X92620000Y-82680000D01*
X83380000Y-86120000D02*
X92620000Y-86120000D01*
X92620000Y-82680000D02*
X83380000Y-82680000D01*
%TO.C,Q3*%
X119675000Y-89120000D02*
X119675000Y-78880000D01*
X119675000Y-85850000D02*
X121185000Y-85850000D01*
X119675000Y-82149000D02*
X121185000Y-82149000D01*
X119675000Y-89120000D02*
X124316000Y-89120000D01*
X124316000Y-89120000D02*
X124316000Y-78880000D01*
X119675000Y-78880000D02*
X124316000Y-78880000D01*
X121185000Y-89120000D02*
X121185000Y-78880000D01*
%TO.C,Q2*%
X110985000Y-89180000D02*
X110985000Y-78940000D01*
X109475000Y-78940000D02*
X114116000Y-78940000D01*
X114116000Y-89180000D02*
X114116000Y-78940000D01*
X109475000Y-89180000D02*
X114116000Y-89180000D01*
X109475000Y-82209000D02*
X110985000Y-82209000D01*
X109475000Y-85910000D02*
X110985000Y-85910000D01*
X109475000Y-89180000D02*
X109475000Y-78940000D01*
%TO.C,Q1*%
X101185000Y-89120000D02*
X101185000Y-78880000D01*
X99675000Y-78880000D02*
X104316000Y-78880000D01*
X104316000Y-89120000D02*
X104316000Y-78880000D01*
X99675000Y-89120000D02*
X104316000Y-89120000D01*
X99675000Y-82149000D02*
X101185000Y-82149000D01*
X99675000Y-85850000D02*
X101185000Y-85850000D01*
X99675000Y-89120000D02*
X99675000Y-78880000D01*
%TO.C,J1*%
X91800000Y-68000000D02*
X93300000Y-68000000D01*
X124360000Y-60640000D02*
X124360000Y-67760000D01*
X92040000Y-60640000D02*
X92040000Y-67760000D01*
X92040000Y-60640000D02*
X124360000Y-60640000D01*
X92040000Y-67760000D02*
X124360000Y-67760000D01*
X91800000Y-66260000D02*
X91800000Y-68000000D01*
X92040000Y-66200000D02*
X124360000Y-66200000D01*
X93592000Y-65532000D02*
G75*
G03*
X94227011Y-65655493I607998J1431988D01*
G01*
X92768000Y-63492000D02*
G75*
G03*
X92767891Y-64707742I1432000J-608000D01*
G01*
X95632000Y-64708000D02*
G75*
G03*
X95632109Y-63492258I-1432003J607999D01*
G01*
X94200000Y-65655000D02*
G75*
G03*
X94807587Y-65531385I0J1555000D01*
G01*
X94808000Y-62668000D02*
G75*
G03*
X93592258Y-62667891I-608000J-1432000D01*
G01*
X116755000Y-64100000D02*
G75*
G03*
X116755000Y-64100000I-1555000J0D01*
G01*
X113255000Y-64100000D02*
G75*
G03*
X113255000Y-64100000I-1555000J0D01*
G01*
X120255000Y-64100000D02*
G75*
G03*
X120255000Y-64100000I-1555000J0D01*
G01*
X109755000Y-64100000D02*
G75*
G03*
X109755000Y-64100000I-1555000J0D01*
G01*
X106255000Y-64100000D02*
G75*
G03*
X106255000Y-64100000I-1555000J0D01*
G01*
X123755000Y-64100000D02*
G75*
G03*
X123755000Y-64100000I-1555000J0D01*
G01*
X99255000Y-64100000D02*
G75*
G03*
X99255000Y-64100000I-1555000J0D01*
G01*
X102755000Y-64100000D02*
G75*
G03*
X102755000Y-64100000I-1555000J0D01*
G01*
%TO.C,FB1*%
X94720000Y-81620000D02*
X90480000Y-81620000D01*
X94720000Y-68380000D02*
X90480000Y-68380000D01*
X94720000Y-68380000D02*
X94720000Y-81620000D01*
X90480000Y-68380000D02*
X90480000Y-81620000D01*
%TO.C,D7*%
X115930000Y-79520000D02*
X118870000Y-79520000D01*
X115930000Y-78740000D02*
X118870000Y-78740000D01*
X115930000Y-78500000D02*
X118870000Y-78500000D01*
X118870000Y-79520000D02*
X118870000Y-74080000D01*
X115930000Y-78620000D02*
X118870000Y-78620000D01*
X117400000Y-71790000D02*
X117400000Y-74080000D01*
X118870000Y-74080000D02*
X115930000Y-74080000D01*
X115930000Y-74080000D02*
X115930000Y-79520000D01*
X117400000Y-81810000D02*
X117400000Y-79520000D01*
%TO.C,D6*%
X107200000Y-82010000D02*
X107200000Y-79720000D01*
X105730000Y-74280000D02*
X105730000Y-79720000D01*
X108670000Y-74280000D02*
X105730000Y-74280000D01*
X107200000Y-71990000D02*
X107200000Y-74280000D01*
X105730000Y-78820000D02*
X108670000Y-78820000D01*
X108670000Y-79720000D02*
X108670000Y-74280000D01*
X105730000Y-78700000D02*
X108670000Y-78700000D01*
X105730000Y-78940000D02*
X108670000Y-78940000D01*
X105730000Y-79720000D02*
X108670000Y-79720000D01*
%TO.C,D5*%
X97400000Y-82010000D02*
X97400000Y-79720000D01*
X95930000Y-74280000D02*
X95930000Y-79720000D01*
X98870000Y-74280000D02*
X95930000Y-74280000D01*
X97400000Y-71990000D02*
X97400000Y-74280000D01*
X95930000Y-78820000D02*
X98870000Y-78820000D01*
X98870000Y-79720000D02*
X98870000Y-74280000D01*
X95930000Y-78700000D02*
X98870000Y-78700000D01*
X95930000Y-78940000D02*
X98870000Y-78940000D01*
X95930000Y-79720000D02*
X98870000Y-79720000D01*
%TO.C,D1*%
X86480000Y-87080000D02*
X86480000Y-89320000D01*
X93310000Y-88200000D02*
X90120000Y-88200000D01*
X85880000Y-89320000D02*
X90120000Y-89320000D01*
X85880000Y-87080000D02*
X85880000Y-89320000D01*
X90120000Y-87080000D02*
X85880000Y-87080000D01*
X86600000Y-87080000D02*
X86600000Y-89320000D01*
X82690000Y-88200000D02*
X85880000Y-88200000D01*
X86720000Y-87080000D02*
X86720000Y-89320000D01*
X90120000Y-89320000D02*
X90120000Y-87080000D01*
%TO.C,C6*%
X119980000Y-69280000D02*
X123220000Y-69280000D01*
X123220000Y-76720000D02*
X123220000Y-69280000D01*
X119980000Y-76720000D02*
X119980000Y-69280000D01*
X119980000Y-76720000D02*
X123220000Y-76720000D01*
%TO.C,C5*%
X109780000Y-76920000D02*
X113020000Y-76920000D01*
X109780000Y-76920000D02*
X109780000Y-69480000D01*
X113020000Y-76920000D02*
X113020000Y-69480000D01*
X109780000Y-69480000D02*
X113020000Y-69480000D01*
%TO.C,C4*%
X99980000Y-76920000D02*
X103220000Y-76920000D01*
X99980000Y-76920000D02*
X99980000Y-69480000D01*
X103220000Y-76920000D02*
X103220000Y-69480000D01*
X99980000Y-69480000D02*
X103220000Y-69480000D01*
%TO.C,C3*%
X89720000Y-74620000D02*
X89720000Y-71380000D01*
X89720000Y-74620000D02*
X82280000Y-74620000D01*
X89720000Y-71380000D02*
X82280000Y-71380000D01*
X82280000Y-74620000D02*
X82280000Y-71380000D01*
%TO.C,C2*%
X92852323Y-100000000D02*
G75*
G03*
X92852323Y-100000000I-5120000J0D01*
G01*
X88332323Y-94955000D02*
X88332323Y-105045000D01*
X87732323Y-94920000D02*
X87732323Y-105080000D01*
X90333323Y-101241000D02*
X90333323Y-104371000D01*
X90653323Y-101241000D02*
X90653323Y-104166000D01*
X90453323Y-101241000D02*
X90453323Y-104298000D01*
X90173323Y-95538000D02*
X90173323Y-98759000D01*
X90373323Y-101241000D02*
X90373323Y-104347000D01*
X89773323Y-101241000D02*
X89773323Y-104657000D01*
X91973323Y-97170000D02*
X91973323Y-102830000D01*
X90773323Y-95920000D02*
X90773323Y-98759000D01*
X89693323Y-95310000D02*
X89693323Y-98759000D01*
X89133323Y-95115000D02*
X89133323Y-98759000D01*
X92773323Y-99138000D02*
X92773323Y-100862000D01*
X89093323Y-95103000D02*
X89093323Y-98759000D01*
X91333323Y-96399000D02*
X91333323Y-98759000D01*
X89413323Y-95203000D02*
X89413323Y-98759000D01*
X92453323Y-98056000D02*
X92453323Y-101944000D01*
X88092323Y-94932000D02*
X88092323Y-105068000D01*
X88292323Y-94950000D02*
X88292323Y-105050000D01*
X91733323Y-96844000D02*
X91733323Y-103156000D01*
X90053323Y-101241000D02*
X90053323Y-104525000D01*
X89813323Y-95361000D02*
X89813323Y-98759000D01*
X91373323Y-101241000D02*
X91373323Y-103561000D01*
X90893323Y-101241000D02*
X90893323Y-103989000D01*
X90453323Y-95702000D02*
X90453323Y-98759000D01*
X91213323Y-96284000D02*
X91213323Y-98759000D01*
X88412323Y-94965000D02*
X88412323Y-105035000D01*
X89093323Y-101241000D02*
X89093323Y-104897000D01*
X90093323Y-95496000D02*
X90093323Y-98759000D01*
X89373323Y-95189000D02*
X89373323Y-98759000D01*
X90533323Y-101241000D02*
X90533323Y-104247000D01*
X91013323Y-101241000D02*
X91013323Y-103892000D01*
X92333323Y-97791000D02*
X92333323Y-102209000D01*
X88613323Y-94996000D02*
X88613323Y-105004000D01*
X89173323Y-95126000D02*
X89173323Y-98759000D01*
X87932323Y-94923000D02*
X87932323Y-105077000D01*
X91213323Y-101241000D02*
X91213323Y-103716000D01*
X88853323Y-95044000D02*
X88853323Y-104956000D01*
X88252323Y-94946000D02*
X88252323Y-105054000D01*
X90253323Y-101241000D02*
X90253323Y-104417000D01*
X89453323Y-95217000D02*
X89453323Y-98759000D01*
X89293323Y-101241000D02*
X89293323Y-104837000D01*
X89773323Y-95343000D02*
X89773323Y-98759000D01*
X91253323Y-101241000D02*
X91253323Y-103679000D01*
X91053323Y-96142000D02*
X91053323Y-98759000D01*
X90213323Y-101241000D02*
X90213323Y-104440000D01*
X89573323Y-95262000D02*
X89573323Y-98759000D01*
X89133323Y-101241000D02*
X89133323Y-104885000D01*
X91573323Y-96653000D02*
X91573323Y-103347000D01*
X89333323Y-95176000D02*
X89333323Y-98759000D01*
X90973323Y-96075000D02*
X90973323Y-98759000D01*
X88773323Y-95026000D02*
X88773323Y-104974000D01*
X90813323Y-101241000D02*
X90813323Y-104050000D01*
X90013323Y-95455000D02*
X90013323Y-98759000D01*
X91093323Y-101241000D02*
X91093323Y-103824000D01*
X90493323Y-101241000D02*
X90493323Y-104273000D01*
X91653323Y-96746000D02*
X91653323Y-103254000D01*
X91613323Y-96699000D02*
X91613323Y-103301000D01*
X91093323Y-96176000D02*
X91093323Y-98759000D01*
X88012323Y-94927000D02*
X88012323Y-105073000D01*
X90293323Y-101241000D02*
X90293323Y-104395000D01*
X92173323Y-97490000D02*
X92173323Y-102510000D01*
X90373323Y-95653000D02*
X90373323Y-98759000D01*
X89373323Y-101241000D02*
X89373323Y-104811000D01*
X88132323Y-94935000D02*
X88132323Y-105065000D01*
X91773323Y-96894000D02*
X91773323Y-103106000D01*
X90933323Y-101241000D02*
X90933323Y-103957000D01*
X89693323Y-101241000D02*
X89693323Y-104690000D01*
X90173323Y-101241000D02*
X90173323Y-104462000D01*
X87972323Y-94925000D02*
X87972323Y-105075000D01*
X89013323Y-95082000D02*
X89013323Y-98759000D01*
X92133323Y-97421000D02*
X92133323Y-102579000D01*
X91133323Y-101241000D02*
X91133323Y-103789000D01*
X82752677Y-96625000D02*
X82752677Y-97625000D01*
X87892323Y-94922000D02*
X87892323Y-105078000D01*
X89933323Y-95416000D02*
X89933323Y-98759000D01*
X88973323Y-95072000D02*
X88973323Y-104928000D01*
X90013323Y-101241000D02*
X90013323Y-104545000D01*
X91293323Y-101241000D02*
X91293323Y-103640000D01*
X90333323Y-95629000D02*
X90333323Y-98759000D01*
X91293323Y-96360000D02*
X91293323Y-98759000D01*
X91173323Y-96247000D02*
X91173323Y-98759000D01*
X89533323Y-101241000D02*
X89533323Y-104754000D01*
X89573323Y-101241000D02*
X89573323Y-104738000D01*
X89853323Y-101241000D02*
X89853323Y-104621000D01*
X91893323Y-97055000D02*
X91893323Y-102945000D01*
X92253323Y-97635000D02*
X92253323Y-102365000D01*
X90293323Y-95605000D02*
X90293323Y-98759000D01*
X90133323Y-95517000D02*
X90133323Y-98759000D01*
X91813323Y-96946000D02*
X91813323Y-103054000D01*
X90733323Y-95890000D02*
X90733323Y-98759000D01*
X91413323Y-101241000D02*
X91413323Y-103520000D01*
X89973323Y-95436000D02*
X89973323Y-98759000D01*
X90413323Y-101241000D02*
X90413323Y-104323000D01*
X90533323Y-95753000D02*
X90533323Y-98759000D01*
X89653323Y-95293000D02*
X89653323Y-98759000D01*
X90213323Y-95560000D02*
X90213323Y-98759000D01*
X92813323Y-99401000D02*
X92813323Y-100599000D01*
X89053323Y-101241000D02*
X89053323Y-104907000D01*
X88533323Y-94982000D02*
X88533323Y-105018000D01*
X91453323Y-101241000D02*
X91453323Y-103478000D01*
X89173323Y-101241000D02*
X89173323Y-104874000D01*
X89973323Y-101241000D02*
X89973323Y-104564000D01*
X90773323Y-101241000D02*
X90773323Y-104080000D01*
X90813323Y-95950000D02*
X90813323Y-98759000D01*
X90733323Y-101241000D02*
X90733323Y-104110000D01*
X88493323Y-94976000D02*
X88493323Y-105024000D01*
X92733323Y-98938000D02*
X92733323Y-101062000D01*
X87852323Y-94921000D02*
X87852323Y-105079000D01*
X91013323Y-96108000D02*
X91013323Y-98759000D01*
X91373323Y-96439000D02*
X91373323Y-98759000D01*
X90253323Y-95583000D02*
X90253323Y-98759000D01*
X91933323Y-97111000D02*
X91933323Y-102889000D01*
X90613323Y-101241000D02*
X90613323Y-104194000D01*
X88573323Y-94989000D02*
X88573323Y-105011000D01*
X90573323Y-101241000D02*
X90573323Y-104221000D01*
X88733323Y-95018000D02*
X88733323Y-104982000D01*
X89453323Y-101241000D02*
X89453323Y-104783000D01*
X91493323Y-96564000D02*
X91493323Y-103436000D01*
X89613323Y-101241000D02*
X89613323Y-104723000D01*
X87812323Y-94920000D02*
X87812323Y-105080000D01*
X90693323Y-95862000D02*
X90693323Y-98759000D01*
X89653323Y-101241000D02*
X89653323Y-104707000D01*
X88933323Y-95062000D02*
X88933323Y-104938000D01*
X90413323Y-95677000D02*
X90413323Y-98759000D01*
X92093323Y-97355000D02*
X92093323Y-102645000D01*
X90933323Y-96043000D02*
X90933323Y-98759000D01*
X89293323Y-95163000D02*
X89293323Y-98759000D01*
X91853323Y-97000000D02*
X91853323Y-103000000D01*
X88212323Y-94942000D02*
X88212323Y-105058000D01*
X92573323Y-98370000D02*
X92573323Y-101630000D01*
X90493323Y-95727000D02*
X90493323Y-98759000D01*
X92053323Y-97291000D02*
X92053323Y-102709000D01*
X88372323Y-94960000D02*
X88372323Y-105040000D01*
X91253323Y-96321000D02*
X91253323Y-98759000D01*
X89933323Y-101241000D02*
X89933323Y-104584000D01*
X90133323Y-101241000D02*
X90133323Y-104483000D01*
X89493323Y-101241000D02*
X89493323Y-104768000D01*
X89533323Y-95246000D02*
X89533323Y-98759000D01*
X90853323Y-95980000D02*
X90853323Y-98759000D01*
X92373323Y-97875000D02*
X92373323Y-102125000D01*
X88693323Y-95010000D02*
X88693323Y-104990000D01*
X89013323Y-101241000D02*
X89013323Y-104918000D01*
X92013323Y-97230000D02*
X92013323Y-102770000D01*
X92533323Y-98258000D02*
X92533323Y-101742000D01*
X91173323Y-101241000D02*
X91173323Y-103753000D01*
X91133323Y-96211000D02*
X91133323Y-98759000D01*
X89893323Y-101241000D02*
X89893323Y-104603000D01*
X88893323Y-95053000D02*
X88893323Y-104947000D01*
X91053323Y-101241000D02*
X91053323Y-103858000D01*
X89413323Y-101241000D02*
X89413323Y-104797000D01*
X88453323Y-94970000D02*
X88453323Y-105030000D01*
X90053323Y-95475000D02*
X90053323Y-98759000D01*
X91413323Y-96480000D02*
X91413323Y-98759000D01*
X92653323Y-98622000D02*
X92653323Y-101378000D01*
X88813323Y-95035000D02*
X88813323Y-104965000D01*
X88653323Y-95003000D02*
X88653323Y-104997000D01*
X89613323Y-95277000D02*
X89613323Y-98759000D01*
X89253323Y-101241000D02*
X89253323Y-104850000D01*
X91533323Y-96608000D02*
X91533323Y-103392000D01*
X90613323Y-95806000D02*
X90613323Y-98759000D01*
X92693323Y-98770000D02*
X92693323Y-101230000D01*
X89733323Y-95326000D02*
X89733323Y-98759000D01*
X82252677Y-97125000D02*
X83252677Y-97125000D01*
X89853323Y-95379000D02*
X89853323Y-98759000D01*
X87772323Y-94920000D02*
X87772323Y-105080000D01*
X89893323Y-95397000D02*
X89893323Y-98759000D01*
X89253323Y-95150000D02*
X89253323Y-98759000D01*
X92213323Y-97561000D02*
X92213323Y-102439000D01*
X90693323Y-101241000D02*
X90693323Y-104138000D01*
X89813323Y-101241000D02*
X89813323Y-104639000D01*
X90573323Y-95779000D02*
X90573323Y-98759000D01*
X91693323Y-96794000D02*
X91693323Y-103206000D01*
X90853323Y-101241000D02*
X90853323Y-104020000D01*
X89333323Y-101241000D02*
X89333323Y-104824000D01*
X88052323Y-94930000D02*
X88052323Y-105070000D01*
X90653323Y-95834000D02*
X90653323Y-98759000D01*
X91333323Y-101241000D02*
X91333323Y-103601000D01*
X92493323Y-98154000D02*
X92493323Y-101846000D01*
X92413323Y-97963000D02*
X92413323Y-102037000D01*
X89053323Y-95093000D02*
X89053323Y-98759000D01*
X89213323Y-95138000D02*
X89213323Y-98759000D01*
X89213323Y-101241000D02*
X89213323Y-104862000D01*
X88172323Y-94938000D02*
X88172323Y-105062000D01*
X92613323Y-98490000D02*
X92613323Y-101510000D01*
X90973323Y-101241000D02*
X90973323Y-103925000D01*
X92293323Y-97711000D02*
X92293323Y-102289000D01*
X89493323Y-95232000D02*
X89493323Y-98759000D01*
X90893323Y-96011000D02*
X90893323Y-98759000D01*
X89733323Y-101241000D02*
X89733323Y-104674000D01*
X91453323Y-96522000D02*
X91453323Y-98759000D01*
X90093323Y-101241000D02*
X90093323Y-104504000D01*
%TO.C,C1*%
X89420000Y-78600000D02*
G75*
G03*
X89420000Y-78600000I-3270000J0D01*
G01*
X85950000Y-81824000D02*
X85950000Y-75376000D01*
X84389000Y-81316000D02*
X84389000Y-79640000D01*
X84029000Y-77560000D02*
X84029000Y-76150000D01*
X85470000Y-77560000D02*
X85470000Y-75441000D01*
X84749000Y-81516000D02*
X84749000Y-79640000D01*
X85670000Y-81795000D02*
X85670000Y-79640000D01*
X84949000Y-77560000D02*
X84949000Y-75598000D01*
X84949000Y-81602000D02*
X84949000Y-79640000D01*
X85790000Y-81811000D02*
X85790000Y-79640000D01*
X85109000Y-81661000D02*
X85109000Y-79640000D01*
X85149000Y-81674000D02*
X85149000Y-79640000D01*
X84909000Y-81586000D02*
X84909000Y-79640000D01*
X84109000Y-81116000D02*
X84109000Y-79640000D01*
X85750000Y-81806000D02*
X85750000Y-79640000D01*
X84309000Y-77560000D02*
X84309000Y-75936000D01*
X84669000Y-81476000D02*
X84669000Y-79640000D01*
X85790000Y-77560000D02*
X85790000Y-75389000D01*
X84149000Y-81148000D02*
X84149000Y-79640000D01*
X84349000Y-77560000D02*
X84349000Y-75910000D01*
X84069000Y-77560000D02*
X84069000Y-76116000D01*
X85990000Y-81827000D02*
X85990000Y-75373000D01*
X84789000Y-77560000D02*
X84789000Y-75666000D01*
X85510000Y-81767000D02*
X85510000Y-79640000D01*
X84429000Y-81342000D02*
X84429000Y-79640000D01*
X83949000Y-77560000D02*
X83949000Y-76220000D01*
X85750000Y-77560000D02*
X85750000Y-75394000D01*
X83149000Y-79862000D02*
X83149000Y-77338000D01*
X83549000Y-80544000D02*
X83549000Y-76656000D01*
X83749000Y-80782000D02*
X83749000Y-76418000D01*
X85069000Y-77560000D02*
X85069000Y-75553000D01*
X84109000Y-77560000D02*
X84109000Y-76084000D01*
X84269000Y-81236000D02*
X84269000Y-79640000D01*
X83109000Y-79765000D02*
X83109000Y-77435000D01*
X85229000Y-77560000D02*
X85229000Y-75502000D01*
X85189000Y-81686000D02*
X85189000Y-79640000D01*
X85910000Y-77560000D02*
X85910000Y-75378000D01*
X84189000Y-81178000D02*
X84189000Y-79640000D01*
X84709000Y-77560000D02*
X84709000Y-75704000D01*
X83829000Y-80865000D02*
X83829000Y-76335000D01*
X84029000Y-81050000D02*
X84029000Y-79640000D01*
X85870000Y-81818000D02*
X85870000Y-79640000D01*
X85389000Y-81741000D02*
X85389000Y-79640000D01*
X85029000Y-77560000D02*
X85029000Y-75567000D01*
X85309000Y-81721000D02*
X85309000Y-79640000D01*
X84469000Y-81366000D02*
X84469000Y-79640000D01*
X85309000Y-77560000D02*
X85309000Y-75479000D01*
X86150000Y-81830000D02*
X86150000Y-75370000D01*
X85229000Y-81698000D02*
X85229000Y-79640000D01*
X85470000Y-81759000D02*
X85470000Y-79640000D01*
X85630000Y-81789000D02*
X85630000Y-79640000D01*
X85109000Y-77560000D02*
X85109000Y-75539000D01*
X84709000Y-81496000D02*
X84709000Y-79640000D01*
X85710000Y-77560000D02*
X85710000Y-75399000D01*
X83029000Y-79540000D02*
X83029000Y-77660000D01*
X83069000Y-79659000D02*
X83069000Y-77541000D01*
X85550000Y-81775000D02*
X85550000Y-79640000D01*
X83309000Y-80181000D02*
X83309000Y-77019000D01*
X83949000Y-80980000D02*
X83949000Y-79640000D01*
X83389000Y-80314000D02*
X83389000Y-76886000D01*
X84589000Y-77560000D02*
X84589000Y-75766000D01*
X89335241Y-80754000D02*
X89335241Y-80124000D01*
X85429000Y-77560000D02*
X85429000Y-75450000D01*
X85029000Y-81633000D02*
X85029000Y-79640000D01*
X83989000Y-77560000D02*
X83989000Y-76184000D01*
X84229000Y-77560000D02*
X84229000Y-75993000D01*
X85269000Y-81710000D02*
X85269000Y-79640000D01*
X85670000Y-77560000D02*
X85670000Y-75405000D01*
X84629000Y-77560000D02*
X84629000Y-75744000D01*
X84989000Y-81618000D02*
X84989000Y-79640000D01*
X83909000Y-77560000D02*
X83909000Y-76257000D01*
X84789000Y-81534000D02*
X84789000Y-79640000D01*
X85429000Y-81750000D02*
X85429000Y-79640000D01*
X83189000Y-79950000D02*
X83189000Y-77250000D01*
X85189000Y-77560000D02*
X85189000Y-75514000D01*
X83909000Y-80943000D02*
X83909000Y-79640000D01*
X84829000Y-77560000D02*
X84829000Y-75648000D01*
X83669000Y-80692000D02*
X83669000Y-76508000D01*
X83629000Y-80644000D02*
X83629000Y-76556000D01*
X84749000Y-77560000D02*
X84749000Y-75684000D01*
X84869000Y-77560000D02*
X84869000Y-75630000D01*
X85389000Y-77560000D02*
X85389000Y-75459000D01*
X84229000Y-81207000D02*
X84229000Y-79640000D01*
X83709000Y-80737000D02*
X83709000Y-76463000D01*
X84469000Y-77560000D02*
X84469000Y-75834000D01*
X84829000Y-81552000D02*
X84829000Y-79640000D01*
X84509000Y-81390000D02*
X84509000Y-79640000D01*
X85830000Y-81815000D02*
X85830000Y-79640000D01*
X84869000Y-81570000D02*
X84869000Y-79640000D01*
X85830000Y-77560000D02*
X85830000Y-75385000D01*
X84189000Y-77560000D02*
X84189000Y-76022000D01*
X83869000Y-77560000D02*
X83869000Y-76295000D01*
X82949000Y-79233000D02*
X82949000Y-77967000D01*
X84269000Y-77560000D02*
X84269000Y-75964000D01*
X83429000Y-80376000D02*
X83429000Y-76824000D01*
X84349000Y-81290000D02*
X84349000Y-79640000D01*
X83989000Y-81016000D02*
X83989000Y-79640000D01*
X85910000Y-81822000D02*
X85910000Y-79640000D01*
X85349000Y-77560000D02*
X85349000Y-75469000D01*
X84589000Y-81434000D02*
X84589000Y-79640000D01*
X85710000Y-81801000D02*
X85710000Y-79640000D01*
X83229000Y-80032000D02*
X83229000Y-77168000D01*
X84309000Y-81264000D02*
X84309000Y-79640000D01*
X85870000Y-77560000D02*
X85870000Y-75382000D01*
X85550000Y-77560000D02*
X85550000Y-75425000D01*
X83349000Y-80250000D02*
X83349000Y-76950000D01*
X84069000Y-81084000D02*
X84069000Y-79640000D01*
X84989000Y-77560000D02*
X84989000Y-75582000D01*
X83789000Y-80824000D02*
X83789000Y-76376000D01*
X83269000Y-80109000D02*
X83269000Y-77091000D01*
X85630000Y-77560000D02*
X85630000Y-75411000D01*
X84389000Y-77560000D02*
X84389000Y-75884000D01*
X84549000Y-81412000D02*
X84549000Y-79640000D01*
X84909000Y-77560000D02*
X84909000Y-75614000D01*
X85510000Y-77560000D02*
X85510000Y-75433000D01*
X82909000Y-79002000D02*
X82909000Y-78198000D01*
X84429000Y-77560000D02*
X84429000Y-75858000D01*
X89650241Y-80439000D02*
X89020241Y-80439000D01*
X84509000Y-77560000D02*
X84509000Y-75810000D01*
X86030000Y-81828000D02*
X86030000Y-75372000D01*
X82989000Y-79402000D02*
X82989000Y-77798000D01*
X85590000Y-81782000D02*
X85590000Y-79640000D01*
X83869000Y-80905000D02*
X83869000Y-79640000D01*
X84629000Y-81456000D02*
X84629000Y-79640000D01*
X84549000Y-77560000D02*
X84549000Y-75788000D01*
X85590000Y-77560000D02*
X85590000Y-75418000D01*
X83589000Y-80595000D02*
X83589000Y-76605000D01*
X83469000Y-80434000D02*
X83469000Y-76766000D01*
X86110000Y-81830000D02*
X86110000Y-75370000D01*
X85149000Y-77560000D02*
X85149000Y-75526000D01*
X85269000Y-77560000D02*
X85269000Y-75490000D01*
X86070000Y-81830000D02*
X86070000Y-75370000D01*
X85349000Y-81731000D02*
X85349000Y-79640000D01*
X83509000Y-80490000D02*
X83509000Y-76710000D01*
X85069000Y-81647000D02*
X85069000Y-79640000D01*
X84669000Y-77560000D02*
X84669000Y-75724000D01*
X84149000Y-77560000D02*
X84149000Y-76052000D01*
%TD*%
M02*
