%TF.GenerationSoftware,KiCad,Pcbnew,8.0.4*%
%TF.CreationDate,2024-08-13T22:42:28-06:00*%
%TF.ProjectId,oil-lamp-safety,6f696c2d-6c61-46d7-902d-736166657479,v0.2*%
%TF.SameCoordinates,Original*%
%TF.FileFunction,Drillmap*%
%TF.FilePolarity,Positive*%
%FSLAX45Y45*%
G04 Gerber Fmt 4.5, Leading zero omitted, Abs format (unit mm)*
G04 Created by KiCad (PCBNEW 8.0.4) date 2024-08-13 22:42:28*
%MOMM*%
%LPD*%
G01*
G04 APERTURE LIST*
%ADD10C,0.100000*%
%ADD11C,0.200000*%
%ADD12C,0.110000*%
%ADD13C,0.120000*%
%ADD14C,0.530000*%
G04 APERTURE END LIST*
D10*
X8000000Y-6000000D02*
X12500000Y-6000000D01*
X12500000Y-12500000D01*
X8000000Y-12500000D01*
X8000000Y-6000000D01*
D11*
D10*
X8130000Y-8380000D02*
X8210000Y-8460000D01*
X8210000Y-8380000D02*
X8130000Y-8460000D01*
X8240000Y-10590000D02*
X8320000Y-10670000D01*
X8320000Y-10590000D02*
X8240000Y-10670000D01*
X8240000Y-11860000D02*
X8320000Y-11940000D01*
X8320000Y-11860000D02*
X8240000Y-11940000D01*
X8310000Y-7280000D02*
X8390000Y-7360000D01*
X8390000Y-7280000D02*
X8310000Y-7360000D01*
X8378000Y-8750000D02*
X8458000Y-8830000D01*
X8458000Y-8750000D02*
X8378000Y-8830000D01*
X8378000Y-9004000D02*
X8458000Y-9084000D01*
X8458000Y-9004000D02*
X8378000Y-9084000D01*
X8378000Y-9258000D02*
X8458000Y-9338000D01*
X8458000Y-9258000D02*
X8378000Y-9338000D01*
X8378000Y-9512000D02*
X8458000Y-9592000D01*
X8458000Y-9512000D02*
X8378000Y-9592000D01*
X8378000Y-9766000D02*
X8458000Y-9846000D01*
X8458000Y-9766000D02*
X8378000Y-9846000D01*
X8378000Y-10020000D02*
X8458000Y-10100000D01*
X8458000Y-10020000D02*
X8378000Y-10100000D01*
X8378000Y-10274000D02*
X8458000Y-10354000D01*
X8458000Y-10274000D02*
X8378000Y-10354000D01*
X8450000Y-7820000D02*
X8530000Y-7900000D01*
X8530000Y-7820000D02*
X8450000Y-7900000D01*
X8600000Y-10590000D02*
X8680000Y-10670000D01*
X8680000Y-10590000D02*
X8600000Y-10670000D01*
X8600000Y-11860000D02*
X8680000Y-11940000D01*
X8680000Y-11860000D02*
X8600000Y-11940000D01*
X8700000Y-7820000D02*
X8780000Y-7900000D01*
X8780000Y-7820000D02*
X8700000Y-7900000D01*
X8810000Y-7280000D02*
X8890000Y-7360000D01*
X8890000Y-7280000D02*
X8810000Y-7360000D01*
X8960000Y-10590000D02*
X9040000Y-10670000D01*
X9040000Y-10590000D02*
X8960000Y-10670000D01*
X8960000Y-11860000D02*
X9040000Y-11940000D01*
X9040000Y-11860000D02*
X8960000Y-11940000D01*
X9140000Y-8750000D02*
X9220000Y-8830000D01*
X9220000Y-8750000D02*
X9140000Y-8830000D01*
X9140000Y-9004000D02*
X9220000Y-9084000D01*
X9220000Y-9004000D02*
X9140000Y-9084000D01*
X9140000Y-9258000D02*
X9220000Y-9338000D01*
X9220000Y-9258000D02*
X9140000Y-9338000D01*
X9140000Y-9512000D02*
X9220000Y-9592000D01*
X9220000Y-9512000D02*
X9140000Y-9592000D01*
X9140000Y-9766000D02*
X9220000Y-9846000D01*
X9220000Y-9766000D02*
X9140000Y-9846000D01*
X9140000Y-10020000D02*
X9220000Y-10100000D01*
X9220000Y-10020000D02*
X9140000Y-10100000D01*
X9140000Y-10274000D02*
X9220000Y-10354000D01*
X9220000Y-10274000D02*
X9140000Y-10354000D01*
X9380000Y-10590000D02*
X9460000Y-10670000D01*
X9460000Y-10590000D02*
X9380000Y-10670000D01*
X9380000Y-11860000D02*
X9460000Y-11940000D01*
X9460000Y-11860000D02*
X9380000Y-11940000D01*
X9400000Y-8380000D02*
X9480000Y-8460000D01*
X9480000Y-8380000D02*
X9400000Y-8460000D01*
X9700000Y-8585000D02*
X9780000Y-8665000D01*
X9780000Y-8585000D02*
X9700000Y-8665000D01*
X9700000Y-9855000D02*
X9780000Y-9935000D01*
X9780000Y-9855000D02*
X9700000Y-9935000D01*
X10120000Y-7030000D02*
X10200000Y-7110000D01*
X10200000Y-7030000D02*
X10120000Y-7110000D01*
X10120000Y-7530000D02*
X10200000Y-7610000D01*
X10200000Y-7530000D02*
X10120000Y-7610000D01*
X10160000Y-9065000D02*
X10240000Y-9145000D01*
X10240000Y-9065000D02*
X10160000Y-9145000D01*
X10160000Y-10335000D02*
X10240000Y-10415000D01*
X10240000Y-10335000D02*
X10160000Y-10415000D01*
X10680000Y-8585000D02*
X10760000Y-8665000D01*
X10760000Y-8585000D02*
X10680000Y-8665000D01*
X10680000Y-9855000D02*
X10760000Y-9935000D01*
X10760000Y-9855000D02*
X10680000Y-9935000D01*
X11100000Y-7030000D02*
X11180000Y-7110000D01*
X11180000Y-7030000D02*
X11100000Y-7110000D01*
X11100000Y-7530000D02*
X11180000Y-7610000D01*
X11180000Y-7530000D02*
X11100000Y-7610000D01*
X11160000Y-9065000D02*
X11240000Y-9145000D01*
X11240000Y-9065000D02*
X11160000Y-9145000D01*
X11160000Y-10335000D02*
X11240000Y-10415000D01*
X11240000Y-10335000D02*
X11160000Y-10415000D01*
X11700000Y-8565000D02*
X11780000Y-8645000D01*
X11780000Y-8565000D02*
X11700000Y-8645000D01*
X11700000Y-9835000D02*
X11780000Y-9915000D01*
X11780000Y-9835000D02*
X11700000Y-9915000D01*
X12120000Y-7010000D02*
X12200000Y-7090000D01*
X12200000Y-7010000D02*
X12120000Y-7090000D01*
X12120000Y-7510000D02*
X12200000Y-7590000D01*
X12200000Y-7510000D02*
X12120000Y-7590000D01*
X12160000Y-9065000D02*
X12240000Y-9145000D01*
X12240000Y-9065000D02*
X12160000Y-9145000D01*
X12160000Y-10335000D02*
X12240000Y-10415000D01*
X12240000Y-10335000D02*
X12160000Y-10415000D01*
X9898500Y-11000000D02*
G75*
G02*
X9808500Y-11000000I-45000J0D01*
G01*
X9808500Y-11000000D02*
G75*
G02*
X9898500Y-11000000I45000J0D01*
G01*
X10152500Y-11000000D02*
G75*
G02*
X10062500Y-11000000I-45000J0D01*
G01*
X10062500Y-11000000D02*
G75*
G02*
X10152500Y-11000000I45000J0D01*
G01*
X10878500Y-11000000D02*
G75*
G02*
X10788500Y-11000000I-45000J0D01*
G01*
X10788500Y-11000000D02*
G75*
G02*
X10878500Y-11000000I45000J0D01*
G01*
X11132500Y-11000000D02*
G75*
G02*
X11042500Y-11000000I-45000J0D01*
G01*
X11042500Y-11000000D02*
G75*
G02*
X11132500Y-11000000I45000J0D01*
G01*
X11918500Y-11000000D02*
G75*
G02*
X11828500Y-11000000I-45000J0D01*
G01*
X11828500Y-11000000D02*
G75*
G02*
X11918500Y-11000000I45000J0D01*
G01*
X12172500Y-11000000D02*
G75*
G02*
X12082500Y-11000000I-45000J0D01*
G01*
X12082500Y-11000000D02*
G75*
G02*
X12172500Y-11000000I45000J0D01*
G01*
X9320000Y-7040000D02*
X9320000Y-7140000D01*
X9270000Y-7090000D02*
X9370000Y-7090000D01*
X9320000Y-7940000D02*
X9320000Y-8040000D01*
X9270000Y-7990000D02*
X9370000Y-7990000D01*
X10220000Y-11610000D02*
X10220000Y-11710000D01*
X10170000Y-11660000D02*
X10270000Y-11660000D01*
X10220000Y-12110000D02*
X10220000Y-12210000D01*
X10170000Y-12160000D02*
X10270000Y-12160000D01*
D12*
X9778891Y-7103891D02*
X9778891Y-7026109D01*
X9701109Y-7026109D01*
X9701109Y-7103891D01*
X9778891Y-7103891D01*
X9778891Y-8373891D02*
X9778891Y-8296109D01*
X9701109Y-8296109D01*
X9701109Y-8373891D01*
X9778891Y-8373891D01*
X10338891Y-8178891D02*
X10338891Y-8101109D01*
X10261109Y-8101109D01*
X10261109Y-8178891D01*
X10338891Y-8178891D01*
X10338891Y-8432891D02*
X10338891Y-8355109D01*
X10261109Y-8355109D01*
X10261109Y-8432891D01*
X10338891Y-8432891D01*
X10338891Y-8686891D02*
X10338891Y-8609109D01*
X10261109Y-8609109D01*
X10261109Y-8686891D01*
X10338891Y-8686891D01*
X10758891Y-7103891D02*
X10758891Y-7026109D01*
X10681109Y-7026109D01*
X10681109Y-7103891D01*
X10758891Y-7103891D01*
X10758891Y-8373891D02*
X10758891Y-8296109D01*
X10681109Y-8296109D01*
X10681109Y-8373891D01*
X10758891Y-8373891D01*
X11318891Y-8190891D02*
X11318891Y-8113109D01*
X11241109Y-8113109D01*
X11241109Y-8190891D01*
X11318891Y-8190891D01*
X11318891Y-8444891D02*
X11318891Y-8367109D01*
X11241109Y-8367109D01*
X11241109Y-8444891D01*
X11318891Y-8444891D01*
X11318891Y-8698891D02*
X11318891Y-8621109D01*
X11241109Y-8621109D01*
X11241109Y-8698891D01*
X11318891Y-8698891D01*
X11778891Y-7083891D02*
X11778891Y-7006109D01*
X11701109Y-7006109D01*
X11701109Y-7083891D01*
X11778891Y-7083891D01*
X11778891Y-8353891D02*
X11778891Y-8276109D01*
X11701109Y-8276109D01*
X11701109Y-8353891D01*
X11778891Y-8353891D01*
X12338891Y-8184891D02*
X12338891Y-8107109D01*
X12261109Y-8107109D01*
X12261109Y-8184891D01*
X12338891Y-8184891D01*
X12338891Y-8438891D02*
X12338891Y-8361109D01*
X12261109Y-8361109D01*
X12261109Y-8438891D01*
X12338891Y-8438891D01*
X12338891Y-8692891D02*
X12338891Y-8615109D01*
X12261109Y-8615109D01*
X12261109Y-8692891D01*
X12338891Y-8692891D01*
D13*
X9420000Y-6470000D02*
X9480000Y-6410000D01*
X9420000Y-6350000D01*
X9360000Y-6410000D01*
X9420000Y-6470000D01*
X9770000Y-6470000D02*
X9830000Y-6410000D01*
X9770000Y-6350000D01*
X9710000Y-6410000D01*
X9770000Y-6470000D01*
X10120000Y-6470000D02*
X10180000Y-6410000D01*
X10120000Y-6350000D01*
X10060000Y-6410000D01*
X10120000Y-6470000D01*
X10470000Y-6470000D02*
X10530000Y-6410000D01*
X10470000Y-6350000D01*
X10410000Y-6410000D01*
X10470000Y-6470000D01*
X10820000Y-6470000D02*
X10880000Y-6410000D01*
X10820000Y-6350000D01*
X10760000Y-6410000D01*
X10820000Y-6470000D01*
X11170000Y-6470000D02*
X11230000Y-6410000D01*
X11170000Y-6350000D01*
X11110000Y-6410000D01*
X11170000Y-6470000D01*
X11520000Y-6470000D02*
X11580000Y-6410000D01*
X11520000Y-6350000D01*
X11460000Y-6410000D01*
X11520000Y-6470000D01*
X11870000Y-6470000D02*
X11930000Y-6410000D01*
X11870000Y-6350000D01*
X11810000Y-6410000D01*
X11870000Y-6470000D01*
X12220000Y-6470000D02*
X12280000Y-6410000D01*
X12220000Y-6350000D01*
X12160000Y-6410000D01*
X12220000Y-6470000D01*
D14*
X8315000Y-6315000D02*
X8845000Y-6845000D01*
X8845000Y-6315000D02*
X8315000Y-6845000D01*
X8845000Y-6580000D02*
G75*
G02*
X8315000Y-6580000I-265000J0D01*
G01*
X8315000Y-6580000D02*
G75*
G02*
X8845000Y-6580000I265000J0D01*
G01*
X11655000Y-11655000D02*
X12185000Y-12185000D01*
X12185000Y-11655000D02*
X11655000Y-12185000D01*
X12185000Y-11920000D02*
G75*
G02*
X11655000Y-11920000I-265000J0D01*
G01*
X11655000Y-11920000D02*
G75*
G02*
X12185000Y-11920000I265000J0D01*
G01*
D11*
X8255777Y-12816484D02*
X8255777Y-12616484D01*
X8255777Y-12616484D02*
X8303396Y-12616484D01*
X8303396Y-12616484D02*
X8331967Y-12626008D01*
X8331967Y-12626008D02*
X8351015Y-12645055D01*
X8351015Y-12645055D02*
X8360539Y-12664103D01*
X8360539Y-12664103D02*
X8370062Y-12702198D01*
X8370062Y-12702198D02*
X8370062Y-12730769D01*
X8370062Y-12730769D02*
X8360539Y-12768865D01*
X8360539Y-12768865D02*
X8351015Y-12787912D01*
X8351015Y-12787912D02*
X8331967Y-12806960D01*
X8331967Y-12806960D02*
X8303396Y-12816484D01*
X8303396Y-12816484D02*
X8255777Y-12816484D01*
X8455777Y-12816484D02*
X8455777Y-12683150D01*
X8455777Y-12721246D02*
X8465301Y-12702198D01*
X8465301Y-12702198D02*
X8474824Y-12692674D01*
X8474824Y-12692674D02*
X8493872Y-12683150D01*
X8493872Y-12683150D02*
X8512920Y-12683150D01*
X8579586Y-12816484D02*
X8579586Y-12683150D01*
X8579586Y-12616484D02*
X8570063Y-12626008D01*
X8570063Y-12626008D02*
X8579586Y-12635531D01*
X8579586Y-12635531D02*
X8589110Y-12626008D01*
X8589110Y-12626008D02*
X8579586Y-12616484D01*
X8579586Y-12616484D02*
X8579586Y-12635531D01*
X8703396Y-12816484D02*
X8684348Y-12806960D01*
X8684348Y-12806960D02*
X8674824Y-12787912D01*
X8674824Y-12787912D02*
X8674824Y-12616484D01*
X8808158Y-12816484D02*
X8789110Y-12806960D01*
X8789110Y-12806960D02*
X8779586Y-12787912D01*
X8779586Y-12787912D02*
X8779586Y-12616484D01*
X9036729Y-12816484D02*
X9036729Y-12616484D01*
X9036729Y-12616484D02*
X9103396Y-12759341D01*
X9103396Y-12759341D02*
X9170063Y-12616484D01*
X9170063Y-12616484D02*
X9170063Y-12816484D01*
X9351015Y-12816484D02*
X9351015Y-12711722D01*
X9351015Y-12711722D02*
X9341491Y-12692674D01*
X9341491Y-12692674D02*
X9322444Y-12683150D01*
X9322444Y-12683150D02*
X9284348Y-12683150D01*
X9284348Y-12683150D02*
X9265301Y-12692674D01*
X9351015Y-12806960D02*
X9331967Y-12816484D01*
X9331967Y-12816484D02*
X9284348Y-12816484D01*
X9284348Y-12816484D02*
X9265301Y-12806960D01*
X9265301Y-12806960D02*
X9255777Y-12787912D01*
X9255777Y-12787912D02*
X9255777Y-12768865D01*
X9255777Y-12768865D02*
X9265301Y-12749817D01*
X9265301Y-12749817D02*
X9284348Y-12740293D01*
X9284348Y-12740293D02*
X9331967Y-12740293D01*
X9331967Y-12740293D02*
X9351015Y-12730769D01*
X9446253Y-12683150D02*
X9446253Y-12883150D01*
X9446253Y-12692674D02*
X9465301Y-12683150D01*
X9465301Y-12683150D02*
X9503396Y-12683150D01*
X9503396Y-12683150D02*
X9522444Y-12692674D01*
X9522444Y-12692674D02*
X9531967Y-12702198D01*
X9531967Y-12702198D02*
X9541491Y-12721246D01*
X9541491Y-12721246D02*
X9541491Y-12778388D01*
X9541491Y-12778388D02*
X9531967Y-12797436D01*
X9531967Y-12797436D02*
X9522444Y-12806960D01*
X9522444Y-12806960D02*
X9503396Y-12816484D01*
X9503396Y-12816484D02*
X9465301Y-12816484D01*
X9465301Y-12816484D02*
X9446253Y-12806960D01*
X9627205Y-12797436D02*
X9636729Y-12806960D01*
X9636729Y-12806960D02*
X9627205Y-12816484D01*
X9627205Y-12816484D02*
X9617682Y-12806960D01*
X9617682Y-12806960D02*
X9627205Y-12797436D01*
X9627205Y-12797436D02*
X9627205Y-12816484D01*
X9627205Y-12692674D02*
X9636729Y-12702198D01*
X9636729Y-12702198D02*
X9627205Y-12711722D01*
X9627205Y-12711722D02*
X9617682Y-12702198D01*
X9617682Y-12702198D02*
X9627205Y-12692674D01*
X9627205Y-12692674D02*
X9627205Y-12711722D01*
D10*
X7915000Y-13105000D02*
X7995000Y-13185000D01*
X7995000Y-13105000D02*
X7915000Y-13185000D01*
D11*
X8293872Y-13036484D02*
X8312920Y-13036484D01*
X8312920Y-13036484D02*
X8331967Y-13046008D01*
X8331967Y-13046008D02*
X8341491Y-13055531D01*
X8341491Y-13055531D02*
X8351015Y-13074579D01*
X8351015Y-13074579D02*
X8360539Y-13112674D01*
X8360539Y-13112674D02*
X8360539Y-13160293D01*
X8360539Y-13160293D02*
X8351015Y-13198388D01*
X8351015Y-13198388D02*
X8341491Y-13217436D01*
X8341491Y-13217436D02*
X8331967Y-13226960D01*
X8331967Y-13226960D02*
X8312920Y-13236484D01*
X8312920Y-13236484D02*
X8293872Y-13236484D01*
X8293872Y-13236484D02*
X8274824Y-13226960D01*
X8274824Y-13226960D02*
X8265301Y-13217436D01*
X8265301Y-13217436D02*
X8255777Y-13198388D01*
X8255777Y-13198388D02*
X8246253Y-13160293D01*
X8246253Y-13160293D02*
X8246253Y-13112674D01*
X8246253Y-13112674D02*
X8255777Y-13074579D01*
X8255777Y-13074579D02*
X8265301Y-13055531D01*
X8265301Y-13055531D02*
X8274824Y-13046008D01*
X8274824Y-13046008D02*
X8293872Y-13036484D01*
X8446253Y-13217436D02*
X8455777Y-13226960D01*
X8455777Y-13226960D02*
X8446253Y-13236484D01*
X8446253Y-13236484D02*
X8436729Y-13226960D01*
X8436729Y-13226960D02*
X8446253Y-13217436D01*
X8446253Y-13217436D02*
X8446253Y-13236484D01*
X8570063Y-13122198D02*
X8551015Y-13112674D01*
X8551015Y-13112674D02*
X8541491Y-13103150D01*
X8541491Y-13103150D02*
X8531967Y-13084103D01*
X8531967Y-13084103D02*
X8531967Y-13074579D01*
X8531967Y-13074579D02*
X8541491Y-13055531D01*
X8541491Y-13055531D02*
X8551015Y-13046008D01*
X8551015Y-13046008D02*
X8570063Y-13036484D01*
X8570063Y-13036484D02*
X8608158Y-13036484D01*
X8608158Y-13036484D02*
X8627205Y-13046008D01*
X8627205Y-13046008D02*
X8636729Y-13055531D01*
X8636729Y-13055531D02*
X8646253Y-13074579D01*
X8646253Y-13074579D02*
X8646253Y-13084103D01*
X8646253Y-13084103D02*
X8636729Y-13103150D01*
X8636729Y-13103150D02*
X8627205Y-13112674D01*
X8627205Y-13112674D02*
X8608158Y-13122198D01*
X8608158Y-13122198D02*
X8570063Y-13122198D01*
X8570063Y-13122198D02*
X8551015Y-13131722D01*
X8551015Y-13131722D02*
X8541491Y-13141246D01*
X8541491Y-13141246D02*
X8531967Y-13160293D01*
X8531967Y-13160293D02*
X8531967Y-13198388D01*
X8531967Y-13198388D02*
X8541491Y-13217436D01*
X8541491Y-13217436D02*
X8551015Y-13226960D01*
X8551015Y-13226960D02*
X8570063Y-13236484D01*
X8570063Y-13236484D02*
X8608158Y-13236484D01*
X8608158Y-13236484D02*
X8627205Y-13226960D01*
X8627205Y-13226960D02*
X8636729Y-13217436D01*
X8636729Y-13217436D02*
X8646253Y-13198388D01*
X8646253Y-13198388D02*
X8646253Y-13160293D01*
X8646253Y-13160293D02*
X8636729Y-13141246D01*
X8636729Y-13141246D02*
X8627205Y-13131722D01*
X8627205Y-13131722D02*
X8608158Y-13122198D01*
X8770063Y-13036484D02*
X8789110Y-13036484D01*
X8789110Y-13036484D02*
X8808158Y-13046008D01*
X8808158Y-13046008D02*
X8817682Y-13055531D01*
X8817682Y-13055531D02*
X8827205Y-13074579D01*
X8827205Y-13074579D02*
X8836729Y-13112674D01*
X8836729Y-13112674D02*
X8836729Y-13160293D01*
X8836729Y-13160293D02*
X8827205Y-13198388D01*
X8827205Y-13198388D02*
X8817682Y-13217436D01*
X8817682Y-13217436D02*
X8808158Y-13226960D01*
X8808158Y-13226960D02*
X8789110Y-13236484D01*
X8789110Y-13236484D02*
X8770063Y-13236484D01*
X8770063Y-13236484D02*
X8751015Y-13226960D01*
X8751015Y-13226960D02*
X8741491Y-13217436D01*
X8741491Y-13217436D02*
X8731967Y-13198388D01*
X8731967Y-13198388D02*
X8722444Y-13160293D01*
X8722444Y-13160293D02*
X8722444Y-13112674D01*
X8722444Y-13112674D02*
X8731967Y-13074579D01*
X8731967Y-13074579D02*
X8741491Y-13055531D01*
X8741491Y-13055531D02*
X8751015Y-13046008D01*
X8751015Y-13046008D02*
X8770063Y-13036484D01*
X8960539Y-13036484D02*
X8979586Y-13036484D01*
X8979586Y-13036484D02*
X8998634Y-13046008D01*
X8998634Y-13046008D02*
X9008158Y-13055531D01*
X9008158Y-13055531D02*
X9017682Y-13074579D01*
X9017682Y-13074579D02*
X9027205Y-13112674D01*
X9027205Y-13112674D02*
X9027205Y-13160293D01*
X9027205Y-13160293D02*
X9017682Y-13198388D01*
X9017682Y-13198388D02*
X9008158Y-13217436D01*
X9008158Y-13217436D02*
X8998634Y-13226960D01*
X8998634Y-13226960D02*
X8979586Y-13236484D01*
X8979586Y-13236484D02*
X8960539Y-13236484D01*
X8960539Y-13236484D02*
X8941491Y-13226960D01*
X8941491Y-13226960D02*
X8931967Y-13217436D01*
X8931967Y-13217436D02*
X8922444Y-13198388D01*
X8922444Y-13198388D02*
X8912920Y-13160293D01*
X8912920Y-13160293D02*
X8912920Y-13112674D01*
X8912920Y-13112674D02*
X8922444Y-13074579D01*
X8922444Y-13074579D02*
X8931967Y-13055531D01*
X8931967Y-13055531D02*
X8941491Y-13046008D01*
X8941491Y-13046008D02*
X8960539Y-13036484D01*
X9112920Y-13236484D02*
X9112920Y-13103150D01*
X9112920Y-13122198D02*
X9122444Y-13112674D01*
X9122444Y-13112674D02*
X9141491Y-13103150D01*
X9141491Y-13103150D02*
X9170063Y-13103150D01*
X9170063Y-13103150D02*
X9189110Y-13112674D01*
X9189110Y-13112674D02*
X9198634Y-13131722D01*
X9198634Y-13131722D02*
X9198634Y-13236484D01*
X9198634Y-13131722D02*
X9208158Y-13112674D01*
X9208158Y-13112674D02*
X9227205Y-13103150D01*
X9227205Y-13103150D02*
X9255777Y-13103150D01*
X9255777Y-13103150D02*
X9274825Y-13112674D01*
X9274825Y-13112674D02*
X9284348Y-13131722D01*
X9284348Y-13131722D02*
X9284348Y-13236484D01*
X9379586Y-13236484D02*
X9379586Y-13103150D01*
X9379586Y-13122198D02*
X9389110Y-13112674D01*
X9389110Y-13112674D02*
X9408158Y-13103150D01*
X9408158Y-13103150D02*
X9436729Y-13103150D01*
X9436729Y-13103150D02*
X9455777Y-13112674D01*
X9455777Y-13112674D02*
X9465301Y-13131722D01*
X9465301Y-13131722D02*
X9465301Y-13236484D01*
X9465301Y-13131722D02*
X9474825Y-13112674D01*
X9474825Y-13112674D02*
X9493872Y-13103150D01*
X9493872Y-13103150D02*
X9522444Y-13103150D01*
X9522444Y-13103150D02*
X9541491Y-13112674D01*
X9541491Y-13112674D02*
X9551015Y-13131722D01*
X9551015Y-13131722D02*
X9551015Y-13236484D01*
X9941491Y-13026960D02*
X9770063Y-13284103D01*
X10198634Y-13036484D02*
X10217682Y-13036484D01*
X10217682Y-13036484D02*
X10236729Y-13046008D01*
X10236729Y-13046008D02*
X10246253Y-13055531D01*
X10246253Y-13055531D02*
X10255777Y-13074579D01*
X10255777Y-13074579D02*
X10265301Y-13112674D01*
X10265301Y-13112674D02*
X10265301Y-13160293D01*
X10265301Y-13160293D02*
X10255777Y-13198388D01*
X10255777Y-13198388D02*
X10246253Y-13217436D01*
X10246253Y-13217436D02*
X10236729Y-13226960D01*
X10236729Y-13226960D02*
X10217682Y-13236484D01*
X10217682Y-13236484D02*
X10198634Y-13236484D01*
X10198634Y-13236484D02*
X10179587Y-13226960D01*
X10179587Y-13226960D02*
X10170063Y-13217436D01*
X10170063Y-13217436D02*
X10160539Y-13198388D01*
X10160539Y-13198388D02*
X10151015Y-13160293D01*
X10151015Y-13160293D02*
X10151015Y-13112674D01*
X10151015Y-13112674D02*
X10160539Y-13074579D01*
X10160539Y-13074579D02*
X10170063Y-13055531D01*
X10170063Y-13055531D02*
X10179587Y-13046008D01*
X10179587Y-13046008D02*
X10198634Y-13036484D01*
X10351015Y-13217436D02*
X10360539Y-13226960D01*
X10360539Y-13226960D02*
X10351015Y-13236484D01*
X10351015Y-13236484D02*
X10341491Y-13226960D01*
X10341491Y-13226960D02*
X10351015Y-13217436D01*
X10351015Y-13217436D02*
X10351015Y-13236484D01*
X10484348Y-13036484D02*
X10503396Y-13036484D01*
X10503396Y-13036484D02*
X10522444Y-13046008D01*
X10522444Y-13046008D02*
X10531968Y-13055531D01*
X10531968Y-13055531D02*
X10541491Y-13074579D01*
X10541491Y-13074579D02*
X10551015Y-13112674D01*
X10551015Y-13112674D02*
X10551015Y-13160293D01*
X10551015Y-13160293D02*
X10541491Y-13198388D01*
X10541491Y-13198388D02*
X10531968Y-13217436D01*
X10531968Y-13217436D02*
X10522444Y-13226960D01*
X10522444Y-13226960D02*
X10503396Y-13236484D01*
X10503396Y-13236484D02*
X10484348Y-13236484D01*
X10484348Y-13236484D02*
X10465301Y-13226960D01*
X10465301Y-13226960D02*
X10455777Y-13217436D01*
X10455777Y-13217436D02*
X10446253Y-13198388D01*
X10446253Y-13198388D02*
X10436729Y-13160293D01*
X10436729Y-13160293D02*
X10436729Y-13112674D01*
X10436729Y-13112674D02*
X10446253Y-13074579D01*
X10446253Y-13074579D02*
X10455777Y-13055531D01*
X10455777Y-13055531D02*
X10465301Y-13046008D01*
X10465301Y-13046008D02*
X10484348Y-13036484D01*
X10617682Y-13036484D02*
X10741491Y-13036484D01*
X10741491Y-13036484D02*
X10674825Y-13112674D01*
X10674825Y-13112674D02*
X10703396Y-13112674D01*
X10703396Y-13112674D02*
X10722444Y-13122198D01*
X10722444Y-13122198D02*
X10731968Y-13131722D01*
X10731968Y-13131722D02*
X10741491Y-13150769D01*
X10741491Y-13150769D02*
X10741491Y-13198388D01*
X10741491Y-13198388D02*
X10731968Y-13217436D01*
X10731968Y-13217436D02*
X10722444Y-13226960D01*
X10722444Y-13226960D02*
X10703396Y-13236484D01*
X10703396Y-13236484D02*
X10646253Y-13236484D01*
X10646253Y-13236484D02*
X10627206Y-13226960D01*
X10627206Y-13226960D02*
X10617682Y-13217436D01*
X10931968Y-13236484D02*
X10817682Y-13236484D01*
X10874825Y-13236484D02*
X10874825Y-13036484D01*
X10874825Y-13036484D02*
X10855777Y-13065055D01*
X10855777Y-13065055D02*
X10836729Y-13084103D01*
X10836729Y-13084103D02*
X10817682Y-13093627D01*
X11112920Y-13036484D02*
X11017682Y-13036484D01*
X11017682Y-13036484D02*
X11008158Y-13131722D01*
X11008158Y-13131722D02*
X11017682Y-13122198D01*
X11017682Y-13122198D02*
X11036729Y-13112674D01*
X11036729Y-13112674D02*
X11084349Y-13112674D01*
X11084349Y-13112674D02*
X11103396Y-13122198D01*
X11103396Y-13122198D02*
X11112920Y-13131722D01*
X11112920Y-13131722D02*
X11122444Y-13150769D01*
X11122444Y-13150769D02*
X11122444Y-13198388D01*
X11122444Y-13198388D02*
X11112920Y-13217436D01*
X11112920Y-13217436D02*
X11103396Y-13226960D01*
X11103396Y-13226960D02*
X11084349Y-13236484D01*
X11084349Y-13236484D02*
X11036729Y-13236484D01*
X11036729Y-13236484D02*
X11017682Y-13226960D01*
X11017682Y-13226960D02*
X11008158Y-13217436D01*
X11198634Y-13036484D02*
X11198634Y-13074579D01*
X11274825Y-13036484D02*
X11274825Y-13074579D01*
X11570063Y-13312674D02*
X11560539Y-13303150D01*
X11560539Y-13303150D02*
X11541491Y-13274579D01*
X11541491Y-13274579D02*
X11531968Y-13255531D01*
X11531968Y-13255531D02*
X11522444Y-13226960D01*
X11522444Y-13226960D02*
X11512920Y-13179341D01*
X11512920Y-13179341D02*
X11512920Y-13141246D01*
X11512920Y-13141246D02*
X11522444Y-13093627D01*
X11522444Y-13093627D02*
X11531968Y-13065055D01*
X11531968Y-13065055D02*
X11541491Y-13046008D01*
X11541491Y-13046008D02*
X11560539Y-13017436D01*
X11560539Y-13017436D02*
X11570063Y-13007912D01*
X11731968Y-13103150D02*
X11731968Y-13236484D01*
X11684348Y-13026960D02*
X11636729Y-13169817D01*
X11636729Y-13169817D02*
X11760539Y-13169817D01*
X11922444Y-13036484D02*
X11884348Y-13036484D01*
X11884348Y-13036484D02*
X11865301Y-13046008D01*
X11865301Y-13046008D02*
X11855777Y-13055531D01*
X11855777Y-13055531D02*
X11836729Y-13084103D01*
X11836729Y-13084103D02*
X11827206Y-13122198D01*
X11827206Y-13122198D02*
X11827206Y-13198388D01*
X11827206Y-13198388D02*
X11836729Y-13217436D01*
X11836729Y-13217436D02*
X11846253Y-13226960D01*
X11846253Y-13226960D02*
X11865301Y-13236484D01*
X11865301Y-13236484D02*
X11903396Y-13236484D01*
X11903396Y-13236484D02*
X11922444Y-13226960D01*
X11922444Y-13226960D02*
X11931968Y-13217436D01*
X11931968Y-13217436D02*
X11941491Y-13198388D01*
X11941491Y-13198388D02*
X11941491Y-13150769D01*
X11941491Y-13150769D02*
X11931968Y-13131722D01*
X11931968Y-13131722D02*
X11922444Y-13122198D01*
X11922444Y-13122198D02*
X11903396Y-13112674D01*
X11903396Y-13112674D02*
X11865301Y-13112674D01*
X11865301Y-13112674D02*
X11846253Y-13122198D01*
X11846253Y-13122198D02*
X11836729Y-13131722D01*
X11836729Y-13131722D02*
X11827206Y-13150769D01*
X12179587Y-13236484D02*
X12179587Y-13036484D01*
X12265301Y-13236484D02*
X12265301Y-13131722D01*
X12265301Y-13131722D02*
X12255777Y-13112674D01*
X12255777Y-13112674D02*
X12236730Y-13103150D01*
X12236730Y-13103150D02*
X12208158Y-13103150D01*
X12208158Y-13103150D02*
X12189110Y-13112674D01*
X12189110Y-13112674D02*
X12179587Y-13122198D01*
X12389110Y-13236484D02*
X12370063Y-13226960D01*
X12370063Y-13226960D02*
X12360539Y-13217436D01*
X12360539Y-13217436D02*
X12351015Y-13198388D01*
X12351015Y-13198388D02*
X12351015Y-13141246D01*
X12351015Y-13141246D02*
X12360539Y-13122198D01*
X12360539Y-13122198D02*
X12370063Y-13112674D01*
X12370063Y-13112674D02*
X12389110Y-13103150D01*
X12389110Y-13103150D02*
X12417682Y-13103150D01*
X12417682Y-13103150D02*
X12436730Y-13112674D01*
X12436730Y-13112674D02*
X12446253Y-13122198D01*
X12446253Y-13122198D02*
X12455777Y-13141246D01*
X12455777Y-13141246D02*
X12455777Y-13198388D01*
X12455777Y-13198388D02*
X12446253Y-13217436D01*
X12446253Y-13217436D02*
X12436730Y-13226960D01*
X12436730Y-13226960D02*
X12417682Y-13236484D01*
X12417682Y-13236484D02*
X12389110Y-13236484D01*
X12570063Y-13236484D02*
X12551015Y-13226960D01*
X12551015Y-13226960D02*
X12541491Y-13207912D01*
X12541491Y-13207912D02*
X12541491Y-13036484D01*
X12722444Y-13226960D02*
X12703396Y-13236484D01*
X12703396Y-13236484D02*
X12665301Y-13236484D01*
X12665301Y-13236484D02*
X12646253Y-13226960D01*
X12646253Y-13226960D02*
X12636730Y-13207912D01*
X12636730Y-13207912D02*
X12636730Y-13131722D01*
X12636730Y-13131722D02*
X12646253Y-13112674D01*
X12646253Y-13112674D02*
X12665301Y-13103150D01*
X12665301Y-13103150D02*
X12703396Y-13103150D01*
X12703396Y-13103150D02*
X12722444Y-13112674D01*
X12722444Y-13112674D02*
X12731968Y-13131722D01*
X12731968Y-13131722D02*
X12731968Y-13150769D01*
X12731968Y-13150769D02*
X12636730Y-13169817D01*
X12808158Y-13226960D02*
X12827206Y-13236484D01*
X12827206Y-13236484D02*
X12865301Y-13236484D01*
X12865301Y-13236484D02*
X12884349Y-13226960D01*
X12884349Y-13226960D02*
X12893872Y-13207912D01*
X12893872Y-13207912D02*
X12893872Y-13198388D01*
X12893872Y-13198388D02*
X12884349Y-13179341D01*
X12884349Y-13179341D02*
X12865301Y-13169817D01*
X12865301Y-13169817D02*
X12836730Y-13169817D01*
X12836730Y-13169817D02*
X12817682Y-13160293D01*
X12817682Y-13160293D02*
X12808158Y-13141246D01*
X12808158Y-13141246D02*
X12808158Y-13131722D01*
X12808158Y-13131722D02*
X12817682Y-13112674D01*
X12817682Y-13112674D02*
X12836730Y-13103150D01*
X12836730Y-13103150D02*
X12865301Y-13103150D01*
X12865301Y-13103150D02*
X12884349Y-13112674D01*
X12960539Y-13312674D02*
X12970063Y-13303150D01*
X12970063Y-13303150D02*
X12989111Y-13274579D01*
X12989111Y-13274579D02*
X12998634Y-13255531D01*
X12998634Y-13255531D02*
X13008158Y-13226960D01*
X13008158Y-13226960D02*
X13017682Y-13179341D01*
X13017682Y-13179341D02*
X13017682Y-13141246D01*
X13017682Y-13141246D02*
X13008158Y-13093627D01*
X13008158Y-13093627D02*
X12998634Y-13065055D01*
X12998634Y-13065055D02*
X12989111Y-13046008D01*
X12989111Y-13046008D02*
X12970063Y-13017436D01*
X12970063Y-13017436D02*
X12960539Y-13007912D01*
D10*
X7995000Y-13409000D02*
G75*
G02*
X7905000Y-13409000I-45000J0D01*
G01*
X7905000Y-13409000D02*
G75*
G02*
X7995000Y-13409000I45000J0D01*
G01*
D11*
X8293872Y-13300484D02*
X8312920Y-13300484D01*
X8312920Y-13300484D02*
X8331967Y-13310008D01*
X8331967Y-13310008D02*
X8341491Y-13319531D01*
X8341491Y-13319531D02*
X8351015Y-13338579D01*
X8351015Y-13338579D02*
X8360539Y-13376674D01*
X8360539Y-13376674D02*
X8360539Y-13424293D01*
X8360539Y-13424293D02*
X8351015Y-13462388D01*
X8351015Y-13462388D02*
X8341491Y-13481436D01*
X8341491Y-13481436D02*
X8331967Y-13490960D01*
X8331967Y-13490960D02*
X8312920Y-13500484D01*
X8312920Y-13500484D02*
X8293872Y-13500484D01*
X8293872Y-13500484D02*
X8274824Y-13490960D01*
X8274824Y-13490960D02*
X8265301Y-13481436D01*
X8265301Y-13481436D02*
X8255777Y-13462388D01*
X8255777Y-13462388D02*
X8246253Y-13424293D01*
X8246253Y-13424293D02*
X8246253Y-13376674D01*
X8246253Y-13376674D02*
X8255777Y-13338579D01*
X8255777Y-13338579D02*
X8265301Y-13319531D01*
X8265301Y-13319531D02*
X8274824Y-13310008D01*
X8274824Y-13310008D02*
X8293872Y-13300484D01*
X8446253Y-13481436D02*
X8455777Y-13490960D01*
X8455777Y-13490960D02*
X8446253Y-13500484D01*
X8446253Y-13500484D02*
X8436729Y-13490960D01*
X8436729Y-13490960D02*
X8446253Y-13481436D01*
X8446253Y-13481436D02*
X8446253Y-13500484D01*
X8551015Y-13500484D02*
X8589110Y-13500484D01*
X8589110Y-13500484D02*
X8608158Y-13490960D01*
X8608158Y-13490960D02*
X8617682Y-13481436D01*
X8617682Y-13481436D02*
X8636729Y-13452865D01*
X8636729Y-13452865D02*
X8646253Y-13414769D01*
X8646253Y-13414769D02*
X8646253Y-13338579D01*
X8646253Y-13338579D02*
X8636729Y-13319531D01*
X8636729Y-13319531D02*
X8627205Y-13310008D01*
X8627205Y-13310008D02*
X8608158Y-13300484D01*
X8608158Y-13300484D02*
X8570063Y-13300484D01*
X8570063Y-13300484D02*
X8551015Y-13310008D01*
X8551015Y-13310008D02*
X8541491Y-13319531D01*
X8541491Y-13319531D02*
X8531967Y-13338579D01*
X8531967Y-13338579D02*
X8531967Y-13386198D01*
X8531967Y-13386198D02*
X8541491Y-13405246D01*
X8541491Y-13405246D02*
X8551015Y-13414769D01*
X8551015Y-13414769D02*
X8570063Y-13424293D01*
X8570063Y-13424293D02*
X8608158Y-13424293D01*
X8608158Y-13424293D02*
X8627205Y-13414769D01*
X8627205Y-13414769D02*
X8636729Y-13405246D01*
X8636729Y-13405246D02*
X8646253Y-13386198D01*
X8770063Y-13300484D02*
X8789110Y-13300484D01*
X8789110Y-13300484D02*
X8808158Y-13310008D01*
X8808158Y-13310008D02*
X8817682Y-13319531D01*
X8817682Y-13319531D02*
X8827205Y-13338579D01*
X8827205Y-13338579D02*
X8836729Y-13376674D01*
X8836729Y-13376674D02*
X8836729Y-13424293D01*
X8836729Y-13424293D02*
X8827205Y-13462388D01*
X8827205Y-13462388D02*
X8817682Y-13481436D01*
X8817682Y-13481436D02*
X8808158Y-13490960D01*
X8808158Y-13490960D02*
X8789110Y-13500484D01*
X8789110Y-13500484D02*
X8770063Y-13500484D01*
X8770063Y-13500484D02*
X8751015Y-13490960D01*
X8751015Y-13490960D02*
X8741491Y-13481436D01*
X8741491Y-13481436D02*
X8731967Y-13462388D01*
X8731967Y-13462388D02*
X8722444Y-13424293D01*
X8722444Y-13424293D02*
X8722444Y-13376674D01*
X8722444Y-13376674D02*
X8731967Y-13338579D01*
X8731967Y-13338579D02*
X8741491Y-13319531D01*
X8741491Y-13319531D02*
X8751015Y-13310008D01*
X8751015Y-13310008D02*
X8770063Y-13300484D01*
X8960539Y-13300484D02*
X8979586Y-13300484D01*
X8979586Y-13300484D02*
X8998634Y-13310008D01*
X8998634Y-13310008D02*
X9008158Y-13319531D01*
X9008158Y-13319531D02*
X9017682Y-13338579D01*
X9017682Y-13338579D02*
X9027205Y-13376674D01*
X9027205Y-13376674D02*
X9027205Y-13424293D01*
X9027205Y-13424293D02*
X9017682Y-13462388D01*
X9017682Y-13462388D02*
X9008158Y-13481436D01*
X9008158Y-13481436D02*
X8998634Y-13490960D01*
X8998634Y-13490960D02*
X8979586Y-13500484D01*
X8979586Y-13500484D02*
X8960539Y-13500484D01*
X8960539Y-13500484D02*
X8941491Y-13490960D01*
X8941491Y-13490960D02*
X8931967Y-13481436D01*
X8931967Y-13481436D02*
X8922444Y-13462388D01*
X8922444Y-13462388D02*
X8912920Y-13424293D01*
X8912920Y-13424293D02*
X8912920Y-13376674D01*
X8912920Y-13376674D02*
X8922444Y-13338579D01*
X8922444Y-13338579D02*
X8931967Y-13319531D01*
X8931967Y-13319531D02*
X8941491Y-13310008D01*
X8941491Y-13310008D02*
X8960539Y-13300484D01*
X9112920Y-13500484D02*
X9112920Y-13367150D01*
X9112920Y-13386198D02*
X9122444Y-13376674D01*
X9122444Y-13376674D02*
X9141491Y-13367150D01*
X9141491Y-13367150D02*
X9170063Y-13367150D01*
X9170063Y-13367150D02*
X9189110Y-13376674D01*
X9189110Y-13376674D02*
X9198634Y-13395722D01*
X9198634Y-13395722D02*
X9198634Y-13500484D01*
X9198634Y-13395722D02*
X9208158Y-13376674D01*
X9208158Y-13376674D02*
X9227205Y-13367150D01*
X9227205Y-13367150D02*
X9255777Y-13367150D01*
X9255777Y-13367150D02*
X9274825Y-13376674D01*
X9274825Y-13376674D02*
X9284348Y-13395722D01*
X9284348Y-13395722D02*
X9284348Y-13500484D01*
X9379586Y-13500484D02*
X9379586Y-13367150D01*
X9379586Y-13386198D02*
X9389110Y-13376674D01*
X9389110Y-13376674D02*
X9408158Y-13367150D01*
X9408158Y-13367150D02*
X9436729Y-13367150D01*
X9436729Y-13367150D02*
X9455777Y-13376674D01*
X9455777Y-13376674D02*
X9465301Y-13395722D01*
X9465301Y-13395722D02*
X9465301Y-13500484D01*
X9465301Y-13395722D02*
X9474825Y-13376674D01*
X9474825Y-13376674D02*
X9493872Y-13367150D01*
X9493872Y-13367150D02*
X9522444Y-13367150D01*
X9522444Y-13367150D02*
X9541491Y-13376674D01*
X9541491Y-13376674D02*
X9551015Y-13395722D01*
X9551015Y-13395722D02*
X9551015Y-13500484D01*
X9941491Y-13290960D02*
X9770063Y-13548103D01*
X10198634Y-13300484D02*
X10217682Y-13300484D01*
X10217682Y-13300484D02*
X10236729Y-13310008D01*
X10236729Y-13310008D02*
X10246253Y-13319531D01*
X10246253Y-13319531D02*
X10255777Y-13338579D01*
X10255777Y-13338579D02*
X10265301Y-13376674D01*
X10265301Y-13376674D02*
X10265301Y-13424293D01*
X10265301Y-13424293D02*
X10255777Y-13462388D01*
X10255777Y-13462388D02*
X10246253Y-13481436D01*
X10246253Y-13481436D02*
X10236729Y-13490960D01*
X10236729Y-13490960D02*
X10217682Y-13500484D01*
X10217682Y-13500484D02*
X10198634Y-13500484D01*
X10198634Y-13500484D02*
X10179587Y-13490960D01*
X10179587Y-13490960D02*
X10170063Y-13481436D01*
X10170063Y-13481436D02*
X10160539Y-13462388D01*
X10160539Y-13462388D02*
X10151015Y-13424293D01*
X10151015Y-13424293D02*
X10151015Y-13376674D01*
X10151015Y-13376674D02*
X10160539Y-13338579D01*
X10160539Y-13338579D02*
X10170063Y-13319531D01*
X10170063Y-13319531D02*
X10179587Y-13310008D01*
X10179587Y-13310008D02*
X10198634Y-13300484D01*
X10351015Y-13481436D02*
X10360539Y-13490960D01*
X10360539Y-13490960D02*
X10351015Y-13500484D01*
X10351015Y-13500484D02*
X10341491Y-13490960D01*
X10341491Y-13490960D02*
X10351015Y-13481436D01*
X10351015Y-13481436D02*
X10351015Y-13500484D01*
X10484348Y-13300484D02*
X10503396Y-13300484D01*
X10503396Y-13300484D02*
X10522444Y-13310008D01*
X10522444Y-13310008D02*
X10531968Y-13319531D01*
X10531968Y-13319531D02*
X10541491Y-13338579D01*
X10541491Y-13338579D02*
X10551015Y-13376674D01*
X10551015Y-13376674D02*
X10551015Y-13424293D01*
X10551015Y-13424293D02*
X10541491Y-13462388D01*
X10541491Y-13462388D02*
X10531968Y-13481436D01*
X10531968Y-13481436D02*
X10522444Y-13490960D01*
X10522444Y-13490960D02*
X10503396Y-13500484D01*
X10503396Y-13500484D02*
X10484348Y-13500484D01*
X10484348Y-13500484D02*
X10465301Y-13490960D01*
X10465301Y-13490960D02*
X10455777Y-13481436D01*
X10455777Y-13481436D02*
X10446253Y-13462388D01*
X10446253Y-13462388D02*
X10436729Y-13424293D01*
X10436729Y-13424293D02*
X10436729Y-13376674D01*
X10436729Y-13376674D02*
X10446253Y-13338579D01*
X10446253Y-13338579D02*
X10455777Y-13319531D01*
X10455777Y-13319531D02*
X10465301Y-13310008D01*
X10465301Y-13310008D02*
X10484348Y-13300484D01*
X10617682Y-13300484D02*
X10741491Y-13300484D01*
X10741491Y-13300484D02*
X10674825Y-13376674D01*
X10674825Y-13376674D02*
X10703396Y-13376674D01*
X10703396Y-13376674D02*
X10722444Y-13386198D01*
X10722444Y-13386198D02*
X10731968Y-13395722D01*
X10731968Y-13395722D02*
X10741491Y-13414769D01*
X10741491Y-13414769D02*
X10741491Y-13462388D01*
X10741491Y-13462388D02*
X10731968Y-13481436D01*
X10731968Y-13481436D02*
X10722444Y-13490960D01*
X10722444Y-13490960D02*
X10703396Y-13500484D01*
X10703396Y-13500484D02*
X10646253Y-13500484D01*
X10646253Y-13500484D02*
X10627206Y-13490960D01*
X10627206Y-13490960D02*
X10617682Y-13481436D01*
X10922444Y-13300484D02*
X10827206Y-13300484D01*
X10827206Y-13300484D02*
X10817682Y-13395722D01*
X10817682Y-13395722D02*
X10827206Y-13386198D01*
X10827206Y-13386198D02*
X10846253Y-13376674D01*
X10846253Y-13376674D02*
X10893872Y-13376674D01*
X10893872Y-13376674D02*
X10912920Y-13386198D01*
X10912920Y-13386198D02*
X10922444Y-13395722D01*
X10922444Y-13395722D02*
X10931968Y-13414769D01*
X10931968Y-13414769D02*
X10931968Y-13462388D01*
X10931968Y-13462388D02*
X10922444Y-13481436D01*
X10922444Y-13481436D02*
X10912920Y-13490960D01*
X10912920Y-13490960D02*
X10893872Y-13500484D01*
X10893872Y-13500484D02*
X10846253Y-13500484D01*
X10846253Y-13500484D02*
X10827206Y-13490960D01*
X10827206Y-13490960D02*
X10817682Y-13481436D01*
X11103396Y-13367150D02*
X11103396Y-13500484D01*
X11055777Y-13290960D02*
X11008158Y-13433817D01*
X11008158Y-13433817D02*
X11131968Y-13433817D01*
X11198634Y-13300484D02*
X11198634Y-13338579D01*
X11274825Y-13300484D02*
X11274825Y-13338579D01*
X11570063Y-13576674D02*
X11560539Y-13567150D01*
X11560539Y-13567150D02*
X11541491Y-13538579D01*
X11541491Y-13538579D02*
X11531968Y-13519531D01*
X11531968Y-13519531D02*
X11522444Y-13490960D01*
X11522444Y-13490960D02*
X11512920Y-13443341D01*
X11512920Y-13443341D02*
X11512920Y-13405246D01*
X11512920Y-13405246D02*
X11522444Y-13357627D01*
X11522444Y-13357627D02*
X11531968Y-13329055D01*
X11531968Y-13329055D02*
X11541491Y-13310008D01*
X11541491Y-13310008D02*
X11560539Y-13281436D01*
X11560539Y-13281436D02*
X11570063Y-13271912D01*
X11731968Y-13300484D02*
X11693872Y-13300484D01*
X11693872Y-13300484D02*
X11674825Y-13310008D01*
X11674825Y-13310008D02*
X11665301Y-13319531D01*
X11665301Y-13319531D02*
X11646253Y-13348103D01*
X11646253Y-13348103D02*
X11636729Y-13386198D01*
X11636729Y-13386198D02*
X11636729Y-13462388D01*
X11636729Y-13462388D02*
X11646253Y-13481436D01*
X11646253Y-13481436D02*
X11655777Y-13490960D01*
X11655777Y-13490960D02*
X11674825Y-13500484D01*
X11674825Y-13500484D02*
X11712920Y-13500484D01*
X11712920Y-13500484D02*
X11731968Y-13490960D01*
X11731968Y-13490960D02*
X11741491Y-13481436D01*
X11741491Y-13481436D02*
X11751015Y-13462388D01*
X11751015Y-13462388D02*
X11751015Y-13414769D01*
X11751015Y-13414769D02*
X11741491Y-13395722D01*
X11741491Y-13395722D02*
X11731968Y-13386198D01*
X11731968Y-13386198D02*
X11712920Y-13376674D01*
X11712920Y-13376674D02*
X11674825Y-13376674D01*
X11674825Y-13376674D02*
X11655777Y-13386198D01*
X11655777Y-13386198D02*
X11646253Y-13395722D01*
X11646253Y-13395722D02*
X11636729Y-13414769D01*
X11989110Y-13500484D02*
X11989110Y-13300484D01*
X12074825Y-13500484D02*
X12074825Y-13395722D01*
X12074825Y-13395722D02*
X12065301Y-13376674D01*
X12065301Y-13376674D02*
X12046253Y-13367150D01*
X12046253Y-13367150D02*
X12017682Y-13367150D01*
X12017682Y-13367150D02*
X11998634Y-13376674D01*
X11998634Y-13376674D02*
X11989110Y-13386198D01*
X12198634Y-13500484D02*
X12179587Y-13490960D01*
X12179587Y-13490960D02*
X12170063Y-13481436D01*
X12170063Y-13481436D02*
X12160539Y-13462388D01*
X12160539Y-13462388D02*
X12160539Y-13405246D01*
X12160539Y-13405246D02*
X12170063Y-13386198D01*
X12170063Y-13386198D02*
X12179587Y-13376674D01*
X12179587Y-13376674D02*
X12198634Y-13367150D01*
X12198634Y-13367150D02*
X12227206Y-13367150D01*
X12227206Y-13367150D02*
X12246253Y-13376674D01*
X12246253Y-13376674D02*
X12255777Y-13386198D01*
X12255777Y-13386198D02*
X12265301Y-13405246D01*
X12265301Y-13405246D02*
X12265301Y-13462388D01*
X12265301Y-13462388D02*
X12255777Y-13481436D01*
X12255777Y-13481436D02*
X12246253Y-13490960D01*
X12246253Y-13490960D02*
X12227206Y-13500484D01*
X12227206Y-13500484D02*
X12198634Y-13500484D01*
X12379587Y-13500484D02*
X12360539Y-13490960D01*
X12360539Y-13490960D02*
X12351015Y-13471912D01*
X12351015Y-13471912D02*
X12351015Y-13300484D01*
X12531968Y-13490960D02*
X12512920Y-13500484D01*
X12512920Y-13500484D02*
X12474825Y-13500484D01*
X12474825Y-13500484D02*
X12455777Y-13490960D01*
X12455777Y-13490960D02*
X12446253Y-13471912D01*
X12446253Y-13471912D02*
X12446253Y-13395722D01*
X12446253Y-13395722D02*
X12455777Y-13376674D01*
X12455777Y-13376674D02*
X12474825Y-13367150D01*
X12474825Y-13367150D02*
X12512920Y-13367150D01*
X12512920Y-13367150D02*
X12531968Y-13376674D01*
X12531968Y-13376674D02*
X12541491Y-13395722D01*
X12541491Y-13395722D02*
X12541491Y-13414769D01*
X12541491Y-13414769D02*
X12446253Y-13433817D01*
X12617682Y-13490960D02*
X12636730Y-13500484D01*
X12636730Y-13500484D02*
X12674825Y-13500484D01*
X12674825Y-13500484D02*
X12693872Y-13490960D01*
X12693872Y-13490960D02*
X12703396Y-13471912D01*
X12703396Y-13471912D02*
X12703396Y-13462388D01*
X12703396Y-13462388D02*
X12693872Y-13443341D01*
X12693872Y-13443341D02*
X12674825Y-13433817D01*
X12674825Y-13433817D02*
X12646253Y-13433817D01*
X12646253Y-13433817D02*
X12627206Y-13424293D01*
X12627206Y-13424293D02*
X12617682Y-13405246D01*
X12617682Y-13405246D02*
X12617682Y-13395722D01*
X12617682Y-13395722D02*
X12627206Y-13376674D01*
X12627206Y-13376674D02*
X12646253Y-13367150D01*
X12646253Y-13367150D02*
X12674825Y-13367150D01*
X12674825Y-13367150D02*
X12693872Y-13376674D01*
X12770063Y-13576674D02*
X12779587Y-13567150D01*
X12779587Y-13567150D02*
X12798634Y-13538579D01*
X12798634Y-13538579D02*
X12808158Y-13519531D01*
X12808158Y-13519531D02*
X12817682Y-13490960D01*
X12817682Y-13490960D02*
X12827206Y-13443341D01*
X12827206Y-13443341D02*
X12827206Y-13405246D01*
X12827206Y-13405246D02*
X12817682Y-13357627D01*
X12817682Y-13357627D02*
X12808158Y-13329055D01*
X12808158Y-13329055D02*
X12798634Y-13310008D01*
X12798634Y-13310008D02*
X12779587Y-13281436D01*
X12779587Y-13281436D02*
X12770063Y-13271912D01*
D10*
X7945000Y-13623000D02*
X7945000Y-13723000D01*
X7895000Y-13673000D02*
X7995000Y-13673000D01*
D11*
X8360539Y-13764484D02*
X8246253Y-13764484D01*
X8303396Y-13764484D02*
X8303396Y-13564484D01*
X8303396Y-13564484D02*
X8284348Y-13593055D01*
X8284348Y-13593055D02*
X8265301Y-13612103D01*
X8265301Y-13612103D02*
X8246253Y-13621627D01*
X8446253Y-13745436D02*
X8455777Y-13754960D01*
X8455777Y-13754960D02*
X8446253Y-13764484D01*
X8446253Y-13764484D02*
X8436729Y-13754960D01*
X8436729Y-13754960D02*
X8446253Y-13745436D01*
X8446253Y-13745436D02*
X8446253Y-13764484D01*
X8579586Y-13564484D02*
X8598634Y-13564484D01*
X8598634Y-13564484D02*
X8617682Y-13574008D01*
X8617682Y-13574008D02*
X8627205Y-13583531D01*
X8627205Y-13583531D02*
X8636729Y-13602579D01*
X8636729Y-13602579D02*
X8646253Y-13640674D01*
X8646253Y-13640674D02*
X8646253Y-13688293D01*
X8646253Y-13688293D02*
X8636729Y-13726388D01*
X8636729Y-13726388D02*
X8627205Y-13745436D01*
X8627205Y-13745436D02*
X8617682Y-13754960D01*
X8617682Y-13754960D02*
X8598634Y-13764484D01*
X8598634Y-13764484D02*
X8579586Y-13764484D01*
X8579586Y-13764484D02*
X8560539Y-13754960D01*
X8560539Y-13754960D02*
X8551015Y-13745436D01*
X8551015Y-13745436D02*
X8541491Y-13726388D01*
X8541491Y-13726388D02*
X8531967Y-13688293D01*
X8531967Y-13688293D02*
X8531967Y-13640674D01*
X8531967Y-13640674D02*
X8541491Y-13602579D01*
X8541491Y-13602579D02*
X8551015Y-13583531D01*
X8551015Y-13583531D02*
X8560539Y-13574008D01*
X8560539Y-13574008D02*
X8579586Y-13564484D01*
X8770063Y-13564484D02*
X8789110Y-13564484D01*
X8789110Y-13564484D02*
X8808158Y-13574008D01*
X8808158Y-13574008D02*
X8817682Y-13583531D01*
X8817682Y-13583531D02*
X8827205Y-13602579D01*
X8827205Y-13602579D02*
X8836729Y-13640674D01*
X8836729Y-13640674D02*
X8836729Y-13688293D01*
X8836729Y-13688293D02*
X8827205Y-13726388D01*
X8827205Y-13726388D02*
X8817682Y-13745436D01*
X8817682Y-13745436D02*
X8808158Y-13754960D01*
X8808158Y-13754960D02*
X8789110Y-13764484D01*
X8789110Y-13764484D02*
X8770063Y-13764484D01*
X8770063Y-13764484D02*
X8751015Y-13754960D01*
X8751015Y-13754960D02*
X8741491Y-13745436D01*
X8741491Y-13745436D02*
X8731967Y-13726388D01*
X8731967Y-13726388D02*
X8722444Y-13688293D01*
X8722444Y-13688293D02*
X8722444Y-13640674D01*
X8722444Y-13640674D02*
X8731967Y-13602579D01*
X8731967Y-13602579D02*
X8741491Y-13583531D01*
X8741491Y-13583531D02*
X8751015Y-13574008D01*
X8751015Y-13574008D02*
X8770063Y-13564484D01*
X8960539Y-13564484D02*
X8979586Y-13564484D01*
X8979586Y-13564484D02*
X8998634Y-13574008D01*
X8998634Y-13574008D02*
X9008158Y-13583531D01*
X9008158Y-13583531D02*
X9017682Y-13602579D01*
X9017682Y-13602579D02*
X9027205Y-13640674D01*
X9027205Y-13640674D02*
X9027205Y-13688293D01*
X9027205Y-13688293D02*
X9017682Y-13726388D01*
X9017682Y-13726388D02*
X9008158Y-13745436D01*
X9008158Y-13745436D02*
X8998634Y-13754960D01*
X8998634Y-13754960D02*
X8979586Y-13764484D01*
X8979586Y-13764484D02*
X8960539Y-13764484D01*
X8960539Y-13764484D02*
X8941491Y-13754960D01*
X8941491Y-13754960D02*
X8931967Y-13745436D01*
X8931967Y-13745436D02*
X8922444Y-13726388D01*
X8922444Y-13726388D02*
X8912920Y-13688293D01*
X8912920Y-13688293D02*
X8912920Y-13640674D01*
X8912920Y-13640674D02*
X8922444Y-13602579D01*
X8922444Y-13602579D02*
X8931967Y-13583531D01*
X8931967Y-13583531D02*
X8941491Y-13574008D01*
X8941491Y-13574008D02*
X8960539Y-13564484D01*
X9112920Y-13764484D02*
X9112920Y-13631150D01*
X9112920Y-13650198D02*
X9122444Y-13640674D01*
X9122444Y-13640674D02*
X9141491Y-13631150D01*
X9141491Y-13631150D02*
X9170063Y-13631150D01*
X9170063Y-13631150D02*
X9189110Y-13640674D01*
X9189110Y-13640674D02*
X9198634Y-13659722D01*
X9198634Y-13659722D02*
X9198634Y-13764484D01*
X9198634Y-13659722D02*
X9208158Y-13640674D01*
X9208158Y-13640674D02*
X9227205Y-13631150D01*
X9227205Y-13631150D02*
X9255777Y-13631150D01*
X9255777Y-13631150D02*
X9274825Y-13640674D01*
X9274825Y-13640674D02*
X9284348Y-13659722D01*
X9284348Y-13659722D02*
X9284348Y-13764484D01*
X9379586Y-13764484D02*
X9379586Y-13631150D01*
X9379586Y-13650198D02*
X9389110Y-13640674D01*
X9389110Y-13640674D02*
X9408158Y-13631150D01*
X9408158Y-13631150D02*
X9436729Y-13631150D01*
X9436729Y-13631150D02*
X9455777Y-13640674D01*
X9455777Y-13640674D02*
X9465301Y-13659722D01*
X9465301Y-13659722D02*
X9465301Y-13764484D01*
X9465301Y-13659722D02*
X9474825Y-13640674D01*
X9474825Y-13640674D02*
X9493872Y-13631150D01*
X9493872Y-13631150D02*
X9522444Y-13631150D01*
X9522444Y-13631150D02*
X9541491Y-13640674D01*
X9541491Y-13640674D02*
X9551015Y-13659722D01*
X9551015Y-13659722D02*
X9551015Y-13764484D01*
X9941491Y-13554960D02*
X9770063Y-13812103D01*
X10198634Y-13564484D02*
X10217682Y-13564484D01*
X10217682Y-13564484D02*
X10236729Y-13574008D01*
X10236729Y-13574008D02*
X10246253Y-13583531D01*
X10246253Y-13583531D02*
X10255777Y-13602579D01*
X10255777Y-13602579D02*
X10265301Y-13640674D01*
X10265301Y-13640674D02*
X10265301Y-13688293D01*
X10265301Y-13688293D02*
X10255777Y-13726388D01*
X10255777Y-13726388D02*
X10246253Y-13745436D01*
X10246253Y-13745436D02*
X10236729Y-13754960D01*
X10236729Y-13754960D02*
X10217682Y-13764484D01*
X10217682Y-13764484D02*
X10198634Y-13764484D01*
X10198634Y-13764484D02*
X10179587Y-13754960D01*
X10179587Y-13754960D02*
X10170063Y-13745436D01*
X10170063Y-13745436D02*
X10160539Y-13726388D01*
X10160539Y-13726388D02*
X10151015Y-13688293D01*
X10151015Y-13688293D02*
X10151015Y-13640674D01*
X10151015Y-13640674D02*
X10160539Y-13602579D01*
X10160539Y-13602579D02*
X10170063Y-13583531D01*
X10170063Y-13583531D02*
X10179587Y-13574008D01*
X10179587Y-13574008D02*
X10198634Y-13564484D01*
X10351015Y-13745436D02*
X10360539Y-13754960D01*
X10360539Y-13754960D02*
X10351015Y-13764484D01*
X10351015Y-13764484D02*
X10341491Y-13754960D01*
X10341491Y-13754960D02*
X10351015Y-13745436D01*
X10351015Y-13745436D02*
X10351015Y-13764484D01*
X10484348Y-13564484D02*
X10503396Y-13564484D01*
X10503396Y-13564484D02*
X10522444Y-13574008D01*
X10522444Y-13574008D02*
X10531968Y-13583531D01*
X10531968Y-13583531D02*
X10541491Y-13602579D01*
X10541491Y-13602579D02*
X10551015Y-13640674D01*
X10551015Y-13640674D02*
X10551015Y-13688293D01*
X10551015Y-13688293D02*
X10541491Y-13726388D01*
X10541491Y-13726388D02*
X10531968Y-13745436D01*
X10531968Y-13745436D02*
X10522444Y-13754960D01*
X10522444Y-13754960D02*
X10503396Y-13764484D01*
X10503396Y-13764484D02*
X10484348Y-13764484D01*
X10484348Y-13764484D02*
X10465301Y-13754960D01*
X10465301Y-13754960D02*
X10455777Y-13745436D01*
X10455777Y-13745436D02*
X10446253Y-13726388D01*
X10446253Y-13726388D02*
X10436729Y-13688293D01*
X10436729Y-13688293D02*
X10436729Y-13640674D01*
X10436729Y-13640674D02*
X10446253Y-13602579D01*
X10446253Y-13602579D02*
X10455777Y-13583531D01*
X10455777Y-13583531D02*
X10465301Y-13574008D01*
X10465301Y-13574008D02*
X10484348Y-13564484D01*
X10617682Y-13564484D02*
X10741491Y-13564484D01*
X10741491Y-13564484D02*
X10674825Y-13640674D01*
X10674825Y-13640674D02*
X10703396Y-13640674D01*
X10703396Y-13640674D02*
X10722444Y-13650198D01*
X10722444Y-13650198D02*
X10731968Y-13659722D01*
X10731968Y-13659722D02*
X10741491Y-13678769D01*
X10741491Y-13678769D02*
X10741491Y-13726388D01*
X10741491Y-13726388D02*
X10731968Y-13745436D01*
X10731968Y-13745436D02*
X10722444Y-13754960D01*
X10722444Y-13754960D02*
X10703396Y-13764484D01*
X10703396Y-13764484D02*
X10646253Y-13764484D01*
X10646253Y-13764484D02*
X10627206Y-13754960D01*
X10627206Y-13754960D02*
X10617682Y-13745436D01*
X10836729Y-13764484D02*
X10874825Y-13764484D01*
X10874825Y-13764484D02*
X10893872Y-13754960D01*
X10893872Y-13754960D02*
X10903396Y-13745436D01*
X10903396Y-13745436D02*
X10922444Y-13716865D01*
X10922444Y-13716865D02*
X10931968Y-13678769D01*
X10931968Y-13678769D02*
X10931968Y-13602579D01*
X10931968Y-13602579D02*
X10922444Y-13583531D01*
X10922444Y-13583531D02*
X10912920Y-13574008D01*
X10912920Y-13574008D02*
X10893872Y-13564484D01*
X10893872Y-13564484D02*
X10855777Y-13564484D01*
X10855777Y-13564484D02*
X10836729Y-13574008D01*
X10836729Y-13574008D02*
X10827206Y-13583531D01*
X10827206Y-13583531D02*
X10817682Y-13602579D01*
X10817682Y-13602579D02*
X10817682Y-13650198D01*
X10817682Y-13650198D02*
X10827206Y-13669246D01*
X10827206Y-13669246D02*
X10836729Y-13678769D01*
X10836729Y-13678769D02*
X10855777Y-13688293D01*
X10855777Y-13688293D02*
X10893872Y-13688293D01*
X10893872Y-13688293D02*
X10912920Y-13678769D01*
X10912920Y-13678769D02*
X10922444Y-13669246D01*
X10922444Y-13669246D02*
X10931968Y-13650198D01*
X11103396Y-13631150D02*
X11103396Y-13764484D01*
X11055777Y-13554960D02*
X11008158Y-13697817D01*
X11008158Y-13697817D02*
X11131968Y-13697817D01*
X11198634Y-13564484D02*
X11198634Y-13602579D01*
X11274825Y-13564484D02*
X11274825Y-13602579D01*
X11570063Y-13840674D02*
X11560539Y-13831150D01*
X11560539Y-13831150D02*
X11541491Y-13802579D01*
X11541491Y-13802579D02*
X11531968Y-13783531D01*
X11531968Y-13783531D02*
X11522444Y-13754960D01*
X11522444Y-13754960D02*
X11512920Y-13707341D01*
X11512920Y-13707341D02*
X11512920Y-13669246D01*
X11512920Y-13669246D02*
X11522444Y-13621627D01*
X11522444Y-13621627D02*
X11531968Y-13593055D01*
X11531968Y-13593055D02*
X11541491Y-13574008D01*
X11541491Y-13574008D02*
X11560539Y-13545436D01*
X11560539Y-13545436D02*
X11570063Y-13535912D01*
X11731968Y-13631150D02*
X11731968Y-13764484D01*
X11684348Y-13554960D02*
X11636729Y-13697817D01*
X11636729Y-13697817D02*
X11760539Y-13697817D01*
X11989110Y-13764484D02*
X11989110Y-13564484D01*
X12074825Y-13764484D02*
X12074825Y-13659722D01*
X12074825Y-13659722D02*
X12065301Y-13640674D01*
X12065301Y-13640674D02*
X12046253Y-13631150D01*
X12046253Y-13631150D02*
X12017682Y-13631150D01*
X12017682Y-13631150D02*
X11998634Y-13640674D01*
X11998634Y-13640674D02*
X11989110Y-13650198D01*
X12198634Y-13764484D02*
X12179587Y-13754960D01*
X12179587Y-13754960D02*
X12170063Y-13745436D01*
X12170063Y-13745436D02*
X12160539Y-13726388D01*
X12160539Y-13726388D02*
X12160539Y-13669246D01*
X12160539Y-13669246D02*
X12170063Y-13650198D01*
X12170063Y-13650198D02*
X12179587Y-13640674D01*
X12179587Y-13640674D02*
X12198634Y-13631150D01*
X12198634Y-13631150D02*
X12227206Y-13631150D01*
X12227206Y-13631150D02*
X12246253Y-13640674D01*
X12246253Y-13640674D02*
X12255777Y-13650198D01*
X12255777Y-13650198D02*
X12265301Y-13669246D01*
X12265301Y-13669246D02*
X12265301Y-13726388D01*
X12265301Y-13726388D02*
X12255777Y-13745436D01*
X12255777Y-13745436D02*
X12246253Y-13754960D01*
X12246253Y-13754960D02*
X12227206Y-13764484D01*
X12227206Y-13764484D02*
X12198634Y-13764484D01*
X12379587Y-13764484D02*
X12360539Y-13754960D01*
X12360539Y-13754960D02*
X12351015Y-13735912D01*
X12351015Y-13735912D02*
X12351015Y-13564484D01*
X12531968Y-13754960D02*
X12512920Y-13764484D01*
X12512920Y-13764484D02*
X12474825Y-13764484D01*
X12474825Y-13764484D02*
X12455777Y-13754960D01*
X12455777Y-13754960D02*
X12446253Y-13735912D01*
X12446253Y-13735912D02*
X12446253Y-13659722D01*
X12446253Y-13659722D02*
X12455777Y-13640674D01*
X12455777Y-13640674D02*
X12474825Y-13631150D01*
X12474825Y-13631150D02*
X12512920Y-13631150D01*
X12512920Y-13631150D02*
X12531968Y-13640674D01*
X12531968Y-13640674D02*
X12541491Y-13659722D01*
X12541491Y-13659722D02*
X12541491Y-13678769D01*
X12541491Y-13678769D02*
X12446253Y-13697817D01*
X12617682Y-13754960D02*
X12636730Y-13764484D01*
X12636730Y-13764484D02*
X12674825Y-13764484D01*
X12674825Y-13764484D02*
X12693872Y-13754960D01*
X12693872Y-13754960D02*
X12703396Y-13735912D01*
X12703396Y-13735912D02*
X12703396Y-13726388D01*
X12703396Y-13726388D02*
X12693872Y-13707341D01*
X12693872Y-13707341D02*
X12674825Y-13697817D01*
X12674825Y-13697817D02*
X12646253Y-13697817D01*
X12646253Y-13697817D02*
X12627206Y-13688293D01*
X12627206Y-13688293D02*
X12617682Y-13669246D01*
X12617682Y-13669246D02*
X12617682Y-13659722D01*
X12617682Y-13659722D02*
X12627206Y-13640674D01*
X12627206Y-13640674D02*
X12646253Y-13631150D01*
X12646253Y-13631150D02*
X12674825Y-13631150D01*
X12674825Y-13631150D02*
X12693872Y-13640674D01*
X12770063Y-13840674D02*
X12779587Y-13831150D01*
X12779587Y-13831150D02*
X12798634Y-13802579D01*
X12798634Y-13802579D02*
X12808158Y-13783531D01*
X12808158Y-13783531D02*
X12817682Y-13754960D01*
X12817682Y-13754960D02*
X12827206Y-13707341D01*
X12827206Y-13707341D02*
X12827206Y-13669246D01*
X12827206Y-13669246D02*
X12817682Y-13621627D01*
X12817682Y-13621627D02*
X12808158Y-13593055D01*
X12808158Y-13593055D02*
X12798634Y-13574008D01*
X12798634Y-13574008D02*
X12779587Y-13545436D01*
X12779587Y-13545436D02*
X12770063Y-13535912D01*
D12*
X7978891Y-13975891D02*
X7978891Y-13898109D01*
X7901109Y-13898109D01*
X7901109Y-13975891D01*
X7978891Y-13975891D01*
D11*
X8360539Y-14028484D02*
X8246253Y-14028484D01*
X8303396Y-14028484D02*
X8303396Y-13828484D01*
X8303396Y-13828484D02*
X8284348Y-13857055D01*
X8284348Y-13857055D02*
X8265301Y-13876103D01*
X8265301Y-13876103D02*
X8246253Y-13885627D01*
X8446253Y-14009436D02*
X8455777Y-14018960D01*
X8455777Y-14018960D02*
X8446253Y-14028484D01*
X8446253Y-14028484D02*
X8436729Y-14018960D01*
X8436729Y-14018960D02*
X8446253Y-14009436D01*
X8446253Y-14009436D02*
X8446253Y-14028484D01*
X8646253Y-14028484D02*
X8531967Y-14028484D01*
X8589110Y-14028484D02*
X8589110Y-13828484D01*
X8589110Y-13828484D02*
X8570063Y-13857055D01*
X8570063Y-13857055D02*
X8551015Y-13876103D01*
X8551015Y-13876103D02*
X8531967Y-13885627D01*
X8770063Y-13828484D02*
X8789110Y-13828484D01*
X8789110Y-13828484D02*
X8808158Y-13838008D01*
X8808158Y-13838008D02*
X8817682Y-13847531D01*
X8817682Y-13847531D02*
X8827205Y-13866579D01*
X8827205Y-13866579D02*
X8836729Y-13904674D01*
X8836729Y-13904674D02*
X8836729Y-13952293D01*
X8836729Y-13952293D02*
X8827205Y-13990388D01*
X8827205Y-13990388D02*
X8817682Y-14009436D01*
X8817682Y-14009436D02*
X8808158Y-14018960D01*
X8808158Y-14018960D02*
X8789110Y-14028484D01*
X8789110Y-14028484D02*
X8770063Y-14028484D01*
X8770063Y-14028484D02*
X8751015Y-14018960D01*
X8751015Y-14018960D02*
X8741491Y-14009436D01*
X8741491Y-14009436D02*
X8731967Y-13990388D01*
X8731967Y-13990388D02*
X8722444Y-13952293D01*
X8722444Y-13952293D02*
X8722444Y-13904674D01*
X8722444Y-13904674D02*
X8731967Y-13866579D01*
X8731967Y-13866579D02*
X8741491Y-13847531D01*
X8741491Y-13847531D02*
X8751015Y-13838008D01*
X8751015Y-13838008D02*
X8770063Y-13828484D01*
X8960539Y-13828484D02*
X8979586Y-13828484D01*
X8979586Y-13828484D02*
X8998634Y-13838008D01*
X8998634Y-13838008D02*
X9008158Y-13847531D01*
X9008158Y-13847531D02*
X9017682Y-13866579D01*
X9017682Y-13866579D02*
X9027205Y-13904674D01*
X9027205Y-13904674D02*
X9027205Y-13952293D01*
X9027205Y-13952293D02*
X9017682Y-13990388D01*
X9017682Y-13990388D02*
X9008158Y-14009436D01*
X9008158Y-14009436D02*
X8998634Y-14018960D01*
X8998634Y-14018960D02*
X8979586Y-14028484D01*
X8979586Y-14028484D02*
X8960539Y-14028484D01*
X8960539Y-14028484D02*
X8941491Y-14018960D01*
X8941491Y-14018960D02*
X8931967Y-14009436D01*
X8931967Y-14009436D02*
X8922444Y-13990388D01*
X8922444Y-13990388D02*
X8912920Y-13952293D01*
X8912920Y-13952293D02*
X8912920Y-13904674D01*
X8912920Y-13904674D02*
X8922444Y-13866579D01*
X8922444Y-13866579D02*
X8931967Y-13847531D01*
X8931967Y-13847531D02*
X8941491Y-13838008D01*
X8941491Y-13838008D02*
X8960539Y-13828484D01*
X9112920Y-14028484D02*
X9112920Y-13895150D01*
X9112920Y-13914198D02*
X9122444Y-13904674D01*
X9122444Y-13904674D02*
X9141491Y-13895150D01*
X9141491Y-13895150D02*
X9170063Y-13895150D01*
X9170063Y-13895150D02*
X9189110Y-13904674D01*
X9189110Y-13904674D02*
X9198634Y-13923722D01*
X9198634Y-13923722D02*
X9198634Y-14028484D01*
X9198634Y-13923722D02*
X9208158Y-13904674D01*
X9208158Y-13904674D02*
X9227205Y-13895150D01*
X9227205Y-13895150D02*
X9255777Y-13895150D01*
X9255777Y-13895150D02*
X9274825Y-13904674D01*
X9274825Y-13904674D02*
X9284348Y-13923722D01*
X9284348Y-13923722D02*
X9284348Y-14028484D01*
X9379586Y-14028484D02*
X9379586Y-13895150D01*
X9379586Y-13914198D02*
X9389110Y-13904674D01*
X9389110Y-13904674D02*
X9408158Y-13895150D01*
X9408158Y-13895150D02*
X9436729Y-13895150D01*
X9436729Y-13895150D02*
X9455777Y-13904674D01*
X9455777Y-13904674D02*
X9465301Y-13923722D01*
X9465301Y-13923722D02*
X9465301Y-14028484D01*
X9465301Y-13923722D02*
X9474825Y-13904674D01*
X9474825Y-13904674D02*
X9493872Y-13895150D01*
X9493872Y-13895150D02*
X9522444Y-13895150D01*
X9522444Y-13895150D02*
X9541491Y-13904674D01*
X9541491Y-13904674D02*
X9551015Y-13923722D01*
X9551015Y-13923722D02*
X9551015Y-14028484D01*
X9941491Y-13818960D02*
X9770063Y-14076103D01*
X10198634Y-13828484D02*
X10217682Y-13828484D01*
X10217682Y-13828484D02*
X10236729Y-13838008D01*
X10236729Y-13838008D02*
X10246253Y-13847531D01*
X10246253Y-13847531D02*
X10255777Y-13866579D01*
X10255777Y-13866579D02*
X10265301Y-13904674D01*
X10265301Y-13904674D02*
X10265301Y-13952293D01*
X10265301Y-13952293D02*
X10255777Y-13990388D01*
X10255777Y-13990388D02*
X10246253Y-14009436D01*
X10246253Y-14009436D02*
X10236729Y-14018960D01*
X10236729Y-14018960D02*
X10217682Y-14028484D01*
X10217682Y-14028484D02*
X10198634Y-14028484D01*
X10198634Y-14028484D02*
X10179587Y-14018960D01*
X10179587Y-14018960D02*
X10170063Y-14009436D01*
X10170063Y-14009436D02*
X10160539Y-13990388D01*
X10160539Y-13990388D02*
X10151015Y-13952293D01*
X10151015Y-13952293D02*
X10151015Y-13904674D01*
X10151015Y-13904674D02*
X10160539Y-13866579D01*
X10160539Y-13866579D02*
X10170063Y-13847531D01*
X10170063Y-13847531D02*
X10179587Y-13838008D01*
X10179587Y-13838008D02*
X10198634Y-13828484D01*
X10351015Y-14009436D02*
X10360539Y-14018960D01*
X10360539Y-14018960D02*
X10351015Y-14028484D01*
X10351015Y-14028484D02*
X10341491Y-14018960D01*
X10341491Y-14018960D02*
X10351015Y-14009436D01*
X10351015Y-14009436D02*
X10351015Y-14028484D01*
X10484348Y-13828484D02*
X10503396Y-13828484D01*
X10503396Y-13828484D02*
X10522444Y-13838008D01*
X10522444Y-13838008D02*
X10531968Y-13847531D01*
X10531968Y-13847531D02*
X10541491Y-13866579D01*
X10541491Y-13866579D02*
X10551015Y-13904674D01*
X10551015Y-13904674D02*
X10551015Y-13952293D01*
X10551015Y-13952293D02*
X10541491Y-13990388D01*
X10541491Y-13990388D02*
X10531968Y-14009436D01*
X10531968Y-14009436D02*
X10522444Y-14018960D01*
X10522444Y-14018960D02*
X10503396Y-14028484D01*
X10503396Y-14028484D02*
X10484348Y-14028484D01*
X10484348Y-14028484D02*
X10465301Y-14018960D01*
X10465301Y-14018960D02*
X10455777Y-14009436D01*
X10455777Y-14009436D02*
X10446253Y-13990388D01*
X10446253Y-13990388D02*
X10436729Y-13952293D01*
X10436729Y-13952293D02*
X10436729Y-13904674D01*
X10436729Y-13904674D02*
X10446253Y-13866579D01*
X10446253Y-13866579D02*
X10455777Y-13847531D01*
X10455777Y-13847531D02*
X10465301Y-13838008D01*
X10465301Y-13838008D02*
X10484348Y-13828484D01*
X10722444Y-13895150D02*
X10722444Y-14028484D01*
X10674825Y-13818960D02*
X10627206Y-13961817D01*
X10627206Y-13961817D02*
X10751015Y-13961817D01*
X10808158Y-13828484D02*
X10931968Y-13828484D01*
X10931968Y-13828484D02*
X10865301Y-13904674D01*
X10865301Y-13904674D02*
X10893872Y-13904674D01*
X10893872Y-13904674D02*
X10912920Y-13914198D01*
X10912920Y-13914198D02*
X10922444Y-13923722D01*
X10922444Y-13923722D02*
X10931968Y-13942769D01*
X10931968Y-13942769D02*
X10931968Y-13990388D01*
X10931968Y-13990388D02*
X10922444Y-14009436D01*
X10922444Y-14009436D02*
X10912920Y-14018960D01*
X10912920Y-14018960D02*
X10893872Y-14028484D01*
X10893872Y-14028484D02*
X10836729Y-14028484D01*
X10836729Y-14028484D02*
X10817682Y-14018960D01*
X10817682Y-14018960D02*
X10808158Y-14009436D01*
X10998634Y-13828484D02*
X11122444Y-13828484D01*
X11122444Y-13828484D02*
X11055777Y-13904674D01*
X11055777Y-13904674D02*
X11084349Y-13904674D01*
X11084349Y-13904674D02*
X11103396Y-13914198D01*
X11103396Y-13914198D02*
X11112920Y-13923722D01*
X11112920Y-13923722D02*
X11122444Y-13942769D01*
X11122444Y-13942769D02*
X11122444Y-13990388D01*
X11122444Y-13990388D02*
X11112920Y-14009436D01*
X11112920Y-14009436D02*
X11103396Y-14018960D01*
X11103396Y-14018960D02*
X11084349Y-14028484D01*
X11084349Y-14028484D02*
X11027206Y-14028484D01*
X11027206Y-14028484D02*
X11008158Y-14018960D01*
X11008158Y-14018960D02*
X10998634Y-14009436D01*
X11198634Y-13828484D02*
X11198634Y-13866579D01*
X11274825Y-13828484D02*
X11274825Y-13866579D01*
X11570063Y-14104674D02*
X11560539Y-14095150D01*
X11560539Y-14095150D02*
X11541491Y-14066579D01*
X11541491Y-14066579D02*
X11531968Y-14047531D01*
X11531968Y-14047531D02*
X11522444Y-14018960D01*
X11522444Y-14018960D02*
X11512920Y-13971341D01*
X11512920Y-13971341D02*
X11512920Y-13933246D01*
X11512920Y-13933246D02*
X11522444Y-13885627D01*
X11522444Y-13885627D02*
X11531968Y-13857055D01*
X11531968Y-13857055D02*
X11541491Y-13838008D01*
X11541491Y-13838008D02*
X11560539Y-13809436D01*
X11560539Y-13809436D02*
X11570063Y-13799912D01*
X11751015Y-14028484D02*
X11636729Y-14028484D01*
X11693872Y-14028484D02*
X11693872Y-13828484D01*
X11693872Y-13828484D02*
X11674825Y-13857055D01*
X11674825Y-13857055D02*
X11655777Y-13876103D01*
X11655777Y-13876103D02*
X11636729Y-13885627D01*
X11931968Y-13828484D02*
X11836729Y-13828484D01*
X11836729Y-13828484D02*
X11827206Y-13923722D01*
X11827206Y-13923722D02*
X11836729Y-13914198D01*
X11836729Y-13914198D02*
X11855777Y-13904674D01*
X11855777Y-13904674D02*
X11903396Y-13904674D01*
X11903396Y-13904674D02*
X11922444Y-13914198D01*
X11922444Y-13914198D02*
X11931968Y-13923722D01*
X11931968Y-13923722D02*
X11941491Y-13942769D01*
X11941491Y-13942769D02*
X11941491Y-13990388D01*
X11941491Y-13990388D02*
X11931968Y-14009436D01*
X11931968Y-14009436D02*
X11922444Y-14018960D01*
X11922444Y-14018960D02*
X11903396Y-14028484D01*
X11903396Y-14028484D02*
X11855777Y-14028484D01*
X11855777Y-14028484D02*
X11836729Y-14018960D01*
X11836729Y-14018960D02*
X11827206Y-14009436D01*
X12179587Y-14028484D02*
X12179587Y-13828484D01*
X12265301Y-14028484D02*
X12265301Y-13923722D01*
X12265301Y-13923722D02*
X12255777Y-13904674D01*
X12255777Y-13904674D02*
X12236730Y-13895150D01*
X12236730Y-13895150D02*
X12208158Y-13895150D01*
X12208158Y-13895150D02*
X12189110Y-13904674D01*
X12189110Y-13904674D02*
X12179587Y-13914198D01*
X12389110Y-14028484D02*
X12370063Y-14018960D01*
X12370063Y-14018960D02*
X12360539Y-14009436D01*
X12360539Y-14009436D02*
X12351015Y-13990388D01*
X12351015Y-13990388D02*
X12351015Y-13933246D01*
X12351015Y-13933246D02*
X12360539Y-13914198D01*
X12360539Y-13914198D02*
X12370063Y-13904674D01*
X12370063Y-13904674D02*
X12389110Y-13895150D01*
X12389110Y-13895150D02*
X12417682Y-13895150D01*
X12417682Y-13895150D02*
X12436730Y-13904674D01*
X12436730Y-13904674D02*
X12446253Y-13914198D01*
X12446253Y-13914198D02*
X12455777Y-13933246D01*
X12455777Y-13933246D02*
X12455777Y-13990388D01*
X12455777Y-13990388D02*
X12446253Y-14009436D01*
X12446253Y-14009436D02*
X12436730Y-14018960D01*
X12436730Y-14018960D02*
X12417682Y-14028484D01*
X12417682Y-14028484D02*
X12389110Y-14028484D01*
X12570063Y-14028484D02*
X12551015Y-14018960D01*
X12551015Y-14018960D02*
X12541491Y-13999912D01*
X12541491Y-13999912D02*
X12541491Y-13828484D01*
X12722444Y-14018960D02*
X12703396Y-14028484D01*
X12703396Y-14028484D02*
X12665301Y-14028484D01*
X12665301Y-14028484D02*
X12646253Y-14018960D01*
X12646253Y-14018960D02*
X12636730Y-13999912D01*
X12636730Y-13999912D02*
X12636730Y-13923722D01*
X12636730Y-13923722D02*
X12646253Y-13904674D01*
X12646253Y-13904674D02*
X12665301Y-13895150D01*
X12665301Y-13895150D02*
X12703396Y-13895150D01*
X12703396Y-13895150D02*
X12722444Y-13904674D01*
X12722444Y-13904674D02*
X12731968Y-13923722D01*
X12731968Y-13923722D02*
X12731968Y-13942769D01*
X12731968Y-13942769D02*
X12636730Y-13961817D01*
X12808158Y-14018960D02*
X12827206Y-14028484D01*
X12827206Y-14028484D02*
X12865301Y-14028484D01*
X12865301Y-14028484D02*
X12884349Y-14018960D01*
X12884349Y-14018960D02*
X12893872Y-13999912D01*
X12893872Y-13999912D02*
X12893872Y-13990388D01*
X12893872Y-13990388D02*
X12884349Y-13971341D01*
X12884349Y-13971341D02*
X12865301Y-13961817D01*
X12865301Y-13961817D02*
X12836730Y-13961817D01*
X12836730Y-13961817D02*
X12817682Y-13952293D01*
X12817682Y-13952293D02*
X12808158Y-13933246D01*
X12808158Y-13933246D02*
X12808158Y-13923722D01*
X12808158Y-13923722D02*
X12817682Y-13904674D01*
X12817682Y-13904674D02*
X12836730Y-13895150D01*
X12836730Y-13895150D02*
X12865301Y-13895150D01*
X12865301Y-13895150D02*
X12884349Y-13904674D01*
X12960539Y-14104674D02*
X12970063Y-14095150D01*
X12970063Y-14095150D02*
X12989111Y-14066579D01*
X12989111Y-14066579D02*
X12998634Y-14047531D01*
X12998634Y-14047531D02*
X13008158Y-14018960D01*
X13008158Y-14018960D02*
X13017682Y-13971341D01*
X13017682Y-13971341D02*
X13017682Y-13933246D01*
X13017682Y-13933246D02*
X13008158Y-13885627D01*
X13008158Y-13885627D02*
X12998634Y-13857055D01*
X12998634Y-13857055D02*
X12989111Y-13838008D01*
X12989111Y-13838008D02*
X12970063Y-13809436D01*
X12970063Y-13809436D02*
X12960539Y-13799912D01*
D13*
X7935000Y-14261000D02*
X7995000Y-14201000D01*
X7935000Y-14141000D01*
X7875000Y-14201000D01*
X7935000Y-14261000D01*
D11*
X8360539Y-14292484D02*
X8246253Y-14292484D01*
X8303396Y-14292484D02*
X8303396Y-14092484D01*
X8303396Y-14092484D02*
X8284348Y-14121055D01*
X8284348Y-14121055D02*
X8265301Y-14140103D01*
X8265301Y-14140103D02*
X8246253Y-14149627D01*
X8446253Y-14273436D02*
X8455777Y-14282960D01*
X8455777Y-14282960D02*
X8446253Y-14292484D01*
X8446253Y-14292484D02*
X8436729Y-14282960D01*
X8436729Y-14282960D02*
X8446253Y-14273436D01*
X8446253Y-14273436D02*
X8446253Y-14292484D01*
X8531967Y-14111531D02*
X8541491Y-14102008D01*
X8541491Y-14102008D02*
X8560539Y-14092484D01*
X8560539Y-14092484D02*
X8608158Y-14092484D01*
X8608158Y-14092484D02*
X8627205Y-14102008D01*
X8627205Y-14102008D02*
X8636729Y-14111531D01*
X8636729Y-14111531D02*
X8646253Y-14130579D01*
X8646253Y-14130579D02*
X8646253Y-14149627D01*
X8646253Y-14149627D02*
X8636729Y-14178198D01*
X8636729Y-14178198D02*
X8522444Y-14292484D01*
X8522444Y-14292484D02*
X8646253Y-14292484D01*
X8770063Y-14092484D02*
X8789110Y-14092484D01*
X8789110Y-14092484D02*
X8808158Y-14102008D01*
X8808158Y-14102008D02*
X8817682Y-14111531D01*
X8817682Y-14111531D02*
X8827205Y-14130579D01*
X8827205Y-14130579D02*
X8836729Y-14168674D01*
X8836729Y-14168674D02*
X8836729Y-14216293D01*
X8836729Y-14216293D02*
X8827205Y-14254388D01*
X8827205Y-14254388D02*
X8817682Y-14273436D01*
X8817682Y-14273436D02*
X8808158Y-14282960D01*
X8808158Y-14282960D02*
X8789110Y-14292484D01*
X8789110Y-14292484D02*
X8770063Y-14292484D01*
X8770063Y-14292484D02*
X8751015Y-14282960D01*
X8751015Y-14282960D02*
X8741491Y-14273436D01*
X8741491Y-14273436D02*
X8731967Y-14254388D01*
X8731967Y-14254388D02*
X8722444Y-14216293D01*
X8722444Y-14216293D02*
X8722444Y-14168674D01*
X8722444Y-14168674D02*
X8731967Y-14130579D01*
X8731967Y-14130579D02*
X8741491Y-14111531D01*
X8741491Y-14111531D02*
X8751015Y-14102008D01*
X8751015Y-14102008D02*
X8770063Y-14092484D01*
X8960539Y-14092484D02*
X8979586Y-14092484D01*
X8979586Y-14092484D02*
X8998634Y-14102008D01*
X8998634Y-14102008D02*
X9008158Y-14111531D01*
X9008158Y-14111531D02*
X9017682Y-14130579D01*
X9017682Y-14130579D02*
X9027205Y-14168674D01*
X9027205Y-14168674D02*
X9027205Y-14216293D01*
X9027205Y-14216293D02*
X9017682Y-14254388D01*
X9017682Y-14254388D02*
X9008158Y-14273436D01*
X9008158Y-14273436D02*
X8998634Y-14282960D01*
X8998634Y-14282960D02*
X8979586Y-14292484D01*
X8979586Y-14292484D02*
X8960539Y-14292484D01*
X8960539Y-14292484D02*
X8941491Y-14282960D01*
X8941491Y-14282960D02*
X8931967Y-14273436D01*
X8931967Y-14273436D02*
X8922444Y-14254388D01*
X8922444Y-14254388D02*
X8912920Y-14216293D01*
X8912920Y-14216293D02*
X8912920Y-14168674D01*
X8912920Y-14168674D02*
X8922444Y-14130579D01*
X8922444Y-14130579D02*
X8931967Y-14111531D01*
X8931967Y-14111531D02*
X8941491Y-14102008D01*
X8941491Y-14102008D02*
X8960539Y-14092484D01*
X9112920Y-14292484D02*
X9112920Y-14159150D01*
X9112920Y-14178198D02*
X9122444Y-14168674D01*
X9122444Y-14168674D02*
X9141491Y-14159150D01*
X9141491Y-14159150D02*
X9170063Y-14159150D01*
X9170063Y-14159150D02*
X9189110Y-14168674D01*
X9189110Y-14168674D02*
X9198634Y-14187722D01*
X9198634Y-14187722D02*
X9198634Y-14292484D01*
X9198634Y-14187722D02*
X9208158Y-14168674D01*
X9208158Y-14168674D02*
X9227205Y-14159150D01*
X9227205Y-14159150D02*
X9255777Y-14159150D01*
X9255777Y-14159150D02*
X9274825Y-14168674D01*
X9274825Y-14168674D02*
X9284348Y-14187722D01*
X9284348Y-14187722D02*
X9284348Y-14292484D01*
X9379586Y-14292484D02*
X9379586Y-14159150D01*
X9379586Y-14178198D02*
X9389110Y-14168674D01*
X9389110Y-14168674D02*
X9408158Y-14159150D01*
X9408158Y-14159150D02*
X9436729Y-14159150D01*
X9436729Y-14159150D02*
X9455777Y-14168674D01*
X9455777Y-14168674D02*
X9465301Y-14187722D01*
X9465301Y-14187722D02*
X9465301Y-14292484D01*
X9465301Y-14187722D02*
X9474825Y-14168674D01*
X9474825Y-14168674D02*
X9493872Y-14159150D01*
X9493872Y-14159150D02*
X9522444Y-14159150D01*
X9522444Y-14159150D02*
X9541491Y-14168674D01*
X9541491Y-14168674D02*
X9551015Y-14187722D01*
X9551015Y-14187722D02*
X9551015Y-14292484D01*
X9941491Y-14082960D02*
X9770063Y-14340103D01*
X10198634Y-14092484D02*
X10217682Y-14092484D01*
X10217682Y-14092484D02*
X10236729Y-14102008D01*
X10236729Y-14102008D02*
X10246253Y-14111531D01*
X10246253Y-14111531D02*
X10255777Y-14130579D01*
X10255777Y-14130579D02*
X10265301Y-14168674D01*
X10265301Y-14168674D02*
X10265301Y-14216293D01*
X10265301Y-14216293D02*
X10255777Y-14254388D01*
X10255777Y-14254388D02*
X10246253Y-14273436D01*
X10246253Y-14273436D02*
X10236729Y-14282960D01*
X10236729Y-14282960D02*
X10217682Y-14292484D01*
X10217682Y-14292484D02*
X10198634Y-14292484D01*
X10198634Y-14292484D02*
X10179587Y-14282960D01*
X10179587Y-14282960D02*
X10170063Y-14273436D01*
X10170063Y-14273436D02*
X10160539Y-14254388D01*
X10160539Y-14254388D02*
X10151015Y-14216293D01*
X10151015Y-14216293D02*
X10151015Y-14168674D01*
X10151015Y-14168674D02*
X10160539Y-14130579D01*
X10160539Y-14130579D02*
X10170063Y-14111531D01*
X10170063Y-14111531D02*
X10179587Y-14102008D01*
X10179587Y-14102008D02*
X10198634Y-14092484D01*
X10351015Y-14273436D02*
X10360539Y-14282960D01*
X10360539Y-14282960D02*
X10351015Y-14292484D01*
X10351015Y-14292484D02*
X10341491Y-14282960D01*
X10341491Y-14282960D02*
X10351015Y-14273436D01*
X10351015Y-14273436D02*
X10351015Y-14292484D01*
X10484348Y-14092484D02*
X10503396Y-14092484D01*
X10503396Y-14092484D02*
X10522444Y-14102008D01*
X10522444Y-14102008D02*
X10531968Y-14111531D01*
X10531968Y-14111531D02*
X10541491Y-14130579D01*
X10541491Y-14130579D02*
X10551015Y-14168674D01*
X10551015Y-14168674D02*
X10551015Y-14216293D01*
X10551015Y-14216293D02*
X10541491Y-14254388D01*
X10541491Y-14254388D02*
X10531968Y-14273436D01*
X10531968Y-14273436D02*
X10522444Y-14282960D01*
X10522444Y-14282960D02*
X10503396Y-14292484D01*
X10503396Y-14292484D02*
X10484348Y-14292484D01*
X10484348Y-14292484D02*
X10465301Y-14282960D01*
X10465301Y-14282960D02*
X10455777Y-14273436D01*
X10455777Y-14273436D02*
X10446253Y-14254388D01*
X10446253Y-14254388D02*
X10436729Y-14216293D01*
X10436729Y-14216293D02*
X10436729Y-14168674D01*
X10436729Y-14168674D02*
X10446253Y-14130579D01*
X10446253Y-14130579D02*
X10455777Y-14111531D01*
X10455777Y-14111531D02*
X10465301Y-14102008D01*
X10465301Y-14102008D02*
X10484348Y-14092484D01*
X10722444Y-14159150D02*
X10722444Y-14292484D01*
X10674825Y-14082960D02*
X10627206Y-14225817D01*
X10627206Y-14225817D02*
X10751015Y-14225817D01*
X10808158Y-14092484D02*
X10941491Y-14092484D01*
X10941491Y-14092484D02*
X10855777Y-14292484D01*
X11008158Y-14111531D02*
X11017682Y-14102008D01*
X11017682Y-14102008D02*
X11036729Y-14092484D01*
X11036729Y-14092484D02*
X11084349Y-14092484D01*
X11084349Y-14092484D02*
X11103396Y-14102008D01*
X11103396Y-14102008D02*
X11112920Y-14111531D01*
X11112920Y-14111531D02*
X11122444Y-14130579D01*
X11122444Y-14130579D02*
X11122444Y-14149627D01*
X11122444Y-14149627D02*
X11112920Y-14178198D01*
X11112920Y-14178198D02*
X10998634Y-14292484D01*
X10998634Y-14292484D02*
X11122444Y-14292484D01*
X11198634Y-14092484D02*
X11198634Y-14130579D01*
X11274825Y-14092484D02*
X11274825Y-14130579D01*
X11570063Y-14368674D02*
X11560539Y-14359150D01*
X11560539Y-14359150D02*
X11541491Y-14330579D01*
X11541491Y-14330579D02*
X11531968Y-14311531D01*
X11531968Y-14311531D02*
X11522444Y-14282960D01*
X11522444Y-14282960D02*
X11512920Y-14235341D01*
X11512920Y-14235341D02*
X11512920Y-14197246D01*
X11512920Y-14197246D02*
X11522444Y-14149627D01*
X11522444Y-14149627D02*
X11531968Y-14121055D01*
X11531968Y-14121055D02*
X11541491Y-14102008D01*
X11541491Y-14102008D02*
X11560539Y-14073436D01*
X11560539Y-14073436D02*
X11570063Y-14063912D01*
X11655777Y-14292484D02*
X11693872Y-14292484D01*
X11693872Y-14292484D02*
X11712920Y-14282960D01*
X11712920Y-14282960D02*
X11722444Y-14273436D01*
X11722444Y-14273436D02*
X11741491Y-14244865D01*
X11741491Y-14244865D02*
X11751015Y-14206769D01*
X11751015Y-14206769D02*
X11751015Y-14130579D01*
X11751015Y-14130579D02*
X11741491Y-14111531D01*
X11741491Y-14111531D02*
X11731968Y-14102008D01*
X11731968Y-14102008D02*
X11712920Y-14092484D01*
X11712920Y-14092484D02*
X11674825Y-14092484D01*
X11674825Y-14092484D02*
X11655777Y-14102008D01*
X11655777Y-14102008D02*
X11646253Y-14111531D01*
X11646253Y-14111531D02*
X11636729Y-14130579D01*
X11636729Y-14130579D02*
X11636729Y-14178198D01*
X11636729Y-14178198D02*
X11646253Y-14197246D01*
X11646253Y-14197246D02*
X11655777Y-14206769D01*
X11655777Y-14206769D02*
X11674825Y-14216293D01*
X11674825Y-14216293D02*
X11712920Y-14216293D01*
X11712920Y-14216293D02*
X11731968Y-14206769D01*
X11731968Y-14206769D02*
X11741491Y-14197246D01*
X11741491Y-14197246D02*
X11751015Y-14178198D01*
X11989110Y-14292484D02*
X11989110Y-14092484D01*
X12074825Y-14292484D02*
X12074825Y-14187722D01*
X12074825Y-14187722D02*
X12065301Y-14168674D01*
X12065301Y-14168674D02*
X12046253Y-14159150D01*
X12046253Y-14159150D02*
X12017682Y-14159150D01*
X12017682Y-14159150D02*
X11998634Y-14168674D01*
X11998634Y-14168674D02*
X11989110Y-14178198D01*
X12198634Y-14292484D02*
X12179587Y-14282960D01*
X12179587Y-14282960D02*
X12170063Y-14273436D01*
X12170063Y-14273436D02*
X12160539Y-14254388D01*
X12160539Y-14254388D02*
X12160539Y-14197246D01*
X12160539Y-14197246D02*
X12170063Y-14178198D01*
X12170063Y-14178198D02*
X12179587Y-14168674D01*
X12179587Y-14168674D02*
X12198634Y-14159150D01*
X12198634Y-14159150D02*
X12227206Y-14159150D01*
X12227206Y-14159150D02*
X12246253Y-14168674D01*
X12246253Y-14168674D02*
X12255777Y-14178198D01*
X12255777Y-14178198D02*
X12265301Y-14197246D01*
X12265301Y-14197246D02*
X12265301Y-14254388D01*
X12265301Y-14254388D02*
X12255777Y-14273436D01*
X12255777Y-14273436D02*
X12246253Y-14282960D01*
X12246253Y-14282960D02*
X12227206Y-14292484D01*
X12227206Y-14292484D02*
X12198634Y-14292484D01*
X12379587Y-14292484D02*
X12360539Y-14282960D01*
X12360539Y-14282960D02*
X12351015Y-14263912D01*
X12351015Y-14263912D02*
X12351015Y-14092484D01*
X12531968Y-14282960D02*
X12512920Y-14292484D01*
X12512920Y-14292484D02*
X12474825Y-14292484D01*
X12474825Y-14292484D02*
X12455777Y-14282960D01*
X12455777Y-14282960D02*
X12446253Y-14263912D01*
X12446253Y-14263912D02*
X12446253Y-14187722D01*
X12446253Y-14187722D02*
X12455777Y-14168674D01*
X12455777Y-14168674D02*
X12474825Y-14159150D01*
X12474825Y-14159150D02*
X12512920Y-14159150D01*
X12512920Y-14159150D02*
X12531968Y-14168674D01*
X12531968Y-14168674D02*
X12541491Y-14187722D01*
X12541491Y-14187722D02*
X12541491Y-14206769D01*
X12541491Y-14206769D02*
X12446253Y-14225817D01*
X12617682Y-14282960D02*
X12636730Y-14292484D01*
X12636730Y-14292484D02*
X12674825Y-14292484D01*
X12674825Y-14292484D02*
X12693872Y-14282960D01*
X12693872Y-14282960D02*
X12703396Y-14263912D01*
X12703396Y-14263912D02*
X12703396Y-14254388D01*
X12703396Y-14254388D02*
X12693872Y-14235341D01*
X12693872Y-14235341D02*
X12674825Y-14225817D01*
X12674825Y-14225817D02*
X12646253Y-14225817D01*
X12646253Y-14225817D02*
X12627206Y-14216293D01*
X12627206Y-14216293D02*
X12617682Y-14197246D01*
X12617682Y-14197246D02*
X12617682Y-14187722D01*
X12617682Y-14187722D02*
X12627206Y-14168674D01*
X12627206Y-14168674D02*
X12646253Y-14159150D01*
X12646253Y-14159150D02*
X12674825Y-14159150D01*
X12674825Y-14159150D02*
X12693872Y-14168674D01*
X12770063Y-14368674D02*
X12779587Y-14359150D01*
X12779587Y-14359150D02*
X12798634Y-14330579D01*
X12798634Y-14330579D02*
X12808158Y-14311531D01*
X12808158Y-14311531D02*
X12817682Y-14282960D01*
X12817682Y-14282960D02*
X12827206Y-14235341D01*
X12827206Y-14235341D02*
X12827206Y-14197246D01*
X12827206Y-14197246D02*
X12817682Y-14149627D01*
X12817682Y-14149627D02*
X12808158Y-14121055D01*
X12808158Y-14121055D02*
X12798634Y-14102008D01*
X12798634Y-14102008D02*
X12779587Y-14073436D01*
X12779587Y-14073436D02*
X12770063Y-14063912D01*
X7795000Y-14365000D02*
X7995000Y-14565000D01*
X7995000Y-14365000D02*
X7795000Y-14565000D01*
X7995000Y-14465000D02*
G75*
G02*
X7795000Y-14465000I-100000J0D01*
G01*
X7795000Y-14465000D02*
G75*
G02*
X7995000Y-14465000I100000J0D01*
G01*
X8351015Y-14356484D02*
X8255777Y-14356484D01*
X8255777Y-14356484D02*
X8246253Y-14451722D01*
X8246253Y-14451722D02*
X8255777Y-14442198D01*
X8255777Y-14442198D02*
X8274824Y-14432674D01*
X8274824Y-14432674D02*
X8322443Y-14432674D01*
X8322443Y-14432674D02*
X8341491Y-14442198D01*
X8341491Y-14442198D02*
X8351015Y-14451722D01*
X8351015Y-14451722D02*
X8360539Y-14470769D01*
X8360539Y-14470769D02*
X8360539Y-14518388D01*
X8360539Y-14518388D02*
X8351015Y-14537436D01*
X8351015Y-14537436D02*
X8341491Y-14546960D01*
X8341491Y-14546960D02*
X8322443Y-14556484D01*
X8322443Y-14556484D02*
X8274824Y-14556484D01*
X8274824Y-14556484D02*
X8255777Y-14546960D01*
X8255777Y-14546960D02*
X8246253Y-14537436D01*
X8446253Y-14537436D02*
X8455777Y-14546960D01*
X8455777Y-14546960D02*
X8446253Y-14556484D01*
X8446253Y-14556484D02*
X8436729Y-14546960D01*
X8436729Y-14546960D02*
X8446253Y-14537436D01*
X8446253Y-14537436D02*
X8446253Y-14556484D01*
X8522444Y-14356484D02*
X8646253Y-14356484D01*
X8646253Y-14356484D02*
X8579586Y-14432674D01*
X8579586Y-14432674D02*
X8608158Y-14432674D01*
X8608158Y-14432674D02*
X8627205Y-14442198D01*
X8627205Y-14442198D02*
X8636729Y-14451722D01*
X8636729Y-14451722D02*
X8646253Y-14470769D01*
X8646253Y-14470769D02*
X8646253Y-14518388D01*
X8646253Y-14518388D02*
X8636729Y-14537436D01*
X8636729Y-14537436D02*
X8627205Y-14546960D01*
X8627205Y-14546960D02*
X8608158Y-14556484D01*
X8608158Y-14556484D02*
X8551015Y-14556484D01*
X8551015Y-14556484D02*
X8531967Y-14546960D01*
X8531967Y-14546960D02*
X8522444Y-14537436D01*
X8770063Y-14356484D02*
X8789110Y-14356484D01*
X8789110Y-14356484D02*
X8808158Y-14366008D01*
X8808158Y-14366008D02*
X8817682Y-14375531D01*
X8817682Y-14375531D02*
X8827205Y-14394579D01*
X8827205Y-14394579D02*
X8836729Y-14432674D01*
X8836729Y-14432674D02*
X8836729Y-14480293D01*
X8836729Y-14480293D02*
X8827205Y-14518388D01*
X8827205Y-14518388D02*
X8817682Y-14537436D01*
X8817682Y-14537436D02*
X8808158Y-14546960D01*
X8808158Y-14546960D02*
X8789110Y-14556484D01*
X8789110Y-14556484D02*
X8770063Y-14556484D01*
X8770063Y-14556484D02*
X8751015Y-14546960D01*
X8751015Y-14546960D02*
X8741491Y-14537436D01*
X8741491Y-14537436D02*
X8731967Y-14518388D01*
X8731967Y-14518388D02*
X8722444Y-14480293D01*
X8722444Y-14480293D02*
X8722444Y-14432674D01*
X8722444Y-14432674D02*
X8731967Y-14394579D01*
X8731967Y-14394579D02*
X8741491Y-14375531D01*
X8741491Y-14375531D02*
X8751015Y-14366008D01*
X8751015Y-14366008D02*
X8770063Y-14356484D01*
X8960539Y-14356484D02*
X8979586Y-14356484D01*
X8979586Y-14356484D02*
X8998634Y-14366008D01*
X8998634Y-14366008D02*
X9008158Y-14375531D01*
X9008158Y-14375531D02*
X9017682Y-14394579D01*
X9017682Y-14394579D02*
X9027205Y-14432674D01*
X9027205Y-14432674D02*
X9027205Y-14480293D01*
X9027205Y-14480293D02*
X9017682Y-14518388D01*
X9017682Y-14518388D02*
X9008158Y-14537436D01*
X9008158Y-14537436D02*
X8998634Y-14546960D01*
X8998634Y-14546960D02*
X8979586Y-14556484D01*
X8979586Y-14556484D02*
X8960539Y-14556484D01*
X8960539Y-14556484D02*
X8941491Y-14546960D01*
X8941491Y-14546960D02*
X8931967Y-14537436D01*
X8931967Y-14537436D02*
X8922444Y-14518388D01*
X8922444Y-14518388D02*
X8912920Y-14480293D01*
X8912920Y-14480293D02*
X8912920Y-14432674D01*
X8912920Y-14432674D02*
X8922444Y-14394579D01*
X8922444Y-14394579D02*
X8931967Y-14375531D01*
X8931967Y-14375531D02*
X8941491Y-14366008D01*
X8941491Y-14366008D02*
X8960539Y-14356484D01*
X9112920Y-14556484D02*
X9112920Y-14423150D01*
X9112920Y-14442198D02*
X9122444Y-14432674D01*
X9122444Y-14432674D02*
X9141491Y-14423150D01*
X9141491Y-14423150D02*
X9170063Y-14423150D01*
X9170063Y-14423150D02*
X9189110Y-14432674D01*
X9189110Y-14432674D02*
X9198634Y-14451722D01*
X9198634Y-14451722D02*
X9198634Y-14556484D01*
X9198634Y-14451722D02*
X9208158Y-14432674D01*
X9208158Y-14432674D02*
X9227205Y-14423150D01*
X9227205Y-14423150D02*
X9255777Y-14423150D01*
X9255777Y-14423150D02*
X9274825Y-14432674D01*
X9274825Y-14432674D02*
X9284348Y-14451722D01*
X9284348Y-14451722D02*
X9284348Y-14556484D01*
X9379586Y-14556484D02*
X9379586Y-14423150D01*
X9379586Y-14442198D02*
X9389110Y-14432674D01*
X9389110Y-14432674D02*
X9408158Y-14423150D01*
X9408158Y-14423150D02*
X9436729Y-14423150D01*
X9436729Y-14423150D02*
X9455777Y-14432674D01*
X9455777Y-14432674D02*
X9465301Y-14451722D01*
X9465301Y-14451722D02*
X9465301Y-14556484D01*
X9465301Y-14451722D02*
X9474825Y-14432674D01*
X9474825Y-14432674D02*
X9493872Y-14423150D01*
X9493872Y-14423150D02*
X9522444Y-14423150D01*
X9522444Y-14423150D02*
X9541491Y-14432674D01*
X9541491Y-14432674D02*
X9551015Y-14451722D01*
X9551015Y-14451722D02*
X9551015Y-14556484D01*
X9941491Y-14346960D02*
X9770063Y-14604103D01*
X10198634Y-14356484D02*
X10217682Y-14356484D01*
X10217682Y-14356484D02*
X10236729Y-14366008D01*
X10236729Y-14366008D02*
X10246253Y-14375531D01*
X10246253Y-14375531D02*
X10255777Y-14394579D01*
X10255777Y-14394579D02*
X10265301Y-14432674D01*
X10265301Y-14432674D02*
X10265301Y-14480293D01*
X10265301Y-14480293D02*
X10255777Y-14518388D01*
X10255777Y-14518388D02*
X10246253Y-14537436D01*
X10246253Y-14537436D02*
X10236729Y-14546960D01*
X10236729Y-14546960D02*
X10217682Y-14556484D01*
X10217682Y-14556484D02*
X10198634Y-14556484D01*
X10198634Y-14556484D02*
X10179587Y-14546960D01*
X10179587Y-14546960D02*
X10170063Y-14537436D01*
X10170063Y-14537436D02*
X10160539Y-14518388D01*
X10160539Y-14518388D02*
X10151015Y-14480293D01*
X10151015Y-14480293D02*
X10151015Y-14432674D01*
X10151015Y-14432674D02*
X10160539Y-14394579D01*
X10160539Y-14394579D02*
X10170063Y-14375531D01*
X10170063Y-14375531D02*
X10179587Y-14366008D01*
X10179587Y-14366008D02*
X10198634Y-14356484D01*
X10351015Y-14537436D02*
X10360539Y-14546960D01*
X10360539Y-14546960D02*
X10351015Y-14556484D01*
X10351015Y-14556484D02*
X10341491Y-14546960D01*
X10341491Y-14546960D02*
X10351015Y-14537436D01*
X10351015Y-14537436D02*
X10351015Y-14556484D01*
X10436729Y-14375531D02*
X10446253Y-14366008D01*
X10446253Y-14366008D02*
X10465301Y-14356484D01*
X10465301Y-14356484D02*
X10512920Y-14356484D01*
X10512920Y-14356484D02*
X10531968Y-14366008D01*
X10531968Y-14366008D02*
X10541491Y-14375531D01*
X10541491Y-14375531D02*
X10551015Y-14394579D01*
X10551015Y-14394579D02*
X10551015Y-14413627D01*
X10551015Y-14413627D02*
X10541491Y-14442198D01*
X10541491Y-14442198D02*
X10427206Y-14556484D01*
X10427206Y-14556484D02*
X10551015Y-14556484D01*
X10674825Y-14356484D02*
X10693872Y-14356484D01*
X10693872Y-14356484D02*
X10712920Y-14366008D01*
X10712920Y-14366008D02*
X10722444Y-14375531D01*
X10722444Y-14375531D02*
X10731968Y-14394579D01*
X10731968Y-14394579D02*
X10741491Y-14432674D01*
X10741491Y-14432674D02*
X10741491Y-14480293D01*
X10741491Y-14480293D02*
X10731968Y-14518388D01*
X10731968Y-14518388D02*
X10722444Y-14537436D01*
X10722444Y-14537436D02*
X10712920Y-14546960D01*
X10712920Y-14546960D02*
X10693872Y-14556484D01*
X10693872Y-14556484D02*
X10674825Y-14556484D01*
X10674825Y-14556484D02*
X10655777Y-14546960D01*
X10655777Y-14546960D02*
X10646253Y-14537436D01*
X10646253Y-14537436D02*
X10636729Y-14518388D01*
X10636729Y-14518388D02*
X10627206Y-14480293D01*
X10627206Y-14480293D02*
X10627206Y-14432674D01*
X10627206Y-14432674D02*
X10636729Y-14394579D01*
X10636729Y-14394579D02*
X10646253Y-14375531D01*
X10646253Y-14375531D02*
X10655777Y-14366008D01*
X10655777Y-14366008D02*
X10674825Y-14356484D01*
X10855777Y-14442198D02*
X10836729Y-14432674D01*
X10836729Y-14432674D02*
X10827206Y-14423150D01*
X10827206Y-14423150D02*
X10817682Y-14404103D01*
X10817682Y-14404103D02*
X10817682Y-14394579D01*
X10817682Y-14394579D02*
X10827206Y-14375531D01*
X10827206Y-14375531D02*
X10836729Y-14366008D01*
X10836729Y-14366008D02*
X10855777Y-14356484D01*
X10855777Y-14356484D02*
X10893872Y-14356484D01*
X10893872Y-14356484D02*
X10912920Y-14366008D01*
X10912920Y-14366008D02*
X10922444Y-14375531D01*
X10922444Y-14375531D02*
X10931968Y-14394579D01*
X10931968Y-14394579D02*
X10931968Y-14404103D01*
X10931968Y-14404103D02*
X10922444Y-14423150D01*
X10922444Y-14423150D02*
X10912920Y-14432674D01*
X10912920Y-14432674D02*
X10893872Y-14442198D01*
X10893872Y-14442198D02*
X10855777Y-14442198D01*
X10855777Y-14442198D02*
X10836729Y-14451722D01*
X10836729Y-14451722D02*
X10827206Y-14461246D01*
X10827206Y-14461246D02*
X10817682Y-14480293D01*
X10817682Y-14480293D02*
X10817682Y-14518388D01*
X10817682Y-14518388D02*
X10827206Y-14537436D01*
X10827206Y-14537436D02*
X10836729Y-14546960D01*
X10836729Y-14546960D02*
X10855777Y-14556484D01*
X10855777Y-14556484D02*
X10893872Y-14556484D01*
X10893872Y-14556484D02*
X10912920Y-14546960D01*
X10912920Y-14546960D02*
X10922444Y-14537436D01*
X10922444Y-14537436D02*
X10931968Y-14518388D01*
X10931968Y-14518388D02*
X10931968Y-14480293D01*
X10931968Y-14480293D02*
X10922444Y-14461246D01*
X10922444Y-14461246D02*
X10912920Y-14451722D01*
X10912920Y-14451722D02*
X10893872Y-14442198D01*
X10998634Y-14356484D02*
X11131968Y-14356484D01*
X11131968Y-14356484D02*
X11046253Y-14556484D01*
X11198634Y-14356484D02*
X11198634Y-14394579D01*
X11274825Y-14356484D02*
X11274825Y-14394579D01*
X11570063Y-14632674D02*
X11560539Y-14623150D01*
X11560539Y-14623150D02*
X11541491Y-14594579D01*
X11541491Y-14594579D02*
X11531968Y-14575531D01*
X11531968Y-14575531D02*
X11522444Y-14546960D01*
X11522444Y-14546960D02*
X11512920Y-14499341D01*
X11512920Y-14499341D02*
X11512920Y-14461246D01*
X11512920Y-14461246D02*
X11522444Y-14413627D01*
X11522444Y-14413627D02*
X11531968Y-14385055D01*
X11531968Y-14385055D02*
X11541491Y-14366008D01*
X11541491Y-14366008D02*
X11560539Y-14337436D01*
X11560539Y-14337436D02*
X11570063Y-14327912D01*
X11636729Y-14375531D02*
X11646253Y-14366008D01*
X11646253Y-14366008D02*
X11665301Y-14356484D01*
X11665301Y-14356484D02*
X11712920Y-14356484D01*
X11712920Y-14356484D02*
X11731968Y-14366008D01*
X11731968Y-14366008D02*
X11741491Y-14375531D01*
X11741491Y-14375531D02*
X11751015Y-14394579D01*
X11751015Y-14394579D02*
X11751015Y-14413627D01*
X11751015Y-14413627D02*
X11741491Y-14442198D01*
X11741491Y-14442198D02*
X11627206Y-14556484D01*
X11627206Y-14556484D02*
X11751015Y-14556484D01*
X11989110Y-14556484D02*
X11989110Y-14356484D01*
X12074825Y-14556484D02*
X12074825Y-14451722D01*
X12074825Y-14451722D02*
X12065301Y-14432674D01*
X12065301Y-14432674D02*
X12046253Y-14423150D01*
X12046253Y-14423150D02*
X12017682Y-14423150D01*
X12017682Y-14423150D02*
X11998634Y-14432674D01*
X11998634Y-14432674D02*
X11989110Y-14442198D01*
X12198634Y-14556484D02*
X12179587Y-14546960D01*
X12179587Y-14546960D02*
X12170063Y-14537436D01*
X12170063Y-14537436D02*
X12160539Y-14518388D01*
X12160539Y-14518388D02*
X12160539Y-14461246D01*
X12160539Y-14461246D02*
X12170063Y-14442198D01*
X12170063Y-14442198D02*
X12179587Y-14432674D01*
X12179587Y-14432674D02*
X12198634Y-14423150D01*
X12198634Y-14423150D02*
X12227206Y-14423150D01*
X12227206Y-14423150D02*
X12246253Y-14432674D01*
X12246253Y-14432674D02*
X12255777Y-14442198D01*
X12255777Y-14442198D02*
X12265301Y-14461246D01*
X12265301Y-14461246D02*
X12265301Y-14518388D01*
X12265301Y-14518388D02*
X12255777Y-14537436D01*
X12255777Y-14537436D02*
X12246253Y-14546960D01*
X12246253Y-14546960D02*
X12227206Y-14556484D01*
X12227206Y-14556484D02*
X12198634Y-14556484D01*
X12379587Y-14556484D02*
X12360539Y-14546960D01*
X12360539Y-14546960D02*
X12351015Y-14527912D01*
X12351015Y-14527912D02*
X12351015Y-14356484D01*
X12531968Y-14546960D02*
X12512920Y-14556484D01*
X12512920Y-14556484D02*
X12474825Y-14556484D01*
X12474825Y-14556484D02*
X12455777Y-14546960D01*
X12455777Y-14546960D02*
X12446253Y-14527912D01*
X12446253Y-14527912D02*
X12446253Y-14451722D01*
X12446253Y-14451722D02*
X12455777Y-14432674D01*
X12455777Y-14432674D02*
X12474825Y-14423150D01*
X12474825Y-14423150D02*
X12512920Y-14423150D01*
X12512920Y-14423150D02*
X12531968Y-14432674D01*
X12531968Y-14432674D02*
X12541491Y-14451722D01*
X12541491Y-14451722D02*
X12541491Y-14470769D01*
X12541491Y-14470769D02*
X12446253Y-14489817D01*
X12617682Y-14546960D02*
X12636730Y-14556484D01*
X12636730Y-14556484D02*
X12674825Y-14556484D01*
X12674825Y-14556484D02*
X12693872Y-14546960D01*
X12693872Y-14546960D02*
X12703396Y-14527912D01*
X12703396Y-14527912D02*
X12703396Y-14518388D01*
X12703396Y-14518388D02*
X12693872Y-14499341D01*
X12693872Y-14499341D02*
X12674825Y-14489817D01*
X12674825Y-14489817D02*
X12646253Y-14489817D01*
X12646253Y-14489817D02*
X12627206Y-14480293D01*
X12627206Y-14480293D02*
X12617682Y-14461246D01*
X12617682Y-14461246D02*
X12617682Y-14451722D01*
X12617682Y-14451722D02*
X12627206Y-14432674D01*
X12627206Y-14432674D02*
X12646253Y-14423150D01*
X12646253Y-14423150D02*
X12674825Y-14423150D01*
X12674825Y-14423150D02*
X12693872Y-14432674D01*
X12770063Y-14632674D02*
X12779587Y-14623150D01*
X12779587Y-14623150D02*
X12798634Y-14594579D01*
X12798634Y-14594579D02*
X12808158Y-14575531D01*
X12808158Y-14575531D02*
X12817682Y-14546960D01*
X12817682Y-14546960D02*
X12827206Y-14499341D01*
X12827206Y-14499341D02*
X12827206Y-14461246D01*
X12827206Y-14461246D02*
X12817682Y-14413627D01*
X12817682Y-14413627D02*
X12808158Y-14385055D01*
X12808158Y-14385055D02*
X12798634Y-14366008D01*
X12798634Y-14366008D02*
X12779587Y-14337436D01*
X12779587Y-14337436D02*
X12770063Y-14327912D01*
M02*
